  0
SECTION
  2
HEADER
  9
$ACADVER
  1
AC1014
  9
$EXTMIN
 10
70.16401489310567
 20
112.369642808922
 30
0.0
  9
$EXTMAX
 10
277.0834797641999
 20
227.1366601424358
 30
0.0
  9
$HANDSEED
  5
56
  9
$MEASUREMENT
 70
1
  0
ENDSEC
  0
SECTION
  2
TABLES
  0
TABLE
  2
VPORT
  5
8
330
0
100
AcDbSymbolTable
 70
     4
  0
VPORT
  5
2E
330
8
100
AcDbSymbolTableRecord
100
AcDbViewportTableRecord
  2
*ACTIVE
 70
     0
 10
0.0
 20
0.0
 11
1.0
 21
1.0
 12
209.9999999999999
 22
148.4999999999999
 13
0.0
 23
0.0
 14
10.0
 24
10.0
 15
10.0
 25
10.0
 16
0.0
 26
0.0
 36
1.0
 17
0.0
 27
0.0
 37
0.0
 40
340.9950045922664
 41
1.239944521497919
 42
50.0
 43
0.0
 44
0.0
 50
0.0
 51
0.0
 71
     0
 72
   100
 73
     1
 74
     3
 75
     0
 76
     0
 77
     0
 78
     0
  0
ENDTAB
  0
TABLE
  2
LTYPE
  5
5
330
0
100
AcDbSymbolTable
 70
     1
  0
LTYPE
  5
14
330
5
100
AcDbSymbolTableRecord
100
AcDbLinetypeTableRecord
  2
BYBLOCK
 70
     0
  3

 72
    65
 73
     0
 40
0.0
  0
LTYPE
  5
15
330
5
100
AcDbSymbolTableRecord
100
AcDbLinetypeTableRecord
  2
BYLAYER
 70
     0
  3

 72
    65
 73
     0
 40
0.0
  0
LTYPE
  5
16
330
5
100
AcDbSymbolTableRecord
100
AcDbLinetypeTableRecord
  2
CONTINUOUS
 70
     0
  3
Solid line
 72
    65
 73
     0
 40
0.0
  0
ENDTAB
  0
TABLE
  2
LAYER
  5
2
330
0
100
AcDbSymbolTable
 70
1
  0
LAYER
  5
10
330
2
100
AcDbSymbolTableRecord
100
AcDbLayerTableRecord
  2
0
 70
     0
 62
     7
  6
CONTINUOUS
  0
ENDTAB
  0
TABLE
  2
STYLE
  5
3
330
0
100
AcDbSymbolTable
 70
     1
  0
STYLE
  5
11
330
3
100
AcDbSymbolTableRecord
100
AcDbTextStyleTableRecord
  2
STANDARD
 70
     0
 40
0.0
 41
1.0
 50
0.0
 71
     0
 42
2.5
  3
txt
  4

  0
ENDTAB
  0
TABLE
  2
VIEW
  5
6
330
0
100
AcDbSymbolTable
 70
     0
  0
ENDTAB
  0
TABLE
  2
UCS
  5
7
330
0
100
AcDbSymbolTable
 70
     0
  0
ENDTAB
  0
TABLE
  2
APPID
  5
9
330
0
100
AcDbSymbolTable
 70
     2
  0
APPID
  5
12
330
9
100
AcDbSymbolTableRecord
100
AcDbRegAppTableRecord
  2
ACAD
 70
     0
  0
APPID
  5
2B
330
9
100
AcDbSymbolTableRecord
100
AcDbRegAppTableRecord
  2
URBANX
 70
     0
  0
ENDTAB
  0
TABLE
  2
DIMSTYLE
  5
A
330
0
100
AcDbSymbolTable
 70
     1
  0
DIMSTYLE
105
27
330
A
100
AcDbSymbolTableRecord
100
AcDbDimStyleTableRecord
  2
ISO-25
 70
     0
  3

  4

  5

  6

  7

 40
1.0
 41
2.5
 42
0.625
 43
3.75
 44
1.25
 45
0.0
 46
0.0
 47
0.0
 48
0.0
140
2.5
141
2.5
142
0.0
143
0.03937007874016
144
1.0
145
0.0
146
1.0
147
0.625
 71
     0
 72
     0
 73
     0
 74
     0
 75
     0
 76
     0
 77
     1
 78
     8
170
     0
171
     3
172
     1
173
     0
174
     0
175
     0
176
     0
177
     0
178
     0
270
     2
271
     2
272
     2
273
     2
274
     3
340
11
275
     0
280
     0
281
     0
282
     0
283
     0
284
     8
285
     0
286
     0
287
     3
288
     0
  0
ENDTAB
  0
TABLE
  2
BLOCK_RECORD
  5
1
330
0
100
AcDbSymbolTable
 70
     1
  0
BLOCK_RECORD
  5
1F
102
{ACAD_XDICTIONARY
360
52
102
}
330
1
100
AcDbSymbolTableRecord
100
AcDbBlockTableRecord
  2
*MODEL_SPACE
  0
BLOCK_RECORD
  5
1B
102
{ACAD_XDICTIONARY
360
50
102
}
330
1
100
AcDbSymbolTableRecord
100
AcDbBlockTableRecord
  2
*PAPER_SPACE
  0
ENDTAB
  0
ENDSEC
  0
SECTION
  2
BLOCKS
  0
BLOCK
  5
20
330
1F
100
AcDbEntity
  8
0
100
AcDbBlockBegin
  2
*MODEL_SPACE
 70
     0
 10
0.0
 20
0.0
 30
0.0
  3
*MODEL_SPACE
  1

  0
ENDBLK
  5
21
330
1F
100
AcDbEntity
  8
0
100
AcDbBlockEnd
  0
BLOCK
  5
1C
330
1B
100
AcDbEntity
 67
     1
  8
0
100
AcDbBlockBegin
  2
*PAPER_SPACE
  1

  0
ENDBLK
  5
1D
330
1B
100
AcDbEntity
 67
     1
  8
0
100
AcDbBlockEnd
  0
ENDSEC
  0
SECTION
  2
ENTITIES
  0
LINE
  5
ff
100
AcDbEntity
  8
0
100
AcDbLine
 62
     253
 10
26.5052
 20
69.8444
 30
0.0
 11
26.5052
 21
72.3441
 31
0.0
  0
LINE
  5
100
100
AcDbEntity
  8
0
100
AcDbLine
 62
     253
 10
26.5052
 20
203.597
 30
0.0
 11
26.5052
 21
72.3441
 31
0.0
  0
LINE
  5
101
100
AcDbEntity
  8
0
100
AcDbLine
 62
     253
 10
26.5052
 20
103.595
 30
0.0
 11
26.5052
 21
106.095
 31
0.0
  0
LINE
  5
102
100
AcDbEntity
  8
0
100
AcDbLine
 62
     253
 10
26.5052
 20
106.095
 30
0.0
 11
26.5052
 21
101.094
 31
0.0
  0
LINE
  5
103
100
AcDbEntity
  8
0
100
AcDbLine
 62
     253
 10
26.5052
 20
101.094
 30
0.0
 11
26.5052
 21
103.595
 31
0.0
  0
LINE
  5
104
100
AcDbEntity
  8
0
100
AcDbLine
 62
     253
 10
26.5052
 20
81.0934
 30
0.0
 11
26.5052
 21
83.5932
 31
0.0
  0
LINE
  5
105
100
AcDbEntity
  8
0
100
AcDbLine
 62
     253
 10
26.5052
 20
83.5932
 30
0.0
 11
26.5052
 21
78.595
 31
0.0
  0
LINE
  5
106
100
AcDbEntity
  8
0
100
AcDbLine
 62
     253
 10
26.5052
 20
78.595
 30
0.0
 11
26.5052
 21
81.0934
 31
0.0
  0
LINE
  5
107
100
AcDbEntity
  8
0
100
AcDbLine
 62
     253
 10
26.5052
 20
69.8444
 30
0.0
 11
31.5061
 21
69.8444
 31
0.0
  0
LINE
  5
108
100
AcDbEntity
  8
0
100
AcDbLine
 62
     253
 10
26.5052
 20
72.3441
 30
0.0
 11
31.5061
 21
72.3441
 31
0.0
  0
LINE
  5
109
100
AcDbEntity
  8
0
100
AcDbLine
 62
     253
 10
31.5061
 20
69.8444
 30
0.0
 11
31.5061
 21
72.3441
 31
0.0
  0
LINE
  5
10a
100
AcDbEntity
  8
0
100
AcDbLine
 62
     253
 10
31.5061
 20
208.478
 30
0.0
 11
26.5052
 21
203.597
 31
0.0
  0
LINE
  5
10b
100
AcDbEntity
  8
0
100
AcDbLine
 62
     253
 10
31.5061
 20
72.3441
 30
0.0
 11
31.5061
 21
208.478
 31
0.0
  0
SPLINE
  5
10c
100
AcDbEntity
  8
0
100
AcDbSpline
210
0.0
220
0.0
230
1.0
 62
     253
 70
     0
 71
     3
 72
     8
 73
4
 40
0.0
 40
0.0
 40
0.0
 40
0.0
 40
1.0
 40
1.0
 40
1.0
 40
1.0
 10
30.2562
 20
92.3452
 30
0.0
 10
30.2576
 20
91.9674
 30
0.0
 10
30.0771
 20
91.5928
 30
0.0
 10
29.778
 20
91.3624
 30
0.0
  0
SPLINE
  5
10d
100
AcDbEntity
  8
0
100
AcDbSpline
210
0.0
220
0.0
230
1.0
 62
     253
 70
     0
 71
     3
 72
     8
 73
4
 40
0.0
 40
0.0
 40
0.0
 40
0.0
 40
1.0
 40
1.0
 40
1.0
 40
1.0
 10
29.778
 20
91.3624
 30
0.0
 10
29.5768
 20
91.2026
 30
0.0
 10
29.3247
 20
91.1077
 30
0.0
 10
29.0683
 20
91.0967
 30
0.0
  0
SPLINE
  5
10e
100
AcDbEntity
  8
0
100
AcDbSpline
210
0.0
220
0.0
230
1.0
 62
     253
 70
     0
 71
     3
 72
     8
 73
4
 40
0.0
 40
0.0
 40
0.0
 40
0.0
 40
1.0
 40
1.0
 40
1.0
 40
1.0
 10
29.0683
 20
91.0967
 30
0.0
 10
28.7624
 20
91.0802
 30
0.0
 10
28.4523
 20
91.1807
 30
0.0
 10
28.2153
 20
91.3765
 30
0.0
  0
SPLINE
  5
10f
100
AcDbEntity
  8
0
100
AcDbSpline
210
0.0
220
0.0
230
1.0
 62
     253
 70
     0
 71
     3
 72
     8
 73
4
 40
0.0
 40
0.0
 40
0.0
 40
0.0
 40
1.0
 40
1.0
 40
1.0
 40
1.0
 10
28.2153
 20
91.3765
 30
0.0
 10
27.919
 20
91.616
 30
0.0
 10
27.744
 20
91.9963
 30
0.0
 10
27.7565
 20
92.3766
 30
0.0
  0
SPLINE
  5
110
100
AcDbEntity
  8
0
100
AcDbSpline
210
0.0
220
0.0
230
1.0
 62
     253
 70
     0
 71
     3
 72
     8
 73
4
 40
0.0
 40
0.0
 40
0.0
 40
0.0
 40
1.0
 40
1.0
 40
1.0
 40
1.0
 10
27.7565
 20
92.3766
 30
0.0
 10
27.7633
 20
92.6786
 30
0.0
 10
27.886
 20
92.9792
 30
0.0
 10
28.0941
 20
93.2007
 30
0.0
  0
SPLINE
  5
111
100
AcDbEntity
  8
0
100
AcDbSpline
210
0.0
220
0.0
230
1.0
 62
     253
 70
     0
 71
     3
 72
     8
 73
4
 40
0.0
 40
0.0
 40
0.0
 40
0.0
 40
1.0
 40
1.0
 40
1.0
 40
1.0
 10
28.0941
 20
93.2007
 30
0.0
 10
28.3518
 20
93.478
 30
0.0
 10
28.739
 20
93.6255
 30
0.0
 10
29.1152
 20
93.5881
 30
0.0
  0
SPLINE
  5
112
100
AcDbEntity
  8
0
100
AcDbSpline
210
0.0
220
0.0
230
1.0
 62
     253
 70
     0
 71
     3
 72
     8
 73
4
 40
0.0
 40
0.0
 40
0.0
 40
0.0
 40
1.0
 40
1.0
 40
1.0
 40
1.0
 10
29.1152
 20
93.5881
 30
0.0
 10
29.4184
 20
93.5648
 30
0.0
 10
29.7091
 20
93.4226
 30
0.0
 10
29.9172
 20
93.2007
 30
0.0
  0
SPLINE
  5
113
100
AcDbEntity
  8
0
100
AcDbSpline
210
0.0
220
0.0
230
1.0
 62
     253
 70
     0
 71
     3
 72
     8
 73
4
 40
0.0
 40
0.0
 40
0.0
 40
0.0
 40
1.0
 40
1.0
 40
1.0
 40
1.0
 10
29.9172
 20
93.2007
 30
0.0
 10
30.1336
 20
92.9707
 30
0.0
 10
30.2562
 20
92.6592
 30
0.0
 10
30.2562
 20
92.3452
 30
0.0
  0
LINE
  5
114
100
AcDbEntity
  8
0
100
AcDbLine
 62
     253
 10
31.5061
 20
103.595
 30
0.0
 11
31.5061
 21
106.095
 31
0.0
  0
LINE
  5
115
100
AcDbEntity
  8
0
100
AcDbLine
 62
     253
 10
31.5061
 20
106.095
 30
0.0
 11
31.5061
 21
101.094
 31
0.0
  0
LINE
  5
116
100
AcDbEntity
  8
0
100
AcDbLine
 62
     253
 10
31.5061
 20
101.094
 30
0.0
 11
31.5061
 21
103.595
 31
0.0
  0
LINE
  5
117
100
AcDbEntity
  8
0
100
AcDbLine
 62
     253
 10
31.5061
 20
81.0934
 30
0.0
 11
31.5061
 21
83.5932
 31
0.0
  0
LINE
  5
118
100
AcDbEntity
  8
0
100
AcDbLine
 62
     253
 10
31.5061
 20
83.5932
 30
0.0
 11
31.5061
 21
78.595
 31
0.0
  0
LINE
  5
119
100
AcDbEntity
  8
0
100
AcDbLine
 62
     253
 10
31.5061
 20
78.595
 30
0.0
 11
31.5061
 21
81.0934
 31
0.0
  0
SPLINE
  5
11a
100
AcDbEntity
  8
0
100
AcDbSpline
210
0.0
220
0.0
230
1.0
 62
     253
 70
     0
 71
     3
 72
     8
 73
4
 40
0.0
 40
0.0
 40
0.0
 40
0.0
 40
1.0
 40
1.0
 40
1.0
 40
1.0
 10
29.0063
 20
91.0953
 30
0.0
 10
29.6954
 20
91.0953
 30
0.0
 10
30.2562
 20
91.6548
 30
0.0
 10
30.2562
 20
92.3452
 30
0.0
  0
SPLINE
  5
11b
100
AcDbEntity
  8
0
100
AcDbSpline
210
0.0
220
0.0
230
1.0
 62
     253
 70
     0
 71
     3
 72
     8
 73
4
 40
0.0
 40
0.0
 40
0.0
 40
0.0
 40
1.0
 40
1.0
 40
1.0
 40
1.0
 10
30.2562
 20
92.3452
 30
0.0
 10
30.2562
 20
93.0356
 30
0.0
 10
29.6954
 20
93.5951
 30
0.0
 10
29.0063
 20
93.5951
 30
0.0
  0
SPLINE
  5
11c
100
AcDbEntity
  8
0
100
AcDbSpline
210
0.0
220
0.0
230
1.0
 62
     253
 70
     0
 71
     3
 72
     8
 73
4
 40
0.0
 40
0.0
 40
0.0
 40
0.0
 40
1.0
 40
1.0
 40
1.0
 40
1.0
 10
29.0063
 20
93.5951
 30
0.0
 10
28.3159
 20
93.5951
 30
0.0
 10
27.7551
 20
93.0356
 30
0.0
 10
27.7551
 20
92.3452
 30
0.0
  0
SPLINE
  5
11d
100
AcDbEntity
  8
0
100
AcDbSpline
210
0.0
220
0.0
230
1.0
 62
     253
 70
     0
 71
     3
 72
     8
 73
4
 40
0.0
 40
0.0
 40
0.0
 40
0.0
 40
1.0
 40
1.0
 40
1.0
 40
1.0
 10
27.7551
 20
92.3452
 30
0.0
 10
27.7551
 20
91.6548
 30
0.0
 10
28.3159
 20
91.0953
 30
0.0
 10
29.0063
 20
91.0953
 30
0.0
  0
LINE
  5
11e
100
AcDbEntity
  8
0
100
AcDbLine
 62
     253
 10
29.0063
 20
206.037
 30
0.0
 11
31.5061
 21
208.478
 31
0.0
  0
LINE
  5
11f
100
AcDbEntity
  8
0
100
AcDbLine
 62
     253
 10
2.17179
 20
179.842
 30
0.0
 11
55.8394
 21
232.233
 31
0.0
  0
SPLINE
  5
120
100
AcDbEntity
  8
0
100
AcDbSpline
210
0.0
220
0.0
230
1.0
 62
     253
 70
     0
 71
     3
 72
     8
 73
4
 40
0.0
 40
0.0
 40
0.0
 40
0.0
 40
1.0
 40
1.0
 40
1.0
 40
1.0
 10
46.8947
 20
223.501
 30
0.0
 10
47.3893
 20
223.984
 30
0.0
 10
47.789
 20
224.375
 30
0.0
 10
47.789
 20
224.375
 30
0.0
  0
SPLINE
  5
121
100
AcDbEntity
  8
0
100
AcDbSpline
210
0.0
220
0.0
230
1.0
 62
     253
 70
     0
 71
     3
 72
     8
 73
4
 40
0.0
 40
0.0
 40
0.0
 40
0.0
 40
1.0
 40
1.0
 40
1.0
 40
1.0
 10
46.0005
 20
222.629
 30
0.0
 10
46.0005
 20
222.629
 30
0.0
 10
46.4012
 20
223.02
 30
0.0
 10
46.8947
 20
223.501
 30
0.0
  0
SPLINE
  5
122
100
AcDbEntity
  8
0
100
AcDbSpline
210
0.0
220
0.0
230
1.0
 62
     253
 70
     0
 71
     3
 72
     8
 73
4
 40
0.0
 40
0.0
 40
0.0
 40
0.0
 40
1.0
 40
1.0
 40
1.0
 40
1.0
 10
11.1166
 20
188.573
 30
0.0
 10
11.61
 20
189.057
 30
0.0
 10
12.011
 20
189.449
 30
0.0
 10
12.011
 20
189.449
 30
0.0
  0
SPLINE
  5
123
100
AcDbEntity
  8
0
100
AcDbSpline
210
0.0
220
0.0
230
1.0
 62
     253
 70
     0
 71
     3
 72
     8
 73
4
 40
0.0
 40
0.0
 40
0.0
 40
0.0
 40
1.0
 40
1.0
 40
1.0
 40
1.0
 10
10.2223
 20
187.702
 30
0.0
 10
10.2223
 20
187.702
 30
0.0
 10
10.6219
 20
188.091
 30
0.0
 10
11.1166
 20
188.573
 30
0.0
  0
LINE
  5
124
100
AcDbEntity
  8
0
100
AcDbLine
 62
     253
 10
0.0757922
 20
181.989
 30
0.0
 11
2.17179
 21
179.842
 31
0.0
  0
LINE
  5
125
100
AcDbEntity
  8
0
100
AcDbLine
 62
     253
 10
55.8394
 20
232.233
 30
0.0
 11
53.7436
 21
234.381
 31
0.0
  0
LINE
  5
126
100
AcDbEntity
  8
0
100
AcDbLine
 62
     253
 10
53.7436
 20
234.381
 30
0.0
 11
0.0757922
 21
181.989
 31
0.0
  0
SPLINE
  5
127
100
AcDbEntity
  8
0
100
AcDbSpline
210
0.0
220
0.0
230
1.0
 62
     253
 70
     0
 71
     3
 72
     8
 73
4
 40
0.0
 40
0.0
 40
0.0
 40
0.0
 40
1.0
 40
1.0
 40
1.0
 40
1.0
 10
44.8
 20
225.647
 30
0.0
 10
45.2935
 20
226.129
 30
0.0
 10
45.6942
 20
226.522
 30
0.0
 10
45.6942
 20
226.522
 30
0.0
  0
SPLINE
  5
128
100
AcDbEntity
  8
0
100
AcDbSpline
210
0.0
220
0.0
230
1.0
 62
     253
 70
     0
 71
     3
 72
     8
 73
4
 40
0.0
 40
0.0
 40
0.0
 40
0.0
 40
1.0
 40
1.0
 40
1.0
 40
1.0
 10
45.6942
 20
226.522
 30
0.0
 10
45.6942
 20
226.522
 30
0.0
 10
45.2935
 20
226.129
 30
0.0
 10
44.8
 20
225.647
 30
0.0
  0
SPLINE
  5
129
100
AcDbEntity
  8
0
100
AcDbSpline
210
0.0
220
0.0
230
1.0
 62
     253
 70
     0
 71
     3
 72
     8
 73
4
 40
0.0
 40
0.0
 40
0.0
 40
0.0
 40
1.0
 40
1.0
 40
1.0
 40
1.0
 10
44.8
 20
225.647
 30
0.0
 10
44.3054
 20
225.167
 30
0.0
 10
43.9043
 20
224.776
 30
0.0
 10
43.9043
 20
224.776
 30
0.0
  0
SPLINE
  5
12a
100
AcDbEntity
  8
0
100
AcDbSpline
210
0.0
220
0.0
230
1.0
 62
     253
 70
     0
 71
     3
 72
     8
 73
4
 40
0.0
 40
0.0
 40
0.0
 40
0.0
 40
1.0
 40
1.0
 40
1.0
 40
1.0
 10
9.02063
 20
190.72
 30
0.0
 10
9.51537
 20
191.204
 30
0.0
 10
9.915
 20
191.595
 30
0.0
 10
9.915
 20
191.595
 30
0.0
  0
SPLINE
  5
12b
100
AcDbEntity
  8
0
100
AcDbSpline
210
0.0
220
0.0
230
1.0
 62
     253
 70
     0
 71
     3
 72
     8
 73
4
 40
0.0
 40
0.0
 40
0.0
 40
0.0
 40
1.0
 40
1.0
 40
1.0
 40
1.0
 10
9.915
 20
191.595
 30
0.0
 10
9.915
 20
191.595
 30
0.0
 10
9.51537
 20
191.204
 30
0.0
 10
9.02063
 20
190.72
 30
0.0
  0
SPLINE
  5
12c
100
AcDbEntity
  8
0
100
AcDbSpline
210
0.0
220
0.0
230
1.0
 62
     253
 70
     0
 71
     3
 72
     8
 73
4
 40
0.0
 40
0.0
 40
0.0
 40
0.0
 40
1.0
 40
1.0
 40
1.0
 40
1.0
 10
9.02063
 20
190.72
 30
0.0
 10
8.52731
 20
190.24
 30
0.0
 10
8.12631
 20
189.849
 30
0.0
 10
8.12631
 20
189.849
 30
0.0
  0
LINE
  5
12d
100
AcDbEntity
  8
0
100
AcDbLine
 62
     253
 10
31.5061
 20
101.094
 30
0.0
 11
26.5052
 21
101.094
 31
0.0
  0
LINE
  5
12e
100
AcDbEntity
  8
0
100
AcDbLine
 62
     253
 10
31.5061
 20
106.095
 30
0.0
 11
26.5052
 21
106.095
 31
0.0
  0
LINE
  5
12f
100
AcDbEntity
  8
0
100
AcDbLine
 62
     253
 10
31.5061
 20
78.595
 30
0.0
 11
26.5052
 21
78.595
 31
0.0
  0
LINE
  5
130
100
AcDbEntity
  8
0
100
AcDbLine
 62
     253
 10
31.5061
 20
83.5932
 30
0.0
 11
26.5052
 21
83.5932
 31
0.0
  0
LINE
  5
131
100
AcDbEntity
  8
0
100
AcDbLine
 62
     253
 10
45.6942
 20
226.522
 30
0.0
 11
47.789
 21
224.375
 31
0.0
  0
LINE
  5
132
100
AcDbEntity
  8
0
100
AcDbLine
 62
     253
 10
43.9043
 20
224.776
 30
0.0
 11
46.0005
 21
222.629
 31
0.0
  0
LINE
  5
133
100
AcDbEntity
  8
0
100
AcDbLine
 62
     253
 10
9.915
 20
191.595
 30
0.0
 11
12.011
 21
189.449
 31
0.0
  0
LINE
  5
134
100
AcDbEntity
  8
0
100
AcDbLine
 62
     253
 10
8.12631
 20
189.849
 30
0.0
 11
10.2223
 21
187.702
 31
0.0
  0
LINE
  5
135
100
AcDbEntity
  8
0
100
AcDbLine
 62
     253
 10
118.722
 20
203.597
 30
0.0
 11
98.7213
 21
203.597
 31
0.0
  0
LINE
  5
136
100
AcDbEntity
  8
0
100
AcDbLine
 62
     253
 10
118.722
 20
69.8444
 30
0.0
 11
98.7213
 21
69.8444
 31
0.0
  0
LINE
  5
137
100
AcDbEntity
  8
0
100
AcDbLine
 62
     253
 10
118.722
 20
69.8444
 30
0.0
 11
121.222
 21
72.3441
 31
0.0
  0
LINE
  5
138
100
AcDbEntity
  8
0
100
AcDbLine
 62
     253
 10
98.7213
 20
69.8444
 30
0.0
 11
96.2215
 21
72.3441
 31
0.0
  0
LINE
  5
139
100
AcDbEntity
  8
0
100
AcDbLine
 62
     253
 10
121.222
 20
72.3441
 30
0.0
 11
121.222
 21
208.478
 31
0.0
  0
LINE
  5
13a
100
AcDbEntity
  8
0
100
AcDbLine
 62
     253
 10
96.2215
 20
72.3441
 30
0.0
 11
96.2215
 21
208.478
 31
0.0
  0
SPLINE
  5
13b
100
AcDbEntity
  8
0
100
AcDbSpline
210
0.0
220
0.0
230
1.0
 62
     253
 70
     0
 71
     3
 72
     8
 73
4
 40
0.0
 40
0.0
 40
0.0
 40
0.0
 40
1.0
 40
1.0
 40
1.0
 40
1.0
 10
96.2215
 20
92.3452
 30
0.0
 10
96.2215
 20
91.9674
 30
0.0
 10
96.2215
 20
91.5928
 30
0.0
 10
96.2215
 20
91.3624
 30
0.0
  0
SPLINE
  5
13c
100
AcDbEntity
  8
0
100
AcDbSpline
210
0.0
220
0.0
230
1.0
 62
     253
 70
     0
 71
     3
 72
     8
 73
4
 40
0.0
 40
0.0
 40
0.0
 40
0.0
 40
1.0
 40
1.0
 40
1.0
 40
1.0
 10
96.2215
 20
91.3624
 30
0.0
 10
96.2215
 20
91.1902
 30
0.0
 10
96.2215
 20
91.0925
 30
0.0
 10
96.2215
 20
91.0953
 30
0.0
  0
SPLINE
  5
13d
100
AcDbEntity
  8
0
100
AcDbSpline
210
0.0
220
0.0
230
1.0
 62
     253
 70
     0
 71
     3
 72
     8
 73
4
 40
0.0
 40
0.0
 40
0.0
 40
0.0
 40
1.0
 40
1.0
 40
1.0
 40
1.0
 10
96.2215
 20
91.0953
 30
0.0
 10
96.2215
 20
91.0911
 30
0.0
 10
96.2215
 20
91.2594
 30
0.0
 10
96.2215
 20
91.5363
 30
0.0
  0
SPLINE
  5
13e
100
AcDbEntity
  8
0
100
AcDbSpline
210
0.0
220
0.0
230
1.0
 62
     253
 70
     0
 71
     3
 72
     8
 73
4
 40
0.0
 40
0.0
 40
0.0
 40
0.0
 40
1.0
 40
1.0
 40
1.0
 40
1.0
 10
96.2215
 20
91.5363
 30
0.0
 10
96.2215
 20
91.7663
 30
0.0
 10
96.2215
 20
92.0722
 30
0.0
 10
96.2215
 20
92.3766
 30
0.0
  0
SPLINE
  5
13f
100
AcDbEntity
  8
0
100
AcDbSpline
210
0.0
220
0.0
230
1.0
 62
     253
 70
     0
 71
     3
 72
     8
 73
4
 40
0.0
 40
0.0
 40
0.0
 40
0.0
 40
1.0
 40
1.0
 40
1.0
 40
1.0
 10
96.2215
 20
92.3766
 30
0.0
 10
96.2215
 20
92.6786
 30
0.0
 10
96.2215
 20
92.9792
 30
0.0
 10
96.2215
 20
93.2007
 30
0.0
  0
SPLINE
  5
140
100
AcDbEntity
  8
0
100
AcDbSpline
210
0.0
220
0.0
230
1.0
 62
     253
 70
     0
 71
     3
 72
     8
 73
4
 40
0.0
 40
0.0
 40
0.0
 40
0.0
 40
1.0
 40
1.0
 40
1.0
 40
1.0
 10
96.2215
 20
93.2007
 30
0.0
 10
96.2215
 20
93.4501
 30
0.0
 10
96.2215
 20
93.5965
 30
0.0
 10
96.2215
 20
93.5951
 30
0.0
  0
SPLINE
  5
141
100
AcDbEntity
  8
0
100
AcDbSpline
210
0.0
220
0.0
230
1.0
 62
     253
 70
     0
 71
     3
 72
     8
 73
4
 40
0.0
 40
0.0
 40
0.0
 40
0.0
 40
1.0
 40
1.0
 40
1.0
 40
1.0
 10
96.2215
 20
93.5951
 30
0.0
 10
96.2215
 20
93.5965
 30
0.0
 10
96.2215
 20
93.4501
 30
0.0
 10
96.2215
 20
93.2007
 30
0.0
  0
SPLINE
  5
142
100
AcDbEntity
  8
0
100
AcDbSpline
210
0.0
220
0.0
230
1.0
 62
     253
 70
     0
 71
     3
 72
     8
 73
4
 40
0.0
 40
0.0
 40
0.0
 40
0.0
 40
1.0
 40
1.0
 40
1.0
 40
1.0
 10
96.2215
 20
93.2007
 30
0.0
 10
96.2215
 20
92.9707
 30
0.0
 10
96.2215
 20
92.6592
 30
0.0
 10
96.2215
 20
92.3452
 30
0.0
  0
LINE
  5
143
100
AcDbEntity
  8
0
100
AcDbLine
 62
     253
 10
118.722
 20
208.478
 30
0.0
 11
98.7213
 21
208.478
 31
0.0
  0
SPLINE
  5
144
100
AcDbEntity
  8
0
100
AcDbSpline
210
0.0
220
0.0
230
1.0
 62
     253
 70
     0
 71
     3
 72
     8
 73
4
 40
0.0
 40
0.0
 40
0.0
 40
0.0
 40
1.0
 40
1.0
 40
1.0
 40
1.0
 10
111.221
 20
103.595
 30
0.0
 10
111.221
 20
102.215
 30
0.0
 10
110.103
 20
101.094
 30
0.0
 10
108.722
 20
101.094
 30
0.0
  0
SPLINE
  5
145
100
AcDbEntity
  8
0
100
AcDbSpline
210
0.0
220
0.0
230
1.0
 62
     253
 70
     0
 71
     3
 72
     8
 73
4
 40
0.0
 40
0.0
 40
0.0
 40
0.0
 40
1.0
 40
1.0
 40
1.0
 40
1.0
 10
108.722
 20
101.094
 30
0.0
 10
107.341
 20
101.094
 30
0.0
 10
106.222
 20
102.215
 30
0.0
 10
106.222
 20
103.595
 30
0.0
  0
SPLINE
  5
146
100
AcDbEntity
  8
0
100
AcDbSpline
210
0.0
220
0.0
230
1.0
 62
     253
 70
     0
 71
     3
 72
     8
 73
4
 40
0.0
 40
0.0
 40
0.0
 40
0.0
 40
1.0
 40
1.0
 40
1.0
 40
1.0
 10
106.222
 20
103.595
 30
0.0
 10
106.222
 20
104.975
 30
0.0
 10
107.341
 20
106.095
 30
0.0
 10
108.722
 20
106.095
 30
0.0
  0
SPLINE
  5
147
100
AcDbEntity
  8
0
100
AcDbSpline
210
0.0
220
0.0
230
1.0
 62
     253
 70
     0
 71
     3
 72
     8
 73
4
 40
0.0
 40
0.0
 40
0.0
 40
0.0
 40
1.0
 40
1.0
 40
1.0
 40
1.0
 10
108.722
 20
106.095
 30
0.0
 10
110.103
 20
106.095
 30
0.0
 10
111.221
 20
104.975
 30
0.0
 10
111.221
 20
103.595
 30
0.0
  0
SPLINE
  5
148
100
AcDbEntity
  8
0
100
AcDbSpline
210
0.0
220
0.0
230
1.0
 62
     253
 70
     0
 71
     3
 72
     8
 73
4
 40
0.0
 40
0.0
 40
0.0
 40
0.0
 40
1.0
 40
1.0
 40
1.0
 40
1.0
 10
111.221
 20
81.0934
 30
0.0
 10
111.221
 20
79.7126
 30
0.0
 10
110.103
 20
78.595
 30
0.0
 10
108.722
 20
78.595
 30
0.0
  0
SPLINE
  5
149
100
AcDbEntity
  8
0
100
AcDbSpline
210
0.0
220
0.0
230
1.0
 62
     253
 70
     0
 71
     3
 72
     8
 73
4
 40
0.0
 40
0.0
 40
0.0
 40
0.0
 40
1.0
 40
1.0
 40
1.0
 40
1.0
 10
108.722
 20
78.595
 30
0.0
 10
107.341
 20
78.595
 30
0.0
 10
106.222
 20
79.7126
 30
0.0
 10
106.222
 20
81.0934
 30
0.0
  0
SPLINE
  5
14a
100
AcDbEntity
  8
0
100
AcDbSpline
210
0.0
220
0.0
230
1.0
 62
     253
 70
     0
 71
     3
 72
     8
 73
4
 40
0.0
 40
0.0
 40
0.0
 40
0.0
 40
1.0
 40
1.0
 40
1.0
 40
1.0
 10
106.222
 20
81.0934
 30
0.0
 10
106.222
 20
82.4756
 30
0.0
 10
107.341
 20
83.5932
 30
0.0
 10
108.722
 20
83.5932
 30
0.0
  0
SPLINE
  5
14b
100
AcDbEntity
  8
0
100
AcDbSpline
210
0.0
220
0.0
230
1.0
 62
     253
 70
     0
 71
     3
 72
     8
 73
4
 40
0.0
 40
0.0
 40
0.0
 40
0.0
 40
1.0
 40
1.0
 40
1.0
 40
1.0
 10
108.722
 20
83.5932
 30
0.0
 10
110.103
 20
83.5932
 30
0.0
 10
111.221
 20
82.4756
 30
0.0
 10
111.221
 20
81.0934
 30
0.0
  0
SPLINE
  5
14c
100
AcDbEntity
  8
0
100
AcDbSpline
210
0.0
220
0.0
230
1.0
 62
     253
 70
     0
 71
     3
 72
     8
 73
4
 40
0.0
 40
0.0
 40
0.0
 40
0.0
 40
1.0
 40
1.0
 40
1.0
 40
1.0
 10
113.371
 20
92.3452
 30
0.0
 10
113.371
 20
93.0356
 30
0.0
 10
113.371
 20
93.5951
 30
0.0
 10
113.371
 20
93.5951
 30
0.0
  0
SPLINE
  5
14d
100
AcDbEntity
  8
0
100
AcDbSpline
210
0.0
220
0.0
230
1.0
 62
     253
 70
     0
 71
     3
 72
     8
 73
4
 40
0.0
 40
0.0
 40
0.0
 40
0.0
 40
1.0
 40
1.0
 40
1.0
 40
1.0
 10
113.371
 20
93.5951
 30
0.0
 10
113.371
 20
93.5951
 30
0.0
 10
113.371
 20
93.0356
 30
0.0
 10
113.371
 20
92.3452
 30
0.0
  0
SPLINE
  5
14e
100
AcDbEntity
  8
0
100
AcDbSpline
210
0.0
220
0.0
230
1.0
 62
     253
 70
     0
 71
     3
 72
     8
 73
4
 40
0.0
 40
0.0
 40
0.0
 40
0.0
 40
1.0
 40
1.0
 40
1.0
 40
1.0
 10
113.371
 20
92.3452
 30
0.0
 10
113.371
 20
91.6548
 30
0.0
 10
113.371
 20
91.0953
 30
0.0
 10
113.371
 20
91.0953
 30
0.0
  0
SPLINE
  5
14f
100
AcDbEntity
  8
0
100
AcDbSpline
210
0.0
220
0.0
230
1.0
 62
     253
 70
     0
 71
     3
 72
     8
 73
4
 40
0.0
 40
0.0
 40
0.0
 40
0.0
 40
1.0
 40
1.0
 40
1.0
 40
1.0
 10
113.371
 20
91.0953
 30
0.0
 10
113.371
 20
91.0953
 30
0.0
 10
113.371
 20
91.6548
 30
0.0
 10
113.371
 20
92.3452
 30
0.0
  0
LINE
  5
150
100
AcDbEntity
  8
0
100
AcDbLine
 62
     253
 10
118.722
 20
179.842
 30
0.0
 11
118.722
 21
232.233
 31
0.0
  0
LINE
  5
151
100
AcDbEntity
  8
0
100
AcDbLine
 62
     253
 10
98.7213
 20
179.842
 30
0.0
 11
98.7213
 21
232.233
 31
0.0
  0
LINE
  5
152
100
AcDbEntity
  8
0
100
AcDbLine
 62
     253
 10
118.722
 20
232.233
 30
0.0
 11
98.7213
 21
232.233
 31
0.0
  0
SPLINE
  5
153
100
AcDbEntity
  8
0
100
AcDbSpline
210
0.0
220
0.0
230
1.0
 62
     253
 70
     0
 71
     3
 72
     8
 73
4
 40
0.0
 40
0.0
 40
0.0
 40
0.0
 40
1.0
 40
1.0
 40
1.0
 40
1.0
 10
107.472
 20
223.501
 30
0.0
 10
107.472
 20
223.984
 30
0.0
 10
108.031
 20
224.375
 30
0.0
 10
108.722
 20
224.375
 30
0.0
  0
SPLINE
  5
154
100
AcDbEntity
  8
0
100
AcDbSpline
210
0.0
220
0.0
230
1.0
 62
     253
 70
     0
 71
     3
 72
     8
 73
4
 40
0.0
 40
0.0
 40
0.0
 40
0.0
 40
1.0
 40
1.0
 40
1.0
 40
1.0
 10
108.722
 20
224.375
 30
0.0
 10
109.412
 20
224.375
 30
0.0
 10
109.971
 20
223.984
 30
0.0
 10
109.971
 20
223.501
 30
0.0
  0
SPLINE
  5
155
100
AcDbEntity
  8
0
100
AcDbSpline
210
0.0
220
0.0
230
1.0
 62
     253
 70
     0
 71
     3
 72
     8
 73
4
 40
0.0
 40
0.0
 40
0.0
 40
0.0
 40
1.0
 40
1.0
 40
1.0
 40
1.0
 10
109.971
 20
223.501
 30
0.0
 10
109.971
 20
223.02
 30
0.0
 10
109.412
 20
222.629
 30
0.0
 10
108.722
 20
222.629
 30
0.0
  0
SPLINE
  5
156
100
AcDbEntity
  8
0
100
AcDbSpline
210
0.0
220
0.0
230
1.0
 62
     253
 70
     0
 71
     3
 72
     8
 73
4
 40
0.0
 40
0.0
 40
0.0
 40
0.0
 40
1.0
 40
1.0
 40
1.0
 40
1.0
 10
108.722
 20
222.629
 30
0.0
 10
108.031
 20
222.629
 30
0.0
 10
107.472
 20
223.02
 30
0.0
 10
107.472
 20
223.501
 30
0.0
  0
SPLINE
  5
157
100
AcDbEntity
  8
0
100
AcDbSpline
210
0.0
220
0.0
230
1.0
 62
     253
 70
     0
 71
     3
 72
     8
 73
4
 40
0.0
 40
0.0
 40
0.0
 40
0.0
 40
1.0
 40
1.0
 40
1.0
 40
1.0
 10
107.472
 20
188.573
 30
0.0
 10
107.472
 20
189.057
 30
0.0
 10
108.031
 20
189.449
 30
0.0
 10
108.722
 20
189.449
 30
0.0
  0
SPLINE
  5
158
100
AcDbEntity
  8
0
100
AcDbSpline
210
0.0
220
0.0
230
1.0
 62
     253
 70
     0
 71
     3
 72
     8
 73
4
 40
0.0
 40
0.0
 40
0.0
 40
0.0
 40
1.0
 40
1.0
 40
1.0
 40
1.0
 10
108.722
 20
189.449
 30
0.0
 10
109.412
 20
189.449
 30
0.0
 10
109.971
 20
189.057
 30
0.0
 10
109.971
 20
188.573
 30
0.0
  0
SPLINE
  5
159
100
AcDbEntity
  8
0
100
AcDbSpline
210
0.0
220
0.0
230
1.0
 62
     253
 70
     0
 71
     3
 72
     8
 73
4
 40
0.0
 40
0.0
 40
0.0
 40
0.0
 40
1.0
 40
1.0
 40
1.0
 40
1.0
 10
109.971
 20
188.573
 30
0.0
 10
109.971
 20
188.091
 30
0.0
 10
109.412
 20
187.702
 30
0.0
 10
108.722
 20
187.702
 30
0.0
  0
SPLINE
  5
15a
100
AcDbEntity
  8
0
100
AcDbSpline
210
0.0
220
0.0
230
1.0
 62
     253
 70
     0
 71
     3
 72
     8
 73
4
 40
0.0
 40
0.0
 40
0.0
 40
0.0
 40
1.0
 40
1.0
 40
1.0
 40
1.0
 10
108.722
 20
187.702
 30
0.0
 10
108.031
 20
187.702
 30
0.0
 10
107.472
 20
188.091
 30
0.0
 10
107.472
 20
188.573
 30
0.0
  0
LINE
  5
15b
100
AcDbEntity
  8
0
100
AcDbLine
 62
     253
 10
118.722
 20
232.233
 30
0.0
 11
118.722
 21
234.381
 31
0.0
  0
LINE
  5
15c
100
AcDbEntity
  8
0
100
AcDbLine
 62
     253
 10
98.7213
 20
232.233
 30
0.0
 11
98.7213
 21
234.381
 31
0.0
  0
LINE
  5
15d
100
AcDbEntity
  8
0
100
AcDbLine
 62
     253
 10
107.472
 20
223.501
 30
0.0
 11
107.472
 21
225.647
 31
0.0
  0
LINE
  5
15e
100
AcDbEntity
  8
0
100
AcDbLine
 62
     253
 10
107.472
 20
188.573
 30
0.0
 11
107.472
 21
190.72
 31
0.0
  0
LINE
  5
15f
100
AcDbEntity
  8
0
100
AcDbLine
 62
     253
 10
113.371
 20
93.5951
 30
0.0
 11
96.2215
 21
93.5951
 31
0.0
  0
LINE
  5
160
100
AcDbEntity
  8
0
100
AcDbLine
 62
     253
 10
113.371
 20
91.0953
 30
0.0
 11
96.2215
 21
91.0953
 31
0.0
  0
LINE
  5
161
100
AcDbEntity
  8
0
100
AcDbLine
 62
     253
 10
109.971
 20
225.647
 30
0.0
 11
109.971
 21
223.501
 31
0.0
  0
LINE
  5
162
100
AcDbEntity
  8
0
100
AcDbLine
 62
     253
 10
109.971
 20
190.72
 30
0.0
 11
109.971
 21
188.573
 31
0.0
  0
LINE
  5
163
100
AcDbEntity
  8
0
100
AcDbLine
 62
     253
 10
26.5052
 20
2.57693
 30
0.0
 11
26.5052
 21
22.5764
 31
0.0
  0
LINE
  5
164
100
AcDbEntity
  8
0
100
AcDbLine
 62
     253
 10
26.5052
 20
2.57693
 30
0.0
 11
26.5052
 21
0.0757922
 31
0.0
  0
LINE
  5
165
100
AcDbEntity
  8
0
100
AcDbLine
 62
     253
 10
26.5052
 20
22.5764
 30
0.0
 11
26.5052
 21
25.0748
 31
0.0
  0
LINE
  5
166
100
AcDbEntity
  8
0
100
AcDbLine
 62
     253
 10
26.5052
 20
0.0757922
 30
0.0
 11
26.5052
 21
0.0757922
 31
0.0
  0
LINE
  5
167
100
AcDbEntity
  8
0
100
AcDbLine
 62
     253
 10
26.5052
 20
25.0748
 30
0.0
 11
26.5052
 21
25.0748
 31
0.0
  0
LINE
  5
168
100
AcDbEntity
  8
0
100
AcDbLine
 62
     253
 10
26.5052
 20
2.57693
 30
0.0
 11
26.5052
 21
22.5764
 31
0.0
  0
LINE
  5
169
100
AcDbEntity
  8
0
100
AcDbLine
 62
     253
 10
26.5052
 20
10.0762
 30
0.0
 11
26.5052
 21
15.0771
 31
0.0
  0
LINE
  5
16a
100
AcDbEntity
  8
0
100
AcDbLine
 62
     253
 10
26.5052
 20
15.0771
 30
0.0
 11
26.5052
 21
10.0762
 31
0.0
  0
LINE
  5
16b
100
AcDbEntity
  8
0
100
AcDbLine
 62
     253
 10
26.5052
 20
10.0762
 30
0.0
 11
26.5052
 21
15.0771
 31
0.0
  0
LINE
  5
16c
100
AcDbEntity
  8
0
100
AcDbLine
 62
     253
 10
26.5052
 20
15.0771
 30
0.0
 11
26.5052
 21
10.0762
 31
0.0
  0
LINE
  5
16d
100
AcDbEntity
  8
0
100
AcDbLine
 62
     253
 10
26.5052
 20
2.57693
 30
0.0
 11
31.5061
 21
2.57693
 31
0.0
  0
LINE
  5
16e
100
AcDbEntity
  8
0
100
AcDbLine
 62
     253
 10
26.5052
 20
22.5764
 30
0.0
 11
31.5061
 21
22.5764
 31
0.0
  0
LINE
  5
16f
100
AcDbEntity
  8
0
100
AcDbLine
 62
     253
 10
31.5061
 20
2.57693
 30
0.0
 11
31.5061
 21
22.5764
 31
0.0
  0
LINE
  5
170
100
AcDbEntity
  8
0
100
AcDbLine
 62
     253
 10
26.5052
 20
0.0757922
 30
0.0
 11
31.5061
 21
0.0757922
 31
0.0
  0
LINE
  5
171
100
AcDbEntity
  8
0
100
AcDbLine
 62
     253
 10
31.5061
 20
2.57693
 30
0.0
 11
31.5061
 21
0.0757922
 31
0.0
  0
LINE
  5
172
100
AcDbEntity
  8
0
100
AcDbLine
 62
     253
 10
26.5052
 20
25.0748
 30
0.0
 11
31.5061
 21
25.0748
 31
0.0
  0
LINE
  5
173
100
AcDbEntity
  8
0
100
AcDbLine
 62
     253
 10
31.5061
 20
22.5764
 30
0.0
 11
31.5061
 21
25.0748
 31
0.0
  0
LINE
  5
174
100
AcDbEntity
  8
0
100
AcDbLine
 62
     253
 10
31.5061
 20
0.0757922
 30
0.0
 11
31.5061
 21
0.0757922
 31
0.0
  0
LINE
  5
175
100
AcDbEntity
  8
0
100
AcDbLine
 62
     253
 10
31.5061
 20
25.0748
 30
0.0
 11
31.5061
 21
25.0748
 31
0.0
  0
SPLINE
  5
176
100
AcDbEntity
  8
0
100
AcDbSpline
210
0.0
220
0.0
230
1.0
 62
     253
 70
     0
 71
     3
 72
     8
 73
4
 40
0.0
 40
0.0
 40
0.0
 40
0.0
 40
1.0
 40
1.0
 40
1.0
 40
1.0
 10
30.2562
 20
25.0748
 30
0.0
 10
30.2576
 20
25.0748
 30
0.0
 10
30.0771
 20
25.0748
 30
0.0
 10
29.778
 20
25.0748
 30
0.0
  0
SPLINE
  5
177
100
AcDbEntity
  8
0
100
AcDbSpline
210
0.0
220
0.0
230
1.0
 62
     253
 70
     0
 71
     3
 72
     8
 73
4
 40
0.0
 40
0.0
 40
0.0
 40
0.0
 40
1.0
 40
1.0
 40
1.0
 40
1.0
 10
29.778
 20
25.0748
 30
0.0
 10
29.5768
 20
25.0748
 30
0.0
 10
29.3247
 20
25.0748
 30
0.0
 10
29.0683
 20
25.0748
 30
0.0
  0
SPLINE
  5
178
100
AcDbEntity
  8
0
100
AcDbSpline
210
0.0
220
0.0
230
1.0
 62
     253
 70
     0
 71
     3
 72
     8
 73
4
 40
0.0
 40
0.0
 40
0.0
 40
0.0
 40
1.0
 40
1.0
 40
1.0
 40
1.0
 10
29.0683
 20
25.0748
 30
0.0
 10
28.7624
 20
25.0748
 30
0.0
 10
28.4523
 20
25.0748
 30
0.0
 10
28.2153
 20
25.0748
 30
0.0
  0
SPLINE
  5
179
100
AcDbEntity
  8
0
100
AcDbSpline
210
0.0
220
0.0
230
1.0
 62
     253
 70
     0
 71
     3
 72
     8
 73
4
 40
0.0
 40
0.0
 40
0.0
 40
0.0
 40
1.0
 40
1.0
 40
1.0
 40
1.0
 10
28.2153
 20
25.0748
 30
0.0
 10
27.9273
 20
25.0748
 30
0.0
 10
27.7537
 20
25.0748
 30
0.0
 10
27.7551
 20
25.0748
 30
0.0
  0
SPLINE
  5
17a
100
AcDbEntity
  8
0
100
AcDbSpline
210
0.0
220
0.0
230
1.0
 62
     253
 70
     0
 71
     3
 72
     8
 73
4
 40
0.0
 40
0.0
 40
0.0
 40
0.0
 40
1.0
 40
1.0
 40
1.0
 40
1.0
 10
27.7551
 20
25.0748
 30
0.0
 10
27.7551
 20
25.0748
 30
0.0
 10
27.8777
 20
25.0748
 30
0.0
 10
28.0941
 20
25.0748
 30
0.0
  0
SPLINE
  5
17b
100
AcDbEntity
  8
0
100
AcDbSpline
210
0.0
220
0.0
230
1.0
 62
     253
 70
     0
 71
     3
 72
     8
 73
4
 40
0.0
 40
0.0
 40
0.0
 40
0.0
 40
1.0
 40
1.0
 40
1.0
 40
1.0
 10
28.0941
 20
25.0748
 30
0.0
 10
28.3022
 20
25.0748
 30
0.0
 10
28.5929
 20
25.0748
 30
0.0
 10
28.8961
 20
25.0748
 30
0.0
  0
SPLINE
  5
17c
100
AcDbEntity
  8
0
100
AcDbSpline
210
0.0
220
0.0
230
1.0
 62
     253
 70
     0
 71
     3
 72
     8
 73
4
 40
0.0
 40
0.0
 40
0.0
 40
0.0
 40
1.0
 40
1.0
 40
1.0
 40
1.0
 10
28.8961
 20
25.0748
 30
0.0
 10
29.2723
 20
25.0748
 30
0.0
 10
29.6595
 20
25.0748
 30
0.0
 10
29.9172
 20
25.0748
 30
0.0
  0
SPLINE
  5
17d
100
AcDbEntity
  8
0
100
AcDbSpline
210
0.0
220
0.0
230
1.0
 62
     253
 70
     0
 71
     3
 72
     8
 73
4
 40
0.0
 40
0.0
 40
0.0
 40
0.0
 40
1.0
 40
1.0
 40
1.0
 40
1.0
 10
29.9172
 20
25.0748
 30
0.0
 10
30.1336
 20
25.0748
 30
0.0
 10
30.2562
 20
25.0748
 30
0.0
 10
30.2562
 20
25.0748
 30
0.0
  0
LINE
  5
17e
100
AcDbEntity
  8
0
100
AcDbLine
 62
     253
 10
31.5061
 20
2.57693
 30
0.0
 11
31.5061
 21
22.5764
 31
0.0
  0
LINE
  5
17f
100
AcDbEntity
  8
0
100
AcDbLine
 62
     253
 10
26.5052
 20
10.0762
 30
0.0
 11
31.5061
 21
10.0762
 31
0.0
  0
LINE
  5
180
100
AcDbEntity
  8
0
100
AcDbLine
 62
     253
 10
31.5061
 20
10.0762
 30
0.0
 11
31.5061
 21
15.0771
 31
0.0
  0
LINE
  5
181
100
AcDbEntity
  8
0
100
AcDbLine
 62
     253
 10
31.5061
 20
15.0771
 30
0.0
 11
31.5061
 21
10.0762
 31
0.0
  0
LINE
  5
182
100
AcDbEntity
  8
0
100
AcDbLine
 62
     253
 10
26.5052
 20
10.0762
 30
0.0
 11
31.5061
 21
10.0762
 31
0.0
  0
LINE
  5
183
100
AcDbEntity
  8
0
100
AcDbLine
 62
     253
 10
31.5061
 20
10.0762
 30
0.0
 11
31.5061
 21
15.0771
 31
0.0
  0
LINE
  5
184
100
AcDbEntity
  8
0
100
AcDbLine
 62
     253
 10
31.5061
 20
15.0771
 30
0.0
 11
31.5061
 21
10.0762
 31
0.0
  0
LINE
  5
185
100
AcDbEntity
  8
0
100
AcDbLine
 62
     253
 10
30.2562
 20
7.92508
 30
0.0
 11
27.7551
 21
7.92508
 31
0.0
  0
LINE
  5
186
100
AcDbEntity
  8
0
100
AcDbLine
 62
     253
 10
27.7551
 20
7.92508
 30
0.0
 11
30.2562
 21
7.92508
 31
0.0
  0
LINE
  5
187
100
AcDbEntity
  8
0
100
AcDbLine
 62
     253
 10
30.2562
 20
7.92508
 30
0.0
 11
30.2562
 21
25.0748
 31
0.0
  0
LINE
  5
188
100
AcDbEntity
  8
0
100
AcDbLine
 62
     253
 10
2.17179
 20
2.57693
 30
0.0
 11
2.17179
 21
22.5764
 31
0.0
  0
LINE
  5
189
100
AcDbEntity
  8
0
100
AcDbLine
 62
     253
 10
2.17179
 20
2.57693
 30
0.0
 11
55.8394
 21
2.57693
 31
0.0
  0
LINE
  5
18a
100
AcDbEntity
  8
0
100
AcDbLine
 62
     253
 10
2.17179
 20
22.5764
 30
0.0
 11
55.8394
 21
22.5764
 31
0.0
  0
SPLINE
  5
18b
100
AcDbEntity
  8
0
100
AcDbSpline
210
0.0
220
0.0
230
1.0
 62
     253
 70
     0
 71
     3
 72
     8
 73
4
 40
0.0
 40
0.0
 40
0.0
 40
0.0
 40
1.0
 40
1.0
 40
1.0
 40
1.0
 10
46.8947
 20
13.8272
 30
0.0
 10
47.3893
 20
13.8272
 30
0.0
 10
47.789
 20
13.2664
 30
0.0
 10
47.789
 20
12.5773
 30
0.0
  0
SPLINE
  5
18c
100
AcDbEntity
  8
0
100
AcDbSpline
210
0.0
220
0.0
230
1.0
 62
     253
 70
     0
 71
     3
 72
     8
 73
4
 40
0.0
 40
0.0
 40
0.0
 40
0.0
 40
1.0
 40
1.0
 40
1.0
 40
1.0
 10
47.789
 20
12.5773
 30
0.0
 10
47.789
 20
11.887
 30
0.0
 10
47.3893
 20
11.3261
 30
0.0
 10
46.8947
 20
11.3261
 30
0.0
  0
SPLINE
  5
18d
100
AcDbEntity
  8
0
100
AcDbSpline
210
0.0
220
0.0
230
1.0
 62
     253
 70
     0
 71
     3
 72
     8
 73
4
 40
0.0
 40
0.0
 40
0.0
 40
0.0
 40
1.0
 40
1.0
 40
1.0
 40
1.0
 10
46.8947
 20
11.3261
 30
0.0
 10
46.4012
 20
11.3261
 30
0.0
 10
46.0005
 20
11.887
 30
0.0
 10
46.0005
 20
12.5773
 30
0.0
  0
SPLINE
  5
18e
100
AcDbEntity
  8
0
100
AcDbSpline
210
0.0
220
0.0
230
1.0
 62
     253
 70
     0
 71
     3
 72
     8
 73
4
 40
0.0
 40
0.0
 40
0.0
 40
0.0
 40
1.0
 40
1.0
 40
1.0
 40
1.0
 10
46.0005
 20
12.5773
 30
0.0
 10
46.0005
 20
13.2664
 30
0.0
 10
46.4012
 20
13.8272
 30
0.0
 10
46.8947
 20
13.8272
 30
0.0
  0
SPLINE
  5
18f
100
AcDbEntity
  8
0
100
AcDbSpline
210
0.0
220
0.0
230
1.0
 62
     253
 70
     0
 71
     3
 72
     8
 73
4
 40
0.0
 40
0.0
 40
0.0
 40
0.0
 40
1.0
 40
1.0
 40
1.0
 40
1.0
 10
11.1166
 20
13.8272
 30
0.0
 10
11.61
 20
13.8272
 30
0.0
 10
12.011
 20
13.2664
 30
0.0
 10
12.011
 20
12.5773
 30
0.0
  0
SPLINE
  5
190
100
AcDbEntity
  8
0
100
AcDbSpline
210
0.0
220
0.0
230
1.0
 62
     253
 70
     0
 71
     3
 72
     8
 73
4
 40
0.0
 40
0.0
 40
0.0
 40
0.0
 40
1.0
 40
1.0
 40
1.0
 40
1.0
 10
12.011
 20
12.5773
 30
0.0
 10
12.011
 20
11.887
 30
0.0
 10
11.61
 20
11.3261
 30
0.0
 10
11.1166
 20
11.3261
 30
0.0
  0
SPLINE
  5
191
100
AcDbEntity
  8
0
100
AcDbSpline
210
0.0
220
0.0
230
1.0
 62
     253
 70
     0
 71
     3
 72
     8
 73
4
 40
0.0
 40
0.0
 40
0.0
 40
0.0
 40
1.0
 40
1.0
 40
1.0
 40
1.0
 10
11.1166
 20
11.3261
 30
0.0
 10
10.6219
 20
11.3261
 30
0.0
 10
10.2223
 20
11.887
 30
0.0
 10
10.2223
 20
12.5773
 30
0.0
  0
SPLINE
  5
192
100
AcDbEntity
  8
0
100
AcDbSpline
210
0.0
220
0.0
230
1.0
 62
     253
 70
     0
 71
     3
 72
     8
 73
4
 40
0.0
 40
0.0
 40
0.0
 40
0.0
 40
1.0
 40
1.0
 40
1.0
 40
1.0
 10
10.2223
 20
12.5773
 30
0.0
 10
10.2223
 20
13.2664
 30
0.0
 10
10.6219
 20
13.8272
 30
0.0
 10
11.1166
 20
13.8272
 30
0.0
  0
LINE
  5
193
100
AcDbEntity
  8
0
100
AcDbLine
 62
     253
 10
0.0757922
 20
2.57693
 30
0.0
 11
2.17179
 21
2.57693
 31
0.0
  0
LINE
  5
194
100
AcDbEntity
  8
0
100
AcDbLine
 62
     253
 10
0.0757922
 20
22.5764
 30
0.0
 11
2.17179
 21
22.5764
 31
0.0
  0
LINE
  5
195
100
AcDbEntity
  8
0
100
AcDbLine
 62
     253
 10
46.8947
 20
13.8272
 30
0.0
 11
44.8
 21
13.8272
 31
0.0
  0
LINE
  5
196
100
AcDbEntity
  8
0
100
AcDbLine
 62
     253
 10
11.1166
 20
13.8272
 30
0.0
 11
9.02063
 21
13.8272
 31
0.0
  0
LINE
  5
197
100
AcDbEntity
  8
0
100
AcDbLine
 62
     253
 10
31.5061
 20
15.0771
 30
0.0
 11
26.5052
 21
15.0771
 31
0.0
  0
LINE
  5
198
100
AcDbEntity
  8
0
100
AcDbLine
 62
     253
 10
31.5061
 20
15.0771
 30
0.0
 11
26.5052
 21
15.0771
 31
0.0
  0
LINE
  5
199
100
AcDbEntity
  8
0
100
AcDbLine
 62
     253
 10
27.7551
 20
7.92508
 30
0.0
 11
27.7551
 21
25.0748
 31
0.0
  0
LINE
  5
19a
100
AcDbEntity
  8
0
100
AcDbLine
 62
     253
 10
44.8
 20
11.3261
 30
0.0
 11
46.8947
 21
11.3261
 31
0.0
  0
LINE
  5
19b
100
AcDbEntity
  8
0
100
AcDbLine
 62
     253
 10
9.02063
 20
11.3261
 30
0.0
 11
11.1166
 21
11.3261
 31
0.0
  0
LINE
  5
19c
100
AcDbEntity
  8
0
100
AcDbLine
 62
     253
 10
175.852
 20
175.165
 30
0.0
 11
175.852
 21
155.936
 31
0.0
  0
LINE
  5
19d
100
AcDbEntity
  8
0
100
AcDbLine
 62
     253
 10
185.084
 20
166.652
 30
0.0
 11
175.852
 21
175.165
 31
0.0
  0
LINE
  5
19e
100
AcDbEntity
  8
0
100
AcDbLine
 62
     253
 10
176.877
 20
52.5184
 30
0.0
 11
181.437
 21
53.37
 31
0.0
  0
LINE
  5
19f
100
AcDbEntity
  8
0
100
AcDbLine
 62
     253
 10
189.644
 20
45.8018
 30
0.0
 11
181.437
 21
53.37
 31
0.0
  0
LINE
  5
1a0
100
AcDbEntity
  8
0
100
AcDbLine
 62
     253
 10
175.852
 20
55.7389
 30
0.0
 11
180.411
 21
56.5891
 31
0.0
  0
LINE
  5
1a1
100
AcDbEntity
  8
0
100
AcDbLine
 62
     253
 10
181.437
 20
53.37
 30
0.0
 11
180.411
 21
56.5891
 31
0.0
  0
LINE
  5
1a2
100
AcDbEntity
  8
0
100
AcDbLine
 62
     253
 10
180.411
 20
180.457
 30
0.0
 11
175.852
 21
175.165
 31
0.0
  0
LINE
  5
1a3
100
AcDbEntity
  8
0
100
AcDbLine
 62
     253
 10
180.411
 20
56.5891
 30
0.0
 11
180.411
 21
180.457
 31
0.0
  0
SPLINE
  5
1a4
100
AcDbEntity
  8
0
100
AcDbSpline
210
0.0
220
0.0
230
1.0
 62
     253
 70
     0
 71
     3
 72
     8
 73
4
 40
0.0
 40
0.0
 40
0.0
 40
0.0
 40
1.0
 40
1.0
 40
1.0
 40
1.0
 10
179.27
 20
74.5755
 30
0.0
 10
179.273
 20
74.2308
 30
0.0
 10
179.108
 20
73.8614
 30
0.0
 10
178.835
 20
73.5983
 30
0.0
  0
SPLINE
  5
1a5
100
AcDbEntity
  8
0
100
AcDbSpline
210
0.0
220
0.0
230
1.0
 62
     253
 70
     0
 71
     3
 72
     8
 73
4
 40
0.0
 40
0.0
 40
0.0
 40
0.0
 40
1.0
 40
1.0
 40
1.0
 40
1.0
 10
178.835
 20
73.5983
 30
0.0
 10
178.595
 20
73.364
 30
0.0
 10
178.277
 20
73.2208
 30
0.0
 10
177.974
 20
73.207
 30
0.0
  0
SPLINE
  5
1a6
100
AcDbEntity
  8
0
100
AcDbSpline
210
0.0
220
0.0
230
1.0
 62
     253
 70
     0
 71
     3
 72
     8
 73
4
 40
0.0
 40
0.0
 40
0.0
 40
0.0
 40
1.0
 40
1.0
 40
1.0
 40
1.0
 10
177.974
 20
73.207
 30
0.0
 10
177.71
 20
73.1933
 30
0.0
 10
177.461
 20
73.2772
 30
0.0
 10
177.283
 20
73.4441
 30
0.0
  0
SPLINE
  5
1a7
100
AcDbEntity
  8
0
100
AcDbSpline
210
0.0
220
0.0
230
1.0
 62
     253
 70
     0
 71
     3
 72
     8
 73
4
 40
0.0
 40
0.0
 40
0.0
 40
0.0
 40
1.0
 40
1.0
 40
1.0
 40
1.0
 10
177.283
 20
73.4441
 30
0.0
 10
177.09
 20
73.6205
 30
0.0
 10
176.983
 20
73.889
 30
0.0
 10
176.991
 20
74.1786
 30
0.0
  0
SPLINE
  5
1a8
100
AcDbEntity
  8
0
100
AcDbSpline
210
0.0
220
0.0
230
1.0
 62
     253
 70
     0
 71
     3
 72
     8
 73
4
 40
0.0
 40
0.0
 40
0.0
 40
0.0
 40
1.0
 40
1.0
 40
1.0
 40
1.0
 10
176.991
 20
74.1786
 30
0.0
 10
176.998
 20
74.4569
 30
0.0
 10
177.11
 20
74.7504
 30
0.0
 10
177.3
 20
74.9861
 30
0.0
  0
SPLINE
  5
1a9
100
AcDbEntity
  8
0
100
AcDbSpline
210
0.0
220
0.0
230
1.0
 62
     253
 70
     0
 71
     3
 72
     8
 73
4
 40
0.0
 40
0.0
 40
0.0
 40
0.0
 40
1.0
 40
1.0
 40
1.0
 40
1.0
 10
177.3
 20
74.9861
 30
0.0
 10
177.534
 20
75.2821
 30
0.0
 10
177.888
 20
75.4821
 30
0.0
 10
178.231
 20
75.5153
 30
0.0
  0
SPLINE
  5
1aa
100
AcDbEntity
  8
0
100
AcDbSpline
210
0.0
220
0.0
230
1.0
 62
     253
 70
     0
 71
     3
 72
     8
 73
4
 40
0.0
 40
0.0
 40
0.0
 40
0.0
 40
1.0
 40
1.0
 40
1.0
 40
1.0
 10
178.231
 20
75.5153
 30
0.0
 10
178.515
 20
75.5442
 30
0.0
 10
178.788
 20
75.4585
 30
0.0
 10
178.978
 20
75.2821
 30
0.0
  0
SPLINE
  5
1ab
100
AcDbEntity
  8
0
100
AcDbSpline
210
0.0
220
0.0
230
1.0
 62
     253
 70
     0
 71
     3
 72
     8
 73
4
 40
0.0
 40
0.0
 40
0.0
 40
0.0
 40
1.0
 40
1.0
 40
1.0
 40
1.0
 10
178.978
 20
75.2821
 30
0.0
 10
179.166
 20
75.1099
 30
0.0
 10
179.272
 20
74.8538
 30
0.0
 10
179.27
 20
74.5755
 30
0.0
  0
LINE
  5
1ac
100
AcDbEntity
  8
0
100
AcDbLine
 62
     253
 10
189.644
 20
171.945
 30
0.0
 11
180.411
 21
180.457
 31
0.0
  0
SPLINE
  5
1ad
100
AcDbEntity
  8
0
100
AcDbSpline
210
0.0
220
0.0
230
1.0
 62
     253
 70
     0
 71
     3
 72
     8
 73
4
 40
0.0
 40
0.0
 40
0.0
 40
0.0
 40
1.0
 40
1.0
 40
1.0
 40
1.0
 10
186.566
 20
79.3503
 30
0.0
 10
186.566
 20
80.137
 30
0.0
 10
186.382
 20
81.0383
 30
0.0
 10
186.079
 20
81.733
 30
0.0
  0
SPLINE
  5
1ae
100
AcDbEntity
  8
0
100
AcDbSpline
210
0.0
220
0.0
230
1.0
 62
     253
 70
     0
 71
     3
 72
     8
 73
4
 40
0.0
 40
0.0
 40
0.0
 40
0.0
 40
1.0
 40
1.0
 40
1.0
 40
1.0
 10
186.079
 20
81.733
 30
0.0
 10
185.777
 20
82.4258
 30
0.0
 10
185.4
 20
82.8118
 30
0.0
 10
185.082
 20
82.7525
 30
0.0
  0
SPLINE
  5
1af
100
AcDbEntity
  8
0
100
AcDbSpline
210
0.0
220
0.0
230
1.0
 62
     253
 70
     0
 71
     3
 72
     8
 73
4
 40
0.0
 40
0.0
 40
0.0
 40
0.0
 40
1.0
 40
1.0
 40
1.0
 40
1.0
 10
185.082
 20
82.7525
 30
0.0
 10
184.574
 20
82.659
 30
0.0
 10
184.369
 20
81.4821
 30
0.0
 10
184.623
 20
80.1232
 30
0.0
  0
SPLINE
  5
1b0
100
AcDbEntity
  8
0
100
AcDbSpline
210
0.0
220
0.0
230
1.0
 62
     253
 70
     0
 71
     3
 72
     8
 73
4
 40
0.0
 40
0.0
 40
0.0
 40
0.0
 40
1.0
 40
1.0
 40
1.0
 40
1.0
 10
184.623
 20
80.1232
 30
0.0
 10
184.876
 20
78.7672
 30
0.0
 10
185.492
 20
77.742
 30
0.0
 10
185.999
 20
77.8387
 30
0.0
  0
SPLINE
  5
1b1
100
AcDbEntity
  8
0
100
AcDbSpline
210
0.0
220
0.0
230
1.0
 62
     253
 70
     0
 71
     3
 72
     8
 73
4
 40
0.0
 40
0.0
 40
0.0
 40
0.0
 40
1.0
 40
1.0
 40
1.0
 40
1.0
 10
185.999
 20
77.8387
 30
0.0
 10
186.347
 20
77.9032
 30
0.0
 10
186.566
 20
78.4874
 30
0.0
 10
186.566
 20
79.3503
 30
0.0
  0
SPLINE
  5
1b2
100
AcDbEntity
  8
0
100
AcDbSpline
210
0.0
220
0.0
230
1.0
 62
     253
 70
     0
 71
     3
 72
     8
 73
4
 40
0.0
 40
0.0
 40
0.0
 40
0.0
 40
1.0
 40
1.0
 40
1.0
 40
1.0
 10
186.566
 20
58.8779
 30
0.0
 10
186.566
 20
59.665
 30
0.0
 10
186.382
 20
60.5677
 30
0.0
 10
186.079
 20
61.2606
 30
0.0
  0
SPLINE
  5
1b3
100
AcDbEntity
  8
0
100
AcDbSpline
210
0.0
220
0.0
230
1.0
 62
     253
 70
     0
 71
     3
 72
     8
 73
4
 40
0.0
 40
0.0
 40
0.0
 40
0.0
 40
1.0
 40
1.0
 40
1.0
 40
1.0
 10
186.079
 20
61.2606
 30
0.0
 10
185.777
 20
61.9538
 30
0.0
 10
185.4
 20
62.3383
 30
0.0
 10
185.082
 20
62.279
 30
0.0
  0
SPLINE
  5
1b4
100
AcDbEntity
  8
0
100
AcDbSpline
210
0.0
220
0.0
230
1.0
 62
     253
 70
     0
 71
     3
 72
     8
 73
4
 40
0.0
 40
0.0
 40
0.0
 40
0.0
 40
1.0
 40
1.0
 40
1.0
 40
1.0
 10
185.082
 20
62.279
 30
0.0
 10
184.574
 20
62.1866
 30
0.0
 10
184.369
 20
61.0087
 30
0.0
 10
184.623
 20
59.6512
 30
0.0
  0
SPLINE
  5
1b5
100
AcDbEntity
  8
0
100
AcDbSpline
210
0.0
220
0.0
230
1.0
 62
     253
 70
     0
 71
     3
 72
     8
 73
4
 40
0.0
 40
0.0
 40
0.0
 40
0.0
 40
1.0
 40
1.0
 40
1.0
 40
1.0
 10
184.623
 20
59.6512
 30
0.0
 10
184.876
 20
58.2951
 30
0.0
 10
185.492
 20
57.2699
 30
0.0
 10
185.999
 20
57.3663
 30
0.0
  0
SPLINE
  5
1b6
100
AcDbEntity
  8
0
100
AcDbSpline
210
0.0
220
0.0
230
1.0
 62
     253
 70
     0
 71
     3
 72
     8
 73
4
 40
0.0
 40
0.0
 40
0.0
 40
0.0
 40
1.0
 40
1.0
 40
1.0
 40
1.0
 10
185.999
 20
57.3663
 30
0.0
 10
186.347
 20
57.4298
 30
0.0
 10
186.566
 20
58.0154
 30
0.0
 10
186.566
 20
58.8779
 30
0.0
  0
SPLINE
  5
1b7
100
AcDbEntity
  8
0
100
AcDbSpline
210
0.0
220
0.0
230
1.0
 62
     253
 70
     0
 71
     3
 72
     8
 73
4
 40
0.0
 40
0.0
 40
0.0
 40
0.0
 40
1.0
 40
1.0
 40
1.0
 40
1.0
 10
186.309
 20
68.0861
 30
0.0
 10
186.309
 20
68.3673
 30
0.0
 10
186.205
 20
68.6181
 30
0.0
 10
186.016
 20
68.7917
 30
0.0
  0
SPLINE
  5
1b8
100
AcDbEntity
  8
0
100
AcDbSpline
210
0.0
220
0.0
230
1.0
 62
     253
 70
     0
 71
     3
 72
     8
 73
4
 40
0.0
 40
0.0
 40
0.0
 40
0.0
 40
1.0
 40
1.0
 40
1.0
 40
1.0
 10
186.016
 20
68.7917
 30
0.0
 10
185.596
 20
69.1815
 30
0.0
 10
184.875
 20
69.0838
 30
0.0
 10
184.406
 20
68.5782
 30
0.0
  0
SPLINE
  5
1b9
100
AcDbEntity
  8
0
100
AcDbSpline
210
0.0
220
0.0
230
1.0
 62
     253
 70
     0
 71
     3
 72
     8
 73
4
 40
0.0
 40
0.0
 40
0.0
 40
0.0
 40
1.0
 40
1.0
 40
1.0
 40
1.0
 10
184.406
 20
68.5782
 30
0.0
 10
183.938
 20
68.0695
 30
0.0
 10
183.901
 20
67.3435
 30
0.0
 10
184.321
 20
66.9548
 30
0.0
  0
SPLINE
  5
1ba
100
AcDbEntity
  8
0
100
AcDbSpline
210
0.0
220
0.0
230
1.0
 62
     253
 70
     0
 71
     3
 72
     8
 73
4
 40
0.0
 40
0.0
 40
0.0
 40
0.0
 40
1.0
 40
1.0
 40
1.0
 40
1.0
 10
184.321
 20
66.9548
 30
0.0
 10
184.638
 20
66.6627
 30
0.0
 10
185.137
 20
66.638
 30
0.0
 10
185.578
 20
66.8884
 30
0.0
  0
SPLINE
  5
1bb
100
AcDbEntity
  8
0
100
AcDbSpline
210
0.0
220
0.0
230
1.0
 62
     253
 70
     0
 71
     3
 72
     8
 73
4
 40
0.0
 40
0.0
 40
0.0
 40
0.0
 40
1.0
 40
1.0
 40
1.0
 40
1.0
 10
185.578
 20
66.8884
 30
0.0
 10
186.017
 20
67.1393
 30
0.0
 10
186.309
 20
67.6148
 30
0.0
 10
186.309
 20
68.0861
 30
0.0
  0
LINE
  5
1bc
100
AcDbEntity
  8
0
100
AcDbLine
 62
     253
 10
162.894
 20
140.896
 30
0.0
 11
154.686
 21
148.46
 31
0.0
  0
LINE
  5
1bd
100
AcDbEntity
  8
0
100
AcDbLine
 62
     253
 10
154.686
 20
148.46
 30
0.0
 11
203.627
 21
205.268
 31
0.0
  0
SPLINE
  5
1be
100
AcDbEntity
  8
0
100
AcDbSpline
210
0.0
220
0.0
230
1.0
 62
     253
 70
     0
 71
     3
 72
     8
 73
4
 40
0.0
 40
0.0
 40
0.0
 40
0.0
 40
1.0
 40
1.0
 40
1.0
 40
1.0
 10
199.062
 20
192.49
 30
0.0
 10
199.503
 20
193.001
 30
0.0
 10
200.086
 20
193.217
 30
0.0
 10
200.376
 20
192.977
 30
0.0
  0
SPLINE
  5
1bf
100
AcDbEntity
  8
0
100
AcDbSpline
210
0.0
220
0.0
230
1.0
 62
     253
 70
     0
 71
     3
 72
     8
 73
4
 40
0.0
 40
0.0
 40
0.0
 40
0.0
 40
1.0
 40
1.0
 40
1.0
 40
1.0
 10
200.376
 20
192.977
 30
0.0
 10
200.671
 20
192.73
 30
0.0
 10
200.551
 20
192.1
 30
0.0
 10
200.109
 20
191.571
 30
0.0
  0
SPLINE
  5
1c0
100
AcDbEntity
  8
0
100
AcDbSpline
210
0.0
220
0.0
230
1.0
 62
     253
 70
     0
 71
     3
 72
     8
 73
4
 40
0.0
 40
0.0
 40
0.0
 40
0.0
 40
1.0
 40
1.0
 40
1.0
 40
1.0
 10
200.109
 20
191.571
 30
0.0
 10
199.667
 20
191.04
 30
0.0
 10
199.069
 20
190.81
 30
0.0
 10
198.772
 20
191.057
 30
0.0
  0
SPLINE
  5
1c1
100
AcDbEntity
  8
0
100
AcDbSpline
210
0.0
220
0.0
230
1.0
 62
     253
 70
     0
 71
     3
 72
     8
 73
4
 40
0.0
 40
0.0
 40
0.0
 40
0.0
 40
1.0
 40
1.0
 40
1.0
 40
1.0
 10
198.772
 20
191.057
 30
0.0
 10
198.629
 20
191.177
 30
0.0
 10
198.578
 20
191.397
 30
0.0
 10
198.632
 20
191.669
 30
0.0
  0
SPLINE
  5
1c2
100
AcDbEntity
  8
0
100
AcDbSpline
210
0.0
220
0.0
230
1.0
 62
     253
 70
     0
 71
     3
 72
     8
 73
4
 40
0.0
 40
0.0
 40
0.0
 40
0.0
 40
1.0
 40
1.0
 40
1.0
 40
1.0
 10
198.632
 20
191.669
 30
0.0
 10
198.687
 20
191.939
 30
0.0
 10
198.841
 20
192.234
 30
0.0
 10
199.062
 20
192.49
 30
0.0
  0
SPLINE
  5
1c3
100
AcDbEntity
  8
0
100
AcDbSpline
210
0.0
220
0.0
230
1.0
 62
     253
 70
     0
 71
     3
 72
     8
 73
4
 40
0.0
 40
0.0
 40
0.0
 40
0.0
 40
1.0
 40
1.0
 40
1.0
 40
1.0
 10
166.434
 20
154.619
 30
0.0
 10
166.876
 20
155.133
 30
0.0
 10
167.459
 20
155.347
 30
0.0
 10
167.749
 20
155.105
 30
0.0
  0
SPLINE
  5
1c4
100
AcDbEntity
  8
0
100
AcDbSpline
210
0.0
220
0.0
230
1.0
 62
     253
 70
     0
 71
     3
 72
     8
 73
4
 40
0.0
 40
0.0
 40
0.0
 40
0.0
 40
1.0
 40
1.0
 40
1.0
 40
1.0
 10
167.749
 20
155.105
 30
0.0
 10
168.044
 20
154.857
 30
0.0
 10
167.925
 20
154.23
 30
0.0
 10
167.483
 20
153.7
 30
0.0
  0
SPLINE
  5
1c5
100
AcDbEntity
  8
0
100
AcDbSpline
210
0.0
220
0.0
230
1.0
 62
     253
 70
     0
 71
     3
 72
     8
 73
4
 40
0.0
 40
0.0
 40
0.0
 40
0.0
 40
1.0
 40
1.0
 40
1.0
 40
1.0
 10
167.483
 20
153.7
 30
0.0
 10
167.039
 20
153.17
 30
0.0
 10
166.441
 20
152.94
 30
0.0
 10
166.146
 20
153.187
 30
0.0
  0
SPLINE
  5
1c6
100
AcDbEntity
  8
0
100
AcDbSpline
210
0.0
220
0.0
230
1.0
 62
     253
 70
     0
 71
     3
 72
     8
 73
4
 40
0.0
 40
0.0
 40
0.0
 40
0.0
 40
1.0
 40
1.0
 40
1.0
 40
1.0
 10
166.146
 20
153.187
 30
0.0
 10
166.001
 20
153.308
 30
0.0
 10
165.95
 20
153.529
 30
0.0
 10
166.004
 20
153.796
 30
0.0
  0
SPLINE
  5
1c7
100
AcDbEntity
  8
0
100
AcDbSpline
210
0.0
220
0.0
230
1.0
 62
     253
 70
     0
 71
     3
 72
     8
 73
4
 40
0.0
 40
0.0
 40
0.0
 40
0.0
 40
1.0
 40
1.0
 40
1.0
 40
1.0
 10
166.004
 20
153.796
 30
0.0
 10
166.059
 20
154.068
 30
0.0
 10
166.213
 20
154.364
 30
0.0
 10
166.434
 20
154.619
 30
0.0
  0
LINE
  5
1c8
100
AcDbEntity
  8
0
100
AcDbLine
 62
     253
 10
152.775
 20
150.059
 30
0.0
 11
154.686
 21
148.46
 31
0.0
  0
LINE
  5
1c9
100
AcDbEntity
  8
0
100
AcDbLine
 62
     253
 10
185.999
 20
77.8387
 30
0.0
 11
181.439
 21
76.9867
 31
0.0
  0
LINE
  5
1ca
100
AcDbEntity
  8
0
100
AcDbLine
 62
     253
 10
185.082
 20
82.7525
 30
0.0
 11
180.522
 21
81.9009
 31
0.0
  0
LINE
  5
1cb
100
AcDbEntity
  8
0
100
AcDbLine
 62
     253
 10
185.999
 20
57.3663
 30
0.0
 11
181.439
 21
56.5146
 31
0.0
  0
LINE
  5
1cc
100
AcDbEntity
  8
0
100
AcDbLine
 62
     253
 10
185.082
 20
62.279
 30
0.0
 11
180.522
 21
61.4288
 31
0.0
  0
LINE
  5
1cd
100
AcDbEntity
  8
0
100
AcDbLine
 62
     253
 10
186.016
 20
68.7917
 30
0.0
 11
178.978
 21
75.2821
 31
0.0
  0
LINE
  5
1ce
100
AcDbEntity
  8
0
100
AcDbLine
 62
     253
 10
184.321
 20
66.9548
 30
0.0
 11
177.283
 21
73.4441
 31
0.0
  0
LINE
  5
1cf
100
AcDbEntity
  8
0
100
AcDbLine
 62
     253
 10
198.465
 20
194.572
 30
0.0
 11
200.376
 21
192.977
 31
0.0
  0
LINE
  5
1d0
100
AcDbEntity
  8
0
100
AcDbLine
 62
     253
 10
196.862
 20
192.654
 30
0.0
 11
198.772
 21
191.057
 31
0.0
  0
LINE
  5
1d1
100
AcDbEntity
  8
0
100
AcDbLine
 62
     253
 10
165.837
 20
156.702
 30
0.0
 11
167.749
 21
155.105
 31
0.0
  0
LINE
  5
1d2
100
AcDbEntity
  8
0
100
AcDbLine
 62
     253
 10
164.235
 20
154.783
 30
0.0
 11
166.146
 21
153.187
 31
0.0
  0
ENDSEC
  0
SECTION
  2
OBJECTS
  0
DICTIONARY
  5
C
330
0
100
AcDbDictionary
  3
ACAD_GROUP
350
D
  3
ACAD_LAYOUT
350
1A
  3
ACAD_MLINESTYLE
350
17
  3
ACAD_PLOTSETTINGS
350
19
  3
ACAD_PLOTSTYLENAME
350
E
  3
ACDBHEADERROUNDTRIPXREC
350
2F
  0
DICTIONARY
  5
52
330
1F
100
AcDbDictionary
280
     1
  3
ACAD_LAYOUTSELFREF
360
53
  0
DICTIONARY
  5
50
330
1B
100
AcDbDictionary
280
     1
  3
ACAD_LAYOUTSELFREF
360
51
  0
DICTIONARY
  5
D
102
{ACAD_REACTORS
330
C
102
}
330
C
100
AcDbDictionary
  0
DICTIONARY
  5
1A
102
{ACAD_REACTORS
330
C
102
}
330
C
100
AcDbDictionary
  0
DICTIONARY
  5
17
102
{ACAD_REACTORS
330
C
102
}
330
C
100
AcDbDictionary
  3
STANDARD
350
18
  0
DICTIONARY
  5
19
102
{ACAD_REACTORS
330
C
102
}
330
C
100
AcDbDictionary
  0
ACDBDICTIONARYWDFLT
  5
E
102
{ACAD_REACTORS
330
C
102
}
330
C
100
AcDbDictionary
281
     1
  3
Normal
350
F
100
AcDbDictionaryWithDefault
340
F
  0
DICTIONARY
  5
2F
102
{ACAD_REACTORS
330
C
102
}
330
C
100
AcDbDictionary
  3
CEPSNTYPE
350
39
  3
DIMSTYLEDATA
350
3D
  3
FINGERPRINTGUID
350
3A
  3
HYPERLINKBASE
350
32
  3
INSUNITS
350
38
  3
LAYOUTDICT
350
34
  3
LWETCUNION
350
37
  3
PLOTSETDICT
350
35
  3
PLOTSTYLNAMDICT
350
36
  3
PSVPSCALE
350
3C
  3
PUCSBASE
350
40
  3
PUCSORGBACK
350
46
  3
PUCSORGBOTTOM
350
42
  3
PUCSORGFRONT
350
45
  3
PUCSORGLEFT
350
43
  3
PUCSORGRIGHT
350
44
  3
PUCSORGTOP
350
41
  3
PUCSORTHOREF
350
3E
  3
PUCSORTHOVIEW
350
3F
  3
STYLESHEET
350
33
  3
TSTACKALIGN
350
30
  3
TSTACKSIZE
350
31
  3
UCSBASE
350
49
  3
UCSORGBACK
350
4F
  3
UCSORGBOTTOM
350
4B
  3
UCSORGFRONT
350
4E
  3
UCSORGLEFT
350
4C
  3
UCSORGRIGHT
350
4D
  3
UCSORGTOP
350
4A
  3
UCSORTHOREF
350
47
  3
UCSORTHOVIEW
350
48
  3
VERSIONGUID
350
3B
  0
XRECORD
  5
53
102
{ACAD_REACTORS
330
52
102
}
330
52
100
AcDbXrecord
340
1F
  0
XRECORD
  5
51
102
{ACAD_REACTORS
330
50
102
}
330
50
100
AcDbXrecord
340
1B
  0
MLINESTYLE
  5
18
102
{ACAD_REACTORS
330
17
102
}
330
17
100
AcDbMlineStyle
  2
STANDARD
 70
     0
  3

 62
   256
 51
90.0
 52
90.0
 71
     2
 49
0.5
 62
   256
  6
BYLAYER
 49
-0.5
 62
   256
  6
BYLAYER
  0
ACDBPLACEHOLDER
  5
F
102
{ACAD_REACTORS
330
E
102
}
330
E
100
AcDbPlaceHolder
280
     0
  0
XRECORD
  5
39
102
{ACAD_REACTORS
330
2F
102
}
330
2F
100
AcDbXrecord
 90
        0
  0
XRECORD
  5
3D
102
{ACAD_REACTORS
330
2F
102
}
330
2F
100
AcDbXrecord
1000
DSTYLE
1002
{
1070
   278
 70
    44
1002
}
  0
XRECORD
  5
3A
102
{ACAD_REACTORS
330
2F
102
}
330
2F
100
AcDbXrecord
  1
{705446A6-11D0-4548-8F8C-A97DCA50327D}
  0
XRECORD
  5
32
102
{ACAD_REACTORS
330
2F
102
}
330
2F
100
AcDbXrecord
  1

  0
XRECORD
  5
38
102
{ACAD_REACTORS
330
2F
102
}
330
2F
100
AcDbXrecord
 90
        4
  0
XRECORD
  5
34
102
{ACAD_REACTORS
330
2F
102
}
330
2F
100
AcDbXrecord
340
1A
  0
XRECORD
  5
37
102
{ACAD_REACTORS
330
2F
102
}
330
2F
100
AcDbXrecord
 90
    10781
  0
XRECORD
  5
35
102
{ACAD_REACTORS
330
2F
102
}
330
2F
100
AcDbXrecord
340
19
  0
XRECORD
  5
36
102
{ACAD_REACTORS
330
2F
102
}
330
2F
100
AcDbXrecord
340
E
  0
XRECORD
  5
3C
102
{ACAD_REACTORS
330
2F
102
}
330
2F
100
AcDbXrecord
 40
0.0
  0
XRECORD
  5
40
102
{ACAD_REACTORS
330
2F
102
}
330
2F
100
AcDbXrecord
340
0
  0
XRECORD
  5
46
102
{ACAD_REACTORS
330
2F
102
}
330
2F
100
AcDbXrecord
 10
0.0
 20
0.0
 30
0.0
  0
XRECORD
  5
42
102
{ACAD_REACTORS
330
2F
102
}
330
2F
100
AcDbXrecord
 10
0.0
 20
0.0
 30
0.0
  0
XRECORD
  5
45
102
{ACAD_REACTORS
330
2F
102
}
330
2F
100
AcDbXrecord
 10
0.0
 20
0.0
 30
0.0
  0
XRECORD
  5
43
102
{ACAD_REACTORS
330
2F
102
}
330
2F
100
AcDbXrecord
 10
0.0
 20
0.0
 30
0.0
  0
XRECORD
  5
44
102
{ACAD_REACTORS
330
2F
102
}
330
2F
100
AcDbXrecord
 10
0.0
 20
0.0
 30
0.0
  0
XRECORD
  5
41
102
{ACAD_REACTORS
330
2F
102
}
330
2F
100
AcDbXrecord
 10
0.0
 20
0.0
 30
0.0
  0
XRECORD
  5
3E
102
{ACAD_REACTORS
330
2F
102
}
330
2F
100
AcDbXrecord
340
0
  0
XRECORD
  5
3F
102
{ACAD_REACTORS
330
2F
102
}
330
2F
100
AcDbXrecord
 70
     0
  0
XRECORD
  5
33
102
{ACAD_REACTORS
330
2F
102
}
330
2F
100
AcDbXrecord
  1

  0
XRECORD
  5
30
102
{ACAD_REACTORS
330
2F
102
}
330
2F
100
AcDbXrecord
 90
        1
  0
XRECORD
  5
31
102
{ACAD_REACTORS
330
2F
102
}
330
2F
100
AcDbXrecord
 90
       70
  0
XRECORD
  5
49
102
{ACAD_REACTORS
330
2F
102
}
330
2F
100
AcDbXrecord
340
0
  0
XRECORD
  5
4F
102
{ACAD_REACTORS
330
2F
102
}
330
2F
100
AcDbXrecord
 10
0.0
 20
0.0
 30
0.0
  0
XRECORD
  5
4B
102
{ACAD_REACTORS
330
2F
102
}
330
2F
100
AcDbXrecord
 10
0.0
 20
0.0
 30
0.0
  0
XRECORD
  5
4E
102
{ACAD_REACTORS
330
2F
102
}
330
2F
100
AcDbXrecord
 10
0.0
 20
0.0
 30
0.0
  0
XRECORD
  5
4C
102
{ACAD_REACTORS
330
2F
102
}
330
2F
100
AcDbXrecord
 10
0.0
 20
0.0
 30
0.0
  0
XRECORD
  5
4D
102
{ACAD_REACTORS
330
2F
102
}
330
2F
100
AcDbXrecord
 10
0.0
 20
0.0
 30
0.0
  0
XRECORD
  5
4A
102
{ACAD_REACTORS
330
2F
102
}
330
2F
100
AcDbXrecord
 10
0.0
 20
0.0
 30
0.0
  0
XRECORD
  5
47
102
{ACAD_REACTORS
330
2F
102
}
330
2F
100
AcDbXrecord
340
0
  0
XRECORD
  5
48
102
{ACAD_REACTORS
330
2F
102
}
330
2F
100
AcDbXrecord
 70
     0
  0
XRECORD
  5
3B
102
{ACAD_REACTORS
330
2F
102
}
330
2F
100
AcDbXrecord
  1
{33328E3A-B6B8-4979-86B7-D70DEC2867C2}
  0
ENDSEC
  0
EOF
