  0
SECTION
  2
HEADER
  9
$ACADVER
  1
AC1014
  9
$EXTMIN
 10
70.16401489310567
 20
112.369642808922
 30
0.0
  9
$EXTMAX
 10
277.0834797641999
 20
227.1366601424358
 30
0.0
  9
$HANDSEED
  5
56
  9
$MEASUREMENT
 70
1
  0
ENDSEC
  0
SECTION
  2
TABLES
  0
TABLE
  2
VPORT
  5
8
330
0
100
AcDbSymbolTable
 70
     4
  0
VPORT
  5
2E
330
8
100
AcDbSymbolTableRecord
100
AcDbViewportTableRecord
  2
*ACTIVE
 70
     0
 10
0.0
 20
0.0
 11
1.0
 21
1.0
 12
209.9999999999999
 22
148.4999999999999
 13
0.0
 23
0.0
 14
10.0
 24
10.0
 15
10.0
 25
10.0
 16
0.0
 26
0.0
 36
1.0
 17
0.0
 27
0.0
 37
0.0
 40
340.9950045922664
 41
1.239944521497919
 42
50.0
 43
0.0
 44
0.0
 50
0.0
 51
0.0
 71
     0
 72
   100
 73
     1
 74
     3
 75
     0
 76
     0
 77
     0
 78
     0
  0
ENDTAB
  0
TABLE
  2
LTYPE
  5
5
330
0
100
AcDbSymbolTable
 70
     1
  0
LTYPE
  5
14
330
5
100
AcDbSymbolTableRecord
100
AcDbLinetypeTableRecord
  2
BYBLOCK
 70
     0
  3

 72
    65
 73
     0
 40
0.0
  0
LTYPE
  5
15
330
5
100
AcDbSymbolTableRecord
100
AcDbLinetypeTableRecord
  2
BYLAYER
 70
     0
  3

 72
    65
 73
     0
 40
0.0
  0
LTYPE
  5
16
330
5
100
AcDbSymbolTableRecord
100
AcDbLinetypeTableRecord
  2
CONTINUOUS
 70
     0
  3
Solid line
 72
    65
 73
     0
 40
0.0
  0
ENDTAB
  0
TABLE
  2
LAYER
  5
2
330
0
100
AcDbSymbolTable
 70
1
  0
LAYER
  5
10
330
2
100
AcDbSymbolTableRecord
100
AcDbLayerTableRecord
  2
0
 70
     0
 62
     7
  6
CONTINUOUS
  0
ENDTAB
  0
TABLE
  2
STYLE
  5
3
330
0
100
AcDbSymbolTable
 70
     1
  0
STYLE
  5
11
330
3
100
AcDbSymbolTableRecord
100
AcDbTextStyleTableRecord
  2
STANDARD
 70
     0
 40
0.0
 41
1.0
 50
0.0
 71
     0
 42
2.5
  3
txt
  4

  0
ENDTAB
  0
TABLE
  2
VIEW
  5
6
330
0
100
AcDbSymbolTable
 70
     0
  0
ENDTAB
  0
TABLE
  2
UCS
  5
7
330
0
100
AcDbSymbolTable
 70
     0
  0
ENDTAB
  0
TABLE
  2
APPID
  5
9
330
0
100
AcDbSymbolTable
 70
     2
  0
APPID
  5
12
330
9
100
AcDbSymbolTableRecord
100
AcDbRegAppTableRecord
  2
ACAD
 70
     0
  0
APPID
  5
2B
330
9
100
AcDbSymbolTableRecord
100
AcDbRegAppTableRecord
  2
URBANX
 70
     0
  0
ENDTAB
  0
TABLE
  2
DIMSTYLE
  5
A
330
0
100
AcDbSymbolTable
 70
     1
  0
DIMSTYLE
105
27
330
A
100
AcDbSymbolTableRecord
100
AcDbDimStyleTableRecord
  2
ISO-25
 70
     0
  3

  4

  5

  6

  7

 40
1.0
 41
2.5
 42
0.625
 43
3.75
 44
1.25
 45
0.0
 46
0.0
 47
0.0
 48
0.0
140
2.5
141
2.5
142
0.0
143
0.03937007874016
144
1.0
145
0.0
146
1.0
147
0.625
 71
     0
 72
     0
 73
     0
 74
     0
 75
     0
 76
     0
 77
     1
 78
     8
170
     0
171
     3
172
     1
173
     0
174
     0
175
     0
176
     0
177
     0
178
     0
270
     2
271
     2
272
     2
273
     2
274
     3
340
11
275
     0
280
     0
281
     0
282
     0
283
     0
284
     8
285
     0
286
     0
287
     3
288
     0
  0
ENDTAB
  0
TABLE
  2
BLOCK_RECORD
  5
1
330
0
100
AcDbSymbolTable
 70
     1
  0
BLOCK_RECORD
  5
1F
102
{ACAD_XDICTIONARY
360
52
102
}
330
1
100
AcDbSymbolTableRecord
100
AcDbBlockTableRecord
  2
*MODEL_SPACE
  0
BLOCK_RECORD
  5
1B
102
{ACAD_XDICTIONARY
360
50
102
}
330
1
100
AcDbSymbolTableRecord
100
AcDbBlockTableRecord
  2
*PAPER_SPACE
  0
ENDTAB
  0
ENDSEC
  0
SECTION
  2
BLOCKS
  0
BLOCK
  5
20
330
1F
100
AcDbEntity
  8
0
100
AcDbBlockBegin
  2
*MODEL_SPACE
 70
     0
 10
0.0
 20
0.0
 30
0.0
  3
*MODEL_SPACE
  1

  0
ENDBLK
  5
21
330
1F
100
AcDbEntity
  8
0
100
AcDbBlockEnd
  0
BLOCK
  5
1C
330
1B
100
AcDbEntity
 67
     1
  8
0
100
AcDbBlockBegin
  2
*PAPER_SPACE
  1

  0
ENDBLK
  5
1D
330
1B
100
AcDbEntity
 67
     1
  8
0
100
AcDbBlockEnd
  0
ENDSEC
  0
SECTION
  2
ENTITIES
  0
LINE
  5
ff
100
AcDbEntity
  8
0
100
AcDbLine
 62
     253
 10
25.0762
 20
85.7141
 30
0.0
 11
25.0762
 21
633.716
 31
0.0
  0
LINE
  5
100
100
AcDbEntity
  8
0
100
AcDbLine
 62
     253
 10
25.0762
 20
240.965
 30
0.0
 11
25.0762
 21
243.465
 31
0.0
  0
LINE
  5
101
100
AcDbEntity
  8
0
100
AcDbLine
 62
     253
 10
25.0762
 20
243.465
 30
0.0
 11
25.0762
 21
238.464
 31
0.0
  0
LINE
  5
102
100
AcDbEntity
  8
0
100
AcDbLine
 62
     253
 10
25.0762
 20
238.464
 30
0.0
 11
25.0762
 21
240.965
 31
0.0
  0
LINE
  5
103
100
AcDbEntity
  8
0
100
AcDbLine
 62
     253
 10
25.0762
 20
353.466
 30
0.0
 11
25.0762
 21
355.963
 31
0.0
  0
LINE
  5
104
100
AcDbEntity
  8
0
100
AcDbLine
 62
     253
 10
25.0762
 20
355.963
 30
0.0
 11
25.0762
 21
350.964
 31
0.0
  0
LINE
  5
105
100
AcDbEntity
  8
0
100
AcDbLine
 62
     253
 10
25.0762
 20
350.964
 30
0.0
 11
25.0762
 21
353.466
 31
0.0
  0
LINE
  5
106
100
AcDbEntity
  8
0
100
AcDbLine
 62
     253
 10
25.0762
 20
330.965
 30
0.0
 11
25.0762
 21
333.465
 31
0.0
  0
LINE
  5
107
100
AcDbEntity
  8
0
100
AcDbLine
 62
     253
 10
25.0762
 20
333.465
 30
0.0
 11
25.0762
 21
328.465
 31
0.0
  0
LINE
  5
108
100
AcDbEntity
  8
0
100
AcDbLine
 62
     253
 10
25.0762
 20
328.465
 30
0.0
 11
25.0762
 21
330.965
 31
0.0
  0
LINE
  5
109
100
AcDbEntity
  8
0
100
AcDbLine
 62
     253
 10
25.0762
 20
578.464
 30
0.0
 11
25.0762
 21
580.965
 31
0.0
  0
LINE
  5
10a
100
AcDbEntity
  8
0
100
AcDbLine
 62
     253
 10
25.0762
 20
580.965
 30
0.0
 11
25.0762
 21
575.966
 31
0.0
  0
LINE
  5
10b
100
AcDbEntity
  8
0
100
AcDbLine
 62
     253
 10
25.0762
 20
575.966
 30
0.0
 11
25.0762
 21
578.464
 31
0.0
  0
LINE
  5
10c
100
AcDbEntity
  8
0
100
AcDbLine
 62
     253
 10
25.0762
 20
555.964
 30
0.0
 11
25.0762
 21
558.465
 31
0.0
  0
LINE
  5
10d
100
AcDbEntity
  8
0
100
AcDbLine
 62
     253
 10
25.0762
 20
558.465
 30
0.0
 11
25.0762
 21
553.466
 31
0.0
  0
LINE
  5
10e
100
AcDbEntity
  8
0
100
AcDbLine
 62
     253
 10
25.0762
 20
553.466
 30
0.0
 11
25.0762
 21
555.964
 31
0.0
  0
LINE
  5
10f
100
AcDbEntity
  8
0
100
AcDbLine
 62
     253
 10
25.0762
 20
465.963
 30
0.0
 11
25.0762
 21
468.464
 31
0.0
  0
LINE
  5
110
100
AcDbEntity
  8
0
100
AcDbLine
 62
     253
 10
25.0762
 20
468.464
 30
0.0
 11
25.0762
 21
463.465
 31
0.0
  0
LINE
  5
111
100
AcDbEntity
  8
0
100
AcDbLine
 62
     253
 10
25.0762
 20
463.465
 30
0.0
 11
25.0762
 21
465.963
 31
0.0
  0
LINE
  5
112
100
AcDbEntity
  8
0
100
AcDbLine
 62
     253
 10
25.0762
 20
443.466
 30
0.0
 11
25.0762
 21
445.964
 31
0.0
  0
LINE
  5
113
100
AcDbEntity
  8
0
100
AcDbLine
 62
     253
 10
25.0762
 20
445.964
 30
0.0
 11
25.0762
 21
440.965
 31
0.0
  0
LINE
  5
114
100
AcDbEntity
  8
0
100
AcDbLine
 62
     253
 10
25.0762
 20
440.965
 30
0.0
 11
25.0762
 21
443.466
 31
0.0
  0
LINE
  5
115
100
AcDbEntity
  8
0
100
AcDbLine
 62
     253
 10
25.0762
 20
105.964
 30
0.0
 11
25.0762
 21
108.464
 31
0.0
  0
LINE
  5
116
100
AcDbEntity
  8
0
100
AcDbLine
 62
     253
 10
25.0762
 20
108.464
 30
0.0
 11
25.0762
 21
103.464
 31
0.0
  0
LINE
  5
117
100
AcDbEntity
  8
0
100
AcDbLine
 62
     253
 10
25.0762
 20
103.464
 30
0.0
 11
25.0762
 21
105.964
 31
0.0
  0
LINE
  5
118
100
AcDbEntity
  8
0
100
AcDbLine
 62
     253
 10
25.0762
 20
128.465
 30
0.0
 11
25.0762
 21
130.965
 31
0.0
  0
LINE
  5
119
100
AcDbEntity
  8
0
100
AcDbLine
 62
     253
 10
25.0762
 20
130.965
 30
0.0
 11
25.0762
 21
125.965
 31
0.0
  0
LINE
  5
11a
100
AcDbEntity
  8
0
100
AcDbLine
 62
     253
 10
25.0762
 20
125.965
 30
0.0
 11
25.0762
 21
128.465
 31
0.0
  0
LINE
  5
11b
100
AcDbEntity
  8
0
100
AcDbLine
 62
     253
 10
25.0762
 20
218.465
 30
0.0
 11
25.0762
 21
220.964
 31
0.0
  0
LINE
  5
11c
100
AcDbEntity
  8
0
100
AcDbLine
 62
     253
 10
25.0762
 20
220.964
 30
0.0
 11
25.0762
 21
215.965
 31
0.0
  0
LINE
  5
11d
100
AcDbEntity
  8
0
100
AcDbLine
 62
     253
 10
25.0762
 20
215.965
 30
0.0
 11
25.0762
 21
218.465
 31
0.0
  0
LINE
  5
11e
100
AcDbEntity
  8
0
100
AcDbLine
 62
     253
 10
24.0757
 20
84.715
 30
0.0
 11
25.0762
 21
85.7141
 31
0.0
  0
LINE
  5
11f
100
AcDbEntity
  8
0
100
AcDbLine
 62
     253
 10
25.0762
 20
633.716
 30
0.0
 11
24.0757
 21
634.714
 31
0.0
  0
LINE
  5
120
100
AcDbEntity
  8
0
100
AcDbLine
 62
     253
 10
25.0762
 20
85.7141
 30
0.0
 11
24.0757
 21
85.7141
 31
0.0
  0
LINE
  5
121
100
AcDbEntity
  8
0
100
AcDbLine
 62
     253
 10
24.0757
 20
633.716
 30
0.0
 11
25.0762
 21
633.716
 31
0.0
  0
LINE
  5
122
100
AcDbEntity
  8
0
100
AcDbLine
 62
     253
 10
24.0757
 20
85.7141
 30
0.0
 11
24.0757
 21
633.716
 31
0.0
  0
LINE
  5
123
100
AcDbEntity
  8
0
100
AcDbLine
 62
     253
 10
15.0757
 20
240.965
 30
0.0
 11
15.0757
 21
243.465
 31
0.0
  0
LINE
  5
124
100
AcDbEntity
  8
0
100
AcDbLine
 62
     253
 10
15.0757
 20
243.465
 30
0.0
 11
15.0757
 21
238.464
 31
0.0
  0
LINE
  5
125
100
AcDbEntity
  8
0
100
AcDbLine
 62
     253
 10
15.0757
 20
238.464
 30
0.0
 11
15.0757
 21
240.965
 31
0.0
  0
LINE
  5
126
100
AcDbEntity
  8
0
100
AcDbLine
 62
     253
 10
15.0757
 20
353.466
 30
0.0
 11
15.0757
 21
355.963
 31
0.0
  0
LINE
  5
127
100
AcDbEntity
  8
0
100
AcDbLine
 62
     253
 10
15.0757
 20
355.963
 30
0.0
 11
15.0757
 21
350.964
 31
0.0
  0
LINE
  5
128
100
AcDbEntity
  8
0
100
AcDbLine
 62
     253
 10
15.0757
 20
350.964
 30
0.0
 11
15.0757
 21
353.466
 31
0.0
  0
LINE
  5
129
100
AcDbEntity
  8
0
100
AcDbLine
 62
     253
 10
15.0757
 20
330.965
 30
0.0
 11
15.0757
 21
333.465
 31
0.0
  0
LINE
  5
12a
100
AcDbEntity
  8
0
100
AcDbLine
 62
     253
 10
15.0757
 20
333.465
 30
0.0
 11
15.0757
 21
328.465
 31
0.0
  0
LINE
  5
12b
100
AcDbEntity
  8
0
100
AcDbLine
 62
     253
 10
15.0757
 20
328.465
 30
0.0
 11
15.0757
 21
330.965
 31
0.0
  0
LINE
  5
12c
100
AcDbEntity
  8
0
100
AcDbLine
 62
     253
 10
15.0757
 20
578.464
 30
0.0
 11
15.0757
 21
580.965
 31
0.0
  0
LINE
  5
12d
100
AcDbEntity
  8
0
100
AcDbLine
 62
     253
 10
15.0757
 20
580.965
 30
0.0
 11
15.0757
 21
575.966
 31
0.0
  0
LINE
  5
12e
100
AcDbEntity
  8
0
100
AcDbLine
 62
     253
 10
15.0757
 20
575.966
 30
0.0
 11
15.0757
 21
578.464
 31
0.0
  0
LINE
  5
12f
100
AcDbEntity
  8
0
100
AcDbLine
 62
     253
 10
15.0757
 20
555.964
 30
0.0
 11
15.0757
 21
558.465
 31
0.0
  0
LINE
  5
130
100
AcDbEntity
  8
0
100
AcDbLine
 62
     253
 10
15.0757
 20
558.465
 30
0.0
 11
15.0757
 21
553.466
 31
0.0
  0
LINE
  5
131
100
AcDbEntity
  8
0
100
AcDbLine
 62
     253
 10
15.0757
 20
553.466
 30
0.0
 11
15.0757
 21
555.964
 31
0.0
  0
LINE
  5
132
100
AcDbEntity
  8
0
100
AcDbLine
 62
     253
 10
15.0757
 20
465.963
 30
0.0
 11
15.0757
 21
468.464
 31
0.0
  0
LINE
  5
133
100
AcDbEntity
  8
0
100
AcDbLine
 62
     253
 10
15.0757
 20
468.464
 30
0.0
 11
15.0757
 21
463.465
 31
0.0
  0
LINE
  5
134
100
AcDbEntity
  8
0
100
AcDbLine
 62
     253
 10
15.0757
 20
463.465
 30
0.0
 11
15.0757
 21
465.963
 31
0.0
  0
LINE
  5
135
100
AcDbEntity
  8
0
100
AcDbLine
 62
     253
 10
15.0757
 20
443.466
 30
0.0
 11
15.0757
 21
445.964
 31
0.0
  0
LINE
  5
136
100
AcDbEntity
  8
0
100
AcDbLine
 62
     253
 10
15.0757
 20
445.964
 30
0.0
 11
15.0757
 21
440.965
 31
0.0
  0
LINE
  5
137
100
AcDbEntity
  8
0
100
AcDbLine
 62
     253
 10
15.0757
 20
440.965
 30
0.0
 11
15.0757
 21
443.466
 31
0.0
  0
LINE
  5
138
100
AcDbEntity
  8
0
100
AcDbLine
 62
     253
 10
15.0757
 20
105.964
 30
0.0
 11
15.0757
 21
108.464
 31
0.0
  0
LINE
  5
139
100
AcDbEntity
  8
0
100
AcDbLine
 62
     253
 10
15.0757
 20
108.464
 30
0.0
 11
15.0757
 21
103.464
 31
0.0
  0
LINE
  5
13a
100
AcDbEntity
  8
0
100
AcDbLine
 62
     253
 10
15.0757
 20
103.464
 30
0.0
 11
15.0757
 21
105.964
 31
0.0
  0
LINE
  5
13b
100
AcDbEntity
  8
0
100
AcDbLine
 62
     253
 10
15.0757
 20
128.465
 30
0.0
 11
15.0757
 21
130.965
 31
0.0
  0
LINE
  5
13c
100
AcDbEntity
  8
0
100
AcDbLine
 62
     253
 10
15.0757
 20
130.965
 30
0.0
 11
15.0757
 21
125.965
 31
0.0
  0
LINE
  5
13d
100
AcDbEntity
  8
0
100
AcDbLine
 62
     253
 10
15.0757
 20
125.965
 30
0.0
 11
15.0757
 21
128.465
 31
0.0
  0
LINE
  5
13e
100
AcDbEntity
  8
0
100
AcDbLine
 62
     253
 10
15.0757
 20
218.465
 30
0.0
 11
15.0757
 21
220.964
 31
0.0
  0
LINE
  5
13f
100
AcDbEntity
  8
0
100
AcDbLine
 62
     253
 10
15.0757
 20
220.964
 30
0.0
 11
15.0757
 21
215.965
 31
0.0
  0
LINE
  5
140
100
AcDbEntity
  8
0
100
AcDbLine
 62
     253
 10
15.0757
 20
215.965
 30
0.0
 11
15.0757
 21
218.465
 31
0.0
  0
LINE
  5
141
100
AcDbEntity
  8
0
100
AcDbLine
 62
     253
 10
24.0757
 20
84.715
 30
0.0
 11
16.0762
 21
84.715
 31
0.0
  0
LINE
  5
142
100
AcDbEntity
  8
0
100
AcDbLine
 62
     253
 10
24.0757
 20
84.715
 30
0.0
 11
24.0757
 21
85.7141
 31
0.0
  0
LINE
  5
143
100
AcDbEntity
  8
0
100
AcDbLine
 62
     253
 10
24.0757
 20
634.714
 30
0.0
 11
16.0762
 21
634.714
 31
0.0
  0
LINE
  5
144
100
AcDbEntity
  8
0
100
AcDbLine
 62
     253
 10
24.0757
 20
633.716
 30
0.0
 11
24.0757
 21
634.714
 31
0.0
  0
LINE
  5
145
100
AcDbEntity
  8
0
100
AcDbLine
 62
     253
 10
24.0757
 20
85.7141
 30
0.0
 11
16.0762
 21
85.7141
 31
0.0
  0
LINE
  5
146
100
AcDbEntity
  8
0
100
AcDbLine
 62
     253
 10
24.0757
 20
633.716
 30
0.0
 11
16.0762
 21
633.716
 31
0.0
  0
LINE
  5
147
100
AcDbEntity
  8
0
100
AcDbLine
 62
     253
 10
16.0762
 20
85.7141
 30
0.0
 11
16.0762
 21
633.716
 31
0.0
  0
LINE
  5
148
100
AcDbEntity
  8
0
100
AcDbLine
 62
     253
 10
15.0757
 20
85.7141
 30
0.0
 11
15.0757
 21
633.716
 31
0.0
  0
LINE
  5
149
100
AcDbEntity
  8
0
100
AcDbLine
 62
     253
 10
16.0762
 20
84.715
 30
0.0
 11
16.0762
 21
85.7141
 31
0.0
  0
LINE
  5
14a
100
AcDbEntity
  8
0
100
AcDbLine
 62
     253
 10
16.0762
 20
84.715
 30
0.0
 11
15.0757
 21
85.7141
 31
0.0
  0
LINE
  5
14b
100
AcDbEntity
  8
0
100
AcDbLine
 62
     253
 10
16.0762
 20
633.716
 30
0.0
 11
16.0762
 21
634.714
 31
0.0
  0
LINE
  5
14c
100
AcDbEntity
  8
0
100
AcDbLine
 62
     253
 10
15.0757
 20
633.716
 30
0.0
 11
16.0762
 21
634.714
 31
0.0
  0
LINE
  5
14d
100
AcDbEntity
  8
0
100
AcDbLine
 62
     253
 10
15.0757
 20
85.7141
 30
0.0
 11
16.0762
 21
85.7141
 31
0.0
  0
LINE
  5
14e
100
AcDbEntity
  8
0
100
AcDbLine
 62
     253
 10
16.0762
 20
633.716
 30
0.0
 11
15.0757
 21
633.716
 31
0.0
  0
LINE
  5
14f
100
AcDbEntity
  8
0
100
AcDbLine
 62
     253
 10
0.0757922
 20
85.7141
 30
0.0
 11
0.0757922
 21
633.716
 31
0.0
  0
LINE
  5
150
100
AcDbEntity
  8
0
100
AcDbLine
 62
     253
 10
0.0757922
 20
240.965
 30
0.0
 11
0.0757922
 21
243.465
 31
0.0
  0
LINE
  5
151
100
AcDbEntity
  8
0
100
AcDbLine
 62
     253
 10
0.0757922
 20
243.465
 30
0.0
 11
0.0757922
 21
238.464
 31
0.0
  0
LINE
  5
152
100
AcDbEntity
  8
0
100
AcDbLine
 62
     253
 10
0.0757922
 20
238.464
 30
0.0
 11
0.0757922
 21
240.965
 31
0.0
  0
LINE
  5
153
100
AcDbEntity
  8
0
100
AcDbLine
 62
     253
 10
0.0757922
 20
353.466
 30
0.0
 11
0.0757922
 21
355.963
 31
0.0
  0
LINE
  5
154
100
AcDbEntity
  8
0
100
AcDbLine
 62
     253
 10
0.0757922
 20
355.963
 30
0.0
 11
0.0757922
 21
350.964
 31
0.0
  0
LINE
  5
155
100
AcDbEntity
  8
0
100
AcDbLine
 62
     253
 10
0.0757922
 20
350.964
 30
0.0
 11
0.0757922
 21
353.466
 31
0.0
  0
LINE
  5
156
100
AcDbEntity
  8
0
100
AcDbLine
 62
     253
 10
0.0757922
 20
330.965
 30
0.0
 11
0.0757922
 21
333.465
 31
0.0
  0
LINE
  5
157
100
AcDbEntity
  8
0
100
AcDbLine
 62
     253
 10
0.0757922
 20
333.465
 30
0.0
 11
0.0757922
 21
328.465
 31
0.0
  0
LINE
  5
158
100
AcDbEntity
  8
0
100
AcDbLine
 62
     253
 10
0.0757922
 20
328.465
 30
0.0
 11
0.0757922
 21
330.965
 31
0.0
  0
LINE
  5
159
100
AcDbEntity
  8
0
100
AcDbLine
 62
     253
 10
0.0757922
 20
578.464
 30
0.0
 11
0.0757922
 21
580.965
 31
0.0
  0
LINE
  5
15a
100
AcDbEntity
  8
0
100
AcDbLine
 62
     253
 10
0.0757922
 20
580.965
 30
0.0
 11
0.0757922
 21
575.966
 31
0.0
  0
LINE
  5
15b
100
AcDbEntity
  8
0
100
AcDbLine
 62
     253
 10
0.0757922
 20
575.966
 30
0.0
 11
0.0757922
 21
578.464
 31
0.0
  0
LINE
  5
15c
100
AcDbEntity
  8
0
100
AcDbLine
 62
     253
 10
0.0757922
 20
555.964
 30
0.0
 11
0.0757922
 21
558.465
 31
0.0
  0
LINE
  5
15d
100
AcDbEntity
  8
0
100
AcDbLine
 62
     253
 10
0.0757922
 20
558.465
 30
0.0
 11
0.0757922
 21
553.466
 31
0.0
  0
LINE
  5
15e
100
AcDbEntity
  8
0
100
AcDbLine
 62
     253
 10
0.0757922
 20
553.466
 30
0.0
 11
0.0757922
 21
555.964
 31
0.0
  0
LINE
  5
15f
100
AcDbEntity
  8
0
100
AcDbLine
 62
     253
 10
0.0757922
 20
465.963
 30
0.0
 11
0.0757922
 21
468.464
 31
0.0
  0
LINE
  5
160
100
AcDbEntity
  8
0
100
AcDbLine
 62
     253
 10
0.0757922
 20
468.464
 30
0.0
 11
0.0757922
 21
463.465
 31
0.0
  0
LINE
  5
161
100
AcDbEntity
  8
0
100
AcDbLine
 62
     253
 10
0.0757922
 20
463.465
 30
0.0
 11
0.0757922
 21
465.963
 31
0.0
  0
LINE
  5
162
100
AcDbEntity
  8
0
100
AcDbLine
 62
     253
 10
0.0757922
 20
443.466
 30
0.0
 11
0.0757922
 21
445.964
 31
0.0
  0
LINE
  5
163
100
AcDbEntity
  8
0
100
AcDbLine
 62
     253
 10
0.0757922
 20
445.964
 30
0.0
 11
0.0757922
 21
440.965
 31
0.0
  0
LINE
  5
164
100
AcDbEntity
  8
0
100
AcDbLine
 62
     253
 10
0.0757922
 20
440.965
 30
0.0
 11
0.0757922
 21
443.466
 31
0.0
  0
LINE
  5
165
100
AcDbEntity
  8
0
100
AcDbLine
 62
     253
 10
0.0757922
 20
105.964
 30
0.0
 11
0.0757922
 21
108.464
 31
0.0
  0
LINE
  5
166
100
AcDbEntity
  8
0
100
AcDbLine
 62
     253
 10
0.0757922
 20
108.464
 30
0.0
 11
0.0757922
 21
103.464
 31
0.0
  0
LINE
  5
167
100
AcDbEntity
  8
0
100
AcDbLine
 62
     253
 10
0.0757922
 20
103.464
 30
0.0
 11
0.0757922
 21
105.964
 31
0.0
  0
LINE
  5
168
100
AcDbEntity
  8
0
100
AcDbLine
 62
     253
 10
0.0757922
 20
128.465
 30
0.0
 11
0.0757922
 21
130.965
 31
0.0
  0
LINE
  5
169
100
AcDbEntity
  8
0
100
AcDbLine
 62
     253
 10
0.0757922
 20
130.965
 30
0.0
 11
0.0757922
 21
125.965
 31
0.0
  0
LINE
  5
16a
100
AcDbEntity
  8
0
100
AcDbLine
 62
     253
 10
0.0757922
 20
125.965
 30
0.0
 11
0.0757922
 21
128.465
 31
0.0
  0
LINE
  5
16b
100
AcDbEntity
  8
0
100
AcDbLine
 62
     253
 10
0.0757922
 20
218.465
 30
0.0
 11
0.0757922
 21
220.964
 31
0.0
  0
LINE
  5
16c
100
AcDbEntity
  8
0
100
AcDbLine
 62
     253
 10
0.0757922
 20
220.964
 30
0.0
 11
0.0757922
 21
215.965
 31
0.0
  0
LINE
  5
16d
100
AcDbEntity
  8
0
100
AcDbLine
 62
     253
 10
0.0757922
 20
215.965
 30
0.0
 11
0.0757922
 21
218.465
 31
0.0
  0
LINE
  5
16e
100
AcDbEntity
  8
0
100
AcDbLine
 62
     253
 10
1.07625
 20
84.715
 30
0.0
 11
0.0757922
 21
85.7141
 31
0.0
  0
LINE
  5
16f
100
AcDbEntity
  8
0
100
AcDbLine
 62
     253
 10
0.0757922
 20
633.716
 30
0.0
 11
1.07625
 21
634.714
 31
0.0
  0
LINE
  5
170
100
AcDbEntity
  8
0
100
AcDbLine
 62
     253
 10
0.0757922
 20
85.7141
 30
0.0
 11
1.07625
 21
85.7141
 31
0.0
  0
LINE
  5
171
100
AcDbEntity
  8
0
100
AcDbLine
 62
     253
 10
1.07625
 20
633.716
 30
0.0
 11
0.0757922
 21
633.716
 31
0.0
  0
LINE
  5
172
100
AcDbEntity
  8
0
100
AcDbLine
 62
     253
 10
1.07625
 20
85.7141
 30
0.0
 11
1.07625
 21
633.716
 31
0.0
  0
LINE
  5
173
100
AcDbEntity
  8
0
100
AcDbLine
 62
     253
 10
10.0762
 20
240.965
 30
0.0
 11
10.0762
 21
243.465
 31
0.0
  0
LINE
  5
174
100
AcDbEntity
  8
0
100
AcDbLine
 62
     253
 10
10.0762
 20
243.465
 30
0.0
 11
10.0762
 21
238.464
 31
0.0
  0
LINE
  5
175
100
AcDbEntity
  8
0
100
AcDbLine
 62
     253
 10
10.0762
 20
238.464
 30
0.0
 11
10.0762
 21
240.965
 31
0.0
  0
LINE
  5
176
100
AcDbEntity
  8
0
100
AcDbLine
 62
     253
 10
10.0762
 20
353.466
 30
0.0
 11
10.0762
 21
355.963
 31
0.0
  0
LINE
  5
177
100
AcDbEntity
  8
0
100
AcDbLine
 62
     253
 10
10.0762
 20
355.963
 30
0.0
 11
10.0762
 21
350.964
 31
0.0
  0
LINE
  5
178
100
AcDbEntity
  8
0
100
AcDbLine
 62
     253
 10
10.0762
 20
350.964
 30
0.0
 11
10.0762
 21
353.466
 31
0.0
  0
LINE
  5
179
100
AcDbEntity
  8
0
100
AcDbLine
 62
     253
 10
10.0762
 20
330.965
 30
0.0
 11
10.0762
 21
333.465
 31
0.0
  0
LINE
  5
17a
100
AcDbEntity
  8
0
100
AcDbLine
 62
     253
 10
10.0762
 20
333.465
 30
0.0
 11
10.0762
 21
328.465
 31
0.0
  0
LINE
  5
17b
100
AcDbEntity
  8
0
100
AcDbLine
 62
     253
 10
10.0762
 20
328.465
 30
0.0
 11
10.0762
 21
330.965
 31
0.0
  0
LINE
  5
17c
100
AcDbEntity
  8
0
100
AcDbLine
 62
     253
 10
10.0762
 20
578.464
 30
0.0
 11
10.0762
 21
580.965
 31
0.0
  0
LINE
  5
17d
100
AcDbEntity
  8
0
100
AcDbLine
 62
     253
 10
10.0762
 20
580.965
 30
0.0
 11
10.0762
 21
575.966
 31
0.0
  0
LINE
  5
17e
100
AcDbEntity
  8
0
100
AcDbLine
 62
     253
 10
10.0762
 20
575.966
 30
0.0
 11
10.0762
 21
578.464
 31
0.0
  0
LINE
  5
17f
100
AcDbEntity
  8
0
100
AcDbLine
 62
     253
 10
10.0762
 20
555.964
 30
0.0
 11
10.0762
 21
558.465
 31
0.0
  0
LINE
  5
180
100
AcDbEntity
  8
0
100
AcDbLine
 62
     253
 10
10.0762
 20
558.465
 30
0.0
 11
10.0762
 21
553.466
 31
0.0
  0
LINE
  5
181
100
AcDbEntity
  8
0
100
AcDbLine
 62
     253
 10
10.0762
 20
553.466
 30
0.0
 11
10.0762
 21
555.964
 31
0.0
  0
LINE
  5
182
100
AcDbEntity
  8
0
100
AcDbLine
 62
     253
 10
10.0762
 20
465.963
 30
0.0
 11
10.0762
 21
468.464
 31
0.0
  0
LINE
  5
183
100
AcDbEntity
  8
0
100
AcDbLine
 62
     253
 10
10.0762
 20
468.464
 30
0.0
 11
10.0762
 21
463.465
 31
0.0
  0
LINE
  5
184
100
AcDbEntity
  8
0
100
AcDbLine
 62
     253
 10
10.0762
 20
463.465
 30
0.0
 11
10.0762
 21
465.963
 31
0.0
  0
LINE
  5
185
100
AcDbEntity
  8
0
100
AcDbLine
 62
     253
 10
10.0762
 20
443.466
 30
0.0
 11
10.0762
 21
445.964
 31
0.0
  0
LINE
  5
186
100
AcDbEntity
  8
0
100
AcDbLine
 62
     253
 10
10.0762
 20
445.964
 30
0.0
 11
10.0762
 21
440.965
 31
0.0
  0
LINE
  5
187
100
AcDbEntity
  8
0
100
AcDbLine
 62
     253
 10
10.0762
 20
440.965
 30
0.0
 11
10.0762
 21
443.466
 31
0.0
  0
LINE
  5
188
100
AcDbEntity
  8
0
100
AcDbLine
 62
     253
 10
10.0762
 20
105.964
 30
0.0
 11
10.0762
 21
108.464
 31
0.0
  0
LINE
  5
189
100
AcDbEntity
  8
0
100
AcDbLine
 62
     253
 10
10.0762
 20
108.464
 30
0.0
 11
10.0762
 21
103.464
 31
0.0
  0
LINE
  5
18a
100
AcDbEntity
  8
0
100
AcDbLine
 62
     253
 10
10.0762
 20
103.464
 30
0.0
 11
10.0762
 21
105.964
 31
0.0
  0
LINE
  5
18b
100
AcDbEntity
  8
0
100
AcDbLine
 62
     253
 10
10.0762
 20
128.465
 30
0.0
 11
10.0762
 21
130.965
 31
0.0
  0
LINE
  5
18c
100
AcDbEntity
  8
0
100
AcDbLine
 62
     253
 10
10.0762
 20
130.965
 30
0.0
 11
10.0762
 21
125.965
 31
0.0
  0
LINE
  5
18d
100
AcDbEntity
  8
0
100
AcDbLine
 62
     253
 10
10.0762
 20
125.965
 30
0.0
 11
10.0762
 21
128.465
 31
0.0
  0
LINE
  5
18e
100
AcDbEntity
  8
0
100
AcDbLine
 62
     253
 10
10.0762
 20
218.465
 30
0.0
 11
10.0762
 21
220.964
 31
0.0
  0
LINE
  5
18f
100
AcDbEntity
  8
0
100
AcDbLine
 62
     253
 10
10.0762
 20
220.964
 30
0.0
 11
10.0762
 21
215.965
 31
0.0
  0
LINE
  5
190
100
AcDbEntity
  8
0
100
AcDbLine
 62
     253
 10
10.0762
 20
215.965
 30
0.0
 11
10.0762
 21
218.465
 31
0.0
  0
LINE
  5
191
100
AcDbEntity
  8
0
100
AcDbLine
 62
     253
 10
1.07625
 20
84.715
 30
0.0
 11
9.07577
 21
84.715
 31
0.0
  0
LINE
  5
192
100
AcDbEntity
  8
0
100
AcDbLine
 62
     253
 10
1.07625
 20
84.715
 30
0.0
 11
1.07625
 21
85.7141
 31
0.0
  0
LINE
  5
193
100
AcDbEntity
  8
0
100
AcDbLine
 62
     253
 10
1.07625
 20
634.714
 30
0.0
 11
9.07577
 21
634.714
 31
0.0
  0
LINE
  5
194
100
AcDbEntity
  8
0
100
AcDbLine
 62
     253
 10
1.07625
 20
633.716
 30
0.0
 11
1.07625
 21
634.714
 31
0.0
  0
LINE
  5
195
100
AcDbEntity
  8
0
100
AcDbLine
 62
     253
 10
1.07625
 20
85.7141
 30
0.0
 11
9.07577
 21
85.7141
 31
0.0
  0
LINE
  5
196
100
AcDbEntity
  8
0
100
AcDbLine
 62
     253
 10
1.07625
 20
633.716
 30
0.0
 11
9.07577
 21
633.716
 31
0.0
  0
LINE
  5
197
100
AcDbEntity
  8
0
100
AcDbLine
 62
     253
 10
9.07577
 20
85.7141
 30
0.0
 11
9.07577
 21
633.716
 31
0.0
  0
LINE
  5
198
100
AcDbEntity
  8
0
100
AcDbLine
 62
     253
 10
10.0762
 20
85.7141
 30
0.0
 11
10.0762
 21
633.716
 31
0.0
  0
LINE
  5
199
100
AcDbEntity
  8
0
100
AcDbLine
 62
     253
 10
9.07577
 20
84.715
 30
0.0
 11
9.07577
 21
85.7141
 31
0.0
  0
LINE
  5
19a
100
AcDbEntity
  8
0
100
AcDbLine
 62
     253
 10
9.07577
 20
84.715
 30
0.0
 11
10.0762
 21
85.7141
 31
0.0
  0
LINE
  5
19b
100
AcDbEntity
  8
0
100
AcDbLine
 62
     253
 10
9.07577
 20
633.716
 30
0.0
 11
9.07577
 21
634.714
 31
0.0
  0
LINE
  5
19c
100
AcDbEntity
  8
0
100
AcDbLine
 62
     253
 10
10.0762
 20
633.716
 30
0.0
 11
9.07577
 21
634.714
 31
0.0
  0
LINE
  5
19d
100
AcDbEntity
  8
0
100
AcDbLine
 62
     253
 10
10.0762
 20
85.7141
 30
0.0
 11
9.07577
 21
85.7141
 31
0.0
  0
LINE
  5
19e
100
AcDbEntity
  8
0
100
AcDbLine
 62
     253
 10
9.07577
 20
633.716
 30
0.0
 11
10.0762
 21
633.716
 31
0.0
  0
LINE
  5
19f
100
AcDbEntity
  8
0
100
AcDbLine
 62
     253
 10
25.0762
 20
238.464
 30
0.0
 11
15.0757
 21
238.464
 31
0.0
  0
LINE
  5
1a0
100
AcDbEntity
  8
0
100
AcDbLine
 62
     253
 10
25.0762
 20
243.465
 30
0.0
 11
15.0757
 21
243.465
 31
0.0
  0
LINE
  5
1a1
100
AcDbEntity
  8
0
100
AcDbLine
 62
     253
 10
25.0762
 20
350.964
 30
0.0
 11
15.0757
 21
350.964
 31
0.0
  0
LINE
  5
1a2
100
AcDbEntity
  8
0
100
AcDbLine
 62
     253
 10
25.0762
 20
355.963
 30
0.0
 11
15.0757
 21
355.963
 31
0.0
  0
LINE
  5
1a3
100
AcDbEntity
  8
0
100
AcDbLine
 62
     253
 10
25.0762
 20
328.465
 30
0.0
 11
15.0757
 21
328.465
 31
0.0
  0
LINE
  5
1a4
100
AcDbEntity
  8
0
100
AcDbLine
 62
     253
 10
25.0762
 20
333.465
 30
0.0
 11
15.0757
 21
333.465
 31
0.0
  0
LINE
  5
1a5
100
AcDbEntity
  8
0
100
AcDbLine
 62
     253
 10
25.0762
 20
575.966
 30
0.0
 11
15.0757
 21
575.966
 31
0.0
  0
LINE
  5
1a6
100
AcDbEntity
  8
0
100
AcDbLine
 62
     253
 10
25.0762
 20
580.965
 30
0.0
 11
15.0757
 21
580.965
 31
0.0
  0
LINE
  5
1a7
100
AcDbEntity
  8
0
100
AcDbLine
 62
     253
 10
25.0762
 20
553.466
 30
0.0
 11
15.0757
 21
553.466
 31
0.0
  0
LINE
  5
1a8
100
AcDbEntity
  8
0
100
AcDbLine
 62
     253
 10
25.0762
 20
558.465
 30
0.0
 11
15.0757
 21
558.465
 31
0.0
  0
LINE
  5
1a9
100
AcDbEntity
  8
0
100
AcDbLine
 62
     253
 10
25.0762
 20
463.465
 30
0.0
 11
15.0757
 21
463.465
 31
0.0
  0
LINE
  5
1aa
100
AcDbEntity
  8
0
100
AcDbLine
 62
     253
 10
25.0762
 20
468.464
 30
0.0
 11
15.0757
 21
468.464
 31
0.0
  0
LINE
  5
1ab
100
AcDbEntity
  8
0
100
AcDbLine
 62
     253
 10
25.0762
 20
440.965
 30
0.0
 11
15.0757
 21
440.965
 31
0.0
  0
LINE
  5
1ac
100
AcDbEntity
  8
0
100
AcDbLine
 62
     253
 10
25.0762
 20
445.964
 30
0.0
 11
15.0757
 21
445.964
 31
0.0
  0
LINE
  5
1ad
100
AcDbEntity
  8
0
100
AcDbLine
 62
     253
 10
25.0762
 20
103.464
 30
0.0
 11
15.0757
 21
103.464
 31
0.0
  0
LINE
  5
1ae
100
AcDbEntity
  8
0
100
AcDbLine
 62
     253
 10
25.0762
 20
108.464
 30
0.0
 11
15.0757
 21
108.464
 31
0.0
  0
LINE
  5
1af
100
AcDbEntity
  8
0
100
AcDbLine
 62
     253
 10
25.0762
 20
125.965
 30
0.0
 11
15.0757
 21
125.965
 31
0.0
  0
LINE
  5
1b0
100
AcDbEntity
  8
0
100
AcDbLine
 62
     253
 10
25.0762
 20
130.965
 30
0.0
 11
15.0757
 21
130.965
 31
0.0
  0
LINE
  5
1b1
100
AcDbEntity
  8
0
100
AcDbLine
 62
     253
 10
25.0762
 20
215.965
 30
0.0
 11
15.0757
 21
215.965
 31
0.0
  0
LINE
  5
1b2
100
AcDbEntity
  8
0
100
AcDbLine
 62
     253
 10
25.0762
 20
220.964
 30
0.0
 11
15.0757
 21
220.964
 31
0.0
  0
LINE
  5
1b3
100
AcDbEntity
  8
0
100
AcDbLine
 62
     253
 10
10.0762
 20
238.464
 30
0.0
 11
0.0757922
 21
238.464
 31
0.0
  0
LINE
  5
1b4
100
AcDbEntity
  8
0
100
AcDbLine
 62
     253
 10
10.0762
 20
243.465
 30
0.0
 11
0.0757922
 21
243.465
 31
0.0
  0
LINE
  5
1b5
100
AcDbEntity
  8
0
100
AcDbLine
 62
     253
 10
10.0762
 20
350.964
 30
0.0
 11
0.0757922
 21
350.964
 31
0.0
  0
LINE
  5
1b6
100
AcDbEntity
  8
0
100
AcDbLine
 62
     253
 10
10.0762
 20
355.963
 30
0.0
 11
0.0757922
 21
355.963
 31
0.0
  0
LINE
  5
1b7
100
AcDbEntity
  8
0
100
AcDbLine
 62
     253
 10
10.0762
 20
328.465
 30
0.0
 11
0.0757922
 21
328.465
 31
0.0
  0
LINE
  5
1b8
100
AcDbEntity
  8
0
100
AcDbLine
 62
     253
 10
10.0762
 20
333.465
 30
0.0
 11
0.0757922
 21
333.465
 31
0.0
  0
LINE
  5
1b9
100
AcDbEntity
  8
0
100
AcDbLine
 62
     253
 10
10.0762
 20
575.966
 30
0.0
 11
0.0757922
 21
575.966
 31
0.0
  0
LINE
  5
1ba
100
AcDbEntity
  8
0
100
AcDbLine
 62
     253
 10
10.0762
 20
580.965
 30
0.0
 11
0.0757922
 21
580.965
 31
0.0
  0
LINE
  5
1bb
100
AcDbEntity
  8
0
100
AcDbLine
 62
     253
 10
10.0762
 20
553.466
 30
0.0
 11
0.0757922
 21
553.466
 31
0.0
  0
LINE
  5
1bc
100
AcDbEntity
  8
0
100
AcDbLine
 62
     253
 10
10.0762
 20
558.465
 30
0.0
 11
0.0757922
 21
558.465
 31
0.0
  0
LINE
  5
1bd
100
AcDbEntity
  8
0
100
AcDbLine
 62
     253
 10
10.0762
 20
463.465
 30
0.0
 11
0.0757922
 21
463.465
 31
0.0
  0
LINE
  5
1be
100
AcDbEntity
  8
0
100
AcDbLine
 62
     253
 10
10.0762
 20
468.464
 30
0.0
 11
0.0757922
 21
468.464
 31
0.0
  0
LINE
  5
1bf
100
AcDbEntity
  8
0
100
AcDbLine
 62
     253
 10
10.0762
 20
440.965
 30
0.0
 11
0.0757922
 21
440.965
 31
0.0
  0
LINE
  5
1c0
100
AcDbEntity
  8
0
100
AcDbLine
 62
     253
 10
10.0762
 20
445.964
 30
0.0
 11
0.0757922
 21
445.964
 31
0.0
  0
LINE
  5
1c1
100
AcDbEntity
  8
0
100
AcDbLine
 62
     253
 10
10.0762
 20
103.464
 30
0.0
 11
0.0757922
 21
103.464
 31
0.0
  0
LINE
  5
1c2
100
AcDbEntity
  8
0
100
AcDbLine
 62
     253
 10
10.0762
 20
108.464
 30
0.0
 11
0.0757922
 21
108.464
 31
0.0
  0
LINE
  5
1c3
100
AcDbEntity
  8
0
100
AcDbLine
 62
     253
 10
10.0762
 20
125.965
 30
0.0
 11
0.0757922
 21
125.965
 31
0.0
  0
LINE
  5
1c4
100
AcDbEntity
  8
0
100
AcDbLine
 62
     253
 10
10.0762
 20
130.965
 30
0.0
 11
0.0757922
 21
130.965
 31
0.0
  0
LINE
  5
1c5
100
AcDbEntity
  8
0
100
AcDbLine
 62
     253
 10
10.0762
 20
215.965
 30
0.0
 11
0.0757922
 21
215.965
 31
0.0
  0
LINE
  5
1c6
100
AcDbEntity
  8
0
100
AcDbLine
 62
     253
 10
10.0762
 20
220.964
 30
0.0
 11
0.0757922
 21
220.964
 31
0.0
  0
LINE
  5
1c7
100
AcDbEntity
  8
0
100
AcDbLine
 62
     253
 10
86.7336
 20
85.7141
 30
0.0
 11
86.7336
 21
633.716
 31
0.0
  0
LINE
  5
1c8
100
AcDbEntity
  8
0
100
AcDbLine
 62
     253
 10
86.7336
 20
85.7141
 30
0.0
 11
63.7328
 21
85.7141
 31
0.0
  0
LINE
  5
1c9
100
AcDbEntity
  8
0
100
AcDbLine
 62
     253
 10
86.7336
 20
633.716
 30
0.0
 11
63.7328
 21
633.716
 31
0.0
  0
LINE
  5
1ca
100
AcDbEntity
  8
0
100
AcDbLine
 62
     253
 10
63.7328
 20
85.7141
 30
0.0
 11
63.7328
 21
633.716
 31
0.0
  0
SPLINE
  5
1cb
100
AcDbEntity
  8
0
100
AcDbSpline
210
0.0
220
0.0
230
1.0
 62
     253
 70
     0
 71
     3
 72
     8
 73
4
 40
0.0
 40
0.0
 40
0.0
 40
0.0
 40
1.0
 40
1.0
 40
1.0
 40
1.0
 10
77.7339
 20
240.965
 30
0.0
 10
77.7339
 20
239.583
 30
0.0
 10
76.6135
 20
238.464
 30
0.0
 10
75.2327
 20
238.464
 30
0.0
  0
SPLINE
  5
1cc
100
AcDbEntity
  8
0
100
AcDbSpline
210
0.0
220
0.0
230
1.0
 62
     253
 70
     0
 71
     3
 72
     8
 73
4
 40
0.0
 40
0.0
 40
0.0
 40
0.0
 40
1.0
 40
1.0
 40
1.0
 40
1.0
 10
75.2327
 20
238.464
 30
0.0
 10
73.8519
 20
238.464
 30
0.0
 10
72.7329
 20
239.583
 30
0.0
 10
72.7329
 20
240.965
 30
0.0
  0
SPLINE
  5
1cd
100
AcDbEntity
  8
0
100
AcDbSpline
210
0.0
220
0.0
230
1.0
 62
     253
 70
     0
 71
     3
 72
     8
 73
4
 40
0.0
 40
0.0
 40
0.0
 40
0.0
 40
1.0
 40
1.0
 40
1.0
 40
1.0
 10
72.7329
 20
240.965
 30
0.0
 10
72.7329
 20
242.346
 30
0.0
 10
73.8519
 20
243.465
 30
0.0
 10
75.2327
 20
243.465
 30
0.0
  0
SPLINE
  5
1ce
100
AcDbEntity
  8
0
100
AcDbSpline
210
0.0
220
0.0
230
1.0
 62
     253
 70
     0
 71
     3
 72
     8
 73
4
 40
0.0
 40
0.0
 40
0.0
 40
0.0
 40
1.0
 40
1.0
 40
1.0
 40
1.0
 10
75.2327
 20
243.465
 30
0.0
 10
76.6135
 20
243.465
 30
0.0
 10
77.7339
 20
242.346
 30
0.0
 10
77.7339
 20
240.965
 30
0.0
  0
SPLINE
  5
1cf
100
AcDbEntity
  8
0
100
AcDbSpline
210
0.0
220
0.0
230
1.0
 62
     253
 70
     0
 71
     3
 72
     8
 73
4
 40
0.0
 40
0.0
 40
0.0
 40
0.0
 40
1.0
 40
1.0
 40
1.0
 40
1.0
 10
77.7339
 20
353.466
 30
0.0
 10
77.7339
 20
352.083
 30
0.0
 10
76.6135
 20
350.964
 30
0.0
 10
75.2327
 20
350.964
 30
0.0
  0
SPLINE
  5
1d0
100
AcDbEntity
  8
0
100
AcDbSpline
210
0.0
220
0.0
230
1.0
 62
     253
 70
     0
 71
     3
 72
     8
 73
4
 40
0.0
 40
0.0
 40
0.0
 40
0.0
 40
1.0
 40
1.0
 40
1.0
 40
1.0
 10
75.2327
 20
350.964
 30
0.0
 10
73.8519
 20
350.964
 30
0.0
 10
72.7329
 20
352.083
 30
0.0
 10
72.7329
 20
353.466
 30
0.0
  0
SPLINE
  5
1d1
100
AcDbEntity
  8
0
100
AcDbSpline
210
0.0
220
0.0
230
1.0
 62
     253
 70
     0
 71
     3
 72
     8
 73
4
 40
0.0
 40
0.0
 40
0.0
 40
0.0
 40
1.0
 40
1.0
 40
1.0
 40
1.0
 10
72.7329
 20
353.466
 30
0.0
 10
72.7329
 20
354.845
 30
0.0
 10
73.8519
 20
355.963
 30
0.0
 10
75.2327
 20
355.963
 30
0.0
  0
SPLINE
  5
1d2
100
AcDbEntity
  8
0
100
AcDbSpline
210
0.0
220
0.0
230
1.0
 62
     253
 70
     0
 71
     3
 72
     8
 73
4
 40
0.0
 40
0.0
 40
0.0
 40
0.0
 40
1.0
 40
1.0
 40
1.0
 40
1.0
 10
75.2327
 20
355.963
 30
0.0
 10
76.6135
 20
355.963
 30
0.0
 10
77.7339
 20
354.845
 30
0.0
 10
77.7339
 20
353.466
 30
0.0
  0
SPLINE
  5
1d3
100
AcDbEntity
  8
0
100
AcDbSpline
210
0.0
220
0.0
230
1.0
 62
     253
 70
     0
 71
     3
 72
     8
 73
4
 40
0.0
 40
0.0
 40
0.0
 40
0.0
 40
1.0
 40
1.0
 40
1.0
 40
1.0
 10
77.7339
 20
330.965
 30
0.0
 10
77.7339
 20
329.584
 30
0.0
 10
76.6135
 20
328.465
 30
0.0
 10
75.2327
 20
328.465
 30
0.0
  0
SPLINE
  5
1d4
100
AcDbEntity
  8
0
100
AcDbSpline
210
0.0
220
0.0
230
1.0
 62
     253
 70
     0
 71
     3
 72
     8
 73
4
 40
0.0
 40
0.0
 40
0.0
 40
0.0
 40
1.0
 40
1.0
 40
1.0
 40
1.0
 10
75.2327
 20
328.465
 30
0.0
 10
73.8519
 20
328.465
 30
0.0
 10
72.7329
 20
329.584
 30
0.0
 10
72.7329
 20
330.965
 30
0.0
  0
SPLINE
  5
1d5
100
AcDbEntity
  8
0
100
AcDbSpline
210
0.0
220
0.0
230
1.0
 62
     253
 70
     0
 71
     3
 72
     8
 73
4
 40
0.0
 40
0.0
 40
0.0
 40
0.0
 40
1.0
 40
1.0
 40
1.0
 40
1.0
 10
72.7329
 20
330.965
 30
0.0
 10
72.7329
 20
332.346
 30
0.0
 10
73.8519
 20
333.465
 30
0.0
 10
75.2327
 20
333.465
 30
0.0
  0
SPLINE
  5
1d6
100
AcDbEntity
  8
0
100
AcDbSpline
210
0.0
220
0.0
230
1.0
 62
     253
 70
     0
 71
     3
 72
     8
 73
4
 40
0.0
 40
0.0
 40
0.0
 40
0.0
 40
1.0
 40
1.0
 40
1.0
 40
1.0
 10
75.2327
 20
333.465
 30
0.0
 10
76.6135
 20
333.465
 30
0.0
 10
77.7339
 20
332.346
 30
0.0
 10
77.7339
 20
330.965
 30
0.0
  0
SPLINE
  5
1d7
100
AcDbEntity
  8
0
100
AcDbSpline
210
0.0
220
0.0
230
1.0
 62
     253
 70
     0
 71
     3
 72
     8
 73
4
 40
0.0
 40
0.0
 40
0.0
 40
0.0
 40
1.0
 40
1.0
 40
1.0
 40
1.0
 10
77.7339
 20
578.464
 30
0.0
 10
77.7339
 20
577.084
 30
0.0
 10
76.6135
 20
575.966
 30
0.0
 10
75.2327
 20
575.966
 30
0.0
  0
SPLINE
  5
1d8
100
AcDbEntity
  8
0
100
AcDbSpline
210
0.0
220
0.0
230
1.0
 62
     253
 70
     0
 71
     3
 72
     8
 73
4
 40
0.0
 40
0.0
 40
0.0
 40
0.0
 40
1.0
 40
1.0
 40
1.0
 40
1.0
 10
75.2327
 20
575.966
 30
0.0
 10
73.8519
 20
575.966
 30
0.0
 10
72.7329
 20
577.084
 30
0.0
 10
72.7329
 20
578.464
 30
0.0
  0
SPLINE
  5
1d9
100
AcDbEntity
  8
0
100
AcDbSpline
210
0.0
220
0.0
230
1.0
 62
     253
 70
     0
 71
     3
 72
     8
 73
4
 40
0.0
 40
0.0
 40
0.0
 40
0.0
 40
1.0
 40
1.0
 40
1.0
 40
1.0
 10
72.7329
 20
578.464
 30
0.0
 10
72.7329
 20
579.847
 30
0.0
 10
73.8519
 20
580.965
 30
0.0
 10
75.2327
 20
580.965
 30
0.0
  0
SPLINE
  5
1da
100
AcDbEntity
  8
0
100
AcDbSpline
210
0.0
220
0.0
230
1.0
 62
     253
 70
     0
 71
     3
 72
     8
 73
4
 40
0.0
 40
0.0
 40
0.0
 40
0.0
 40
1.0
 40
1.0
 40
1.0
 40
1.0
 10
75.2327
 20
580.965
 30
0.0
 10
76.6135
 20
580.965
 30
0.0
 10
77.7339
 20
579.847
 30
0.0
 10
77.7339
 20
578.464
 30
0.0
  0
SPLINE
  5
1db
100
AcDbEntity
  8
0
100
AcDbSpline
210
0.0
220
0.0
230
1.0
 62
     253
 70
     0
 71
     3
 72
     8
 73
4
 40
0.0
 40
0.0
 40
0.0
 40
0.0
 40
1.0
 40
1.0
 40
1.0
 40
1.0
 10
77.7339
 20
555.964
 30
0.0
 10
77.7339
 20
554.584
 30
0.0
 10
76.6135
 20
553.466
 30
0.0
 10
75.2327
 20
553.466
 30
0.0
  0
SPLINE
  5
1dc
100
AcDbEntity
  8
0
100
AcDbSpline
210
0.0
220
0.0
230
1.0
 62
     253
 70
     0
 71
     3
 72
     8
 73
4
 40
0.0
 40
0.0
 40
0.0
 40
0.0
 40
1.0
 40
1.0
 40
1.0
 40
1.0
 10
75.2327
 20
553.466
 30
0.0
 10
73.8519
 20
553.466
 30
0.0
 10
72.7329
 20
554.584
 30
0.0
 10
72.7329
 20
555.964
 30
0.0
  0
SPLINE
  5
1dd
100
AcDbEntity
  8
0
100
AcDbSpline
210
0.0
220
0.0
230
1.0
 62
     253
 70
     0
 71
     3
 72
     8
 73
4
 40
0.0
 40
0.0
 40
0.0
 40
0.0
 40
1.0
 40
1.0
 40
1.0
 40
1.0
 10
72.7329
 20
555.964
 30
0.0
 10
72.7329
 20
557.347
 30
0.0
 10
73.8519
 20
558.465
 30
0.0
 10
75.2327
 20
558.465
 30
0.0
  0
SPLINE
  5
1de
100
AcDbEntity
  8
0
100
AcDbSpline
210
0.0
220
0.0
230
1.0
 62
     253
 70
     0
 71
     3
 72
     8
 73
4
 40
0.0
 40
0.0
 40
0.0
 40
0.0
 40
1.0
 40
1.0
 40
1.0
 40
1.0
 10
75.2327
 20
558.465
 30
0.0
 10
76.6135
 20
558.465
 30
0.0
 10
77.7339
 20
557.347
 30
0.0
 10
77.7339
 20
555.964
 30
0.0
  0
SPLINE
  5
1df
100
AcDbEntity
  8
0
100
AcDbSpline
210
0.0
220
0.0
230
1.0
 62
     253
 70
     0
 71
     3
 72
     8
 73
4
 40
0.0
 40
0.0
 40
0.0
 40
0.0
 40
1.0
 40
1.0
 40
1.0
 40
1.0
 10
77.7339
 20
465.963
 30
0.0
 10
77.7339
 20
464.584
 30
0.0
 10
76.6135
 20
463.465
 30
0.0
 10
75.2327
 20
463.465
 30
0.0
  0
SPLINE
  5
1e0
100
AcDbEntity
  8
0
100
AcDbSpline
210
0.0
220
0.0
230
1.0
 62
     253
 70
     0
 71
     3
 72
     8
 73
4
 40
0.0
 40
0.0
 40
0.0
 40
0.0
 40
1.0
 40
1.0
 40
1.0
 40
1.0
 10
75.2327
 20
463.465
 30
0.0
 10
73.8519
 20
463.465
 30
0.0
 10
72.7329
 20
464.584
 30
0.0
 10
72.7329
 20
465.963
 30
0.0
  0
SPLINE
  5
1e1
100
AcDbEntity
  8
0
100
AcDbSpline
210
0.0
220
0.0
230
1.0
 62
     253
 70
     0
 71
     3
 72
     8
 73
4
 40
0.0
 40
0.0
 40
0.0
 40
0.0
 40
1.0
 40
1.0
 40
1.0
 40
1.0
 10
72.7329
 20
465.963
 30
0.0
 10
72.7329
 20
467.346
 30
0.0
 10
73.8519
 20
468.464
 30
0.0
 10
75.2327
 20
468.464
 30
0.0
  0
SPLINE
  5
1e2
100
AcDbEntity
  8
0
100
AcDbSpline
210
0.0
220
0.0
230
1.0
 62
     253
 70
     0
 71
     3
 72
     8
 73
4
 40
0.0
 40
0.0
 40
0.0
 40
0.0
 40
1.0
 40
1.0
 40
1.0
 40
1.0
 10
75.2327
 20
468.464
 30
0.0
 10
76.6135
 20
468.464
 30
0.0
 10
77.7339
 20
467.346
 30
0.0
 10
77.7339
 20
465.963
 30
0.0
  0
SPLINE
  5
1e3
100
AcDbEntity
  8
0
100
AcDbSpline
210
0.0
220
0.0
230
1.0
 62
     253
 70
     0
 71
     3
 72
     8
 73
4
 40
0.0
 40
0.0
 40
0.0
 40
0.0
 40
1.0
 40
1.0
 40
1.0
 40
1.0
 10
77.7339
 20
443.466
 30
0.0
 10
77.7339
 20
442.083
 30
0.0
 10
76.6135
 20
440.965
 30
0.0
 10
75.2327
 20
440.965
 30
0.0
  0
SPLINE
  5
1e4
100
AcDbEntity
  8
0
100
AcDbSpline
210
0.0
220
0.0
230
1.0
 62
     253
 70
     0
 71
     3
 72
     8
 73
4
 40
0.0
 40
0.0
 40
0.0
 40
0.0
 40
1.0
 40
1.0
 40
1.0
 40
1.0
 10
75.2327
 20
440.965
 30
0.0
 10
73.8519
 20
440.965
 30
0.0
 10
72.7329
 20
442.083
 30
0.0
 10
72.7329
 20
443.466
 30
0.0
  0
SPLINE
  5
1e5
100
AcDbEntity
  8
0
100
AcDbSpline
210
0.0
220
0.0
230
1.0
 62
     253
 70
     0
 71
     3
 72
     8
 73
4
 40
0.0
 40
0.0
 40
0.0
 40
0.0
 40
1.0
 40
1.0
 40
1.0
 40
1.0
 10
72.7329
 20
443.466
 30
0.0
 10
72.7329
 20
444.846
 30
0.0
 10
73.8519
 20
445.964
 30
0.0
 10
75.2327
 20
445.964
 30
0.0
  0
SPLINE
  5
1e6
100
AcDbEntity
  8
0
100
AcDbSpline
210
0.0
220
0.0
230
1.0
 62
     253
 70
     0
 71
     3
 72
     8
 73
4
 40
0.0
 40
0.0
 40
0.0
 40
0.0
 40
1.0
 40
1.0
 40
1.0
 40
1.0
 10
75.2327
 20
445.964
 30
0.0
 10
76.6135
 20
445.964
 30
0.0
 10
77.7339
 20
444.846
 30
0.0
 10
77.7339
 20
443.466
 30
0.0
  0
SPLINE
  5
1e7
100
AcDbEntity
  8
0
100
AcDbSpline
210
0.0
220
0.0
230
1.0
 62
     253
 70
     0
 71
     3
 72
     8
 73
4
 40
0.0
 40
0.0
 40
0.0
 40
0.0
 40
1.0
 40
1.0
 40
1.0
 40
1.0
 10
77.7339
 20
105.964
 30
0.0
 10
77.7339
 20
104.583
 30
0.0
 10
76.6135
 20
103.464
 30
0.0
 10
75.2327
 20
103.464
 30
0.0
  0
SPLINE
  5
1e8
100
AcDbEntity
  8
0
100
AcDbSpline
210
0.0
220
0.0
230
1.0
 62
     253
 70
     0
 71
     3
 72
     8
 73
4
 40
0.0
 40
0.0
 40
0.0
 40
0.0
 40
1.0
 40
1.0
 40
1.0
 40
1.0
 10
75.2327
 20
103.464
 30
0.0
 10
73.8519
 20
103.464
 30
0.0
 10
72.7329
 20
104.583
 30
0.0
 10
72.7329
 20
105.964
 30
0.0
  0
SPLINE
  5
1e9
100
AcDbEntity
  8
0
100
AcDbSpline
210
0.0
220
0.0
230
1.0
 62
     253
 70
     0
 71
     3
 72
     8
 73
4
 40
0.0
 40
0.0
 40
0.0
 40
0.0
 40
1.0
 40
1.0
 40
1.0
 40
1.0
 10
72.7329
 20
105.964
 30
0.0
 10
72.7329
 20
107.345
 30
0.0
 10
73.8519
 20
108.464
 30
0.0
 10
75.2327
 20
108.464
 30
0.0
  0
SPLINE
  5
1ea
100
AcDbEntity
  8
0
100
AcDbSpline
210
0.0
220
0.0
230
1.0
 62
     253
 70
     0
 71
     3
 72
     8
 73
4
 40
0.0
 40
0.0
 40
0.0
 40
0.0
 40
1.0
 40
1.0
 40
1.0
 40
1.0
 10
75.2327
 20
108.464
 30
0.0
 10
76.6135
 20
108.464
 30
0.0
 10
77.7339
 20
107.345
 30
0.0
 10
77.7339
 20
105.964
 30
0.0
  0
SPLINE
  5
1eb
100
AcDbEntity
  8
0
100
AcDbSpline
210
0.0
220
0.0
230
1.0
 62
     253
 70
     0
 71
     3
 72
     8
 73
4
 40
0.0
 40
0.0
 40
0.0
 40
0.0
 40
1.0
 40
1.0
 40
1.0
 40
1.0
 10
77.7339
 20
128.465
 30
0.0
 10
77.7339
 20
127.084
 30
0.0
 10
76.6135
 20
125.965
 30
0.0
 10
75.2327
 20
125.965
 30
0.0
  0
SPLINE
  5
1ec
100
AcDbEntity
  8
0
100
AcDbSpline
210
0.0
220
0.0
230
1.0
 62
     253
 70
     0
 71
     3
 72
     8
 73
4
 40
0.0
 40
0.0
 40
0.0
 40
0.0
 40
1.0
 40
1.0
 40
1.0
 40
1.0
 10
75.2327
 20
125.965
 30
0.0
 10
73.8519
 20
125.965
 30
0.0
 10
72.7329
 20
127.084
 30
0.0
 10
72.7329
 20
128.465
 30
0.0
  0
SPLINE
  5
1ed
100
AcDbEntity
  8
0
100
AcDbSpline
210
0.0
220
0.0
230
1.0
 62
     253
 70
     0
 71
     3
 72
     8
 73
4
 40
0.0
 40
0.0
 40
0.0
 40
0.0
 40
1.0
 40
1.0
 40
1.0
 40
1.0
 10
72.7329
 20
128.465
 30
0.0
 10
72.7329
 20
129.846
 30
0.0
 10
73.8519
 20
130.965
 30
0.0
 10
75.2327
 20
130.965
 30
0.0
  0
SPLINE
  5
1ee
100
AcDbEntity
  8
0
100
AcDbSpline
210
0.0
220
0.0
230
1.0
 62
     253
 70
     0
 71
     3
 72
     8
 73
4
 40
0.0
 40
0.0
 40
0.0
 40
0.0
 40
1.0
 40
1.0
 40
1.0
 40
1.0
 10
75.2327
 20
130.965
 30
0.0
 10
76.6135
 20
130.965
 30
0.0
 10
77.7339
 20
129.846
 30
0.0
 10
77.7339
 20
128.465
 30
0.0
  0
SPLINE
  5
1ef
100
AcDbEntity
  8
0
100
AcDbSpline
210
0.0
220
0.0
230
1.0
 62
     253
 70
     0
 71
     3
 72
     8
 73
4
 40
0.0
 40
0.0
 40
0.0
 40
0.0
 40
1.0
 40
1.0
 40
1.0
 40
1.0
 10
77.7339
 20
218.465
 30
0.0
 10
77.7339
 20
217.084
 30
0.0
 10
76.6135
 20
215.965
 30
0.0
 10
75.2327
 20
215.965
 30
0.0
  0
SPLINE
  5
1f0
100
AcDbEntity
  8
0
100
AcDbSpline
210
0.0
220
0.0
230
1.0
 62
     253
 70
     0
 71
     3
 72
     8
 73
4
 40
0.0
 40
0.0
 40
0.0
 40
0.0
 40
1.0
 40
1.0
 40
1.0
 40
1.0
 10
75.2327
 20
215.965
 30
0.0
 10
73.8519
 20
215.965
 30
0.0
 10
72.7329
 20
217.084
 30
0.0
 10
72.7329
 20
218.465
 30
0.0
  0
SPLINE
  5
1f1
100
AcDbEntity
  8
0
100
AcDbSpline
210
0.0
220
0.0
230
1.0
 62
     253
 70
     0
 71
     3
 72
     8
 73
4
 40
0.0
 40
0.0
 40
0.0
 40
0.0
 40
1.0
 40
1.0
 40
1.0
 40
1.0
 10
72.7329
 20
218.465
 30
0.0
 10
72.7329
 20
219.845
 30
0.0
 10
73.8519
 20
220.964
 30
0.0
 10
75.2327
 20
220.964
 30
0.0
  0
SPLINE
  5
1f2
100
AcDbEntity
  8
0
100
AcDbSpline
210
0.0
220
0.0
230
1.0
 62
     253
 70
     0
 71
     3
 72
     8
 73
4
 40
0.0
 40
0.0
 40
0.0
 40
0.0
 40
1.0
 40
1.0
 40
1.0
 40
1.0
 10
75.2327
 20
220.964
 30
0.0
 10
76.6135
 20
220.964
 30
0.0
 10
77.7339
 20
219.845
 30
0.0
 10
77.7339
 20
218.465
 30
0.0
  0
LINE
  5
1f3
100
AcDbEntity
  8
0
100
AcDbLine
 62
     253
 10
86.7336
 20
85.7141
 30
0.0
 11
87.7327
 21
85.7141
 31
0.0
  0
LINE
  5
1f4
100
AcDbEntity
  8
0
100
AcDbLine
 62
     253
 10
86.7336
 20
633.716
 30
0.0
 11
87.7327
 21
633.716
 31
0.0
  0
LINE
  5
1f5
100
AcDbEntity
  8
0
100
AcDbLine
 62
     253
 10
87.7327
 20
85.7141
 30
0.0
 11
87.7327
 21
633.716
 31
0.0
  0
LINE
  5
1f6
100
AcDbEntity
  8
0
100
AcDbLine
 62
     253
 10
86.7336
 20
84.715
 30
0.0
 11
86.7336
 21
85.7141
 31
0.0
  0
LINE
  5
1f7
100
AcDbEntity
  8
0
100
AcDbLine
 62
     253
 10
86.7336
 20
84.715
 30
0.0
 11
63.7328
 21
84.715
 31
0.0
  0
LINE
  5
1f8
100
AcDbEntity
  8
0
100
AcDbLine
 62
     253
 10
63.7328
 20
84.715
 30
0.0
 11
63.7328
 21
85.7141
 31
0.0
  0
LINE
  5
1f9
100
AcDbEntity
  8
0
100
AcDbLine
 62
     253
 10
86.7336
 20
634.714
 30
0.0
 11
86.7336
 21
633.716
 31
0.0
  0
LINE
  5
1fa
100
AcDbEntity
  8
0
100
AcDbLine
 62
     253
 10
86.7336
 20
634.714
 30
0.0
 11
63.7328
 21
634.714
 31
0.0
  0
LINE
  5
1fb
100
AcDbEntity
  8
0
100
AcDbLine
 62
     253
 10
63.7328
 20
633.716
 30
0.0
 11
63.7328
 21
634.714
 31
0.0
  0
LINE
  5
1fc
100
AcDbEntity
  8
0
100
AcDbLine
 62
     253
 10
63.7328
 20
85.7141
 30
0.0
 11
62.7324
 21
85.7141
 31
0.0
  0
LINE
  5
1fd
100
AcDbEntity
  8
0
100
AcDbLine
 62
     253
 10
62.7324
 20
633.716
 30
0.0
 11
63.7328
 21
633.716
 31
0.0
  0
LINE
  5
1fe
100
AcDbEntity
  8
0
100
AcDbLine
 62
     253
 10
62.7324
 20
85.7141
 30
0.0
 11
62.7324
 21
633.716
 31
0.0
  0
SPLINE
  5
1ff
100
AcDbEntity
  8
0
100
AcDbSpline
210
0.0
220
0.0
230
1.0
 62
     253
 70
     0
 71
     3
 72
     8
 73
4
 40
0.0
 40
0.0
 40
0.0
 40
0.0
 40
1.0
 40
1.0
 40
1.0
 40
1.0
 10
77.7339
 20
240.965
 30
0.0
 10
77.7339
 20
239.583
 30
0.0
 10
76.6135
 20
238.464
 30
0.0
 10
75.2327
 20
238.464
 30
0.0
  0
SPLINE
  5
200
100
AcDbEntity
  8
0
100
AcDbSpline
210
0.0
220
0.0
230
1.0
 62
     253
 70
     0
 71
     3
 72
     8
 73
4
 40
0.0
 40
0.0
 40
0.0
 40
0.0
 40
1.0
 40
1.0
 40
1.0
 40
1.0
 10
75.2327
 20
238.464
 30
0.0
 10
73.8519
 20
238.464
 30
0.0
 10
72.7329
 20
239.583
 30
0.0
 10
72.7329
 20
240.965
 30
0.0
  0
SPLINE
  5
201
100
AcDbEntity
  8
0
100
AcDbSpline
210
0.0
220
0.0
230
1.0
 62
     253
 70
     0
 71
     3
 72
     8
 73
4
 40
0.0
 40
0.0
 40
0.0
 40
0.0
 40
1.0
 40
1.0
 40
1.0
 40
1.0
 10
72.7329
 20
240.965
 30
0.0
 10
72.7329
 20
242.346
 30
0.0
 10
73.8519
 20
243.465
 30
0.0
 10
75.2327
 20
243.465
 30
0.0
  0
SPLINE
  5
202
100
AcDbEntity
  8
0
100
AcDbSpline
210
0.0
220
0.0
230
1.0
 62
     253
 70
     0
 71
     3
 72
     8
 73
4
 40
0.0
 40
0.0
 40
0.0
 40
0.0
 40
1.0
 40
1.0
 40
1.0
 40
1.0
 10
75.2327
 20
243.465
 30
0.0
 10
76.6135
 20
243.465
 30
0.0
 10
77.7339
 20
242.346
 30
0.0
 10
77.7339
 20
240.965
 30
0.0
  0
SPLINE
  5
203
100
AcDbEntity
  8
0
100
AcDbSpline
210
0.0
220
0.0
230
1.0
 62
     253
 70
     0
 71
     3
 72
     8
 73
4
 40
0.0
 40
0.0
 40
0.0
 40
0.0
 40
1.0
 40
1.0
 40
1.0
 40
1.0
 10
77.7339
 20
353.466
 30
0.0
 10
77.7339
 20
352.083
 30
0.0
 10
76.6135
 20
350.964
 30
0.0
 10
75.2327
 20
350.964
 30
0.0
  0
SPLINE
  5
204
100
AcDbEntity
  8
0
100
AcDbSpline
210
0.0
220
0.0
230
1.0
 62
     253
 70
     0
 71
     3
 72
     8
 73
4
 40
0.0
 40
0.0
 40
0.0
 40
0.0
 40
1.0
 40
1.0
 40
1.0
 40
1.0
 10
75.2327
 20
350.964
 30
0.0
 10
73.8519
 20
350.964
 30
0.0
 10
72.7329
 20
352.083
 30
0.0
 10
72.7329
 20
353.466
 30
0.0
  0
SPLINE
  5
205
100
AcDbEntity
  8
0
100
AcDbSpline
210
0.0
220
0.0
230
1.0
 62
     253
 70
     0
 71
     3
 72
     8
 73
4
 40
0.0
 40
0.0
 40
0.0
 40
0.0
 40
1.0
 40
1.0
 40
1.0
 40
1.0
 10
72.7329
 20
353.466
 30
0.0
 10
72.7329
 20
354.845
 30
0.0
 10
73.8519
 20
355.963
 30
0.0
 10
75.2327
 20
355.963
 30
0.0
  0
SPLINE
  5
206
100
AcDbEntity
  8
0
100
AcDbSpline
210
0.0
220
0.0
230
1.0
 62
     253
 70
     0
 71
     3
 72
     8
 73
4
 40
0.0
 40
0.0
 40
0.0
 40
0.0
 40
1.0
 40
1.0
 40
1.0
 40
1.0
 10
75.2327
 20
355.963
 30
0.0
 10
76.6135
 20
355.963
 30
0.0
 10
77.7339
 20
354.845
 30
0.0
 10
77.7339
 20
353.466
 30
0.0
  0
SPLINE
  5
207
100
AcDbEntity
  8
0
100
AcDbSpline
210
0.0
220
0.0
230
1.0
 62
     253
 70
     0
 71
     3
 72
     8
 73
4
 40
0.0
 40
0.0
 40
0.0
 40
0.0
 40
1.0
 40
1.0
 40
1.0
 40
1.0
 10
77.7339
 20
330.965
 30
0.0
 10
77.7339
 20
329.584
 30
0.0
 10
76.6135
 20
328.465
 30
0.0
 10
75.2327
 20
328.465
 30
0.0
  0
SPLINE
  5
208
100
AcDbEntity
  8
0
100
AcDbSpline
210
0.0
220
0.0
230
1.0
 62
     253
 70
     0
 71
     3
 72
     8
 73
4
 40
0.0
 40
0.0
 40
0.0
 40
0.0
 40
1.0
 40
1.0
 40
1.0
 40
1.0
 10
75.2327
 20
328.465
 30
0.0
 10
73.8519
 20
328.465
 30
0.0
 10
72.7329
 20
329.584
 30
0.0
 10
72.7329
 20
330.965
 30
0.0
  0
SPLINE
  5
209
100
AcDbEntity
  8
0
100
AcDbSpline
210
0.0
220
0.0
230
1.0
 62
     253
 70
     0
 71
     3
 72
     8
 73
4
 40
0.0
 40
0.0
 40
0.0
 40
0.0
 40
1.0
 40
1.0
 40
1.0
 40
1.0
 10
72.7329
 20
330.965
 30
0.0
 10
72.7329
 20
332.346
 30
0.0
 10
73.8519
 20
333.465
 30
0.0
 10
75.2327
 20
333.465
 30
0.0
  0
SPLINE
  5
20a
100
AcDbEntity
  8
0
100
AcDbSpline
210
0.0
220
0.0
230
1.0
 62
     253
 70
     0
 71
     3
 72
     8
 73
4
 40
0.0
 40
0.0
 40
0.0
 40
0.0
 40
1.0
 40
1.0
 40
1.0
 40
1.0
 10
75.2327
 20
333.465
 30
0.0
 10
76.6135
 20
333.465
 30
0.0
 10
77.7339
 20
332.346
 30
0.0
 10
77.7339
 20
330.965
 30
0.0
  0
SPLINE
  5
20b
100
AcDbEntity
  8
0
100
AcDbSpline
210
0.0
220
0.0
230
1.0
 62
     253
 70
     0
 71
     3
 72
     8
 73
4
 40
0.0
 40
0.0
 40
0.0
 40
0.0
 40
1.0
 40
1.0
 40
1.0
 40
1.0
 10
77.7339
 20
578.464
 30
0.0
 10
77.7339
 20
577.084
 30
0.0
 10
76.6135
 20
575.966
 30
0.0
 10
75.2327
 20
575.966
 30
0.0
  0
SPLINE
  5
20c
100
AcDbEntity
  8
0
100
AcDbSpline
210
0.0
220
0.0
230
1.0
 62
     253
 70
     0
 71
     3
 72
     8
 73
4
 40
0.0
 40
0.0
 40
0.0
 40
0.0
 40
1.0
 40
1.0
 40
1.0
 40
1.0
 10
75.2327
 20
575.966
 30
0.0
 10
73.8519
 20
575.966
 30
0.0
 10
72.7329
 20
577.084
 30
0.0
 10
72.7329
 20
578.464
 30
0.0
  0
SPLINE
  5
20d
100
AcDbEntity
  8
0
100
AcDbSpline
210
0.0
220
0.0
230
1.0
 62
     253
 70
     0
 71
     3
 72
     8
 73
4
 40
0.0
 40
0.0
 40
0.0
 40
0.0
 40
1.0
 40
1.0
 40
1.0
 40
1.0
 10
72.7329
 20
578.464
 30
0.0
 10
72.7329
 20
579.847
 30
0.0
 10
73.8519
 20
580.965
 30
0.0
 10
75.2327
 20
580.965
 30
0.0
  0
SPLINE
  5
20e
100
AcDbEntity
  8
0
100
AcDbSpline
210
0.0
220
0.0
230
1.0
 62
     253
 70
     0
 71
     3
 72
     8
 73
4
 40
0.0
 40
0.0
 40
0.0
 40
0.0
 40
1.0
 40
1.0
 40
1.0
 40
1.0
 10
75.2327
 20
580.965
 30
0.0
 10
76.6135
 20
580.965
 30
0.0
 10
77.7339
 20
579.847
 30
0.0
 10
77.7339
 20
578.464
 30
0.0
  0
SPLINE
  5
20f
100
AcDbEntity
  8
0
100
AcDbSpline
210
0.0
220
0.0
230
1.0
 62
     253
 70
     0
 71
     3
 72
     8
 73
4
 40
0.0
 40
0.0
 40
0.0
 40
0.0
 40
1.0
 40
1.0
 40
1.0
 40
1.0
 10
77.7339
 20
555.964
 30
0.0
 10
77.7339
 20
554.584
 30
0.0
 10
76.6135
 20
553.466
 30
0.0
 10
75.2327
 20
553.466
 30
0.0
  0
SPLINE
  5
210
100
AcDbEntity
  8
0
100
AcDbSpline
210
0.0
220
0.0
230
1.0
 62
     253
 70
     0
 71
     3
 72
     8
 73
4
 40
0.0
 40
0.0
 40
0.0
 40
0.0
 40
1.0
 40
1.0
 40
1.0
 40
1.0
 10
75.2327
 20
553.466
 30
0.0
 10
73.8519
 20
553.466
 30
0.0
 10
72.7329
 20
554.584
 30
0.0
 10
72.7329
 20
555.964
 30
0.0
  0
SPLINE
  5
211
100
AcDbEntity
  8
0
100
AcDbSpline
210
0.0
220
0.0
230
1.0
 62
     253
 70
     0
 71
     3
 72
     8
 73
4
 40
0.0
 40
0.0
 40
0.0
 40
0.0
 40
1.0
 40
1.0
 40
1.0
 40
1.0
 10
72.7329
 20
555.964
 30
0.0
 10
72.7329
 20
557.347
 30
0.0
 10
73.8519
 20
558.465
 30
0.0
 10
75.2327
 20
558.465
 30
0.0
  0
SPLINE
  5
212
100
AcDbEntity
  8
0
100
AcDbSpline
210
0.0
220
0.0
230
1.0
 62
     253
 70
     0
 71
     3
 72
     8
 73
4
 40
0.0
 40
0.0
 40
0.0
 40
0.0
 40
1.0
 40
1.0
 40
1.0
 40
1.0
 10
75.2327
 20
558.465
 30
0.0
 10
76.6135
 20
558.465
 30
0.0
 10
77.7339
 20
557.347
 30
0.0
 10
77.7339
 20
555.964
 30
0.0
  0
SPLINE
  5
213
100
AcDbEntity
  8
0
100
AcDbSpline
210
0.0
220
0.0
230
1.0
 62
     253
 70
     0
 71
     3
 72
     8
 73
4
 40
0.0
 40
0.0
 40
0.0
 40
0.0
 40
1.0
 40
1.0
 40
1.0
 40
1.0
 10
77.7339
 20
465.963
 30
0.0
 10
77.7339
 20
464.584
 30
0.0
 10
76.6135
 20
463.465
 30
0.0
 10
75.2327
 20
463.465
 30
0.0
  0
SPLINE
  5
214
100
AcDbEntity
  8
0
100
AcDbSpline
210
0.0
220
0.0
230
1.0
 62
     253
 70
     0
 71
     3
 72
     8
 73
4
 40
0.0
 40
0.0
 40
0.0
 40
0.0
 40
1.0
 40
1.0
 40
1.0
 40
1.0
 10
75.2327
 20
463.465
 30
0.0
 10
73.8519
 20
463.465
 30
0.0
 10
72.7329
 20
464.584
 30
0.0
 10
72.7329
 20
465.963
 30
0.0
  0
SPLINE
  5
215
100
AcDbEntity
  8
0
100
AcDbSpline
210
0.0
220
0.0
230
1.0
 62
     253
 70
     0
 71
     3
 72
     8
 73
4
 40
0.0
 40
0.0
 40
0.0
 40
0.0
 40
1.0
 40
1.0
 40
1.0
 40
1.0
 10
72.7329
 20
465.963
 30
0.0
 10
72.7329
 20
467.346
 30
0.0
 10
73.8519
 20
468.464
 30
0.0
 10
75.2327
 20
468.464
 30
0.0
  0
SPLINE
  5
216
100
AcDbEntity
  8
0
100
AcDbSpline
210
0.0
220
0.0
230
1.0
 62
     253
 70
     0
 71
     3
 72
     8
 73
4
 40
0.0
 40
0.0
 40
0.0
 40
0.0
 40
1.0
 40
1.0
 40
1.0
 40
1.0
 10
75.2327
 20
468.464
 30
0.0
 10
76.6135
 20
468.464
 30
0.0
 10
77.7339
 20
467.346
 30
0.0
 10
77.7339
 20
465.963
 30
0.0
  0
SPLINE
  5
217
100
AcDbEntity
  8
0
100
AcDbSpline
210
0.0
220
0.0
230
1.0
 62
     253
 70
     0
 71
     3
 72
     8
 73
4
 40
0.0
 40
0.0
 40
0.0
 40
0.0
 40
1.0
 40
1.0
 40
1.0
 40
1.0
 10
77.7339
 20
443.466
 30
0.0
 10
77.7339
 20
442.083
 30
0.0
 10
76.6135
 20
440.965
 30
0.0
 10
75.2327
 20
440.965
 30
0.0
  0
SPLINE
  5
218
100
AcDbEntity
  8
0
100
AcDbSpline
210
0.0
220
0.0
230
1.0
 62
     253
 70
     0
 71
     3
 72
     8
 73
4
 40
0.0
 40
0.0
 40
0.0
 40
0.0
 40
1.0
 40
1.0
 40
1.0
 40
1.0
 10
75.2327
 20
440.965
 30
0.0
 10
73.8519
 20
440.965
 30
0.0
 10
72.7329
 20
442.083
 30
0.0
 10
72.7329
 20
443.466
 30
0.0
  0
SPLINE
  5
219
100
AcDbEntity
  8
0
100
AcDbSpline
210
0.0
220
0.0
230
1.0
 62
     253
 70
     0
 71
     3
 72
     8
 73
4
 40
0.0
 40
0.0
 40
0.0
 40
0.0
 40
1.0
 40
1.0
 40
1.0
 40
1.0
 10
72.7329
 20
443.466
 30
0.0
 10
72.7329
 20
444.846
 30
0.0
 10
73.8519
 20
445.964
 30
0.0
 10
75.2327
 20
445.964
 30
0.0
  0
SPLINE
  5
21a
100
AcDbEntity
  8
0
100
AcDbSpline
210
0.0
220
0.0
230
1.0
 62
     253
 70
     0
 71
     3
 72
     8
 73
4
 40
0.0
 40
0.0
 40
0.0
 40
0.0
 40
1.0
 40
1.0
 40
1.0
 40
1.0
 10
75.2327
 20
445.964
 30
0.0
 10
76.6135
 20
445.964
 30
0.0
 10
77.7339
 20
444.846
 30
0.0
 10
77.7339
 20
443.466
 30
0.0
  0
SPLINE
  5
21b
100
AcDbEntity
  8
0
100
AcDbSpline
210
0.0
220
0.0
230
1.0
 62
     253
 70
     0
 71
     3
 72
     8
 73
4
 40
0.0
 40
0.0
 40
0.0
 40
0.0
 40
1.0
 40
1.0
 40
1.0
 40
1.0
 10
77.7339
 20
105.964
 30
0.0
 10
77.7339
 20
104.583
 30
0.0
 10
76.6135
 20
103.464
 30
0.0
 10
75.2327
 20
103.464
 30
0.0
  0
SPLINE
  5
21c
100
AcDbEntity
  8
0
100
AcDbSpline
210
0.0
220
0.0
230
1.0
 62
     253
 70
     0
 71
     3
 72
     8
 73
4
 40
0.0
 40
0.0
 40
0.0
 40
0.0
 40
1.0
 40
1.0
 40
1.0
 40
1.0
 10
75.2327
 20
103.464
 30
0.0
 10
73.8519
 20
103.464
 30
0.0
 10
72.7329
 20
104.583
 30
0.0
 10
72.7329
 20
105.964
 30
0.0
  0
SPLINE
  5
21d
100
AcDbEntity
  8
0
100
AcDbSpline
210
0.0
220
0.0
230
1.0
 62
     253
 70
     0
 71
     3
 72
     8
 73
4
 40
0.0
 40
0.0
 40
0.0
 40
0.0
 40
1.0
 40
1.0
 40
1.0
 40
1.0
 10
72.7329
 20
105.964
 30
0.0
 10
72.7329
 20
107.345
 30
0.0
 10
73.8519
 20
108.464
 30
0.0
 10
75.2327
 20
108.464
 30
0.0
  0
SPLINE
  5
21e
100
AcDbEntity
  8
0
100
AcDbSpline
210
0.0
220
0.0
230
1.0
 62
     253
 70
     0
 71
     3
 72
     8
 73
4
 40
0.0
 40
0.0
 40
0.0
 40
0.0
 40
1.0
 40
1.0
 40
1.0
 40
1.0
 10
75.2327
 20
108.464
 30
0.0
 10
76.6135
 20
108.464
 30
0.0
 10
77.7339
 20
107.345
 30
0.0
 10
77.7339
 20
105.964
 30
0.0
  0
SPLINE
  5
21f
100
AcDbEntity
  8
0
100
AcDbSpline
210
0.0
220
0.0
230
1.0
 62
     253
 70
     0
 71
     3
 72
     8
 73
4
 40
0.0
 40
0.0
 40
0.0
 40
0.0
 40
1.0
 40
1.0
 40
1.0
 40
1.0
 10
77.7339
 20
128.465
 30
0.0
 10
77.7339
 20
127.084
 30
0.0
 10
76.6135
 20
125.965
 30
0.0
 10
75.2327
 20
125.965
 30
0.0
  0
SPLINE
  5
220
100
AcDbEntity
  8
0
100
AcDbSpline
210
0.0
220
0.0
230
1.0
 62
     253
 70
     0
 71
     3
 72
     8
 73
4
 40
0.0
 40
0.0
 40
0.0
 40
0.0
 40
1.0
 40
1.0
 40
1.0
 40
1.0
 10
75.2327
 20
125.965
 30
0.0
 10
73.8519
 20
125.965
 30
0.0
 10
72.7329
 20
127.084
 30
0.0
 10
72.7329
 20
128.465
 30
0.0
  0
SPLINE
  5
221
100
AcDbEntity
  8
0
100
AcDbSpline
210
0.0
220
0.0
230
1.0
 62
     253
 70
     0
 71
     3
 72
     8
 73
4
 40
0.0
 40
0.0
 40
0.0
 40
0.0
 40
1.0
 40
1.0
 40
1.0
 40
1.0
 10
72.7329
 20
128.465
 30
0.0
 10
72.7329
 20
129.846
 30
0.0
 10
73.8519
 20
130.965
 30
0.0
 10
75.2327
 20
130.965
 30
0.0
  0
SPLINE
  5
222
100
AcDbEntity
  8
0
100
AcDbSpline
210
0.0
220
0.0
230
1.0
 62
     253
 70
     0
 71
     3
 72
     8
 73
4
 40
0.0
 40
0.0
 40
0.0
 40
0.0
 40
1.0
 40
1.0
 40
1.0
 40
1.0
 10
75.2327
 20
130.965
 30
0.0
 10
76.6135
 20
130.965
 30
0.0
 10
77.7339
 20
129.846
 30
0.0
 10
77.7339
 20
128.465
 30
0.0
  0
SPLINE
  5
223
100
AcDbEntity
  8
0
100
AcDbSpline
210
0.0
220
0.0
230
1.0
 62
     253
 70
     0
 71
     3
 72
     8
 73
4
 40
0.0
 40
0.0
 40
0.0
 40
0.0
 40
1.0
 40
1.0
 40
1.0
 40
1.0
 10
77.7339
 20
218.465
 30
0.0
 10
77.7339
 20
217.084
 30
0.0
 10
76.6135
 20
215.965
 30
0.0
 10
75.2327
 20
215.965
 30
0.0
  0
SPLINE
  5
224
100
AcDbEntity
  8
0
100
AcDbSpline
210
0.0
220
0.0
230
1.0
 62
     253
 70
     0
 71
     3
 72
     8
 73
4
 40
0.0
 40
0.0
 40
0.0
 40
0.0
 40
1.0
 40
1.0
 40
1.0
 40
1.0
 10
75.2327
 20
215.965
 30
0.0
 10
73.8519
 20
215.965
 30
0.0
 10
72.7329
 20
217.084
 30
0.0
 10
72.7329
 20
218.465
 30
0.0
  0
SPLINE
  5
225
100
AcDbEntity
  8
0
100
AcDbSpline
210
0.0
220
0.0
230
1.0
 62
     253
 70
     0
 71
     3
 72
     8
 73
4
 40
0.0
 40
0.0
 40
0.0
 40
0.0
 40
1.0
 40
1.0
 40
1.0
 40
1.0
 10
72.7329
 20
218.465
 30
0.0
 10
72.7329
 20
219.845
 30
0.0
 10
73.8519
 20
220.964
 30
0.0
 10
75.2327
 20
220.964
 30
0.0
  0
SPLINE
  5
226
100
AcDbEntity
  8
0
100
AcDbSpline
210
0.0
220
0.0
230
1.0
 62
     253
 70
     0
 71
     3
 72
     8
 73
4
 40
0.0
 40
0.0
 40
0.0
 40
0.0
 40
1.0
 40
1.0
 40
1.0
 40
1.0
 10
75.2327
 20
220.964
 30
0.0
 10
76.6135
 20
220.964
 30
0.0
 10
77.7339
 20
219.845
 30
0.0
 10
77.7339
 20
218.465
 30
0.0
  0
LINE
  5
227
100
AcDbEntity
  8
0
100
AcDbLine
 62
     253
 10
86.7336
 20
84.715
 30
0.0
 11
87.7327
 21
85.7141
 31
0.0
  0
LINE
  5
228
100
AcDbEntity
  8
0
100
AcDbLine
 62
     253
 10
86.7336
 20
634.714
 30
0.0
 11
87.7327
 21
633.716
 31
0.0
  0
LINE
  5
229
100
AcDbEntity
  8
0
100
AcDbLine
 62
     253
 10
87.7327
 20
85.7141
 30
0.0
 11
87.7327
 21
633.716
 31
0.0
  0
LINE
  5
22a
100
AcDbEntity
  8
0
100
AcDbLine
 62
     253
 10
86.7336
 20
84.715
 30
0.0
 11
63.7328
 21
84.715
 31
0.0
  0
LINE
  5
22b
100
AcDbEntity
  8
0
100
AcDbLine
 62
     253
 10
63.7328
 20
84.715
 30
0.0
 11
62.7324
 21
85.7141
 31
0.0
  0
LINE
  5
22c
100
AcDbEntity
  8
0
100
AcDbLine
 62
     253
 10
86.7336
 20
634.714
 30
0.0
 11
63.7328
 21
634.714
 31
0.0
  0
LINE
  5
22d
100
AcDbEntity
  8
0
100
AcDbLine
 62
     253
 10
62.7324
 20
633.716
 30
0.0
 11
63.7328
 21
634.714
 31
0.0
  0
LINE
  5
22e
100
AcDbEntity
  8
0
100
AcDbLine
 62
     253
 10
62.7324
 20
85.7141
 30
0.0
 11
62.7324
 21
633.716
 31
0.0
  0
LINE
  5
22f
100
AcDbEntity
  8
0
100
AcDbLine
 62
     253
 10
86.7336
 20
85.7141
 30
0.0
 11
86.7336
 21
633.716
 31
0.0
  0
LINE
  5
230
100
AcDbEntity
  8
0
100
AcDbLine
 62
     253
 10
86.7336
 20
85.7141
 30
0.0
 11
63.7328
 21
85.7141
 31
0.0
  0
LINE
  5
231
100
AcDbEntity
  8
0
100
AcDbLine
 62
     253
 10
86.7336
 20
633.716
 30
0.0
 11
63.7328
 21
633.716
 31
0.0
  0
LINE
  5
232
100
AcDbEntity
  8
0
100
AcDbLine
 62
     253
 10
63.7328
 20
85.7141
 30
0.0
 11
63.7328
 21
633.716
 31
0.0
  0
LINE
  5
233
100
AcDbEntity
  8
0
100
AcDbLine
 62
     253
 10
86.7336
 20
84.715
 30
0.0
 11
87.7327
 21
85.7141
 31
0.0
  0
LINE
  5
234
100
AcDbEntity
  8
0
100
AcDbLine
 62
     253
 10
86.7336
 20
634.714
 30
0.0
 11
87.7327
 21
633.716
 31
0.0
  0
LINE
  5
235
100
AcDbEntity
  8
0
100
AcDbLine
 62
     253
 10
86.7336
 20
85.7141
 30
0.0
 11
87.7327
 21
85.7141
 31
0.0
  0
LINE
  5
236
100
AcDbEntity
  8
0
100
AcDbLine
 62
     253
 10
86.7336
 20
633.716
 30
0.0
 11
87.7327
 21
633.716
 31
0.0
  0
LINE
  5
237
100
AcDbEntity
  8
0
100
AcDbLine
 62
     253
 10
63.7328
 20
84.715
 30
0.0
 11
62.7324
 21
85.7141
 31
0.0
  0
LINE
  5
238
100
AcDbEntity
  8
0
100
AcDbLine
 62
     253
 10
86.7336
 20
84.715
 30
0.0
 11
86.7336
 21
85.7141
 31
0.0
  0
LINE
  5
239
100
AcDbEntity
  8
0
100
AcDbLine
 62
     253
 10
63.7328
 20
84.715
 30
0.0
 11
63.7328
 21
85.7141
 31
0.0
  0
LINE
  5
23a
100
AcDbEntity
  8
0
100
AcDbLine
 62
     253
 10
62.7324
 20
633.716
 30
0.0
 11
63.7328
 21
634.714
 31
0.0
  0
LINE
  5
23b
100
AcDbEntity
  8
0
100
AcDbLine
 62
     253
 10
86.7336
 20
634.714
 30
0.0
 11
86.7336
 21
633.716
 31
0.0
  0
LINE
  5
23c
100
AcDbEntity
  8
0
100
AcDbLine
 62
     253
 10
63.7328
 20
633.716
 30
0.0
 11
63.7328
 21
634.714
 31
0.0
  0
LINE
  5
23d
100
AcDbEntity
  8
0
100
AcDbLine
 62
     253
 10
63.7328
 20
85.7141
 30
0.0
 11
62.7324
 21
85.7141
 31
0.0
  0
LINE
  5
23e
100
AcDbEntity
  8
0
100
AcDbLine
 62
     253
 10
62.7324
 20
633.716
 30
0.0
 11
63.7328
 21
633.716
 31
0.0
  0
SPLINE
  5
23f
100
AcDbEntity
  8
0
100
AcDbSpline
210
0.0
220
0.0
230
1.0
 62
     253
 70
     0
 71
     3
 72
     8
 73
4
 40
0.0
 40
0.0
 40
0.0
 40
0.0
 40
1.0
 40
1.0
 40
1.0
 40
1.0
 10
77.7339
 20
240.965
 30
0.0
 10
77.7339
 20
239.583
 30
0.0
 10
76.6135
 20
238.464
 30
0.0
 10
75.2327
 20
238.464
 30
0.0
  0
SPLINE
  5
240
100
AcDbEntity
  8
0
100
AcDbSpline
210
0.0
220
0.0
230
1.0
 62
     253
 70
     0
 71
     3
 72
     8
 73
4
 40
0.0
 40
0.0
 40
0.0
 40
0.0
 40
1.0
 40
1.0
 40
1.0
 40
1.0
 10
75.2327
 20
238.464
 30
0.0
 10
73.8519
 20
238.464
 30
0.0
 10
72.7329
 20
239.583
 30
0.0
 10
72.7329
 20
240.965
 30
0.0
  0
SPLINE
  5
241
100
AcDbEntity
  8
0
100
AcDbSpline
210
0.0
220
0.0
230
1.0
 62
     253
 70
     0
 71
     3
 72
     8
 73
4
 40
0.0
 40
0.0
 40
0.0
 40
0.0
 40
1.0
 40
1.0
 40
1.0
 40
1.0
 10
72.7329
 20
240.965
 30
0.0
 10
72.7329
 20
242.346
 30
0.0
 10
73.8519
 20
243.465
 30
0.0
 10
75.2327
 20
243.465
 30
0.0
  0
SPLINE
  5
242
100
AcDbEntity
  8
0
100
AcDbSpline
210
0.0
220
0.0
230
1.0
 62
     253
 70
     0
 71
     3
 72
     8
 73
4
 40
0.0
 40
0.0
 40
0.0
 40
0.0
 40
1.0
 40
1.0
 40
1.0
 40
1.0
 10
75.2327
 20
243.465
 30
0.0
 10
76.6135
 20
243.465
 30
0.0
 10
77.7339
 20
242.346
 30
0.0
 10
77.7339
 20
240.965
 30
0.0
  0
SPLINE
  5
243
100
AcDbEntity
  8
0
100
AcDbSpline
210
0.0
220
0.0
230
1.0
 62
     253
 70
     0
 71
     3
 72
     8
 73
4
 40
0.0
 40
0.0
 40
0.0
 40
0.0
 40
1.0
 40
1.0
 40
1.0
 40
1.0
 10
77.7339
 20
353.466
 30
0.0
 10
77.7339
 20
352.083
 30
0.0
 10
76.6135
 20
350.964
 30
0.0
 10
75.2327
 20
350.964
 30
0.0
  0
SPLINE
  5
244
100
AcDbEntity
  8
0
100
AcDbSpline
210
0.0
220
0.0
230
1.0
 62
     253
 70
     0
 71
     3
 72
     8
 73
4
 40
0.0
 40
0.0
 40
0.0
 40
0.0
 40
1.0
 40
1.0
 40
1.0
 40
1.0
 10
75.2327
 20
350.964
 30
0.0
 10
73.8519
 20
350.964
 30
0.0
 10
72.7329
 20
352.083
 30
0.0
 10
72.7329
 20
353.466
 30
0.0
  0
SPLINE
  5
245
100
AcDbEntity
  8
0
100
AcDbSpline
210
0.0
220
0.0
230
1.0
 62
     253
 70
     0
 71
     3
 72
     8
 73
4
 40
0.0
 40
0.0
 40
0.0
 40
0.0
 40
1.0
 40
1.0
 40
1.0
 40
1.0
 10
72.7329
 20
353.466
 30
0.0
 10
72.7329
 20
354.845
 30
0.0
 10
73.8519
 20
355.963
 30
0.0
 10
75.2327
 20
355.963
 30
0.0
  0
SPLINE
  5
246
100
AcDbEntity
  8
0
100
AcDbSpline
210
0.0
220
0.0
230
1.0
 62
     253
 70
     0
 71
     3
 72
     8
 73
4
 40
0.0
 40
0.0
 40
0.0
 40
0.0
 40
1.0
 40
1.0
 40
1.0
 40
1.0
 10
75.2327
 20
355.963
 30
0.0
 10
76.6135
 20
355.963
 30
0.0
 10
77.7339
 20
354.845
 30
0.0
 10
77.7339
 20
353.466
 30
0.0
  0
SPLINE
  5
247
100
AcDbEntity
  8
0
100
AcDbSpline
210
0.0
220
0.0
230
1.0
 62
     253
 70
     0
 71
     3
 72
     8
 73
4
 40
0.0
 40
0.0
 40
0.0
 40
0.0
 40
1.0
 40
1.0
 40
1.0
 40
1.0
 10
77.7339
 20
330.965
 30
0.0
 10
77.7339
 20
329.584
 30
0.0
 10
76.6135
 20
328.465
 30
0.0
 10
75.2327
 20
328.465
 30
0.0
  0
SPLINE
  5
248
100
AcDbEntity
  8
0
100
AcDbSpline
210
0.0
220
0.0
230
1.0
 62
     253
 70
     0
 71
     3
 72
     8
 73
4
 40
0.0
 40
0.0
 40
0.0
 40
0.0
 40
1.0
 40
1.0
 40
1.0
 40
1.0
 10
75.2327
 20
328.465
 30
0.0
 10
73.8519
 20
328.465
 30
0.0
 10
72.7329
 20
329.584
 30
0.0
 10
72.7329
 20
330.965
 30
0.0
  0
SPLINE
  5
249
100
AcDbEntity
  8
0
100
AcDbSpline
210
0.0
220
0.0
230
1.0
 62
     253
 70
     0
 71
     3
 72
     8
 73
4
 40
0.0
 40
0.0
 40
0.0
 40
0.0
 40
1.0
 40
1.0
 40
1.0
 40
1.0
 10
72.7329
 20
330.965
 30
0.0
 10
72.7329
 20
332.346
 30
0.0
 10
73.8519
 20
333.465
 30
0.0
 10
75.2327
 20
333.465
 30
0.0
  0
SPLINE
  5
24a
100
AcDbEntity
  8
0
100
AcDbSpline
210
0.0
220
0.0
230
1.0
 62
     253
 70
     0
 71
     3
 72
     8
 73
4
 40
0.0
 40
0.0
 40
0.0
 40
0.0
 40
1.0
 40
1.0
 40
1.0
 40
1.0
 10
75.2327
 20
333.465
 30
0.0
 10
76.6135
 20
333.465
 30
0.0
 10
77.7339
 20
332.346
 30
0.0
 10
77.7339
 20
330.965
 30
0.0
  0
SPLINE
  5
24b
100
AcDbEntity
  8
0
100
AcDbSpline
210
0.0
220
0.0
230
1.0
 62
     253
 70
     0
 71
     3
 72
     8
 73
4
 40
0.0
 40
0.0
 40
0.0
 40
0.0
 40
1.0
 40
1.0
 40
1.0
 40
1.0
 10
77.7339
 20
578.464
 30
0.0
 10
77.7339
 20
577.084
 30
0.0
 10
76.6135
 20
575.966
 30
0.0
 10
75.2327
 20
575.966
 30
0.0
  0
SPLINE
  5
24c
100
AcDbEntity
  8
0
100
AcDbSpline
210
0.0
220
0.0
230
1.0
 62
     253
 70
     0
 71
     3
 72
     8
 73
4
 40
0.0
 40
0.0
 40
0.0
 40
0.0
 40
1.0
 40
1.0
 40
1.0
 40
1.0
 10
75.2327
 20
575.966
 30
0.0
 10
73.8519
 20
575.966
 30
0.0
 10
72.7329
 20
577.084
 30
0.0
 10
72.7329
 20
578.464
 30
0.0
  0
SPLINE
  5
24d
100
AcDbEntity
  8
0
100
AcDbSpline
210
0.0
220
0.0
230
1.0
 62
     253
 70
     0
 71
     3
 72
     8
 73
4
 40
0.0
 40
0.0
 40
0.0
 40
0.0
 40
1.0
 40
1.0
 40
1.0
 40
1.0
 10
72.7329
 20
578.464
 30
0.0
 10
72.7329
 20
579.847
 30
0.0
 10
73.8519
 20
580.965
 30
0.0
 10
75.2327
 20
580.965
 30
0.0
  0
SPLINE
  5
24e
100
AcDbEntity
  8
0
100
AcDbSpline
210
0.0
220
0.0
230
1.0
 62
     253
 70
     0
 71
     3
 72
     8
 73
4
 40
0.0
 40
0.0
 40
0.0
 40
0.0
 40
1.0
 40
1.0
 40
1.0
 40
1.0
 10
75.2327
 20
580.965
 30
0.0
 10
76.6135
 20
580.965
 30
0.0
 10
77.7339
 20
579.847
 30
0.0
 10
77.7339
 20
578.464
 30
0.0
  0
SPLINE
  5
24f
100
AcDbEntity
  8
0
100
AcDbSpline
210
0.0
220
0.0
230
1.0
 62
     253
 70
     0
 71
     3
 72
     8
 73
4
 40
0.0
 40
0.0
 40
0.0
 40
0.0
 40
1.0
 40
1.0
 40
1.0
 40
1.0
 10
77.7339
 20
555.964
 30
0.0
 10
77.7339
 20
554.584
 30
0.0
 10
76.6135
 20
553.466
 30
0.0
 10
75.2327
 20
553.466
 30
0.0
  0
SPLINE
  5
250
100
AcDbEntity
  8
0
100
AcDbSpline
210
0.0
220
0.0
230
1.0
 62
     253
 70
     0
 71
     3
 72
     8
 73
4
 40
0.0
 40
0.0
 40
0.0
 40
0.0
 40
1.0
 40
1.0
 40
1.0
 40
1.0
 10
75.2327
 20
553.466
 30
0.0
 10
73.8519
 20
553.466
 30
0.0
 10
72.7329
 20
554.584
 30
0.0
 10
72.7329
 20
555.964
 30
0.0
  0
SPLINE
  5
251
100
AcDbEntity
  8
0
100
AcDbSpline
210
0.0
220
0.0
230
1.0
 62
     253
 70
     0
 71
     3
 72
     8
 73
4
 40
0.0
 40
0.0
 40
0.0
 40
0.0
 40
1.0
 40
1.0
 40
1.0
 40
1.0
 10
72.7329
 20
555.964
 30
0.0
 10
72.7329
 20
557.347
 30
0.0
 10
73.8519
 20
558.465
 30
0.0
 10
75.2327
 20
558.465
 30
0.0
  0
SPLINE
  5
252
100
AcDbEntity
  8
0
100
AcDbSpline
210
0.0
220
0.0
230
1.0
 62
     253
 70
     0
 71
     3
 72
     8
 73
4
 40
0.0
 40
0.0
 40
0.0
 40
0.0
 40
1.0
 40
1.0
 40
1.0
 40
1.0
 10
75.2327
 20
558.465
 30
0.0
 10
76.6135
 20
558.465
 30
0.0
 10
77.7339
 20
557.347
 30
0.0
 10
77.7339
 20
555.964
 30
0.0
  0
SPLINE
  5
253
100
AcDbEntity
  8
0
100
AcDbSpline
210
0.0
220
0.0
230
1.0
 62
     253
 70
     0
 71
     3
 72
     8
 73
4
 40
0.0
 40
0.0
 40
0.0
 40
0.0
 40
1.0
 40
1.0
 40
1.0
 40
1.0
 10
77.7339
 20
465.963
 30
0.0
 10
77.7339
 20
464.584
 30
0.0
 10
76.6135
 20
463.465
 30
0.0
 10
75.2327
 20
463.465
 30
0.0
  0
SPLINE
  5
254
100
AcDbEntity
  8
0
100
AcDbSpline
210
0.0
220
0.0
230
1.0
 62
     253
 70
     0
 71
     3
 72
     8
 73
4
 40
0.0
 40
0.0
 40
0.0
 40
0.0
 40
1.0
 40
1.0
 40
1.0
 40
1.0
 10
75.2327
 20
463.465
 30
0.0
 10
73.8519
 20
463.465
 30
0.0
 10
72.7329
 20
464.584
 30
0.0
 10
72.7329
 20
465.963
 30
0.0
  0
SPLINE
  5
255
100
AcDbEntity
  8
0
100
AcDbSpline
210
0.0
220
0.0
230
1.0
 62
     253
 70
     0
 71
     3
 72
     8
 73
4
 40
0.0
 40
0.0
 40
0.0
 40
0.0
 40
1.0
 40
1.0
 40
1.0
 40
1.0
 10
72.7329
 20
465.963
 30
0.0
 10
72.7329
 20
467.346
 30
0.0
 10
73.8519
 20
468.464
 30
0.0
 10
75.2327
 20
468.464
 30
0.0
  0
SPLINE
  5
256
100
AcDbEntity
  8
0
100
AcDbSpline
210
0.0
220
0.0
230
1.0
 62
     253
 70
     0
 71
     3
 72
     8
 73
4
 40
0.0
 40
0.0
 40
0.0
 40
0.0
 40
1.0
 40
1.0
 40
1.0
 40
1.0
 10
75.2327
 20
468.464
 30
0.0
 10
76.6135
 20
468.464
 30
0.0
 10
77.7339
 20
467.346
 30
0.0
 10
77.7339
 20
465.963
 30
0.0
  0
SPLINE
  5
257
100
AcDbEntity
  8
0
100
AcDbSpline
210
0.0
220
0.0
230
1.0
 62
     253
 70
     0
 71
     3
 72
     8
 73
4
 40
0.0
 40
0.0
 40
0.0
 40
0.0
 40
1.0
 40
1.0
 40
1.0
 40
1.0
 10
77.7339
 20
443.466
 30
0.0
 10
77.7339
 20
442.083
 30
0.0
 10
76.6135
 20
440.965
 30
0.0
 10
75.2327
 20
440.965
 30
0.0
  0
SPLINE
  5
258
100
AcDbEntity
  8
0
100
AcDbSpline
210
0.0
220
0.0
230
1.0
 62
     253
 70
     0
 71
     3
 72
     8
 73
4
 40
0.0
 40
0.0
 40
0.0
 40
0.0
 40
1.0
 40
1.0
 40
1.0
 40
1.0
 10
75.2327
 20
440.965
 30
0.0
 10
73.8519
 20
440.965
 30
0.0
 10
72.7329
 20
442.083
 30
0.0
 10
72.7329
 20
443.466
 30
0.0
  0
SPLINE
  5
259
100
AcDbEntity
  8
0
100
AcDbSpline
210
0.0
220
0.0
230
1.0
 62
     253
 70
     0
 71
     3
 72
     8
 73
4
 40
0.0
 40
0.0
 40
0.0
 40
0.0
 40
1.0
 40
1.0
 40
1.0
 40
1.0
 10
72.7329
 20
443.466
 30
0.0
 10
72.7329
 20
444.846
 30
0.0
 10
73.8519
 20
445.964
 30
0.0
 10
75.2327
 20
445.964
 30
0.0
  0
SPLINE
  5
25a
100
AcDbEntity
  8
0
100
AcDbSpline
210
0.0
220
0.0
230
1.0
 62
     253
 70
     0
 71
     3
 72
     8
 73
4
 40
0.0
 40
0.0
 40
0.0
 40
0.0
 40
1.0
 40
1.0
 40
1.0
 40
1.0
 10
75.2327
 20
445.964
 30
0.0
 10
76.6135
 20
445.964
 30
0.0
 10
77.7339
 20
444.846
 30
0.0
 10
77.7339
 20
443.466
 30
0.0
  0
SPLINE
  5
25b
100
AcDbEntity
  8
0
100
AcDbSpline
210
0.0
220
0.0
230
1.0
 62
     253
 70
     0
 71
     3
 72
     8
 73
4
 40
0.0
 40
0.0
 40
0.0
 40
0.0
 40
1.0
 40
1.0
 40
1.0
 40
1.0
 10
77.7339
 20
105.964
 30
0.0
 10
77.7339
 20
104.583
 30
0.0
 10
76.6135
 20
103.464
 30
0.0
 10
75.2327
 20
103.464
 30
0.0
  0
SPLINE
  5
25c
100
AcDbEntity
  8
0
100
AcDbSpline
210
0.0
220
0.0
230
1.0
 62
     253
 70
     0
 71
     3
 72
     8
 73
4
 40
0.0
 40
0.0
 40
0.0
 40
0.0
 40
1.0
 40
1.0
 40
1.0
 40
1.0
 10
75.2327
 20
103.464
 30
0.0
 10
73.8519
 20
103.464
 30
0.0
 10
72.7329
 20
104.583
 30
0.0
 10
72.7329
 20
105.964
 30
0.0
  0
SPLINE
  5
25d
100
AcDbEntity
  8
0
100
AcDbSpline
210
0.0
220
0.0
230
1.0
 62
     253
 70
     0
 71
     3
 72
     8
 73
4
 40
0.0
 40
0.0
 40
0.0
 40
0.0
 40
1.0
 40
1.0
 40
1.0
 40
1.0
 10
72.7329
 20
105.964
 30
0.0
 10
72.7329
 20
107.345
 30
0.0
 10
73.8519
 20
108.464
 30
0.0
 10
75.2327
 20
108.464
 30
0.0
  0
SPLINE
  5
25e
100
AcDbEntity
  8
0
100
AcDbSpline
210
0.0
220
0.0
230
1.0
 62
     253
 70
     0
 71
     3
 72
     8
 73
4
 40
0.0
 40
0.0
 40
0.0
 40
0.0
 40
1.0
 40
1.0
 40
1.0
 40
1.0
 10
75.2327
 20
108.464
 30
0.0
 10
76.6135
 20
108.464
 30
0.0
 10
77.7339
 20
107.345
 30
0.0
 10
77.7339
 20
105.964
 30
0.0
  0
SPLINE
  5
25f
100
AcDbEntity
  8
0
100
AcDbSpline
210
0.0
220
0.0
230
1.0
 62
     253
 70
     0
 71
     3
 72
     8
 73
4
 40
0.0
 40
0.0
 40
0.0
 40
0.0
 40
1.0
 40
1.0
 40
1.0
 40
1.0
 10
77.7339
 20
128.465
 30
0.0
 10
77.7339
 20
127.084
 30
0.0
 10
76.6135
 20
125.965
 30
0.0
 10
75.2327
 20
125.965
 30
0.0
  0
SPLINE
  5
260
100
AcDbEntity
  8
0
100
AcDbSpline
210
0.0
220
0.0
230
1.0
 62
     253
 70
     0
 71
     3
 72
     8
 73
4
 40
0.0
 40
0.0
 40
0.0
 40
0.0
 40
1.0
 40
1.0
 40
1.0
 40
1.0
 10
75.2327
 20
125.965
 30
0.0
 10
73.8519
 20
125.965
 30
0.0
 10
72.7329
 20
127.084
 30
0.0
 10
72.7329
 20
128.465
 30
0.0
  0
SPLINE
  5
261
100
AcDbEntity
  8
0
100
AcDbSpline
210
0.0
220
0.0
230
1.0
 62
     253
 70
     0
 71
     3
 72
     8
 73
4
 40
0.0
 40
0.0
 40
0.0
 40
0.0
 40
1.0
 40
1.0
 40
1.0
 40
1.0
 10
72.7329
 20
128.465
 30
0.0
 10
72.7329
 20
129.846
 30
0.0
 10
73.8519
 20
130.965
 30
0.0
 10
75.2327
 20
130.965
 30
0.0
  0
SPLINE
  5
262
100
AcDbEntity
  8
0
100
AcDbSpline
210
0.0
220
0.0
230
1.0
 62
     253
 70
     0
 71
     3
 72
     8
 73
4
 40
0.0
 40
0.0
 40
0.0
 40
0.0
 40
1.0
 40
1.0
 40
1.0
 40
1.0
 10
75.2327
 20
130.965
 30
0.0
 10
76.6135
 20
130.965
 30
0.0
 10
77.7339
 20
129.846
 30
0.0
 10
77.7339
 20
128.465
 30
0.0
  0
SPLINE
  5
263
100
AcDbEntity
  8
0
100
AcDbSpline
210
0.0
220
0.0
230
1.0
 62
     253
 70
     0
 71
     3
 72
     8
 73
4
 40
0.0
 40
0.0
 40
0.0
 40
0.0
 40
1.0
 40
1.0
 40
1.0
 40
1.0
 10
77.7339
 20
218.465
 30
0.0
 10
77.7339
 20
217.084
 30
0.0
 10
76.6135
 20
215.965
 30
0.0
 10
75.2327
 20
215.965
 30
0.0
  0
SPLINE
  5
264
100
AcDbEntity
  8
0
100
AcDbSpline
210
0.0
220
0.0
230
1.0
 62
     253
 70
     0
 71
     3
 72
     8
 73
4
 40
0.0
 40
0.0
 40
0.0
 40
0.0
 40
1.0
 40
1.0
 40
1.0
 40
1.0
 10
75.2327
 20
215.965
 30
0.0
 10
73.8519
 20
215.965
 30
0.0
 10
72.7329
 20
217.084
 30
0.0
 10
72.7329
 20
218.465
 30
0.0
  0
SPLINE
  5
265
100
AcDbEntity
  8
0
100
AcDbSpline
210
0.0
220
0.0
230
1.0
 62
     253
 70
     0
 71
     3
 72
     8
 73
4
 40
0.0
 40
0.0
 40
0.0
 40
0.0
 40
1.0
 40
1.0
 40
1.0
 40
1.0
 10
72.7329
 20
218.465
 30
0.0
 10
72.7329
 20
219.845
 30
0.0
 10
73.8519
 20
220.964
 30
0.0
 10
75.2327
 20
220.964
 30
0.0
  0
SPLINE
  5
266
100
AcDbEntity
  8
0
100
AcDbSpline
210
0.0
220
0.0
230
1.0
 62
     253
 70
     0
 71
     3
 72
     8
 73
4
 40
0.0
 40
0.0
 40
0.0
 40
0.0
 40
1.0
 40
1.0
 40
1.0
 40
1.0
 10
75.2327
 20
220.964
 30
0.0
 10
76.6135
 20
220.964
 30
0.0
 10
77.7339
 20
219.845
 30
0.0
 10
77.7339
 20
218.465
 30
0.0
  0
LINE
  5
267
100
AcDbEntity
  8
0
100
AcDbLine
 62
     253
 10
87.7327
 20
85.7141
 30
0.0
 11
87.7327
 21
633.716
 31
0.0
  0
LINE
  5
268
100
AcDbEntity
  8
0
100
AcDbLine
 62
     253
 10
86.7336
 20
84.715
 30
0.0
 11
63.7328
 21
84.715
 31
0.0
  0
LINE
  5
269
100
AcDbEntity
  8
0
100
AcDbLine
 62
     253
 10
86.7336
 20
634.714
 30
0.0
 11
63.7328
 21
634.714
 31
0.0
  0
LINE
  5
26a
100
AcDbEntity
  8
0
100
AcDbLine
 62
     253
 10
62.7324
 20
85.7141
 30
0.0
 11
62.7324
 21
633.716
 31
0.0
  0
LINE
  5
26b
100
AcDbEntity
  8
0
100
AcDbLine
 62
     253
 10
86.7336
 20
85.7141
 30
0.0
 11
86.7336
 21
633.716
 31
0.0
  0
LINE
  5
26c
100
AcDbEntity
  8
0
100
AcDbLine
 62
     253
 10
86.7336
 20
85.7141
 30
0.0
 11
63.7328
 21
85.7141
 31
0.0
  0
LINE
  5
26d
100
AcDbEntity
  8
0
100
AcDbLine
 62
     253
 10
86.7336
 20
633.716
 30
0.0
 11
63.7328
 21
633.716
 31
0.0
  0
LINE
  5
26e
100
AcDbEntity
  8
0
100
AcDbLine
 62
     253
 10
63.7328
 20
85.7141
 30
0.0
 11
63.7328
 21
633.716
 31
0.0
  0
LINE
  5
26f
100
AcDbEntity
  8
0
100
AcDbLine
 62
     253
 10
86.7336
 20
84.715
 30
0.0
 11
87.7327
 21
85.7141
 31
0.0
  0
LINE
  5
270
100
AcDbEntity
  8
0
100
AcDbLine
 62
     253
 10
86.7336
 20
634.714
 30
0.0
 11
87.7327
 21
633.716
 31
0.0
  0
LINE
  5
271
100
AcDbEntity
  8
0
100
AcDbLine
 62
     253
 10
86.7336
 20
85.7141
 30
0.0
 11
87.7327
 21
85.7141
 31
0.0
  0
LINE
  5
272
100
AcDbEntity
  8
0
100
AcDbLine
 62
     253
 10
86.7336
 20
633.716
 30
0.0
 11
87.7327
 21
633.716
 31
0.0
  0
LINE
  5
273
100
AcDbEntity
  8
0
100
AcDbLine
 62
     253
 10
63.7328
 20
84.715
 30
0.0
 11
62.7324
 21
85.7141
 31
0.0
  0
LINE
  5
274
100
AcDbEntity
  8
0
100
AcDbLine
 62
     253
 10
86.7336
 20
84.715
 30
0.0
 11
86.7336
 21
85.7141
 31
0.0
  0
LINE
  5
275
100
AcDbEntity
  8
0
100
AcDbLine
 62
     253
 10
63.7328
 20
84.715
 30
0.0
 11
63.7328
 21
85.7141
 31
0.0
  0
LINE
  5
276
100
AcDbEntity
  8
0
100
AcDbLine
 62
     253
 10
62.7324
 20
633.716
 30
0.0
 11
63.7328
 21
634.714
 31
0.0
  0
LINE
  5
277
100
AcDbEntity
  8
0
100
AcDbLine
 62
     253
 10
86.7336
 20
634.714
 30
0.0
 11
86.7336
 21
633.716
 31
0.0
  0
LINE
  5
278
100
AcDbEntity
  8
0
100
AcDbLine
 62
     253
 10
63.7328
 20
633.716
 30
0.0
 11
63.7328
 21
634.714
 31
0.0
  0
LINE
  5
279
100
AcDbEntity
  8
0
100
AcDbLine
 62
     253
 10
63.7328
 20
85.7141
 30
0.0
 11
62.7324
 21
85.7141
 31
0.0
  0
LINE
  5
27a
100
AcDbEntity
  8
0
100
AcDbLine
 62
     253
 10
62.7324
 20
633.716
 30
0.0
 11
63.7328
 21
633.716
 31
0.0
  0
LINE
  5
27b
100
AcDbEntity
  8
0
100
AcDbLine
 62
     253
 10
25.0762
 20
27.7744
 30
0.0
 11
25.0762
 21
50.7739
 31
0.0
  0
LINE
  5
27c
100
AcDbEntity
  8
0
100
AcDbLine
 62
     253
 10
25.0762
 20
36.7743
 30
0.0
 11
25.0762
 21
41.7738
 31
0.0
  0
LINE
  5
27d
100
AcDbEntity
  8
0
100
AcDbLine
 62
     253
 10
25.0762
 20
41.7738
 30
0.0
 11
25.0762
 21
36.7743
 31
0.0
  0
LINE
  5
27e
100
AcDbEntity
  8
0
100
AcDbLine
 62
     253
 10
25.0762
 20
36.7743
 30
0.0
 11
25.0762
 21
41.7738
 31
0.0
  0
LINE
  5
27f
100
AcDbEntity
  8
0
100
AcDbLine
 62
     253
 10
25.0762
 20
41.7738
 30
0.0
 11
25.0762
 21
36.7743
 31
0.0
  0
LINE
  5
280
100
AcDbEntity
  8
0
100
AcDbLine
 62
     253
 10
25.0762
 20
36.7743
 30
0.0
 11
25.0762
 21
41.7738
 31
0.0
  0
LINE
  5
281
100
AcDbEntity
  8
0
100
AcDbLine
 62
     253
 10
25.0762
 20
41.7738
 30
0.0
 11
25.0762
 21
36.7743
 31
0.0
  0
LINE
  5
282
100
AcDbEntity
  8
0
100
AcDbLine
 62
     253
 10
25.0762
 20
36.7743
 30
0.0
 11
25.0762
 21
41.7738
 31
0.0
  0
LINE
  5
283
100
AcDbEntity
  8
0
100
AcDbLine
 62
     253
 10
25.0762
 20
41.7738
 30
0.0
 11
25.0762
 21
36.7743
 31
0.0
  0
LINE
  5
284
100
AcDbEntity
  8
0
100
AcDbLine
 62
     253
 10
25.0762
 20
36.7743
 30
0.0
 11
25.0762
 21
41.7738
 31
0.0
  0
LINE
  5
285
100
AcDbEntity
  8
0
100
AcDbLine
 62
     253
 10
25.0762
 20
41.7738
 30
0.0
 11
25.0762
 21
36.7743
 31
0.0
  0
LINE
  5
286
100
AcDbEntity
  8
0
100
AcDbLine
 62
     253
 10
25.0762
 20
36.7743
 30
0.0
 11
25.0762
 21
41.7738
 31
0.0
  0
LINE
  5
287
100
AcDbEntity
  8
0
100
AcDbLine
 62
     253
 10
25.0762
 20
41.7738
 30
0.0
 11
25.0762
 21
36.7743
 31
0.0
  0
LINE
  5
288
100
AcDbEntity
  8
0
100
AcDbLine
 62
     253
 10
25.0762
 20
36.7743
 30
0.0
 11
25.0762
 21
41.7738
 31
0.0
  0
LINE
  5
289
100
AcDbEntity
  8
0
100
AcDbLine
 62
     253
 10
25.0762
 20
41.7738
 30
0.0
 11
25.0762
 21
36.7743
 31
0.0
  0
LINE
  5
28a
100
AcDbEntity
  8
0
100
AcDbLine
 62
     253
 10
25.0762
 20
36.7743
 30
0.0
 11
25.0762
 21
41.7738
 31
0.0
  0
LINE
  5
28b
100
AcDbEntity
  8
0
100
AcDbLine
 62
     253
 10
25.0762
 20
41.7738
 30
0.0
 11
25.0762
 21
36.7743
 31
0.0
  0
LINE
  5
28c
100
AcDbEntity
  8
0
100
AcDbLine
 62
     253
 10
25.0762
 20
36.7743
 30
0.0
 11
25.0762
 21
41.7738
 31
0.0
  0
LINE
  5
28d
100
AcDbEntity
  8
0
100
AcDbLine
 62
     253
 10
25.0762
 20
41.7738
 30
0.0
 11
25.0762
 21
36.7743
 31
0.0
  0
LINE
  5
28e
100
AcDbEntity
  8
0
100
AcDbLine
 62
     253
 10
25.0762
 20
36.7743
 30
0.0
 11
25.0762
 21
41.7738
 31
0.0
  0
LINE
  5
28f
100
AcDbEntity
  8
0
100
AcDbLine
 62
     253
 10
25.0762
 20
41.7738
 30
0.0
 11
25.0762
 21
36.7743
 31
0.0
  0
LINE
  5
290
100
AcDbEntity
  8
0
100
AcDbLine
 62
     253
 10
25.0762
 20
27.7744
 30
0.0
 11
24.0757
 21
26.7739
 31
0.0
  0
LINE
  5
291
100
AcDbEntity
  8
0
100
AcDbLine
 62
     253
 10
24.0757
 20
27.7744
 30
0.0
 11
25.0762
 21
27.7744
 31
0.0
  0
LINE
  5
292
100
AcDbEntity
  8
0
100
AcDbLine
 62
     253
 10
24.0757
 20
27.7744
 30
0.0
 11
24.0757
 21
50.7739
 31
0.0
  0
LINE
  5
293
100
AcDbEntity
  8
0
100
AcDbLine
 62
     253
 10
24.0757
 20
50.7739
 30
0.0
 11
25.0762
 21
50.7739
 31
0.0
  0
LINE
  5
294
100
AcDbEntity
  8
0
100
AcDbLine
 62
     253
 10
25.0762
 20
50.7739
 30
0.0
 11
24.0757
 21
51.7744
 31
0.0
  0
LINE
  5
295
100
AcDbEntity
  8
0
100
AcDbLine
 62
     253
 10
15.0757
 20
36.7743
 30
0.0
 11
15.0757
 21
41.7738
 31
0.0
  0
LINE
  5
296
100
AcDbEntity
  8
0
100
AcDbLine
 62
     253
 10
15.0757
 20
41.7738
 30
0.0
 11
15.0757
 21
36.7743
 31
0.0
  0
LINE
  5
297
100
AcDbEntity
  8
0
100
AcDbLine
 62
     253
 10
15.0757
 20
36.7743
 30
0.0
 11
25.0762
 21
36.7743
 31
0.0
  0
LINE
  5
298
100
AcDbEntity
  8
0
100
AcDbLine
 62
     253
 10
15.0757
 20
36.7743
 30
0.0
 11
15.0757
 21
41.7738
 31
0.0
  0
LINE
  5
299
100
AcDbEntity
  8
0
100
AcDbLine
 62
     253
 10
15.0757
 20
41.7738
 30
0.0
 11
15.0757
 21
36.7743
 31
0.0
  0
LINE
  5
29a
100
AcDbEntity
  8
0
100
AcDbLine
 62
     253
 10
15.0757
 20
36.7743
 30
0.0
 11
25.0762
 21
36.7743
 31
0.0
  0
LINE
  5
29b
100
AcDbEntity
  8
0
100
AcDbLine
 62
     253
 10
15.0757
 20
36.7743
 30
0.0
 11
15.0757
 21
41.7738
 31
0.0
  0
LINE
  5
29c
100
AcDbEntity
  8
0
100
AcDbLine
 62
     253
 10
15.0757
 20
41.7738
 30
0.0
 11
15.0757
 21
36.7743
 31
0.0
  0
LINE
  5
29d
100
AcDbEntity
  8
0
100
AcDbLine
 62
     253
 10
15.0757
 20
36.7743
 30
0.0
 11
25.0762
 21
36.7743
 31
0.0
  0
LINE
  5
29e
100
AcDbEntity
  8
0
100
AcDbLine
 62
     253
 10
15.0757
 20
36.7743
 30
0.0
 11
15.0757
 21
41.7738
 31
0.0
  0
LINE
  5
29f
100
AcDbEntity
  8
0
100
AcDbLine
 62
     253
 10
15.0757
 20
41.7738
 30
0.0
 11
15.0757
 21
36.7743
 31
0.0
  0
LINE
  5
2a0
100
AcDbEntity
  8
0
100
AcDbLine
 62
     253
 10
15.0757
 20
36.7743
 30
0.0
 11
25.0762
 21
36.7743
 31
0.0
  0
LINE
  5
2a1
100
AcDbEntity
  8
0
100
AcDbLine
 62
     253
 10
15.0757
 20
36.7743
 30
0.0
 11
15.0757
 21
41.7738
 31
0.0
  0
LINE
  5
2a2
100
AcDbEntity
  8
0
100
AcDbLine
 62
     253
 10
15.0757
 20
41.7738
 30
0.0
 11
15.0757
 21
36.7743
 31
0.0
  0
LINE
  5
2a3
100
AcDbEntity
  8
0
100
AcDbLine
 62
     253
 10
15.0757
 20
36.7743
 30
0.0
 11
25.0762
 21
36.7743
 31
0.0
  0
LINE
  5
2a4
100
AcDbEntity
  8
0
100
AcDbLine
 62
     253
 10
15.0757
 20
36.7743
 30
0.0
 11
15.0757
 21
41.7738
 31
0.0
  0
LINE
  5
2a5
100
AcDbEntity
  8
0
100
AcDbLine
 62
     253
 10
15.0757
 20
41.7738
 30
0.0
 11
15.0757
 21
36.7743
 31
0.0
  0
LINE
  5
2a6
100
AcDbEntity
  8
0
100
AcDbLine
 62
     253
 10
15.0757
 20
36.7743
 30
0.0
 11
25.0762
 21
36.7743
 31
0.0
  0
LINE
  5
2a7
100
AcDbEntity
  8
0
100
AcDbLine
 62
     253
 10
15.0757
 20
36.7743
 30
0.0
 11
15.0757
 21
41.7738
 31
0.0
  0
LINE
  5
2a8
100
AcDbEntity
  8
0
100
AcDbLine
 62
     253
 10
15.0757
 20
41.7738
 30
0.0
 11
15.0757
 21
36.7743
 31
0.0
  0
LINE
  5
2a9
100
AcDbEntity
  8
0
100
AcDbLine
 62
     253
 10
15.0757
 20
36.7743
 30
0.0
 11
25.0762
 21
36.7743
 31
0.0
  0
LINE
  5
2aa
100
AcDbEntity
  8
0
100
AcDbLine
 62
     253
 10
15.0757
 20
36.7743
 30
0.0
 11
15.0757
 21
41.7738
 31
0.0
  0
LINE
  5
2ab
100
AcDbEntity
  8
0
100
AcDbLine
 62
     253
 10
15.0757
 20
41.7738
 30
0.0
 11
15.0757
 21
36.7743
 31
0.0
  0
LINE
  5
2ac
100
AcDbEntity
  8
0
100
AcDbLine
 62
     253
 10
15.0757
 20
36.7743
 30
0.0
 11
25.0762
 21
36.7743
 31
0.0
  0
LINE
  5
2ad
100
AcDbEntity
  8
0
100
AcDbLine
 62
     253
 10
15.0757
 20
36.7743
 30
0.0
 11
15.0757
 21
41.7738
 31
0.0
  0
LINE
  5
2ae
100
AcDbEntity
  8
0
100
AcDbLine
 62
     253
 10
15.0757
 20
41.7738
 30
0.0
 11
15.0757
 21
36.7743
 31
0.0
  0
LINE
  5
2af
100
AcDbEntity
  8
0
100
AcDbLine
 62
     253
 10
15.0757
 20
36.7743
 30
0.0
 11
25.0762
 21
36.7743
 31
0.0
  0
LINE
  5
2b0
100
AcDbEntity
  8
0
100
AcDbLine
 62
     253
 10
15.0757
 20
36.7743
 30
0.0
 11
15.0757
 21
41.7738
 31
0.0
  0
LINE
  5
2b1
100
AcDbEntity
  8
0
100
AcDbLine
 62
     253
 10
15.0757
 20
41.7738
 30
0.0
 11
15.0757
 21
36.7743
 31
0.0
  0
LINE
  5
2b2
100
AcDbEntity
  8
0
100
AcDbLine
 62
     253
 10
15.0757
 20
36.7743
 30
0.0
 11
25.0762
 21
36.7743
 31
0.0
  0
LINE
  5
2b3
100
AcDbEntity
  8
0
100
AcDbLine
 62
     253
 10
24.0757
 20
27.7744
 30
0.0
 11
24.0757
 21
26.7739
 31
0.0
  0
LINE
  5
2b4
100
AcDbEntity
  8
0
100
AcDbLine
 62
     253
 10
24.0757
 20
26.7739
 30
0.0
 11
16.0762
 21
26.7739
 31
0.0
  0
LINE
  5
2b5
100
AcDbEntity
  8
0
100
AcDbLine
 62
     253
 10
24.0757
 20
27.7744
 30
0.0
 11
16.0762
 21
27.7744
 31
0.0
  0
LINE
  5
2b6
100
AcDbEntity
  8
0
100
AcDbLine
 62
     253
 10
24.0757
 20
50.7739
 30
0.0
 11
16.0762
 21
50.7739
 31
0.0
  0
LINE
  5
2b7
100
AcDbEntity
  8
0
100
AcDbLine
 62
     253
 10
16.0762
 20
27.7744
 30
0.0
 11
16.0762
 21
50.7739
 31
0.0
  0
LINE
  5
2b8
100
AcDbEntity
  8
0
100
AcDbLine
 62
     253
 10
24.0757
 20
50.7739
 30
0.0
 11
24.0757
 21
51.7744
 31
0.0
  0
LINE
  5
2b9
100
AcDbEntity
  8
0
100
AcDbLine
 62
     253
 10
24.0757
 20
51.7744
 30
0.0
 11
16.0762
 21
51.7744
 31
0.0
  0
LINE
  5
2ba
100
AcDbEntity
  8
0
100
AcDbLine
 62
     253
 10
15.0757
 20
27.7744
 30
0.0
 11
15.0757
 21
50.7739
 31
0.0
  0
LINE
  5
2bb
100
AcDbEntity
  8
0
100
AcDbLine
 62
     253
 10
16.0762
 20
27.7744
 30
0.0
 11
16.0762
 21
26.7739
 31
0.0
  0
LINE
  5
2bc
100
AcDbEntity
  8
0
100
AcDbLine
 62
     253
 10
15.0757
 20
27.7744
 30
0.0
 11
16.0762
 21
26.7739
 31
0.0
  0
LINE
  5
2bd
100
AcDbEntity
  8
0
100
AcDbLine
 62
     253
 10
16.0762
 20
50.7739
 30
0.0
 11
16.0762
 21
51.7744
 31
0.0
  0
LINE
  5
2be
100
AcDbEntity
  8
0
100
AcDbLine
 62
     253
 10
16.0762
 20
27.7744
 30
0.0
 11
15.0757
 21
27.7744
 31
0.0
  0
LINE
  5
2bf
100
AcDbEntity
  8
0
100
AcDbLine
 62
     253
 10
16.0762
 20
50.7739
 30
0.0
 11
15.0757
 21
50.7739
 31
0.0
  0
LINE
  5
2c0
100
AcDbEntity
  8
0
100
AcDbLine
 62
     253
 10
15.0757
 20
50.7739
 30
0.0
 11
16.0762
 21
51.7744
 31
0.0
  0
LINE
  5
2c1
100
AcDbEntity
  8
0
100
AcDbLine
 62
     253
 10
0.0757922
 20
27.7744
 30
0.0
 11
0.0757922
 21
50.7739
 31
0.0
  0
LINE
  5
2c2
100
AcDbEntity
  8
0
100
AcDbLine
 62
     253
 10
0.0757922
 20
36.7743
 30
0.0
 11
0.0757922
 21
41.7738
 31
0.0
  0
LINE
  5
2c3
100
AcDbEntity
  8
0
100
AcDbLine
 62
     253
 10
0.0757922
 20
41.7738
 30
0.0
 11
0.0757922
 21
36.7743
 31
0.0
  0
LINE
  5
2c4
100
AcDbEntity
  8
0
100
AcDbLine
 62
     253
 10
0.0757922
 20
36.7743
 30
0.0
 11
0.0757922
 21
41.7738
 31
0.0
  0
LINE
  5
2c5
100
AcDbEntity
  8
0
100
AcDbLine
 62
     253
 10
0.0757922
 20
41.7738
 30
0.0
 11
0.0757922
 21
36.7743
 31
0.0
  0
LINE
  5
2c6
100
AcDbEntity
  8
0
100
AcDbLine
 62
     253
 10
0.0757922
 20
36.7743
 30
0.0
 11
0.0757922
 21
41.7738
 31
0.0
  0
LINE
  5
2c7
100
AcDbEntity
  8
0
100
AcDbLine
 62
     253
 10
0.0757922
 20
41.7738
 30
0.0
 11
0.0757922
 21
36.7743
 31
0.0
  0
LINE
  5
2c8
100
AcDbEntity
  8
0
100
AcDbLine
 62
     253
 10
0.0757922
 20
36.7743
 30
0.0
 11
0.0757922
 21
41.7738
 31
0.0
  0
LINE
  5
2c9
100
AcDbEntity
  8
0
100
AcDbLine
 62
     253
 10
0.0757922
 20
41.7738
 30
0.0
 11
0.0757922
 21
36.7743
 31
0.0
  0
LINE
  5
2ca
100
AcDbEntity
  8
0
100
AcDbLine
 62
     253
 10
0.0757922
 20
36.7743
 30
0.0
 11
0.0757922
 21
41.7738
 31
0.0
  0
LINE
  5
2cb
100
AcDbEntity
  8
0
100
AcDbLine
 62
     253
 10
0.0757922
 20
41.7738
 30
0.0
 11
0.0757922
 21
36.7743
 31
0.0
  0
LINE
  5
2cc
100
AcDbEntity
  8
0
100
AcDbLine
 62
     253
 10
0.0757922
 20
36.7743
 30
0.0
 11
0.0757922
 21
41.7738
 31
0.0
  0
LINE
  5
2cd
100
AcDbEntity
  8
0
100
AcDbLine
 62
     253
 10
0.0757922
 20
41.7738
 30
0.0
 11
0.0757922
 21
36.7743
 31
0.0
  0
LINE
  5
2ce
100
AcDbEntity
  8
0
100
AcDbLine
 62
     253
 10
0.0757922
 20
36.7743
 30
0.0
 11
0.0757922
 21
41.7738
 31
0.0
  0
LINE
  5
2cf
100
AcDbEntity
  8
0
100
AcDbLine
 62
     253
 10
0.0757922
 20
41.7738
 30
0.0
 11
0.0757922
 21
36.7743
 31
0.0
  0
LINE
  5
2d0
100
AcDbEntity
  8
0
100
AcDbLine
 62
     253
 10
0.0757922
 20
36.7743
 30
0.0
 11
0.0757922
 21
41.7738
 31
0.0
  0
LINE
  5
2d1
100
AcDbEntity
  8
0
100
AcDbLine
 62
     253
 10
0.0757922
 20
41.7738
 30
0.0
 11
0.0757922
 21
36.7743
 31
0.0
  0
LINE
  5
2d2
100
AcDbEntity
  8
0
100
AcDbLine
 62
     253
 10
0.0757922
 20
36.7743
 30
0.0
 11
0.0757922
 21
41.7738
 31
0.0
  0
LINE
  5
2d3
100
AcDbEntity
  8
0
100
AcDbLine
 62
     253
 10
0.0757922
 20
41.7738
 30
0.0
 11
0.0757922
 21
36.7743
 31
0.0
  0
LINE
  5
2d4
100
AcDbEntity
  8
0
100
AcDbLine
 62
     253
 10
0.0757922
 20
36.7743
 30
0.0
 11
0.0757922
 21
41.7738
 31
0.0
  0
LINE
  5
2d5
100
AcDbEntity
  8
0
100
AcDbLine
 62
     253
 10
0.0757922
 20
41.7738
 30
0.0
 11
0.0757922
 21
36.7743
 31
0.0
  0
LINE
  5
2d6
100
AcDbEntity
  8
0
100
AcDbLine
 62
     253
 10
0.0757922
 20
27.7744
 30
0.0
 11
1.07625
 21
26.7739
 31
0.0
  0
LINE
  5
2d7
100
AcDbEntity
  8
0
100
AcDbLine
 62
     253
 10
1.07625
 20
27.7744
 30
0.0
 11
0.0757922
 21
27.7744
 31
0.0
  0
LINE
  5
2d8
100
AcDbEntity
  8
0
100
AcDbLine
 62
     253
 10
1.07625
 20
27.7744
 30
0.0
 11
1.07625
 21
50.7739
 31
0.0
  0
LINE
  5
2d9
100
AcDbEntity
  8
0
100
AcDbLine
 62
     253
 10
1.07625
 20
50.7739
 30
0.0
 11
0.0757922
 21
50.7739
 31
0.0
  0
LINE
  5
2da
100
AcDbEntity
  8
0
100
AcDbLine
 62
     253
 10
0.0757922
 20
50.7739
 30
0.0
 11
1.07625
 21
51.7744
 31
0.0
  0
LINE
  5
2db
100
AcDbEntity
  8
0
100
AcDbLine
 62
     253
 10
0.0757922
 20
36.7743
 30
0.0
 11
10.0762
 21
36.7743
 31
0.0
  0
LINE
  5
2dc
100
AcDbEntity
  8
0
100
AcDbLine
 62
     253
 10
10.0762
 20
36.7743
 30
0.0
 11
10.0762
 21
41.7738
 31
0.0
  0
LINE
  5
2dd
100
AcDbEntity
  8
0
100
AcDbLine
 62
     253
 10
10.0762
 20
41.7738
 30
0.0
 11
10.0762
 21
36.7743
 31
0.0
  0
LINE
  5
2de
100
AcDbEntity
  8
0
100
AcDbLine
 62
     253
 10
0.0757922
 20
36.7743
 30
0.0
 11
10.0762
 21
36.7743
 31
0.0
  0
LINE
  5
2df
100
AcDbEntity
  8
0
100
AcDbLine
 62
     253
 10
10.0762
 20
36.7743
 30
0.0
 11
10.0762
 21
41.7738
 31
0.0
  0
LINE
  5
2e0
100
AcDbEntity
  8
0
100
AcDbLine
 62
     253
 10
10.0762
 20
41.7738
 30
0.0
 11
10.0762
 21
36.7743
 31
0.0
  0
LINE
  5
2e1
100
AcDbEntity
  8
0
100
AcDbLine
 62
     253
 10
0.0757922
 20
36.7743
 30
0.0
 11
10.0762
 21
36.7743
 31
0.0
  0
LINE
  5
2e2
100
AcDbEntity
  8
0
100
AcDbLine
 62
     253
 10
10.0762
 20
36.7743
 30
0.0
 11
10.0762
 21
41.7738
 31
0.0
  0
LINE
  5
2e3
100
AcDbEntity
  8
0
100
AcDbLine
 62
     253
 10
10.0762
 20
41.7738
 30
0.0
 11
10.0762
 21
36.7743
 31
0.0
  0
LINE
  5
2e4
100
AcDbEntity
  8
0
100
AcDbLine
 62
     253
 10
0.0757922
 20
36.7743
 30
0.0
 11
10.0762
 21
36.7743
 31
0.0
  0
LINE
  5
2e5
100
AcDbEntity
  8
0
100
AcDbLine
 62
     253
 10
10.0762
 20
36.7743
 30
0.0
 11
10.0762
 21
41.7738
 31
0.0
  0
LINE
  5
2e6
100
AcDbEntity
  8
0
100
AcDbLine
 62
     253
 10
10.0762
 20
41.7738
 30
0.0
 11
10.0762
 21
36.7743
 31
0.0
  0
LINE
  5
2e7
100
AcDbEntity
  8
0
100
AcDbLine
 62
     253
 10
0.0757922
 20
36.7743
 30
0.0
 11
10.0762
 21
36.7743
 31
0.0
  0
LINE
  5
2e8
100
AcDbEntity
  8
0
100
AcDbLine
 62
     253
 10
10.0762
 20
36.7743
 30
0.0
 11
10.0762
 21
41.7738
 31
0.0
  0
LINE
  5
2e9
100
AcDbEntity
  8
0
100
AcDbLine
 62
     253
 10
10.0762
 20
41.7738
 30
0.0
 11
10.0762
 21
36.7743
 31
0.0
  0
LINE
  5
2ea
100
AcDbEntity
  8
0
100
AcDbLine
 62
     253
 10
0.0757922
 20
36.7743
 30
0.0
 11
10.0762
 21
36.7743
 31
0.0
  0
LINE
  5
2eb
100
AcDbEntity
  8
0
100
AcDbLine
 62
     253
 10
10.0762
 20
36.7743
 30
0.0
 11
10.0762
 21
41.7738
 31
0.0
  0
LINE
  5
2ec
100
AcDbEntity
  8
0
100
AcDbLine
 62
     253
 10
10.0762
 20
41.7738
 30
0.0
 11
10.0762
 21
36.7743
 31
0.0
  0
LINE
  5
2ed
100
AcDbEntity
  8
0
100
AcDbLine
 62
     253
 10
0.0757922
 20
36.7743
 30
0.0
 11
10.0762
 21
36.7743
 31
0.0
  0
LINE
  5
2ee
100
AcDbEntity
  8
0
100
AcDbLine
 62
     253
 10
10.0762
 20
36.7743
 30
0.0
 11
10.0762
 21
41.7738
 31
0.0
  0
LINE
  5
2ef
100
AcDbEntity
  8
0
100
AcDbLine
 62
     253
 10
10.0762
 20
41.7738
 30
0.0
 11
10.0762
 21
36.7743
 31
0.0
  0
LINE
  5
2f0
100
AcDbEntity
  8
0
100
AcDbLine
 62
     253
 10
0.0757922
 20
36.7743
 30
0.0
 11
10.0762
 21
36.7743
 31
0.0
  0
LINE
  5
2f1
100
AcDbEntity
  8
0
100
AcDbLine
 62
     253
 10
10.0762
 20
36.7743
 30
0.0
 11
10.0762
 21
41.7738
 31
0.0
  0
LINE
  5
2f2
100
AcDbEntity
  8
0
100
AcDbLine
 62
     253
 10
10.0762
 20
41.7738
 30
0.0
 11
10.0762
 21
36.7743
 31
0.0
  0
LINE
  5
2f3
100
AcDbEntity
  8
0
100
AcDbLine
 62
     253
 10
0.0757922
 20
36.7743
 30
0.0
 11
10.0762
 21
36.7743
 31
0.0
  0
LINE
  5
2f4
100
AcDbEntity
  8
0
100
AcDbLine
 62
     253
 10
10.0762
 20
36.7743
 30
0.0
 11
10.0762
 21
41.7738
 31
0.0
  0
LINE
  5
2f5
100
AcDbEntity
  8
0
100
AcDbLine
 62
     253
 10
10.0762
 20
41.7738
 30
0.0
 11
10.0762
 21
36.7743
 31
0.0
  0
LINE
  5
2f6
100
AcDbEntity
  8
0
100
AcDbLine
 62
     253
 10
0.0757922
 20
36.7743
 30
0.0
 11
10.0762
 21
36.7743
 31
0.0
  0
LINE
  5
2f7
100
AcDbEntity
  8
0
100
AcDbLine
 62
     253
 10
10.0762
 20
36.7743
 30
0.0
 11
10.0762
 21
41.7738
 31
0.0
  0
LINE
  5
2f8
100
AcDbEntity
  8
0
100
AcDbLine
 62
     253
 10
10.0762
 20
41.7738
 30
0.0
 11
10.0762
 21
36.7743
 31
0.0
  0
LINE
  5
2f9
100
AcDbEntity
  8
0
100
AcDbLine
 62
     253
 10
1.07625
 20
27.7744
 30
0.0
 11
1.07625
 21
26.7739
 31
0.0
  0
LINE
  5
2fa
100
AcDbEntity
  8
0
100
AcDbLine
 62
     253
 10
1.07625
 20
26.7739
 30
0.0
 11
9.07577
 21
26.7739
 31
0.0
  0
LINE
  5
2fb
100
AcDbEntity
  8
0
100
AcDbLine
 62
     253
 10
1.07625
 20
27.7744
 30
0.0
 11
9.07577
 21
27.7744
 31
0.0
  0
LINE
  5
2fc
100
AcDbEntity
  8
0
100
AcDbLine
 62
     253
 10
1.07625
 20
50.7739
 30
0.0
 11
9.07577
 21
50.7739
 31
0.0
  0
LINE
  5
2fd
100
AcDbEntity
  8
0
100
AcDbLine
 62
     253
 10
9.07577
 20
27.7744
 30
0.0
 11
9.07577
 21
50.7739
 31
0.0
  0
LINE
  5
2fe
100
AcDbEntity
  8
0
100
AcDbLine
 62
     253
 10
1.07625
 20
50.7739
 30
0.0
 11
1.07625
 21
51.7744
 31
0.0
  0
LINE
  5
2ff
100
AcDbEntity
  8
0
100
AcDbLine
 62
     253
 10
1.07625
 20
51.7744
 30
0.0
 11
9.07577
 21
51.7744
 31
0.0
  0
LINE
  5
300
100
AcDbEntity
  8
0
100
AcDbLine
 62
     253
 10
10.0762
 20
27.7744
 30
0.0
 11
10.0762
 21
50.7739
 31
0.0
  0
LINE
  5
301
100
AcDbEntity
  8
0
100
AcDbLine
 62
     253
 10
9.07577
 20
27.7744
 30
0.0
 11
9.07577
 21
26.7739
 31
0.0
  0
LINE
  5
302
100
AcDbEntity
  8
0
100
AcDbLine
 62
     253
 10
10.0762
 20
27.7744
 30
0.0
 11
9.07577
 21
26.7739
 31
0.0
  0
LINE
  5
303
100
AcDbEntity
  8
0
100
AcDbLine
 62
     253
 10
9.07577
 20
50.7739
 30
0.0
 11
9.07577
 21
51.7744
 31
0.0
  0
LINE
  5
304
100
AcDbEntity
  8
0
100
AcDbLine
 62
     253
 10
9.07577
 20
27.7744
 30
0.0
 11
10.0762
 21
27.7744
 31
0.0
  0
LINE
  5
305
100
AcDbEntity
  8
0
100
AcDbLine
 62
     253
 10
9.07577
 20
50.7739
 30
0.0
 11
10.0762
 21
50.7739
 31
0.0
  0
LINE
  5
306
100
AcDbEntity
  8
0
100
AcDbLine
 62
     253
 10
10.0762
 20
50.7739
 30
0.0
 11
9.07577
 21
51.7744
 31
0.0
  0
LINE
  5
307
100
AcDbEntity
  8
0
100
AcDbLine
 62
     253
 10
25.0762
 20
41.7738
 30
0.0
 11
15.0757
 21
41.7738
 31
0.0
  0
LINE
  5
308
100
AcDbEntity
  8
0
100
AcDbLine
 62
     253
 10
25.0762
 20
41.7738
 30
0.0
 11
15.0757
 21
41.7738
 31
0.0
  0
LINE
  5
309
100
AcDbEntity
  8
0
100
AcDbLine
 62
     253
 10
25.0762
 20
41.7738
 30
0.0
 11
15.0757
 21
41.7738
 31
0.0
  0
LINE
  5
30a
100
AcDbEntity
  8
0
100
AcDbLine
 62
     253
 10
25.0762
 20
41.7738
 30
0.0
 11
15.0757
 21
41.7738
 31
0.0
  0
LINE
  5
30b
100
AcDbEntity
  8
0
100
AcDbLine
 62
     253
 10
25.0762
 20
41.7738
 30
0.0
 11
15.0757
 21
41.7738
 31
0.0
  0
LINE
  5
30c
100
AcDbEntity
  8
0
100
AcDbLine
 62
     253
 10
25.0762
 20
41.7738
 30
0.0
 11
15.0757
 21
41.7738
 31
0.0
  0
LINE
  5
30d
100
AcDbEntity
  8
0
100
AcDbLine
 62
     253
 10
25.0762
 20
41.7738
 30
0.0
 11
15.0757
 21
41.7738
 31
0.0
  0
LINE
  5
30e
100
AcDbEntity
  8
0
100
AcDbLine
 62
     253
 10
25.0762
 20
41.7738
 30
0.0
 11
15.0757
 21
41.7738
 31
0.0
  0
LINE
  5
30f
100
AcDbEntity
  8
0
100
AcDbLine
 62
     253
 10
25.0762
 20
41.7738
 30
0.0
 11
15.0757
 21
41.7738
 31
0.0
  0
LINE
  5
310
100
AcDbEntity
  8
0
100
AcDbLine
 62
     253
 10
25.0762
 20
41.7738
 30
0.0
 11
15.0757
 21
41.7738
 31
0.0
  0
LINE
  5
311
100
AcDbEntity
  8
0
100
AcDbLine
 62
     253
 10
10.0762
 20
41.7738
 30
0.0
 11
0.0757922
 21
41.7738
 31
0.0
  0
LINE
  5
312
100
AcDbEntity
  8
0
100
AcDbLine
 62
     253
 10
10.0762
 20
41.7738
 30
0.0
 11
0.0757922
 21
41.7738
 31
0.0
  0
LINE
  5
313
100
AcDbEntity
  8
0
100
AcDbLine
 62
     253
 10
10.0762
 20
41.7738
 30
0.0
 11
0.0757922
 21
41.7738
 31
0.0
  0
LINE
  5
314
100
AcDbEntity
  8
0
100
AcDbLine
 62
     253
 10
10.0762
 20
41.7738
 30
0.0
 11
0.0757922
 21
41.7738
 31
0.0
  0
LINE
  5
315
100
AcDbEntity
  8
0
100
AcDbLine
 62
     253
 10
10.0762
 20
41.7738
 30
0.0
 11
0.0757922
 21
41.7738
 31
0.0
  0
LINE
  5
316
100
AcDbEntity
  8
0
100
AcDbLine
 62
     253
 10
10.0762
 20
41.7738
 30
0.0
 11
0.0757922
 21
41.7738
 31
0.0
  0
LINE
  5
317
100
AcDbEntity
  8
0
100
AcDbLine
 62
     253
 10
10.0762
 20
41.7738
 30
0.0
 11
0.0757922
 21
41.7738
 31
0.0
  0
LINE
  5
318
100
AcDbEntity
  8
0
100
AcDbLine
 62
     253
 10
10.0762
 20
41.7738
 30
0.0
 11
0.0757922
 21
41.7738
 31
0.0
  0
LINE
  5
319
100
AcDbEntity
  8
0
100
AcDbLine
 62
     253
 10
10.0762
 20
41.7738
 30
0.0
 11
0.0757922
 21
41.7738
 31
0.0
  0
LINE
  5
31a
100
AcDbEntity
  8
0
100
AcDbLine
 62
     253
 10
10.0762
 20
41.7738
 30
0.0
 11
0.0757922
 21
41.7738
 31
0.0
  0
LINE
  5
31b
100
AcDbEntity
  8
0
100
AcDbLine
 62
     253
 10
215.586
 20
5.07118
 30
0.0
 11
206.147
 21
13.7735
 31
0.0
  0
LINE
  5
31c
100
AcDbEntity
  8
0
100
AcDbLine
 62
     253
 10
206.147
 20
13.7735
 30
0.0
 11
206.147
 21
512.389
 31
0.0
  0
SPLINE
  5
31d
100
AcDbEntity
  8
0
100
AcDbSpline
210
0.0
220
0.0
230
1.0
 62
     253
 70
     0
 71
     3
 72
     8
 73
4
 40
0.0
 40
0.0
 40
0.0
 40
0.0
 40
1.0
 40
1.0
 40
1.0
 40
1.0
 10
211.893
 20
149.735
 30
0.0
 10
211.893
 20
150.523
 30
0.0
 10
211.709
 20
151.426
 30
0.0
 10
211.406
 20
152.119
 30
0.0
  0
SPLINE
  5
31e
100
AcDbEntity
  8
0
100
AcDbSpline
210
0.0
220
0.0
230
1.0
 62
     253
 70
     0
 71
     3
 72
     8
 73
4
 40
0.0
 40
0.0
 40
0.0
 40
0.0
 40
1.0
 40
1.0
 40
1.0
 40
1.0
 10
211.406
 20
152.119
 30
0.0
 10
211.104
 20
152.812
 30
0.0
 10
210.727
 20
153.198
 30
0.0
 10
210.409
 20
153.139
 30
0.0
  0
SPLINE
  5
31f
100
AcDbEntity
  8
0
100
AcDbSpline
210
0.0
220
0.0
230
1.0
 62
     253
 70
     0
 71
     3
 72
     8
 73
4
 40
0.0
 40
0.0
 40
0.0
 40
0.0
 40
1.0
 40
1.0
 40
1.0
 40
1.0
 10
210.409
 20
153.139
 30
0.0
 10
209.901
 20
153.045
 30
0.0
 10
209.696
 20
151.868
 30
0.0
 10
209.95
 20
150.509
 30
0.0
  0
SPLINE
  5
320
100
AcDbEntity
  8
0
100
AcDbSpline
210
0.0
220
0.0
230
1.0
 62
     253
 70
     0
 71
     3
 72
     8
 73
4
 40
0.0
 40
0.0
 40
0.0
 40
0.0
 40
1.0
 40
1.0
 40
1.0
 40
1.0
 10
209.95
 20
150.509
 30
0.0
 10
210.203
 20
149.152
 30
0.0
 10
210.819
 20
148.13
 30
0.0
 10
211.326
 20
148.223
 30
0.0
  0
SPLINE
  5
321
100
AcDbEntity
  8
0
100
AcDbSpline
210
0.0
220
0.0
230
1.0
 62
     253
 70
     0
 71
     3
 72
     8
 73
4
 40
0.0
 40
0.0
 40
0.0
 40
0.0
 40
1.0
 40
1.0
 40
1.0
 40
1.0
 10
211.326
 20
148.223
 30
0.0
 10
211.674
 20
148.288
 30
0.0
 10
211.893
 20
148.874
 30
0.0
 10
211.893
 20
149.735
 30
0.0
  0
SPLINE
  5
322
100
AcDbEntity
  8
0
100
AcDbSpline
210
0.0
220
0.0
230
1.0
 62
     253
 70
     0
 71
     3
 72
     8
 73
4
 40
0.0
 40
0.0
 40
0.0
 40
0.0
 40
1.0
 40
1.0
 40
1.0
 40
1.0
 10
211.893
 20
252.097
 30
0.0
 10
211.893
 20
252.885
 30
0.0
 10
211.709
 20
253.788
 30
0.0
 10
211.406
 20
254.481
 30
0.0
  0
SPLINE
  5
323
100
AcDbEntity
  8
0
100
AcDbSpline
210
0.0
220
0.0
230
1.0
 62
     253
 70
     0
 71
     3
 72
     8
 73
4
 40
0.0
 40
0.0
 40
0.0
 40
0.0
 40
1.0
 40
1.0
 40
1.0
 40
1.0
 10
211.406
 20
254.481
 30
0.0
 10
211.104
 20
255.174
 30
0.0
 10
210.727
 20
255.56
 30
0.0
 10
210.409
 20
255.501
 30
0.0
  0
SPLINE
  5
324
100
AcDbEntity
  8
0
100
AcDbSpline
210
0.0
220
0.0
230
1.0
 62
     253
 70
     0
 71
     3
 72
     8
 73
4
 40
0.0
 40
0.0
 40
0.0
 40
0.0
 40
1.0
 40
1.0
 40
1.0
 40
1.0
 10
210.409
 20
255.501
 30
0.0
 10
209.901
 20
255.405
 30
0.0
 10
209.696
 20
254.229
 30
0.0
 10
209.95
 20
252.871
 30
0.0
  0
SPLINE
  5
325
100
AcDbEntity
  8
0
100
AcDbSpline
210
0.0
220
0.0
230
1.0
 62
     253
 70
     0
 71
     3
 72
     8
 73
4
 40
0.0
 40
0.0
 40
0.0
 40
0.0
 40
1.0
 40
1.0
 40
1.0
 40
1.0
 10
209.95
 20
252.871
 30
0.0
 10
210.203
 20
251.514
 30
0.0
 10
210.819
 20
250.49
 30
0.0
 10
211.326
 20
250.585
 30
0.0
  0
SPLINE
  5
326
100
AcDbEntity
  8
0
100
AcDbSpline
210
0.0
220
0.0
230
1.0
 62
     253
 70
     0
 71
     3
 72
     8
 73
4
 40
0.0
 40
0.0
 40
0.0
 40
0.0
 40
1.0
 40
1.0
 40
1.0
 40
1.0
 10
211.326
 20
250.585
 30
0.0
 10
211.674
 20
250.65
 30
0.0
 10
211.893
 20
251.236
 30
0.0
 10
211.893
 20
252.097
 30
0.0
  0
SPLINE
  5
327
100
AcDbEntity
  8
0
100
AcDbSpline
210
0.0
220
0.0
230
1.0
 62
     253
 70
     0
 71
     3
 72
     8
 73
4
 40
0.0
 40
0.0
 40
0.0
 40
0.0
 40
1.0
 40
1.0
 40
1.0
 40
1.0
 10
211.893
 20
231.625
 30
0.0
 10
211.893
 20
232.413
 30
0.0
 10
211.709
 20
233.314
 30
0.0
 10
211.406
 20
234.009
 30
0.0
  0
SPLINE
  5
328
100
AcDbEntity
  8
0
100
AcDbSpline
210
0.0
220
0.0
230
1.0
 62
     253
 70
     0
 71
     3
 72
     8
 73
4
 40
0.0
 40
0.0
 40
0.0
 40
0.0
 40
1.0
 40
1.0
 40
1.0
 40
1.0
 10
211.406
 20
234.009
 30
0.0
 10
211.104
 20
234.702
 30
0.0
 10
210.727
 20
235.088
 30
0.0
 10
210.409
 20
235.029
 30
0.0
  0
SPLINE
  5
329
100
AcDbEntity
  8
0
100
AcDbSpline
210
0.0
220
0.0
230
1.0
 62
     253
 70
     0
 71
     3
 72
     8
 73
4
 40
0.0
 40
0.0
 40
0.0
 40
0.0
 40
1.0
 40
1.0
 40
1.0
 40
1.0
 10
210.409
 20
235.029
 30
0.0
 10
209.901
 20
234.933
 30
0.0
 10
209.696
 20
233.757
 30
0.0
 10
209.95
 20
232.399
 30
0.0
  0
SPLINE
  5
32a
100
AcDbEntity
  8
0
100
AcDbSpline
210
0.0
220
0.0
230
1.0
 62
     253
 70
     0
 71
     3
 72
     8
 73
4
 40
0.0
 40
0.0
 40
0.0
 40
0.0
 40
1.0
 40
1.0
 40
1.0
 40
1.0
 10
209.95
 20
232.399
 30
0.0
 10
210.203
 20
231.042
 30
0.0
 10
210.819
 20
230.018
 30
0.0
 10
211.326
 20
230.113
 30
0.0
  0
SPLINE
  5
32b
100
AcDbEntity
  8
0
100
AcDbSpline
210
0.0
220
0.0
230
1.0
 62
     253
 70
     0
 71
     3
 72
     8
 73
4
 40
0.0
 40
0.0
 40
0.0
 40
0.0
 40
1.0
 40
1.0
 40
1.0
 40
1.0
 10
211.326
 20
230.113
 30
0.0
 10
211.674
 20
230.178
 30
0.0
 10
211.893
 20
230.764
 30
0.0
 10
211.893
 20
231.625
 30
0.0
  0
SPLINE
  5
32c
100
AcDbEntity
  8
0
100
AcDbSpline
210
0.0
220
0.0
230
1.0
 62
     253
 70
     0
 71
     3
 72
     8
 73
4
 40
0.0
 40
0.0
 40
0.0
 40
0.0
 40
1.0
 40
1.0
 40
1.0
 40
1.0
 10
211.893
 20
456.823
 30
0.0
 10
211.893
 20
457.609
 30
0.0
 10
211.709
 20
458.509
 30
0.0
 10
211.406
 20
459.204
 30
0.0
  0
SPLINE
  5
32d
100
AcDbEntity
  8
0
100
AcDbSpline
210
0.0
220
0.0
230
1.0
 62
     253
 70
     0
 71
     3
 72
     8
 73
4
 40
0.0
 40
0.0
 40
0.0
 40
0.0
 40
1.0
 40
1.0
 40
1.0
 40
1.0
 10
211.406
 20
459.204
 30
0.0
 10
211.104
 20
459.895
 30
0.0
 10
210.727
 20
460.283
 30
0.0
 10
210.409
 20
460.223
 30
0.0
  0
SPLINE
  5
32e
100
AcDbEntity
  8
0
100
AcDbSpline
210
0.0
220
0.0
230
1.0
 62
     253
 70
     0
 71
     3
 72
     8
 73
4
 40
0.0
 40
0.0
 40
0.0
 40
0.0
 40
1.0
 40
1.0
 40
1.0
 40
1.0
 10
210.409
 20
460.223
 30
0.0
 10
209.901
 20
460.128
 30
0.0
 10
209.696
 20
458.95
 30
0.0
 10
209.95
 20
457.595
 30
0.0
  0
SPLINE
  5
32f
100
AcDbEntity
  8
0
100
AcDbSpline
210
0.0
220
0.0
230
1.0
 62
     253
 70
     0
 71
     3
 72
     8
 73
4
 40
0.0
 40
0.0
 40
0.0
 40
0.0
 40
1.0
 40
1.0
 40
1.0
 40
1.0
 10
209.95
 20
457.595
 30
0.0
 10
210.203
 20
456.237
 30
0.0
 10
210.819
 20
455.214
 30
0.0
 10
211.326
 20
455.309
 30
0.0
  0
SPLINE
  5
330
100
AcDbEntity
  8
0
100
AcDbSpline
210
0.0
220
0.0
230
1.0
 62
     253
 70
     0
 71
     3
 72
     8
 73
4
 40
0.0
 40
0.0
 40
0.0
 40
0.0
 40
1.0
 40
1.0
 40
1.0
 40
1.0
 10
211.326
 20
455.309
 30
0.0
 10
211.674
 20
455.373
 30
0.0
 10
211.893
 20
455.958
 30
0.0
 10
211.893
 20
456.823
 30
0.0
  0
SPLINE
  5
331
100
AcDbEntity
  8
0
100
AcDbSpline
210
0.0
220
0.0
230
1.0
 62
     253
 70
     0
 71
     3
 72
     8
 73
4
 40
0.0
 40
0.0
 40
0.0
 40
0.0
 40
1.0
 40
1.0
 40
1.0
 40
1.0
 10
211.893
 20
436.347
 30
0.0
 10
211.893
 20
437.138
 30
0.0
 10
211.709
 20
438.037
 30
0.0
 10
211.406
 20
438.732
 30
0.0
  0
SPLINE
  5
332
100
AcDbEntity
  8
0
100
AcDbSpline
210
0.0
220
0.0
230
1.0
 62
     253
 70
     0
 71
     3
 72
     8
 73
4
 40
0.0
 40
0.0
 40
0.0
 40
0.0
 40
1.0
 40
1.0
 40
1.0
 40
1.0
 10
211.406
 20
438.732
 30
0.0
 10
211.104
 20
439.424
 30
0.0
 10
210.727
 20
439.812
 30
0.0
 10
210.409
 20
439.752
 30
0.0
  0
SPLINE
  5
333
100
AcDbEntity
  8
0
100
AcDbSpline
210
0.0
220
0.0
230
1.0
 62
     253
 70
     0
 71
     3
 72
     8
 73
4
 40
0.0
 40
0.0
 40
0.0
 40
0.0
 40
1.0
 40
1.0
 40
1.0
 40
1.0
 10
210.409
 20
439.752
 30
0.0
 10
209.901
 20
439.656
 30
0.0
 10
209.696
 20
438.478
 30
0.0
 10
209.95
 20
437.123
 30
0.0
  0
SPLINE
  5
334
100
AcDbEntity
  8
0
100
AcDbSpline
210
0.0
220
0.0
230
1.0
 62
     253
 70
     0
 71
     3
 72
     8
 73
4
 40
0.0
 40
0.0
 40
0.0
 40
0.0
 40
1.0
 40
1.0
 40
1.0
 40
1.0
 10
209.95
 20
437.123
 30
0.0
 10
210.203
 20
435.765
 30
0.0
 10
210.819
 20
434.742
 30
0.0
 10
211.326
 20
434.837
 30
0.0
  0
SPLINE
  5
335
100
AcDbEntity
  8
0
100
AcDbSpline
210
0.0
220
0.0
230
1.0
 62
     253
 70
     0
 71
     3
 72
     8
 73
4
 40
0.0
 40
0.0
 40
0.0
 40
0.0
 40
1.0
 40
1.0
 40
1.0
 40
1.0
 10
211.326
 20
434.837
 30
0.0
 10
211.674
 20
434.901
 30
0.0
 10
211.893
 20
435.487
 30
0.0
 10
211.893
 20
436.347
 30
0.0
  0
SPLINE
  5
336
100
AcDbEntity
  8
0
100
AcDbSpline
210
0.0
220
0.0
230
1.0
 62
     253
 70
     0
 71
     3
 72
     8
 73
4
 40
0.0
 40
0.0
 40
0.0
 40
0.0
 40
1.0
 40
1.0
 40
1.0
 40
1.0
 10
211.893
 20
354.461
 30
0.0
 10
211.893
 20
355.247
 30
0.0
 10
211.709
 20
356.147
 30
0.0
 10
211.406
 20
356.842
 30
0.0
  0
SPLINE
  5
337
100
AcDbEntity
  8
0
100
AcDbSpline
210
0.0
220
0.0
230
1.0
 62
     253
 70
     0
 71
     3
 72
     8
 73
4
 40
0.0
 40
0.0
 40
0.0
 40
0.0
 40
1.0
 40
1.0
 40
1.0
 40
1.0
 10
211.406
 20
356.842
 30
0.0
 10
211.104
 20
357.537
 30
0.0
 10
210.727
 20
357.921
 30
0.0
 10
210.409
 20
357.861
 30
0.0
  0
SPLINE
  5
338
100
AcDbEntity
  8
0
100
AcDbSpline
210
0.0
220
0.0
230
1.0
 62
     253
 70
     0
 71
     3
 72
     8
 73
4
 40
0.0
 40
0.0
 40
0.0
 40
0.0
 40
1.0
 40
1.0
 40
1.0
 40
1.0
 10
210.409
 20
357.861
 30
0.0
 10
209.901
 20
357.766
 30
0.0
 10
209.696
 20
356.591
 30
0.0
 10
209.95
 20
355.233
 30
0.0
  0
SPLINE
  5
339
100
AcDbEntity
  8
0
100
AcDbSpline
210
0.0
220
0.0
230
1.0
 62
     253
 70
     0
 71
     3
 72
     8
 73
4
 40
0.0
 40
0.0
 40
0.0
 40
0.0
 40
1.0
 40
1.0
 40
1.0
 40
1.0
 10
209.95
 20
355.233
 30
0.0
 10
210.203
 20
353.875
 30
0.0
 10
210.819
 20
352.852
 30
0.0
 10
211.326
 20
352.947
 30
0.0
  0
SPLINE
  5
33a
100
AcDbEntity
  8
0
100
AcDbSpline
210
0.0
220
0.0
230
1.0
 62
     253
 70
     0
 71
     3
 72
     8
 73
4
 40
0.0
 40
0.0
 40
0.0
 40
0.0
 40
1.0
 40
1.0
 40
1.0
 40
1.0
 10
211.326
 20
352.947
 30
0.0
 10
211.674
 20
353.011
 30
0.0
 10
211.893
 20
353.596
 30
0.0
 10
211.893
 20
354.461
 30
0.0
  0
SPLINE
  5
33b
100
AcDbEntity
  8
0
100
AcDbSpline
210
0.0
220
0.0
230
1.0
 62
     253
 70
     0
 71
     3
 72
     8
 73
4
 40
0.0
 40
0.0
 40
0.0
 40
0.0
 40
1.0
 40
1.0
 40
1.0
 40
1.0
 10
211.893
 20
333.987
 30
0.0
 10
211.893
 20
334.775
 30
0.0
 10
211.709
 20
335.676
 30
0.0
 10
211.406
 20
336.369
 30
0.0
  0
SPLINE
  5
33c
100
AcDbEntity
  8
0
100
AcDbSpline
210
0.0
220
0.0
230
1.0
 62
     253
 70
     0
 71
     3
 72
     8
 73
4
 40
0.0
 40
0.0
 40
0.0
 40
0.0
 40
1.0
 40
1.0
 40
1.0
 40
1.0
 10
211.406
 20
336.369
 30
0.0
 10
211.104
 20
337.063
 30
0.0
 10
210.727
 20
337.449
 30
0.0
 10
210.409
 20
337.389
 30
0.0
  0
SPLINE
  5
33d
100
AcDbEntity
  8
0
100
AcDbSpline
210
0.0
220
0.0
230
1.0
 62
     253
 70
     0
 71
     3
 72
     8
 73
4
 40
0.0
 40
0.0
 40
0.0
 40
0.0
 40
1.0
 40
1.0
 40
1.0
 40
1.0
 10
210.409
 20
337.389
 30
0.0
 10
209.901
 20
337.295
 30
0.0
 10
209.696
 20
336.119
 30
0.0
 10
209.95
 20
334.761
 30
0.0
  0
SPLINE
  5
33e
100
AcDbEntity
  8
0
100
AcDbSpline
210
0.0
220
0.0
230
1.0
 62
     253
 70
     0
 71
     3
 72
     8
 73
4
 40
0.0
 40
0.0
 40
0.0
 40
0.0
 40
1.0
 40
1.0
 40
1.0
 40
1.0
 10
209.95
 20
334.761
 30
0.0
 10
210.203
 20
333.404
 30
0.0
 10
210.819
 20
332.38
 30
0.0
 10
211.326
 20
332.475
 30
0.0
  0
SPLINE
  5
33f
100
AcDbEntity
  8
0
100
AcDbSpline
210
0.0
220
0.0
230
1.0
 62
     253
 70
     0
 71
     3
 72
     8
 73
4
 40
0.0
 40
0.0
 40
0.0
 40
0.0
 40
1.0
 40
1.0
 40
1.0
 40
1.0
 10
211.326
 20
332.475
 30
0.0
 10
211.674
 20
332.54
 30
0.0
 10
211.893
 20
333.124
 30
0.0
 10
211.893
 20
333.987
 30
0.0
  0
SPLINE
  5
340
100
AcDbEntity
  8
0
100
AcDbSpline
210
0.0
220
0.0
230
1.0
 62
     253
 70
     0
 71
     3
 72
     8
 73
4
 40
0.0
 40
0.0
 40
0.0
 40
0.0
 40
1.0
 40
1.0
 40
1.0
 40
1.0
 10
211.893
 20
26.9021
 30
0.0
 10
211.893
 20
27.6889
 30
0.0
 10
211.709
 20
28.5915
 30
0.0
 10
211.406
 20
29.2861
 30
0.0
  0
SPLINE
  5
341
100
AcDbEntity
  8
0
100
AcDbSpline
210
0.0
220
0.0
230
1.0
 62
     253
 70
     0
 71
     3
 72
     8
 73
4
 40
0.0
 40
0.0
 40
0.0
 40
0.0
 40
1.0
 40
1.0
 40
1.0
 40
1.0
 10
211.406
 20
29.2861
 30
0.0
 10
211.104
 20
29.9779
 30
0.0
 10
210.727
 20
30.3651
 30
0.0
 10
210.409
 20
30.3044
 30
0.0
  0
SPLINE
  5
342
100
AcDbEntity
  8
0
100
AcDbSpline
210
0.0
220
0.0
230
1.0
 62
     253
 70
     0
 71
     3
 72
     8
 73
4
 40
0.0
 40
0.0
 40
0.0
 40
0.0
 40
1.0
 40
1.0
 40
1.0
 40
1.0
 10
210.409
 20
30.3044
 30
0.0
 10
209.901
 20
30.2107
 30
0.0
 10
209.696
 20
29.0339
 30
0.0
 10
209.95
 20
27.6765
 30
0.0
  0
SPLINE
  5
343
100
AcDbEntity
  8
0
100
AcDbSpline
210
0.0
220
0.0
230
1.0
 62
     253
 70
     0
 71
     3
 72
     8
 73
4
 40
0.0
 40
0.0
 40
0.0
 40
0.0
 40
1.0
 40
1.0
 40
1.0
 40
1.0
 10
209.95
 20
27.6765
 30
0.0
 10
210.203
 20
26.3192
 30
0.0
 10
210.819
 20
25.2953
 30
0.0
 10
211.326
 20
25.389
 30
0.0
  0
SPLINE
  5
344
100
AcDbEntity
  8
0
100
AcDbSpline
210
0.0
220
0.0
230
1.0
 62
     253
 70
     0
 71
     3
 72
     8
 73
4
 40
0.0
 40
0.0
 40
0.0
 40
0.0
 40
1.0
 40
1.0
 40
1.0
 40
1.0
 10
211.326
 20
25.389
 30
0.0
 10
211.674
 20
25.4551
 30
0.0
 10
211.893
 20
26.0394
 30
0.0
 10
211.893
 20
26.9021
 30
0.0
  0
SPLINE
  5
345
100
AcDbEntity
  8
0
100
AcDbSpline
210
0.0
220
0.0
230
1.0
 62
     253
 70
     0
 71
     3
 72
     8
 73
4
 40
0.0
 40
0.0
 40
0.0
 40
0.0
 40
1.0
 40
1.0
 40
1.0
 40
1.0
 10
211.893
 20
47.3728
 30
0.0
 10
211.893
 20
48.1623
 30
0.0
 10
211.709
 20
49.065
 30
0.0
 10
211.406
 20
49.7568
 30
0.0
  0
SPLINE
  5
346
100
AcDbEntity
  8
0
100
AcDbSpline
210
0.0
220
0.0
230
1.0
 62
     253
 70
     0
 71
     3
 72
     8
 73
4
 40
0.0
 40
0.0
 40
0.0
 40
0.0
 40
1.0
 40
1.0
 40
1.0
 40
1.0
 10
211.406
 20
49.7568
 30
0.0
 10
211.104
 20
50.45
 30
0.0
 10
210.727
 20
50.836
 30
0.0
 10
210.409
 20
50.7781
 30
0.0
  0
SPLINE
  5
347
100
AcDbEntity
  8
0
100
AcDbSpline
210
0.0
220
0.0
230
1.0
 62
     253
 70
     0
 71
     3
 72
     8
 73
4
 40
0.0
 40
0.0
 40
0.0
 40
0.0
 40
1.0
 40
1.0
 40
1.0
 40
1.0
 10
210.409
 20
50.7781
 30
0.0
 10
209.901
 20
50.6829
 30
0.0
 10
209.696
 20
49.506
 30
0.0
 10
209.95
 20
48.1485
 30
0.0
  0
SPLINE
  5
348
100
AcDbEntity
  8
0
100
AcDbSpline
210
0.0
220
0.0
230
1.0
 62
     253
 70
     0
 71
     3
 72
     8
 73
4
 40
0.0
 40
0.0
 40
0.0
 40
0.0
 40
1.0
 40
1.0
 40
1.0
 40
1.0
 10
209.95
 20
48.1485
 30
0.0
 10
210.203
 20
46.7914
 30
0.0
 10
210.819
 20
45.7673
 30
0.0
 10
211.326
 20
45.8625
 30
0.0
  0
SPLINE
  5
349
100
AcDbEntity
  8
0
100
AcDbSpline
210
0.0
220
0.0
230
1.0
 62
     253
 70
     0
 71
     3
 72
     8
 73
4
 40
0.0
 40
0.0
 40
0.0
 40
0.0
 40
1.0
 40
1.0
 40
1.0
 40
1.0
 10
211.326
 20
45.8625
 30
0.0
 10
211.674
 20
45.9274
 30
0.0
 10
211.893
 20
46.513
 30
0.0
 10
211.893
 20
47.3728
 30
0.0
  0
SPLINE
  5
34a
100
AcDbEntity
  8
0
100
AcDbSpline
210
0.0
220
0.0
230
1.0
 62
     253
 70
     0
 71
     3
 72
     8
 73
4
 40
0.0
 40
0.0
 40
0.0
 40
0.0
 40
1.0
 40
1.0
 40
1.0
 40
1.0
 10
211.893
 20
129.264
 30
0.0
 10
211.893
 20
130.051
 30
0.0
 10
211.709
 20
130.954
 30
0.0
 10
211.406
 20
131.647
 30
0.0
  0
SPLINE
  5
34b
100
AcDbEntity
  8
0
100
AcDbSpline
210
0.0
220
0.0
230
1.0
 62
     253
 70
     0
 71
     3
 72
     8
 73
4
 40
0.0
 40
0.0
 40
0.0
 40
0.0
 40
1.0
 40
1.0
 40
1.0
 40
1.0
 10
211.406
 20
131.647
 30
0.0
 10
211.104
 20
132.34
 30
0.0
 10
210.727
 20
132.726
 30
0.0
 10
210.409
 20
132.667
 30
0.0
  0
SPLINE
  5
34c
100
AcDbEntity
  8
0
100
AcDbSpline
210
0.0
220
0.0
230
1.0
 62
     253
 70
     0
 71
     3
 72
     8
 73
4
 40
0.0
 40
0.0
 40
0.0
 40
0.0
 40
1.0
 40
1.0
 40
1.0
 40
1.0
 10
210.409
 20
132.667
 30
0.0
 10
209.901
 20
132.571
 30
0.0
 10
209.696
 20
131.395
 30
0.0
 10
209.95
 20
130.037
 30
0.0
  0
SPLINE
  5
34d
100
AcDbEntity
  8
0
100
AcDbSpline
210
0.0
220
0.0
230
1.0
 62
     253
 70
     0
 71
     3
 72
     8
 73
4
 40
0.0
 40
0.0
 40
0.0
 40
0.0
 40
1.0
 40
1.0
 40
1.0
 40
1.0
 10
209.95
 20
130.037
 30
0.0
 10
210.203
 20
128.68
 30
0.0
 10
210.819
 20
127.656
 30
0.0
 10
211.326
 20
127.751
 30
0.0
  0
SPLINE
  5
34e
100
AcDbEntity
  8
0
100
AcDbSpline
210
0.0
220
0.0
230
1.0
 62
     253
 70
     0
 71
     3
 72
     8
 73
4
 40
0.0
 40
0.0
 40
0.0
 40
0.0
 40
1.0
 40
1.0
 40
1.0
 40
1.0
 10
211.326
 20
127.751
 30
0.0
 10
211.674
 20
127.816
 30
0.0
 10
211.893
 20
128.402
 30
0.0
 10
211.893
 20
129.264
 30
0.0
  0
LINE
  5
34f
100
AcDbEntity
  8
0
100
AcDbLine
 62
     253
 10
214.675
 20
3.9908
 30
0.0
 11
205.236
 21
12.6931
 31
0.0
  0
LINE
  5
350
100
AcDbEntity
  8
0
100
AcDbLine
 62
     253
 10
205.236
 20
12.6931
 30
0.0
 11
206.147
 21
13.7735
 31
0.0
  0
LINE
  5
351
100
AcDbEntity
  8
0
100
AcDbLine
 62
     253
 10
206.147
 20
13.7735
 30
0.0
 11
204.826
 21
13.9816
 31
0.0
  0
LINE
  5
352
100
AcDbEntity
  8
0
100
AcDbLine
 62
     253
 10
204.826
 20
512.597
 30
0.0
 11
206.147
 21
512.389
 31
0.0
  0
LINE
  5
353
100
AcDbEntity
  8
0
100
AcDbLine
 62
     253
 10
204.826
 20
13.9816
 30
0.0
 11
204.826
 21
512.597
 31
0.0
  0
SPLINE
  5
354
100
AcDbEntity
  8
0
100
AcDbSpline
210
0.0
220
0.0
230
1.0
 62
     253
 70
     0
 71
     3
 72
     8
 73
4
 40
0.0
 40
0.0
 40
0.0
 40
0.0
 40
1.0
 40
1.0
 40
1.0
 40
1.0
 10
201.907
 20
151.078
 30
0.0
 10
201.696
 20
151.346
 30
0.0
 10
201.48
 20
151.473
 30
0.0
 10
201.289
 20
151.437
 30
0.0
  0
SPLINE
  5
355
100
AcDbEntity
  8
0
100
AcDbSpline
210
0.0
220
0.0
230
1.0
 62
     253
 70
     0
 71
     3
 72
     8
 73
4
 40
0.0
 40
0.0
 40
0.0
 40
0.0
 40
1.0
 40
1.0
 40
1.0
 40
1.0
 10
201.289
 20
151.437
 30
0.0
 10
200.837
 20
151.351
 30
0.0
 10
200.616
 20
150.396
 30
0.0
 10
200.77
 20
149.185
 30
0.0
  0
SPLINE
  5
356
100
AcDbEntity
  8
0
100
AcDbSpline
210
0.0
220
0.0
230
1.0
 62
     253
 70
     0
 71
     3
 72
     8
 73
4
 40
0.0
 40
0.0
 40
0.0
 40
0.0
 40
1.0
 40
1.0
 40
1.0
 40
1.0
 10
200.77
 20
149.185
 30
0.0
 10
200.925
 20
147.975
 30
0.0
 10
201.407
 20
146.87
 30
0.0
 10
201.907
 20
146.585
 30
0.0
  0
SPLINE
  5
357
100
AcDbEntity
  8
0
100
AcDbSpline
210
0.0
220
0.0
230
1.0
 62
     253
 70
     0
 71
     3
 72
     8
 73
4
 40
0.0
 40
0.0
 40
0.0
 40
0.0
 40
1.0
 40
1.0
 40
1.0
 40
1.0
 10
201.907
 20
253.44
 30
0.0
 10
201.696
 20
253.708
 30
0.0
 10
201.48
 20
253.833
 30
0.0
 10
201.289
 20
253.798
 30
0.0
  0
SPLINE
  5
358
100
AcDbEntity
  8
0
100
AcDbSpline
210
0.0
220
0.0
230
1.0
 62
     253
 70
     0
 71
     3
 72
     8
 73
4
 40
0.0
 40
0.0
 40
0.0
 40
0.0
 40
1.0
 40
1.0
 40
1.0
 40
1.0
 10
201.289
 20
253.798
 30
0.0
 10
200.837
 20
253.714
 30
0.0
 10
200.616
 20
252.758
 30
0.0
 10
200.77
 20
251.547
 30
0.0
  0
SPLINE
  5
359
100
AcDbEntity
  8
0
100
AcDbSpline
210
0.0
220
0.0
230
1.0
 62
     253
 70
     0
 71
     3
 72
     8
 73
4
 40
0.0
 40
0.0
 40
0.0
 40
0.0
 40
1.0
 40
1.0
 40
1.0
 40
1.0
 10
200.77
 20
251.547
 30
0.0
 10
200.925
 20
250.337
 30
0.0
 10
201.407
 20
249.232
 30
0.0
 10
201.907
 20
248.947
 30
0.0
  0
SPLINE
  5
35a
100
AcDbEntity
  8
0
100
AcDbSpline
210
0.0
220
0.0
230
1.0
 62
     253
 70
     0
 71
     3
 72
     8
 73
4
 40
0.0
 40
0.0
 40
0.0
 40
0.0
 40
1.0
 40
1.0
 40
1.0
 40
1.0
 10
201.907
 20
232.968
 30
0.0
 10
201.696
 20
233.236
 30
0.0
 10
201.48
 20
233.361
 30
0.0
 10
201.289
 20
233.325
 30
0.0
  0
SPLINE
  5
35b
100
AcDbEntity
  8
0
100
AcDbSpline
210
0.0
220
0.0
230
1.0
 62
     253
 70
     0
 71
     3
 72
     8
 73
4
 40
0.0
 40
0.0
 40
0.0
 40
0.0
 40
1.0
 40
1.0
 40
1.0
 40
1.0
 10
201.289
 20
233.325
 30
0.0
 10
200.837
 20
233.241
 30
0.0
 10
200.616
 20
232.286
 30
0.0
 10
200.77
 20
231.075
 30
0.0
  0
SPLINE
  5
35c
100
AcDbEntity
  8
0
100
AcDbSpline
210
0.0
220
0.0
230
1.0
 62
     253
 70
     0
 71
     3
 72
     8
 73
4
 40
0.0
 40
0.0
 40
0.0
 40
0.0
 40
1.0
 40
1.0
 40
1.0
 40
1.0
 10
200.77
 20
231.075
 30
0.0
 10
200.925
 20
229.865
 30
0.0
 10
201.407
 20
228.76
 30
0.0
 10
201.907
 20
228.473
 30
0.0
  0
SPLINE
  5
35d
100
AcDbEntity
  8
0
100
AcDbSpline
210
0.0
220
0.0
230
1.0
 62
     253
 70
     0
 71
     3
 72
     8
 73
4
 40
0.0
 40
0.0
 40
0.0
 40
0.0
 40
1.0
 40
1.0
 40
1.0
 40
1.0
 10
201.907
 20
458.163
 30
0.0
 10
201.696
 20
458.431
 30
0.0
 10
201.48
 20
458.555
 30
0.0
 10
201.289
 20
458.523
 30
0.0
  0
SPLINE
  5
35e
100
AcDbEntity
  8
0
100
AcDbSpline
210
0.0
220
0.0
230
1.0
 62
     253
 70
     0
 71
     3
 72
     8
 73
4
 40
0.0
 40
0.0
 40
0.0
 40
0.0
 40
1.0
 40
1.0
 40
1.0
 40
1.0
 10
201.289
 20
458.523
 30
0.0
 10
200.837
 20
458.435
 30
0.0
 10
200.616
 20
457.482
 30
0.0
 10
200.77
 20
456.269
 30
0.0
  0
SPLINE
  5
35f
100
AcDbEntity
  8
0
100
AcDbSpline
210
0.0
220
0.0
230
1.0
 62
     253
 70
     0
 71
     3
 72
     8
 73
4
 40
0.0
 40
0.0
 40
0.0
 40
0.0
 40
1.0
 40
1.0
 40
1.0
 40
1.0
 10
200.77
 20
456.269
 30
0.0
 10
200.925
 20
455.059
 30
0.0
 10
201.407
 20
453.954
 30
0.0
 10
201.907
 20
453.669
 30
0.0
  0
SPLINE
  5
360
100
AcDbEntity
  8
0
100
AcDbSpline
210
0.0
220
0.0
230
1.0
 62
     253
 70
     0
 71
     3
 72
     8
 73
4
 40
0.0
 40
0.0
 40
0.0
 40
0.0
 40
1.0
 40
1.0
 40
1.0
 40
1.0
 10
201.907
 20
437.691
 30
0.0
 10
201.696
 20
437.959
 30
0.0
 10
201.48
 20
438.083
 30
0.0
 10
201.289
 20
438.048
 30
0.0
  0
SPLINE
  5
361
100
AcDbEntity
  8
0
100
AcDbSpline
210
0.0
220
0.0
230
1.0
 62
     253
 70
     0
 71
     3
 72
     8
 73
4
 40
0.0
 40
0.0
 40
0.0
 40
0.0
 40
1.0
 40
1.0
 40
1.0
 40
1.0
 10
201.289
 20
438.048
 30
0.0
 10
200.837
 20
437.963
 30
0.0
 10
200.616
 20
437.011
 30
0.0
 10
200.77
 20
435.8
 30
0.0
  0
SPLINE
  5
362
100
AcDbEntity
  8
0
100
AcDbSpline
210
0.0
220
0.0
230
1.0
 62
     253
 70
     0
 71
     3
 72
     8
 73
4
 40
0.0
 40
0.0
 40
0.0
 40
0.0
 40
1.0
 40
1.0
 40
1.0
 40
1.0
 10
200.77
 20
435.8
 30
0.0
 10
200.925
 20
434.587
 30
0.0
 10
201.407
 20
433.483
 30
0.0
 10
201.907
 20
433.197
 30
0.0
  0
SPLINE
  5
363
100
AcDbEntity
  8
0
100
AcDbSpline
210
0.0
220
0.0
230
1.0
 62
     253
 70
     0
 71
     3
 72
     8
 73
4
 40
0.0
 40
0.0
 40
0.0
 40
0.0
 40
1.0
 40
1.0
 40
1.0
 40
1.0
 10
201.907
 20
355.801
 30
0.0
 10
201.696
 20
356.069
 30
0.0
 10
201.48
 20
356.196
 30
0.0
 10
201.289
 20
356.161
 30
0.0
  0
SPLINE
  5
364
100
AcDbEntity
  8
0
100
AcDbSpline
210
0.0
220
0.0
230
1.0
 62
     253
 70
     0
 71
     3
 72
     8
 73
4
 40
0.0
 40
0.0
 40
0.0
 40
0.0
 40
1.0
 40
1.0
 40
1.0
 40
1.0
 10
201.289
 20
356.161
 30
0.0
 10
200.837
 20
356.076
 30
0.0
 10
200.616
 20
355.12
 30
0.0
 10
200.77
 20
353.91
 30
0.0
  0
SPLINE
  5
365
100
AcDbEntity
  8
0
100
AcDbSpline
210
0.0
220
0.0
230
1.0
 62
     253
 70
     0
 71
     3
 72
     8
 73
4
 40
0.0
 40
0.0
 40
0.0
 40
0.0
 40
1.0
 40
1.0
 40
1.0
 40
1.0
 10
200.77
 20
353.91
 30
0.0
 10
200.925
 20
352.698
 30
0.0
 10
201.407
 20
351.594
 30
0.0
 10
201.907
 20
351.307
 30
0.0
  0
SPLINE
  5
366
100
AcDbEntity
  8
0
100
AcDbSpline
210
0.0
220
0.0
230
1.0
 62
     253
 70
     0
 71
     3
 72
     8
 73
4
 40
0.0
 40
0.0
 40
0.0
 40
0.0
 40
1.0
 40
1.0
 40
1.0
 40
1.0
 10
201.907
 20
335.329
 30
0.0
 10
201.696
 20
335.598
 30
0.0
 10
201.48
 20
335.723
 30
0.0
 10
201.289
 20
335.687
 30
0.0
  0
SPLINE
  5
367
100
AcDbEntity
  8
0
100
AcDbSpline
210
0.0
220
0.0
230
1.0
 62
     253
 70
     0
 71
     3
 72
     8
 73
4
 40
0.0
 40
0.0
 40
0.0
 40
0.0
 40
1.0
 40
1.0
 40
1.0
 40
1.0
 10
201.289
 20
335.687
 30
0.0
 10
200.837
 20
335.603
 30
0.0
 10
200.616
 20
334.647
 30
0.0
 10
200.77
 20
333.437
 30
0.0
  0
SPLINE
  5
368
100
AcDbEntity
  8
0
100
AcDbSpline
210
0.0
220
0.0
230
1.0
 62
     253
 70
     0
 71
     3
 72
     8
 73
4
 40
0.0
 40
0.0
 40
0.0
 40
0.0
 40
1.0
 40
1.0
 40
1.0
 40
1.0
 10
200.77
 20
333.437
 30
0.0
 10
200.925
 20
332.226
 30
0.0
 10
201.407
 20
331.122
 30
0.0
 10
201.907
 20
330.835
 30
0.0
  0
SPLINE
  5
369
100
AcDbEntity
  8
0
100
AcDbSpline
210
0.0
220
0.0
230
1.0
 62
     253
 70
     0
 71
     3
 72
     8
 73
4
 40
0.0
 40
0.0
 40
0.0
 40
0.0
 40
1.0
 40
1.0
 40
1.0
 40
1.0
 10
201.907
 20
28.2443
 30
0.0
 10
201.696
 20
28.513
 30
0.0
 10
201.48
 20
28.6384
 30
0.0
 10
201.289
 20
28.6026
 30
0.0
  0
SPLINE
  5
36a
100
AcDbEntity
  8
0
100
AcDbSpline
210
0.0
220
0.0
230
1.0
 62
     253
 70
     0
 71
     3
 72
     8
 73
4
 40
0.0
 40
0.0
 40
0.0
 40
0.0
 40
1.0
 40
1.0
 40
1.0
 40
1.0
 10
201.289
 20
28.6026
 30
0.0
 10
200.837
 20
28.5171
 30
0.0
 10
200.616
 20
27.5621
 30
0.0
 10
200.77
 20
26.3508
 30
0.0
  0
SPLINE
  5
36b
100
AcDbEntity
  8
0
100
AcDbSpline
210
0.0
220
0.0
230
1.0
 62
     253
 70
     0
 71
     3
 72
     8
 73
4
 40
0.0
 40
0.0
 40
0.0
 40
0.0
 40
1.0
 40
1.0
 40
1.0
 40
1.0
 10
200.77
 20
26.3508
 30
0.0
 10
200.925
 20
25.1409
 30
0.0
 10
201.407
 20
24.0371
 30
0.0
 10
201.907
 20
23.7505
 30
0.0
  0
SPLINE
  5
36c
100
AcDbEntity
  8
0
100
AcDbSpline
210
0.0
220
0.0
230
1.0
 62
     253
 70
     0
 71
     3
 72
     8
 73
4
 40
0.0
 40
0.0
 40
0.0
 40
0.0
 40
1.0
 40
1.0
 40
1.0
 40
1.0
 10
201.907
 20
48.7179
 30
0.0
 10
201.696
 20
48.985
 30
0.0
 10
201.48
 20
49.1105
 30
0.0
 10
201.289
 20
49.0746
 30
0.0
  0
SPLINE
  5
36d
100
AcDbEntity
  8
0
100
AcDbSpline
210
0.0
220
0.0
230
1.0
 62
     253
 70
     0
 71
     3
 72
     8
 73
4
 40
0.0
 40
0.0
 40
0.0
 40
0.0
 40
1.0
 40
1.0
 40
1.0
 40
1.0
 10
201.289
 20
49.0746
 30
0.0
 10
200.837
 20
48.9906
 30
0.0
 10
200.616
 20
48.0342
 30
0.0
 10
200.77
 20
46.8242
 30
0.0
  0
SPLINE
  5
36e
100
AcDbEntity
  8
0
100
AcDbSpline
210
0.0
220
0.0
230
1.0
 62
     253
 70
     0
 71
     3
 72
     8
 73
4
 40
0.0
 40
0.0
 40
0.0
 40
0.0
 40
1.0
 40
1.0
 40
1.0
 40
1.0
 10
200.77
 20
46.8242
 30
0.0
 10
200.925
 20
45.6131
 30
0.0
 10
201.407
 20
44.5093
 30
0.0
 10
201.907
 20
44.2239
 30
0.0
  0
SPLINE
  5
36f
100
AcDbEntity
  8
0
100
AcDbSpline
210
0.0
220
0.0
230
1.0
 62
     253
 70
     0
 71
     3
 72
     8
 73
4
 40
0.0
 40
0.0
 40
0.0
 40
0.0
 40
1.0
 40
1.0
 40
1.0
 40
1.0
 10
201.907
 20
130.606
 30
0.0
 10
201.696
 20
130.875
 30
0.0
 10
201.48
 20
130.999
 30
0.0
 10
201.289
 20
130.965
 30
0.0
  0
SPLINE
  5
370
100
AcDbEntity
  8
0
100
AcDbSpline
210
0.0
220
0.0
230
1.0
 62
     253
 70
     0
 71
     3
 72
     8
 73
4
 40
0.0
 40
0.0
 40
0.0
 40
0.0
 40
1.0
 40
1.0
 40
1.0
 40
1.0
 10
201.289
 20
130.965
 30
0.0
 10
200.837
 20
130.879
 30
0.0
 10
200.616
 20
129.924
 30
0.0
 10
200.77
 20
128.713
 30
0.0
  0
SPLINE
  5
371
100
AcDbEntity
  8
0
100
AcDbSpline
210
0.0
220
0.0
230
1.0
 62
     253
 70
     0
 71
     3
 72
     8
 73
4
 40
0.0
 40
0.0
 40
0.0
 40
0.0
 40
1.0
 40
1.0
 40
1.0
 40
1.0
 10
200.77
 20
128.713
 30
0.0
 10
200.925
 20
127.503
 30
0.0
 10
201.407
 20
126.398
 30
0.0
 10
201.907
 20
126.112
 30
0.0
  0
LINE
  5
372
100
AcDbEntity
  8
0
100
AcDbLine
 62
     253
 10
205.236
 20
12.6931
 30
0.0
 11
197.94
 21
11.3302
 31
0.0
  0
LINE
  5
373
100
AcDbEntity
  8
0
100
AcDbLine
 62
     253
 10
207.38
 20
2.6293
 30
0.0
 11
197.94
 21
11.3302
 31
0.0
  0
LINE
  5
374
100
AcDbEntity
  8
0
100
AcDbLine
 62
     253
 10
205.236
 20
12.6931
 30
0.0
 11
204.826
 21
13.9816
 31
0.0
  0
LINE
  5
375
100
AcDbEntity
  8
0
100
AcDbLine
 62
     253
 10
204.826
 20
512.597
 30
0.0
 11
205.236
 21
513.129
 31
0.0
  0
LINE
  5
376
100
AcDbEntity
  8
0
100
AcDbLine
 62
     253
 10
204.826
 20
13.9816
 30
0.0
 11
197.531
 21
12.6201
 31
0.0
  0
LINE
  5
377
100
AcDbEntity
  8
0
100
AcDbLine
 62
     253
 10
204.826
 20
512.597
 30
0.0
 11
197.531
 21
511.231
 31
0.0
  0
LINE
  5
378
100
AcDbEntity
  8
0
100
AcDbLine
 62
     253
 10
197.531
 20
12.6201
 30
0.0
 11
197.531
 21
511.231
 31
0.0
  0
LINE
  5
379
100
AcDbEntity
  8
0
100
AcDbLine
 62
     253
 10
201.907
 20
7.5723
 30
0.0
 11
197.029
 21
12.0702
 31
0.0
  0
LINE
  5
37a
100
AcDbEntity
  8
0
100
AcDbLine
 62
     253
 10
197.029
 20
12.0702
 30
0.0
 11
197.029
 21
505.633
 31
0.0
  0
LINE
  5
37b
100
AcDbEntity
  8
0
100
AcDbLine
 62
     253
 10
197.94
 20
11.3302
 30
0.0
 11
197.531
 21
12.6201
 31
0.0
  0
LINE
  5
37c
100
AcDbEntity
  8
0
100
AcDbLine
 62
     253
 10
197.94
 20
11.3302
 30
0.0
 11
197.029
 21
12.0702
 31
0.0
  0
LINE
  5
37d
100
AcDbEntity
  8
0
100
AcDbLine
 62
     253
 10
197.531
 20
511.231
 30
0.0
 11
197.94
 21
511.764
 31
0.0
  0
LINE
  5
37e
100
AcDbEntity
  8
0
100
AcDbLine
 62
     253
 10
197.029
 20
12.0702
 30
0.0
 11
197.531
 21
12.6201
 31
0.0
  0
LINE
  5
37f
100
AcDbEntity
  8
0
100
AcDbLine
 62
     253
 10
197.531
 20
511.231
 30
0.0
 11
197.029
 21
510.685
 31
0.0
  0
LINE
  5
380
100
AcDbEntity
  8
0
100
AcDbLine
 62
     253
 10
193.7
 20
0.0757922
 30
0.0
 11
184.261
 21
8.7781
 31
0.0
  0
LINE
  5
381
100
AcDbEntity
  8
0
100
AcDbLine
 62
     253
 10
184.261
 20
8.7781
 30
0.0
 11
183.349
 21
9.51675
 31
0.0
  0
LINE
  5
382
100
AcDbEntity
  8
0
100
AcDbLine
 62
     253
 10
183.349
 20
9.51675
 30
0.0
 11
183.851
 21
10.0652
 31
0.0
  0
LINE
  5
383
100
AcDbEntity
  8
0
100
AcDbLine
 62
     253
 10
183.851
 20
508.681
 30
0.0
 11
183.349
 21
508.131
 31
0.0
  0
LINE
  5
384
100
AcDbEntity
  8
0
100
AcDbLine
 62
     253
 10
183.851
 20
10.0652
 30
0.0
 11
183.851
 21
508.681
 31
0.0
  0
SPLINE
  5
385
100
AcDbEntity
  8
0
100
AcDbSpline
210
0.0
220
0.0
230
1.0
 62
     253
 70
     0
 71
     3
 72
     8
 73
4
 40
0.0
 40
0.0
 40
0.0
 40
0.0
 40
1.0
 40
1.0
 40
1.0
 40
1.0
 10
198.214
 20
147.181
 30
0.0
 10
198.214
 20
147.971
 30
0.0
 10
198.03
 20
148.871
 30
0.0
 10
197.728
 20
149.565
 30
0.0
  0
SPLINE
  5
386
100
AcDbEntity
  8
0
100
AcDbSpline
210
0.0
220
0.0
230
1.0
 62
     253
 70
     0
 71
     3
 72
     8
 73
4
 40
0.0
 40
0.0
 40
0.0
 40
0.0
 40
1.0
 40
1.0
 40
1.0
 40
1.0
 10
197.728
 20
149.565
 30
0.0
 10
197.425
 20
150.259
 30
0.0
 10
197.047
 20
150.644
 30
0.0
 10
196.73
 20
150.585
 30
0.0
  0
SPLINE
  5
387
100
AcDbEntity
  8
0
100
AcDbSpline
210
0.0
220
0.0
230
1.0
 62
     253
 70
     0
 71
     3
 72
     8
 73
4
 40
0.0
 40
0.0
 40
0.0
 40
0.0
 40
1.0
 40
1.0
 40
1.0
 40
1.0
 10
196.73
 20
150.585
 30
0.0
 10
196.223
 20
150.49
 30
0.0
 10
196.018
 20
149.313
 30
0.0
 10
196.271
 20
147.956
 30
0.0
  0
SPLINE
  5
388
100
AcDbEntity
  8
0
100
AcDbSpline
210
0.0
220
0.0
230
1.0
 62
     253
 70
     0
 71
     3
 72
     8
 73
4
 40
0.0
 40
0.0
 40
0.0
 40
0.0
 40
1.0
 40
1.0
 40
1.0
 40
1.0
 10
196.271
 20
147.956
 30
0.0
 10
196.523
 20
146.599
 30
0.0
 10
197.141
 20
145.576
 30
0.0
 10
197.647
 20
145.671
 30
0.0
  0
SPLINE
  5
389
100
AcDbEntity
  8
0
100
AcDbSpline
210
0.0
220
0.0
230
1.0
 62
     253
 70
     0
 71
     3
 72
     8
 73
4
 40
0.0
 40
0.0
 40
0.0
 40
0.0
 40
1.0
 40
1.0
 40
1.0
 40
1.0
 10
197.647
 20
145.671
 30
0.0
 10
197.995
 20
145.734
 30
0.0
 10
198.214
 20
146.32
 30
0.0
 10
198.214
 20
147.181
 30
0.0
  0
SPLINE
  5
38a
100
AcDbEntity
  8
0
100
AcDbSpline
210
0.0
220
0.0
230
1.0
 62
     253
 70
     0
 71
     3
 72
     8
 73
4
 40
0.0
 40
0.0
 40
0.0
 40
0.0
 40
1.0
 40
1.0
 40
1.0
 40
1.0
 10
198.214
 20
249.543
 30
0.0
 10
198.214
 20
250.332
 30
0.0
 10
198.03
 20
251.233
 30
0.0
 10
197.728
 20
251.927
 30
0.0
  0
SPLINE
  5
38b
100
AcDbEntity
  8
0
100
AcDbSpline
210
0.0
220
0.0
230
1.0
 62
     253
 70
     0
 71
     3
 72
     8
 73
4
 40
0.0
 40
0.0
 40
0.0
 40
0.0
 40
1.0
 40
1.0
 40
1.0
 40
1.0
 10
197.728
 20
251.927
 30
0.0
 10
197.425
 20
252.621
 30
0.0
 10
197.047
 20
253.007
 30
0.0
 10
196.73
 20
252.947
 30
0.0
  0
SPLINE
  5
38c
100
AcDbEntity
  8
0
100
AcDbSpline
210
0.0
220
0.0
230
1.0
 62
     253
 70
     0
 71
     3
 72
     8
 73
4
 40
0.0
 40
0.0
 40
0.0
 40
0.0
 40
1.0
 40
1.0
 40
1.0
 40
1.0
 10
196.73
 20
252.947
 30
0.0
 10
196.223
 20
252.852
 30
0.0
 10
196.018
 20
251.675
 30
0.0
 10
196.271
 20
250.318
 30
0.0
  0
SPLINE
  5
38d
100
AcDbEntity
  8
0
100
AcDbSpline
210
0.0
220
0.0
230
1.0
 62
     253
 70
     0
 71
     3
 72
     8
 73
4
 40
0.0
 40
0.0
 40
0.0
 40
0.0
 40
1.0
 40
1.0
 40
1.0
 40
1.0
 10
196.271
 20
250.318
 30
0.0
 10
196.523
 20
248.961
 30
0.0
 10
197.141
 20
247.937
 30
0.0
 10
197.647
 20
248.032
 30
0.0
  0
SPLINE
  5
38e
100
AcDbEntity
  8
0
100
AcDbSpline
210
0.0
220
0.0
230
1.0
 62
     253
 70
     0
 71
     3
 72
     8
 73
4
 40
0.0
 40
0.0
 40
0.0
 40
0.0
 40
1.0
 40
1.0
 40
1.0
 40
1.0
 10
197.647
 20
248.032
 30
0.0
 10
197.995
 20
248.097
 30
0.0
 10
198.214
 20
248.682
 30
0.0
 10
198.214
 20
249.543
 30
0.0
  0
SPLINE
  5
38f
100
AcDbEntity
  8
0
100
AcDbSpline
210
0.0
220
0.0
230
1.0
 62
     253
 70
     0
 71
     3
 72
     8
 73
4
 40
0.0
 40
0.0
 40
0.0
 40
0.0
 40
1.0
 40
1.0
 40
1.0
 40
1.0
 10
198.214
 20
229.071
 30
0.0
 10
198.214
 20
229.859
 30
0.0
 10
198.03
 20
230.761
 30
0.0
 10
197.728
 20
231.454
 30
0.0
  0
SPLINE
  5
390
100
AcDbEntity
  8
0
100
AcDbSpline
210
0.0
220
0.0
230
1.0
 62
     253
 70
     0
 71
     3
 72
     8
 73
4
 40
0.0
 40
0.0
 40
0.0
 40
0.0
 40
1.0
 40
1.0
 40
1.0
 40
1.0
 10
197.728
 20
231.454
 30
0.0
 10
197.425
 20
232.149
 30
0.0
 10
197.047
 20
232.534
 30
0.0
 10
196.73
 20
232.473
 30
0.0
  0
SPLINE
  5
391
100
AcDbEntity
  8
0
100
AcDbSpline
210
0.0
220
0.0
230
1.0
 62
     253
 70
     0
 71
     3
 72
     8
 73
4
 40
0.0
 40
0.0
 40
0.0
 40
0.0
 40
1.0
 40
1.0
 40
1.0
 40
1.0
 10
196.73
 20
232.473
 30
0.0
 10
196.223
 20
232.38
 30
0.0
 10
196.018
 20
231.203
 30
0.0
 10
196.271
 20
229.846
 30
0.0
  0
SPLINE
  5
392
100
AcDbEntity
  8
0
100
AcDbSpline
210
0.0
220
0.0
230
1.0
 62
     253
 70
     0
 71
     3
 72
     8
 73
4
 40
0.0
 40
0.0
 40
0.0
 40
0.0
 40
1.0
 40
1.0
 40
1.0
 40
1.0
 10
196.271
 20
229.846
 30
0.0
 10
196.523
 20
228.489
 30
0.0
 10
197.141
 20
227.464
 30
0.0
 10
197.647
 20
227.56
 30
0.0
  0
SPLINE
  5
393
100
AcDbEntity
  8
0
100
AcDbSpline
210
0.0
220
0.0
230
1.0
 62
     253
 70
     0
 71
     3
 72
     8
 73
4
 40
0.0
 40
0.0
 40
0.0
 40
0.0
 40
1.0
 40
1.0
 40
1.0
 40
1.0
 10
197.647
 20
227.56
 30
0.0
 10
197.995
 20
227.624
 30
0.0
 10
198.214
 20
228.21
 30
0.0
 10
198.214
 20
229.071
 30
0.0
  0
SPLINE
  5
394
100
AcDbEntity
  8
0
100
AcDbSpline
210
0.0
220
0.0
230
1.0
 62
     253
 70
     0
 71
     3
 72
     8
 73
4
 40
0.0
 40
0.0
 40
0.0
 40
0.0
 40
1.0
 40
1.0
 40
1.0
 40
1.0
 10
198.214
 20
454.265
 30
0.0
 10
198.214
 20
455.055
 30
0.0
 10
198.03
 20
455.958
 30
0.0
 10
197.728
 20
456.65
 30
0.0
  0
SPLINE
  5
395
100
AcDbEntity
  8
0
100
AcDbSpline
210
0.0
220
0.0
230
1.0
 62
     253
 70
     0
 71
     3
 72
     8
 73
4
 40
0.0
 40
0.0
 40
0.0
 40
0.0
 40
1.0
 40
1.0
 40
1.0
 40
1.0
 10
197.728
 20
456.65
 30
0.0
 10
197.425
 20
457.345
 30
0.0
 10
197.047
 20
457.729
 30
0.0
 10
196.73
 20
457.669
 30
0.0
  0
SPLINE
  5
396
100
AcDbEntity
  8
0
100
AcDbSpline
210
0.0
220
0.0
230
1.0
 62
     253
 70
     0
 71
     3
 72
     8
 73
4
 40
0.0
 40
0.0
 40
0.0
 40
0.0
 40
1.0
 40
1.0
 40
1.0
 40
1.0
 10
196.73
 20
457.669
 30
0.0
 10
196.223
 20
457.574
 30
0.0
 10
196.018
 20
456.399
 30
0.0
 10
196.271
 20
455.041
 30
0.0
  0
SPLINE
  5
397
100
AcDbEntity
  8
0
100
AcDbSpline
210
0.0
220
0.0
230
1.0
 62
     253
 70
     0
 71
     3
 72
     8
 73
4
 40
0.0
 40
0.0
 40
0.0
 40
0.0
 40
1.0
 40
1.0
 40
1.0
 40
1.0
 10
196.271
 20
455.041
 30
0.0
 10
196.523
 20
453.683
 30
0.0
 10
197.141
 20
452.66
 30
0.0
 10
197.647
 20
452.755
 30
0.0
  0
SPLINE
  5
398
100
AcDbEntity
  8
0
100
AcDbSpline
210
0.0
220
0.0
230
1.0
 62
     253
 70
     0
 71
     3
 72
     8
 73
4
 40
0.0
 40
0.0
 40
0.0
 40
0.0
 40
1.0
 40
1.0
 40
1.0
 40
1.0
 10
197.647
 20
452.755
 30
0.0
 10
197.995
 20
452.818
 30
0.0
 10
198.214
 20
453.404
 30
0.0
 10
198.214
 20
454.265
 30
0.0
  0
SPLINE
  5
399
100
AcDbEntity
  8
0
100
AcDbSpline
210
0.0
220
0.0
230
1.0
 62
     253
 70
     0
 71
     3
 72
     8
 73
4
 40
0.0
 40
0.0
 40
0.0
 40
0.0
 40
1.0
 40
1.0
 40
1.0
 40
1.0
 10
198.214
 20
433.793
 30
0.0
 10
198.214
 20
434.583
 30
0.0
 10
198.03
 20
435.487
 30
0.0
 10
197.728
 20
436.178
 30
0.0
  0
SPLINE
  5
39a
100
AcDbEntity
  8
0
100
AcDbSpline
210
0.0
220
0.0
230
1.0
 62
     253
 70
     0
 71
     3
 72
     8
 73
4
 40
0.0
 40
0.0
 40
0.0
 40
0.0
 40
1.0
 40
1.0
 40
1.0
 40
1.0
 10
197.728
 20
436.178
 30
0.0
 10
197.425
 20
436.873
 30
0.0
 10
197.047
 20
437.257
 30
0.0
 10
196.73
 20
437.198
 30
0.0
  0
SPLINE
  5
39b
100
AcDbEntity
  8
0
100
AcDbSpline
210
0.0
220
0.0
230
1.0
 62
     253
 70
     0
 71
     3
 72
     8
 73
4
 40
0.0
 40
0.0
 40
0.0
 40
0.0
 40
1.0
 40
1.0
 40
1.0
 40
1.0
 10
196.73
 20
437.198
 30
0.0
 10
196.223
 20
437.102
 30
0.0
 10
196.018
 20
435.927
 30
0.0
 10
196.271
 20
434.569
 30
0.0
  0
SPLINE
  5
39c
100
AcDbEntity
  8
0
100
AcDbSpline
210
0.0
220
0.0
230
1.0
 62
     253
 70
     0
 71
     3
 72
     8
 73
4
 40
0.0
 40
0.0
 40
0.0
 40
0.0
 40
1.0
 40
1.0
 40
1.0
 40
1.0
 10
196.271
 20
434.569
 30
0.0
 10
196.523
 20
433.211
 30
0.0
 10
197.141
 20
432.188
 30
0.0
 10
197.647
 20
432.283
 30
0.0
  0
SPLINE
  5
39d
100
AcDbEntity
  8
0
100
AcDbSpline
210
0.0
220
0.0
230
1.0
 62
     253
 70
     0
 71
     3
 72
     8
 73
4
 40
0.0
 40
0.0
 40
0.0
 40
0.0
 40
1.0
 40
1.0
 40
1.0
 40
1.0
 10
197.647
 20
432.283
 30
0.0
 10
197.995
 20
432.347
 30
0.0
 10
198.214
 20
432.932
 30
0.0
 10
198.214
 20
433.793
 30
0.0
  0
SPLINE
  5
39e
100
AcDbEntity
  8
0
100
AcDbSpline
210
0.0
220
0.0
230
1.0
 62
     253
 70
     0
 71
     3
 72
     8
 73
4
 40
0.0
 40
0.0
 40
0.0
 40
0.0
 40
1.0
 40
1.0
 40
1.0
 40
1.0
 10
198.214
 20
351.905
 30
0.0
 10
198.214
 20
352.694
 30
0.0
 10
198.03
 20
353.596
 30
0.0
 10
197.728
 20
354.288
 30
0.0
  0
SPLINE
  5
39f
100
AcDbEntity
  8
0
100
AcDbSpline
210
0.0
220
0.0
230
1.0
 62
     253
 70
     0
 71
     3
 72
     8
 73
4
 40
0.0
 40
0.0
 40
0.0
 40
0.0
 40
1.0
 40
1.0
 40
1.0
 40
1.0
 10
197.728
 20
354.288
 30
0.0
 10
197.425
 20
354.983
 30
0.0
 10
197.047
 20
355.367
 30
0.0
 10
196.73
 20
355.307
 30
0.0
  0
SPLINE
  5
3a0
100
AcDbEntity
  8
0
100
AcDbSpline
210
0.0
220
0.0
230
1.0
 62
     253
 70
     0
 71
     3
 72
     8
 73
4
 40
0.0
 40
0.0
 40
0.0
 40
0.0
 40
1.0
 40
1.0
 40
1.0
 40
1.0
 10
196.73
 20
355.307
 30
0.0
 10
196.223
 20
355.215
 30
0.0
 10
196.018
 20
354.037
 30
0.0
 10
196.271
 20
352.68
 30
0.0
  0
SPLINE
  5
3a1
100
AcDbEntity
  8
0
100
AcDbSpline
210
0.0
220
0.0
230
1.0
 62
     253
 70
     0
 71
     3
 72
     8
 73
4
 40
0.0
 40
0.0
 40
0.0
 40
0.0
 40
1.0
 40
1.0
 40
1.0
 40
1.0
 10
196.271
 20
352.68
 30
0.0
 10
196.523
 20
351.323
 30
0.0
 10
197.141
 20
350.299
 30
0.0
 10
197.647
 20
350.394
 30
0.0
  0
SPLINE
  5
3a2
100
AcDbEntity
  8
0
100
AcDbSpline
210
0.0
220
0.0
230
1.0
 62
     253
 70
     0
 71
     3
 72
     8
 73
4
 40
0.0
 40
0.0
 40
0.0
 40
0.0
 40
1.0
 40
1.0
 40
1.0
 40
1.0
 10
197.647
 20
350.394
 30
0.0
 10
197.995
 20
350.459
 30
0.0
 10
198.214
 20
351.043
 30
0.0
 10
198.214
 20
351.905
 30
0.0
  0
SPLINE
  5
3a3
100
AcDbEntity
  8
0
100
AcDbSpline
210
0.0
220
0.0
230
1.0
 62
     253
 70
     0
 71
     3
 72
     8
 73
4
 40
0.0
 40
0.0
 40
0.0
 40
0.0
 40
1.0
 40
1.0
 40
1.0
 40
1.0
 10
198.214
 20
331.432
 30
0.0
 10
198.214
 20
332.22
 30
0.0
 10
198.03
 20
333.123
 30
0.0
 10
197.728
 20
333.816
 30
0.0
  0
SPLINE
  5
3a4
100
AcDbEntity
  8
0
100
AcDbSpline
210
0.0
220
0.0
230
1.0
 62
     253
 70
     0
 71
     3
 72
     8
 73
4
 40
0.0
 40
0.0
 40
0.0
 40
0.0
 40
1.0
 40
1.0
 40
1.0
 40
1.0
 10
197.728
 20
333.816
 30
0.0
 10
197.425
 20
334.509
 30
0.0
 10
197.047
 20
334.895
 30
0.0
 10
196.73
 20
334.836
 30
0.0
  0
SPLINE
  5
3a5
100
AcDbEntity
  8
0
100
AcDbSpline
210
0.0
220
0.0
230
1.0
 62
     253
 70
     0
 71
     3
 72
     8
 73
4
 40
0.0
 40
0.0
 40
0.0
 40
0.0
 40
1.0
 40
1.0
 40
1.0
 40
1.0
 10
196.73
 20
334.836
 30
0.0
 10
196.223
 20
334.741
 30
0.0
 10
196.018
 20
333.564
 30
0.0
 10
196.271
 20
332.207
 30
0.0
  0
SPLINE
  5
3a6
100
AcDbEntity
  8
0
100
AcDbSpline
210
0.0
220
0.0
230
1.0
 62
     253
 70
     0
 71
     3
 72
     8
 73
4
 40
0.0
 40
0.0
 40
0.0
 40
0.0
 40
1.0
 40
1.0
 40
1.0
 40
1.0
 10
196.271
 20
332.207
 30
0.0
 10
196.523
 20
330.851
 30
0.0
 10
197.141
 20
329.826
 30
0.0
 10
197.647
 20
329.92
 30
0.0
  0
SPLINE
  5
3a7
100
AcDbEntity
  8
0
100
AcDbSpline
210
0.0
220
0.0
230
1.0
 62
     253
 70
     0
 71
     3
 72
     8
 73
4
 40
0.0
 40
0.0
 40
0.0
 40
0.0
 40
1.0
 40
1.0
 40
1.0
 40
1.0
 10
197.647
 20
329.92
 30
0.0
 10
197.995
 20
329.985
 30
0.0
 10
198.214
 20
330.571
 30
0.0
 10
198.214
 20
331.432
 30
0.0
  0
SPLINE
  5
3a8
100
AcDbEntity
  8
0
100
AcDbSpline
210
0.0
220
0.0
230
1.0
 62
     253
 70
     0
 71
     3
 72
     8
 73
4
 40
0.0
 40
0.0
 40
0.0
 40
0.0
 40
1.0
 40
1.0
 40
1.0
 40
1.0
 10
198.214
 20
24.3472
 30
0.0
 10
198.214
 20
25.1368
 30
0.0
 10
198.03
 20
26.038
 30
0.0
 10
197.728
 20
26.7312
 30
0.0
  0
SPLINE
  5
3a9
100
AcDbEntity
  8
0
100
AcDbSpline
210
0.0
220
0.0
230
1.0
 62
     253
 70
     0
 71
     3
 72
     8
 73
4
 40
0.0
 40
0.0
 40
0.0
 40
0.0
 40
1.0
 40
1.0
 40
1.0
 40
1.0
 10
197.728
 20
26.7312
 30
0.0
 10
197.425
 20
27.4243
 30
0.0
 10
197.047
 20
27.8102
 30
0.0
 10
196.73
 20
27.7509
 30
0.0
  0
SPLINE
  5
3aa
100
AcDbEntity
  8
0
100
AcDbSpline
210
0.0
220
0.0
230
1.0
 62
     253
 70
     0
 71
     3
 72
     8
 73
4
 40
0.0
 40
0.0
 40
0.0
 40
0.0
 40
1.0
 40
1.0
 40
1.0
 40
1.0
 10
196.73
 20
27.7509
 30
0.0
 10
196.223
 20
27.6558
 30
0.0
 10
196.018
 20
26.479
 30
0.0
 10
196.271
 20
25.123
 30
0.0
  0
SPLINE
  5
3ab
100
AcDbEntity
  8
0
100
AcDbSpline
210
0.0
220
0.0
230
1.0
 62
     253
 70
     0
 71
     3
 72
     8
 73
4
 40
0.0
 40
0.0
 40
0.0
 40
0.0
 40
1.0
 40
1.0
 40
1.0
 40
1.0
 10
196.271
 20
25.123
 30
0.0
 10
196.523
 20
23.7657
 30
0.0
 10
197.141
 20
22.7417
 30
0.0
 10
197.647
 20
22.8369
 30
0.0
  0
SPLINE
  5
3ac
100
AcDbEntity
  8
0
100
AcDbSpline
210
0.0
220
0.0
230
1.0
 62
     253
 70
     0
 71
     3
 72
     8
 73
4
 40
0.0
 40
0.0
 40
0.0
 40
0.0
 40
1.0
 40
1.0
 40
1.0
 40
1.0
 10
197.647
 20
22.8369
 30
0.0
 10
197.995
 20
22.9003
 30
0.0
 10
198.214
 20
23.4859
 30
0.0
 10
198.214
 20
24.3472
 30
0.0
  0
SPLINE
  5
3ad
100
AcDbEntity
  8
0
100
AcDbSpline
210
0.0
220
0.0
230
1.0
 62
     253
 70
     0
 71
     3
 72
     8
 73
4
 40
0.0
 40
0.0
 40
0.0
 40
0.0
 40
1.0
 40
1.0
 40
1.0
 40
1.0
 10
198.214
 20
44.8208
 30
0.0
 10
198.214
 20
45.6089
 30
0.0
 10
198.03
 20
46.5102
 30
0.0
 10
197.728
 20
47.2034
 30
0.0
  0
SPLINE
  5
3ae
100
AcDbEntity
  8
0
100
AcDbSpline
210
0.0
220
0.0
230
1.0
 62
     253
 70
     0
 71
     3
 72
     8
 73
4
 40
0.0
 40
0.0
 40
0.0
 40
0.0
 40
1.0
 40
1.0
 40
1.0
 40
1.0
 10
197.728
 20
47.2034
 30
0.0
 10
197.425
 20
47.8966
 30
0.0
 10
197.047
 20
48.2822
 30
0.0
 10
196.73
 20
48.223
 30
0.0
  0
SPLINE
  5
3af
100
AcDbEntity
  8
0
100
AcDbSpline
210
0.0
220
0.0
230
1.0
 62
     253
 70
     0
 71
     3
 72
     8
 73
4
 40
0.0
 40
0.0
 40
0.0
 40
0.0
 40
1.0
 40
1.0
 40
1.0
 40
1.0
 10
196.73
 20
48.223
 30
0.0
 10
196.223
 20
48.1281
 30
0.0
 10
196.018
 20
46.9512
 30
0.0
 10
196.271
 20
45.5951
 30
0.0
  0
SPLINE
  5
3b0
100
AcDbEntity
  8
0
100
AcDbSpline
210
0.0
220
0.0
230
1.0
 62
     253
 70
     0
 71
     3
 72
     8
 73
4
 40
0.0
 40
0.0
 40
0.0
 40
0.0
 40
1.0
 40
1.0
 40
1.0
 40
1.0
 10
196.271
 20
45.5951
 30
0.0
 10
196.523
 20
44.2376
 30
0.0
 10
197.141
 20
43.2139
 30
0.0
 10
197.647
 20
43.3091
 30
0.0
  0
SPLINE
  5
3b1
100
AcDbEntity
  8
0
100
AcDbSpline
210
0.0
220
0.0
230
1.0
 62
     253
 70
     0
 71
     3
 72
     8
 73
4
 40
0.0
 40
0.0
 40
0.0
 40
0.0
 40
1.0
 40
1.0
 40
1.0
 40
1.0
 10
197.647
 20
43.3091
 30
0.0
 10
197.995
 20
43.3737
 30
0.0
 10
198.214
 20
43.9579
 30
0.0
 10
198.214
 20
44.8208
 30
0.0
  0
SPLINE
  5
3b2
100
AcDbEntity
  8
0
100
AcDbSpline
210
0.0
220
0.0
230
1.0
 62
     253
 70
     0
 71
     3
 72
     8
 73
4
 40
0.0
 40
0.0
 40
0.0
 40
0.0
 40
1.0
 40
1.0
 40
1.0
 40
1.0
 10
198.214
 20
126.709
 30
0.0
 10
198.214
 20
127.497
 30
0.0
 10
198.03
 20
128.4
 30
0.0
 10
197.728
 20
129.092
 30
0.0
  0
SPLINE
  5
3b3
100
AcDbEntity
  8
0
100
AcDbSpline
210
0.0
220
0.0
230
1.0
 62
     253
 70
     0
 71
     3
 72
     8
 73
4
 40
0.0
 40
0.0
 40
0.0
 40
0.0
 40
1.0
 40
1.0
 40
1.0
 40
1.0
 10
197.728
 20
129.092
 30
0.0
 10
197.425
 20
129.786
 30
0.0
 10
197.047
 20
130.172
 30
0.0
 10
196.73
 20
130.113
 30
0.0
  0
SPLINE
  5
3b4
100
AcDbEntity
  8
0
100
AcDbSpline
210
0.0
220
0.0
230
1.0
 62
     253
 70
     0
 71
     3
 72
     8
 73
4
 40
0.0
 40
0.0
 40
0.0
 40
0.0
 40
1.0
 40
1.0
 40
1.0
 40
1.0
 10
196.73
 20
130.113
 30
0.0
 10
196.223
 20
130.018
 30
0.0
 10
196.018
 20
128.841
 30
0.0
 10
196.271
 20
127.484
 30
0.0
  0
SPLINE
  5
3b5
100
AcDbEntity
  8
0
100
AcDbSpline
210
0.0
220
0.0
230
1.0
 62
     253
 70
     0
 71
     3
 72
     8
 73
4
 40
0.0
 40
0.0
 40
0.0
 40
0.0
 40
1.0
 40
1.0
 40
1.0
 40
1.0
 10
196.271
 20
127.484
 30
0.0
 10
196.523
 20
126.126
 30
0.0
 10
197.141
 20
125.104
 30
0.0
 10
197.647
 20
125.198
 30
0.0
  0
SPLINE
  5
3b6
100
AcDbEntity
  8
0
100
AcDbSpline
210
0.0
220
0.0
230
1.0
 62
     253
 70
     0
 71
     3
 72
     8
 73
4
 40
0.0
 40
0.0
 40
0.0
 40
0.0
 40
1.0
 40
1.0
 40
1.0
 40
1.0
 10
197.647
 20
125.198
 30
0.0
 10
197.995
 20
125.262
 30
0.0
 10
198.214
 20
125.848
 30
0.0
 10
198.214
 20
126.709
 30
0.0
  0
LINE
  5
3b7
100
AcDbEntity
  8
0
100
AcDbLine
 62
     253
 10
184.261
 20
8.7781
 30
0.0
 11
191.557
 21
10.1396
 31
0.0
  0
LINE
  5
3b8
100
AcDbEntity
  8
0
100
AcDbLine
 62
     253
 10
200.995
 20
1.43729
 30
0.0
 11
191.557
 21
10.1396
 31
0.0
  0
LINE
  5
3b9
100
AcDbEntity
  8
0
100
AcDbLine
 62
     253
 10
184.261
 20
8.7781
 30
0.0
 11
183.851
 21
10.0652
 31
0.0
  0
LINE
  5
3ba
100
AcDbEntity
  8
0
100
AcDbLine
 62
     253
 10
183.851
 20
508.681
 30
0.0
 11
184.261
 21
509.21
 31
0.0
  0
LINE
  5
3bb
100
AcDbEntity
  8
0
100
AcDbLine
 62
     253
 10
183.851
 20
10.0652
 30
0.0
 11
191.146
 21
11.4281
 31
0.0
  0
LINE
  5
3bc
100
AcDbEntity
  8
0
100
AcDbLine
 62
     253
 10
183.851
 20
508.681
 30
0.0
 11
191.146
 21
510.043
 31
0.0
  0
LINE
  5
3bd
100
AcDbEntity
  8
0
100
AcDbLine
 62
     253
 10
191.146
 20
11.4281
 30
0.0
 11
191.146
 21
510.043
 31
0.0
  0
LINE
  5
3be
100
AcDbEntity
  8
0
100
AcDbLine
 62
     253
 10
201.907
 20
2.51768
 30
0.0
 11
192.469
 21
11.22
 31
0.0
  0
LINE
  5
3bf
100
AcDbEntity
  8
0
100
AcDbLine
 62
     253
 10
192.469
 20
11.22
 30
0.0
 11
192.469
 21
509.834
 31
0.0
  0
LINE
  5
3c0
100
AcDbEntity
  8
0
100
AcDbLine
 62
     253
 10
191.557
 20
10.1396
 30
0.0
 11
191.146
 21
11.4281
 31
0.0
  0
LINE
  5
3c1
100
AcDbEntity
  8
0
100
AcDbLine
 62
     253
 10
191.557
 20
10.1396
 30
0.0
 11
192.469
 21
11.22
 31
0.0
  0
LINE
  5
3c2
100
AcDbEntity
  8
0
100
AcDbLine
 62
     253
 10
191.146
 20
510.043
 30
0.0
 11
191.557
 21
510.572
 31
0.0
  0
LINE
  5
3c3
100
AcDbEntity
  8
0
100
AcDbLine
 62
     253
 10
192.469
 20
11.22
 30
0.0
 11
191.146
 21
11.4281
 31
0.0
  0
LINE
  5
3c4
100
AcDbEntity
  8
0
100
AcDbLine
 62
     253
 10
191.146
 20
510.043
 30
0.0
 11
192.469
 21
509.834
 31
0.0
  0
LINE
  5
3c5
100
AcDbEntity
  8
0
100
AcDbLine
 62
     253
 10
211.326
 20
148.223
 30
0.0
 11
202.207
 21
146.521
 31
0.0
  0
LINE
  5
3c6
100
AcDbEntity
  8
0
100
AcDbLine
 62
     253
 10
210.409
 20
153.139
 30
0.0
 11
201.289
 21
151.437
 31
0.0
  0
LINE
  5
3c7
100
AcDbEntity
  8
0
100
AcDbLine
 62
     253
 10
211.326
 20
250.585
 30
0.0
 11
202.207
 21
248.883
 31
0.0
  0
LINE
  5
3c8
100
AcDbEntity
  8
0
100
AcDbLine
 62
     253
 10
210.409
 20
255.501
 30
0.0
 11
201.289
 21
253.798
 31
0.0
  0
LINE
  5
3c9
100
AcDbEntity
  8
0
100
AcDbLine
 62
     253
 10
211.326
 20
230.113
 30
0.0
 11
202.207
 21
228.41
 31
0.0
  0
LINE
  5
3ca
100
AcDbEntity
  8
0
100
AcDbLine
 62
     253
 10
210.409
 20
235.029
 30
0.0
 11
201.289
 21
233.325
 31
0.0
  0
LINE
  5
3cb
100
AcDbEntity
  8
0
100
AcDbLine
 62
     253
 10
211.326
 20
455.309
 30
0.0
 11
202.207
 21
453.605
 31
0.0
  0
LINE
  5
3cc
100
AcDbEntity
  8
0
100
AcDbLine
 62
     253
 10
210.409
 20
460.223
 30
0.0
 11
201.289
 21
458.523
 31
0.0
  0
LINE
  5
3cd
100
AcDbEntity
  8
0
100
AcDbLine
 62
     253
 10
211.326
 20
434.837
 30
0.0
 11
202.207
 21
433.134
 31
0.0
  0
LINE
  5
3ce
100
AcDbEntity
  8
0
100
AcDbLine
 62
     253
 10
210.409
 20
439.752
 30
0.0
 11
201.289
 21
438.048
 31
0.0
  0
LINE
  5
3cf
100
AcDbEntity
  8
0
100
AcDbLine
 62
     253
 10
211.326
 20
352.947
 30
0.0
 11
202.207
 21
351.244
 31
0.0
  0
LINE
  5
3d0
100
AcDbEntity
  8
0
100
AcDbLine
 62
     253
 10
210.409
 20
357.861
 30
0.0
 11
201.289
 21
356.161
 31
0.0
  0
LINE
  5
3d1
100
AcDbEntity
  8
0
100
AcDbLine
 62
     253
 10
211.326
 20
332.475
 30
0.0
 11
202.207
 21
330.772
 31
0.0
  0
LINE
  5
3d2
100
AcDbEntity
  8
0
100
AcDbLine
 62
     253
 10
210.409
 20
337.389
 30
0.0
 11
201.289
 21
335.687
 31
0.0
  0
LINE
  5
3d3
100
AcDbEntity
  8
0
100
AcDbLine
 62
     253
 10
211.326
 20
25.389
 30
0.0
 11
202.207
 21
23.6871
 31
0.0
  0
LINE
  5
3d4
100
AcDbEntity
  8
0
100
AcDbLine
 62
     253
 10
210.409
 20
30.3044
 30
0.0
 11
201.289
 21
28.6026
 31
0.0
  0
LINE
  5
3d5
100
AcDbEntity
  8
0
100
AcDbLine
 62
     253
 10
211.326
 20
45.8625
 30
0.0
 11
202.207
 21
44.1593
 31
0.0
  0
LINE
  5
3d6
100
AcDbEntity
  8
0
100
AcDbLine
 62
     253
 10
210.409
 20
50.7781
 30
0.0
 11
201.289
 21
49.0746
 31
0.0
  0
LINE
  5
3d7
100
AcDbEntity
  8
0
100
AcDbLine
 62
     253
 10
211.326
 20
127.751
 30
0.0
 11
202.207
 21
126.049
 31
0.0
  0
LINE
  5
3d8
100
AcDbEntity
  8
0
100
AcDbLine
 62
     253
 10
210.409
 20
132.667
 30
0.0
 11
201.289
 21
130.965
 31
0.0
  0
LINE
  5
3d9
100
AcDbEntity
  8
0
100
AcDbLine
 62
     253
 10
197.647
 20
145.671
 30
0.0
 11
188.528
 21
143.968
 31
0.0
  0
LINE
  5
3da
100
AcDbEntity
  8
0
100
AcDbLine
 62
     253
 10
196.73
 20
150.585
 30
0.0
 11
187.61
 21
148.882
 31
0.0
  0
LINE
  5
3db
100
AcDbEntity
  8
0
100
AcDbLine
 62
     253
 10
197.647
 20
248.032
 30
0.0
 11
188.528
 21
246.329
 31
0.0
  0
LINE
  5
3dc
100
AcDbEntity
  8
0
100
AcDbLine
 62
     253
 10
196.73
 20
252.947
 30
0.0
 11
187.61
 21
251.244
 31
0.0
  0
LINE
  5
3dd
100
AcDbEntity
  8
0
100
AcDbLine
 62
     253
 10
197.647
 20
227.56
 30
0.0
 11
188.528
 21
225.856
 31
0.0
  0
LINE
  5
3de
100
AcDbEntity
  8
0
100
AcDbLine
 62
     253
 10
196.73
 20
232.473
 30
0.0
 11
187.61
 21
230.772
 31
0.0
  0
LINE
  5
3df
100
AcDbEntity
  8
0
100
AcDbLine
 62
     253
 10
197.647
 20
452.755
 30
0.0
 11
188.528
 21
451.051
 31
0.0
  0
LINE
  5
3e0
100
AcDbEntity
  8
0
100
AcDbLine
 62
     253
 10
196.73
 20
457.669
 30
0.0
 11
187.61
 21
455.969
 31
0.0
  0
LINE
  5
3e1
100
AcDbEntity
  8
0
100
AcDbLine
 62
     253
 10
197.647
 20
432.283
 30
0.0
 11
188.528
 21
430.579
 31
0.0
  0
LINE
  5
3e2
100
AcDbEntity
  8
0
100
AcDbLine
 62
     253
 10
196.73
 20
437.198
 30
0.0
 11
187.61
 21
435.497
 31
0.0
  0
LINE
  5
3e3
100
AcDbEntity
  8
0
100
AcDbLine
 62
     253
 10
197.647
 20
350.394
 30
0.0
 11
188.528
 21
348.69
 31
0.0
  0
LINE
  5
3e4
100
AcDbEntity
  8
0
100
AcDbLine
 62
     253
 10
196.73
 20
355.307
 30
0.0
 11
187.61
 21
353.607
 31
0.0
  0
LINE
  5
3e5
100
AcDbEntity
  8
0
100
AcDbLine
 62
     253
 10
197.647
 20
329.92
 30
0.0
 11
188.528
 21
328.218
 31
0.0
  0
LINE
  5
3e6
100
AcDbEntity
  8
0
100
AcDbLine
 62
     253
 10
196.73
 20
334.836
 30
0.0
 11
187.61
 21
333.134
 31
0.0
  0
LINE
  5
3e7
100
AcDbEntity
  8
0
100
AcDbLine
 62
     253
 10
197.647
 20
22.8369
 30
0.0
 11
188.528
 21
21.1336
 31
0.0
  0
LINE
  5
3e8
100
AcDbEntity
  8
0
100
AcDbLine
 62
     253
 10
196.73
 20
27.7509
 30
0.0
 11
187.61
 21
26.049
 31
0.0
  0
LINE
  5
3e9
100
AcDbEntity
  8
0
100
AcDbLine
 62
     253
 10
197.647
 20
43.3091
 30
0.0
 11
188.528
 21
41.6059
 31
0.0
  0
LINE
  5
3ea
100
AcDbEntity
  8
0
100
AcDbLine
 62
     253
 10
196.73
 20
48.223
 30
0.0
 11
187.61
 21
46.5212
 31
0.0
  0
LINE
  5
3eb
100
AcDbEntity
  8
0
100
AcDbLine
 62
     253
 10
197.647
 20
125.198
 30
0.0
 11
188.528
 21
123.496
 31
0.0
  0
LINE
  5
3ec
100
AcDbEntity
  8
0
100
AcDbLine
 62
     253
 10
196.73
 20
130.113
 30
0.0
 11
187.61
 21
128.411
 31
0.0
  0
ENDSEC
  0
SECTION
  2
OBJECTS
  0
DICTIONARY
  5
C
330
0
100
AcDbDictionary
  3
ACAD_GROUP
350
D
  3
ACAD_LAYOUT
350
1A
  3
ACAD_MLINESTYLE
350
17
  3
ACAD_PLOTSETTINGS
350
19
  3
ACAD_PLOTSTYLENAME
350
E
  3
ACDBHEADERROUNDTRIPXREC
350
2F
  0
DICTIONARY
  5
52
330
1F
100
AcDbDictionary
280
     1
  3
ACAD_LAYOUTSELFREF
360
53
  0
DICTIONARY
  5
50
330
1B
100
AcDbDictionary
280
     1
  3
ACAD_LAYOUTSELFREF
360
51
  0
DICTIONARY
  5
D
102
{ACAD_REACTORS
330
C
102
}
330
C
100
AcDbDictionary
  0
DICTIONARY
  5
1A
102
{ACAD_REACTORS
330
C
102
}
330
C
100
AcDbDictionary
  0
DICTIONARY
  5
17
102
{ACAD_REACTORS
330
C
102
}
330
C
100
AcDbDictionary
  3
STANDARD
350
18
  0
DICTIONARY
  5
19
102
{ACAD_REACTORS
330
C
102
}
330
C
100
AcDbDictionary
  0
ACDBDICTIONARYWDFLT
  5
E
102
{ACAD_REACTORS
330
C
102
}
330
C
100
AcDbDictionary
281
     1
  3
Normal
350
F
100
AcDbDictionaryWithDefault
340
F
  0
DICTIONARY
  5
2F
102
{ACAD_REACTORS
330
C
102
}
330
C
100
AcDbDictionary
  3
CEPSNTYPE
350
39
  3
DIMSTYLEDATA
350
3D
  3
FINGERPRINTGUID
350
3A
  3
HYPERLINKBASE
350
32
  3
INSUNITS
350
38
  3
LAYOUTDICT
350
34
  3
LWETCUNION
350
37
  3
PLOTSETDICT
350
35
  3
PLOTSTYLNAMDICT
350
36
  3
PSVPSCALE
350
3C
  3
PUCSBASE
350
40
  3
PUCSORGBACK
350
46
  3
PUCSORGBOTTOM
350
42
  3
PUCSORGFRONT
350
45
  3
PUCSORGLEFT
350
43
  3
PUCSORGRIGHT
350
44
  3
PUCSORGTOP
350
41
  3
PUCSORTHOREF
350
3E
  3
PUCSORTHOVIEW
350
3F
  3
STYLESHEET
350
33
  3
TSTACKALIGN
350
30
  3
TSTACKSIZE
350
31
  3
UCSBASE
350
49
  3
UCSORGBACK
350
4F
  3
UCSORGBOTTOM
350
4B
  3
UCSORGFRONT
350
4E
  3
UCSORGLEFT
350
4C
  3
UCSORGRIGHT
350
4D
  3
UCSORGTOP
350
4A
  3
UCSORTHOREF
350
47
  3
UCSORTHOVIEW
350
48
  3
VERSIONGUID
350
3B
  0
XRECORD
  5
53
102
{ACAD_REACTORS
330
52
102
}
330
52
100
AcDbXrecord
340
1F
  0
XRECORD
  5
51
102
{ACAD_REACTORS
330
50
102
}
330
50
100
AcDbXrecord
340
1B
  0
MLINESTYLE
  5
18
102
{ACAD_REACTORS
330
17
102
}
330
17
100
AcDbMlineStyle
  2
STANDARD
 70
     0
  3

 62
   256
 51
90.0
 52
90.0
 71
     2
 49
0.5
 62
   256
  6
BYLAYER
 49
-0.5
 62
   256
  6
BYLAYER
  0
ACDBPLACEHOLDER
  5
F
102
{ACAD_REACTORS
330
E
102
}
330
E
100
AcDbPlaceHolder
280
     0
  0
XRECORD
  5
39
102
{ACAD_REACTORS
330
2F
102
}
330
2F
100
AcDbXrecord
 90
        0
  0
XRECORD
  5
3D
102
{ACAD_REACTORS
330
2F
102
}
330
2F
100
AcDbXrecord
1000
DSTYLE
1002
{
1070
   278
 70
    44
1002
}
  0
XRECORD
  5
3A
102
{ACAD_REACTORS
330
2F
102
}
330
2F
100
AcDbXrecord
  1
{705446A6-11D0-4548-8F8C-A97DCA50327D}
  0
XRECORD
  5
32
102
{ACAD_REACTORS
330
2F
102
}
330
2F
100
AcDbXrecord
  1

  0
XRECORD
  5
38
102
{ACAD_REACTORS
330
2F
102
}
330
2F
100
AcDbXrecord
 90
        4
  0
XRECORD
  5
34
102
{ACAD_REACTORS
330
2F
102
}
330
2F
100
AcDbXrecord
340
1A
  0
XRECORD
  5
37
102
{ACAD_REACTORS
330
2F
102
}
330
2F
100
AcDbXrecord
 90
    10781
  0
XRECORD
  5
35
102
{ACAD_REACTORS
330
2F
102
}
330
2F
100
AcDbXrecord
340
19
  0
XRECORD
  5
36
102
{ACAD_REACTORS
330
2F
102
}
330
2F
100
AcDbXrecord
340
E
  0
XRECORD
  5
3C
102
{ACAD_REACTORS
330
2F
102
}
330
2F
100
AcDbXrecord
 40
0.0
  0
XRECORD
  5
40
102
{ACAD_REACTORS
330
2F
102
}
330
2F
100
AcDbXrecord
340
0
  0
XRECORD
  5
46
102
{ACAD_REACTORS
330
2F
102
}
330
2F
100
AcDbXrecord
 10
0.0
 20
0.0
 30
0.0
  0
XRECORD
  5
42
102
{ACAD_REACTORS
330
2F
102
}
330
2F
100
AcDbXrecord
 10
0.0
 20
0.0
 30
0.0
  0
XRECORD
  5
45
102
{ACAD_REACTORS
330
2F
102
}
330
2F
100
AcDbXrecord
 10
0.0
 20
0.0
 30
0.0
  0
XRECORD
  5
43
102
{ACAD_REACTORS
330
2F
102
}
330
2F
100
AcDbXrecord
 10
0.0
 20
0.0
 30
0.0
  0
XRECORD
  5
44
102
{ACAD_REACTORS
330
2F
102
}
330
2F
100
AcDbXrecord
 10
0.0
 20
0.0
 30
0.0
  0
XRECORD
  5
41
102
{ACAD_REACTORS
330
2F
102
}
330
2F
100
AcDbXrecord
 10
0.0
 20
0.0
 30
0.0
  0
XRECORD
  5
3E
102
{ACAD_REACTORS
330
2F
102
}
330
2F
100
AcDbXrecord
340
0
  0
XRECORD
  5
3F
102
{ACAD_REACTORS
330
2F
102
}
330
2F
100
AcDbXrecord
 70
     0
  0
XRECORD
  5
33
102
{ACAD_REACTORS
330
2F
102
}
330
2F
100
AcDbXrecord
  1

  0
XRECORD
  5
30
102
{ACAD_REACTORS
330
2F
102
}
330
2F
100
AcDbXrecord
 90
        1
  0
XRECORD
  5
31
102
{ACAD_REACTORS
330
2F
102
}
330
2F
100
AcDbXrecord
 90
       70
  0
XRECORD
  5
49
102
{ACAD_REACTORS
330
2F
102
}
330
2F
100
AcDbXrecord
340
0
  0
XRECORD
  5
4F
102
{ACAD_REACTORS
330
2F
102
}
330
2F
100
AcDbXrecord
 10
0.0
 20
0.0
 30
0.0
  0
XRECORD
  5
4B
102
{ACAD_REACTORS
330
2F
102
}
330
2F
100
AcDbXrecord
 10
0.0
 20
0.0
 30
0.0
  0
XRECORD
  5
4E
102
{ACAD_REACTORS
330
2F
102
}
330
2F
100
AcDbXrecord
 10
0.0
 20
0.0
 30
0.0
  0
XRECORD
  5
4C
102
{ACAD_REACTORS
330
2F
102
}
330
2F
100
AcDbXrecord
 10
0.0
 20
0.0
 30
0.0
  0
XRECORD
  5
4D
102
{ACAD_REACTORS
330
2F
102
}
330
2F
100
AcDbXrecord
 10
0.0
 20
0.0
 30
0.0
  0
XRECORD
  5
4A
102
{ACAD_REACTORS
330
2F
102
}
330
2F
100
AcDbXrecord
 10
0.0
 20
0.0
 30
0.0
  0
XRECORD
  5
47
102
{ACAD_REACTORS
330
2F
102
}
330
2F
100
AcDbXrecord
340
0
  0
XRECORD
  5
48
102
{ACAD_REACTORS
330
2F
102
}
330
2F
100
AcDbXrecord
 70
     0
  0
XRECORD
  5
3B
102
{ACAD_REACTORS
330
2F
102
}
330
2F
100
AcDbXrecord
  1
{33328E3A-B6B8-4979-86B7-D70DEC2867C2}
  0
ENDSEC
  0
EOF
