  0
SECTION
  2
HEADER
  9
$ACADVER
  1
AC1014
  9
$EXTMIN
 10
70.16401489310567
 20
112.369642808922
 30
0.0
  9
$EXTMAX
 10
277.0834797641999
 20
227.1366601424358
 30
0.0
  9
$HANDSEED
  5
56
  9
$MEASUREMENT
 70
1
  0
ENDSEC
  0
SECTION
  2
TABLES
  0
TABLE
  2
VPORT
  5
8
330
0
100
AcDbSymbolTable
 70
     4
  0
VPORT
  5
2E
330
8
100
AcDbSymbolTableRecord
100
AcDbViewportTableRecord
  2
*ACTIVE
 70
     0
 10
0.0
 20
0.0
 11
1.0
 21
1.0
 12
209.9999999999999
 22
148.4999999999999
 13
0.0
 23
0.0
 14
10.0
 24
10.0
 15
10.0
 25
10.0
 16
0.0
 26
0.0
 36
1.0
 17
0.0
 27
0.0
 37
0.0
 40
340.9950045922664
 41
1.239944521497919
 42
50.0
 43
0.0
 44
0.0
 50
0.0
 51
0.0
 71
     0
 72
   100
 73
     1
 74
     3
 75
     0
 76
     0
 77
     0
 78
     0
  0
ENDTAB
  0
TABLE
  2
LTYPE
  5
5
330
0
100
AcDbSymbolTable
 70
     1
  0
LTYPE
  5
14
330
5
100
AcDbSymbolTableRecord
100
AcDbLinetypeTableRecord
  2
BYBLOCK
 70
     0
  3

 72
    65
 73
     0
 40
0.0
  0
LTYPE
  5
15
330
5
100
AcDbSymbolTableRecord
100
AcDbLinetypeTableRecord
  2
BYLAYER
 70
     0
  3

 72
    65
 73
     0
 40
0.0
  0
LTYPE
  5
16
330
5
100
AcDbSymbolTableRecord
100
AcDbLinetypeTableRecord
  2
CONTINUOUS
 70
     0
  3
Solid line
 72
    65
 73
     0
 40
0.0
  0
ENDTAB
  0
TABLE
  2
LAYER
  5
2
330
0
100
AcDbSymbolTable
 70
1
  0
LAYER
  5
10
330
2
100
AcDbSymbolTableRecord
100
AcDbLayerTableRecord
  2
0
 70
     0
 62
     7
  6
CONTINUOUS
  0
ENDTAB
  0
TABLE
  2
STYLE
  5
3
330
0
100
AcDbSymbolTable
 70
     1
  0
STYLE
  5
11
330
3
100
AcDbSymbolTableRecord
100
AcDbTextStyleTableRecord
  2
STANDARD
 70
     0
 40
0.0
 41
1.0
 50
0.0
 71
     0
 42
2.5
  3
txt
  4

  0
ENDTAB
  0
TABLE
  2
VIEW
  5
6
330
0
100
AcDbSymbolTable
 70
     0
  0
ENDTAB
  0
TABLE
  2
UCS
  5
7
330
0
100
AcDbSymbolTable
 70
     0
  0
ENDTAB
  0
TABLE
  2
APPID
  5
9
330
0
100
AcDbSymbolTable
 70
     2
  0
APPID
  5
12
330
9
100
AcDbSymbolTableRecord
100
AcDbRegAppTableRecord
  2
ACAD
 70
     0
  0
APPID
  5
2B
330
9
100
AcDbSymbolTableRecord
100
AcDbRegAppTableRecord
  2
URBANX
 70
     0
  0
ENDTAB
  0
TABLE
  2
DIMSTYLE
  5
A
330
0
100
AcDbSymbolTable
 70
     1
  0
DIMSTYLE
105
27
330
A
100
AcDbSymbolTableRecord
100
AcDbDimStyleTableRecord
  2
ISO-25
 70
     0
  3

  4

  5

  6

  7

 40
1.0
 41
2.5
 42
0.625
 43
3.75
 44
1.25
 45
0.0
 46
0.0
 47
0.0
 48
0.0
140
2.5
141
2.5
142
0.0
143
0.03937007874016
144
1.0
145
0.0
146
1.0
147
0.625
 71
     0
 72
     0
 73
     0
 74
     0
 75
     0
 76
     0
 77
     1
 78
     8
170
     0
171
     3
172
     1
173
     0
174
     0
175
     0
176
     0
177
     0
178
     0
270
     2
271
     2
272
     2
273
     2
274
     3
340
11
275
     0
280
     0
281
     0
282
     0
283
     0
284
     8
285
     0
286
     0
287
     3
288
     0
  0
ENDTAB
  0
TABLE
  2
BLOCK_RECORD
  5
1
330
0
100
AcDbSymbolTable
 70
     1
  0
BLOCK_RECORD
  5
1F
102
{ACAD_XDICTIONARY
360
52
102
}
330
1
100
AcDbSymbolTableRecord
100
AcDbBlockTableRecord
  2
*MODEL_SPACE
  0
BLOCK_RECORD
  5
1B
102
{ACAD_XDICTIONARY
360
50
102
}
330
1
100
AcDbSymbolTableRecord
100
AcDbBlockTableRecord
  2
*PAPER_SPACE
  0
ENDTAB
  0
ENDSEC
  0
SECTION
  2
BLOCKS
  0
BLOCK
  5
20
330
1F
100
AcDbEntity
  8
0
100
AcDbBlockBegin
  2
*MODEL_SPACE
 70
     0
 10
0.0
 20
0.0
 30
0.0
  3
*MODEL_SPACE
  1

  0
ENDBLK
  5
21
330
1F
100
AcDbEntity
  8
0
100
AcDbBlockEnd
  0
BLOCK
  5
1C
330
1B
100
AcDbEntity
 67
     1
  8
0
100
AcDbBlockBegin
  2
*PAPER_SPACE
  1

  0
ENDBLK
  5
1D
330
1B
100
AcDbEntity
 67
     1
  8
0
100
AcDbBlockEnd
  0
ENDSEC
  0
SECTION
  2
ENTITIES
  0
LINE
  5
ff
100
AcDbEntity
  8
0
100
AcDbLine
 62
     7
 10
22.0004
 20
361.83
 30
0.0
 11
22.9995
 21
362.828
 31
0.0
  0
LINE
  5
100
100
AcDbEntity
  8
0
100
AcDbLine
 62
     7
 10
22.9995
 20
362.828
 30
0.0
 11
22.9995
 21
393.827
 31
0.0
  0
LINE
  5
101
100
AcDbEntity
  8
0
100
AcDbLine
 62
     7
 10
22.9995
 20
393.827
 30
0.0
 11
22.0004
 21
394.829
 31
0.0
  0
LINE
  5
102
100
AcDbEntity
  8
0
100
AcDbLine
 62
     7
 10
22.0004
 20
394.829
 30
0.0
 11
12.5002
 21
394.829
 31
0.0
  0
LINE
  5
103
100
AcDbEntity
  8
0
100
AcDbLine
 62
     7
 10
12.5002
 20
394.829
 30
0.0
 11
12.5002
 21
418.828
 31
0.0
  0
LINE
  5
104
100
AcDbEntity
  8
0
100
AcDbLine
 62
     7
 10
12.5002
 20
418.828
 30
0.0
 11
10.5006
 21
418.828
 31
0.0
  0
LINE
  5
105
100
AcDbEntity
  8
0
100
AcDbLine
 62
     7
 10
10.5006
 20
418.828
 30
0.0
 11
10.5006
 21
394.829
 31
0.0
  0
LINE
  5
106
100
AcDbEntity
  8
0
100
AcDbLine
 62
     7
 10
10.5006
 20
394.829
 30
0.0
 11
1.00046
 21
394.829
 31
0.0
  0
LINE
  5
107
100
AcDbEntity
  8
0
100
AcDbLine
 62
     7
 10
1.00046
 20
394.829
 30
0.0
 11
0
 21
393.827
 31
0.0
  0
LINE
  5
108
100
AcDbEntity
  8
0
100
AcDbLine
 62
     7
 10
0
 20
393.827
 30
0.0
 11
0
 21
362.828
 31
0.0
  0
LINE
  5
109
100
AcDbEntity
  8
0
100
AcDbLine
 62
     7
 10
0
 20
362.828
 30
0.0
 11
1.00046
 21
361.83
 31
0.0
  0
LINE
  5
10a
100
AcDbEntity
  8
0
100
AcDbLine
 62
     7
 10
1.00046
 20
361.83
 30
0.0
 11
10.5006
 21
361.83
 31
0.0
  0
LINE
  5
10b
100
AcDbEntity
  8
0
100
AcDbLine
 62
     7
 10
10.5006
 20
361.83
 30
0.0
 11
10.5006
 21
355.829
 31
0.0
  0
LINE
  5
10c
100
AcDbEntity
  8
0
100
AcDbLine
 62
     7
 10
10.5006
 20
355.829
 30
0.0
 11
12.5002
 21
355.829
 31
0.0
  0
LINE
  5
10d
100
AcDbEntity
  8
0
100
AcDbLine
 62
     7
 10
12.5002
 20
355.829
 30
0.0
 11
12.5002
 21
361.83
 31
0.0
  0
LINE
  5
10e
100
AcDbEntity
  8
0
100
AcDbLine
 62
     7
 10
12.5002
 20
361.83
 30
0.0
 11
22.0004
 21
361.83
 31
0.0
  0
LINE
  5
10f
100
AcDbEntity
  8
0
100
AcDbLine
 62
     7
 10
22.0004
 20
361.83
 30
0.0
 11
22.9995
 21
362.828
 31
0.0
  0
LINE
  5
110
100
AcDbEntity
  8
0
100
AcDbLine
 62
     7
 10
22.9995
 20
362.828
 30
0.0
 11
22.9995
 21
393.827
 31
0.0
  0
LINE
  5
111
100
AcDbEntity
  8
0
100
AcDbLine
 62
     7
 10
22.9995
 20
393.827
 30
0.0
 11
22.0004
 21
394.829
 31
0.0
  0
LINE
  5
112
100
AcDbEntity
  8
0
100
AcDbLine
 62
     7
 10
22.0004
 20
394.829
 30
0.0
 11
12.5002
 21
394.829
 31
0.0
  0
LINE
  5
113
100
AcDbEntity
  8
0
100
AcDbLine
 62
     7
 10
12.5002
 20
394.829
 30
0.0
 11
12.5002
 21
361.83
 31
0.0
  0
LINE
  5
114
100
AcDbEntity
  8
0
100
AcDbLine
 62
     7
 10
12.5002
 20
361.83
 30
0.0
 11
22.0004
 21
361.83
 31
0.0
  0
LINE
  5
115
100
AcDbEntity
  8
0
100
AcDbLine
 62
     7
 10
10.5006
 20
361.83
 30
0.0
 11
10.5006
 21
394.829
 31
0.0
  0
LINE
  5
116
100
AcDbEntity
  8
0
100
AcDbLine
 62
     7
 10
10.5006
 20
394.829
 30
0.0
 11
1.00046
 21
394.829
 31
0.0
  0
LINE
  5
117
100
AcDbEntity
  8
0
100
AcDbLine
 62
     7
 10
1.00046
 20
394.829
 30
0.0
 11
0
 21
393.827
 31
0.0
  0
LINE
  5
118
100
AcDbEntity
  8
0
100
AcDbLine
 62
     7
 10
0
 20
393.827
 30
0.0
 11
0
 21
362.828
 31
0.0
  0
LINE
  5
119
100
AcDbEntity
  8
0
100
AcDbLine
 62
     7
 10
0
 20
362.828
 30
0.0
 11
1.00046
 21
361.83
 31
0.0
  0
LINE
  5
11a
100
AcDbEntity
  8
0
100
AcDbLine
 62
     7
 10
1.00046
 20
361.83
 30
0.0
 11
10.5006
 21
361.83
 31
0.0
  0
LINE
  5
11b
100
AcDbEntity
  8
0
100
AcDbLine
 62
     7
 10
10.5006
 20
417.826
 30
0.0
 11
12.5002
 21
417.826
 31
0.0
  0
LINE
  5
11c
100
AcDbEntity
  8
0
100
AcDbLine
 62
     7
 10
12.5002
 20
417.826
 30
0.0
 11
12.5002
 21
356.828
 31
0.0
  0
LINE
  5
11d
100
AcDbEntity
  8
0
100
AcDbLine
 62
     7
 10
12.5002
 20
356.828
 30
0.0
 11
10.5006
 21
356.828
 31
0.0
  0
LINE
  5
11e
100
AcDbEntity
  8
0
100
AcDbLine
 62
     7
 10
10.5006
 20
356.828
 30
0.0
 11
10.5006
 21
417.826
 31
0.0
  0
SPLINE
  5
11f
100
AcDbEntity
  8
0
100
AcDbSpline
210
0.0
220
0.0
230
1.0
 62
     7
 70
     0
 71
     3
 72
     8
 73
4
 40
0.0
 40
0.0
 40
0.0
 40
0.0
 40
1.0
 40
1.0
 40
1.0
 40
1.0
 10
19.9995
 20
365.831
 30
0.0
 10
19.9995
 20
365.277
 30
0.0
 10
19.5516
 20
364.829
 30
0.0
 10
19.0004
 20
364.829
 30
0.0
  0
SPLINE
  5
120
100
AcDbEntity
  8
0
100
AcDbSpline
210
0.0
220
0.0
230
1.0
 62
     7
 70
     0
 71
     3
 72
     8
 73
4
 40
0.0
 40
0.0
 40
0.0
 40
0.0
 40
1.0
 40
1.0
 40
1.0
 40
1.0
 10
19.0004
 20
364.829
 30
0.0
 10
18.4478
 20
364.829
 30
0.0
 10
17.9999
 20
365.277
 30
0.0
 10
17.9999
 20
365.831
 30
0.0
  0
SPLINE
  5
121
100
AcDbEntity
  8
0
100
AcDbSpline
210
0.0
220
0.0
230
1.0
 62
     7
 70
     0
 71
     3
 72
     8
 73
4
 40
0.0
 40
0.0
 40
0.0
 40
0.0
 40
1.0
 40
1.0
 40
1.0
 40
1.0
 10
17.9999
 20
365.831
 30
0.0
 10
17.9999
 20
366.381
 30
0.0
 10
18.4478
 20
366.829
 30
0.0
 10
19.0004
 20
366.829
 30
0.0
  0
SPLINE
  5
122
100
AcDbEntity
  8
0
100
AcDbSpline
210
0.0
220
0.0
230
1.0
 62
     7
 70
     0
 71
     3
 72
     8
 73
4
 40
0.0
 40
0.0
 40
0.0
 40
0.0
 40
1.0
 40
1.0
 40
1.0
 40
1.0
 10
19.0004
 20
366.829
 30
0.0
 10
19.5516
 20
366.829
 30
0.0
 10
19.9995
 20
366.381
 30
0.0
 10
19.9995
 20
365.831
 30
0.0
  0
SPLINE
  5
123
100
AcDbEntity
  8
0
100
AcDbSpline
210
0.0
220
0.0
230
1.0
 62
     7
 70
     0
 71
     3
 72
     8
 73
4
 40
0.0
 40
0.0
 40
0.0
 40
0.0
 40
1.0
 40
1.0
 40
1.0
 40
1.0
 10
19.9995
 20
390.828
 30
0.0
 10
19.9995
 20
390.278
 30
0.0
 10
19.5516
 20
389.83
 30
0.0
 10
19.0004
 20
389.83
 30
0.0
  0
SPLINE
  5
124
100
AcDbEntity
  8
0
100
AcDbSpline
210
0.0
220
0.0
230
1.0
 62
     7
 70
     0
 71
     3
 72
     8
 73
4
 40
0.0
 40
0.0
 40
0.0
 40
0.0
 40
1.0
 40
1.0
 40
1.0
 40
1.0
 10
19.0004
 20
389.83
 30
0.0
 10
18.4478
 20
389.83
 30
0.0
 10
17.9999
 20
390.278
 30
0.0
 10
17.9999
 20
390.828
 30
0.0
  0
SPLINE
  5
125
100
AcDbEntity
  8
0
100
AcDbSpline
210
0.0
220
0.0
230
1.0
 62
     7
 70
     0
 71
     3
 72
     8
 73
4
 40
0.0
 40
0.0
 40
0.0
 40
0.0
 40
1.0
 40
1.0
 40
1.0
 40
1.0
 10
17.9999
 20
390.828
 30
0.0
 10
17.9999
 20
391.382
 30
0.0
 10
18.4478
 20
391.83
 30
0.0
 10
19.0004
 20
391.83
 30
0.0
  0
SPLINE
  5
126
100
AcDbEntity
  8
0
100
AcDbSpline
210
0.0
220
0.0
230
1.0
 62
     7
 70
     0
 71
     3
 72
     8
 73
4
 40
0.0
 40
0.0
 40
0.0
 40
0.0
 40
1.0
 40
1.0
 40
1.0
 40
1.0
 10
19.0004
 20
391.83
 30
0.0
 10
19.5516
 20
391.83
 30
0.0
 10
19.9995
 20
391.382
 30
0.0
 10
19.9995
 20
390.828
 30
0.0
  0
SPLINE
  5
127
100
AcDbEntity
  8
0
100
AcDbSpline
210
0.0
220
0.0
230
1.0
 62
     7
 70
     0
 71
     3
 72
     8
 73
4
 40
0.0
 40
0.0
 40
0.0
 40
0.0
 40
1.0
 40
1.0
 40
1.0
 40
1.0
 10
4.99953
 20
390.828
 30
0.0
 10
4.99953
 20
390.278
 30
0.0
 10
4.55164
 20
389.83
 30
0.0
 10
4.00043
 20
389.83
 30
0.0
  0
SPLINE
  5
128
100
AcDbEntity
  8
0
100
AcDbSpline
210
0.0
220
0.0
230
1.0
 62
     7
 70
     0
 71
     3
 72
     8
 73
4
 40
0.0
 40
0.0
 40
0.0
 40
0.0
 40
1.0
 40
1.0
 40
1.0
 40
1.0
 10
4.00043
 20
389.83
 30
0.0
 10
3.44785
 20
389.83
 30
0.0
 10
2.99999
 20
390.278
 30
0.0
 10
2.99999
 20
390.828
 30
0.0
  0
SPLINE
  5
129
100
AcDbEntity
  8
0
100
AcDbSpline
210
0.0
220
0.0
230
1.0
 62
     7
 70
     0
 71
     3
 72
     8
 73
4
 40
0.0
 40
0.0
 40
0.0
 40
0.0
 40
1.0
 40
1.0
 40
1.0
 40
1.0
 10
2.99999
 20
390.828
 30
0.0
 10
2.99999
 20
391.382
 30
0.0
 10
3.44785
 20
391.83
 30
0.0
 10
4.00043
 20
391.83
 30
0.0
  0
SPLINE
  5
12a
100
AcDbEntity
  8
0
100
AcDbSpline
210
0.0
220
0.0
230
1.0
 62
     7
 70
     0
 71
     3
 72
     8
 73
4
 40
0.0
 40
0.0
 40
0.0
 40
0.0
 40
1.0
 40
1.0
 40
1.0
 40
1.0
 10
4.00043
 20
391.83
 30
0.0
 10
4.55164
 20
391.83
 30
0.0
 10
4.99953
 20
391.382
 30
0.0
 10
4.99953
 20
390.828
 30
0.0
  0
SPLINE
  5
12b
100
AcDbEntity
  8
0
100
AcDbSpline
210
0.0
220
0.0
230
1.0
 62
     7
 70
     0
 71
     3
 72
     8
 73
4
 40
0.0
 40
0.0
 40
0.0
 40
0.0
 40
1.0
 40
1.0
 40
1.0
 40
1.0
 10
4.99953
 20
365.831
 30
0.0
 10
4.99953
 20
365.277
 30
0.0
 10
4.55164
 20
364.829
 30
0.0
 10
4.00043
 20
364.829
 30
0.0
  0
SPLINE
  5
12c
100
AcDbEntity
  8
0
100
AcDbSpline
210
0.0
220
0.0
230
1.0
 62
     7
 70
     0
 71
     3
 72
     8
 73
4
 40
0.0
 40
0.0
 40
0.0
 40
0.0
 40
1.0
 40
1.0
 40
1.0
 40
1.0
 10
4.00043
 20
364.829
 30
0.0
 10
3.44785
 20
364.829
 30
0.0
 10
2.99999
 20
365.277
 30
0.0
 10
2.99999
 20
365.831
 30
0.0
  0
SPLINE
  5
12d
100
AcDbEntity
  8
0
100
AcDbSpline
210
0.0
220
0.0
230
1.0
 62
     7
 70
     0
 71
     3
 72
     8
 73
4
 40
0.0
 40
0.0
 40
0.0
 40
0.0
 40
1.0
 40
1.0
 40
1.0
 40
1.0
 10
2.99999
 20
365.831
 30
0.0
 10
2.99999
 20
366.381
 30
0.0
 10
3.44785
 20
366.829
 30
0.0
 10
4.00043
 20
366.829
 30
0.0
  0
SPLINE
  5
12e
100
AcDbEntity
  8
0
100
AcDbSpline
210
0.0
220
0.0
230
1.0
 62
     7
 70
     0
 71
     3
 72
     8
 73
4
 40
0.0
 40
0.0
 40
0.0
 40
0.0
 40
1.0
 40
1.0
 40
1.0
 40
1.0
 10
4.00043
 20
366.829
 30
0.0
 10
4.55164
 20
366.829
 30
0.0
 10
4.99953
 20
366.381
 30
0.0
 10
4.99953
 20
365.831
 30
0.0
  0
LINE
  5
12f
100
AcDbEntity
  8
0
100
AcDbLine
 62
     7
 10
10.5006
 20
356.828
 30
0.0
 11
12.5002
 21
356.828
 31
0.0
  0
LINE
  5
130
100
AcDbEntity
  8
0
100
AcDbLine
 62
     7
 10
12.5002
 20
356.828
 30
0.0
 11
12.5002
 21
355.829
 31
0.0
  0
LINE
  5
131
100
AcDbEntity
  8
0
100
AcDbLine
 62
     7
 10
12.5002
 20
355.829
 30
0.0
 11
10.5006
 21
355.829
 31
0.0
  0
LINE
  5
132
100
AcDbEntity
  8
0
100
AcDbLine
 62
     7
 10
10.5006
 20
355.829
 30
0.0
 11
10.5006
 21
356.828
 31
0.0
  0
LINE
  5
133
100
AcDbEntity
  8
0
100
AcDbLine
 62
     7
 10
10.5006
 20
418.828
 30
0.0
 11
12.5002
 21
418.828
 31
0.0
  0
LINE
  5
134
100
AcDbEntity
  8
0
100
AcDbLine
 62
     7
 10
12.5002
 20
418.828
 30
0.0
 11
12.5002
 21
417.826
 31
0.0
  0
LINE
  5
135
100
AcDbEntity
  8
0
100
AcDbLine
 62
     7
 10
12.5002
 20
417.826
 30
0.0
 11
10.5006
 21
417.826
 31
0.0
  0
LINE
  5
136
100
AcDbEntity
  8
0
100
AcDbLine
 62
     7
 10
10.5006
 20
417.826
 30
0.0
 11
10.5006
 21
418.828
 31
0.0
  0
LINE
  5
137
100
AcDbEntity
  8
0
100
AcDbLine
 62
     0
 10
4.00043
 20
390.43
 30
0.0
 11
4.00043
 21
391.231
 31
0.0
  0
LINE
  5
138
100
AcDbEntity
  8
0
100
AcDbLine
 62
     0
 10
4.40009
 20
390.828
 30
0.0
 11
3.59943
 21
390.828
 31
0.0
  0
LINE
  5
139
100
AcDbEntity
  8
0
100
AcDbLine
 62
     0
 10
4.00043
 20
390.43
 30
0.0
 11
4.00043
 21
391.231
 31
0.0
  0
LINE
  5
13a
100
AcDbEntity
  8
0
100
AcDbLine
 62
     0
 10
4.40009
 20
390.828
 30
0.0
 11
3.59943
 21
390.828
 31
0.0
  0
LINE
  5
13b
100
AcDbEntity
  8
0
100
AcDbLine
 62
     0
 10
4.00043
 20
365.428
 30
0.0
 11
4.00043
 21
366.229
 31
0.0
  0
LINE
  5
13c
100
AcDbEntity
  8
0
100
AcDbLine
 62
     0
 10
4.40009
 20
365.831
 30
0.0
 11
3.59943
 21
365.831
 31
0.0
  0
LINE
  5
13d
100
AcDbEntity
  8
0
100
AcDbLine
 62
     0
 10
4.00043
 20
365.428
 30
0.0
 11
4.00043
 21
366.229
 31
0.0
  0
LINE
  5
13e
100
AcDbEntity
  8
0
100
AcDbLine
 62
     0
 10
4.40009
 20
365.831
 30
0.0
 11
3.59943
 21
365.831
 31
0.0
  0
LINE
  5
13f
100
AcDbEntity
  8
0
100
AcDbLine
 62
     0
 10
19.0004
 20
365.428
 30
0.0
 11
19.0004
 21
366.229
 31
0.0
  0
LINE
  5
140
100
AcDbEntity
  8
0
100
AcDbLine
 62
     0
 10
19.4
 20
365.831
 30
0.0
 11
18.5994
 21
365.831
 31
0.0
  0
LINE
  5
141
100
AcDbEntity
  8
0
100
AcDbLine
 62
     0
 10
19.0004
 20
365.428
 30
0.0
 11
19.0004
 21
366.229
 31
0.0
  0
LINE
  5
142
100
AcDbEntity
  8
0
100
AcDbLine
 62
     0
 10
19.4
 20
365.831
 30
0.0
 11
18.5994
 21
365.831
 31
0.0
  0
LINE
  5
143
100
AcDbEntity
  8
0
100
AcDbLine
 62
     0
 10
19.0004
 20
390.43
 30
0.0
 11
19.0004
 21
391.231
 31
0.0
  0
LINE
  5
144
100
AcDbEntity
  8
0
100
AcDbLine
 62
     0
 10
19.4
 20
390.828
 30
0.0
 11
18.5994
 21
390.828
 31
0.0
  0
LINE
  5
145
100
AcDbEntity
  8
0
100
AcDbLine
 62
     0
 10
19.0004
 20
390.43
 30
0.0
 11
19.0004
 21
391.231
 31
0.0
  0
LINE
  5
146
100
AcDbEntity
  8
0
100
AcDbLine
 62
     0
 10
19.4
 20
390.828
 30
0.0
 11
18.5994
 21
390.828
 31
0.0
  0
LINE
  5
147
100
AcDbEntity
  8
0
100
AcDbLine
 62
     7
 10
54.6005
 20
356.828
 30
0.0
 11
55.5995
 21
355.829
 31
0.0
  0
LINE
  5
148
100
AcDbEntity
  8
0
100
AcDbLine
 62
     7
 10
55.5995
 20
355.829
 30
0.0
 11
64.5996
 21
355.829
 31
0.0
  0
LINE
  5
149
100
AcDbEntity
  8
0
100
AcDbLine
 62
     7
 10
64.5996
 20
355.829
 30
0.0
 11
65.6001
 21
356.828
 31
0.0
  0
LINE
  5
14a
100
AcDbEntity
  8
0
100
AcDbLine
 62
     7
 10
65.6001
 20
356.828
 30
0.0
 11
65.6001
 21
417.826
 31
0.0
  0
LINE
  5
14b
100
AcDbEntity
  8
0
100
AcDbLine
 62
     7
 10
65.6001
 20
417.826
 30
0.0
 11
64.5996
 21
418.828
 31
0.0
  0
LINE
  5
14c
100
AcDbEntity
  8
0
100
AcDbLine
 62
     7
 10
64.5996
 20
418.828
 30
0.0
 11
55.5995
 21
418.828
 31
0.0
  0
LINE
  5
14d
100
AcDbEntity
  8
0
100
AcDbLine
 62
     7
 10
55.5995
 20
418.828
 30
0.0
 11
54.6005
 21
417.826
 31
0.0
  0
LINE
  5
14e
100
AcDbEntity
  8
0
100
AcDbLine
 62
     7
 10
54.6005
 20
417.826
 30
0.0
 11
54.6005
 21
394.829
 31
0.0
  0
LINE
  5
14f
100
AcDbEntity
  8
0
100
AcDbLine
 62
     7
 10
54.6005
 20
394.829
 30
0.0
 11
53.4003
 21
394.829
 31
0.0
  0
LINE
  5
150
100
AcDbEntity
  8
0
100
AcDbLine
 62
     7
 10
53.4003
 20
394.829
 30
0.0
 11
53.4003
 21
361.83
 31
0.0
  0
LINE
  5
151
100
AcDbEntity
  8
0
100
AcDbLine
 62
     7
 10
53.4003
 20
361.83
 30
0.0
 11
54.6005
 21
361.83
 31
0.0
  0
LINE
  5
152
100
AcDbEntity
  8
0
100
AcDbLine
 62
     7
 10
54.6005
 20
361.83
 30
0.0
 11
54.6005
 21
356.828
 31
0.0
  0
LINE
  5
153
100
AcDbEntity
  8
0
100
AcDbLine
 62
     7
 10
54.6005
 20
356.828
 30
0.0
 11
55.5995
 21
355.829
 31
0.0
  0
LINE
  5
154
100
AcDbEntity
  8
0
100
AcDbLine
 62
     7
 10
55.5995
 20
355.829
 30
0.0
 11
64.5996
 21
355.829
 31
0.0
  0
LINE
  5
155
100
AcDbEntity
  8
0
100
AcDbLine
 62
     7
 10
64.5996
 20
355.829
 30
0.0
 11
65.6001
 21
356.828
 31
0.0
  0
LINE
  5
156
100
AcDbEntity
  8
0
100
AcDbLine
 62
     7
 10
65.6001
 20
356.828
 30
0.0
 11
65.6001
 21
417.826
 31
0.0
  0
LINE
  5
157
100
AcDbEntity
  8
0
100
AcDbLine
 62
     7
 10
65.6001
 20
417.826
 30
0.0
 11
64.5996
 21
418.828
 31
0.0
  0
LINE
  5
158
100
AcDbEntity
  8
0
100
AcDbLine
 62
     7
 10
64.5996
 20
418.828
 30
0.0
 11
55.5995
 21
418.828
 31
0.0
  0
LINE
  5
159
100
AcDbEntity
  8
0
100
AcDbLine
 62
     7
 10
55.5995
 20
418.828
 30
0.0
 11
54.6005
 21
417.826
 31
0.0
  0
LINE
  5
15a
100
AcDbEntity
  8
0
100
AcDbLine
 62
     7
 10
54.6005
 20
417.826
 30
0.0
 11
54.6005
 21
356.828
 31
0.0
  0
LINE
  5
15b
100
AcDbEntity
  8
0
100
AcDbLine
 62
     7
 10
53.4003
 20
393.827
 30
0.0
 11
54.6005
 21
393.827
 31
0.0
  0
LINE
  5
15c
100
AcDbEntity
  8
0
100
AcDbLine
 62
     7
 10
54.6005
 20
393.827
 30
0.0
 11
54.6005
 21
362.828
 31
0.0
  0
LINE
  5
15d
100
AcDbEntity
  8
0
100
AcDbLine
 62
     7
 10
54.6005
 20
362.828
 30
0.0
 11
53.4003
 21
362.828
 31
0.0
  0
LINE
  5
15e
100
AcDbEntity
  8
0
100
AcDbLine
 62
     7
 10
53.4003
 20
362.828
 30
0.0
 11
53.4003
 21
393.827
 31
0.0
  0
SPLINE
  5
15f
100
AcDbEntity
  8
0
100
AcDbSpline
210
0.0
220
0.0
230
1.0
 62
     7
 70
     0
 71
     3
 72
     8
 73
4
 40
0.0
 40
0.0
 40
0.0
 40
0.0
 40
1.0
 40
1.0
 40
1.0
 40
1.0
 10
61.5996
 20
369.327
 30
0.0
 10
61.5996
 20
368.776
 30
0.0
 10
61.1519
 20
368.328
 30
0.0
 10
60.6005
 20
368.328
 30
0.0
  0
SPLINE
  5
160
100
AcDbEntity
  8
0
100
AcDbSpline
210
0.0
220
0.0
230
1.0
 62
     7
 70
     0
 71
     3
 72
     8
 73
4
 40
0.0
 40
0.0
 40
0.0
 40
0.0
 40
1.0
 40
1.0
 40
1.0
 40
1.0
 10
60.6005
 20
368.328
 30
0.0
 10
60.0481
 20
368.328
 30
0.0
 10
59.6
 20
368.776
 30
0.0
 10
59.6
 20
369.327
 30
0.0
  0
SPLINE
  5
161
100
AcDbEntity
  8
0
100
AcDbSpline
210
0.0
220
0.0
230
1.0
 62
     7
 70
     0
 71
     3
 72
     8
 73
4
 40
0.0
 40
0.0
 40
0.0
 40
0.0
 40
1.0
 40
1.0
 40
1.0
 40
1.0
 10
59.6
 20
369.327
 30
0.0
 10
59.6
 20
369.88
 30
0.0
 10
60.0481
 20
370.328
 30
0.0
 10
60.6005
 20
370.328
 30
0.0
  0
SPLINE
  5
162
100
AcDbEntity
  8
0
100
AcDbSpline
210
0.0
220
0.0
230
1.0
 62
     7
 70
     0
 71
     3
 72
     8
 73
4
 40
0.0
 40
0.0
 40
0.0
 40
0.0
 40
1.0
 40
1.0
 40
1.0
 40
1.0
 10
60.6005
 20
370.328
 30
0.0
 10
61.1519
 20
370.328
 30
0.0
 10
61.5996
 20
369.88
 30
0.0
 10
61.5996
 20
369.327
 30
0.0
  0
SPLINE
  5
163
100
AcDbEntity
  8
0
100
AcDbSpline
210
0.0
220
0.0
230
1.0
 62
     7
 70
     0
 71
     3
 72
     8
 73
4
 40
0.0
 40
0.0
 40
0.0
 40
0.0
 40
1.0
 40
1.0
 40
1.0
 40
1.0
 10
61.5996
 20
414.33
 30
0.0
 10
61.5996
 20
413.777
 30
0.0
 10
61.1519
 20
413.329
 30
0.0
 10
60.6005
 20
413.329
 30
0.0
  0
SPLINE
  5
164
100
AcDbEntity
  8
0
100
AcDbSpline
210
0.0
220
0.0
230
1.0
 62
     7
 70
     0
 71
     3
 72
     8
 73
4
 40
0.0
 40
0.0
 40
0.0
 40
0.0
 40
1.0
 40
1.0
 40
1.0
 40
1.0
 10
60.6005
 20
413.329
 30
0.0
 10
60.0481
 20
413.329
 30
0.0
 10
59.6
 20
413.777
 30
0.0
 10
59.6
 20
414.33
 30
0.0
  0
SPLINE
  5
165
100
AcDbEntity
  8
0
100
AcDbSpline
210
0.0
220
0.0
230
1.0
 62
     7
 70
     0
 71
     3
 72
     8
 73
4
 40
0.0
 40
0.0
 40
0.0
 40
0.0
 40
1.0
 40
1.0
 40
1.0
 40
1.0
 10
59.6
 20
414.33
 30
0.0
 10
59.6
 20
414.881
 30
0.0
 10
60.0481
 20
415.329
 30
0.0
 10
60.6005
 20
415.329
 30
0.0
  0
SPLINE
  5
166
100
AcDbEntity
  8
0
100
AcDbSpline
210
0.0
220
0.0
230
1.0
 62
     7
 70
     0
 71
     3
 72
     8
 73
4
 40
0.0
 40
0.0
 40
0.0
 40
0.0
 40
1.0
 40
1.0
 40
1.0
 40
1.0
 10
60.6005
 20
415.329
 30
0.0
 10
61.1519
 20
415.329
 30
0.0
 10
61.5996
 20
414.881
 30
0.0
 10
61.5996
 20
414.33
 30
0.0
  0
SPLINE
  5
167
100
AcDbEntity
  8
0
100
AcDbSpline
210
0.0
220
0.0
230
1.0
 62
     7
 70
     0
 71
     3
 72
     8
 73
4
 40
0.0
 40
0.0
 40
0.0
 40
0.0
 40
1.0
 40
1.0
 40
1.0
 40
1.0
 10
61.5996
 20
405.328
 30
0.0
 10
61.5996
 20
404.777
 30
0.0
 10
61.1519
 20
404.329
 30
0.0
 10
60.6005
 20
404.329
 30
0.0
  0
SPLINE
  5
168
100
AcDbEntity
  8
0
100
AcDbSpline
210
0.0
220
0.0
230
1.0
 62
     7
 70
     0
 71
     3
 72
     8
 73
4
 40
0.0
 40
0.0
 40
0.0
 40
0.0
 40
1.0
 40
1.0
 40
1.0
 40
1.0
 10
60.6005
 20
404.329
 30
0.0
 10
60.0481
 20
404.329
 30
0.0
 10
59.6
 20
404.777
 30
0.0
 10
59.6
 20
405.328
 30
0.0
  0
SPLINE
  5
169
100
AcDbEntity
  8
0
100
AcDbSpline
210
0.0
220
0.0
230
1.0
 62
     7
 70
     0
 71
     3
 72
     8
 73
4
 40
0.0
 40
0.0
 40
0.0
 40
0.0
 40
1.0
 40
1.0
 40
1.0
 40
1.0
 10
59.6
 20
405.328
 30
0.0
 10
59.6
 20
405.881
 30
0.0
 10
60.0481
 20
406.329
 30
0.0
 10
60.6005
 20
406.329
 30
0.0
  0
SPLINE
  5
16a
100
AcDbEntity
  8
0
100
AcDbSpline
210
0.0
220
0.0
230
1.0
 62
     7
 70
     0
 71
     3
 72
     8
 73
4
 40
0.0
 40
0.0
 40
0.0
 40
0.0
 40
1.0
 40
1.0
 40
1.0
 40
1.0
 10
60.6005
 20
406.329
 30
0.0
 10
61.1519
 20
406.329
 30
0.0
 10
61.5996
 20
405.881
 30
0.0
 10
61.5996
 20
405.328
 30
0.0
  0
SPLINE
  5
16b
100
AcDbEntity
  8
0
100
AcDbSpline
210
0.0
220
0.0
230
1.0
 62
     7
 70
     0
 71
     3
 72
     8
 73
4
 40
0.0
 40
0.0
 40
0.0
 40
0.0
 40
1.0
 40
1.0
 40
1.0
 40
1.0
 10
61.5996
 20
360.327
 30
0.0
 10
61.5996
 20
359.777
 30
0.0
 10
61.1519
 20
359.329
 30
0.0
 10
60.6005
 20
359.329
 30
0.0
  0
SPLINE
  5
16c
100
AcDbEntity
  8
0
100
AcDbSpline
210
0.0
220
0.0
230
1.0
 62
     7
 70
     0
 71
     3
 72
     8
 73
4
 40
0.0
 40
0.0
 40
0.0
 40
0.0
 40
1.0
 40
1.0
 40
1.0
 40
1.0
 10
60.6005
 20
359.329
 30
0.0
 10
60.0481
 20
359.329
 30
0.0
 10
59.6
 20
359.777
 30
0.0
 10
59.6
 20
360.327
 30
0.0
  0
SPLINE
  5
16d
100
AcDbEntity
  8
0
100
AcDbSpline
210
0.0
220
0.0
230
1.0
 62
     7
 70
     0
 71
     3
 72
     8
 73
4
 40
0.0
 40
0.0
 40
0.0
 40
0.0
 40
1.0
 40
1.0
 40
1.0
 40
1.0
 10
59.6
 20
360.327
 30
0.0
 10
59.6
 20
360.881
 30
0.0
 10
60.0481
 20
361.329
 30
0.0
 10
60.6005
 20
361.329
 30
0.0
  0
SPLINE
  5
16e
100
AcDbEntity
  8
0
100
AcDbSpline
210
0.0
220
0.0
230
1.0
 62
     7
 70
     0
 71
     3
 72
     8
 73
4
 40
0.0
 40
0.0
 40
0.0
 40
0.0
 40
1.0
 40
1.0
 40
1.0
 40
1.0
 10
60.6005
 20
361.329
 30
0.0
 10
61.1519
 20
361.329
 30
0.0
 10
61.5996
 20
360.881
 30
0.0
 10
61.5996
 20
360.327
 30
0.0
  0
LINE
  5
16f
100
AcDbEntity
  8
0
100
AcDbLine
 62
     7
 10
53.4003
 20
362.828
 30
0.0
 11
54.6005
 21
362.828
 31
0.0
  0
LINE
  5
170
100
AcDbEntity
  8
0
100
AcDbLine
 62
     7
 10
54.6005
 20
362.828
 30
0.0
 11
54.6005
 21
361.83
 31
0.0
  0
LINE
  5
171
100
AcDbEntity
  8
0
100
AcDbLine
 62
     7
 10
54.6005
 20
361.83
 30
0.0
 11
53.4003
 21
361.83
 31
0.0
  0
LINE
  5
172
100
AcDbEntity
  8
0
100
AcDbLine
 62
     7
 10
53.4003
 20
361.83
 30
0.0
 11
53.4003
 21
362.828
 31
0.0
  0
LINE
  5
173
100
AcDbEntity
  8
0
100
AcDbLine
 62
     7
 10
53.4003
 20
394.829
 30
0.0
 11
54.6005
 21
394.829
 31
0.0
  0
LINE
  5
174
100
AcDbEntity
  8
0
100
AcDbLine
 62
     7
 10
54.6005
 20
394.829
 30
0.0
 11
54.6005
 21
393.827
 31
0.0
  0
LINE
  5
175
100
AcDbEntity
  8
0
100
AcDbLine
 62
     7
 10
54.6005
 20
393.827
 30
0.0
 11
53.4003
 21
393.827
 31
0.0
  0
LINE
  5
176
100
AcDbEntity
  8
0
100
AcDbLine
 62
     7
 10
53.4003
 20
393.827
 30
0.0
 11
53.4003
 21
394.829
 31
0.0
  0
LINE
  5
177
100
AcDbEntity
  8
0
100
AcDbLine
 62
     0
 10
60.6005
 20
368.928
 30
0.0
 11
60.6005
 21
369.729
 31
0.0
  0
LINE
  5
178
100
AcDbEntity
  8
0
100
AcDbLine
 62
     0
 10
61.0002
 20
369.327
 30
0.0
 11
60.1998
 21
369.327
 31
0.0
  0
LINE
  5
179
100
AcDbEntity
  8
0
100
AcDbLine
 62
     0
 10
60.6005
 20
368.928
 30
0.0
 11
60.6005
 21
369.729
 31
0.0
  0
LINE
  5
17a
100
AcDbEntity
  8
0
100
AcDbLine
 62
     0
 10
61.0002
 20
369.327
 30
0.0
 11
60.1998
 21
369.327
 31
0.0
  0
LINE
  5
17b
100
AcDbEntity
  8
0
100
AcDbLine
 62
     0
 10
60.6005
 20
359.929
 30
0.0
 11
60.6005
 21
360.729
 31
0.0
  0
LINE
  5
17c
100
AcDbEntity
  8
0
100
AcDbLine
 62
     0
 10
61.0002
 20
360.327
 30
0.0
 11
60.1998
 21
360.327
 31
0.0
  0
LINE
  5
17d
100
AcDbEntity
  8
0
100
AcDbLine
 62
     0
 10
60.6005
 20
359.929
 30
0.0
 11
60.6005
 21
360.729
 31
0.0
  0
LINE
  5
17e
100
AcDbEntity
  8
0
100
AcDbLine
 62
     0
 10
61.0002
 20
360.327
 30
0.0
 11
60.1998
 21
360.327
 31
0.0
  0
LINE
  5
17f
100
AcDbEntity
  8
0
100
AcDbLine
 62
     0
 10
60.6005
 20
413.928
 30
0.0
 11
60.6005
 21
414.729
 31
0.0
  0
LINE
  5
180
100
AcDbEntity
  8
0
100
AcDbLine
 62
     0
 10
61.0002
 20
414.33
 30
0.0
 11
60.1998
 21
414.33
 31
0.0
  0
LINE
  5
181
100
AcDbEntity
  8
0
100
AcDbLine
 62
     0
 10
60.6005
 20
413.928
 30
0.0
 11
60.6005
 21
414.729
 31
0.0
  0
LINE
  5
182
100
AcDbEntity
  8
0
100
AcDbLine
 62
     0
 10
61.0002
 20
414.33
 30
0.0
 11
60.1998
 21
414.33
 31
0.0
  0
LINE
  5
183
100
AcDbEntity
  8
0
100
AcDbLine
 62
     0
 10
60.6005
 20
404.929
 30
0.0
 11
60.6005
 21
405.73
 31
0.0
  0
LINE
  5
184
100
AcDbEntity
  8
0
100
AcDbLine
 62
     0
 10
61.0002
 20
405.328
 30
0.0
 11
60.1998
 21
405.328
 31
0.0
  0
LINE
  5
185
100
AcDbEntity
  8
0
100
AcDbLine
 62
     0
 10
60.6005
 20
404.929
 30
0.0
 11
60.6005
 21
405.73
 31
0.0
  0
LINE
  5
186
100
AcDbEntity
  8
0
100
AcDbLine
 62
     0
 10
61.0002
 20
405.328
 30
0.0
 11
60.1998
 21
405.328
 31
0.0
  0
LINE
  5
187
100
AcDbEntity
  8
0
100
AcDbLine
 62
     7
 10
119
 20
362.828
 30
0.0
 11
119
 21
393.827
 31
0.0
  0
LINE
  5
188
100
AcDbEntity
  8
0
100
AcDbLine
 62
     7
 10
119
 20
393.827
 30
0.0
 11
118
 21
394.829
 31
0.0
  0
LINE
  5
189
100
AcDbEntity
  8
0
100
AcDbLine
 62
     7
 10
118
 20
394.829
 30
0.0
 11
108.5
 21
394.829
 31
0.0
  0
LINE
  5
18a
100
AcDbEntity
  8
0
100
AcDbLine
 62
     7
 10
108.5
 20
394.829
 30
0.0
 11
108.5
 21
418.828
 31
0.0
  0
LINE
  5
18b
100
AcDbEntity
  8
0
100
AcDbLine
 62
     7
 10
108.5
 20
418.828
 30
0.0
 11
106.5
 21
418.828
 31
0.0
  0
LINE
  5
18c
100
AcDbEntity
  8
0
100
AcDbLine
 62
     7
 10
106.5
 20
418.828
 30
0.0
 11
106.5
 21
394.829
 31
0.0
  0
LINE
  5
18d
100
AcDbEntity
  8
0
100
AcDbLine
 62
     7
 10
106.5
 20
394.829
 30
0.0
 11
97.0001
 21
394.829
 31
0.0
  0
LINE
  5
18e
100
AcDbEntity
  8
0
100
AcDbLine
 62
     7
 10
97.0001
 20
394.829
 30
0.0
 11
95.9997
 21
393.827
 31
0.0
  0
LINE
  5
18f
100
AcDbEntity
  8
0
100
AcDbLine
 62
     7
 10
95.9997
 20
393.827
 30
0.0
 11
95.9997
 21
362.828
 31
0.0
  0
LINE
  5
190
100
AcDbEntity
  8
0
100
AcDbLine
 62
     7
 10
95.9997
 20
362.828
 30
0.0
 11
97.0001
 21
361.83
 31
0.0
  0
LINE
  5
191
100
AcDbEntity
  8
0
100
AcDbLine
 62
     7
 10
97.0001
 20
361.83
 30
0.0
 11
106.5
 21
361.83
 31
0.0
  0
LINE
  5
192
100
AcDbEntity
  8
0
100
AcDbLine
 62
     7
 10
106.5
 20
361.83
 30
0.0
 11
106.5
 21
355.829
 31
0.0
  0
LINE
  5
193
100
AcDbEntity
  8
0
100
AcDbLine
 62
     7
 10
106.5
 20
355.829
 30
0.0
 11
108.5
 21
355.829
 31
0.0
  0
LINE
  5
194
100
AcDbEntity
  8
0
100
AcDbLine
 62
     7
 10
108.5
 20
355.829
 30
0.0
 11
108.5
 21
361.83
 31
0.0
  0
LINE
  5
195
100
AcDbEntity
  8
0
100
AcDbLine
 62
     7
 10
108.5
 20
361.83
 30
0.0
 11
118
 21
361.83
 31
0.0
  0
LINE
  5
196
100
AcDbEntity
  8
0
100
AcDbLine
 62
     7
 10
118
 20
361.83
 30
0.0
 11
119
 21
362.828
 31
0.0
  0
LINE
  5
197
100
AcDbEntity
  8
0
100
AcDbLine
 62
     7
 10
119
 20
362.828
 30
0.0
 11
119
 21
393.827
 31
0.0
  0
LINE
  5
198
100
AcDbEntity
  8
0
100
AcDbLine
 62
     7
 10
119
 20
393.827
 30
0.0
 11
118
 21
394.829
 31
0.0
  0
LINE
  5
199
100
AcDbEntity
  8
0
100
AcDbLine
 62
     7
 10
118
 20
394.829
 30
0.0
 11
97.0001
 21
394.829
 31
0.0
  0
LINE
  5
19a
100
AcDbEntity
  8
0
100
AcDbLine
 62
     7
 10
97.0001
 20
394.829
 30
0.0
 11
95.9997
 21
393.827
 31
0.0
  0
LINE
  5
19b
100
AcDbEntity
  8
0
100
AcDbLine
 62
     7
 10
95.9997
 20
393.827
 30
0.0
 11
95.9997
 21
362.828
 31
0.0
  0
LINE
  5
19c
100
AcDbEntity
  8
0
100
AcDbLine
 62
     7
 10
95.9997
 20
362.828
 30
0.0
 11
97.0001
 21
361.83
 31
0.0
  0
LINE
  5
19d
100
AcDbEntity
  8
0
100
AcDbLine
 62
     7
 10
97.0001
 20
361.83
 30
0.0
 11
118
 21
361.83
 31
0.0
  0
LINE
  5
19e
100
AcDbEntity
  8
0
100
AcDbLine
 62
     7
 10
118
 20
361.83
 30
0.0
 11
119
 21
362.828
 31
0.0
  0
LINE
  5
19f
100
AcDbEntity
  8
0
100
AcDbLine
 62
     7
 10
106.5
 20
417.826
 30
0.0
 11
108.5
 21
417.826
 31
0.0
  0
LINE
  5
1a0
100
AcDbEntity
  8
0
100
AcDbLine
 62
     7
 10
108.5
 20
417.826
 30
0.0
 11
108.5
 21
394.829
 31
0.0
  0
LINE
  5
1a1
100
AcDbEntity
  8
0
100
AcDbLine
 62
     7
 10
108.5
 20
394.829
 30
0.0
 11
106.5
 21
394.829
 31
0.0
  0
LINE
  5
1a2
100
AcDbEntity
  8
0
100
AcDbLine
 62
     7
 10
106.5
 20
394.829
 30
0.0
 11
106.5
 21
417.826
 31
0.0
  0
LINE
  5
1a3
100
AcDbEntity
  8
0
100
AcDbLine
 62
     7
 10
106.5
 20
361.83
 30
0.0
 11
108.5
 21
361.83
 31
0.0
  0
LINE
  5
1a4
100
AcDbEntity
  8
0
100
AcDbLine
 62
     7
 10
108.5
 20
361.83
 30
0.0
 11
108.5
 21
356.828
 31
0.0
  0
LINE
  5
1a5
100
AcDbEntity
  8
0
100
AcDbLine
 62
     7
 10
108.5
 20
356.828
 30
0.0
 11
106.5
 21
356.828
 31
0.0
  0
LINE
  5
1a6
100
AcDbEntity
  8
0
100
AcDbLine
 62
     7
 10
106.5
 20
356.828
 30
0.0
 11
106.5
 21
361.83
 31
0.0
  0
SPLINE
  5
1a7
100
AcDbEntity
  8
0
100
AcDbSpline
210
0.0
220
0.0
230
1.0
 62
     7
 70
     0
 71
     3
 72
     8
 73
4
 40
0.0
 40
0.0
 40
0.0
 40
0.0
 40
1.0
 40
1.0
 40
1.0
 40
1.0
 10
101.001
 20
365.831
 30
0.0
 10
101.001
 20
365.277
 30
0.0
 10
100.553
 20
364.829
 30
0.0
 10
100
 20
364.829
 30
0.0
  0
SPLINE
  5
1a8
100
AcDbEntity
  8
0
100
AcDbSpline
210
0.0
220
0.0
230
1.0
 62
     7
 70
     0
 71
     3
 72
     8
 73
4
 40
0.0
 40
0.0
 40
0.0
 40
0.0
 40
1.0
 40
1.0
 40
1.0
 40
1.0
 10
100
 20
364.829
 30
0.0
 10
99.4474
 20
364.829
 30
0.0
 10
98.9997
 20
365.277
 30
0.0
 10
98.9997
 20
365.831
 30
0.0
  0
SPLINE
  5
1a9
100
AcDbEntity
  8
0
100
AcDbSpline
210
0.0
220
0.0
230
1.0
 62
     7
 70
     0
 71
     3
 72
     8
 73
4
 40
0.0
 40
0.0
 40
0.0
 40
0.0
 40
1.0
 40
1.0
 40
1.0
 40
1.0
 10
98.9997
 20
365.831
 30
0.0
 10
98.9997
 20
366.381
 30
0.0
 10
99.4474
 20
366.829
 30
0.0
 10
100
 20
366.829
 30
0.0
  0
SPLINE
  5
1aa
100
AcDbEntity
  8
0
100
AcDbSpline
210
0.0
220
0.0
230
1.0
 62
     7
 70
     0
 71
     3
 72
     8
 73
4
 40
0.0
 40
0.0
 40
0.0
 40
0.0
 40
1.0
 40
1.0
 40
1.0
 40
1.0
 10
100
 20
366.829
 30
0.0
 10
100.553
 20
366.829
 30
0.0
 10
101.001
 20
366.381
 30
0.0
 10
101.001
 20
365.831
 30
0.0
  0
SPLINE
  5
1ab
100
AcDbEntity
  8
0
100
AcDbSpline
210
0.0
220
0.0
230
1.0
 62
     7
 70
     0
 71
     3
 72
     8
 73
4
 40
0.0
 40
0.0
 40
0.0
 40
0.0
 40
1.0
 40
1.0
 40
1.0
 40
1.0
 10
101.001
 20
390.828
 30
0.0
 10
101.001
 20
390.278
 30
0.0
 10
100.553
 20
389.83
 30
0.0
 10
100
 20
389.83
 30
0.0
  0
SPLINE
  5
1ac
100
AcDbEntity
  8
0
100
AcDbSpline
210
0.0
220
0.0
230
1.0
 62
     7
 70
     0
 71
     3
 72
     8
 73
4
 40
0.0
 40
0.0
 40
0.0
 40
0.0
 40
1.0
 40
1.0
 40
1.0
 40
1.0
 10
100
 20
389.83
 30
0.0
 10
99.4474
 20
389.83
 30
0.0
 10
98.9997
 20
390.278
 30
0.0
 10
98.9997
 20
390.828
 30
0.0
  0
SPLINE
  5
1ad
100
AcDbEntity
  8
0
100
AcDbSpline
210
0.0
220
0.0
230
1.0
 62
     7
 70
     0
 71
     3
 72
     8
 73
4
 40
0.0
 40
0.0
 40
0.0
 40
0.0
 40
1.0
 40
1.0
 40
1.0
 40
1.0
 10
98.9997
 20
390.828
 30
0.0
 10
98.9997
 20
391.382
 30
0.0
 10
99.4474
 20
391.83
 30
0.0
 10
100
 20
391.83
 30
0.0
  0
SPLINE
  5
1ae
100
AcDbEntity
  8
0
100
AcDbSpline
210
0.0
220
0.0
230
1.0
 62
     7
 70
     0
 71
     3
 72
     8
 73
4
 40
0.0
 40
0.0
 40
0.0
 40
0.0
 40
1.0
 40
1.0
 40
1.0
 40
1.0
 10
100
 20
391.83
 30
0.0
 10
100.553
 20
391.83
 30
0.0
 10
101.001
 20
391.382
 30
0.0
 10
101.001
 20
390.828
 30
0.0
  0
SPLINE
  5
1af
100
AcDbEntity
  8
0
100
AcDbSpline
210
0.0
220
0.0
230
1.0
 62
     7
 70
     0
 71
     3
 72
     8
 73
4
 40
0.0
 40
0.0
 40
0.0
 40
0.0
 40
1.0
 40
1.0
 40
1.0
 40
1.0
 10
116
 20
390.828
 30
0.0
 10
116
 20
390.278
 30
0.0
 10
115.553
 20
389.83
 30
0.0
 10
115
 20
389.83
 30
0.0
  0
SPLINE
  5
1b0
100
AcDbEntity
  8
0
100
AcDbSpline
210
0.0
220
0.0
230
1.0
 62
     7
 70
     0
 71
     3
 72
     8
 73
4
 40
0.0
 40
0.0
 40
0.0
 40
0.0
 40
1.0
 40
1.0
 40
1.0
 40
1.0
 10
115
 20
389.83
 30
0.0
 10
114.447
 20
389.83
 30
0.0
 10
113.999
 20
390.278
 30
0.0
 10
113.999
 20
390.828
 30
0.0
  0
SPLINE
  5
1b1
100
AcDbEntity
  8
0
100
AcDbSpline
210
0.0
220
0.0
230
1.0
 62
     7
 70
     0
 71
     3
 72
     8
 73
4
 40
0.0
 40
0.0
 40
0.0
 40
0.0
 40
1.0
 40
1.0
 40
1.0
 40
1.0
 10
113.999
 20
390.828
 30
0.0
 10
113.999
 20
391.382
 30
0.0
 10
114.447
 20
391.83
 30
0.0
 10
115
 20
391.83
 30
0.0
  0
SPLINE
  5
1b2
100
AcDbEntity
  8
0
100
AcDbSpline
210
0.0
220
0.0
230
1.0
 62
     7
 70
     0
 71
     3
 72
     8
 73
4
 40
0.0
 40
0.0
 40
0.0
 40
0.0
 40
1.0
 40
1.0
 40
1.0
 40
1.0
 10
115
 20
391.83
 30
0.0
 10
115.553
 20
391.83
 30
0.0
 10
116
 20
391.382
 30
0.0
 10
116
 20
390.828
 30
0.0
  0
SPLINE
  5
1b3
100
AcDbEntity
  8
0
100
AcDbSpline
210
0.0
220
0.0
230
1.0
 62
     7
 70
     0
 71
     3
 72
     8
 73
4
 40
0.0
 40
0.0
 40
0.0
 40
0.0
 40
1.0
 40
1.0
 40
1.0
 40
1.0
 10
116
 20
365.831
 30
0.0
 10
116
 20
365.277
 30
0.0
 10
115.553
 20
364.829
 30
0.0
 10
115
 20
364.829
 30
0.0
  0
SPLINE
  5
1b4
100
AcDbEntity
  8
0
100
AcDbSpline
210
0.0
220
0.0
230
1.0
 62
     7
 70
     0
 71
     3
 72
     8
 73
4
 40
0.0
 40
0.0
 40
0.0
 40
0.0
 40
1.0
 40
1.0
 40
1.0
 40
1.0
 10
115
 20
364.829
 30
0.0
 10
114.447
 20
364.829
 30
0.0
 10
113.999
 20
365.277
 30
0.0
 10
113.999
 20
365.831
 30
0.0
  0
SPLINE
  5
1b5
100
AcDbEntity
  8
0
100
AcDbSpline
210
0.0
220
0.0
230
1.0
 62
     7
 70
     0
 71
     3
 72
     8
 73
4
 40
0.0
 40
0.0
 40
0.0
 40
0.0
 40
1.0
 40
1.0
 40
1.0
 40
1.0
 10
113.999
 20
365.831
 30
0.0
 10
113.999
 20
366.381
 30
0.0
 10
114.447
 20
366.829
 30
0.0
 10
115
 20
366.829
 30
0.0
  0
SPLINE
  5
1b6
100
AcDbEntity
  8
0
100
AcDbSpline
210
0.0
220
0.0
230
1.0
 62
     7
 70
     0
 71
     3
 72
     8
 73
4
 40
0.0
 40
0.0
 40
0.0
 40
0.0
 40
1.0
 40
1.0
 40
1.0
 40
1.0
 10
115
 20
366.829
 30
0.0
 10
115.553
 20
366.829
 30
0.0
 10
116
 20
366.381
 30
0.0
 10
116
 20
365.831
 30
0.0
  0
LINE
  5
1b7
100
AcDbEntity
  8
0
100
AcDbLine
 62
     7
 10
106.5
 20
356.828
 30
0.0
 11
108.5
 21
356.828
 31
0.0
  0
LINE
  5
1b8
100
AcDbEntity
  8
0
100
AcDbLine
 62
     7
 10
108.5
 20
356.828
 30
0.0
 11
108.5
 21
355.829
 31
0.0
  0
LINE
  5
1b9
100
AcDbEntity
  8
0
100
AcDbLine
 62
     7
 10
108.5
 20
355.829
 30
0.0
 11
106.5
 21
355.829
 31
0.0
  0
LINE
  5
1ba
100
AcDbEntity
  8
0
100
AcDbLine
 62
     7
 10
106.5
 20
355.829
 30
0.0
 11
106.5
 21
356.828
 31
0.0
  0
LINE
  5
1bb
100
AcDbEntity
  8
0
100
AcDbLine
 62
     7
 10
106.5
 20
418.828
 30
0.0
 11
108.5
 21
418.828
 31
0.0
  0
LINE
  5
1bc
100
AcDbEntity
  8
0
100
AcDbLine
 62
     7
 10
108.5
 20
418.828
 30
0.0
 11
108.5
 21
417.826
 31
0.0
  0
LINE
  5
1bd
100
AcDbEntity
  8
0
100
AcDbLine
 62
     7
 10
108.5
 20
417.826
 30
0.0
 11
106.5
 21
417.826
 31
0.0
  0
LINE
  5
1be
100
AcDbEntity
  8
0
100
AcDbLine
 62
     7
 10
106.5
 20
417.826
 30
0.0
 11
106.5
 21
418.828
 31
0.0
  0
SPLINE
  5
1bf
100
AcDbEntity
  8
0
100
AcDbSpline
210
0.0
220
0.0
230
1.0
 62
     7
 70
     0
 71
     3
 72
     8
 73
4
 40
0.0
 40
0.0
 40
0.0
 40
0.0
 40
1.0
 40
1.0
 40
1.0
 40
1.0
 10
107.001
 20
409.829
 30
0.0
 10
106.999
 20
409.709
 30
0.0
 10
107.046
 20
409.586
 30
0.0
 10
107.127
 20
409.494
 30
0.0
  0
SPLINE
  5
1c0
100
AcDbEntity
  8
0
100
AcDbSpline
210
0.0
220
0.0
230
1.0
 62
     7
 70
     0
 71
     3
 72
     8
 73
4
 40
0.0
 40
0.0
 40
0.0
 40
0.0
 40
1.0
 40
1.0
 40
1.0
 40
1.0
 10
107.127
 20
409.494
 30
0.0
 10
107.207
 20
409.406
 30
0.0
 10
107.323
 20
409.346
 30
0.0
 10
107.444
 20
409.332
 30
0.0
  0
SPLINE
  5
1c1
100
AcDbEntity
  8
0
100
AcDbSpline
210
0.0
220
0.0
230
1.0
 62
     7
 70
     0
 71
     3
 72
     8
 73
4
 40
0.0
 40
0.0
 40
0.0
 40
0.0
 40
1.0
 40
1.0
 40
1.0
 40
1.0
 10
107.444
 20
409.332
 30
0.0
 10
107.593
 20
409.314
 30
0.0
 10
107.75
 20
409.37
 30
0.0
 10
107.856
 20
409.476
 30
0.0
  0
SPLINE
  5
1c2
100
AcDbEntity
  8
0
100
AcDbSpline
210
0.0
220
0.0
230
1.0
 62
     7
 70
     0
 71
     3
 72
     8
 73
4
 40
0.0
 40
0.0
 40
0.0
 40
0.0
 40
1.0
 40
1.0
 40
1.0
 40
1.0
 10
107.856
 20
409.476
 30
0.0
 10
107.942
 20
409.564
 30
0.0
 10
107.994
 20
409.681
 30
0.0
 10
108
 20
409.804
 30
0.0
  0
SPLINE
  5
1c3
100
AcDbEntity
  8
0
100
AcDbSpline
210
0.0
220
0.0
230
1.0
 62
     7
 70
     0
 71
     3
 72
     8
 73
4
 40
0.0
 40
0.0
 40
0.0
 40
0.0
 40
1.0
 40
1.0
 40
1.0
 40
1.0
 10
108
 20
409.804
 30
0.0
 10
108.008
 20
409.952
 30
0.0
 10
107.943
 20
410.108
 30
0.0
 10
107.829
 20
410.206
 30
0.0
  0
SPLINE
  5
1c4
100
AcDbEntity
  8
0
100
AcDbSpline
210
0.0
220
0.0
230
1.0
 62
     7
 70
     0
 71
     3
 72
     8
 73
4
 40
0.0
 40
0.0
 40
0.0
 40
0.0
 40
1.0
 40
1.0
 40
1.0
 40
1.0
 10
107.829
 20
410.206
 30
0.0
 10
107.737
 20
410.288
 30
0.0
 10
107.615
 20
410.33
 30
0.0
 10
107.494
 20
410.33
 30
0.0
  0
SPLINE
  5
1c5
100
AcDbEntity
  8
0
100
AcDbSpline
210
0.0
220
0.0
230
1.0
 62
     7
 70
     0
 71
     3
 72
     8
 73
4
 40
0.0
 40
0.0
 40
0.0
 40
0.0
 40
1.0
 40
1.0
 40
1.0
 40
1.0
 10
107.494
 20
410.33
 30
0.0
 10
107.373
 20
410.326
 30
0.0
 10
107.251
 20
410.281
 30
0.0
 10
107.162
 20
410.199
 30
0.0
  0
SPLINE
  5
1c6
100
AcDbEntity
  8
0
100
AcDbSpline
210
0.0
220
0.0
230
1.0
 62
     7
 70
     0
 71
     3
 72
     8
 73
4
 40
0.0
 40
0.0
 40
0.0
 40
0.0
 40
1.0
 40
1.0
 40
1.0
 40
1.0
 10
107.162
 20
410.199
 30
0.0
 10
107.06
 20
410.104
 30
0.0
 10
106.999
 20
409.967
 30
0.0
 10
107.001
 20
409.829
 30
0.0
  0
LINE
  5
1c7
100
AcDbEntity
  8
0
100
AcDbLine
 62
     0
 10
115
 20
365.428
 30
0.0
 11
115
 21
366.229
 31
0.0
  0
LINE
  5
1c8
100
AcDbEntity
  8
0
100
AcDbLine
 62
     0
 10
115.4
 20
365.831
 30
0.0
 11
114.601
 21
365.831
 31
0.0
  0
LINE
  5
1c9
100
AcDbEntity
  8
0
100
AcDbLine
 62
     0
 10
115
 20
365.428
 30
0.0
 11
115
 21
366.229
 31
0.0
  0
LINE
  5
1ca
100
AcDbEntity
  8
0
100
AcDbLine
 62
     0
 10
115.4
 20
365.831
 30
0.0
 11
114.601
 21
365.831
 31
0.0
  0
LINE
  5
1cb
100
AcDbEntity
  8
0
100
AcDbLine
 62
     0
 10
100
 20
365.428
 30
0.0
 11
100
 21
366.229
 31
0.0
  0
LINE
  5
1cc
100
AcDbEntity
  8
0
100
AcDbLine
 62
     0
 10
100.4
 20
365.831
 30
0.0
 11
99.6005
 21
365.831
 31
0.0
  0
LINE
  5
1cd
100
AcDbEntity
  8
0
100
AcDbLine
 62
     0
 10
100
 20
365.428
 30
0.0
 11
100
 21
366.229
 31
0.0
  0
LINE
  5
1ce
100
AcDbEntity
  8
0
100
AcDbLine
 62
     0
 10
100.4
 20
365.831
 30
0.0
 11
99.6005
 21
365.831
 31
0.0
  0
LINE
  5
1cf
100
AcDbEntity
  8
0
100
AcDbLine
 62
     0
 10
100
 20
390.43
 30
0.0
 11
100
 21
391.231
 31
0.0
  0
LINE
  5
1d0
100
AcDbEntity
  8
0
100
AcDbLine
 62
     0
 10
100.4
 20
390.828
 30
0.0
 11
99.6005
 21
390.828
 31
0.0
  0
LINE
  5
1d1
100
AcDbEntity
  8
0
100
AcDbLine
 62
     0
 10
100
 20
390.43
 30
0.0
 11
100
 21
391.231
 31
0.0
  0
LINE
  5
1d2
100
AcDbEntity
  8
0
100
AcDbLine
 62
     0
 10
100.4
 20
390.828
 30
0.0
 11
99.6005
 21
390.828
 31
0.0
  0
LINE
  5
1d3
100
AcDbEntity
  8
0
100
AcDbLine
 62
     0
 10
115
 20
390.43
 30
0.0
 11
115
 21
391.231
 31
0.0
  0
LINE
  5
1d4
100
AcDbEntity
  8
0
100
AcDbLine
 62
     0
 10
115.4
 20
390.828
 30
0.0
 11
114.601
 21
390.828
 31
0.0
  0
LINE
  5
1d5
100
AcDbEntity
  8
0
100
AcDbLine
 62
     0
 10
115
 20
390.43
 30
0.0
 11
115
 21
391.231
 31
0.0
  0
LINE
  5
1d6
100
AcDbEntity
  8
0
100
AcDbLine
 62
     0
 10
115.4
 20
390.828
 30
0.0
 11
114.601
 21
390.828
 31
0.0
  0
LINE
  5
1d7
100
AcDbEntity
  8
0
100
AcDbLine
 62
     7
 10
12.5002
 20
329.228
 30
0.0
 11
22.9995
 21
329.228
 31
0.0
  0
LINE
  5
1d8
100
AcDbEntity
  8
0
100
AcDbLine
 62
     7
 10
22.9995
 20
329.228
 30
0.0
 11
22.9995
 21
330.429
 31
0.0
  0
LINE
  5
1d9
100
AcDbEntity
  8
0
100
AcDbLine
 62
     7
 10
22.9995
 20
330.429
 30
0.0
 11
0
 21
330.429
 31
0.0
  0
LINE
  5
1da
100
AcDbEntity
  8
0
100
AcDbLine
 62
     7
 10
0
 20
330.429
 30
0.0
 11
0
 21
329.228
 31
0.0
  0
LINE
  5
1db
100
AcDbEntity
  8
0
100
AcDbLine
 62
     7
 10
0
 20
329.228
 30
0.0
 11
10.5006
 21
329.228
 31
0.0
  0
LINE
  5
1dc
100
AcDbEntity
  8
0
100
AcDbLine
 62
     7
 10
10.5006
 20
329.228
 30
0.0
 11
10.5006
 21
318.229
 31
0.0
  0
LINE
  5
1dd
100
AcDbEntity
  8
0
100
AcDbLine
 62
     7
 10
10.5006
 20
318.229
 30
0.0
 11
12.5002
 21
318.229
 31
0.0
  0
LINE
  5
1de
100
AcDbEntity
  8
0
100
AcDbLine
 62
     7
 10
12.5002
 20
318.229
 30
0.0
 11
12.5002
 21
329.228
 31
0.0
  0
LINE
  5
1df
100
AcDbEntity
  8
0
100
AcDbLine
 62
     7
 10
12.5002
 20
329.228
 30
0.0
 11
22.0004
 21
329.228
 31
0.0
  0
LINE
  5
1e0
100
AcDbEntity
  8
0
100
AcDbLine
 62
     7
 10
22.0004
 20
329.228
 30
0.0
 11
22.0004
 21
330.429
 31
0.0
  0
LINE
  5
1e1
100
AcDbEntity
  8
0
100
AcDbLine
 62
     7
 10
22.0004
 20
330.429
 30
0.0
 11
1.00046
 21
330.429
 31
0.0
  0
LINE
  5
1e2
100
AcDbEntity
  8
0
100
AcDbLine
 62
     7
 10
1.00046
 20
330.429
 30
0.0
 11
1.00046
 21
329.228
 31
0.0
  0
LINE
  5
1e3
100
AcDbEntity
  8
0
100
AcDbLine
 62
     7
 10
1.00046
 20
329.228
 30
0.0
 11
12.5002
 21
329.228
 31
0.0
  0
LINE
  5
1e4
100
AcDbEntity
  8
0
100
AcDbLine
 62
     7
 10
10.5006
 20
328.228
 30
0.0
 11
12.5002
 21
328.228
 31
0.0
  0
LINE
  5
1e5
100
AcDbEntity
  8
0
100
AcDbLine
 62
     7
 10
12.5002
 20
328.228
 30
0.0
 11
12.5002
 21
319.228
 31
0.0
  0
LINE
  5
1e6
100
AcDbEntity
  8
0
100
AcDbLine
 62
     7
 10
12.5002
 20
319.228
 30
0.0
 11
10.5006
 21
319.228
 31
0.0
  0
LINE
  5
1e7
100
AcDbEntity
  8
0
100
AcDbLine
 62
     7
 10
10.5006
 20
319.228
 30
0.0
 11
10.5006
 21
328.228
 31
0.0
  0
LINE
  5
1e8
100
AcDbEntity
  8
0
100
AcDbLine
 62
     7
 10
10.5006
 20
319.228
 30
0.0
 11
12.5002
 21
319.228
 31
0.0
  0
LINE
  5
1e9
100
AcDbEntity
  8
0
100
AcDbLine
 62
     7
 10
12.5002
 20
319.228
 30
0.0
 11
12.5002
 21
318.229
 31
0.0
  0
LINE
  5
1ea
100
AcDbEntity
  8
0
100
AcDbLine
 62
     7
 10
12.5002
 20
318.229
 30
0.0
 11
10.5006
 21
318.229
 31
0.0
  0
LINE
  5
1eb
100
AcDbEntity
  8
0
100
AcDbLine
 62
     7
 10
10.5006
 20
318.229
 30
0.0
 11
10.5006
 21
319.228
 31
0.0
  0
LINE
  5
1ec
100
AcDbEntity
  8
0
100
AcDbLine
 62
     7
 10
10.5006
 20
329.228
 30
0.0
 11
12.5002
 21
329.228
 31
0.0
  0
LINE
  5
1ed
100
AcDbEntity
  8
0
100
AcDbLine
 62
     7
 10
12.5002
 20
329.228
 30
0.0
 11
12.5002
 21
328.228
 31
0.0
  0
LINE
  5
1ee
100
AcDbEntity
  8
0
100
AcDbLine
 62
     7
 10
12.5002
 20
328.228
 30
0.0
 11
10.5006
 21
328.228
 31
0.0
  0
LINE
  5
1ef
100
AcDbEntity
  8
0
100
AcDbLine
 62
     7
 10
10.5006
 20
328.228
 30
0.0
 11
10.5006
 21
329.228
 31
0.0
  0
LINE
  5
1f0
100
AcDbEntity
  8
0
100
AcDbLine
 62
     7
 10
0
 20
330.429
 30
0.0
 11
1.00046
 21
330.429
 31
0.0
  0
LINE
  5
1f1
100
AcDbEntity
  8
0
100
AcDbLine
 62
     7
 10
1.00046
 20
330.429
 30
0.0
 11
1.00046
 21
329.228
 31
0.0
  0
LINE
  5
1f2
100
AcDbEntity
  8
0
100
AcDbLine
 62
     7
 10
1.00046
 20
329.228
 30
0.0
 11
0
 21
329.228
 31
0.0
  0
LINE
  5
1f3
100
AcDbEntity
  8
0
100
AcDbLine
 62
     7
 10
0
 20
329.228
 30
0.0
 11
0
 21
330.429
 31
0.0
  0
LINE
  5
1f4
100
AcDbEntity
  8
0
100
AcDbLine
 62
     7
 10
22.0004
 20
330.429
 30
0.0
 11
22.9995
 21
330.429
 31
0.0
  0
LINE
  5
1f5
100
AcDbEntity
  8
0
100
AcDbLine
 62
     7
 10
22.9995
 20
330.429
 30
0.0
 11
22.9995
 21
329.228
 31
0.0
  0
LINE
  5
1f6
100
AcDbEntity
  8
0
100
AcDbLine
 62
     7
 10
22.9995
 20
329.228
 30
0.0
 11
22.0004
 21
329.228
 31
0.0
  0
LINE
  5
1f7
100
AcDbEntity
  8
0
100
AcDbLine
 62
     7
 10
22.0004
 20
329.228
 30
0.0
 11
22.0004
 21
330.429
 31
0.0
  0
LINE
  5
1f8
100
AcDbEntity
  8
0
100
AcDbLine
 62
     7
 10
148.558
 20
361.798
 30
0.0
 11
149.417
 21
361.082
 31
0.0
  0
LINE
  5
1f9
100
AcDbEntity
  8
0
100
AcDbLine
 62
     7
 10
149.417
 20
361.082
 30
0.0
 11
150.445
 21
360.408
 31
0.0
  0
LINE
  5
1fa
100
AcDbEntity
  8
0
100
AcDbLine
 62
     7
 10
150.445
 20
360.408
 30
0.0
 11
158.163
 21
362.232
 31
0.0
  0
LINE
  5
1fb
100
AcDbEntity
  8
0
100
AcDbLine
 62
     7
 10
158.163
 20
362.232
 30
0.0
 11
159.02
 21
363.354
 31
0.0
  0
LINE
  5
1fc
100
AcDbEntity
  8
0
100
AcDbLine
 62
     7
 10
159.02
 20
363.354
 30
0.0
 11
159.02
 21
419.418
 31
0.0
  0
LINE
  5
1fd
100
AcDbEntity
  8
0
100
AcDbLine
 62
     7
 10
159.02
 20
419.418
 30
0.0
 11
158.163
 21
420.134
 31
0.0
  0
LINE
  5
1fe
100
AcDbEntity
  8
0
100
AcDbLine
 62
     7
 10
158.163
 20
420.134
 30
0.0
 11
157.134
 21
420.811
 31
0.0
  0
LINE
  5
1ff
100
AcDbEntity
  8
0
100
AcDbLine
 62
     7
 10
157.134
 20
420.811
 30
0.0
 11
149.417
 21
418.987
 31
0.0
  0
LINE
  5
200
100
AcDbEntity
  8
0
100
AcDbLine
 62
     7
 10
149.417
 20
418.987
 30
0.0
 11
148.558
 21
417.865
 31
0.0
  0
LINE
  5
201
100
AcDbEntity
  8
0
100
AcDbLine
 62
     7
 10
148.558
 20
417.865
 30
0.0
 11
148.558
 21
396.723
 31
0.0
  0
LINE
  5
202
100
AcDbEntity
  8
0
100
AcDbLine
 62
     7
 10
148.558
 20
396.723
 30
0.0
 11
143.67
 21
399.934
 31
0.0
  0
LINE
  5
203
100
AcDbEntity
  8
0
100
AcDbLine
 62
     7
 10
143.67
 20
399.934
 30
0.0
 11
142.642
 21
399.69
 31
0.0
  0
LINE
  5
204
100
AcDbEntity
  8
0
100
AcDbLine
 62
     7
 10
142.642
 20
399.69
 30
0.0
 11
142.127
 21
399.112
 31
0.0
  0
LINE
  5
205
100
AcDbEntity
  8
0
100
AcDbLine
 62
     7
 10
142.127
 20
399.112
 30
0.0
 11
142.127
 21
370.618
 31
0.0
  0
LINE
  5
206
100
AcDbEntity
  8
0
100
AcDbLine
 62
     7
 10
142.127
 20
370.618
 30
0.0
 11
142.642
 21
369.362
 31
0.0
  0
LINE
  5
207
100
AcDbEntity
  8
0
100
AcDbLine
 62
     7
 10
142.642
 20
369.362
 30
0.0
 11
148.558
 21
365.474
 31
0.0
  0
LINE
  5
208
100
AcDbEntity
  8
0
100
AcDbLine
 62
     7
 10
148.558
 20
365.474
 30
0.0
 11
148.558
 21
361.798
 31
0.0
  0
LINE
  5
209
100
AcDbEntity
  8
0
100
AcDbLine
 62
     7
 10
149.587
 20
361.124
 30
0.0
 11
150.445
 21
360.408
 31
0.0
  0
LINE
  5
20a
100
AcDbEntity
  8
0
100
AcDbLine
 62
     7
 10
150.445
 20
360.408
 30
0.0
 11
158.163
 21
362.232
 31
0.0
  0
LINE
  5
20b
100
AcDbEntity
  8
0
100
AcDbLine
 62
     7
 10
158.163
 20
362.232
 30
0.0
 11
159.02
 21
363.354
 31
0.0
  0
LINE
  5
20c
100
AcDbEntity
  8
0
100
AcDbLine
 62
     7
 10
159.02
 20
363.354
 30
0.0
 11
159.02
 21
419.418
 31
0.0
  0
LINE
  5
20d
100
AcDbEntity
  8
0
100
AcDbLine
 62
     7
 10
159.02
 20
419.418
 30
0.0
 11
158.163
 21
420.134
 31
0.0
  0
LINE
  5
20e
100
AcDbEntity
  8
0
100
AcDbLine
 62
     7
 10
158.163
 20
420.134
 30
0.0
 11
150.445
 21
418.31
 31
0.0
  0
LINE
  5
20f
100
AcDbEntity
  8
0
100
AcDbLine
 62
     7
 10
150.445
 20
418.31
 30
0.0
 11
149.587
 21
417.188
 31
0.0
  0
LINE
  5
210
100
AcDbEntity
  8
0
100
AcDbLine
 62
     7
 10
149.587
 20
417.188
 30
0.0
 11
149.587
 21
396.05
 31
0.0
  0
LINE
  5
211
100
AcDbEntity
  8
0
100
AcDbLine
 62
     7
 10
149.587
 20
396.05
 30
0.0
 11
154.475
 21
392.839
 31
0.0
  0
LINE
  5
212
100
AcDbEntity
  8
0
100
AcDbLine
 62
     7
 10
154.475
 20
392.839
 30
0.0
 11
154.989
 21
391.583
 31
0.0
  0
LINE
  5
213
100
AcDbEntity
  8
0
100
AcDbLine
 62
     7
 10
154.989
 20
391.583
 30
0.0
 11
154.989
 21
374.766
 31
0.0
  0
SPLINE
  5
214
100
AcDbEntity
  8
0
100
AcDbSpline
210
0.0
220
0.0
230
1.0
 62
     7
 70
     0
 71
     3
 72
     8
 73
4
 40
0.0
 40
0.0
 40
0.0
 40
0.0
 40
1.0
 40
1.0
 40
1.0
 40
1.0
 10
154.989
 20
374.766
 30
0.0
 10
155.097
 20
374.756
 30
0.0
 10
155.196
 20
374.721
 30
0.0
 10
155.281
 20
374.664
 30
0.0
  0
SPLINE
  5
215
100
AcDbEntity
  8
0
100
AcDbSpline
210
0.0
220
0.0
230
1.0
 62
     7
 70
     0
 71
     3
 72
     8
 73
4
 40
0.0
 40
0.0
 40
0.0
 40
0.0
 40
1.0
 40
1.0
 40
1.0
 40
1.0
 10
155.281
 20
374.664
 30
0.0
 10
155.477
 20
374.537
 30
0.0
 10
155.59
 20
374.304
 30
0.0
 10
155.59
 20
374.033
 30
0.0
  0
SPLINE
  5
216
100
AcDbEntity
  8
0
100
AcDbSpline
210
0.0
220
0.0
230
1.0
 62
     7
 70
     0
 71
     3
 72
     8
 73
4
 40
0.0
 40
0.0
 40
0.0
 40
0.0
 40
1.0
 40
1.0
 40
1.0
 40
1.0
 10
155.59
 20
374.033
 30
0.0
 10
155.59
 20
373.63
 30
0.0
 10
155.346
 20
373.218
 30
0.0
 10
154.989
 20
373.013
 30
0.0
  0
LINE
  5
217
100
AcDbEntity
  8
0
100
AcDbLine
 62
     7
 10
154.989
 20
373.013
 30
0.0
 11
154.989
 21
366.494
 31
0.0
  0
SPLINE
  5
218
100
AcDbEntity
  8
0
100
AcDbSpline
210
0.0
220
0.0
230
1.0
 62
     7
 70
     0
 71
     3
 72
     8
 73
4
 40
0.0
 40
0.0
 40
0.0
 40
0.0
 40
1.0
 40
1.0
 40
1.0
 40
1.0
 10
154.989
 20
366.494
 30
0.0
 10
155.097
 20
366.483
 30
0.0
 10
155.196
 20
366.448
 30
0.0
 10
155.281
 20
366.391
 30
0.0
  0
SPLINE
  5
219
100
AcDbEntity
  8
0
100
AcDbSpline
210
0.0
220
0.0
230
1.0
 62
     7
 70
     0
 71
     3
 72
     8
 73
4
 40
0.0
 40
0.0
 40
0.0
 40
0.0
 40
1.0
 40
1.0
 40
1.0
 40
1.0
 10
155.281
 20
366.391
 30
0.0
 10
155.477
 20
366.264
 30
0.0
 10
155.59
 20
366.032
 30
0.0
 10
155.59
 20
365.76
 30
0.0
  0
SPLINE
  5
21a
100
AcDbEntity
  8
0
100
AcDbSpline
210
0.0
220
0.0
230
1.0
 62
     7
 70
     0
 71
     3
 72
     8
 73
4
 40
0.0
 40
0.0
 40
0.0
 40
0.0
 40
1.0
 40
1.0
 40
1.0
 40
1.0
 10
155.59
 20
365.76
 30
0.0
 10
155.59
 20
365.358
 30
0.0
 10
155.346
 20
364.945
 30
0.0
 10
154.989
 20
364.74
 30
0.0
  0
LINE
  5
21b
100
AcDbEntity
  8
0
100
AcDbLine
 62
     7
 10
154.989
 20
364.74
 30
0.0
 11
154.989
 21
363.089
 31
0.0
  0
LINE
  5
21c
100
AcDbEntity
  8
0
100
AcDbLine
 62
     7
 10
154.989
 20
363.089
 30
0.0
 11
154.475
 21
362.511
 31
0.0
  0
LINE
  5
21d
100
AcDbEntity
  8
0
100
AcDbLine
 62
     7
 10
154.475
 20
362.511
 30
0.0
 11
153.446
 21
362.264
 31
0.0
  0
LINE
  5
21e
100
AcDbEntity
  8
0
100
AcDbLine
 62
     7
 10
153.446
 20
362.264
 30
0.0
 11
149.587
 21
364.8
 31
0.0
  0
LINE
  5
21f
100
AcDbEntity
  8
0
100
AcDbLine
 62
     7
 10
149.587
 20
364.8
 30
0.0
 11
149.587
 21
361.124
 31
0.0
  0
LINE
  5
220
100
AcDbEntity
  8
0
100
AcDbLine
 62
     7
 10
153.961
 20
362.846
 30
0.0
 11
153.961
 21
391.336
 31
0.0
  0
LINE
  5
221
100
AcDbEntity
  8
0
100
AcDbLine
 62
     7
 10
153.961
 20
391.336
 30
0.0
 11
153.446
 21
392.596
 31
0.0
  0
LINE
  5
222
100
AcDbEntity
  8
0
100
AcDbLine
 62
     7
 10
153.446
 20
392.596
 30
0.0
 11
142.642
 21
399.69
 31
0.0
  0
LINE
  5
223
100
AcDbEntity
  8
0
100
AcDbLine
 62
     7
 10
142.642
 20
399.69
 30
0.0
 11
142.127
 21
399.112
 31
0.0
  0
LINE
  5
224
100
AcDbEntity
  8
0
100
AcDbLine
 62
     7
 10
142.127
 20
399.112
 30
0.0
 11
142.127
 21
370.618
 31
0.0
  0
LINE
  5
225
100
AcDbEntity
  8
0
100
AcDbLine
 62
     7
 10
142.127
 20
370.618
 30
0.0
 11
142.642
 21
369.362
 31
0.0
  0
LINE
  5
226
100
AcDbEntity
  8
0
100
AcDbLine
 62
     7
 10
142.642
 20
369.362
 30
0.0
 11
148.558
 21
365.474
 31
0.0
  0
LINE
  5
227
100
AcDbEntity
  8
0
100
AcDbLine
 62
     7
 10
148.558
 20
365.474
 30
0.0
 11
149.587
 21
364.8
 31
0.0
  0
LINE
  5
228
100
AcDbEntity
  8
0
100
AcDbLine
 62
     7
 10
149.587
 20
364.8
 30
0.0
 11
153.446
 21
362.264
 31
0.0
  0
LINE
  5
229
100
AcDbEntity
  8
0
100
AcDbLine
 62
     7
 10
153.446
 20
362.264
 30
0.0
 11
153.961
 21
362.846
 31
0.0
  0
LINE
  5
22a
100
AcDbEntity
  8
0
100
AcDbLine
 62
     7
 10
154.989
 20
363.089
 30
0.0
 11
154.989
 21
391.583
 31
0.0
  0
LINE
  5
22b
100
AcDbEntity
  8
0
100
AcDbLine
 62
     7
 10
154.989
 20
391.583
 30
0.0
 11
153.961
 21
391.336
 31
0.0
  0
LINE
  5
22c
100
AcDbEntity
  8
0
100
AcDbLine
 62
     7
 10
153.961
 20
391.336
 30
0.0
 11
153.961
 21
362.846
 31
0.0
  0
LINE
  5
22d
100
AcDbEntity
  8
0
100
AcDbLine
 62
     7
 10
153.961
 20
362.846
 30
0.0
 11
154.989
 21
363.089
 31
0.0
  0
LINE
  5
22e
100
AcDbEntity
  8
0
100
AcDbLine
 62
     7
 10
149.587
 20
396.05
 30
0.0
 11
149.587
 21
417.188
 31
0.0
  0
LINE
  5
22f
100
AcDbEntity
  8
0
100
AcDbLine
 62
     7
 10
149.587
 20
417.188
 30
0.0
 11
148.558
 21
417.865
 31
0.0
  0
LINE
  5
230
100
AcDbEntity
  8
0
100
AcDbLine
 62
     7
 10
148.558
 20
417.865
 30
0.0
 11
148.558
 21
396.723
 31
0.0
  0
LINE
  5
231
100
AcDbEntity
  8
0
100
AcDbLine
 62
     7
 10
148.558
 20
396.723
 30
0.0
 11
149.587
 21
396.05
 31
0.0
  0
LINE
  5
232
100
AcDbEntity
  8
0
100
AcDbLine
 62
     7
 10
153.446
 20
392.596
 30
0.0
 11
154.475
 21
392.839
 31
0.0
  0
LINE
  5
233
100
AcDbEntity
  8
0
100
AcDbLine
 62
     7
 10
154.475
 20
392.839
 30
0.0
 11
149.587
 21
396.05
 31
0.0
  0
LINE
  5
234
100
AcDbEntity
  8
0
100
AcDbLine
 62
     7
 10
149.587
 20
396.05
 30
0.0
 11
148.558
 21
396.723
 31
0.0
  0
LINE
  5
235
100
AcDbEntity
  8
0
100
AcDbLine
 62
     7
 10
148.558
 20
396.723
 30
0.0
 11
143.67
 21
399.934
 31
0.0
  0
LINE
  5
236
100
AcDbEntity
  8
0
100
AcDbLine
 62
     7
 10
143.67
 20
399.934
 30
0.0
 11
142.642
 21
399.69
 31
0.0
  0
LINE
  5
237
100
AcDbEntity
  8
0
100
AcDbLine
 62
     7
 10
142.642
 20
399.69
 30
0.0
 11
153.446
 21
392.596
 31
0.0
  0
LINE
  5
238
100
AcDbEntity
  8
0
100
AcDbLine
 62
     7
 10
158.163
 20
420.134
 30
0.0
 11
157.134
 21
420.811
 31
0.0
  0
LINE
  5
239
100
AcDbEntity
  8
0
100
AcDbLine
 62
     7
 10
157.134
 20
420.811
 30
0.0
 11
149.417
 21
418.987
 31
0.0
  0
LINE
  5
23a
100
AcDbEntity
  8
0
100
AcDbLine
 62
     7
 10
149.417
 20
418.987
 30
0.0
 11
150.445
 21
418.31
 31
0.0
  0
LINE
  5
23b
100
AcDbEntity
  8
0
100
AcDbLine
 62
     7
 10
150.445
 20
418.31
 30
0.0
 11
158.163
 21
420.134
 31
0.0
  0
LINE
  5
23c
100
AcDbEntity
  8
0
100
AcDbLine
 62
     7
 10
148.558
 20
361.798
 30
0.0
 11
149.587
 21
361.124
 31
0.0
  0
LINE
  5
23d
100
AcDbEntity
  8
0
100
AcDbLine
 62
     7
 10
149.587
 20
361.124
 30
0.0
 11
149.587
 21
364.8
 31
0.0
  0
LINE
  5
23e
100
AcDbEntity
  8
0
100
AcDbLine
 62
     7
 10
149.587
 20
364.8
 30
0.0
 11
148.558
 21
365.474
 31
0.0
  0
LINE
  5
23f
100
AcDbEntity
  8
0
100
AcDbLine
 62
     7
 10
148.558
 20
365.474
 30
0.0
 11
148.558
 21
361.798
 31
0.0
  0
SPLINE
  5
240
100
AcDbEntity
  8
0
100
AcDbSpline
210
0.0
220
0.0
230
1.0
 62
     7
 70
     0
 71
     3
 72
     8
 73
4
 40
0.0
 40
0.0
 40
0.0
 40
0.0
 40
1.0
 40
1.0
 40
1.0
 40
1.0
 10
155.59
 20
415.389
 30
0.0
 10
155.59
 20
415.664
 30
0.0
 10
155.477
 20
415.893
 30
0.0
 10
155.281
 20
416.024
 30
0.0
  0
SPLINE
  5
241
100
AcDbEntity
  8
0
100
AcDbSpline
210
0.0
220
0.0
230
1.0
 62
     7
 70
     0
 71
     3
 72
     8
 73
4
 40
0.0
 40
0.0
 40
0.0
 40
0.0
 40
1.0
 40
1.0
 40
1.0
 40
1.0
 10
155.281
 20
416.024
 30
0.0
 10
155.082
 20
416.154
 30
0.0
 10
154.816
 20
416.165
 30
0.0
 10
154.561
 20
416.048
 30
0.0
  0
SPLINE
  5
242
100
AcDbEntity
  8
0
100
AcDbSpline
210
0.0
220
0.0
230
1.0
 62
     7
 70
     0
 71
     3
 72
     8
 73
4
 40
0.0
 40
0.0
 40
0.0
 40
0.0
 40
1.0
 40
1.0
 40
1.0
 40
1.0
 10
154.561
 20
416.048
 30
0.0
 10
154.168
 20
415.869
 30
0.0
 10
153.883
 20
415.435
 30
0.0
 10
153.875
 20
415.004
 30
0.0
  0
SPLINE
  5
243
100
AcDbEntity
  8
0
100
AcDbSpline
210
0.0
220
0.0
230
1.0
 62
     7
 70
     0
 71
     3
 72
     8
 73
4
 40
0.0
 40
0.0
 40
0.0
 40
0.0
 40
1.0
 40
1.0
 40
1.0
 40
1.0
 10
153.875
 20
415.004
 30
0.0
 10
153.87
 20
414.722
 30
0.0
 10
153.983
 20
414.482
 30
0.0
 10
154.183
 20
414.352
 30
0.0
  0
SPLINE
  5
244
100
AcDbEntity
  8
0
100
AcDbSpline
210
0.0
220
0.0
230
1.0
 62
     7
 70
     0
 71
     3
 72
     8
 73
4
 40
0.0
 40
0.0
 40
0.0
 40
0.0
 40
1.0
 40
1.0
 40
1.0
 40
1.0
 10
154.183
 20
414.352
 30
0.0
 10
154.439
 20
414.182
 30
0.0
 10
154.795
 20
414.218
 30
0.0
 10
155.096
 20
414.44
 30
0.0
  0
SPLINE
  5
245
100
AcDbEntity
  8
0
100
AcDbSpline
210
0.0
220
0.0
230
1.0
 62
     7
 70
     0
 71
     3
 72
     8
 73
4
 40
0.0
 40
0.0
 40
0.0
 40
0.0
 40
1.0
 40
1.0
 40
1.0
 40
1.0
 10
155.096
 20
414.44
 30
0.0
 10
155.397
 20
414.666
 30
0.0
 10
155.59
 20
415.032
 30
0.0
 10
155.59
 20
415.389
 30
0.0
  0
SPLINE
  5
246
100
AcDbEntity
  8
0
100
AcDbSpline
210
0.0
220
0.0
230
1.0
 62
     7
 70
     0
 71
     3
 72
     8
 73
4
 40
0.0
 40
0.0
 40
0.0
 40
0.0
 40
1.0
 40
1.0
 40
1.0
 40
1.0
 10
155.59
 20
407.12
 30
0.0
 10
155.59
 20
407.391
 30
0.0
 10
155.477
 20
407.624
 30
0.0
 10
155.281
 20
407.751
 30
0.0
  0
SPLINE
  5
247
100
AcDbEntity
  8
0
100
AcDbSpline
210
0.0
220
0.0
230
1.0
 62
     7
 70
     0
 71
     3
 72
     8
 73
4
 40
0.0
 40
0.0
 40
0.0
 40
0.0
 40
1.0
 40
1.0
 40
1.0
 40
1.0
 10
155.281
 20
407.751
 30
0.0
 10
155.082
 20
407.882
 30
0.0
 10
154.816
 20
407.892
 30
0.0
 10
154.561
 20
407.776
 30
0.0
  0
SPLINE
  5
248
100
AcDbEntity
  8
0
100
AcDbSpline
210
0.0
220
0.0
230
1.0
 62
     7
 70
     0
 71
     3
 72
     8
 73
4
 40
0.0
 40
0.0
 40
0.0
 40
0.0
 40
1.0
 40
1.0
 40
1.0
 40
1.0
 10
154.561
 20
407.776
 30
0.0
 10
154.168
 20
407.596
 30
0.0
 10
153.883
 20
407.162
 30
0.0
 10
153.875
 20
406.732
 30
0.0
  0
SPLINE
  5
249
100
AcDbEntity
  8
0
100
AcDbSpline
210
0.0
220
0.0
230
1.0
 62
     7
 70
     0
 71
     3
 72
     8
 73
4
 40
0.0
 40
0.0
 40
0.0
 40
0.0
 40
1.0
 40
1.0
 40
1.0
 40
1.0
 10
153.875
 20
406.732
 30
0.0
 10
153.87
 20
406.449
 30
0.0
 10
153.983
 20
406.209
 30
0.0
 10
154.183
 20
406.079
 30
0.0
  0
SPLINE
  5
24a
100
AcDbEntity
  8
0
100
AcDbSpline
210
0.0
220
0.0
230
1.0
 62
     7
 70
     0
 71
     3
 72
     8
 73
4
 40
0.0
 40
0.0
 40
0.0
 40
0.0
 40
1.0
 40
1.0
 40
1.0
 40
1.0
 10
154.183
 20
406.079
 30
0.0
 10
154.439
 20
405.913
 30
0.0
 10
154.795
 20
405.945
 30
0.0
 10
155.096
 20
406.171
 30
0.0
  0
SPLINE
  5
24b
100
AcDbEntity
  8
0
100
AcDbSpline
210
0.0
220
0.0
230
1.0
 62
     7
 70
     0
 71
     3
 72
     8
 73
4
 40
0.0
 40
0.0
 40
0.0
 40
0.0
 40
1.0
 40
1.0
 40
1.0
 40
1.0
 10
155.096
 20
406.171
 30
0.0
 10
155.397
 20
406.393
 30
0.0
 10
155.59
 20
406.763
 30
0.0
 10
155.59
 20
407.12
 30
0.0
  0
SPLINE
  5
24c
100
AcDbEntity
  8
0
100
AcDbSpline
210
0.0
220
0.0
230
1.0
 62
     7
 70
     0
 71
     3
 72
     8
 73
4
 40
0.0
 40
0.0
 40
0.0
 40
0.0
 40
1.0
 40
1.0
 40
1.0
 40
1.0
 10
153.875
 20
415.004
 30
0.0
 10
153.87
 20
414.722
 30
0.0
 10
153.983
 20
414.482
 30
0.0
 10
154.183
 20
414.352
 30
0.0
  0
SPLINE
  5
24d
100
AcDbEntity
  8
0
100
AcDbSpline
210
0.0
220
0.0
230
1.0
 62
     7
 70
     0
 71
     3
 72
     8
 73
4
 40
0.0
 40
0.0
 40
0.0
 40
0.0
 40
1.0
 40
1.0
 40
1.0
 40
1.0
 10
154.183
 20
414.352
 30
0.0
 10
154.439
 20
414.182
 30
0.0
 10
154.795
 20
414.218
 30
0.0
 10
155.096
 20
414.44
 30
0.0
  0
SPLINE
  5
24e
100
AcDbEntity
  8
0
100
AcDbSpline
210
0.0
220
0.0
230
1.0
 62
     7
 70
     0
 71
     3
 72
     8
 73
4
 40
0.0
 40
0.0
 40
0.0
 40
0.0
 40
1.0
 40
1.0
 40
1.0
 40
1.0
 10
155.096
 20
414.44
 30
0.0
 10
155.397
 20
414.666
 30
0.0
 10
155.59
 20
415.032
 30
0.0
 10
155.59
 20
415.389
 30
0.0
  0
SPLINE
  5
24f
100
AcDbEntity
  8
0
100
AcDbSpline
210
0.0
220
0.0
230
1.0
 62
     7
 70
     0
 71
     3
 72
     8
 73
4
 40
0.0
 40
0.0
 40
0.0
 40
0.0
 40
1.0
 40
1.0
 40
1.0
 40
1.0
 10
155.59
 20
415.389
 30
0.0
 10
155.59
 20
415.664
 30
0.0
 10
155.477
 20
415.893
 30
0.0
 10
155.281
 20
416.024
 30
0.0
  0
SPLINE
  5
250
100
AcDbEntity
  8
0
100
AcDbSpline
210
0.0
220
0.0
230
1.0
 62
     7
 70
     0
 71
     3
 72
     8
 73
4
 40
0.0
 40
0.0
 40
0.0
 40
0.0
 40
1.0
 40
1.0
 40
1.0
 40
1.0
 10
155.281
 20
416.024
 30
0.0
 10
155.082
 20
416.154
 30
0.0
 10
154.816
 20
416.165
 30
0.0
 10
154.561
 20
416.048
 30
0.0
  0
SPLINE
  5
251
100
AcDbEntity
  8
0
100
AcDbSpline
210
0.0
220
0.0
230
1.0
 62
     7
 70
     0
 71
     3
 72
     8
 73
4
 40
0.0
 40
0.0
 40
0.0
 40
0.0
 40
1.0
 40
1.0
 40
1.0
 40
1.0
 10
154.561
 20
416.048
 30
0.0
 10
154.553
 20
415.618
 30
0.0
 10
154.267
 20
415.181
 30
0.0
 10
153.875
 20
415.004
 30
0.0
  0
SPLINE
  5
252
100
AcDbEntity
  8
0
100
AcDbSpline
210
0.0
220
0.0
230
1.0
 62
     7
 70
     0
 71
     3
 72
     8
 73
4
 40
0.0
 40
0.0
 40
0.0
 40
0.0
 40
1.0
 40
1.0
 40
1.0
 40
1.0
 10
153.875
 20
406.732
 30
0.0
 10
153.87
 20
406.449
 30
0.0
 10
153.983
 20
406.209
 30
0.0
 10
154.183
 20
406.079
 30
0.0
  0
SPLINE
  5
253
100
AcDbEntity
  8
0
100
AcDbSpline
210
0.0
220
0.0
230
1.0
 62
     7
 70
     0
 71
     3
 72
     8
 73
4
 40
0.0
 40
0.0
 40
0.0
 40
0.0
 40
1.0
 40
1.0
 40
1.0
 40
1.0
 10
154.183
 20
406.079
 30
0.0
 10
154.439
 20
405.913
 30
0.0
 10
154.795
 20
405.945
 30
0.0
 10
155.096
 20
406.171
 30
0.0
  0
SPLINE
  5
254
100
AcDbEntity
  8
0
100
AcDbSpline
210
0.0
220
0.0
230
1.0
 62
     7
 70
     0
 71
     3
 72
     8
 73
4
 40
0.0
 40
0.0
 40
0.0
 40
0.0
 40
1.0
 40
1.0
 40
1.0
 40
1.0
 10
155.096
 20
406.171
 30
0.0
 10
155.397
 20
406.393
 30
0.0
 10
155.59
 20
406.763
 30
0.0
 10
155.59
 20
407.12
 30
0.0
  0
SPLINE
  5
255
100
AcDbEntity
  8
0
100
AcDbSpline
210
0.0
220
0.0
230
1.0
 62
     7
 70
     0
 71
     3
 72
     8
 73
4
 40
0.0
 40
0.0
 40
0.0
 40
0.0
 40
1.0
 40
1.0
 40
1.0
 40
1.0
 10
155.59
 20
407.12
 30
0.0
 10
155.59
 20
407.391
 30
0.0
 10
155.477
 20
407.624
 30
0.0
 10
155.281
 20
407.751
 30
0.0
  0
SPLINE
  5
256
100
AcDbEntity
  8
0
100
AcDbSpline
210
0.0
220
0.0
230
1.0
 62
     7
 70
     0
 71
     3
 72
     8
 73
4
 40
0.0
 40
0.0
 40
0.0
 40
0.0
 40
1.0
 40
1.0
 40
1.0
 40
1.0
 10
155.281
 20
407.751
 30
0.0
 10
155.082
 20
407.882
 30
0.0
 10
154.816
 20
407.892
 30
0.0
 10
154.561
 20
407.776
 30
0.0
  0
SPLINE
  5
257
100
AcDbEntity
  8
0
100
AcDbSpline
210
0.0
220
0.0
230
1.0
 62
     7
 70
     0
 71
     3
 72
     8
 73
4
 40
0.0
 40
0.0
 40
0.0
 40
0.0
 40
1.0
 40
1.0
 40
1.0
 40
1.0
 10
154.561
 20
407.776
 30
0.0
 10
154.553
 20
407.345
 30
0.0
 10
154.267
 20
406.912
 30
0.0
 10
153.875
 20
406.732
 30
0.0
  0
LINE
  5
258
100
AcDbEntity
  8
0
100
AcDbLine
 62
     7
 10
148.558
 20
417.865
 30
0.0
 11
149.587
 21
417.188
 31
0.0
  0
LINE
  5
259
100
AcDbEntity
  8
0
100
AcDbLine
 62
     7
 10
149.587
 20
417.188
 30
0.0
 11
150.445
 21
418.31
 31
0.0
  0
LINE
  5
25a
100
AcDbEntity
  8
0
100
AcDbLine
 62
     7
 10
150.445
 20
418.31
 30
0.0
 11
149.417
 21
418.987
 31
0.0
  0
LINE
  5
25b
100
AcDbEntity
  8
0
100
AcDbLine
 62
     7
 10
149.417
 20
418.987
 30
0.0
 11
148.558
 21
417.865
 31
0.0
  0
SPLINE
  5
25c
100
AcDbEntity
  8
0
100
AcDbSpline
210
0.0
220
0.0
230
1.0
 62
     7
 70
     0
 71
     3
 72
     8
 73
4
 40
0.0
 40
0.0
 40
0.0
 40
0.0
 40
1.0
 40
1.0
 40
1.0
 40
1.0
 10
143.956
 20
372.999
 30
0.0
 10
144.209
 20
373.055
 30
0.0
 10
144.518
 20
372.671
 30
0.0
 10
144.646
 20
372.131
 30
0.0
  0
SPLINE
  5
25d
100
AcDbEntity
  8
0
100
AcDbSpline
210
0.0
220
0.0
230
1.0
 62
     7
 70
     0
 71
     3
 72
     8
 73
4
 40
0.0
 40
0.0
 40
0.0
 40
0.0
 40
1.0
 40
1.0
 40
1.0
 40
1.0
 10
144.646
 20
372.131
 30
0.0
 10
144.773
 20
371.595
 30
0.0
 10
144.669
 20
371.112
 30
0.0
 10
144.416
 20
371.052
 30
0.0
  0
SPLINE
  5
25e
100
AcDbEntity
  8
0
100
AcDbSpline
210
0.0
220
0.0
230
1.0
 62
     7
 70
     0
 71
     3
 72
     8
 73
4
 40
0.0
 40
0.0
 40
0.0
 40
0.0
 40
1.0
 40
1.0
 40
1.0
 40
1.0
 10
144.416
 20
371.052
 30
0.0
 10
144.256
 20
371.013
 30
0.0
 10
144.067
 20
371.154
 30
0.0
 10
143.914
 20
371.419
 30
0.0
  0
SPLINE
  5
25f
100
AcDbEntity
  8
0
100
AcDbSpline
210
0.0
220
0.0
230
1.0
 62
     7
 70
     0
 71
     3
 72
     8
 73
4
 40
0.0
 40
0.0
 40
0.0
 40
0.0
 40
1.0
 40
1.0
 40
1.0
 40
1.0
 10
143.914
 20
371.419
 30
0.0
 10
143.763
 20
371.687
 30
0.0
 10
143.67
 20
372.043
 30
0.0
 10
143.67
 20
372.364
 30
0.0
  0
SPLINE
  5
260
100
AcDbEntity
  8
0
100
AcDbSpline
210
0.0
220
0.0
230
1.0
 62
     7
 70
     0
 71
     3
 72
     8
 73
4
 40
0.0
 40
0.0
 40
0.0
 40
0.0
 40
1.0
 40
1.0
 40
1.0
 40
1.0
 10
143.67
 20
372.364
 30
0.0
 10
143.67
 20
372.71
 30
0.0
 10
143.78
 20
372.957
 30
0.0
 10
143.956
 20
372.999
 30
0.0
  0
SPLINE
  5
261
100
AcDbEntity
  8
0
100
AcDbSpline
210
0.0
220
0.0
230
1.0
 62
     7
 70
     0
 71
     3
 72
     8
 73
4
 40
0.0
 40
0.0
 40
0.0
 40
0.0
 40
1.0
 40
1.0
 40
1.0
 40
1.0
 10
151.673
 20
390.906
 30
0.0
 10
151.927
 20
390.966
 30
0.0
 10
152.236
 20
390.578
 30
0.0
 10
152.363
 20
390.042
 30
0.0
  0
SPLINE
  5
262
100
AcDbEntity
  8
0
100
AcDbSpline
210
0.0
220
0.0
230
1.0
 62
     7
 70
     0
 71
     3
 72
     8
 73
4
 40
0.0
 40
0.0
 40
0.0
 40
0.0
 40
1.0
 40
1.0
 40
1.0
 40
1.0
 10
152.363
 20
390.042
 30
0.0
 10
152.49
 20
389.505
 30
0.0
 10
152.386
 20
389.019
 30
0.0
 10
152.133
 20
388.959
 30
0.0
  0
SPLINE
  5
263
100
AcDbEntity
  8
0
100
AcDbSpline
210
0.0
220
0.0
230
1.0
 62
     7
 70
     0
 71
     3
 72
     8
 73
4
 40
0.0
 40
0.0
 40
0.0
 40
0.0
 40
1.0
 40
1.0
 40
1.0
 40
1.0
 10
152.133
 20
388.959
 30
0.0
 10
151.973
 20
388.923
 30
0.0
 10
151.784
 20
389.061
 30
0.0
 10
151.632
 20
389.329
 30
0.0
  0
SPLINE
  5
264
100
AcDbEntity
  8
0
100
AcDbSpline
210
0.0
220
0.0
230
1.0
 62
     7
 70
     0
 71
     3
 72
     8
 73
4
 40
0.0
 40
0.0
 40
0.0
 40
0.0
 40
1.0
 40
1.0
 40
1.0
 40
1.0
 10
151.632
 20
389.329
 30
0.0
 10
151.481
 20
389.597
 30
0.0
 10
151.389
 20
389.954
 30
0.0
 10
151.389
 20
390.271
 30
0.0
  0
SPLINE
  5
265
100
AcDbEntity
  8
0
100
AcDbSpline
210
0.0
220
0.0
230
1.0
 62
     7
 70
     0
 71
     3
 72
     8
 73
4
 40
0.0
 40
0.0
 40
0.0
 40
0.0
 40
1.0
 40
1.0
 40
1.0
 40
1.0
 10
151.389
 20
390.271
 30
0.0
 10
151.389
 20
390.62
 30
0.0
 10
151.499
 20
390.864
 30
0.0
 10
151.673
 20
390.906
 30
0.0
  0
SPLINE
  5
266
100
AcDbEntity
  8
0
100
AcDbSpline
210
0.0
220
0.0
230
1.0
 62
     7
 70
     0
 71
     3
 72
     8
 73
4
 40
0.0
 40
0.0
 40
0.0
 40
0.0
 40
1.0
 40
1.0
 40
1.0
 40
1.0
 10
143.956
 20
395.975
 30
0.0
 10
144.209
 20
396.035
 30
0.0
 10
144.518
 20
395.647
 30
0.0
 10
144.646
 20
395.111
 30
0.0
  0
SPLINE
  5
267
100
AcDbEntity
  8
0
100
AcDbSpline
210
0.0
220
0.0
230
1.0
 62
     7
 70
     0
 71
     3
 72
     8
 73
4
 40
0.0
 40
0.0
 40
0.0
 40
0.0
 40
1.0
 40
1.0
 40
1.0
 40
1.0
 10
144.646
 20
395.111
 30
0.0
 10
144.773
 20
394.571
 30
0.0
 10
144.669
 20
394.088
 30
0.0
 10
144.416
 20
394.028
 30
0.0
  0
SPLINE
  5
268
100
AcDbEntity
  8
0
100
AcDbSpline
210
0.0
220
0.0
230
1.0
 62
     7
 70
     0
 71
     3
 72
     8
 73
4
 40
0.0
 40
0.0
 40
0.0
 40
0.0
 40
1.0
 40
1.0
 40
1.0
 40
1.0
 10
144.416
 20
394.028
 30
0.0
 10
144.256
 20
393.989
 30
0.0
 10
144.067
 20
394.13
 30
0.0
 10
143.914
 20
394.398
 30
0.0
  0
SPLINE
  5
269
100
AcDbEntity
  8
0
100
AcDbSpline
210
0.0
220
0.0
230
1.0
 62
     7
 70
     0
 71
     3
 72
     8
 73
4
 40
0.0
 40
0.0
 40
0.0
 40
0.0
 40
1.0
 40
1.0
 40
1.0
 40
1.0
 10
143.914
 20
394.398
 30
0.0
 10
143.763
 20
394.663
 30
0.0
 10
143.67
 20
395.019
 30
0.0
 10
143.67
 20
395.34
 30
0.0
  0
SPLINE
  5
26a
100
AcDbEntity
  8
0
100
AcDbSpline
210
0.0
220
0.0
230
1.0
 62
     7
 70
     0
 71
     3
 72
     8
 73
4
 40
0.0
 40
0.0
 40
0.0
 40
0.0
 40
1.0
 40
1.0
 40
1.0
 40
1.0
 10
143.67
 20
395.34
 30
0.0
 10
143.67
 20
395.686
 30
0.0
 10
143.78
 20
395.933
 30
0.0
 10
143.956
 20
395.975
 30
0.0
  0
SPLINE
  5
26b
100
AcDbEntity
  8
0
100
AcDbSpline
210
0.0
220
0.0
230
1.0
 62
     7
 70
     0
 71
     3
 72
     8
 73
4
 40
0.0
 40
0.0
 40
0.0
 40
0.0
 40
1.0
 40
1.0
 40
1.0
 40
1.0
 10
151.673
 20
367.93
 30
0.0
 10
151.927
 20
367.99
 30
0.0
 10
152.236
 20
367.602
 30
0.0
 10
152.363
 20
367.065
 30
0.0
  0
SPLINE
  5
26c
100
AcDbEntity
  8
0
100
AcDbSpline
210
0.0
220
0.0
230
1.0
 62
     7
 70
     0
 71
     3
 72
     8
 73
4
 40
0.0
 40
0.0
 40
0.0
 40
0.0
 40
1.0
 40
1.0
 40
1.0
 40
1.0
 10
152.363
 20
367.065
 30
0.0
 10
152.49
 20
366.526
 30
0.0
 10
152.386
 20
366.042
 30
0.0
 10
152.133
 20
365.982
 30
0.0
  0
SPLINE
  5
26d
100
AcDbEntity
  8
0
100
AcDbSpline
210
0.0
220
0.0
230
1.0
 62
     7
 70
     0
 71
     3
 72
     8
 73
4
 40
0.0
 40
0.0
 40
0.0
 40
0.0
 40
1.0
 40
1.0
 40
1.0
 40
1.0
 10
152.133
 20
365.982
 30
0.0
 10
151.973
 20
365.943
 30
0.0
 10
151.784
 20
366.085
 30
0.0
 10
151.632
 20
366.353
 30
0.0
  0
SPLINE
  5
26e
100
AcDbEntity
  8
0
100
AcDbSpline
210
0.0
220
0.0
230
1.0
 62
     7
 70
     0
 71
     3
 72
     8
 73
4
 40
0.0
 40
0.0
 40
0.0
 40
0.0
 40
1.0
 40
1.0
 40
1.0
 40
1.0
 10
151.632
 20
366.353
 30
0.0
 10
151.481
 20
366.617
 30
0.0
 10
151.389
 20
366.977
 30
0.0
 10
151.389
 20
367.295
 30
0.0
  0
SPLINE
  5
26f
100
AcDbEntity
  8
0
100
AcDbSpline
210
0.0
220
0.0
230
1.0
 62
     7
 70
     0
 71
     3
 72
     8
 73
4
 40
0.0
 40
0.0
 40
0.0
 40
0.0
 40
1.0
 40
1.0
 40
1.0
 40
1.0
 10
151.389
 20
367.295
 30
0.0
 10
151.389
 20
367.64
 30
0.0
 10
151.499
 20
367.887
 30
0.0
 10
151.673
 20
367.93
 30
0.0
  0
LINE
  5
270
100
AcDbEntity
  8
0
100
AcDbLine
 62
     7
 10
153.961
 20
391.336
 30
0.0
 11
154.989
 21
391.583
 31
0.0
  0
LINE
  5
271
100
AcDbEntity
  8
0
100
AcDbLine
 62
     7
 10
154.989
 20
391.583
 30
0.0
 11
154.475
 21
392.839
 31
0.0
  0
LINE
  5
272
100
AcDbEntity
  8
0
100
AcDbLine
 62
     7
 10
154.475
 20
392.839
 30
0.0
 11
153.446
 21
392.596
 31
0.0
  0
LINE
  5
273
100
AcDbEntity
  8
0
100
AcDbLine
 62
     7
 10
153.446
 20
392.596
 30
0.0
 11
153.961
 21
391.336
 31
0.0
  0
SPLINE
  5
274
100
AcDbEntity
  8
0
100
AcDbSpline
210
0.0
220
0.0
230
1.0
 62
     7
 70
     0
 71
     3
 72
     8
 73
4
 40
0.0
 40
0.0
 40
0.0
 40
0.0
 40
1.0
 40
1.0
 40
1.0
 40
1.0
 10
154.989
 20
364.74
 30
0.0
 10
155.346
 20
364.945
 30
0.0
 10
155.59
 20
365.358
 30
0.0
 10
155.59
 20
365.76
 30
0.0
  0
SPLINE
  5
275
100
AcDbEntity
  8
0
100
AcDbSpline
210
0.0
220
0.0
230
1.0
 62
     7
 70
     0
 71
     3
 72
     8
 73
4
 40
0.0
 40
0.0
 40
0.0
 40
0.0
 40
1.0
 40
1.0
 40
1.0
 40
1.0
 10
155.59
 20
365.76
 30
0.0
 10
155.59
 20
366.032
 30
0.0
 10
155.477
 20
366.264
 30
0.0
 10
155.281
 20
366.391
 30
0.0
  0
SPLINE
  5
276
100
AcDbEntity
  8
0
100
AcDbSpline
210
0.0
220
0.0
230
1.0
 62
     7
 70
     0
 71
     3
 72
     8
 73
4
 40
0.0
 40
0.0
 40
0.0
 40
0.0
 40
1.0
 40
1.0
 40
1.0
 40
1.0
 10
155.281
 20
366.391
 30
0.0
 10
155.196
 20
366.448
 30
0.0
 10
155.097
 20
366.483
 30
0.0
 10
154.989
 20
366.494
 30
0.0
  0
LINE
  5
277
100
AcDbEntity
  8
0
100
AcDbLine
 62
     7
 10
154.989
 20
366.494
 30
0.0
 11
154.989
 21
364.74
 31
0.0
  0
SPLINE
  5
278
100
AcDbEntity
  8
0
100
AcDbSpline
210
0.0
220
0.0
230
1.0
 62
     7
 70
     0
 71
     3
 72
     8
 73
4
 40
0.0
 40
0.0
 40
0.0
 40
0.0
 40
1.0
 40
1.0
 40
1.0
 40
1.0
 10
154.989
 20
373.013
 30
0.0
 10
155.346
 20
373.218
 30
0.0
 10
155.59
 20
373.63
 30
0.0
 10
155.59
 20
374.033
 30
0.0
  0
SPLINE
  5
279
100
AcDbEntity
  8
0
100
AcDbSpline
210
0.0
220
0.0
230
1.0
 62
     7
 70
     0
 71
     3
 72
     8
 73
4
 40
0.0
 40
0.0
 40
0.0
 40
0.0
 40
1.0
 40
1.0
 40
1.0
 40
1.0
 10
155.59
 20
374.033
 30
0.0
 10
155.59
 20
374.304
 30
0.0
 10
155.477
 20
374.537
 30
0.0
 10
155.281
 20
374.664
 30
0.0
  0
SPLINE
  5
27a
100
AcDbEntity
  8
0
100
AcDbSpline
210
0.0
220
0.0
230
1.0
 62
     7
 70
     0
 71
     3
 72
     8
 73
4
 40
0.0
 40
0.0
 40
0.0
 40
0.0
 40
1.0
 40
1.0
 40
1.0
 40
1.0
 10
155.281
 20
374.664
 30
0.0
 10
155.196
 20
374.721
 30
0.0
 10
155.097
 20
374.756
 30
0.0
 10
154.989
 20
374.766
 30
0.0
  0
LINE
  5
27b
100
AcDbEntity
  8
0
100
AcDbLine
 62
     7
 10
154.989
 20
374.766
 30
0.0
 11
154.989
 21
373.013
 31
0.0
  0
LINE
  5
27c
100
AcDbEntity
  8
0
100
AcDbLine
 62
     7
 10
154.989
 20
363.089
 30
0.0
 11
154.475
 21
362.511
 31
0.0
  0
LINE
  5
27d
100
AcDbEntity
  8
0
100
AcDbLine
 62
     7
 10
154.475
 20
362.511
 30
0.0
 11
153.446
 21
362.264
 31
0.0
  0
LINE
  5
27e
100
AcDbEntity
  8
0
100
AcDbLine
 62
     7
 10
153.446
 20
362.264
 30
0.0
 11
153.961
 21
362.846
 31
0.0
  0
LINE
  5
27f
100
AcDbEntity
  8
0
100
AcDbLine
 62
     7
 10
153.961
 20
362.846
 30
0.0
 11
154.989
 21
363.089
 31
0.0
  0
SPLINE
  5
280
100
AcDbEntity
  8
0
100
AcDbSpline
210
0.0
220
0.0
230
1.0
 62
     7
 70
     0
 71
     3
 72
     8
 73
4
 40
0.0
 40
0.0
 40
0.0
 40
0.0
 40
1.0
 40
1.0
 40
1.0
 40
1.0
 10
149.188
 20
409.688
 30
0.0
 10
149.255
 20
409.702
 30
0.0
 10
149.306
 20
409.783
 30
0.0
 10
149.323
 20
409.903
 30
0.0
  0
SPLINE
  5
281
100
AcDbEntity
  8
0
100
AcDbSpline
210
0.0
220
0.0
230
1.0
 62
     7
 70
     0
 71
     3
 72
     8
 73
4
 40
0.0
 40
0.0
 40
0.0
 40
0.0
 40
1.0
 40
1.0
 40
1.0
 40
1.0
 10
149.323
 20
409.903
 30
0.0
 10
149.338
 20
410.002
 30
0.0
 10
149.33
 20
410.125
 30
0.0
 10
149.299
 20
410.242
 30
0.0
  0
SPLINE
  5
282
100
AcDbEntity
  8
0
100
AcDbSpline
210
0.0
220
0.0
230
1.0
 62
     7
 70
     0
 71
     3
 72
     8
 73
4
 40
0.0
 40
0.0
 40
0.0
 40
0.0
 40
1.0
 40
1.0
 40
1.0
 40
1.0
 10
149.299
 20
410.242
 30
0.0
 10
149.269
 20
410.362
 30
0.0
 10
149.219
 20
410.471
 30
0.0
 10
149.162
 20
410.545
 30
0.0
  0
SPLINE
  5
283
100
AcDbEntity
  8
0
100
AcDbSpline
210
0.0
220
0.0
230
1.0
 62
     7
 70
     0
 71
     3
 72
     8
 73
4
 40
0.0
 40
0.0
 40
0.0
 40
0.0
 40
1.0
 40
1.0
 40
1.0
 40
1.0
 10
149.162
 20
410.545
 30
0.0
 10
149.096
 20
410.633
 30
0.0
 10
149.021
 20
410.676
 30
0.0
 10
148.958
 20
410.658
 30
0.0
  0
SPLINE
  5
284
100
AcDbEntity
  8
0
100
AcDbSpline
210
0.0
220
0.0
230
1.0
 62
     7
 70
     0
 71
     3
 72
     8
 73
4
 40
0.0
 40
0.0
 40
0.0
 40
0.0
 40
1.0
 40
1.0
 40
1.0
 40
1.0
 10
148.958
 20
410.658
 30
0.0
 10
148.872
 20
410.64
 30
0.0
 10
148.814
 20
410.513
 30
0.0
 10
148.816
 20
410.344
 30
0.0
  0
SPLINE
  5
285
100
AcDbEntity
  8
0
100
AcDbSpline
210
0.0
220
0.0
230
1.0
 62
     7
 70
     0
 71
     3
 72
     8
 73
4
 40
0.0
 40
0.0
 40
0.0
 40
0.0
 40
1.0
 40
1.0
 40
1.0
 40
1.0
 10
148.816
 20
410.344
 30
0.0
 10
148.814
 20
410.175
 30
0.0
 10
148.871
 20
409.974
 30
0.0
 10
148.955
 20
409.843
 30
0.0
  0
SPLINE
  5
286
100
AcDbEntity
  8
0
100
AcDbSpline
210
0.0
220
0.0
230
1.0
 62
     7
 70
     0
 71
     3
 72
     8
 73
4
 40
0.0
 40
0.0
 40
0.0
 40
0.0
 40
1.0
 40
1.0
 40
1.0
 40
1.0
 10
148.955
 20
409.843
 30
0.0
 10
149.027
 20
409.727
 30
0.0
 10
149.116
 20
409.67
 30
0.0
 10
149.188
 20
409.688
 30
0.0
  0
SPLINE
  5
287
100
AcDbEntity
  8
0
100
AcDbSpline
210
0.0
220
0.0
230
1.0
 62
     7
 70
     0
 71
     3
 72
     8
 73
4
 40
0.0
 40
0.0
 40
0.0
 40
0.0
 40
1.0
 40
1.0
 40
1.0
 40
1.0
 10
153.875
 20
406.732
 30
0.0
 10
154.267
 20
406.912
 30
0.0
 10
154.553
 20
407.345
 30
0.0
 10
154.561
 20
407.776
 30
0.0
  0
SPLINE
  5
288
100
AcDbEntity
  8
0
100
AcDbSpline
210
0.0
220
0.0
230
1.0
 62
     7
 70
     0
 71
     3
 72
     8
 73
4
 40
0.0
 40
0.0
 40
0.0
 40
0.0
 40
1.0
 40
1.0
 40
1.0
 40
1.0
 10
154.561
 20
407.776
 30
0.0
 10
154.168
 20
407.596
 30
0.0
 10
153.883
 20
407.162
 30
0.0
 10
153.875
 20
406.732
 30
0.0
  0
SPLINE
  5
289
100
AcDbEntity
  8
0
100
AcDbSpline
210
0.0
220
0.0
230
1.0
 62
     7
 70
     0
 71
     3
 72
     8
 73
4
 40
0.0
 40
0.0
 40
0.0
 40
0.0
 40
1.0
 40
1.0
 40
1.0
 40
1.0
 10
153.875
 20
415.004
 30
0.0
 10
154.267
 20
415.181
 30
0.0
 10
154.553
 20
415.618
 30
0.0
 10
154.561
 20
416.048
 30
0.0
  0
SPLINE
  5
28a
100
AcDbEntity
  8
0
100
AcDbSpline
210
0.0
220
0.0
230
1.0
 62
     7
 70
     0
 71
     3
 72
     8
 73
4
 40
0.0
 40
0.0
 40
0.0
 40
0.0
 40
1.0
 40
1.0
 40
1.0
 40
1.0
 10
154.561
 20
416.048
 30
0.0
 10
154.168
 20
415.869
 30
0.0
 10
153.883
 20
415.435
 30
0.0
 10
153.875
 20
415.004
 30
0.0
  0
LINE
  5
28b
100
AcDbEntity
  8
0
100
AcDbLine
 62
     7
 10
148.558
 20
361.798
 30
0.0
 11
149.587
 21
361.124
 31
0.0
  0
LINE
  5
28c
100
AcDbEntity
  8
0
100
AcDbLine
 62
     7
 10
149.587
 20
361.124
 30
0.0
 11
150.445
 21
360.408
 31
0.0
  0
LINE
  5
28d
100
AcDbEntity
  8
0
100
AcDbLine
 62
     7
 10
150.445
 20
360.408
 30
0.0
 11
149.417
 21
361.082
 31
0.0
  0
LINE
  5
28e
100
AcDbEntity
  8
0
100
AcDbLine
 62
     7
 10
149.417
 20
361.082
 30
0.0
 11
148.558
 21
361.798
 31
0.0
  0
SPLINE
  5
28f
100
AcDbEntity
  8
0
100
AcDbSpline
210
0.0
220
0.0
230
1.0
 62
     7
 70
     0
 71
     3
 72
     8
 73
4
 40
0.0
 40
0.0
 40
0.0
 40
0.0
 40
1.0
 40
1.0
 40
1.0
 40
1.0
 10
319.249
 20
112.287
 30
0.0
 10
319.918
 20
111.74
 30
0.0
 10
320.53
 20
111.548
 30
0.0
 10
320.83
 20
111.794
 30
0.0
  0
SPLINE
  5
290
100
AcDbEntity
  8
0
100
AcDbSpline
210
0.0
220
0.0
230
1.0
 62
     7
 70
     0
 71
     3
 72
     8
 73
4
 40
0.0
 40
0.0
 40
0.0
 40
0.0
 40
1.0
 40
1.0
 40
1.0
 40
1.0
 10
320.83
 20
111.794
 30
0.0
 10
320.953
 20
111.893
 30
0.0
 10
321.017
 20
112.062
 30
0.0
 10
321.017
 20
112.287
 30
0.0
  0
LINE
  5
291
100
AcDbEntity
  8
0
100
AcDbLine
 62
     7
 10
321.017
 20
112.287
 30
0.0
 11
321.017
 21
157.03
 31
0.0
  0
SPLINE
  5
292
100
AcDbEntity
  8
0
100
AcDbSpline
210
0.0
220
0.0
230
1.0
 62
     7
 70
     0
 71
     3
 72
     8
 73
4
 40
0.0
 40
0.0
 40
0.0
 40
0.0
 40
1.0
 40
1.0
 40
1.0
 40
1.0
 10
321.017
 20
157.03
 30
0.0
 10
321.017
 20
157.828
 30
0.0
 10
320.226
 20
159.121
 30
0.0
 10
319.249
 20
159.917
 30
0.0
  0
LINE
  5
293
100
AcDbEntity
  8
0
100
AcDbLine
 62
     7
 10
319.249
 20
159.917
 30
0.0
 11
289.197
 21
184.454
 31
0.0
  0
LINE
  5
294
100
AcDbEntity
  8
0
100
AcDbLine
 62
     7
 10
289.197
 20
184.454
 30
0.0
 11
227.325
 21
133.937
 31
0.0
  0
SPLINE
  5
295
100
AcDbEntity
  8
0
100
AcDbSpline
210
0.0
220
0.0
230
1.0
 62
     7
 70
     0
 71
     3
 72
     8
 73
4
 40
0.0
 40
0.0
 40
0.0
 40
0.0
 40
1.0
 40
1.0
 40
1.0
 40
1.0
 10
227.325
 20
133.937
 30
0.0
 10
226.348
 20
133.139
 30
0.0
 10
225.557
 20
131.846
 30
0.0
 10
225.557
 20
131.05
 30
0.0
  0
LINE
  5
296
100
AcDbEntity
  8
0
100
AcDbLine
 62
     7
 10
225.557
 20
131.05
 30
0.0
 11
225.557
 21
86.3053
 31
0.0
  0
SPLINE
  5
297
100
AcDbEntity
  8
0
100
AcDbSpline
210
0.0
220
0.0
230
1.0
 62
     7
 70
     0
 71
     3
 72
     8
 73
4
 40
0.0
 40
0.0
 40
0.0
 40
0.0
 40
1.0
 40
1.0
 40
1.0
 40
1.0
 10
225.557
 20
86.3053
 30
0.0
 10
225.557
 20
86.082
 30
0.0
 10
225.621
 20
85.9123
 30
0.0
 10
225.743
 20
85.8118
 30
0.0
  0
SPLINE
  5
298
100
AcDbEntity
  8
0
100
AcDbSpline
210
0.0
220
0.0
230
1.0
 62
     7
 70
     0
 71
     3
 72
     8
 73
4
 40
0.0
 40
0.0
 40
0.0
 40
0.0
 40
1.0
 40
1.0
 40
1.0
 40
1.0
 10
225.743
 20
85.8118
 30
0.0
 10
226.044
 20
85.568
 30
0.0
 10
226.655
 20
85.7582
 30
0.0
 10
227.325
 20
86.3053
 30
0.0
  0
LINE
  5
299
100
AcDbEntity
  8
0
100
AcDbLine
 62
     7
 10
227.325
 20
86.3053
 30
0.0
 11
289.197
 21
136.824
 31
0.0
  0
LINE
  5
29a
100
AcDbEntity
  8
0
100
AcDbLine
 62
     7
 10
289.197
 20
136.824
 30
0.0
 11
319.249
 21
112.287
 31
0.0
  0
LINE
  5
29b
100
AcDbEntity
  8
0
100
AcDbLine
 62
     7
 10
328.088
 20
148.371
 30
0.0
 11
345.765
 21
162.804
 31
0.0
  0
LINE
  5
29c
100
AcDbEntity
  8
0
100
AcDbLine
 62
     7
 10
345.765
 20
162.804
 30
0.0
 11
345.765
 21
165.691
 31
0.0
  0
LINE
  5
29d
100
AcDbEntity
  8
0
100
AcDbLine
 62
     7
 10
345.765
 20
165.691
 30
0.0
 11
333.392
 21
175.795
 31
0.0
  0
LINE
  5
29e
100
AcDbEntity
  8
0
100
AcDbLine
 62
     7
 10
333.392
 20
175.795
 30
0.0
 11
333.392
 21
178.682
 31
0.0
  0
LINE
  5
29f
100
AcDbEntity
  8
0
100
AcDbLine
 62
     7
 10
333.392
 20
178.682
 30
0.0
 11
326.319
 21
184.454
 31
0.0
  0
LINE
  5
2a0
100
AcDbEntity
  8
0
100
AcDbLine
 62
     7
 10
326.319
 20
184.454
 30
0.0
 11
315.713
 21
191.671
 31
0.0
  0
LINE
  5
2a1
100
AcDbEntity
  8
0
100
AcDbLine
 62
     7
 10
315.713
 20
191.671
 30
0.0
 11
314.829
 21
190.95
 31
0.0
  0
LINE
  5
2a2
100
AcDbEntity
  8
0
100
AcDbLine
 62
     7
 10
314.829
 20
190.95
 30
0.0
 11
313.946
 21
191.671
 31
0.0
  0
LINE
  5
2a3
100
AcDbEntity
  8
0
100
AcDbLine
 62
     7
 10
313.946
 20
191.671
 30
0.0
 11
311.293
 21
189.507
 31
0.0
  0
LINE
  5
2a4
100
AcDbEntity
  8
0
100
AcDbLine
 62
     7
 10
311.293
 20
189.507
 30
0.0
 11
299.803
 21
198.888
 31
0.0
  0
LINE
  5
2a5
100
AcDbEntity
  8
0
100
AcDbLine
 62
     7
 10
299.803
 20
198.888
 30
0.0
 11
296.267
 21
196.003
 31
0.0
  0
LINE
  5
2a6
100
AcDbEntity
  8
0
100
AcDbLine
 62
     7
 10
296.267
 20
196.003
 30
0.0
 11
296.267
 21
184.454
 31
0.0
  0
LINE
  5
2a7
100
AcDbEntity
  8
0
100
AcDbLine
 62
     7
 10
296.267
 20
184.454
 30
0.0
 11
301.571
 21
180.125
 31
0.0
  0
LINE
  5
2a8
100
AcDbEntity
  8
0
100
AcDbLine
 62
     7
 10
301.571
 20
180.125
 30
0.0
 11
305.107
 21
177.238
 31
0.0
  0
LINE
  5
2a9
100
AcDbEntity
  8
0
100
AcDbLine
 62
     7
 10
305.107
 20
177.238
 30
0.0
 11
319.249
 21
165.691
 31
0.0
  0
LINE
  5
2aa
100
AcDbEntity
  8
0
100
AcDbLine
 62
     7
 10
319.249
 20
165.691
 30
0.0
 11
322.785
 21
162.804
 31
0.0
  0
SPLINE
  5
2ab
100
AcDbEntity
  8
0
100
AcDbSpline
210
0.0
220
0.0
230
1.0
 62
     7
 70
     0
 71
     3
 72
     8
 73
4
 40
0.0
 40
0.0
 40
0.0
 40
0.0
 40
1.0
 40
1.0
 40
1.0
 40
1.0
 10
322.785
 20
162.804
 30
0.0
 10
323.76
 20
162.008
 30
0.0
 10
324.551
 20
160.715
 30
0.0
 10
324.551
 20
159.917
 30
0.0
  0
LINE
  5
2ac
100
AcDbEntity
  8
0
100
AcDbLine
 62
     7
 10
324.551
 20
159.917
 30
0.0
 11
324.551
 21
115.172
 31
0.0
  0
SPLINE
  5
2ad
100
AcDbEntity
  8
0
100
AcDbSpline
210
0.0
220
0.0
230
1.0
 62
     7
 70
     0
 71
     3
 72
     8
 73
4
 40
0.0
 40
0.0
 40
0.0
 40
0.0
 40
1.0
 40
1.0
 40
1.0
 40
1.0
 10
324.551
 20
115.172
 30
0.0
 10
324.551
 20
114.949
 30
0.0
 10
324.488
 20
114.779
 30
0.0
 10
324.365
 20
114.68
 30
0.0
  0
LINE
  5
2ae
100
AcDbEntity
  8
0
100
AcDbLine
 62
     7
 10
324.365
 20
114.68
 30
0.0
 11
320.83
 21
111.794
 31
0.0
  0
SPLINE
  5
2af
100
AcDbEntity
  8
0
100
AcDbSpline
210
0.0
220
0.0
230
1.0
 62
     7
 70
     0
 71
     3
 72
     8
 73
4
 40
0.0
 40
0.0
 40
0.0
 40
0.0
 40
1.0
 40
1.0
 40
1.0
 40
1.0
 10
320.83
 20
111.794
 30
0.0
 10
320.53
 20
111.548
 30
0.0
 10
319.918
 20
111.74
 30
0.0
 10
319.249
 20
112.287
 30
0.0
  0
LINE
  5
2b0
100
AcDbEntity
  8
0
100
AcDbLine
 62
     7
 10
319.249
 20
112.287
 30
0.0
 11
289.197
 21
136.824
 31
0.0
  0
LINE
  5
2b1
100
AcDbEntity
  8
0
100
AcDbLine
 62
     7
 10
289.197
 20
136.824
 30
0.0
 11
289.197
 21
184.454
 31
0.0
  0
LINE
  5
2b2
100
AcDbEntity
  8
0
100
AcDbLine
 62
     7
 10
289.197
 20
184.454
 30
0.0
 11
227.325
 21
133.937
 31
0.0
  0
SPLINE
  5
2b3
100
AcDbEntity
  8
0
100
AcDbSpline
210
0.0
220
0.0
230
1.0
 62
     7
 70
     0
 71
     3
 72
     8
 73
4
 40
0.0
 40
0.0
 40
0.0
 40
0.0
 40
1.0
 40
1.0
 40
1.0
 40
1.0
 10
227.325
 20
133.937
 30
0.0
 10
226.348
 20
133.139
 30
0.0
 10
225.557
 20
131.846
 30
0.0
 10
225.557
 20
131.05
 30
0.0
  0
LINE
  5
2b4
100
AcDbEntity
  8
0
100
AcDbLine
 62
     7
 10
225.557
 20
131.05
 30
0.0
 11
225.557
 21
86.3053
 31
0.0
  0
SPLINE
  5
2b5
100
AcDbEntity
  8
0
100
AcDbSpline
210
0.0
220
0.0
230
1.0
 62
     7
 70
     0
 71
     3
 72
     8
 73
4
 40
0.0
 40
0.0
 40
0.0
 40
0.0
 40
1.0
 40
1.0
 40
1.0
 40
1.0
 10
225.557
 20
86.3053
 30
0.0
 10
225.557
 20
86.082
 30
0.0
 10
225.621
 20
85.9123
 30
0.0
 10
225.743
 20
85.8118
 30
0.0
  0
LINE
  5
2b6
100
AcDbEntity
  8
0
100
AcDbLine
 62
     7
 10
225.743
 20
85.8118
 30
0.0
 11
222.209
 21
88.6989
 31
0.0
  0
SPLINE
  5
2b7
100
AcDbEntity
  8
0
100
AcDbSpline
210
0.0
220
0.0
230
1.0
 62
     7
 70
     0
 71
     3
 72
     8
 73
4
 40
0.0
 40
0.0
 40
0.0
 40
0.0
 40
1.0
 40
1.0
 40
1.0
 40
1.0
 10
222.209
 20
88.6989
 30
0.0
 10
222.086
 20
88.7995
 30
0.0
 10
222.021
 20
88.9674
 30
0.0
 10
222.021
 20
89.1921
 30
0.0
  0
LINE
  5
2b8
100
AcDbEntity
  8
0
100
AcDbLine
 62
     7
 10
222.021
 20
89.1921
 30
0.0
 11
222.021
 21
133.937
 31
0.0
  0
SPLINE
  5
2b9
100
AcDbEntity
  8
0
100
AcDbSpline
210
0.0
220
0.0
230
1.0
 62
     7
 70
     0
 71
     3
 72
     8
 73
4
 40
0.0
 40
0.0
 40
0.0
 40
0.0
 40
1.0
 40
1.0
 40
1.0
 40
1.0
 10
222.021
 20
133.937
 30
0.0
 10
222.021
 20
134.734
 30
0.0
 10
222.814
 20
136.026
 30
0.0
 10
223.789
 20
136.824
 30
0.0
  0
LINE
  5
2ba
100
AcDbEntity
  8
0
100
AcDbLine
 62
     7
 10
223.789
 20
136.824
 30
0.0
 11
289.197
 21
190.228
 31
0.0
  0
LINE
  5
2bb
100
AcDbEntity
  8
0
100
AcDbLine
 62
     7
 10
289.197
 20
190.228
 30
0.0
 11
296.267
 21
184.454
 31
0.0
  0
LINE
  5
2bc
100
AcDbEntity
  8
0
100
AcDbLine
 62
     7
 10
296.267
 20
184.454
 30
0.0
 11
289.197
 21
190.228
 31
0.0
  0
LINE
  5
2bd
100
AcDbEntity
  8
0
100
AcDbLine
 62
     7
 10
289.197
 20
190.228
 30
0.0
 11
223.789
 21
136.824
 31
0.0
  0
SPLINE
  5
2be
100
AcDbEntity
  8
0
100
AcDbSpline
210
0.0
220
0.0
230
1.0
 62
     7
 70
     0
 71
     3
 72
     8
 73
4
 40
0.0
 40
0.0
 40
0.0
 40
0.0
 40
1.0
 40
1.0
 40
1.0
 40
1.0
 10
223.789
 20
136.824
 30
0.0
 10
222.814
 20
136.026
 30
0.0
 10
222.021
 20
134.734
 30
0.0
 10
222.021
 20
133.937
 30
0.0
  0
LINE
  5
2bf
100
AcDbEntity
  8
0
100
AcDbLine
 62
     7
 10
222.021
 20
133.937
 30
0.0
 11
222.021
 21
89.1921
 31
0.0
  0
SPLINE
  5
2c0
100
AcDbEntity
  8
0
100
AcDbSpline
210
0.0
220
0.0
230
1.0
 62
     7
 70
     0
 71
     3
 72
     8
 73
4
 40
0.0
 40
0.0
 40
0.0
 40
0.0
 40
1.0
 40
1.0
 40
1.0
 40
1.0
 10
222.021
 20
89.1921
 30
0.0
 10
222.021
 20
88.9674
 30
0.0
 10
222.086
 20
88.7995
 30
0.0
 10
222.209
 20
88.6989
 30
0.0
  0
LINE
  5
2c1
100
AcDbEntity
  8
0
100
AcDbLine
 62
     7
 10
222.209
 20
88.6989
 30
0.0
 11
225.743
 21
85.8118
 31
0.0
  0
SPLINE
  5
2c2
100
AcDbEntity
  8
0
100
AcDbSpline
210
0.0
220
0.0
230
1.0
 62
     7
 70
     0
 71
     3
 72
     8
 73
4
 40
0.0
 40
0.0
 40
0.0
 40
0.0
 40
1.0
 40
1.0
 40
1.0
 40
1.0
 10
225.743
 20
85.8118
 30
0.0
 10
226.044
 20
85.568
 30
0.0
 10
226.655
 20
85.7582
 30
0.0
 10
227.325
 20
86.3053
 30
0.0
  0
LINE
  5
2c3
100
AcDbEntity
  8
0
100
AcDbLine
 62
     7
 10
227.325
 20
86.3053
 30
0.0
 11
289.197
 21
136.824
 31
0.0
  0
LINE
  5
2c4
100
AcDbEntity
  8
0
100
AcDbLine
 62
     7
 10
289.197
 20
136.824
 30
0.0
 11
289.197
 21
184.454
 31
0.0
  0
LINE
  5
2c5
100
AcDbEntity
  8
0
100
AcDbLine
 62
     7
 10
289.197
 20
184.454
 30
0.0
 11
319.249
 21
159.917
 31
0.0
  0
SPLINE
  5
2c6
100
AcDbEntity
  8
0
100
AcDbSpline
210
0.0
220
0.0
230
1.0
 62
     7
 70
     0
 71
     3
 72
     8
 73
4
 40
0.0
 40
0.0
 40
0.0
 40
0.0
 40
1.0
 40
1.0
 40
1.0
 40
1.0
 10
319.249
 20
159.917
 30
0.0
 10
320.226
 20
159.121
 30
0.0
 10
321.017
 20
157.828
 30
0.0
 10
321.017
 20
157.03
 30
0.0
  0
LINE
  5
2c7
100
AcDbEntity
  8
0
100
AcDbLine
 62
     7
 10
321.017
 20
157.03
 30
0.0
 11
321.017
 21
112.287
 31
0.0
  0
SPLINE
  5
2c8
100
AcDbEntity
  8
0
100
AcDbSpline
210
0.0
220
0.0
230
1.0
 62
     7
 70
     0
 71
     3
 72
     8
 73
4
 40
0.0
 40
0.0
 40
0.0
 40
0.0
 40
1.0
 40
1.0
 40
1.0
 40
1.0
 10
321.017
 20
112.287
 30
0.0
 10
321.017
 20
112.062
 30
0.0
 10
320.953
 20
111.893
 30
0.0
 10
320.83
 20
111.794
 30
0.0
  0
LINE
  5
2c9
100
AcDbEntity
  8
0
100
AcDbLine
 62
     7
 10
320.83
 20
111.794
 30
0.0
 11
324.365
 21
114.68
 31
0.0
  0
SPLINE
  5
2ca
100
AcDbEntity
  8
0
100
AcDbSpline
210
0.0
220
0.0
230
1.0
 62
     7
 70
     0
 71
     3
 72
     8
 73
4
 40
0.0
 40
0.0
 40
0.0
 40
0.0
 40
1.0
 40
1.0
 40
1.0
 40
1.0
 10
324.365
 20
114.68
 30
0.0
 10
324.488
 20
114.779
 30
0.0
 10
324.551
 20
114.949
 30
0.0
 10
324.551
 20
115.172
 30
0.0
  0
LINE
  5
2cb
100
AcDbEntity
  8
0
100
AcDbLine
 62
     7
 10
324.551
 20
115.172
 30
0.0
 11
324.551
 21
151.258
 31
0.0
  0
LINE
  5
2cc
100
AcDbEntity
  8
0
100
AcDbLine
 62
     7
 10
324.551
 20
151.258
 30
0.0
 11
328.088
 21
148.371
 31
0.0
  0
LINE
  5
2cd
100
AcDbEntity
  8
0
100
AcDbLine
 62
     7
 10
328.088
 20
170.021
 30
0.0
 11
328.088
 21
148.371
 31
0.0
  0
LINE
  5
2ce
100
AcDbEntity
  8
0
100
AcDbLine
 62
     7
 10
328.088
 20
148.371
 30
0.0
 11
324.551
 21
151.258
 31
0.0
  0
LINE
  5
2cf
100
AcDbEntity
  8
0
100
AcDbLine
 62
     7
 10
324.551
 20
151.258
 30
0.0
 11
324.551
 21
159.917
 31
0.0
  0
SPLINE
  5
2d0
100
AcDbEntity
  8
0
100
AcDbSpline
210
0.0
220
0.0
230
1.0
 62
     7
 70
     0
 71
     3
 72
     8
 73
4
 40
0.0
 40
0.0
 40
0.0
 40
0.0
 40
1.0
 40
1.0
 40
1.0
 40
1.0
 10
324.551
 20
159.917
 30
0.0
 10
324.551
 20
160.715
 30
0.0
 10
323.76
 20
162.008
 30
0.0
 10
322.785
 20
162.804
 30
0.0
  0
LINE
  5
2d1
100
AcDbEntity
  8
0
100
AcDbLine
 62
     7
 10
322.785
 20
162.804
 30
0.0
 11
322.785
 21
167.134
 31
0.0
  0
SPLINE
  5
2d2
100
AcDbEntity
  8
0
100
AcDbSpline
210
0.0
220
0.0
230
1.0
 62
     7
 70
     0
 71
     3
 72
     8
 73
4
 40
0.0
 40
0.0
 40
0.0
 40
0.0
 40
1.0
 40
1.0
 40
1.0
 40
1.0
 10
322.785
 20
167.134
 30
0.0
 10
322.785
 20
167.804
 30
0.0
 10
322.221
 20
168.845
 30
0.0
 10
321.423
 20
169.65
 30
0.0
  0
SPLINE
  5
2d3
100
AcDbEntity
  8
0
100
AcDbSpline
210
0.0
220
0.0
230
1.0
 62
     7
 70
     0
 71
     3
 72
     8
 73
4
 40
0.0
 40
0.0
 40
0.0
 40
0.0
 40
1.0
 40
1.0
 40
1.0
 40
1.0
 10
321.423
 20
169.65
 30
0.0
 10
320.625
 20
170.457
 30
0.0
 10
319.803
 20
170.813
 30
0.0
 10
319.435
 20
170.514
 30
0.0
  0
SPLINE
  5
2d4
100
AcDbEntity
  8
0
100
AcDbSpline
210
0.0
220
0.0
230
1.0
 62
     7
 70
     0
 71
     3
 72
     8
 73
4
 40
0.0
 40
0.0
 40
0.0
 40
0.0
 40
1.0
 40
1.0
 40
1.0
 40
1.0
 10
319.435
 20
170.514
 30
0.0
 10
319.312
 20
170.414
 30
0.0
 10
319.249
 20
170.246
 30
0.0
 10
319.249
 20
170.021
 30
0.0
  0
LINE
  5
2d5
100
AcDbEntity
  8
0
100
AcDbLine
 62
     7
 10
319.249
 20
170.021
 30
0.0
 11
319.249
 21
165.691
 31
0.0
  0
LINE
  5
2d6
100
AcDbEntity
  8
0
100
AcDbLine
 62
     7
 10
319.249
 20
165.691
 30
0.0
 11
305.107
 21
177.238
 31
0.0
  0
LINE
  5
2d7
100
AcDbEntity
  8
0
100
AcDbLine
 62
     7
 10
305.107
 20
177.238
 30
0.0
 11
305.107
 21
181.569
 31
0.0
  0
SPLINE
  5
2d8
100
AcDbEntity
  8
0
100
AcDbSpline
210
0.0
220
0.0
230
1.0
 62
     7
 70
     0
 71
     3
 72
     8
 73
4
 40
0.0
 40
0.0
 40
0.0
 40
0.0
 40
1.0
 40
1.0
 40
1.0
 40
1.0
 10
305.107
 20
181.569
 30
0.0
 10
305.107
 20
182.237
 30
0.0
 10
304.544
 20
183.279
 30
0.0
 10
303.744
 20
184.085
 30
0.0
  0
SPLINE
  5
2d9
100
AcDbEntity
  8
0
100
AcDbSpline
210
0.0
220
0.0
230
1.0
 62
     7
 70
     0
 71
     3
 72
     8
 73
4
 40
0.0
 40
0.0
 40
0.0
 40
0.0
 40
1.0
 40
1.0
 40
1.0
 40
1.0
 10
303.744
 20
184.085
 30
0.0
 10
302.946
 20
184.89
 30
0.0
 10
302.124
 20
185.247
 30
0.0
 10
301.757
 20
184.948
 30
0.0
  0
SPLINE
  5
2da
100
AcDbEntity
  8
0
100
AcDbSpline
210
0.0
220
0.0
230
1.0
 62
     7
 70
     0
 71
     3
 72
     8
 73
4
 40
0.0
 40
0.0
 40
0.0
 40
0.0
 40
1.0
 40
1.0
 40
1.0
 40
1.0
 10
301.757
 20
184.948
 30
0.0
 10
301.635
 20
184.847
 30
0.0
 10
301.571
 20
184.679
 30
0.0
 10
301.571
 20
184.454
 30
0.0
  0
LINE
  5
2db
100
AcDbEntity
  8
0
100
AcDbLine
 62
     7
 10
301.571
 20
184.454
 30
0.0
 11
301.571
 21
180.125
 31
0.0
  0
LINE
  5
2dc
100
AcDbEntity
  8
0
100
AcDbLine
 62
     7
 10
301.571
 20
180.125
 30
0.0
 11
296.267
 21
184.454
 31
0.0
  0
LINE
  5
2dd
100
AcDbEntity
  8
0
100
AcDbLine
 62
     7
 10
296.267
 20
184.454
 30
0.0
 11
296.267
 21
196.003
 31
0.0
  0
LINE
  5
2de
100
AcDbEntity
  8
0
100
AcDbLine
 62
     7
 10
296.267
 20
196.003
 30
0.0
 11
328.088
 21
170.021
 31
0.0
  0
LINE
  5
2df
100
AcDbEntity
  8
0
100
AcDbLine
 62
     7
 10
331.623
 20
172.908
 30
0.0
 11
330.739
 21
173.63
 31
0.0
  0
LINE
  5
2e0
100
AcDbEntity
  8
0
100
AcDbLine
 62
     7
 10
330.739
 20
173.63
 30
0.0
 11
319.249
 21
183.012
 31
0.0
  0
LINE
  5
2e1
100
AcDbEntity
  8
0
100
AcDbLine
 62
     7
 10
319.249
 20
183.012
 30
0.0
 11
312.178
 21
188.786
 31
0.0
  0
LINE
  5
2e2
100
AcDbEntity
  8
0
100
AcDbLine
 62
     7
 10
312.178
 20
188.786
 30
0.0
 11
311.293
 21
189.507
 31
0.0
  0
LINE
  5
2e3
100
AcDbEntity
  8
0
100
AcDbLine
 62
     7
 10
311.293
 20
189.507
 30
0.0
 11
299.803
 21
198.888
 31
0.0
  0
LINE
  5
2e4
100
AcDbEntity
  8
0
100
AcDbLine
 62
     7
 10
299.803
 20
198.888
 30
0.0
 11
296.267
 21
196.003
 31
0.0
  0
LINE
  5
2e5
100
AcDbEntity
  8
0
100
AcDbLine
 62
     7
 10
296.267
 20
196.003
 30
0.0
 11
328.088
 21
170.021
 31
0.0
  0
LINE
  5
2e6
100
AcDbEntity
  8
0
100
AcDbLine
 62
     7
 10
328.088
 20
170.021
 30
0.0
 11
331.623
 21
172.908
 31
0.0
  0
LINE
  5
2e7
100
AcDbEntity
  8
0
100
AcDbLine
 62
     7
 10
345.765
 20
165.691
 30
0.0
 11
333.392
 21
175.795
 31
0.0
  0
LINE
  5
2e8
100
AcDbEntity
  8
0
100
AcDbLine
 62
     7
 10
333.392
 20
175.795
 30
0.0
 11
330.739
 21
173.63
 31
0.0
  0
LINE
  5
2e9
100
AcDbEntity
  8
0
100
AcDbLine
 62
     7
 10
330.739
 20
173.63
 30
0.0
 11
331.623
 21
172.908
 31
0.0
  0
LINE
  5
2ea
100
AcDbEntity
  8
0
100
AcDbLine
 62
     7
 10
331.623
 20
172.908
 30
0.0
 11
331.623
 21
154.144
 31
0.0
  0
LINE
  5
2eb
100
AcDbEntity
  8
0
100
AcDbLine
 62
     7
 10
331.623
 20
154.144
 30
0.0
 11
345.765
 21
165.691
 31
0.0
  0
LINE
  5
2ec
100
AcDbEntity
  8
0
100
AcDbLine
 62
     7
 10
345.765
 20
162.804
 30
0.0
 11
345.765
 21
165.691
 31
0.0
  0
LINE
  5
2ed
100
AcDbEntity
  8
0
100
AcDbLine
 62
     7
 10
345.765
 20
165.691
 30
0.0
 11
331.623
 21
154.144
 31
0.0
  0
LINE
  5
2ee
100
AcDbEntity
  8
0
100
AcDbLine
 62
     7
 10
331.623
 20
154.144
 30
0.0
 11
331.623
 21
172.908
 31
0.0
  0
LINE
  5
2ef
100
AcDbEntity
  8
0
100
AcDbLine
 62
     7
 10
331.623
 20
172.908
 30
0.0
 11
328.088
 21
170.021
 31
0.0
  0
LINE
  5
2f0
100
AcDbEntity
  8
0
100
AcDbLine
 62
     7
 10
328.088
 20
170.021
 30
0.0
 11
328.088
 21
148.371
 31
0.0
  0
LINE
  5
2f1
100
AcDbEntity
  8
0
100
AcDbLine
 62
     7
 10
328.088
 20
148.371
 30
0.0
 11
345.765
 21
162.804
 31
0.0
  0
LINE
  5
2f2
100
AcDbEntity
  8
0
100
AcDbLine
 62
     7
 10
330.739
 20
173.63
 30
0.0
 11
333.392
 21
175.795
 31
0.0
  0
LINE
  5
2f3
100
AcDbEntity
  8
0
100
AcDbLine
 62
     7
 10
333.392
 20
175.795
 30
0.0
 11
333.392
 21
178.682
 31
0.0
  0
LINE
  5
2f4
100
AcDbEntity
  8
0
100
AcDbLine
 62
     7
 10
333.392
 20
178.682
 30
0.0
 11
322.785
 21
185.899
 31
0.0
  0
LINE
  5
2f5
100
AcDbEntity
  8
0
100
AcDbLine
 62
     7
 10
322.785
 20
185.899
 30
0.0
 11
319.249
 21
183.012
 31
0.0
  0
LINE
  5
2f6
100
AcDbEntity
  8
0
100
AcDbLine
 62
     7
 10
319.249
 20
183.012
 30
0.0
 11
330.739
 21
173.63
 31
0.0
  0
LINE
  5
2f7
100
AcDbEntity
  8
0
100
AcDbLine
 62
     7
 10
322.785
 20
185.899
 30
0.0
 11
319.249
 21
183.012
 31
0.0
  0
LINE
  5
2f8
100
AcDbEntity
  8
0
100
AcDbLine
 62
     7
 10
319.249
 20
183.012
 30
0.0
 11
312.178
 21
188.786
 31
0.0
  0
LINE
  5
2f9
100
AcDbEntity
  8
0
100
AcDbLine
 62
     7
 10
312.178
 20
188.786
 30
0.0
 11
314.829
 21
190.95
 31
0.0
  0
LINE
  5
2fa
100
AcDbEntity
  8
0
100
AcDbLine
 62
     7
 10
314.829
 20
190.95
 30
0.0
 11
315.713
 21
191.671
 31
0.0
  0
LINE
  5
2fb
100
AcDbEntity
  8
0
100
AcDbLine
 62
     7
 10
315.713
 20
191.671
 30
0.0
 11
322.785
 21
185.899
 31
0.0
  0
SPLINE
  5
2fc
100
AcDbEntity
  8
0
100
AcDbSpline
210
0.0
220
0.0
230
1.0
 62
     7
 70
     0
 71
     3
 72
     8
 73
4
 40
0.0
 40
0.0
 40
0.0
 40
0.0
 40
1.0
 40
1.0
 40
1.0
 40
1.0
 10
233.513
 20
131.772
 30
0.0
 10
232.843
 20
131.225
 30
0.0
 10
232.23
 20
131.034
 30
0.0
 10
231.931
 20
131.279
 30
0.0
  0
SPLINE
  5
2fd
100
AcDbEntity
  8
0
100
AcDbSpline
210
0.0
220
0.0
230
1.0
 62
     7
 70
     0
 71
     3
 72
     8
 73
4
 40
0.0
 40
0.0
 40
0.0
 40
0.0
 40
1.0
 40
1.0
 40
1.0
 40
1.0
 10
231.931
 20
131.279
 30
0.0
 10
231.656
 20
131.502
 30
0.0
 10
231.687
 20
132.057
 30
0.0
 10
232.008
 20
132.746
 30
0.0
  0
SPLINE
  5
2fe
100
AcDbEntity
  8
0
100
AcDbSpline
210
0.0
220
0.0
230
1.0
 62
     7
 70
     0
 71
     3
 72
     8
 73
4
 40
0.0
 40
0.0
 40
0.0
 40
0.0
 40
1.0
 40
1.0
 40
1.0
 40
1.0
 10
232.008
 20
132.746
 30
0.0
 10
232.33
 20
133.434
 30
0.0
 10
232.9
 20
134.159
 30
0.0
 10
233.513
 20
134.659
 30
0.0
  0
LINE
  5
2ff
100
AcDbEntity
  8
0
100
AcDbLine
 62
     7
 10
233.513
 20
134.659
 30
0.0
 11
238.815
 21
138.989
 31
0.0
  0
SPLINE
  5
300
100
AcDbEntity
  8
0
100
AcDbSpline
210
0.0
220
0.0
230
1.0
 62
     7
 70
     0
 71
     3
 72
     8
 73
4
 40
0.0
 40
0.0
 40
0.0
 40
0.0
 40
1.0
 40
1.0
 40
1.0
 40
1.0
 10
238.815
 20
138.989
 30
0.0
 10
239.485
 20
139.536
 30
0.0
 10
240.097
 20
139.726
 30
0.0
 10
240.396
 20
139.482
 30
0.0
  0
SPLINE
  5
301
100
AcDbEntity
  8
0
100
AcDbSpline
210
0.0
220
0.0
230
1.0
 62
     7
 70
     0
 71
     3
 72
     8
 73
4
 40
0.0
 40
0.0
 40
0.0
 40
0.0
 40
1.0
 40
1.0
 40
1.0
 40
1.0
 10
240.396
 20
139.482
 30
0.0
 10
240.67
 20
139.258
 30
0.0
 10
240.641
 20
138.702
 30
0.0
 10
240.319
 20
138.015
 30
0.0
  0
SPLINE
  5
302
100
AcDbEntity
  8
0
100
AcDbSpline
210
0.0
220
0.0
230
1.0
 62
     7
 70
     0
 71
     3
 72
     8
 73
4
 40
0.0
 40
0.0
 40
0.0
 40
0.0
 40
1.0
 40
1.0
 40
1.0
 40
1.0
 10
240.319
 20
138.015
 30
0.0
 10
239.998
 20
137.326
 30
0.0
 10
239.429
 20
136.602
 30
0.0
 10
238.815
 20
136.102
 30
0.0
  0
LINE
  5
303
100
AcDbEntity
  8
0
100
AcDbLine
 62
     7
 10
238.815
 20
136.102
 30
0.0
 11
233.513
 21
131.772
 31
0.0
  0
SPLINE
  5
304
100
AcDbEntity
  8
0
100
AcDbSpline
210
0.0
220
0.0
230
1.0
 62
     7
 70
     0
 71
     3
 72
     8
 73
4
 40
0.0
 40
0.0
 40
0.0
 40
0.0
 40
1.0
 40
1.0
 40
1.0
 40
1.0
 10
260.029
 20
117.338
 30
0.0
 10
259.359
 20
116.792
 30
0.0
 10
258.747
 20
116.6
 30
0.0
 10
258.447
 20
116.845
 30
0.0
  0
SPLINE
  5
305
100
AcDbEntity
  8
0
100
AcDbSpline
210
0.0
220
0.0
230
1.0
 62
     7
 70
     0
 71
     3
 72
     8
 73
4
 40
0.0
 40
0.0
 40
0.0
 40
0.0
 40
1.0
 40
1.0
 40
1.0
 40
1.0
 10
258.447
 20
116.845
 30
0.0
 10
258.174
 20
117.069
 30
0.0
 10
258.203
 20
117.624
 30
0.0
 10
258.525
 20
118.313
 30
0.0
  0
SPLINE
  5
306
100
AcDbEntity
  8
0
100
AcDbSpline
210
0.0
220
0.0
230
1.0
 62
     7
 70
     0
 71
     3
 72
     8
 73
4
 40
0.0
 40
0.0
 40
0.0
 40
0.0
 40
1.0
 40
1.0
 40
1.0
 40
1.0
 10
258.525
 20
118.313
 30
0.0
 10
258.846
 20
119
 30
0.0
 10
259.416
 20
119.724
 30
0.0
 10
260.029
 20
120.224
 30
0.0
  0
LINE
  5
307
100
AcDbEntity
  8
0
100
AcDbLine
 62
     7
 10
260.029
 20
120.224
 30
0.0
 11
265.332
 21
124.555
 31
0.0
  0
SPLINE
  5
308
100
AcDbEntity
  8
0
100
AcDbSpline
210
0.0
220
0.0
230
1.0
 62
     7
 70
     0
 71
     3
 72
     8
 73
4
 40
0.0
 40
0.0
 40
0.0
 40
0.0
 40
1.0
 40
1.0
 40
1.0
 40
1.0
 10
265.332
 20
124.555
 30
0.0
 10
266.002
 20
125.101
 30
0.0
 10
266.613
 20
125.293
 30
0.0
 10
266.913
 20
125.047
 30
0.0
  0
SPLINE
  5
309
100
AcDbEntity
  8
0
100
AcDbSpline
210
0.0
220
0.0
230
1.0
 62
     7
 70
     0
 71
     3
 72
     8
 73
4
 40
0.0
 40
0.0
 40
0.0
 40
0.0
 40
1.0
 40
1.0
 40
1.0
 40
1.0
 10
266.913
 20
125.047
 30
0.0
 10
267.186
 20
124.824
 30
0.0
 10
267.158
 20
124.269
 30
0.0
 10
266.835
 20
123.581
 30
0.0
  0
SPLINE
  5
30a
100
AcDbEntity
  8
0
100
AcDbSpline
210
0.0
220
0.0
230
1.0
 62
     7
 70
     0
 71
     3
 72
     8
 73
4
 40
0.0
 40
0.0
 40
0.0
 40
0.0
 40
1.0
 40
1.0
 40
1.0
 40
1.0
 10
266.835
 20
123.581
 30
0.0
 10
266.514
 20
122.892
 30
0.0
 10
265.945
 20
122.169
 30
0.0
 10
265.332
 20
121.668
 30
0.0
  0
LINE
  5
30b
100
AcDbEntity
  8
0
100
AcDbLine
 62
     7
 10
265.332
 20
121.668
 30
0.0
 11
260.029
 21
117.338
 31
0.0
  0
SPLINE
  5
30c
100
AcDbEntity
  8
0
100
AcDbSpline
210
0.0
220
0.0
230
1.0
 62
     7
 70
     0
 71
     3
 72
     8
 73
4
 40
0.0
 40
0.0
 40
0.0
 40
0.0
 40
1.0
 40
1.0
 40
1.0
 40
1.0
 10
260.029
 20
153.422
 30
0.0
 10
259.359
 20
152.876
 30
0.0
 10
258.747
 20
152.685
 30
0.0
 10
258.447
 20
152.929
 30
0.0
  0
SPLINE
  5
30d
100
AcDbEntity
  8
0
100
AcDbSpline
210
0.0
220
0.0
230
1.0
 62
     7
 70
     0
 71
     3
 72
     8
 73
4
 40
0.0
 40
0.0
 40
0.0
 40
0.0
 40
1.0
 40
1.0
 40
1.0
 40
1.0
 10
258.447
 20
152.929
 30
0.0
 10
258.174
 20
153.152
 30
0.0
 10
258.203
 20
153.708
 30
0.0
 10
258.525
 20
154.397
 30
0.0
  0
SPLINE
  5
30e
100
AcDbEntity
  8
0
100
AcDbSpline
210
0.0
220
0.0
230
1.0
 62
     7
 70
     0
 71
     3
 72
     8
 73
4
 40
0.0
 40
0.0
 40
0.0
 40
0.0
 40
1.0
 40
1.0
 40
1.0
 40
1.0
 10
258.525
 20
154.397
 30
0.0
 10
258.846
 20
155.086
 30
0.0
 10
259.416
 20
155.809
 30
0.0
 10
260.029
 20
156.309
 30
0.0
  0
LINE
  5
30f
100
AcDbEntity
  8
0
100
AcDbLine
 62
     7
 10
260.029
 20
156.309
 30
0.0
 11
265.332
 21
160.639
 31
0.0
  0
SPLINE
  5
310
100
AcDbEntity
  8
0
100
AcDbSpline
210
0.0
220
0.0
230
1.0
 62
     7
 70
     0
 71
     3
 72
     8
 73
4
 40
0.0
 40
0.0
 40
0.0
 40
0.0
 40
1.0
 40
1.0
 40
1.0
 40
1.0
 10
265.332
 20
160.639
 30
0.0
 10
266.002
 20
161.186
 30
0.0
 10
266.613
 20
161.376
 30
0.0
 10
266.913
 20
161.133
 30
0.0
  0
SPLINE
  5
311
100
AcDbEntity
  8
0
100
AcDbSpline
210
0.0
220
0.0
230
1.0
 62
     7
 70
     0
 71
     3
 72
     8
 73
4
 40
0.0
 40
0.0
 40
0.0
 40
0.0
 40
1.0
 40
1.0
 40
1.0
 40
1.0
 10
266.913
 20
161.133
 30
0.0
 10
267.186
 20
160.908
 30
0.0
 10
267.158
 20
160.353
 30
0.0
 10
266.835
 20
159.665
 30
0.0
  0
SPLINE
  5
312
100
AcDbEntity
  8
0
100
AcDbSpline
210
0.0
220
0.0
230
1.0
 62
     7
 70
     0
 71
     3
 72
     8
 73
4
 40
0.0
 40
0.0
 40
0.0
 40
0.0
 40
1.0
 40
1.0
 40
1.0
 40
1.0
 10
266.835
 20
159.665
 30
0.0
 10
266.514
 20
158.976
 30
0.0
 10
265.945
 20
158.253
 30
0.0
 10
265.332
 20
157.752
 30
0.0
  0
LINE
  5
313
100
AcDbEntity
  8
0
100
AcDbLine
 62
     7
 10
265.332
 20
157.752
 30
0.0
 11
260.029
 21
153.422
 31
0.0
  0
SPLINE
  5
314
100
AcDbEntity
  8
0
100
AcDbSpline
210
0.0
220
0.0
230
1.0
 62
     7
 70
     0
 71
     3
 72
     8
 73
4
 40
0.0
 40
0.0
 40
0.0
 40
0.0
 40
1.0
 40
1.0
 40
1.0
 40
1.0
 10
233.513
 20
95.6867
 30
0.0
 10
232.843
 20
95.141
 30
0.0
 10
232.23
 20
94.9494
 30
0.0
 10
231.931
 20
95.195
 30
0.0
  0
SPLINE
  5
315
100
AcDbEntity
  8
0
100
AcDbSpline
210
0.0
220
0.0
230
1.0
 62
     7
 70
     0
 71
     3
 72
     8
 73
4
 40
0.0
 40
0.0
 40
0.0
 40
0.0
 40
1.0
 40
1.0
 40
1.0
 40
1.0
 10
231.931
 20
95.195
 30
0.0
 10
231.656
 20
95.4183
 30
0.0
 10
231.687
 20
95.9735
 30
0.0
 10
232.008
 20
96.6611
 30
0.0
  0
SPLINE
  5
316
100
AcDbEntity
  8
0
100
AcDbSpline
210
0.0
220
0.0
230
1.0
 62
     7
 70
     0
 71
     3
 72
     8
 73
4
 40
0.0
 40
0.0
 40
0.0
 40
0.0
 40
1.0
 40
1.0
 40
1.0
 40
1.0
 10
232.008
 20
96.6611
 30
0.0
 10
232.33
 20
97.3501
 30
0.0
 10
232.9
 20
98.0736
 30
0.0
 10
233.513
 20
98.5739
 30
0.0
  0
LINE
  5
317
100
AcDbEntity
  8
0
100
AcDbLine
 62
     7
 10
233.513
 20
98.5739
 30
0.0
 11
238.815
 21
102.904
 31
0.0
  0
SPLINE
  5
318
100
AcDbEntity
  8
0
100
AcDbSpline
210
0.0
220
0.0
230
1.0
 62
     7
 70
     0
 71
     3
 72
     8
 73
4
 40
0.0
 40
0.0
 40
0.0
 40
0.0
 40
1.0
 40
1.0
 40
1.0
 40
1.0
 10
238.815
 20
102.904
 30
0.0
 10
239.485
 20
103.451
 30
0.0
 10
240.097
 20
103.642
 30
0.0
 10
240.396
 20
103.397
 30
0.0
  0
SPLINE
  5
319
100
AcDbEntity
  8
0
100
AcDbSpline
210
0.0
220
0.0
230
1.0
 62
     7
 70
     0
 71
     3
 72
     8
 73
4
 40
0.0
 40
0.0
 40
0.0
 40
0.0
 40
1.0
 40
1.0
 40
1.0
 40
1.0
 10
240.396
 20
103.397
 30
0.0
 10
240.67
 20
103.174
 30
0.0
 10
240.641
 20
102.618
 30
0.0
 10
240.319
 20
101.929
 30
0.0
  0
SPLINE
  5
31a
100
AcDbEntity
  8
0
100
AcDbSpline
210
0.0
220
0.0
230
1.0
 62
     7
 70
     0
 71
     3
 72
     8
 73
4
 40
0.0
 40
0.0
 40
0.0
 40
0.0
 40
1.0
 40
1.0
 40
1.0
 40
1.0
 10
240.319
 20
101.929
 30
0.0
 10
239.998
 20
101.242
 30
0.0
 10
239.429
 20
100.518
 30
0.0
 10
238.815
 20
100.018
 30
0.0
  0
LINE
  5
31b
100
AcDbEntity
  8
0
100
AcDbLine
 62
     7
 10
238.815
 20
100.018
 30
0.0
 11
233.513
 21
95.6867
 31
0.0
  0
LINE
  5
31c
100
AcDbEntity
  8
0
100
AcDbLine
 62
     7
 10
319.249
 20
170.021
 30
0.0
 11
319.249
 21
165.691
 31
0.0
  0
LINE
  5
31d
100
AcDbEntity
  8
0
100
AcDbLine
 62
     7
 10
319.249
 20
165.691
 30
0.0
 11
322.785
 21
162.804
 31
0.0
  0
LINE
  5
31e
100
AcDbEntity
  8
0
100
AcDbLine
 62
     7
 10
322.785
 20
162.804
 30
0.0
 11
322.785
 21
167.134
 31
0.0
  0
SPLINE
  5
31f
100
AcDbEntity
  8
0
100
AcDbSpline
210
0.0
220
0.0
230
1.0
 62
     7
 70
     0
 71
     3
 72
     8
 73
4
 40
0.0
 40
0.0
 40
0.0
 40
0.0
 40
1.0
 40
1.0
 40
1.0
 40
1.0
 10
322.785
 20
167.134
 30
0.0
 10
322.785
 20
167.804
 30
0.0
 10
322.221
 20
168.845
 30
0.0
 10
321.423
 20
169.65
 30
0.0
  0
SPLINE
  5
320
100
AcDbEntity
  8
0
100
AcDbSpline
210
0.0
220
0.0
230
1.0
 62
     7
 70
     0
 71
     3
 72
     8
 73
4
 40
0.0
 40
0.0
 40
0.0
 40
0.0
 40
1.0
 40
1.0
 40
1.0
 40
1.0
 10
321.423
 20
169.65
 30
0.0
 10
320.625
 20
170.457
 30
0.0
 10
319.803
 20
170.813
 30
0.0
 10
319.435
 20
170.514
 30
0.0
  0
SPLINE
  5
321
100
AcDbEntity
  8
0
100
AcDbSpline
210
0.0
220
0.0
230
1.0
 62
     7
 70
     0
 71
     3
 72
     8
 73
4
 40
0.0
 40
0.0
 40
0.0
 40
0.0
 40
1.0
 40
1.0
 40
1.0
 40
1.0
 10
319.435
 20
170.514
 30
0.0
 10
319.312
 20
170.414
 30
0.0
 10
319.249
 20
170.246
 30
0.0
 10
319.249
 20
170.021
 30
0.0
  0
LINE
  5
322
100
AcDbEntity
  8
0
100
AcDbLine
 62
     7
 10
301.571
 20
180.125
 30
0.0
 11
305.107
 21
177.238
 31
0.0
  0
LINE
  5
323
100
AcDbEntity
  8
0
100
AcDbLine
 62
     7
 10
305.107
 20
177.238
 30
0.0
 11
305.107
 21
181.569
 31
0.0
  0
SPLINE
  5
324
100
AcDbEntity
  8
0
100
AcDbSpline
210
0.0
220
0.0
230
1.0
 62
     7
 70
     0
 71
     3
 72
     8
 73
4
 40
0.0
 40
0.0
 40
0.0
 40
0.0
 40
1.0
 40
1.0
 40
1.0
 40
1.0
 10
305.107
 20
181.569
 30
0.0
 10
305.107
 20
182.237
 30
0.0
 10
304.544
 20
183.279
 30
0.0
 10
303.744
 20
184.085
 30
0.0
  0
SPLINE
  5
325
100
AcDbEntity
  8
0
100
AcDbSpline
210
0.0
220
0.0
230
1.0
 62
     7
 70
     0
 71
     3
 72
     8
 73
4
 40
0.0
 40
0.0
 40
0.0
 40
0.0
 40
1.0
 40
1.0
 40
1.0
 40
1.0
 10
303.744
 20
184.085
 30
0.0
 10
302.946
 20
184.89
 30
0.0
 10
302.124
 20
185.247
 30
0.0
 10
301.757
 20
184.948
 30
0.0
  0
SPLINE
  5
326
100
AcDbEntity
  8
0
100
AcDbSpline
210
0.0
220
0.0
230
1.0
 62
     7
 70
     0
 71
     3
 72
     8
 73
4
 40
0.0
 40
0.0
 40
0.0
 40
0.0
 40
1.0
 40
1.0
 40
1.0
 40
1.0
 10
301.757
 20
184.948
 30
0.0
 10
301.635
 20
184.847
 30
0.0
 10
301.571
 20
184.679
 30
0.0
 10
301.571
 20
184.454
 30
0.0
  0
LINE
  5
327
100
AcDbEntity
  8
0
100
AcDbLine
 62
     7
 10
301.571
 20
184.454
 30
0.0
 11
301.571
 21
180.125
 31
0.0
  0
LINE
  5
328
100
AcDbEntity
  8
0
100
AcDbLine
 62
     7
 10
333.392
 20
178.682
 30
0.0
 11
326.319
 21
184.454
 31
0.0
  0
LINE
  5
329
100
AcDbEntity
  8
0
100
AcDbLine
 62
     7
 10
326.319
 20
184.454
 30
0.0
 11
315.713
 21
191.671
 31
0.0
  0
LINE
  5
32a
100
AcDbEntity
  8
0
100
AcDbLine
 62
     7
 10
315.713
 20
191.671
 30
0.0
 11
322.785
 21
185.899
 31
0.0
  0
LINE
  5
32b
100
AcDbEntity
  8
0
100
AcDbLine
 62
     7
 10
322.785
 20
185.899
 30
0.0
 11
333.392
 21
178.682
 31
0.0
  0
SPLINE
  5
32c
100
AcDbEntity
  8
0
100
AcDbSpline
210
0.0
220
0.0
230
1.0
 62
     7
 70
     0
 71
     3
 72
     8
 73
4
 40
0.0
 40
0.0
 40
0.0
 40
0.0
 40
1.0
 40
1.0
 40
1.0
 40
1.0
 10
315.527
 20
157.981
 30
0.0
 10
315.649
 20
158.081
 30
0.0
 10
315.713
 20
158.25
 30
0.0
 10
315.713
 20
158.474
 30
0.0
  0
SPLINE
  5
32d
100
AcDbEntity
  8
0
100
AcDbSpline
210
0.0
220
0.0
230
1.0
 62
     7
 70
     0
 71
     3
 72
     8
 73
4
 40
0.0
 40
0.0
 40
0.0
 40
0.0
 40
1.0
 40
1.0
 40
1.0
 40
1.0
 10
315.713
 20
158.474
 30
0.0
 10
315.713
 20
159.144
 30
0.0
 10
315.149
 20
160.186
 30
0.0
 10
314.351
 20
160.991
 30
0.0
  0
SPLINE
  5
32e
100
AcDbEntity
  8
0
100
AcDbSpline
210
0.0
220
0.0
230
1.0
 62
     7
 70
     0
 71
     3
 72
     8
 73
4
 40
0.0
 40
0.0
 40
0.0
 40
0.0
 40
1.0
 40
1.0
 40
1.0
 40
1.0
 10
314.351
 20
160.991
 30
0.0
 10
313.553
 20
161.796
 30
0.0
 10
312.73
 20
162.154
 30
0.0
 10
312.364
 20
161.855
 30
0.0
  0
SPLINE
  5
32f
100
AcDbEntity
  8
0
100
AcDbSpline
210
0.0
220
0.0
230
1.0
 62
     7
 70
     0
 71
     3
 72
     8
 73
4
 40
0.0
 40
0.0
 40
0.0
 40
0.0
 40
1.0
 40
1.0
 40
1.0
 40
1.0
 10
312.364
 20
161.855
 30
0.0
 10
311.927
 20
161.498
 30
0.0
 10
312.281
 20
160.342
 30
0.0
 10
313.155
 20
159.272
 30
0.0
  0
SPLINE
  5
330
100
AcDbEntity
  8
0
100
AcDbSpline
210
0.0
220
0.0
230
1.0
 62
     7
 70
     0
 71
     3
 72
     8
 73
4
 40
0.0
 40
0.0
 40
0.0
 40
0.0
 40
1.0
 40
1.0
 40
1.0
 40
1.0
 10
313.155
 20
159.272
 30
0.0
 10
314.029
 20
158.203
 30
0.0
 10
315.09
 20
157.624
 30
0.0
 10
315.527
 20
157.981
 30
0.0
  0
SPLINE
  5
331
100
AcDbEntity
  8
0
100
AcDbSpline
210
0.0
220
0.0
230
1.0
 62
     7
 70
     0
 71
     3
 72
     8
 73
4
 40
0.0
 40
0.0
 40
0.0
 40
0.0
 40
1.0
 40
1.0
 40
1.0
 40
1.0
 10
297.849
 20
172.414
 30
0.0
 10
297.972
 20
172.515
 30
0.0
 10
298.035
 20
172.683
 30
0.0
 10
298.035
 20
172.908
 30
0.0
  0
SPLINE
  5
332
100
AcDbEntity
  8
0
100
AcDbSpline
210
0.0
220
0.0
230
1.0
 62
     7
 70
     0
 71
     3
 72
     8
 73
4
 40
0.0
 40
0.0
 40
0.0
 40
0.0
 40
1.0
 40
1.0
 40
1.0
 40
1.0
 10
298.035
 20
172.908
 30
0.0
 10
298.035
 20
173.578
 30
0.0
 10
297.472
 20
174.619
 30
0.0
 10
296.674
 20
175.424
 30
0.0
  0
SPLINE
  5
333
100
AcDbEntity
  8
0
100
AcDbSpline
210
0.0
220
0.0
230
1.0
 62
     7
 70
     0
 71
     3
 72
     8
 73
4
 40
0.0
 40
0.0
 40
0.0
 40
0.0
 40
1.0
 40
1.0
 40
1.0
 40
1.0
 10
296.674
 20
175.424
 30
0.0
 10
295.876
 20
176.23
 30
0.0
 10
295.053
 20
176.587
 30
0.0
 10
294.687
 20
176.288
 30
0.0
  0
SPLINE
  5
334
100
AcDbEntity
  8
0
100
AcDbSpline
210
0.0
220
0.0
230
1.0
 62
     7
 70
     0
 71
     3
 72
     8
 73
4
 40
0.0
 40
0.0
 40
0.0
 40
0.0
 40
1.0
 40
1.0
 40
1.0
 40
1.0
 10
294.687
 20
176.288
 30
0.0
 10
294.25
 20
175.931
 30
0.0
 10
294.604
 20
174.775
 30
0.0
 10
295.477
 20
173.706
 30
0.0
  0
SPLINE
  5
335
100
AcDbEntity
  8
0
100
AcDbSpline
210
0.0
220
0.0
230
1.0
 62
     7
 70
     0
 71
     3
 72
     8
 73
4
 40
0.0
 40
0.0
 40
0.0
 40
0.0
 40
1.0
 40
1.0
 40
1.0
 40
1.0
 10
295.477
 20
173.706
 30
0.0
 10
296.35
 20
172.636
 30
0.0
 10
297.412
 20
172.058
 30
0.0
 10
297.849
 20
172.414
 30
0.0
  0
LINE
  5
336
100
AcDbEntity
  8
0
100
AcDbLine
 62
     7
 10
314.829
 20
190.95
 30
0.0
 11
313.946
 21
191.671
 31
0.0
  0
LINE
  5
337
100
AcDbEntity
  8
0
100
AcDbLine
 62
     7
 10
313.946
 20
191.671
 30
0.0
 11
311.293
 21
189.507
 31
0.0
  0
LINE
  5
338
100
AcDbEntity
  8
0
100
AcDbLine
 62
     7
 10
311.293
 20
189.507
 30
0.0
 11
312.178
 21
188.786
 31
0.0
  0
LINE
  5
339
100
AcDbEntity
  8
0
100
AcDbLine
 62
     7
 10
312.178
 20
188.786
 30
0.0
 11
314.829
 21
190.95
 31
0.0
  0
LINE
  5
33a
100
AcDbEntity
  8
0
100
AcDbLine
 62
     7
 10
65.6015
 20
183.885
 30
0.0
 11
65.6015
 21
193.886
 31
0.0
  0
LINE
  5
33b
100
AcDbEntity
  8
0
100
AcDbLine
 62
     7
 10
65.6015
 20
193.886
 30
0.0
 11
50.6017
 21
221.386
 31
0.0
  0
LINE
  5
33c
100
AcDbEntity
  8
0
100
AcDbLine
 62
     7
 10
50.6017
 20
221.386
 30
0.0
 11
40.6026
 21
221.386
 31
0.0
  0
LINE
  5
33d
100
AcDbEntity
  8
0
100
AcDbLine
 62
     7
 10
40.6026
 20
221.386
 30
0.0
 11
40.6026
 21
183.885
 31
0.0
  0
LINE
  5
33e
100
AcDbEntity
  8
0
100
AcDbLine
 62
     7
 10
40.6026
 20
183.885
 30
0.0
 11
65.6015
 21
183.885
 31
0.0
  0
LINE
  5
33f
100
AcDbEntity
  8
0
100
AcDbLine
 62
     7
 10
65.6015
 20
188.885
 30
0.0
 11
65.6015
 21
193.886
 31
0.0
  0
LINE
  5
340
100
AcDbEntity
  8
0
100
AcDbLine
 62
     7
 10
65.6015
 20
193.886
 30
0.0
 11
50.6017
 21
221.386
 31
0.0
  0
LINE
  5
341
100
AcDbEntity
  8
0
100
AcDbLine
 62
     7
 10
50.6017
 20
221.386
 30
0.0
 11
45.6022
 21
221.386
 31
0.0
  0
LINE
  5
342
100
AcDbEntity
  8
0
100
AcDbLine
 62
     7
 10
45.6022
 20
221.386
 30
0.0
 11
45.6022
 21
188.885
 31
0.0
  0
LINE
  5
343
100
AcDbEntity
  8
0
100
AcDbLine
 62
     7
 10
45.6022
 20
188.885
 30
0.0
 11
65.6015
 21
188.885
 31
0.0
  0
LINE
  5
344
100
AcDbEntity
  8
0
100
AcDbLine
 62
     7
 10
65.6015
 20
183.885
 30
0.0
 11
65.6015
 21
188.885
 31
0.0
  0
LINE
  5
345
100
AcDbEntity
  8
0
100
AcDbLine
 62
     7
 10
65.6015
 20
188.885
 30
0.0
 11
45.6022
 21
188.885
 31
0.0
  0
LINE
  5
346
100
AcDbEntity
  8
0
100
AcDbLine
 62
     7
 10
45.6022
 20
188.885
 30
0.0
 11
45.6022
 21
221.386
 31
0.0
  0
LINE
  5
347
100
AcDbEntity
  8
0
100
AcDbLine
 62
     7
 10
45.6022
 20
221.386
 30
0.0
 11
40.6026
 21
221.386
 31
0.0
  0
LINE
  5
348
100
AcDbEntity
  8
0
100
AcDbLine
 62
     7
 10
40.6026
 20
221.386
 30
0.0
 11
40.6026
 21
183.885
 31
0.0
  0
LINE
  5
349
100
AcDbEntity
  8
0
100
AcDbLine
 62
     7
 10
40.6026
 20
183.885
 30
0.0
 11
65.6015
 21
183.885
 31
0.0
  0
LINE
  5
34a
100
AcDbEntity
  8
0
100
AcDbLine
 62
     7
 10
40.6026
 20
165.136
 30
0.0
 11
65.6015
 21
165.136
 31
0.0
  0
LINE
  5
34b
100
AcDbEntity
  8
0
100
AcDbLine
 62
     7
 10
65.6015
 20
165.136
 30
0.0
 11
65.6015
 21
120.136
 31
0.0
  0
LINE
  5
34c
100
AcDbEntity
  8
0
100
AcDbLine
 62
     7
 10
65.6015
 20
120.136
 30
0.0
 11
40.6026
 21
120.136
 31
0.0
  0
LINE
  5
34d
100
AcDbEntity
  8
0
100
AcDbLine
 62
     7
 10
40.6026
 20
120.136
 30
0.0
 11
40.6026
 21
165.136
 31
0.0
  0
LINE
  5
34e
100
AcDbEntity
  8
0
100
AcDbLine
 62
     7
 10
45.6022
 20
137.636
 30
0.0
 11
65.6015
 21
137.636
 31
0.0
  0
LINE
  5
34f
100
AcDbEntity
  8
0
100
AcDbLine
 62
     7
 10
65.6015
 20
137.636
 30
0.0
 11
65.6015
 21
120.137
 31
0.0
  0
LINE
  5
350
100
AcDbEntity
  8
0
100
AcDbLine
 62
     7
 10
65.6015
 20
120.137
 30
0.0
 11
45.6022
 21
120.137
 31
0.0
  0
LINE
  5
351
100
AcDbEntity
  8
0
100
AcDbLine
 62
     7
 10
45.6022
 20
120.137
 30
0.0
 11
45.6022
 21
137.636
 31
0.0
  0
LINE
  5
352
100
AcDbEntity
  8
0
100
AcDbLine
 62
     7
 10
45.6022
 20
165.136
 30
0.0
 11
65.6015
 21
165.136
 31
0.0
  0
LINE
  5
353
100
AcDbEntity
  8
0
100
AcDbLine
 62
     7
 10
65.6015
 20
165.136
 30
0.0
 11
65.6015
 21
147.636
 31
0.0
  0
LINE
  5
354
100
AcDbEntity
  8
0
100
AcDbLine
 62
     7
 10
65.6015
 20
147.636
 30
0.0
 11
45.6022
 21
147.636
 31
0.0
  0
LINE
  5
355
100
AcDbEntity
  8
0
100
AcDbLine
 62
     7
 10
45.6022
 20
147.636
 30
0.0
 11
45.6022
 21
165.136
 31
0.0
  0
LINE
  5
356
100
AcDbEntity
  8
0
100
AcDbLine
 62
     7
 10
40.6026
 20
165.136
 30
0.0
 11
45.6022
 21
165.136
 31
0.0
  0
LINE
  5
357
100
AcDbEntity
  8
0
100
AcDbLine
 62
     7
 10
45.6022
 20
165.136
 30
0.0
 11
45.6022
 21
120.136
 31
0.0
  0
LINE
  5
358
100
AcDbEntity
  8
0
100
AcDbLine
 62
     7
 10
45.6022
 20
120.136
 30
0.0
 11
40.6026
 21
120.136
 31
0.0
  0
LINE
  5
359
100
AcDbEntity
  8
0
100
AcDbLine
 62
     7
 10
40.6026
 20
120.136
 30
0.0
 11
40.6026
 21
165.136
 31
0.0
  0
LINE
  5
35a
100
AcDbEntity
  8
0
100
AcDbLine
 62
     7
 10
45.6022
 20
145.135
 30
0.0
 11
65.6015
 21
145.135
 31
0.0
  0
LINE
  5
35b
100
AcDbEntity
  8
0
100
AcDbLine
 62
     7
 10
65.6015
 20
145.135
 30
0.0
 11
65.6015
 21
140.135
 31
0.0
  0
LINE
  5
35c
100
AcDbEntity
  8
0
100
AcDbLine
 62
     7
 10
65.6015
 20
140.135
 30
0.0
 11
45.6022
 21
140.135
 31
0.0
  0
LINE
  5
35d
100
AcDbEntity
  8
0
100
AcDbLine
 62
     7
 10
45.6022
 20
140.135
 30
0.0
 11
45.6022
 21
145.135
 31
0.0
  0
LINE
  5
35e
100
AcDbEntity
  8
0
100
AcDbLine
 62
     7
 10
50.6017
 20
147.636
 30
0.0
 11
65.6015
 21
147.636
 31
0.0
  0
LINE
  5
35f
100
AcDbEntity
  8
0
100
AcDbLine
 62
     7
 10
65.6015
 20
147.636
 30
0.0
 11
65.6015
 21
145.135
 31
0.0
  0
LINE
  5
360
100
AcDbEntity
  8
0
100
AcDbLine
 62
     7
 10
65.6015
 20
145.135
 30
0.0
 11
50.6017
 21
145.135
 31
0.0
  0
LINE
  5
361
100
AcDbEntity
  8
0
100
AcDbLine
 62
     7
 10
50.6017
 20
145.135
 30
0.0
 11
50.6017
 21
147.636
 31
0.0
  0
LINE
  5
362
100
AcDbEntity
  8
0
100
AcDbLine
 62
     7
 10
50.6017
 20
140.135
 30
0.0
 11
65.6015
 21
140.135
 31
0.0
  0
LINE
  5
363
100
AcDbEntity
  8
0
100
AcDbLine
 62
     7
 10
65.6015
 20
140.135
 30
0.0
 11
65.6015
 21
137.636
 31
0.0
  0
LINE
  5
364
100
AcDbEntity
  8
0
100
AcDbLine
 62
     7
 10
65.6015
 20
137.636
 30
0.0
 11
50.6017
 21
137.636
 31
0.0
  0
LINE
  5
365
100
AcDbEntity
  8
0
100
AcDbLine
 62
     7
 10
50.6017
 20
137.636
 30
0.0
 11
50.6017
 21
140.135
 31
0.0
  0
LINE
  5
366
100
AcDbEntity
  8
0
100
AcDbLine
 62
     7
 10
45.6022
 20
140.135
 30
0.0
 11
50.6017
 21
140.135
 31
0.0
  0
LINE
  5
367
100
AcDbEntity
  8
0
100
AcDbLine
 62
     7
 10
50.6017
 20
140.135
 30
0.0
 11
50.6017
 21
137.636
 31
0.0
  0
LINE
  5
368
100
AcDbEntity
  8
0
100
AcDbLine
 62
     7
 10
50.6017
 20
137.636
 30
0.0
 11
45.6022
 21
137.636
 31
0.0
  0
LINE
  5
369
100
AcDbEntity
  8
0
100
AcDbLine
 62
     7
 10
45.6022
 20
137.636
 30
0.0
 11
45.6022
 21
140.135
 31
0.0
  0
LINE
  5
36a
100
AcDbEntity
  8
0
100
AcDbLine
 62
     7
 10
45.6022
 20
147.636
 30
0.0
 11
50.6017
 21
147.636
 31
0.0
  0
LINE
  5
36b
100
AcDbEntity
  8
0
100
AcDbLine
 62
     7
 10
50.6017
 20
147.636
 30
0.0
 11
50.6017
 21
145.135
 31
0.0
  0
LINE
  5
36c
100
AcDbEntity
  8
0
100
AcDbLine
 62
     7
 10
50.6017
 20
145.135
 30
0.0
 11
45.6022
 21
145.135
 31
0.0
  0
LINE
  5
36d
100
AcDbEntity
  8
0
100
AcDbLine
 62
     7
 10
45.6022
 20
145.135
 30
0.0
 11
45.6022
 21
147.636
 31
0.0
  0
LINE
  5
36e
100
AcDbEntity
  8
0
100
AcDbLine
 62
     7
 10
70.7305
 20
41.4997
 30
0.0
 11
70.7305
 21
74.4996
 31
0.0
  0
LINE
  5
36f
100
AcDbEntity
  8
0
100
AcDbLine
 62
     7
 10
70.7305
 20
74.4996
 30
0.0
 11
33.7316
 21
74.4996
 31
0.0
  0
SPLINE
  5
370
100
AcDbEntity
  8
0
100
AcDbSpline
210
0.0
220
0.0
230
1.0
 62
     7
 70
     0
 71
     3
 72
     8
 73
4
 40
0.0
 40
0.0
 40
0.0
 40
0.0
 40
1.0
 40
1.0
 40
1.0
 40
1.0
 10
33.7316
 20
74.4996
 30
0.0
 10
33.179
 20
74.4996
 30
0.0
 10
32.7312
 20
74.0516
 30
0.0
 10
32.7312
 20
73.4991
 30
0.0
  0
LINE
  5
371
100
AcDbEntity
  8
0
100
AcDbLine
 62
     7
 10
32.7312
 20
73.4991
 30
0.0
 11
32.7312
 21
42.5002
 31
0.0
  0
SPLINE
  5
372
100
AcDbEntity
  8
0
100
AcDbSpline
210
0.0
220
0.0
230
1.0
 62
     7
 70
     0
 71
     3
 72
     8
 73
4
 40
0.0
 40
0.0
 40
0.0
 40
0.0
 40
1.0
 40
1.0
 40
1.0
 40
1.0
 10
32.7312
 20
42.5002
 30
0.0
 10
32.7312
 20
41.9474
 30
0.0
 10
33.179
 20
41.4997
 30
0.0
 10
33.7316
 20
41.4997
 30
0.0
  0
LINE
  5
373
100
AcDbEntity
  8
0
100
AcDbLine
 62
     7
 10
33.7316
 20
41.4997
 30
0.0
 11
70.7305
 21
41.4997
 31
0.0
  0
LINE
  5
374
100
AcDbEntity
  8
0
100
AcDbLine
 62
     7
 10
68.731
 20
41.4997
 30
0.0
 11
68.731
 21
74.4996
 31
0.0
  0
LINE
  5
375
100
AcDbEntity
  8
0
100
AcDbLine
 62
     7
 10
68.731
 20
74.4996
 30
0.0
 11
33.7316
 21
74.4996
 31
0.0
  0
SPLINE
  5
376
100
AcDbEntity
  8
0
100
AcDbSpline
210
0.0
220
0.0
230
1.0
 62
     7
 70
     0
 71
     3
 72
     8
 73
4
 40
0.0
 40
0.0
 40
0.0
 40
0.0
 40
1.0
 40
1.0
 40
1.0
 40
1.0
 10
33.7316
 20
74.4996
 30
0.0
 10
33.179
 20
74.4996
 30
0.0
 10
32.7312
 20
74.0516
 30
0.0
 10
32.7312
 20
73.4991
 30
0.0
  0
LINE
  5
377
100
AcDbEntity
  8
0
100
AcDbLine
 62
     7
 10
32.7312
 20
73.4991
 30
0.0
 11
32.7312
 21
42.5002
 31
0.0
  0
SPLINE
  5
378
100
AcDbEntity
  8
0
100
AcDbSpline
210
0.0
220
0.0
230
1.0
 62
     7
 70
     0
 71
     3
 72
     8
 73
4
 40
0.0
 40
0.0
 40
0.0
 40
0.0
 40
1.0
 40
1.0
 40
1.0
 40
1.0
 10
32.7312
 20
42.5002
 30
0.0
 10
32.7312
 20
41.9474
 30
0.0
 10
33.179
 20
41.4997
 30
0.0
 10
33.7316
 20
41.4997
 30
0.0
  0
LINE
  5
379
100
AcDbEntity
  8
0
100
AcDbLine
 62
     7
 10
33.7316
 20
41.4997
 30
0.0
 11
68.731
 21
41.4997
 31
0.0
  0
LINE
  5
37a
100
AcDbEntity
  8
0
100
AcDbLine
 62
     7
 10
68.731
 20
74.4996
 30
0.0
 11
70.7305
 21
74.4996
 31
0.0
  0
LINE
  5
37b
100
AcDbEntity
  8
0
100
AcDbLine
 62
     7
 10
70.7305
 20
74.4996
 30
0.0
 11
70.7305
 21
41.4997
 31
0.0
  0
LINE
  5
37c
100
AcDbEntity
  8
0
100
AcDbLine
 62
     7
 10
70.7305
 20
41.4997
 30
0.0
 11
68.731
 21
41.4997
 31
0.0
  0
LINE
  5
37d
100
AcDbEntity
  8
0
100
AcDbLine
 62
     7
 10
68.731
 20
41.4997
 30
0.0
 11
68.731
 21
74.4996
 31
0.0
  0
SPLINE
  5
37e
100
AcDbEntity
  8
0
100
AcDbSpline
210
0.0
220
0.0
230
1.0
 62
     7
 70
     0
 71
     3
 72
     8
 73
4
 40
0.0
 40
0.0
 40
0.0
 40
0.0
 40
1.0
 40
1.0
 40
1.0
 40
1.0
 10
37.2304
 20
69.5
 30
0.0
 10
36.6794
 20
69.5
 30
0.0
 10
36.2313
 20
69.9477
 30
0.0
 10
36.2313
 20
70.4991
 30
0.0
  0
SPLINE
  5
37f
100
AcDbEntity
  8
0
100
AcDbSpline
210
0.0
220
0.0
230
1.0
 62
     7
 70
     0
 71
     3
 72
     8
 73
4
 40
0.0
 40
0.0
 40
0.0
 40
0.0
 40
1.0
 40
1.0
 40
1.0
 40
1.0
 10
36.2313
 20
70.4991
 30
0.0
 10
36.2313
 20
71.0516
 30
0.0
 10
36.6794
 20
71.4996
 30
0.0
 10
37.2304
 20
71.4996
 30
0.0
  0
LINE
  5
380
100
AcDbEntity
  8
0
100
AcDbLine
 62
     7
 10
37.2304
 20
71.4996
 30
0.0
 11
40.2304
 21
71.4996
 31
0.0
  0
SPLINE
  5
381
100
AcDbEntity
  8
0
100
AcDbSpline
210
0.0
220
0.0
230
1.0
 62
     7
 70
     0
 71
     3
 72
     8
 73
4
 40
0.0
 40
0.0
 40
0.0
 40
0.0
 40
1.0
 40
1.0
 40
1.0
 40
1.0
 10
40.2304
 20
71.4996
 30
0.0
 10
40.7829
 20
71.4996
 30
0.0
 10
41.2309
 20
71.0516
 30
0.0
 10
41.2309
 20
70.4991
 30
0.0
  0
SPLINE
  5
382
100
AcDbEntity
  8
0
100
AcDbSpline
210
0.0
220
0.0
230
1.0
 62
     7
 70
     0
 71
     3
 72
     8
 73
4
 40
0.0
 40
0.0
 40
0.0
 40
0.0
 40
1.0
 40
1.0
 40
1.0
 40
1.0
 10
41.2309
 20
70.4991
 30
0.0
 10
41.2309
 20
69.9477
 30
0.0
 10
40.7829
 20
69.5
 30
0.0
 10
40.2304
 20
69.5
 30
0.0
  0
LINE
  5
383
100
AcDbEntity
  8
0
100
AcDbLine
 62
     7
 10
40.2304
 20
69.5
 30
0.0
 11
37.2304
 21
69.5
 31
0.0
  0
SPLINE
  5
384
100
AcDbEntity
  8
0
100
AcDbSpline
210
0.0
220
0.0
230
1.0
 62
     7
 70
     0
 71
     3
 72
     8
 73
4
 40
0.0
 40
0.0
 40
0.0
 40
0.0
 40
1.0
 40
1.0
 40
1.0
 40
1.0
 10
52.2319
 20
69.5
 30
0.0
 10
51.6791
 20
69.5
 30
0.0
 10
51.2314
 20
69.9477
 30
0.0
 10
51.2314
 20
70.4991
 30
0.0
  0
SPLINE
  5
385
100
AcDbEntity
  8
0
100
AcDbSpline
210
0.0
220
0.0
230
1.0
 62
     7
 70
     0
 71
     3
 72
     8
 73
4
 40
0.0
 40
0.0
 40
0.0
 40
0.0
 40
1.0
 40
1.0
 40
1.0
 40
1.0
 10
51.2314
 20
70.4991
 30
0.0
 10
51.2314
 20
71.0516
 30
0.0
 10
51.6791
 20
71.4996
 30
0.0
 10
52.2319
 20
71.4996
 30
0.0
  0
LINE
  5
386
100
AcDbEntity
  8
0
100
AcDbLine
 62
     7
 10
52.2319
 20
71.4996
 30
0.0
 11
55.2319
 21
71.4996
 31
0.0
  0
SPLINE
  5
387
100
AcDbEntity
  8
0
100
AcDbSpline
210
0.0
220
0.0
230
1.0
 62
     7
 70
     0
 71
     3
 72
     8
 73
4
 40
0.0
 40
0.0
 40
0.0
 40
0.0
 40
1.0
 40
1.0
 40
1.0
 40
1.0
 10
55.2319
 20
71.4996
 30
0.0
 10
55.783
 20
71.4996
 30
0.0
 10
56.231
 20
71.0516
 30
0.0
 10
56.231
 20
70.4991
 30
0.0
  0
SPLINE
  5
388
100
AcDbEntity
  8
0
100
AcDbSpline
210
0.0
220
0.0
230
1.0
 62
     7
 70
     0
 71
     3
 72
     8
 73
4
 40
0.0
 40
0.0
 40
0.0
 40
0.0
 40
1.0
 40
1.0
 40
1.0
 40
1.0
 10
56.231
 20
70.4991
 30
0.0
 10
56.231
 20
69.9477
 30
0.0
 10
55.783
 20
69.5
 30
0.0
 10
55.2319
 20
69.5
 30
0.0
  0
LINE
  5
389
100
AcDbEntity
  8
0
100
AcDbLine
 62
     7
 10
55.2319
 20
69.5
 30
0.0
 11
52.2319
 21
69.5
 31
0.0
  0
SPLINE
  5
38a
100
AcDbEntity
  8
0
100
AcDbSpline
210
0.0
220
0.0
230
1.0
 62
     7
 70
     0
 71
     3
 72
     8
 73
4
 40
0.0
 40
0.0
 40
0.0
 40
0.0
 40
1.0
 40
1.0
 40
1.0
 40
1.0
 10
52.2319
 20
44.4997
 30
0.0
 10
51.6791
 20
44.4997
 30
0.0
 10
51.2314
 20
44.9474
 30
0.0
 10
51.2314
 20
45.5002
 30
0.0
  0
SPLINE
  5
38b
100
AcDbEntity
  8
0
100
AcDbSpline
210
0.0
220
0.0
230
1.0
 62
     7
 70
     0
 71
     3
 72
     8
 73
4
 40
0.0
 40
0.0
 40
0.0
 40
0.0
 40
1.0
 40
1.0
 40
1.0
 40
1.0
 10
51.2314
 20
45.5002
 30
0.0
 10
51.2314
 20
46.0513
 30
0.0
 10
51.6791
 20
46.4993
 30
0.0
 10
52.2319
 20
46.4993
 30
0.0
  0
LINE
  5
38c
100
AcDbEntity
  8
0
100
AcDbLine
 62
     7
 10
52.2319
 20
46.4993
 30
0.0
 11
55.2319
 21
46.4993
 31
0.0
  0
SPLINE
  5
38d
100
AcDbEntity
  8
0
100
AcDbSpline
210
0.0
220
0.0
230
1.0
 62
     7
 70
     0
 71
     3
 72
     8
 73
4
 40
0.0
 40
0.0
 40
0.0
 40
0.0
 40
1.0
 40
1.0
 40
1.0
 40
1.0
 10
55.2319
 20
46.4993
 30
0.0
 10
55.783
 20
46.4993
 30
0.0
 10
56.231
 20
46.0513
 30
0.0
 10
56.231
 20
45.5002
 30
0.0
  0
SPLINE
  5
38e
100
AcDbEntity
  8
0
100
AcDbSpline
210
0.0
220
0.0
230
1.0
 62
     7
 70
     0
 71
     3
 72
     8
 73
4
 40
0.0
 40
0.0
 40
0.0
 40
0.0
 40
1.0
 40
1.0
 40
1.0
 40
1.0
 10
56.231
 20
45.5002
 30
0.0
 10
56.231
 20
44.9474
 30
0.0
 10
55.783
 20
44.4997
 30
0.0
 10
55.2319
 20
44.4997
 30
0.0
  0
LINE
  5
38f
100
AcDbEntity
  8
0
100
AcDbLine
 62
     7
 10
55.2319
 20
44.4997
 30
0.0
 11
52.2319
 21
44.4997
 31
0.0
  0
SPLINE
  5
390
100
AcDbEntity
  8
0
100
AcDbSpline
210
0.0
220
0.0
230
1.0
 62
     7
 70
     0
 71
     3
 72
     8
 73
4
 40
0.0
 40
0.0
 40
0.0
 40
0.0
 40
1.0
 40
1.0
 40
1.0
 40
1.0
 10
37.2304
 20
44.4997
 30
0.0
 10
36.6794
 20
44.4997
 30
0.0
 10
36.2313
 20
44.9474
 30
0.0
 10
36.2313
 20
45.5002
 30
0.0
  0
SPLINE
  5
391
100
AcDbEntity
  8
0
100
AcDbSpline
210
0.0
220
0.0
230
1.0
 62
     7
 70
     0
 71
     3
 72
     8
 73
4
 40
0.0
 40
0.0
 40
0.0
 40
0.0
 40
1.0
 40
1.0
 40
1.0
 40
1.0
 10
36.2313
 20
45.5002
 30
0.0
 10
36.2313
 20
46.0513
 30
0.0
 10
36.6794
 20
46.4993
 30
0.0
 10
37.2304
 20
46.4993
 30
0.0
  0
LINE
  5
392
100
AcDbEntity
  8
0
100
AcDbLine
 62
     7
 10
37.2304
 20
46.4993
 30
0.0
 11
40.2304
 21
46.4993
 31
0.0
  0
SPLINE
  5
393
100
AcDbEntity
  8
0
100
AcDbSpline
210
0.0
220
0.0
230
1.0
 62
     7
 70
     0
 71
     3
 72
     8
 73
4
 40
0.0
 40
0.0
 40
0.0
 40
0.0
 40
1.0
 40
1.0
 40
1.0
 40
1.0
 10
40.2304
 20
46.4993
 30
0.0
 10
40.7829
 20
46.4993
 30
0.0
 10
41.2309
 20
46.0513
 30
0.0
 10
41.2309
 20
45.5002
 30
0.0
  0
SPLINE
  5
394
100
AcDbEntity
  8
0
100
AcDbSpline
210
0.0
220
0.0
230
1.0
 62
     7
 70
     0
 71
     3
 72
     8
 73
4
 40
0.0
 40
0.0
 40
0.0
 40
0.0
 40
1.0
 40
1.0
 40
1.0
 40
1.0
 10
41.2309
 20
45.5002
 30
0.0
 10
41.2309
 20
44.9474
 30
0.0
 10
40.7829
 20
44.4997
 30
0.0
 10
40.2304
 20
44.4997
 30
0.0
  0
LINE
  5
395
100
AcDbEntity
  8
0
100
AcDbLine
 62
     7
 10
40.2304
 20
44.4997
 30
0.0
 11
37.2304
 21
44.4997
 31
0.0
  0
LINE
  5
396
100
AcDbEntity
  8
0
100
AcDbLine
 62
     0
 10
33.7316
 20
39.6998
 30
0.0
 11
33.7316
 21
45.2988
 31
0.0
  0
LINE
  5
397
100
AcDbEntity
  8
0
100
AcDbLine
 62
     0
 10
36.5305
 20
42.5002
 30
0.0
 11
30.9315
 21
42.5002
 31
0.0
  0
LINE
  5
398
100
AcDbEntity
  8
0
100
AcDbLine
 62
     0
 10
33.7316
 20
39.6998
 30
0.0
 11
33.7316
 21
45.2988
 31
0.0
  0
LINE
  5
399
100
AcDbEntity
  8
0
100
AcDbLine
 62
     0
 10
36.5305
 20
42.5002
 30
0.0
 11
30.9315
 21
42.5002
 31
0.0
  0
LINE
  5
39a
100
AcDbEntity
  8
0
100
AcDbLine
 62
     0
 10
33.7316
 20
70.6988
 30
0.0
 11
33.7316
 21
76.2991
 31
0.0
  0
LINE
  5
39b
100
AcDbEntity
  8
0
100
AcDbLine
 62
     0
 10
36.5305
 20
73.4991
 30
0.0
 11
30.9315
 21
73.4991
 31
0.0
  0
LINE
  5
39c
100
AcDbEntity
  8
0
100
AcDbLine
 62
     0
 10
33.7316
 20
70.6988
 30
0.0
 11
33.7316
 21
76.2991
 31
0.0
  0
LINE
  5
39d
100
AcDbEntity
  8
0
100
AcDbLine
 62
     0
 10
36.5305
 20
73.4991
 30
0.0
 11
30.9315
 21
73.4991
 31
0.0
  0
LINE
  5
39e
100
AcDbEntity
  8
0
100
AcDbLine
 62
     0
 10
37.2304
 20
42.6999
 30
0.0
 11
37.2304
 21
48.2988
 31
0.0
  0
LINE
  5
39f
100
AcDbEntity
  8
0
100
AcDbLine
 62
     0
 10
40.0308
 20
45.5002
 30
0.0
 11
34.4317
 21
45.5002
 31
0.0
  0
LINE
  5
3a0
100
AcDbEntity
  8
0
100
AcDbLine
 62
     0
 10
37.2304
 20
42.6999
 30
0.0
 11
37.2304
 21
48.2988
 31
0.0
  0
LINE
  5
3a1
100
AcDbEntity
  8
0
100
AcDbLine
 62
     0
 10
40.0308
 20
45.5002
 30
0.0
 11
34.4317
 21
45.5002
 31
0.0
  0
LINE
  5
3a2
100
AcDbEntity
  8
0
100
AcDbLine
 62
     0
 10
40.2304
 20
42.6999
 30
0.0
 11
40.2304
 21
48.2988
 31
0.0
  0
LINE
  5
3a3
100
AcDbEntity
  8
0
100
AcDbLine
 62
     0
 10
43.0308
 20
45.5002
 30
0.0
 11
37.4315
 21
45.5002
 31
0.0
  0
LINE
  5
3a4
100
AcDbEntity
  8
0
100
AcDbLine
 62
     0
 10
40.2304
 20
42.6999
 30
0.0
 11
40.2304
 21
48.2988
 31
0.0
  0
LINE
  5
3a5
100
AcDbEntity
  8
0
100
AcDbLine
 62
     0
 10
43.0308
 20
45.5002
 30
0.0
 11
37.4315
 21
45.5002
 31
0.0
  0
LINE
  5
3a6
100
AcDbEntity
  8
0
100
AcDbLine
 62
     0
 10
52.2319
 20
42.6999
 30
0.0
 11
52.2319
 21
48.2988
 31
0.0
  0
LINE
  5
3a7
100
AcDbEntity
  8
0
100
AcDbLine
 62
     0
 10
55.0305
 20
45.5002
 30
0.0
 11
49.4316
 21
45.5002
 31
0.0
  0
LINE
  5
3a8
100
AcDbEntity
  8
0
100
AcDbLine
 62
     0
 10
52.2319
 20
42.6999
 30
0.0
 11
52.2319
 21
48.2988
 31
0.0
  0
LINE
  5
3a9
100
AcDbEntity
  8
0
100
AcDbLine
 62
     0
 10
55.0305
 20
45.5002
 30
0.0
 11
49.4316
 21
45.5002
 31
0.0
  0
LINE
  5
3aa
100
AcDbEntity
  8
0
100
AcDbLine
 62
     0
 10
55.2319
 20
42.6999
 30
0.0
 11
55.2319
 21
48.2988
 31
0.0
  0
LINE
  5
3ab
100
AcDbEntity
  8
0
100
AcDbLine
 62
     0
 10
58.0305
 20
45.5002
 30
0.0
 11
52.4316
 21
45.5002
 31
0.0
  0
LINE
  5
3ac
100
AcDbEntity
  8
0
100
AcDbLine
 62
     0
 10
55.2319
 20
42.6999
 30
0.0
 11
55.2319
 21
48.2988
 31
0.0
  0
LINE
  5
3ad
100
AcDbEntity
  8
0
100
AcDbLine
 62
     0
 10
58.0305
 20
45.5002
 30
0.0
 11
52.4316
 21
45.5002
 31
0.0
  0
LINE
  5
3ae
100
AcDbEntity
  8
0
100
AcDbLine
 62
     0
 10
55.2319
 20
67.6988
 30
0.0
 11
55.2319
 21
73.2991
 31
0.0
  0
LINE
  5
3af
100
AcDbEntity
  8
0
100
AcDbLine
 62
     0
 10
58.0305
 20
70.4991
 30
0.0
 11
52.4316
 21
70.4991
 31
0.0
  0
LINE
  5
3b0
100
AcDbEntity
  8
0
100
AcDbLine
 62
     0
 10
55.2319
 20
67.6988
 30
0.0
 11
55.2319
 21
73.2991
 31
0.0
  0
LINE
  5
3b1
100
AcDbEntity
  8
0
100
AcDbLine
 62
     0
 10
58.0305
 20
70.4991
 30
0.0
 11
52.4316
 21
70.4991
 31
0.0
  0
LINE
  5
3b2
100
AcDbEntity
  8
0
100
AcDbLine
 62
     0
 10
52.2319
 20
67.6988
 30
0.0
 11
52.2319
 21
73.2991
 31
0.0
  0
LINE
  5
3b3
100
AcDbEntity
  8
0
100
AcDbLine
 62
     0
 10
55.0305
 20
70.4991
 30
0.0
 11
49.4316
 21
70.4991
 31
0.0
  0
LINE
  5
3b4
100
AcDbEntity
  8
0
100
AcDbLine
 62
     0
 10
52.2319
 20
67.6988
 30
0.0
 11
52.2319
 21
73.2991
 31
0.0
  0
LINE
  5
3b5
100
AcDbEntity
  8
0
100
AcDbLine
 62
     0
 10
55.0305
 20
70.4991
 30
0.0
 11
49.4316
 21
70.4991
 31
0.0
  0
LINE
  5
3b6
100
AcDbEntity
  8
0
100
AcDbLine
 62
     0
 10
37.2304
 20
67.6988
 30
0.0
 11
37.2304
 21
73.2991
 31
0.0
  0
LINE
  5
3b7
100
AcDbEntity
  8
0
100
AcDbLine
 62
     0
 10
40.0308
 20
70.4991
 30
0.0
 11
34.4317
 21
70.4991
 31
0.0
  0
LINE
  5
3b8
100
AcDbEntity
  8
0
100
AcDbLine
 62
     0
 10
37.2304
 20
67.6988
 30
0.0
 11
37.2304
 21
73.2991
 31
0.0
  0
LINE
  5
3b9
100
AcDbEntity
  8
0
100
AcDbLine
 62
     0
 10
40.0308
 20
70.4991
 30
0.0
 11
34.4317
 21
70.4991
 31
0.0
  0
LINE
  5
3ba
100
AcDbEntity
  8
0
100
AcDbLine
 62
     0
 10
40.2304
 20
67.6988
 30
0.0
 11
40.2304
 21
73.2991
 31
0.0
  0
LINE
  5
3bb
100
AcDbEntity
  8
0
100
AcDbLine
 62
     0
 10
43.0308
 20
70.4991
 30
0.0
 11
37.4315
 21
70.4991
 31
0.0
  0
LINE
  5
3bc
100
AcDbEntity
  8
0
100
AcDbLine
 62
     0
 10
40.2304
 20
67.6988
 30
0.0
 11
40.2304
 21
73.2991
 31
0.0
  0
LINE
  5
3bd
100
AcDbEntity
  8
0
100
AcDbLine
 62
     0
 10
43.0308
 20
70.4991
 30
0.0
 11
37.4315
 21
70.4991
 31
0.0
  0
LINE
  5
3be
100
AcDbEntity
  8
0
100
AcDbLine
 62
     7
 10
33.7316
 20
19.9995
 30
0.0
 11
70.7305
 21
19.9995
 31
0.0
  0
LINE
  5
3bf
100
AcDbEntity
  8
0
100
AcDbLine
 62
     7
 10
70.7305
 20
19.9995
 30
0.0
 11
70.7305
 21
0
 31
0.0
  0
LINE
  5
3c0
100
AcDbEntity
  8
0
100
AcDbLine
 62
     7
 10
70.7305
 20
0
 30
0.0
 11
68.731
 21
0
 31
0.0
  0
LINE
  5
3c1
100
AcDbEntity
  8
0
100
AcDbLine
 62
     7
 10
68.731
 20
0
 30
0.0
 11
68.731
 21
17.9999
 31
0.0
  0
LINE
  5
3c2
100
AcDbEntity
  8
0
100
AcDbLine
 62
     7
 10
68.731
 20
17.9999
 30
0.0
 11
32.7312
 21
17.9999
 31
0.0
  0
LINE
  5
3c3
100
AcDbEntity
  8
0
100
AcDbLine
 62
     7
 10
32.7312
 20
17.9999
 30
0.0
 11
32.7312
 21
19.9995
 31
0.0
  0
LINE
  5
3c4
100
AcDbEntity
  8
0
100
AcDbLine
 62
     7
 10
32.7312
 20
19.9995
 30
0.0
 11
33.7316
 21
19.9995
 31
0.0
  0
SPLINE
  5
3c5
100
AcDbEntity
  8
0
100
AcDbSpline
210
0.0
220
0.0
230
1.0
 62
     7
 70
     0
 71
     3
 72
     8
 73
4
 40
0.0
 40
0.0
 40
0.0
 40
0.0
 40
1.0
 40
1.0
 40
1.0
 40
1.0
 10
113.731
 20
41.4997
 30
0.0
 10
114.283
 20
41.4997
 30
0.0
 10
114.731
 20
41.9474
 30
0.0
 10
114.731
 20
42.5002
 30
0.0
  0
LINE
  5
3c6
100
AcDbEntity
  8
0
100
AcDbLine
 62
     7
 10
114.731
 20
42.5002
 30
0.0
 11
114.731
 21
73.4991
 31
0.0
  0
SPLINE
  5
3c7
100
AcDbEntity
  8
0
100
AcDbSpline
210
0.0
220
0.0
230
1.0
 62
     7
 70
     0
 71
     3
 72
     8
 73
4
 40
0.0
 40
0.0
 40
0.0
 40
0.0
 40
1.0
 40
1.0
 40
1.0
 40
1.0
 10
114.731
 20
73.4991
 30
0.0
 10
114.731
 20
74.0516
 30
0.0
 10
114.283
 20
74.4996
 30
0.0
 10
113.731
 20
74.4996
 30
0.0
  0
LINE
  5
3c8
100
AcDbEntity
  8
0
100
AcDbLine
 62
     7
 10
113.731
 20
74.4996
 30
0.0
 11
94.7304
 21
74.4996
 31
0.0
  0
LINE
  5
3c9
100
AcDbEntity
  8
0
100
AcDbLine
 62
     7
 10
94.7304
 20
74.4996
 30
0.0
 11
94.7304
 21
41.4997
 31
0.0
  0
LINE
  5
3ca
100
AcDbEntity
  8
0
100
AcDbLine
 62
     7
 10
94.7304
 20
41.4997
 30
0.0
 11
113.731
 21
41.4997
 31
0.0
  0
SPLINE
  5
3cb
100
AcDbEntity
  8
0
100
AcDbSpline
210
0.0
220
0.0
230
1.0
 62
     7
 70
     0
 71
     3
 72
     8
 73
4
 40
0.0
 40
0.0
 40
0.0
 40
0.0
 40
1.0
 40
1.0
 40
1.0
 40
1.0
 10
113.731
 20
41.4997
 30
0.0
 10
114.283
 20
41.4997
 30
0.0
 10
114.731
 20
41.9474
 30
0.0
 10
114.731
 20
42.5002
 30
0.0
  0
LINE
  5
3cc
100
AcDbEntity
  8
0
100
AcDbLine
 62
     7
 10
114.731
 20
42.5002
 30
0.0
 11
114.731
 21
73.4991
 31
0.0
  0
SPLINE
  5
3cd
100
AcDbEntity
  8
0
100
AcDbSpline
210
0.0
220
0.0
230
1.0
 62
     7
 70
     0
 71
     3
 72
     8
 73
4
 40
0.0
 40
0.0
 40
0.0
 40
0.0
 40
1.0
 40
1.0
 40
1.0
 40
1.0
 10
114.731
 20
73.4991
 30
0.0
 10
114.731
 20
74.0516
 30
0.0
 10
114.283
 20
74.4996
 30
0.0
 10
113.731
 20
74.4996
 30
0.0
  0
LINE
  5
3ce
100
AcDbEntity
  8
0
100
AcDbLine
 62
     7
 10
113.731
 20
74.4996
 30
0.0
 11
96.7313
 21
74.4996
 31
0.0
  0
LINE
  5
3cf
100
AcDbEntity
  8
0
100
AcDbLine
 62
     7
 10
96.7313
 20
74.4996
 30
0.0
 11
96.7313
 21
41.4997
 31
0.0
  0
LINE
  5
3d0
100
AcDbEntity
  8
0
100
AcDbLine
 62
     7
 10
96.7313
 20
41.4997
 30
0.0
 11
113.731
 21
41.4997
 31
0.0
  0
LINE
  5
3d1
100
AcDbEntity
  8
0
100
AcDbLine
 62
     7
 10
94.7304
 20
74.4996
 30
0.0
 11
96.7313
 21
74.4996
 31
0.0
  0
LINE
  5
3d2
100
AcDbEntity
  8
0
100
AcDbLine
 62
     7
 10
96.7313
 20
74.4996
 30
0.0
 11
96.7313
 21
41.4997
 31
0.0
  0
LINE
  5
3d3
100
AcDbEntity
  8
0
100
AcDbLine
 62
     7
 10
96.7313
 20
41.4997
 30
0.0
 11
94.7304
 21
41.4997
 31
0.0
  0
LINE
  5
3d4
100
AcDbEntity
  8
0
100
AcDbLine
 62
     7
 10
94.7304
 20
41.4997
 30
0.0
 11
94.7304
 21
74.4996
 31
0.0
  0
SPLINE
  5
3d5
100
AcDbEntity
  8
0
100
AcDbSpline
210
0.0
220
0.0
230
1.0
 62
     7
 70
     0
 71
     3
 72
     8
 73
4
 40
0.0
 40
0.0
 40
0.0
 40
0.0
 40
1.0
 40
1.0
 40
1.0
 40
1.0
 10
101.731
 20
71.4996
 30
0.0
 10
101.731
 20
70.9468
 30
0.0
 10
101.283
 20
70.4991
 30
0.0
 10
100.73
 20
70.4991
 30
0.0
  0
SPLINE
  5
3d6
100
AcDbEntity
  8
0
100
AcDbSpline
210
0.0
220
0.0
230
1.0
 62
     7
 70
     0
 71
     3
 72
     8
 73
4
 40
0.0
 40
0.0
 40
0.0
 40
0.0
 40
1.0
 40
1.0
 40
1.0
 40
1.0
 10
100.73
 20
70.4991
 30
0.0
 10
100.179
 20
70.4991
 30
0.0
 10
99.7313
 20
70.9468
 30
0.0
 10
99.7313
 20
71.4996
 30
0.0
  0
SPLINE
  5
3d7
100
AcDbEntity
  8
0
100
AcDbSpline
210
0.0
220
0.0
230
1.0
 62
     7
 70
     0
 71
     3
 72
     8
 73
4
 40
0.0
 40
0.0
 40
0.0
 40
0.0
 40
1.0
 40
1.0
 40
1.0
 40
1.0
 10
99.7313
 20
71.4996
 30
0.0
 10
99.7313
 20
72.052
 30
0.0
 10
100.179
 20
72.5001
 30
0.0
 10
100.73
 20
72.5001
 30
0.0
  0
SPLINE
  5
3d8
100
AcDbEntity
  8
0
100
AcDbSpline
210
0.0
220
0.0
230
1.0
 62
     7
 70
     0
 71
     3
 72
     8
 73
4
 40
0.0
 40
0.0
 40
0.0
 40
0.0
 40
1.0
 40
1.0
 40
1.0
 40
1.0
 10
100.73
 20
72.5001
 30
0.0
 10
101.283
 20
72.5001
 30
0.0
 10
101.731
 20
72.052
 30
0.0
 10
101.731
 20
71.4996
 30
0.0
  0
SPLINE
  5
3d9
100
AcDbEntity
  8
0
100
AcDbSpline
210
0.0
220
0.0
230
1.0
 62
     7
 70
     0
 71
     3
 72
     8
 73
4
 40
0.0
 40
0.0
 40
0.0
 40
0.0
 40
1.0
 40
1.0
 40
1.0
 40
1.0
 10
111.731
 20
71.4996
 30
0.0
 10
111.731
 20
70.9468
 30
0.0
 10
111.283
 20
70.4991
 30
0.0
 10
110.731
 20
70.4991
 30
0.0
  0
SPLINE
  5
3da
100
AcDbEntity
  8
0
100
AcDbSpline
210
0.0
220
0.0
230
1.0
 62
     7
 70
     0
 71
     3
 72
     8
 73
4
 40
0.0
 40
0.0
 40
0.0
 40
0.0
 40
1.0
 40
1.0
 40
1.0
 40
1.0
 10
110.731
 20
70.4991
 30
0.0
 10
110.178
 20
70.4991
 30
0.0
 10
109.73
 20
70.9468
 30
0.0
 10
109.73
 20
71.4996
 30
0.0
  0
SPLINE
  5
3db
100
AcDbEntity
  8
0
100
AcDbSpline
210
0.0
220
0.0
230
1.0
 62
     7
 70
     0
 71
     3
 72
     8
 73
4
 40
0.0
 40
0.0
 40
0.0
 40
0.0
 40
1.0
 40
1.0
 40
1.0
 40
1.0
 10
109.73
 20
71.4996
 30
0.0
 10
109.73
 20
72.052
 30
0.0
 10
110.178
 20
72.5001
 30
0.0
 10
110.731
 20
72.5001
 30
0.0
  0
SPLINE
  5
3dc
100
AcDbEntity
  8
0
100
AcDbSpline
210
0.0
220
0.0
230
1.0
 62
     7
 70
     0
 71
     3
 72
     8
 73
4
 40
0.0
 40
0.0
 40
0.0
 40
0.0
 40
1.0
 40
1.0
 40
1.0
 40
1.0
 10
110.731
 20
72.5001
 30
0.0
 10
111.283
 20
72.5001
 30
0.0
 10
111.731
 20
72.052
 30
0.0
 10
111.731
 20
71.4996
 30
0.0
  0
LINE
  5
3dd
100
AcDbEntity
  8
0
100
AcDbLine
 62
     0
 10
113.731
 20
39.6998
 30
0.0
 11
113.731
 21
45.2988
 31
0.0
  0
LINE
  5
3de
100
AcDbEntity
  8
0
100
AcDbLine
 62
     0
 10
116.531
 20
42.5002
 30
0.0
 11
110.931
 21
42.5002
 31
0.0
  0
LINE
  5
3df
100
AcDbEntity
  8
0
100
AcDbLine
 62
     0
 10
113.731
 20
39.6998
 30
0.0
 11
113.731
 21
45.2988
 31
0.0
  0
LINE
  5
3e0
100
AcDbEntity
  8
0
100
AcDbLine
 62
     0
 10
116.531
 20
42.5002
 30
0.0
 11
110.931
 21
42.5002
 31
0.0
  0
LINE
  5
3e1
100
AcDbEntity
  8
0
100
AcDbLine
 62
     0
 10
113.731
 20
70.6988
 30
0.0
 11
113.731
 21
76.2991
 31
0.0
  0
LINE
  5
3e2
100
AcDbEntity
  8
0
100
AcDbLine
 62
     0
 10
116.531
 20
73.4991
 30
0.0
 11
110.931
 21
73.4991
 31
0.0
  0
LINE
  5
3e3
100
AcDbEntity
  8
0
100
AcDbLine
 62
     0
 10
113.731
 20
70.6988
 30
0.0
 11
113.731
 21
76.2991
 31
0.0
  0
LINE
  5
3e4
100
AcDbEntity
  8
0
100
AcDbLine
 62
     0
 10
116.531
 20
73.4991
 30
0.0
 11
110.931
 21
73.4991
 31
0.0
  0
LINE
  5
3e5
100
AcDbEntity
  8
0
100
AcDbLine
 62
     0
 10
110.731
 20
68.6992
 30
0.0
 11
110.731
 21
74.2996
 31
0.0
  0
LINE
  5
3e6
100
AcDbEntity
  8
0
100
AcDbLine
 62
     0
 10
113.531
 20
71.4996
 30
0.0
 11
107.931
 21
71.4996
 31
0.0
  0
LINE
  5
3e7
100
AcDbEntity
  8
0
100
AcDbLine
 62
     0
 10
110.731
 20
68.6992
 30
0.0
 11
110.731
 21
74.2996
 31
0.0
  0
LINE
  5
3e8
100
AcDbEntity
  8
0
100
AcDbLine
 62
     0
 10
113.531
 20
71.4996
 30
0.0
 11
107.931
 21
71.4996
 31
0.0
  0
LINE
  5
3e9
100
AcDbEntity
  8
0
100
AcDbLine
 62
     0
 10
100.73
 20
68.6992
 30
0.0
 11
100.73
 21
74.2996
 31
0.0
  0
LINE
  5
3ea
100
AcDbEntity
  8
0
100
AcDbLine
 62
     0
 10
103.531
 20
71.4996
 30
0.0
 11
97.9318
 21
71.4996
 31
0.0
  0
LINE
  5
3eb
100
AcDbEntity
  8
0
100
AcDbLine
 62
     0
 10
100.73
 20
68.6992
 30
0.0
 11
100.73
 21
74.2996
 31
0.0
  0
LINE
  5
3ec
100
AcDbEntity
  8
0
100
AcDbLine
 62
     0
 10
103.531
 20
71.4996
 30
0.0
 11
97.9318
 21
71.4996
 31
0.0
  0
ENDSEC
  0
SECTION
  2
OBJECTS
  0
DICTIONARY
  5
C
330
0
100
AcDbDictionary
  3
ACAD_GROUP
350
D
  3
ACAD_LAYOUT
350
1A
  3
ACAD_MLINESTYLE
350
17
  3
ACAD_PLOTSETTINGS
350
19
  3
ACAD_PLOTSTYLENAME
350
E
  3
ACDBHEADERROUNDTRIPXREC
350
2F
  0
DICTIONARY
  5
52
330
1F
100
AcDbDictionary
280
     1
  3
ACAD_LAYOUTSELFREF
360
53
  0
DICTIONARY
  5
50
330
1B
100
AcDbDictionary
280
     1
  3
ACAD_LAYOUTSELFREF
360
51
  0
DICTIONARY
  5
D
102
{ACAD_REACTORS
330
C
102
}
330
C
100
AcDbDictionary
  0
DICTIONARY
  5
1A
102
{ACAD_REACTORS
330
C
102
}
330
C
100
AcDbDictionary
  0
DICTIONARY
  5
17
102
{ACAD_REACTORS
330
C
102
}
330
C
100
AcDbDictionary
  3
STANDARD
350
18
  0
DICTIONARY
  5
19
102
{ACAD_REACTORS
330
C
102
}
330
C
100
AcDbDictionary
  0
ACDBDICTIONARYWDFLT
  5
E
102
{ACAD_REACTORS
330
C
102
}
330
C
100
AcDbDictionary
281
     1
  3
Normal
350
F
100
AcDbDictionaryWithDefault
340
F
  0
DICTIONARY
  5
2F
102
{ACAD_REACTORS
330
C
102
}
330
C
100
AcDbDictionary
  3
CEPSNTYPE
350
39
  3
DIMSTYLEDATA
350
3D
  3
FINGERPRINTGUID
350
3A
  3
HYPERLINKBASE
350
32
  3
INSUNITS
350
38
  3
LAYOUTDICT
350
34
  3
LWETCUNION
350
37
  3
PLOTSETDICT
350
35
  3
PLOTSTYLNAMDICT
350
36
  3
PSVPSCALE
350
3C
  3
PUCSBASE
350
40
  3
PUCSORGBACK
350
46
  3
PUCSORGBOTTOM
350
42
  3
PUCSORGFRONT
350
45
  3
PUCSORGLEFT
350
43
  3
PUCSORGRIGHT
350
44
  3
PUCSORGTOP
350
41
  3
PUCSORTHOREF
350
3E
  3
PUCSORTHOVIEW
350
3F
  3
STYLESHEET
350
33
  3
TSTACKALIGN
350
30
  3
TSTACKSIZE
350
31
  3
UCSBASE
350
49
  3
UCSORGBACK
350
4F
  3
UCSORGBOTTOM
350
4B
  3
UCSORGFRONT
350
4E
  3
UCSORGLEFT
350
4C
  3
UCSORGRIGHT
350
4D
  3
UCSORGTOP
350
4A
  3
UCSORTHOREF
350
47
  3
UCSORTHOVIEW
350
48
  3
VERSIONGUID
350
3B
  0
XRECORD
  5
53
102
{ACAD_REACTORS
330
52
102
}
330
52
100
AcDbXrecord
340
1F
  0
XRECORD
  5
51
102
{ACAD_REACTORS
330
50
102
}
330
50
100
AcDbXrecord
340
1B
  0
MLINESTYLE
  5
18
102
{ACAD_REACTORS
330
17
102
}
330
17
100
AcDbMlineStyle
  2
STANDARD
 70
     0
  3

 62
   256
 51
90.0
 52
90.0
 71
     2
 49
0.5
 62
   256
  6
BYLAYER
 49
-0.5
 62
   256
  6
BYLAYER
  0
ACDBPLACEHOLDER
  5
F
102
{ACAD_REACTORS
330
E
102
}
330
E
100
AcDbPlaceHolder
280
     0
  0
XRECORD
  5
39
102
{ACAD_REACTORS
330
2F
102
}
330
2F
100
AcDbXrecord
 90
        0
  0
XRECORD
  5
3D
102
{ACAD_REACTORS
330
2F
102
}
330
2F
100
AcDbXrecord
1000
DSTYLE
1002
{
1070
   278
 70
    44
1002
}
  0
XRECORD
  5
3A
102
{ACAD_REACTORS
330
2F
102
}
330
2F
100
AcDbXrecord
  1
{705446A6-11D0-4548-8F8C-A97DCA50327D}
  0
XRECORD
  5
32
102
{ACAD_REACTORS
330
2F
102
}
330
2F
100
AcDbXrecord
  1

  0
XRECORD
  5
38
102
{ACAD_REACTORS
330
2F
102
}
330
2F
100
AcDbXrecord
 90
        4
  0
XRECORD
  5
34
102
{ACAD_REACTORS
330
2F
102
}
330
2F
100
AcDbXrecord
340
1A
  0
XRECORD
  5
37
102
{ACAD_REACTORS
330
2F
102
}
330
2F
100
AcDbXrecord
 90
    10781
  0
XRECORD
  5
35
102
{ACAD_REACTORS
330
2F
102
}
330
2F
100
AcDbXrecord
340
19
  0
XRECORD
  5
36
102
{ACAD_REACTORS
330
2F
102
}
330
2F
100
AcDbXrecord
340
E
  0
XRECORD
  5
3C
102
{ACAD_REACTORS
330
2F
102
}
330
2F
100
AcDbXrecord
 40
0.0
  0
XRECORD
  5
40
102
{ACAD_REACTORS
330
2F
102
}
330
2F
100
AcDbXrecord
340
0
  0
XRECORD
  5
46
102
{ACAD_REACTORS
330
2F
102
}
330
2F
100
AcDbXrecord
 10
0.0
 20
0.0
 30
0.0
  0
XRECORD
  5
42
102
{ACAD_REACTORS
330
2F
102
}
330
2F
100
AcDbXrecord
 10
0.0
 20
0.0
 30
0.0
  0
XRECORD
  5
45
102
{ACAD_REACTORS
330
2F
102
}
330
2F
100
AcDbXrecord
 10
0.0
 20
0.0
 30
0.0
  0
XRECORD
  5
43
102
{ACAD_REACTORS
330
2F
102
}
330
2F
100
AcDbXrecord
 10
0.0
 20
0.0
 30
0.0
  0
XRECORD
  5
44
102
{ACAD_REACTORS
330
2F
102
}
330
2F
100
AcDbXrecord
 10
0.0
 20
0.0
 30
0.0
  0
XRECORD
  5
41
102
{ACAD_REACTORS
330
2F
102
}
330
2F
100
AcDbXrecord
 10
0.0
 20
0.0
 30
0.0
  0
XRECORD
  5
3E
102
{ACAD_REACTORS
330
2F
102
}
330
2F
100
AcDbXrecord
340
0
  0
XRECORD
  5
3F
102
{ACAD_REACTORS
330
2F
102
}
330
2F
100
AcDbXrecord
 70
     0
  0
XRECORD
  5
33
102
{ACAD_REACTORS
330
2F
102
}
330
2F
100
AcDbXrecord
  1

  0
XRECORD
  5
30
102
{ACAD_REACTORS
330
2F
102
}
330
2F
100
AcDbXrecord
 90
        1
  0
XRECORD
  5
31
102
{ACAD_REACTORS
330
2F
102
}
330
2F
100
AcDbXrecord
 90
       70
  0
XRECORD
  5
49
102
{ACAD_REACTORS
330
2F
102
}
330
2F
100
AcDbXrecord
340
0
  0
XRECORD
  5
4F
102
{ACAD_REACTORS
330
2F
102
}
330
2F
100
AcDbXrecord
 10
0.0
 20
0.0
 30
0.0
  0
XRECORD
  5
4B
102
{ACAD_REACTORS
330
2F
102
}
330
2F
100
AcDbXrecord
 10
0.0
 20
0.0
 30
0.0
  0
XRECORD
  5
4E
102
{ACAD_REACTORS
330
2F
102
}
330
2F
100
AcDbXrecord
 10
0.0
 20
0.0
 30
0.0
  0
XRECORD
  5
4C
102
{ACAD_REACTORS
330
2F
102
}
330
2F
100
AcDbXrecord
 10
0.0
 20
0.0
 30
0.0
  0
XRECORD
  5
4D
102
{ACAD_REACTORS
330
2F
102
}
330
2F
100
AcDbXrecord
 10
0.0
 20
0.0
 30
0.0
  0
XRECORD
  5
4A
102
{ACAD_REACTORS
330
2F
102
}
330
2F
100
AcDbXrecord
 10
0.0
 20
0.0
 30
0.0
  0
XRECORD
  5
47
102
{ACAD_REACTORS
330
2F
102
}
330
2F
100
AcDbXrecord
340
0
  0
XRECORD
  5
48
102
{ACAD_REACTORS
330
2F
102
}
330
2F
100
AcDbXrecord
 70
     0
  0
XRECORD
  5
3B
102
{ACAD_REACTORS
330
2F
102
}
330
2F
100
AcDbXrecord
  1
{33328E3A-B6B8-4979-86B7-D70DEC2867C2}
  0
ENDSEC
  0
EOF
