  0
SECTION
  2
HEADER
  9
$ACADVER
  1
AC1014
  9
$EXTMIN
 10
70.16401489310567
 20
112.369642808922
 30
0.0
  9
$EXTMAX
 10
277.0834797641999
 20
227.1366601424358
 30
0.0
  9
$HANDSEED
  5
56
  9
$MEASUREMENT
 70
1
  0
ENDSEC
  0
SECTION
  2
TABLES
  0
TABLE
  2
VPORT
  5
8
330
0
100
AcDbSymbolTable
 70
     4
  0
VPORT
  5
2E
330
8
100
AcDbSymbolTableRecord
100
AcDbViewportTableRecord
  2
*ACTIVE
 70
     0
 10
0.0
 20
0.0
 11
1.0
 21
1.0
 12
209.9999999999999
 22
148.4999999999999
 13
0.0
 23
0.0
 14
10.0
 24
10.0
 15
10.0
 25
10.0
 16
0.0
 26
0.0
 36
1.0
 17
0.0
 27
0.0
 37
0.0
 40
340.9950045922664
 41
1.239944521497919
 42
50.0
 43
0.0
 44
0.0
 50
0.0
 51
0.0
 71
     0
 72
   100
 73
     1
 74
     3
 75
     0
 76
     0
 77
     0
 78
     0
  0
ENDTAB
  0
TABLE
  2
LTYPE
  5
5
330
0
100
AcDbSymbolTable
 70
     1
  0
LTYPE
  5
14
330
5
100
AcDbSymbolTableRecord
100
AcDbLinetypeTableRecord
  2
BYBLOCK
 70
     0
  3

 72
    65
 73
     0
 40
0.0
  0
LTYPE
  5
15
330
5
100
AcDbSymbolTableRecord
100
AcDbLinetypeTableRecord
  2
BYLAYER
 70
     0
  3

 72
    65
 73
     0
 40
0.0
  0
LTYPE
  5
16
330
5
100
AcDbSymbolTableRecord
100
AcDbLinetypeTableRecord
  2
CONTINUOUS
 70
     0
  3
Solid line
 72
    65
 73
     0
 40
0.0
  0
ENDTAB
  0
TABLE
  2
LAYER
  5
2
330
0
100
AcDbSymbolTable
 70
1
  0
LAYER
  5
10
330
2
100
AcDbSymbolTableRecord
100
AcDbLayerTableRecord
  2
0
 70
     0
 62
     7
  6
CONTINUOUS
  0
ENDTAB
  0
TABLE
  2
STYLE
  5
3
330
0
100
AcDbSymbolTable
 70
     1
  0
STYLE
  5
11
330
3
100
AcDbSymbolTableRecord
100
AcDbTextStyleTableRecord
  2
STANDARD
 70
     0
 40
0.0
 41
1.0
 50
0.0
 71
     0
 42
2.5
  3
txt
  4

  0
ENDTAB
  0
TABLE
  2
VIEW
  5
6
330
0
100
AcDbSymbolTable
 70
     0
  0
ENDTAB
  0
TABLE
  2
UCS
  5
7
330
0
100
AcDbSymbolTable
 70
     0
  0
ENDTAB
  0
TABLE
  2
APPID
  5
9
330
0
100
AcDbSymbolTable
 70
     2
  0
APPID
  5
12
330
9
100
AcDbSymbolTableRecord
100
AcDbRegAppTableRecord
  2
ACAD
 70
     0
  0
APPID
  5
2B
330
9
100
AcDbSymbolTableRecord
100
AcDbRegAppTableRecord
  2
URBANX
 70
     0
  0
ENDTAB
  0
TABLE
  2
DIMSTYLE
  5
A
330
0
100
AcDbSymbolTable
 70
     1
  0
DIMSTYLE
105
27
330
A
100
AcDbSymbolTableRecord
100
AcDbDimStyleTableRecord
  2
ISO-25
 70
     0
  3

  4

  5

  6

  7

 40
1.0
 41
2.5
 42
0.625
 43
3.75
 44
1.25
 45
0.0
 46
0.0
 47
0.0
 48
0.0
140
2.5
141
2.5
142
0.0
143
0.03937007874016
144
1.0
145
0.0
146
1.0
147
0.625
 71
     0
 72
     0
 73
     0
 74
     0
 75
     0
 76
     0
 77
     1
 78
     8
170
     0
171
     3
172
     1
173
     0
174
     0
175
     0
176
     0
177
     0
178
     0
270
     2
271
     2
272
     2
273
     2
274
     3
340
11
275
     0
280
     0
281
     0
282
     0
283
     0
284
     8
285
     0
286
     0
287
     3
288
     0
  0
ENDTAB
  0
TABLE
  2
BLOCK_RECORD
  5
1
330
0
100
AcDbSymbolTable
 70
     1
  0
BLOCK_RECORD
  5
1F
102
{ACAD_XDICTIONARY
360
52
102
}
330
1
100
AcDbSymbolTableRecord
100
AcDbBlockTableRecord
  2
*MODEL_SPACE
  0
BLOCK_RECORD
  5
1B
102
{ACAD_XDICTIONARY
360
50
102
}
330
1
100
AcDbSymbolTableRecord
100
AcDbBlockTableRecord
  2
*PAPER_SPACE
  0
ENDTAB
  0
ENDSEC
  0
SECTION
  2
BLOCKS
  0
BLOCK
  5
20
330
1F
100
AcDbEntity
  8
0
100
AcDbBlockBegin
  2
*MODEL_SPACE
 70
     0
 10
0.0
 20
0.0
 30
0.0
  3
*MODEL_SPACE
  1

  0
ENDBLK
  5
21
330
1F
100
AcDbEntity
  8
0
100
AcDbBlockEnd
  0
BLOCK
  5
1C
330
1B
100
AcDbEntity
 67
     1
  8
0
100
AcDbBlockBegin
  2
*PAPER_SPACE
  1

  0
ENDBLK
  5
1D
330
1B
100
AcDbEntity
 67
     1
  8
0
100
AcDbBlockEnd
  0
ENDSEC
  0
SECTION
  2
ENTITIES
  0
LINE
  5
ff
100
AcDbEntity
  8
0
100
AcDbLine
 62
     0
 10
52.5568
 20
47.5259
 30
0.0
 11
52.5568
 21
78.5248
 31
0.0
  0
LINE
  5
100
100
AcDbEntity
  8
0
100
AcDbLine
 62
     0
 10
63.0576
 20
46.5254
 30
0.0
 11
53.5573
 21
46.5254
 31
0.0
  0
LINE
  5
101
100
AcDbEntity
  8
0
100
AcDbLine
 62
     0
 10
52.5568
 20
47.5259
 30
0.0
 11
53.5573
 21
46.5254
 31
0.0
  0
LINE
  5
102
100
AcDbEntity
  8
0
100
AcDbLine
 62
     0
 10
53.5573
 20
79.5253
 30
0.0
 11
63.0576
 21
79.5253
 31
0.0
  0
LINE
  5
103
100
AcDbEntity
  8
0
100
AcDbLine
 62
     0
 10
52.5568
 20
78.5248
 30
0.0
 11
53.5573
 21
79.5253
 31
0.0
  0
SPLINE
  5
104
100
AcDbEntity
  8
0
100
AcDbSpline
210
0.0
220
0.0
230
1.0
 62
     0
 70
     0
 71
     3
 72
     8
 73
4
 40
0.0
 40
0.0
 40
0.0
 40
0.0
 40
1.0
 40
1.0
 40
1.0
 40
1.0
 10
57.5578
 20
75.5248
 30
0.0
 10
57.5578
 20
74.9734
 30
0.0
 10
57.1101
 20
74.5257
 30
0.0
 10
56.5573
 20
74.5257
 30
0.0
  0
SPLINE
  5
105
100
AcDbEntity
  8
0
100
AcDbSpline
210
0.0
220
0.0
230
1.0
 62
     0
 70
     0
 71
     3
 72
     8
 73
4
 40
0.0
 40
0.0
 40
0.0
 40
0.0
 40
1.0
 40
1.0
 40
1.0
 40
1.0
 10
56.5573
 20
74.5257
 30
0.0
 10
56.0049
 20
74.5257
 30
0.0
 10
55.5569
 20
74.9734
 30
0.0
 10
55.5569
 20
75.5248
 30
0.0
  0
SPLINE
  5
106
100
AcDbEntity
  8
0
100
AcDbSpline
210
0.0
220
0.0
230
1.0
 62
     0
 70
     0
 71
     3
 72
     8
 73
4
 40
0.0
 40
0.0
 40
0.0
 40
0.0
 40
1.0
 40
1.0
 40
1.0
 40
1.0
 10
55.5569
 20
75.5248
 30
0.0
 10
55.5569
 20
76.0772
 30
0.0
 10
56.0049
 20
76.5253
 30
0.0
 10
56.5573
 20
76.5253
 30
0.0
  0
SPLINE
  5
107
100
AcDbEntity
  8
0
100
AcDbSpline
210
0.0
220
0.0
230
1.0
 62
     0
 70
     0
 71
     3
 72
     8
 73
4
 40
0.0
 40
0.0
 40
0.0
 40
0.0
 40
1.0
 40
1.0
 40
1.0
 40
1.0
 10
56.5573
 20
76.5253
 30
0.0
 10
57.1101
 20
76.5253
 30
0.0
 10
57.5578
 20
76.0772
 30
0.0
 10
57.5578
 20
75.5248
 30
0.0
  0
SPLINE
  5
108
100
AcDbEntity
  8
0
100
AcDbSpline
210
0.0
220
0.0
230
1.0
 62
     0
 70
     0
 71
     3
 72
     8
 73
4
 40
0.0
 40
0.0
 40
0.0
 40
0.0
 40
1.0
 40
1.0
 40
1.0
 40
1.0
 10
57.5578
 20
50.5259
 30
0.0
 10
57.5578
 20
49.9731
 30
0.0
 10
57.1101
 20
49.5254
 30
0.0
 10
56.5573
 20
49.5254
 30
0.0
  0
SPLINE
  5
109
100
AcDbEntity
  8
0
100
AcDbSpline
210
0.0
220
0.0
230
1.0
 62
     0
 70
     0
 71
     3
 72
     8
 73
4
 40
0.0
 40
0.0
 40
0.0
 40
0.0
 40
1.0
 40
1.0
 40
1.0
 40
1.0
 10
56.5573
 20
49.5254
 30
0.0
 10
56.0049
 20
49.5254
 30
0.0
 10
55.5569
 20
49.9731
 30
0.0
 10
55.5569
 20
50.5259
 30
0.0
  0
SPLINE
  5
10a
100
AcDbEntity
  8
0
100
AcDbSpline
210
0.0
220
0.0
230
1.0
 62
     0
 70
     0
 71
     3
 72
     8
 73
4
 40
0.0
 40
0.0
 40
0.0
 40
0.0
 40
1.0
 40
1.0
 40
1.0
 40
1.0
 10
55.5569
 20
50.5259
 30
0.0
 10
55.5569
 20
51.0783
 30
0.0
 10
56.0049
 20
51.525
 30
0.0
 10
56.5573
 20
51.525
 30
0.0
  0
SPLINE
  5
10b
100
AcDbEntity
  8
0
100
AcDbSpline
210
0.0
220
0.0
230
1.0
 62
     0
 70
     0
 71
     3
 72
     8
 73
4
 40
0.0
 40
0.0
 40
0.0
 40
0.0
 40
1.0
 40
1.0
 40
1.0
 40
1.0
 10
56.5573
 20
51.525
 30
0.0
 10
57.1101
 20
51.525
 30
0.0
 10
57.5578
 20
51.0783
 30
0.0
 10
57.5578
 20
50.5259
 30
0.0
  0
LINE
  5
10c
100
AcDbEntity
  8
0
100
AcDbLine
 62
     0
 10
74.5575
 20
46.5254
 30
0.0
 11
65.0572
 21
46.5254
 31
0.0
  0
LINE
  5
10d
100
AcDbEntity
  8
0
100
AcDbLine
 62
     0
 10
63.0576
 20
40.5253
 30
0.0
 11
63.0576
 21
41.5258
 31
0.0
  0
LINE
  5
10e
100
AcDbEntity
  8
0
100
AcDbLine
 62
     0
 10
63.0576
 20
41.5258
 30
0.0
 11
63.0576
 21
102.526
 31
0.0
  0
LINE
  5
10f
100
AcDbEntity
  8
0
100
AcDbLine
 62
     0
 10
63.0576
 20
102.526
 30
0.0
 11
63.0576
 21
103.525
 31
0.0
  0
LINE
  5
110
100
AcDbEntity
  8
0
100
AcDbLine
 62
     0
 10
65.0572
 20
79.5253
 30
0.0
 11
74.5575
 21
79.5253
 31
0.0
  0
LINE
  5
111
100
AcDbEntity
  8
0
100
AcDbLine
 62
     0
 10
74.5575
 20
46.5254
 30
0.0
 11
75.5579
 21
47.5259
 31
0.0
  0
LINE
  5
112
100
AcDbEntity
  8
0
100
AcDbLine
 62
     0
 10
75.5579
 20
47.5259
 30
0.0
 11
75.5579
 21
78.5248
 31
0.0
  0
LINE
  5
113
100
AcDbEntity
  8
0
100
AcDbLine
 62
     0
 10
74.5575
 20
79.5253
 30
0.0
 11
75.5579
 21
78.5248
 31
0.0
  0
SPLINE
  5
114
100
AcDbEntity
  8
0
100
AcDbSpline
210
0.0
220
0.0
230
1.0
 62
     0
 70
     0
 71
     3
 72
     8
 73
4
 40
0.0
 40
0.0
 40
0.0
 40
0.0
 40
1.0
 40
1.0
 40
1.0
 40
1.0
 10
72.5579
 20
50.5259
 30
0.0
 10
72.5579
 20
49.9731
 30
0.0
 10
72.1099
 20
49.5254
 30
0.0
 10
71.5574
 20
49.5254
 30
0.0
  0
SPLINE
  5
115
100
AcDbEntity
  8
0
100
AcDbSpline
210
0.0
220
0.0
230
1.0
 62
     0
 70
     0
 71
     3
 72
     8
 73
4
 40
0.0
 40
0.0
 40
0.0
 40
0.0
 40
1.0
 40
1.0
 40
1.0
 40
1.0
 10
71.5574
 20
49.5254
 30
0.0
 10
71.0046
 20
49.5254
 30
0.0
 10
70.557
 20
49.9731
 30
0.0
 10
70.557
 20
50.5259
 30
0.0
  0
SPLINE
  5
116
100
AcDbEntity
  8
0
100
AcDbSpline
210
0.0
220
0.0
230
1.0
 62
     0
 70
     0
 71
     3
 72
     8
 73
4
 40
0.0
 40
0.0
 40
0.0
 40
0.0
 40
1.0
 40
1.0
 40
1.0
 40
1.0
 10
70.557
 20
50.5259
 30
0.0
 10
70.557
 20
51.0783
 30
0.0
 10
71.0046
 20
51.525
 30
0.0
 10
71.5574
 20
51.525
 30
0.0
  0
SPLINE
  5
117
100
AcDbEntity
  8
0
100
AcDbSpline
210
0.0
220
0.0
230
1.0
 62
     0
 70
     0
 71
     3
 72
     8
 73
4
 40
0.0
 40
0.0
 40
0.0
 40
0.0
 40
1.0
 40
1.0
 40
1.0
 40
1.0
 10
71.5574
 20
51.525
 30
0.0
 10
72.1099
 20
51.525
 30
0.0
 10
72.5579
 20
51.0783
 30
0.0
 10
72.5579
 20
50.5259
 30
0.0
  0
SPLINE
  5
118
100
AcDbEntity
  8
0
100
AcDbSpline
210
0.0
220
0.0
230
1.0
 62
     0
 70
     0
 71
     3
 72
     8
 73
4
 40
0.0
 40
0.0
 40
0.0
 40
0.0
 40
1.0
 40
1.0
 40
1.0
 40
1.0
 10
72.5579
 20
75.5248
 30
0.0
 10
72.5579
 20
74.9734
 30
0.0
 10
72.1099
 20
74.5257
 30
0.0
 10
71.5574
 20
74.5257
 30
0.0
  0
SPLINE
  5
119
100
AcDbEntity
  8
0
100
AcDbSpline
210
0.0
220
0.0
230
1.0
 62
     0
 70
     0
 71
     3
 72
     8
 73
4
 40
0.0
 40
0.0
 40
0.0
 40
0.0
 40
1.0
 40
1.0
 40
1.0
 40
1.0
 10
71.5574
 20
74.5257
 30
0.0
 10
71.0046
 20
74.5257
 30
0.0
 10
70.557
 20
74.9734
 30
0.0
 10
70.557
 20
75.5248
 30
0.0
  0
SPLINE
  5
11a
100
AcDbEntity
  8
0
100
AcDbSpline
210
0.0
220
0.0
230
1.0
 62
     0
 70
     0
 71
     3
 72
     8
 73
4
 40
0.0
 40
0.0
 40
0.0
 40
0.0
 40
1.0
 40
1.0
 40
1.0
 40
1.0
 10
70.557
 20
75.5248
 30
0.0
 10
70.557
 20
76.0772
 30
0.0
 10
71.0046
 20
76.5253
 30
0.0
 10
71.5574
 20
76.5253
 30
0.0
  0
SPLINE
  5
11b
100
AcDbEntity
  8
0
100
AcDbSpline
210
0.0
220
0.0
230
1.0
 62
     0
 70
     0
 71
     3
 72
     8
 73
4
 40
0.0
 40
0.0
 40
0.0
 40
0.0
 40
1.0
 40
1.0
 40
1.0
 40
1.0
 10
71.5574
 20
76.5253
 30
0.0
 10
72.1099
 20
76.5253
 30
0.0
 10
72.5579
 20
76.0772
 30
0.0
 10
72.5579
 20
75.5248
 30
0.0
  0
LINE
  5
11c
100
AcDbEntity
  8
0
100
AcDbLine
 62
     0
 10
63.0576
 20
40.5253
 30
0.0
 11
65.0572
 21
40.5253
 31
0.0
  0
LINE
  5
11d
100
AcDbEntity
  8
0
100
AcDbLine
 62
     0
 10
63.0576
 20
41.5258
 30
0.0
 11
65.0572
 21
41.5258
 31
0.0
  0
LINE
  5
11e
100
AcDbEntity
  8
0
100
AcDbLine
 62
     0
 10
65.0572
 20
40.5253
 30
0.0
 11
65.0572
 21
41.5258
 31
0.0
  0
LINE
  5
11f
100
AcDbEntity
  8
0
100
AcDbLine
 62
     0
 10
63.0576
 20
102.526
 30
0.0
 11
65.0572
 21
102.526
 31
0.0
  0
LINE
  5
120
100
AcDbEntity
  8
0
100
AcDbLine
 62
     0
 10
65.0572
 20
41.5258
 30
0.0
 11
65.0572
 21
102.526
 31
0.0
  0
LINE
  5
121
100
AcDbEntity
  8
0
100
AcDbLine
 62
     0
 10
63.0576
 20
103.525
 30
0.0
 11
65.0572
 21
103.525
 31
0.0
  0
LINE
  5
122
100
AcDbEntity
  8
0
100
AcDbLine
 62
     0
 10
65.0572
 20
102.526
 30
0.0
 11
65.0572
 21
103.525
 31
0.0
  0
LINE
  5
123
100
AcDbEntity
  8
0
100
AcDbLine
 62
     0
 10
56.5573
 20
75.1251
 30
0.0
 11
56.5573
 21
75.9259
 31
0.0
  0
LINE
  5
124
100
AcDbEntity
  8
0
100
AcDbLine
 62
     0
 10
56.957
 20
75.5248
 30
0.0
 11
56.158
 21
75.5248
 31
0.0
  0
LINE
  5
125
100
AcDbEntity
  8
0
100
AcDbLine
 62
     0
 10
56.5573
 20
75.1251
 30
0.0
 11
56.5573
 21
75.9259
 31
0.0
  0
LINE
  5
126
100
AcDbEntity
  8
0
100
AcDbLine
 62
     0
 10
56.957
 20
75.5248
 30
0.0
 11
56.158
 21
75.5248
 31
0.0
  0
LINE
  5
127
100
AcDbEntity
  8
0
100
AcDbLine
 62
     0
 10
56.5573
 20
50.1248
 30
0.0
 11
56.5573
 21
50.9252
 31
0.0
  0
LINE
  5
128
100
AcDbEntity
  8
0
100
AcDbLine
 62
     0
 10
56.957
 20
50.5259
 30
0.0
 11
56.158
 21
50.5259
 31
0.0
  0
LINE
  5
129
100
AcDbEntity
  8
0
100
AcDbLine
 62
     0
 10
56.5573
 20
50.1248
 30
0.0
 11
56.5573
 21
50.9252
 31
0.0
  0
LINE
  5
12a
100
AcDbEntity
  8
0
100
AcDbLine
 62
     0
 10
56.957
 20
50.5259
 30
0.0
 11
56.158
 21
50.5259
 31
0.0
  0
LINE
  5
12b
100
AcDbEntity
  8
0
100
AcDbLine
 62
     0
 10
71.5574
 20
50.1248
 30
0.0
 11
71.5574
 21
50.9252
 31
0.0
  0
LINE
  5
12c
100
AcDbEntity
  8
0
100
AcDbLine
 62
     0
 10
71.9571
 20
50.5259
 30
0.0
 11
71.1577
 21
50.5259
 31
0.0
  0
LINE
  5
12d
100
AcDbEntity
  8
0
100
AcDbLine
 62
     0
 10
71.5574
 20
50.1248
 30
0.0
 11
71.5574
 21
50.9252
 31
0.0
  0
LINE
  5
12e
100
AcDbEntity
  8
0
100
AcDbLine
 62
     0
 10
71.9571
 20
50.5259
 30
0.0
 11
71.1577
 21
50.5259
 31
0.0
  0
LINE
  5
12f
100
AcDbEntity
  8
0
100
AcDbLine
 62
     0
 10
71.5574
 20
75.1251
 30
0.0
 11
71.5574
 21
75.9259
 31
0.0
  0
LINE
  5
130
100
AcDbEntity
  8
0
100
AcDbLine
 62
     0
 10
71.9571
 20
75.5248
 30
0.0
 11
71.1577
 21
75.5248
 31
0.0
  0
LINE
  5
131
100
AcDbEntity
  8
0
100
AcDbLine
 62
     0
 10
71.5574
 20
75.1251
 30
0.0
 11
71.5574
 21
75.9259
 31
0.0
  0
LINE
  5
132
100
AcDbEntity
  8
0
100
AcDbLine
 62
     0
 10
71.9571
 20
75.5248
 30
0.0
 11
71.1577
 21
75.5248
 31
0.0
  0
LINE
  5
133
100
AcDbEntity
  8
0
100
AcDbLine
 62
     0
 10
107.158
 20
47.5259
 30
0.0
 11
107.158
 21
78.5248
 31
0.0
  0
LINE
  5
134
100
AcDbEntity
  8
0
100
AcDbLine
 62
     0
 10
107.158
 20
47.5259
 30
0.0
 11
105.958
 21
47.5259
 31
0.0
  0
LINE
  5
135
100
AcDbEntity
  8
0
100
AcDbLine
 62
     0
 10
105.958
 20
78.5248
 30
0.0
 11
107.158
 21
78.5248
 31
0.0
  0
LINE
  5
136
100
AcDbEntity
  8
0
100
AcDbLine
 62
     0
 10
105.958
 20
47.5259
 30
0.0
 11
105.958
 21
78.5248
 31
0.0
  0
LINE
  5
137
100
AcDbEntity
  8
0
100
AcDbLine
 62
     0
 10
107.158
 20
47.5259
 30
0.0
 11
107.158
 21
46.5254
 31
0.0
  0
LINE
  5
138
100
AcDbEntity
  8
0
100
AcDbLine
 62
     0
 10
107.158
 20
78.5248
 30
0.0
 11
107.158
 21
79.5253
 31
0.0
  0
LINE
  5
139
100
AcDbEntity
  8
0
100
AcDbLine
 62
     0
 10
107.158
 20
46.5254
 30
0.0
 11
105.958
 21
46.5254
 31
0.0
  0
LINE
  5
13a
100
AcDbEntity
  8
0
100
AcDbLine
 62
     0
 10
105.958
 20
47.5259
 30
0.0
 11
105.958
 21
46.5254
 31
0.0
  0
LINE
  5
13b
100
AcDbEntity
  8
0
100
AcDbLine
 62
     0
 10
105.958
 20
78.5248
 30
0.0
 11
105.958
 21
79.5253
 31
0.0
  0
LINE
  5
13c
100
AcDbEntity
  8
0
100
AcDbLine
 62
     0
 10
105.958
 20
79.5253
 30
0.0
 11
107.158
 21
79.5253
 31
0.0
  0
LINE
  5
13d
100
AcDbEntity
  8
0
100
AcDbLine
 62
     0
 10
107.158
 20
41.5258
 30
0.0
 11
107.158
 21
46.5254
 31
0.0
  0
LINE
  5
13e
100
AcDbEntity
  8
0
100
AcDbLine
 62
     0
 10
107.158
 20
41.5258
 30
0.0
 11
108.157
 21
40.5253
 31
0.0
  0
LINE
  5
13f
100
AcDbEntity
  8
0
100
AcDbLine
 62
     0
 10
108.157
 20
40.5253
 30
0.0
 11
117.157
 21
40.5253
 31
0.0
  0
LINE
  5
140
100
AcDbEntity
  8
0
100
AcDbLine
 62
     0
 10
107.158
 20
79.5253
 30
0.0
 11
107.158
 21
102.526
 31
0.0
  0
LINE
  5
141
100
AcDbEntity
  8
0
100
AcDbLine
 62
     0
 10
117.157
 20
40.5253
 30
0.0
 11
118.157
 21
41.5258
 31
0.0
  0
LINE
  5
142
100
AcDbEntity
  8
0
100
AcDbLine
 62
     0
 10
107.158
 20
102.526
 30
0.0
 11
108.157
 21
103.525
 31
0.0
  0
LINE
  5
143
100
AcDbEntity
  8
0
100
AcDbLine
 62
     0
 10
118.157
 20
41.5258
 30
0.0
 11
118.157
 21
102.526
 31
0.0
  0
LINE
  5
144
100
AcDbEntity
  8
0
100
AcDbLine
 62
     0
 10
108.157
 20
103.525
 30
0.0
 11
117.157
 21
103.525
 31
0.0
  0
LINE
  5
145
100
AcDbEntity
  8
0
100
AcDbLine
 62
     0
 10
118.157
 20
102.526
 30
0.0
 11
117.157
 21
103.525
 31
0.0
  0
SPLINE
  5
146
100
AcDbEntity
  8
0
100
AcDbSpline
210
0.0
220
0.0
230
1.0
 62
     0
 70
     0
 71
     3
 72
     8
 73
4
 40
0.0
 40
0.0
 40
0.0
 40
0.0
 40
1.0
 40
1.0
 40
1.0
 40
1.0
 10
114.157
 20
54.0262
 30
0.0
 10
114.157
 20
53.4734
 30
0.0
 10
113.71
 20
53.0257
 30
0.0
 10
113.158
 20
53.0257
 30
0.0
  0
SPLINE
  5
147
100
AcDbEntity
  8
0
100
AcDbSpline
210
0.0
220
0.0
230
1.0
 62
     0
 70
     0
 71
     3
 72
     8
 73
4
 40
0.0
 40
0.0
 40
0.0
 40
0.0
 40
1.0
 40
1.0
 40
1.0
 40
1.0
 10
113.158
 20
53.0257
 30
0.0
 10
112.605
 20
53.0257
 30
0.0
 10
112.157
 20
53.4734
 30
0.0
 10
112.157
 20
54.0262
 30
0.0
  0
SPLINE
  5
148
100
AcDbEntity
  8
0
100
AcDbSpline
210
0.0
220
0.0
230
1.0
 62
     0
 70
     0
 71
     3
 72
     8
 73
4
 40
0.0
 40
0.0
 40
0.0
 40
0.0
 40
1.0
 40
1.0
 40
1.0
 40
1.0
 10
112.157
 20
54.0262
 30
0.0
 10
112.157
 20
54.5772
 30
0.0
 10
112.605
 20
55.0252
 30
0.0
 10
113.158
 20
55.0252
 30
0.0
  0
SPLINE
  5
149
100
AcDbEntity
  8
0
100
AcDbSpline
210
0.0
220
0.0
230
1.0
 62
     0
 70
     0
 71
     3
 72
     8
 73
4
 40
0.0
 40
0.0
 40
0.0
 40
0.0
 40
1.0
 40
1.0
 40
1.0
 40
1.0
 10
113.158
 20
55.0252
 30
0.0
 10
113.71
 20
55.0252
 30
0.0
 10
114.157
 20
54.5772
 30
0.0
 10
114.157
 20
54.0262
 30
0.0
  0
SPLINE
  5
14a
100
AcDbEntity
  8
0
100
AcDbSpline
210
0.0
220
0.0
230
1.0
 62
     0
 70
     0
 71
     3
 72
     8
 73
4
 40
0.0
 40
0.0
 40
0.0
 40
0.0
 40
1.0
 40
1.0
 40
1.0
 40
1.0
 10
114.157
 20
45.0261
 30
0.0
 10
114.157
 20
44.4733
 30
0.0
 10
113.71
 20
44.0256
 30
0.0
 10
113.158
 20
44.0256
 30
0.0
  0
SPLINE
  5
14b
100
AcDbEntity
  8
0
100
AcDbSpline
210
0.0
220
0.0
230
1.0
 62
     0
 70
     0
 71
     3
 72
     8
 73
4
 40
0.0
 40
0.0
 40
0.0
 40
0.0
 40
1.0
 40
1.0
 40
1.0
 40
1.0
 10
113.158
 20
44.0256
 30
0.0
 10
112.605
 20
44.0256
 30
0.0
 10
112.157
 20
44.4733
 30
0.0
 10
112.157
 20
45.0261
 30
0.0
  0
SPLINE
  5
14c
100
AcDbEntity
  8
0
100
AcDbSpline
210
0.0
220
0.0
230
1.0
 62
     0
 70
     0
 71
     3
 72
     8
 73
4
 40
0.0
 40
0.0
 40
0.0
 40
0.0
 40
1.0
 40
1.0
 40
1.0
 40
1.0
 10
112.157
 20
45.0261
 30
0.0
 10
112.157
 20
45.5771
 30
0.0
 10
112.605
 20
46.0252
 30
0.0
 10
113.158
 20
46.0252
 30
0.0
  0
SPLINE
  5
14d
100
AcDbEntity
  8
0
100
AcDbSpline
210
0.0
220
0.0
230
1.0
 62
     0
 70
     0
 71
     3
 72
     8
 73
4
 40
0.0
 40
0.0
 40
0.0
 40
0.0
 40
1.0
 40
1.0
 40
1.0
 40
1.0
 10
113.158
 20
46.0252
 30
0.0
 10
113.71
 20
46.0252
 30
0.0
 10
114.157
 20
45.5771
 30
0.0
 10
114.157
 20
45.0261
 30
0.0
  0
SPLINE
  5
14e
100
AcDbEntity
  8
0
100
AcDbSpline
210
0.0
220
0.0
230
1.0
 62
     0
 70
     0
 71
     3
 72
     8
 73
4
 40
0.0
 40
0.0
 40
0.0
 40
0.0
 40
1.0
 40
1.0
 40
1.0
 40
1.0
 10
114.157
 20
99.0258
 30
0.0
 10
114.157
 20
98.4733
 30
0.0
 10
113.71
 20
98.0253
 30
0.0
 10
113.158
 20
98.0253
 30
0.0
  0
SPLINE
  5
14f
100
AcDbEntity
  8
0
100
AcDbSpline
210
0.0
220
0.0
230
1.0
 62
     0
 70
     0
 71
     3
 72
     8
 73
4
 40
0.0
 40
0.0
 40
0.0
 40
0.0
 40
1.0
 40
1.0
 40
1.0
 40
1.0
 10
113.158
 20
98.0253
 30
0.0
 10
112.605
 20
98.0253
 30
0.0
 10
112.157
 20
98.4733
 30
0.0
 10
112.157
 20
99.0258
 30
0.0
  0
SPLINE
  5
150
100
AcDbEntity
  8
0
100
AcDbSpline
210
0.0
220
0.0
230
1.0
 62
     0
 70
     0
 71
     3
 72
     8
 73
4
 40
0.0
 40
0.0
 40
0.0
 40
0.0
 40
1.0
 40
1.0
 40
1.0
 40
1.0
 10
112.157
 20
99.0258
 30
0.0
 10
112.157
 20
99.5772
 30
0.0
 10
112.605
 20
100.025
 30
0.0
 10
113.158
 20
100.025
 30
0.0
  0
SPLINE
  5
151
100
AcDbEntity
  8
0
100
AcDbSpline
210
0.0
220
0.0
230
1.0
 62
     0
 70
     0
 71
     3
 72
     8
 73
4
 40
0.0
 40
0.0
 40
0.0
 40
0.0
 40
1.0
 40
1.0
 40
1.0
 40
1.0
 10
113.158
 20
100.025
 30
0.0
 10
113.71
 20
100.025
 30
0.0
 10
114.157
 20
99.5772
 30
0.0
 10
114.157
 20
99.0258
 30
0.0
  0
SPLINE
  5
152
100
AcDbEntity
  8
0
100
AcDbSpline
210
0.0
220
0.0
230
1.0
 62
     0
 70
     0
 71
     3
 72
     8
 73
4
 40
0.0
 40
0.0
 40
0.0
 40
0.0
 40
1.0
 40
1.0
 40
1.0
 40
1.0
 10
114.157
 20
90.0257
 30
0.0
 10
114.157
 20
89.4733
 30
0.0
 10
113.71
 20
89.0252
 30
0.0
 10
113.158
 20
89.0252
 30
0.0
  0
SPLINE
  5
153
100
AcDbEntity
  8
0
100
AcDbSpline
210
0.0
220
0.0
230
1.0
 62
     0
 70
     0
 71
     3
 72
     8
 73
4
 40
0.0
 40
0.0
 40
0.0
 40
0.0
 40
1.0
 40
1.0
 40
1.0
 40
1.0
 10
113.158
 20
89.0252
 30
0.0
 10
112.605
 20
89.0252
 30
0.0
 10
112.157
 20
89.4733
 30
0.0
 10
112.157
 20
90.0257
 30
0.0
  0
SPLINE
  5
154
100
AcDbEntity
  8
0
100
AcDbSpline
210
0.0
220
0.0
230
1.0
 62
     0
 70
     0
 71
     3
 72
     8
 73
4
 40
0.0
 40
0.0
 40
0.0
 40
0.0
 40
1.0
 40
1.0
 40
1.0
 40
1.0
 10
112.157
 20
90.0257
 30
0.0
 10
112.157
 20
90.5771
 30
0.0
 10
112.605
 20
91.0248
 30
0.0
 10
113.158
 20
91.0248
 30
0.0
  0
SPLINE
  5
155
100
AcDbEntity
  8
0
100
AcDbSpline
210
0.0
220
0.0
230
1.0
 62
     0
 70
     0
 71
     3
 72
     8
 73
4
 40
0.0
 40
0.0
 40
0.0
 40
0.0
 40
1.0
 40
1.0
 40
1.0
 40
1.0
 10
113.158
 20
91.0248
 30
0.0
 10
113.71
 20
91.0248
 30
0.0
 10
114.157
 20
90.5771
 30
0.0
 10
114.157
 20
90.0257
 30
0.0
  0
LINE
  5
156
100
AcDbEntity
  8
0
100
AcDbLine
 62
     0
 10
113.158
 20
53.625
 30
0.0
 11
113.158
 21
54.4255
 31
0.0
  0
LINE
  5
157
100
AcDbEntity
  8
0
100
AcDbLine
 62
     0
 10
113.557
 20
54.0262
 30
0.0
 11
112.758
 21
54.0262
 31
0.0
  0
LINE
  5
158
100
AcDbEntity
  8
0
100
AcDbLine
 62
     0
 10
113.158
 20
53.625
 30
0.0
 11
113.158
 21
54.4255
 31
0.0
  0
LINE
  5
159
100
AcDbEntity
  8
0
100
AcDbLine
 62
     0
 10
113.557
 20
54.0262
 30
0.0
 11
112.758
 21
54.0262
 31
0.0
  0
LINE
  5
15a
100
AcDbEntity
  8
0
100
AcDbLine
 62
     0
 10
113.158
 20
44.625
 30
0.0
 11
113.158
 21
45.4258
 31
0.0
  0
LINE
  5
15b
100
AcDbEntity
  8
0
100
AcDbLine
 62
     0
 10
113.557
 20
45.0261
 30
0.0
 11
112.758
 21
45.0261
 31
0.0
  0
LINE
  5
15c
100
AcDbEntity
  8
0
100
AcDbLine
 62
     0
 10
113.158
 20
44.625
 30
0.0
 11
113.158
 21
45.4258
 31
0.0
  0
LINE
  5
15d
100
AcDbEntity
  8
0
100
AcDbLine
 62
     0
 10
113.557
 20
45.0261
 30
0.0
 11
112.758
 21
45.0261
 31
0.0
  0
LINE
  5
15e
100
AcDbEntity
  8
0
100
AcDbLine
 62
     0
 10
113.158
 20
98.6247
 30
0.0
 11
113.158
 21
99.4255
 31
0.0
  0
LINE
  5
15f
100
AcDbEntity
  8
0
100
AcDbLine
 62
     0
 10
113.557
 20
99.0258
 30
0.0
 11
112.758
 21
99.0258
 31
0.0
  0
LINE
  5
160
100
AcDbEntity
  8
0
100
AcDbLine
 62
     0
 10
113.158
 20
98.6247
 30
0.0
 11
113.158
 21
99.4255
 31
0.0
  0
LINE
  5
161
100
AcDbEntity
  8
0
100
AcDbLine
 62
     0
 10
113.557
 20
99.0258
 30
0.0
 11
112.758
 21
99.0258
 31
0.0
  0
LINE
  5
162
100
AcDbEntity
  8
0
100
AcDbLine
 62
     0
 10
113.158
 20
89.625
 30
0.0
 11
113.158
 21
90.4254
 31
0.0
  0
LINE
  5
163
100
AcDbEntity
  8
0
100
AcDbLine
 62
     0
 10
113.557
 20
90.0257
 30
0.0
 11
112.758
 21
90.0257
 31
0.0
  0
LINE
  5
164
100
AcDbEntity
  8
0
100
AcDbLine
 62
     0
 10
113.158
 20
89.625
 30
0.0
 11
113.158
 21
90.4254
 31
0.0
  0
LINE
  5
165
100
AcDbEntity
  8
0
100
AcDbLine
 62
     0
 10
113.557
 20
90.0257
 30
0.0
 11
112.758
 21
90.0257
 31
0.0
  0
LINE
  5
166
100
AcDbEntity
  8
0
100
AcDbLine
 62
     0
 10
171.558
 20
47.5259
 30
0.0
 11
171.558
 21
78.5248
 31
0.0
  0
LINE
  5
167
100
AcDbEntity
  8
0
100
AcDbLine
 62
     0
 10
171.558
 20
47.5259
 30
0.0
 11
170.557
 21
46.5254
 31
0.0
  0
LINE
  5
168
100
AcDbEntity
  8
0
100
AcDbLine
 62
     0
 10
171.558
 20
78.5248
 30
0.0
 11
170.557
 21
79.5253
 31
0.0
  0
LINE
  5
169
100
AcDbEntity
  8
0
100
AcDbLine
 62
     0
 10
170.557
 20
46.5254
 30
0.0
 11
149.557
 21
46.5254
 31
0.0
  0
LINE
  5
16a
100
AcDbEntity
  8
0
100
AcDbLine
 62
     0
 10
149.557
 20
46.5254
 30
0.0
 11
148.558
 21
47.5259
 31
0.0
  0
LINE
  5
16b
100
AcDbEntity
  8
0
100
AcDbLine
 62
     0
 10
148.558
 20
47.5259
 30
0.0
 11
148.558
 21
78.5248
 31
0.0
  0
LINE
  5
16c
100
AcDbEntity
  8
0
100
AcDbLine
 62
     0
 10
149.557
 20
79.5253
 30
0.0
 11
148.558
 21
78.5248
 31
0.0
  0
LINE
  5
16d
100
AcDbEntity
  8
0
100
AcDbLine
 62
     0
 10
149.557
 20
79.5253
 30
0.0
 11
170.557
 21
79.5253
 31
0.0
  0
SPLINE
  5
16e
100
AcDbEntity
  8
0
100
AcDbSpline
210
0.0
220
0.0
230
1.0
 62
     0
 70
     0
 71
     3
 72
     8
 73
4
 40
0.0
 40
0.0
 40
0.0
 40
0.0
 40
1.0
 40
1.0
 40
1.0
 40
1.0
 10
168.558
 20
50.5259
 30
0.0
 10
168.558
 20
49.9731
 30
0.0
 10
168.11
 20
49.5254
 30
0.0
 10
167.557
 20
49.5254
 30
0.0
  0
SPLINE
  5
16f
100
AcDbEntity
  8
0
100
AcDbSpline
210
0.0
220
0.0
230
1.0
 62
     0
 70
     0
 71
     3
 72
     8
 73
4
 40
0.0
 40
0.0
 40
0.0
 40
0.0
 40
1.0
 40
1.0
 40
1.0
 40
1.0
 10
167.557
 20
49.5254
 30
0.0
 10
167.004
 20
49.5254
 30
0.0
 10
166.558
 20
49.9731
 30
0.0
 10
166.558
 20
50.5259
 30
0.0
  0
SPLINE
  5
170
100
AcDbEntity
  8
0
100
AcDbSpline
210
0.0
220
0.0
230
1.0
 62
     0
 70
     0
 71
     3
 72
     8
 73
4
 40
0.0
 40
0.0
 40
0.0
 40
0.0
 40
1.0
 40
1.0
 40
1.0
 40
1.0
 10
166.558
 20
50.5259
 30
0.0
 10
166.558
 20
51.0783
 30
0.0
 10
167.004
 20
51.525
 30
0.0
 10
167.557
 20
51.525
 30
0.0
  0
SPLINE
  5
171
100
AcDbEntity
  8
0
100
AcDbSpline
210
0.0
220
0.0
230
1.0
 62
     0
 70
     0
 71
     3
 72
     8
 73
4
 40
0.0
 40
0.0
 40
0.0
 40
0.0
 40
1.0
 40
1.0
 40
1.0
 40
1.0
 10
167.557
 20
51.525
 30
0.0
 10
168.11
 20
51.525
 30
0.0
 10
168.558
 20
51.0783
 30
0.0
 10
168.558
 20
50.5259
 30
0.0
  0
SPLINE
  5
172
100
AcDbEntity
  8
0
100
AcDbSpline
210
0.0
220
0.0
230
1.0
 62
     0
 70
     0
 71
     3
 72
     8
 73
4
 40
0.0
 40
0.0
 40
0.0
 40
0.0
 40
1.0
 40
1.0
 40
1.0
 40
1.0
 10
153.557
 20
50.5259
 30
0.0
 10
153.557
 20
49.9731
 30
0.0
 10
153.11
 20
49.5254
 30
0.0
 10
152.557
 20
49.5254
 30
0.0
  0
SPLINE
  5
173
100
AcDbEntity
  8
0
100
AcDbSpline
210
0.0
220
0.0
230
1.0
 62
     0
 70
     0
 71
     3
 72
     8
 73
4
 40
0.0
 40
0.0
 40
0.0
 40
0.0
 40
1.0
 40
1.0
 40
1.0
 40
1.0
 10
152.557
 20
49.5254
 30
0.0
 10
152.005
 20
49.5254
 30
0.0
 10
151.558
 20
49.9731
 30
0.0
 10
151.558
 20
50.5259
 30
0.0
  0
SPLINE
  5
174
100
AcDbEntity
  8
0
100
AcDbSpline
210
0.0
220
0.0
230
1.0
 62
     0
 70
     0
 71
     3
 72
     8
 73
4
 40
0.0
 40
0.0
 40
0.0
 40
0.0
 40
1.0
 40
1.0
 40
1.0
 40
1.0
 10
151.558
 20
50.5259
 30
0.0
 10
151.558
 20
51.0783
 30
0.0
 10
152.005
 20
51.525
 30
0.0
 10
152.557
 20
51.525
 30
0.0
  0
SPLINE
  5
175
100
AcDbEntity
  8
0
100
AcDbSpline
210
0.0
220
0.0
230
1.0
 62
     0
 70
     0
 71
     3
 72
     8
 73
4
 40
0.0
 40
0.0
 40
0.0
 40
0.0
 40
1.0
 40
1.0
 40
1.0
 40
1.0
 10
152.557
 20
51.525
 30
0.0
 10
153.11
 20
51.525
 30
0.0
 10
153.557
 20
51.0783
 30
0.0
 10
153.557
 20
50.5259
 30
0.0
  0
SPLINE
  5
176
100
AcDbEntity
  8
0
100
AcDbSpline
210
0.0
220
0.0
230
1.0
 62
     0
 70
     0
 71
     3
 72
     8
 73
4
 40
0.0
 40
0.0
 40
0.0
 40
0.0
 40
1.0
 40
1.0
 40
1.0
 40
1.0
 10
153.557
 20
75.5248
 30
0.0
 10
153.557
 20
74.9734
 30
0.0
 10
153.11
 20
74.5257
 30
0.0
 10
152.557
 20
74.5257
 30
0.0
  0
SPLINE
  5
177
100
AcDbEntity
  8
0
100
AcDbSpline
210
0.0
220
0.0
230
1.0
 62
     0
 70
     0
 71
     3
 72
     8
 73
4
 40
0.0
 40
0.0
 40
0.0
 40
0.0
 40
1.0
 40
1.0
 40
1.0
 40
1.0
 10
152.557
 20
74.5257
 30
0.0
 10
152.005
 20
74.5257
 30
0.0
 10
151.558
 20
74.9734
 30
0.0
 10
151.558
 20
75.5248
 30
0.0
  0
SPLINE
  5
178
100
AcDbEntity
  8
0
100
AcDbSpline
210
0.0
220
0.0
230
1.0
 62
     0
 70
     0
 71
     3
 72
     8
 73
4
 40
0.0
 40
0.0
 40
0.0
 40
0.0
 40
1.0
 40
1.0
 40
1.0
 40
1.0
 10
151.558
 20
75.5248
 30
0.0
 10
151.558
 20
76.0772
 30
0.0
 10
152.005
 20
76.5253
 30
0.0
 10
152.557
 20
76.5253
 30
0.0
  0
SPLINE
  5
179
100
AcDbEntity
  8
0
100
AcDbSpline
210
0.0
220
0.0
230
1.0
 62
     0
 70
     0
 71
     3
 72
     8
 73
4
 40
0.0
 40
0.0
 40
0.0
 40
0.0
 40
1.0
 40
1.0
 40
1.0
 40
1.0
 10
152.557
 20
76.5253
 30
0.0
 10
153.11
 20
76.5253
 30
0.0
 10
153.557
 20
76.0772
 30
0.0
 10
153.557
 20
75.5248
 30
0.0
  0
SPLINE
  5
17a
100
AcDbEntity
  8
0
100
AcDbSpline
210
0.0
220
0.0
230
1.0
 62
     0
 70
     0
 71
     3
 72
     8
 73
4
 40
0.0
 40
0.0
 40
0.0
 40
0.0
 40
1.0
 40
1.0
 40
1.0
 40
1.0
 10
168.558
 20
75.5248
 30
0.0
 10
168.558
 20
74.9734
 30
0.0
 10
168.11
 20
74.5257
 30
0.0
 10
167.557
 20
74.5257
 30
0.0
  0
SPLINE
  5
17b
100
AcDbEntity
  8
0
100
AcDbSpline
210
0.0
220
0.0
230
1.0
 62
     0
 70
     0
 71
     3
 72
     8
 73
4
 40
0.0
 40
0.0
 40
0.0
 40
0.0
 40
1.0
 40
1.0
 40
1.0
 40
1.0
 10
167.557
 20
74.5257
 30
0.0
 10
167.004
 20
74.5257
 30
0.0
 10
166.558
 20
74.9734
 30
0.0
 10
166.558
 20
75.5248
 30
0.0
  0
SPLINE
  5
17c
100
AcDbEntity
  8
0
100
AcDbSpline
210
0.0
220
0.0
230
1.0
 62
     0
 70
     0
 71
     3
 72
     8
 73
4
 40
0.0
 40
0.0
 40
0.0
 40
0.0
 40
1.0
 40
1.0
 40
1.0
 40
1.0
 10
166.558
 20
75.5248
 30
0.0
 10
166.558
 20
76.0772
 30
0.0
 10
167.004
 20
76.5253
 30
0.0
 10
167.557
 20
76.5253
 30
0.0
  0
SPLINE
  5
17d
100
AcDbEntity
  8
0
100
AcDbSpline
210
0.0
220
0.0
230
1.0
 62
     0
 70
     0
 71
     3
 72
     8
 73
4
 40
0.0
 40
0.0
 40
0.0
 40
0.0
 40
1.0
 40
1.0
 40
1.0
 40
1.0
 10
167.557
 20
76.5253
 30
0.0
 10
168.11
 20
76.5253
 30
0.0
 10
168.558
 20
76.0772
 30
0.0
 10
168.558
 20
75.5248
 30
0.0
  0
LINE
  5
17e
100
AcDbEntity
  8
0
100
AcDbLine
 62
     0
 10
161.057
 20
41.5258
 30
0.0
 11
161.057
 21
46.5254
 31
0.0
  0
LINE
  5
17f
100
AcDbEntity
  8
0
100
AcDbLine
 62
     0
 10
161.057
 20
41.5258
 30
0.0
 11
161.057
 21
40.5253
 31
0.0
  0
LINE
  5
180
100
AcDbEntity
  8
0
100
AcDbLine
 62
     0
 10
161.057
 20
79.5253
 30
0.0
 11
161.057
 21
102.526
 31
0.0
  0
LINE
  5
181
100
AcDbEntity
  8
0
100
AcDbLine
 62
     0
 10
161.057
 20
102.526
 30
0.0
 11
161.057
 21
103.525
 31
0.0
  0
LINE
  5
182
100
AcDbEntity
  8
0
100
AcDbLine
 62
     0
 10
159.057
 20
41.5258
 30
0.0
 11
161.057
 21
41.5258
 31
0.0
  0
LINE
  5
183
100
AcDbEntity
  8
0
100
AcDbLine
 62
     0
 10
159.057
 20
41.5258
 30
0.0
 11
159.057
 21
46.5254
 31
0.0
  0
LINE
  5
184
100
AcDbEntity
  8
0
100
AcDbLine
 62
     0
 10
159.057
 20
41.5258
 30
0.0
 11
159.057
 21
40.5253
 31
0.0
  0
LINE
  5
185
100
AcDbEntity
  8
0
100
AcDbLine
 62
     0
 10
159.057
 20
40.5253
 30
0.0
 11
161.057
 21
40.5253
 31
0.0
  0
LINE
  5
186
100
AcDbEntity
  8
0
100
AcDbLine
 62
     0
 10
159.057
 20
79.5253
 30
0.0
 11
159.057
 21
102.526
 31
0.0
  0
LINE
  5
187
100
AcDbEntity
  8
0
100
AcDbLine
 62
     0
 10
159.057
 20
102.526
 30
0.0
 11
161.057
 21
102.526
 31
0.0
  0
SPLINE
  5
188
100
AcDbEntity
  8
0
100
AcDbSpline
210
0.0
220
0.0
230
1.0
 62
     0
 70
     0
 71
     3
 72
     8
 73
4
 40
0.0
 40
0.0
 40
0.0
 40
0.0
 40
1.0
 40
1.0
 40
1.0
 40
1.0
 10
159.558
 20
94.525
 30
0.0
 10
159.558
 20
94.404
 30
0.0
 10
159.603
 20
94.2827
 30
0.0
 10
159.684
 20
94.1931
 30
0.0
  0
SPLINE
  5
189
100
AcDbEntity
  8
0
100
AcDbSpline
210
0.0
220
0.0
230
1.0
 62
     0
 70
     0
 71
     3
 72
     8
 73
4
 40
0.0
 40
0.0
 40
0.0
 40
0.0
 40
1.0
 40
1.0
 40
1.0
 40
1.0
 10
159.684
 20
94.1931
 30
0.0
 10
159.766
 20
94.1007
 30
0.0
 10
159.88
 20
94.0414
 30
0.0
 10
160.001
 20
94.029
 30
0.0
  0
SPLINE
  5
18a
100
AcDbEntity
  8
0
100
AcDbSpline
210
0.0
220
0.0
230
1.0
 62
     0
 70
     0
 71
     3
 72
     8
 73
4
 40
0.0
 40
0.0
 40
0.0
 40
0.0
 40
1.0
 40
1.0
 40
1.0
 40
1.0
 10
160.001
 20
94.029
 30
0.0
 10
160.152
 20
94.011
 30
0.0
 10
160.307
 20
94.0664
 30
0.0
 10
160.413
 20
94.1737
 30
0.0
  0
SPLINE
  5
18b
100
AcDbEntity
  8
0
100
AcDbSpline
210
0.0
220
0.0
230
1.0
 62
     0
 70
     0
 71
     3
 72
     8
 73
4
 40
0.0
 40
0.0
 40
0.0
 40
0.0
 40
1.0
 40
1.0
 40
1.0
 40
1.0
 10
160.413
 20
94.1737
 30
0.0
 10
160.499
 20
94.2605
 30
0.0
 10
160.551
 20
94.379
 30
0.0
 10
160.557
 20
94.5003
 30
0.0
  0
SPLINE
  5
18c
100
AcDbEntity
  8
0
100
AcDbSpline
210
0.0
220
0.0
230
1.0
 62
     0
 70
     0
 71
     3
 72
     8
 73
4
 40
0.0
 40
0.0
 40
0.0
 40
0.0
 40
1.0
 40
1.0
 40
1.0
 40
1.0
 10
160.557
 20
94.5003
 30
0.0
 10
160.565
 20
94.6506
 30
0.0
 10
160.5
 20
94.8034
 30
0.0
 10
160.386
 20
94.9029
 30
0.0
  0
SPLINE
  5
18d
100
AcDbEntity
  8
0
100
AcDbSpline
210
0.0
220
0.0
230
1.0
 62
     0
 70
     0
 71
     3
 72
     8
 73
4
 40
0.0
 40
0.0
 40
0.0
 40
0.0
 40
1.0
 40
1.0
 40
1.0
 40
1.0
 10
160.386
 20
94.9029
 30
0.0
 10
160.295
 20
94.9826
 30
0.0
 10
160.172
 20
95.0267
 30
0.0
 10
160.051
 20
95.0253
 30
0.0
  0
SPLINE
  5
18e
100
AcDbEntity
  8
0
100
AcDbSpline
210
0.0
220
0.0
230
1.0
 62
     0
 70
     0
 71
     3
 72
     8
 73
4
 40
0.0
 40
0.0
 40
0.0
 40
0.0
 40
1.0
 40
1.0
 40
1.0
 40
1.0
 10
160.051
 20
95.0253
 30
0.0
 10
159.93
 20
95.0239
 30
0.0
 10
159.81
 20
94.9773
 30
0.0
 10
159.72
 20
94.8944
 30
0.0
  0
SPLINE
  5
18f
100
AcDbEntity
  8
0
100
AcDbSpline
210
0.0
220
0.0
230
1.0
 62
     0
 70
     0
 71
     3
 72
     8
 73
4
 40
0.0
 40
0.0
 40
0.0
 40
0.0
 40
1.0
 40
1.0
 40
1.0
 40
1.0
 10
159.72
 20
94.8944
 30
0.0
 10
159.617
 20
94.8009
 30
0.0
 10
159.556
 20
94.6644
 30
0.0
 10
159.558
 20
94.525
 30
0.0
  0
LINE
  5
190
100
AcDbEntity
  8
0
100
AcDbLine
 62
     0
 10
159.057
 20
102.526
 30
0.0
 11
159.057
 21
103.525
 31
0.0
  0
LINE
  5
191
100
AcDbEntity
  8
0
100
AcDbLine
 62
     0
 10
159.057
 20
103.525
 30
0.0
 11
161.057
 21
103.525
 31
0.0
  0
LINE
  5
192
100
AcDbEntity
  8
0
100
AcDbLine
 62
     0
 10
167.557
 20
50.1248
 30
0.0
 11
167.557
 21
50.9252
 31
0.0
  0
LINE
  5
193
100
AcDbEntity
  8
0
100
AcDbLine
 62
     0
 10
167.957
 20
50.5259
 30
0.0
 11
167.157
 21
50.5259
 31
0.0
  0
LINE
  5
194
100
AcDbEntity
  8
0
100
AcDbLine
 62
     0
 10
167.557
 20
50.1248
 30
0.0
 11
167.557
 21
50.9252
 31
0.0
  0
LINE
  5
195
100
AcDbEntity
  8
0
100
AcDbLine
 62
     0
 10
167.957
 20
50.5259
 30
0.0
 11
167.157
 21
50.5259
 31
0.0
  0
LINE
  5
196
100
AcDbEntity
  8
0
100
AcDbLine
 62
     0
 10
152.557
 20
50.1248
 30
0.0
 11
152.557
 21
50.9252
 31
0.0
  0
LINE
  5
197
100
AcDbEntity
  8
0
100
AcDbLine
 62
     0
 10
152.957
 20
50.5259
 30
0.0
 11
152.158
 21
50.5259
 31
0.0
  0
LINE
  5
198
100
AcDbEntity
  8
0
100
AcDbLine
 62
     0
 10
152.557
 20
50.1248
 30
0.0
 11
152.557
 21
50.9252
 31
0.0
  0
LINE
  5
199
100
AcDbEntity
  8
0
100
AcDbLine
 62
     0
 10
152.957
 20
50.5259
 30
0.0
 11
152.158
 21
50.5259
 31
0.0
  0
LINE
  5
19a
100
AcDbEntity
  8
0
100
AcDbLine
 62
     0
 10
152.557
 20
75.1251
 30
0.0
 11
152.557
 21
75.9259
 31
0.0
  0
LINE
  5
19b
100
AcDbEntity
  8
0
100
AcDbLine
 62
     0
 10
152.957
 20
75.5248
 30
0.0
 11
152.158
 21
75.5248
 31
0.0
  0
LINE
  5
19c
100
AcDbEntity
  8
0
100
AcDbLine
 62
     0
 10
152.557
 20
75.1251
 30
0.0
 11
152.557
 21
75.9259
 31
0.0
  0
LINE
  5
19d
100
AcDbEntity
  8
0
100
AcDbLine
 62
     0
 10
152.957
 20
75.5248
 30
0.0
 11
152.158
 21
75.5248
 31
0.0
  0
LINE
  5
19e
100
AcDbEntity
  8
0
100
AcDbLine
 62
     0
 10
167.557
 20
75.1251
 30
0.0
 11
167.557
 21
75.9259
 31
0.0
  0
LINE
  5
19f
100
AcDbEntity
  8
0
100
AcDbLine
 62
     0
 10
167.957
 20
75.5248
 30
0.0
 11
167.157
 21
75.5248
 31
0.0
  0
LINE
  5
1a0
100
AcDbEntity
  8
0
100
AcDbLine
 62
     0
 10
167.557
 20
75.1251
 30
0.0
 11
167.557
 21
75.9259
 31
0.0
  0
LINE
  5
1a1
100
AcDbEntity
  8
0
100
AcDbLine
 62
     0
 10
167.957
 20
75.5248
 30
0.0
 11
167.157
 21
75.5248
 31
0.0
  0
LINE
  5
1a2
100
AcDbEntity
  8
0
100
AcDbLine
 62
     0
 10
52.5568
 20
15.1253
 30
0.0
 11
52.5568
 21
13.9251
 31
0.0
  0
LINE
  5
1a3
100
AcDbEntity
  8
0
100
AcDbLine
 62
     0
 10
53.5573
 20
13.9251
 30
0.0
 11
63.0576
 21
13.9251
 31
0.0
  0
LINE
  5
1a4
100
AcDbEntity
  8
0
100
AcDbLine
 62
     0
 10
52.5568
 20
13.9251
 30
0.0
 11
53.5573
 21
13.9251
 31
0.0
  0
LINE
  5
1a5
100
AcDbEntity
  8
0
100
AcDbLine
 62
     0
 10
52.5568
 20
15.1253
 30
0.0
 11
53.5573
 21
15.1253
 31
0.0
  0
LINE
  5
1a6
100
AcDbEntity
  8
0
100
AcDbLine
 62
     0
 10
53.5573
 20
15.1253
 30
0.0
 11
53.5573
 21
13.9251
 31
0.0
  0
LINE
  5
1a7
100
AcDbEntity
  8
0
100
AcDbLine
 62
     0
 10
74.5575
 20
15.1253
 30
0.0
 11
75.5579
 21
15.1253
 31
0.0
  0
LINE
  5
1a8
100
AcDbEntity
  8
0
100
AcDbLine
 62
     0
 10
74.5575
 20
15.1253
 30
0.0
 11
53.5573
 21
15.1253
 31
0.0
  0
LINE
  5
1a9
100
AcDbEntity
  8
0
100
AcDbLine
 62
     0
 10
63.0576
 20
13.9251
 30
0.0
 11
63.0576
 21
12.926
 31
0.0
  0
LINE
  5
1aa
100
AcDbEntity
  8
0
100
AcDbLine
 62
     0
 10
63.0576
 20
12.926
 30
0.0
 11
63.0576
 21
3.92603
 31
0.0
  0
LINE
  5
1ab
100
AcDbEntity
  8
0
100
AcDbLine
 62
     0
 10
63.0576
 20
2.92558
 30
0.0
 11
63.0576
 21
3.92603
 31
0.0
  0
LINE
  5
1ac
100
AcDbEntity
  8
0
100
AcDbLine
 62
     0
 10
74.5575
 20
13.9251
 30
0.0
 11
74.5575
 21
15.1253
 31
0.0
  0
LINE
  5
1ad
100
AcDbEntity
  8
0
100
AcDbLine
 62
     0
 10
65.0572
 20
13.9251
 30
0.0
 11
74.5575
 21
13.9251
 31
0.0
  0
LINE
  5
1ae
100
AcDbEntity
  8
0
100
AcDbLine
 62
     0
 10
75.5579
 20
13.9251
 30
0.0
 11
75.5579
 21
15.1253
 31
0.0
  0
LINE
  5
1af
100
AcDbEntity
  8
0
100
AcDbLine
 62
     0
 10
74.5575
 20
13.9251
 30
0.0
 11
75.5579
 21
13.9251
 31
0.0
  0
LINE
  5
1b0
100
AcDbEntity
  8
0
100
AcDbLine
 62
     0
 10
65.0572
 20
13.9251
 30
0.0
 11
63.0576
 21
13.9251
 31
0.0
  0
LINE
  5
1b1
100
AcDbEntity
  8
0
100
AcDbLine
 62
     0
 10
65.0572
 20
13.9251
 30
0.0
 11
65.0572
 21
12.926
 31
0.0
  0
LINE
  5
1b2
100
AcDbEntity
  8
0
100
AcDbLine
 62
     0
 10
65.0572
 20
12.926
 30
0.0
 11
63.0576
 21
12.926
 31
0.0
  0
LINE
  5
1b3
100
AcDbEntity
  8
0
100
AcDbLine
 62
     0
 10
63.0576
 20
2.92558
 30
0.0
 11
65.0572
 21
2.92558
 31
0.0
  0
LINE
  5
1b4
100
AcDbEntity
  8
0
100
AcDbLine
 62
     0
 10
65.0572
 20
3.92603
 30
0.0
 11
65.0572
 21
12.926
 31
0.0
  0
LINE
  5
1b5
100
AcDbEntity
  8
0
100
AcDbLine
 62
     0
 10
63.0576
 20
3.92603
 30
0.0
 11
65.0572
 21
3.92603
 31
0.0
  0
LINE
  5
1b6
100
AcDbEntity
  8
0
100
AcDbLine
 62
     0
 10
65.0572
 20
2.92558
 30
0.0
 11
65.0572
 21
3.92603
 31
0.0
  0
LINE
  5
1b7
100
AcDbEntity
  8
0
100
AcDbLine
 62
     0
 10
12.9122
 20
2.73265
 30
0.0
 11
12.9122
 21
31.225
 31
0.0
  0
LINE
  5
1b8
100
AcDbEntity
  8
0
100
AcDbLine
 62
     0
 10
12.9122
 20
2.73265
 30
0.0
 11
11.8842
 21
2.49011
 31
0.0
  0
LINE
  5
1b9
100
AcDbEntity
  8
0
100
AcDbLine
 62
     0
 10
11.8842
 20
30.981
 30
0.0
 11
12.9122
 21
31.225
 31
0.0
  0
LINE
  5
1ba
100
AcDbEntity
  8
0
100
AcDbLine
 62
     0
 10
11.8842
 20
2.49011
 30
0.0
 11
11.8842
 21
30.981
 31
0.0
  0
LINE
  5
1bb
100
AcDbEntity
  8
0
100
AcDbLine
 62
     0
 10
12.9122
 20
2.73265
 30
0.0
 11
12.3982
 21
2.15112
 31
0.0
  0
LINE
  5
1bc
100
AcDbEntity
  8
0
100
AcDbLine
 62
     0
 10
12.3982
 20
32.4817
 30
0.0
 11
7.51032
 21
35.6912
 31
0.0
  0
LINE
  5
1bd
100
AcDbEntity
  8
0
100
AcDbLine
 62
     0
 10
12.9122
 20
31.225
 30
0.0
 11
12.3982
 21
32.4817
 31
0.0
  0
LINE
  5
1be
100
AcDbEntity
  8
0
100
AcDbLine
 62
     0
 10
12.3982
 20
2.15112
 30
0.0
 11
11.3688
 21
1.90858
 31
0.0
  0
LINE
  5
1bf
100
AcDbEntity
  8
0
100
AcDbLine
 62
     0
 10
11.8842
 20
2.49011
 30
0.0
 11
11.3688
 21
1.90858
 31
0.0
  0
LINE
  5
1c0
100
AcDbEntity
  8
0
100
AcDbLine
 62
     0
 10
11.8842
 20
30.981
 30
0.0
 11
11.3688
 21
32.2378
 31
0.0
  0
LINE
  5
1c1
100
AcDbEntity
  8
0
100
AcDbLine
 62
     0
 10
11.3688
 20
32.2378
 30
0.0
 11
12.3982
 21
32.4817
 31
0.0
  0
LINE
  5
1c2
100
AcDbEntity
  8
0
100
AcDbLine
 62
     0
 10
11.3688
 20
1.90858
 30
0.0
 11
0.564995
 21
9.00409
 31
0.0
  0
LINE
  5
1c3
100
AcDbEntity
  8
0
100
AcDbLine
 62
     0
 10
0.564995
 20
9.00409
 30
0.0
 11
0.0509873
 21
10.2609
 31
0.0
  0
LINE
  5
1c4
100
AcDbEntity
  8
0
100
AcDbLine
 62
     0
 10
0.0509873
 20
10.2609
 30
0.0
 11
0.0509873
 21
38.7533
 31
0.0
  0
LINE
  5
1c5
100
AcDbEntity
  8
0
100
AcDbLine
 62
     0
 10
0.564995
 20
39.3347
 30
0.0
 11
0.0509873
 21
38.7533
 31
0.0
  0
LINE
  5
1c6
100
AcDbEntity
  8
0
100
AcDbLine
 62
     0
 10
0.564995
 20
39.3347
 30
0.0
 11
11.3688
 21
32.2378
 31
0.0
  0
SPLINE
  5
1c7
100
AcDbEntity
  8
0
100
AcDbSpline
210
0.0
220
0.0
230
1.0
 62
     0
 70
     0
 71
     3
 72
     8
 73
4
 40
0.0
 40
0.0
 40
0.0
 40
0.0
 40
1.0
 40
1.0
 40
1.0
 40
1.0
 10
9.31139
 20
6.93706
 30
0.0
 10
9.31139
 20
7.2843
 30
0.0
 10
9.42164
 20
7.53099
 30
0.0
 10
9.59527
 20
7.5723
 30
0.0
  0
SPLINE
  5
1c8
100
AcDbEntity
  8
0
100
AcDbSpline
210
0.0
220
0.0
230
1.0
 62
     0
 70
     0
 71
     3
 72
     8
 73
4
 40
0.0
 40
0.0
 40
0.0
 40
0.0
 40
1.0
 40
1.0
 40
1.0
 40
1.0
 10
9.59527
 20
7.5723
 30
0.0
 10
9.85023
 20
7.63157
 30
0.0
 10
10.1589
 20
7.24436
 30
0.0
 10
10.2857
 20
6.70691
 30
0.0
  0
SPLINE
  5
1c9
100
AcDbEntity
  8
0
100
AcDbSpline
210
0.0
220
0.0
230
1.0
 62
     0
 70
     0
 71
     3
 72
     8
 73
4
 40
0.0
 40
0.0
 40
0.0
 40
0.0
 40
1.0
 40
1.0
 40
1.0
 40
1.0
 10
10.2857
 20
6.70691
 30
0.0
 10
10.4138
 20
6.16948
 30
0.0
 10
10.3105
 20
5.68579
 30
0.0
 10
10.0555
 20
5.62515
 30
0.0
  0
SPLINE
  5
1ca
100
AcDbEntity
  8
0
100
AcDbSpline
210
0.0
220
0.0
230
1.0
 62
     0
 70
     0
 71
     3
 72
     8
 73
4
 40
0.0
 40
0.0
 40
0.0
 40
0.0
 40
1.0
 40
1.0
 40
1.0
 40
1.0
 10
10.0555
 20
5.62515
 30
0.0
 10
9.89708
 20
5.58793
 30
0.0
 10
9.70689
 20
5.72714
 30
0.0
 10
9.5553
 20
5.99447
 30
0.0
  0
SPLINE
  5
1cb
100
AcDbEntity
  8
0
100
AcDbSpline
210
0.0
220
0.0
230
1.0
 62
     0
 70
     0
 71
     3
 72
     8
 73
4
 40
0.0
 40
0.0
 40
0.0
 40
0.0
 40
1.0
 40
1.0
 40
1.0
 40
1.0
 10
9.5553
 20
5.99447
 30
0.0
 10
9.40375
 20
6.26181
 30
0.0
 10
9.31139
 20
6.61733
 30
0.0
 10
9.31139
 20
6.93706
 30
0.0
  0
SPLINE
  5
1cc
100
AcDbEntity
  8
0
100
AcDbSpline
210
0.0
220
0.0
230
1.0
 62
     0
 70
     0
 71
     3
 72
     8
 73
4
 40
0.0
 40
0.0
 40
0.0
 40
0.0
 40
1.0
 40
1.0
 40
1.0
 40
1.0
 10
1.59439
 20
12.0055
 30
0.0
 10
1.59439
 20
12.3527
 30
0.0
 10
1.70463
 20
12.5994
 30
0.0
 10
1.87827
 20
12.6407
 30
0.0
  0
SPLINE
  5
1cd
100
AcDbEntity
  8
0
100
AcDbSpline
210
0.0
220
0.0
230
1.0
 62
     0
 70
     0
 71
     3
 72
     8
 73
4
 40
0.0
 40
0.0
 40
0.0
 40
0.0
 40
1.0
 40
1.0
 40
1.0
 40
1.0
 10
1.87827
 20
12.6407
 30
0.0
 10
2.1332
 20
12.7
 30
0.0
 10
2.44189
 20
12.3128
 30
0.0
 10
2.56866
 20
11.7753
 30
0.0
  0
SPLINE
  5
1ce
100
AcDbEntity
  8
0
100
AcDbSpline
210
0.0
220
0.0
230
1.0
 62
     0
 70
     0
 71
     3
 72
     8
 73
4
 40
0.0
 40
0.0
 40
0.0
 40
0.0
 40
1.0
 40
1.0
 40
1.0
 40
1.0
 10
2.56866
 20
11.7753
 30
0.0
 10
2.69544
 20
11.2379
 30
0.0
 10
2.59209
 20
10.7542
 30
0.0
 10
2.33853
 20
10.6936
 30
0.0
  0
SPLINE
  5
1cf
100
AcDbEntity
  8
0
100
AcDbSpline
210
0.0
220
0.0
230
1.0
 62
     0
 70
     0
 71
     3
 72
     8
 73
4
 40
0.0
 40
0.0
 40
0.0
 40
0.0
 40
1.0
 40
1.0
 40
1.0
 40
1.0
 10
2.33853
 20
10.6936
 30
0.0
 10
2.17868
 20
10.6564
 30
0.0
 10
1.98989
 20
10.7956
 30
0.0
 10
1.8383
 20
11.0629
 30
0.0
  0
SPLINE
  5
1d0
100
AcDbEntity
  8
0
100
AcDbSpline
210
0.0
220
0.0
230
1.0
 62
     0
 70
     0
 71
     3
 72
     8
 73
4
 40
0.0
 40
0.0
 40
0.0
 40
0.0
 40
1.0
 40
1.0
 40
1.0
 40
1.0
 10
1.8383
 20
11.0629
 30
0.0
 10
1.68672
 20
11.3302
 30
0.0
 10
1.59439
 20
11.6858
 30
0.0
 10
1.59439
 20
12.0055
 30
0.0
  0
SPLINE
  5
1d1
100
AcDbEntity
  8
0
100
AcDbSpline
210
0.0
220
0.0
230
1.0
 62
     0
 70
     0
 71
     3
 72
     8
 73
4
 40
0.0
 40
0.0
 40
0.0
 40
0.0
 40
1.0
 40
1.0
 40
1.0
 40
1.0
 10
1.59439
 20
34.9815
 30
0.0
 10
1.59439
 20
35.33
 30
0.0
 10
1.70463
 20
35.5769
 30
0.0
 10
1.87827
 20
35.6168
 30
0.0
  0
SPLINE
  5
1d2
100
AcDbEntity
  8
0
100
AcDbSpline
210
0.0
220
0.0
230
1.0
 62
     0
 70
     0
 71
     3
 72
     8
 73
4
 40
0.0
 40
0.0
 40
0.0
 40
0.0
 40
1.0
 40
1.0
 40
1.0
 40
1.0
 10
1.87827
 20
35.6168
 30
0.0
 10
2.1332
 20
35.6775
 30
0.0
 10
2.44189
 20
35.2901
 30
0.0
 10
2.56866
 20
34.7527
 30
0.0
  0
SPLINE
  5
1d3
100
AcDbEntity
  8
0
100
AcDbSpline
210
0.0
220
0.0
230
1.0
 62
     0
 70
     0
 71
     3
 72
     8
 73
4
 40
0.0
 40
0.0
 40
0.0
 40
0.0
 40
1.0
 40
1.0
 40
1.0
 40
1.0
 10
2.56866
 20
34.7527
 30
0.0
 10
2.69544
 20
34.2153
 30
0.0
 10
2.59209
 20
33.7316
 30
0.0
 10
2.33853
 20
33.671
 30
0.0
  0
SPLINE
  5
1d4
100
AcDbEntity
  8
0
100
AcDbSpline
210
0.0
220
0.0
230
1.0
 62
     0
 70
     0
 71
     3
 72
     8
 73
4
 40
0.0
 40
0.0
 40
0.0
 40
0.0
 40
1.0
 40
1.0
 40
1.0
 40
1.0
 10
2.33853
 20
33.671
 30
0.0
 10
2.17868
 20
33.6338
 30
0.0
 10
1.98989
 20
33.773
 30
0.0
 10
1.8383
 20
34.0403
 30
0.0
  0
SPLINE
  5
1d5
100
AcDbEntity
  8
0
100
AcDbSpline
210
0.0
220
0.0
230
1.0
 62
     0
 70
     0
 71
     3
 72
     8
 73
4
 40
0.0
 40
0.0
 40
0.0
 40
0.0
 40
1.0
 40
1.0
 40
1.0
 40
1.0
 10
1.8383
 20
34.0403
 30
0.0
 10
1.68672
 20
34.3076
 30
0.0
 10
1.59439
 20
34.6632
 30
0.0
 10
1.59439
 20
34.9815
 30
0.0
  0
SPLINE
  5
1d6
100
AcDbEntity
  8
0
100
AcDbSpline
210
0.0
220
0.0
230
1.0
 62
     0
 70
     0
 71
     3
 72
     8
 73
4
 40
0.0
 40
0.0
 40
0.0
 40
0.0
 40
1.0
 40
1.0
 40
1.0
 40
1.0
 10
9.31139
 20
29.9131
 30
0.0
 10
9.31139
 20
30.2617
 30
0.0
 10
9.42164
 20
30.507
 30
0.0
 10
9.59527
 20
30.5484
 30
0.0
  0
SPLINE
  5
1d7
100
AcDbEntity
  8
0
100
AcDbSpline
210
0.0
220
0.0
230
1.0
 62
     0
 70
     0
 71
     3
 72
     8
 73
4
 40
0.0
 40
0.0
 40
0.0
 40
0.0
 40
1.0
 40
1.0
 40
1.0
 40
1.0
 10
9.59527
 20
30.5484
 30
0.0
 10
9.85023
 20
30.609
 30
0.0
 10
10.1589
 20
30.2218
 30
0.0
 10
10.2857
 20
29.6843
 30
0.0
  0
SPLINE
  5
1d8
100
AcDbEntity
  8
0
100
AcDbSpline
210
0.0
220
0.0
230
1.0
 62
     0
 70
     0
 71
     3
 72
     8
 73
4
 40
0.0
 40
0.0
 40
0.0
 40
0.0
 40
1.0
 40
1.0
 40
1.0
 40
1.0
 10
10.2857
 20
29.6843
 30
0.0
 10
10.4138
 20
29.1469
 30
0.0
 10
10.3105
 20
28.6632
 30
0.0
 10
10.0555
 20
28.6026
 30
0.0
  0
SPLINE
  5
1d9
100
AcDbEntity
  8
0
100
AcDbSpline
210
0.0
220
0.0
230
1.0
 62
     0
 70
     0
 71
     3
 72
     8
 73
4
 40
0.0
 40
0.0
 40
0.0
 40
0.0
 40
1.0
 40
1.0
 40
1.0
 40
1.0
 10
10.0555
 20
28.6026
 30
0.0
 10
9.89708
 20
28.5654
 30
0.0
 10
9.70689
 20
28.7045
 30
0.0
 10
9.5553
 20
28.9719
 30
0.0
  0
SPLINE
  5
1da
100
AcDbEntity
  8
0
100
AcDbSpline
210
0.0
220
0.0
230
1.0
 62
     0
 70
     0
 71
     3
 72
     8
 73
4
 40
0.0
 40
0.0
 40
0.0
 40
0.0
 40
1.0
 40
1.0
 40
1.0
 40
1.0
 10
9.5553
 20
28.9719
 30
0.0
 10
9.40375
 20
29.2392
 30
0.0
 10
9.31139
 20
29.5947
 30
0.0
 10
9.31139
 20
29.9131
 30
0.0
  0
LINE
  5
1db
100
AcDbEntity
  8
0
100
AcDbLine
 62
     0
 10
7.51032
 20
0.766191
 30
0.0
 11
7.51032
 21
4.44281
 31
0.0
  0
LINE
  5
1dc
100
AcDbEntity
  8
0
100
AcDbLine
 62
     0
 10
7.51032
 20
0.766191
 30
0.0
 11
8.36884
 21
0.0496094
 31
0.0
  0
LINE
  5
1dd
100
AcDbEntity
  8
0
100
AcDbLine
 62
     0
 10
8.36884
 20
0.0496094
 30
0.0
 11
16.0859
 21
1.87413
 31
0.0
  0
LINE
  5
1de
100
AcDbEntity
  8
0
100
AcDbLine
 62
     0
 10
7.51032
 20
35.6912
 30
0.0
 11
7.51032
 21
56.8304
 31
0.0
  0
LINE
  5
1df
100
AcDbEntity
  8
0
100
AcDbLine
 62
     0
 10
16.0859
 20
1.87413
 30
0.0
 11
16.943
 21
2.99586
 31
0.0
  0
LINE
  5
1e0
100
AcDbEntity
  8
0
100
AcDbLine
 62
     0
 10
7.51032
 20
56.8304
 30
0.0
 11
8.36884
 21
57.9519
 31
0.0
  0
LINE
  5
1e1
100
AcDbEntity
  8
0
100
AcDbLine
 62
     0
 10
16.943
 20
2.99586
 30
0.0
 11
16.943
 21
59.0613
 31
0.0
  0
LINE
  5
1e2
100
AcDbEntity
  8
0
100
AcDbLine
 62
     0
 10
8.36884
 20
57.9519
 30
0.0
 11
16.0859
 21
59.7764
 31
0.0
  0
LINE
  5
1e3
100
AcDbEntity
  8
0
100
AcDbLine
 62
     0
 10
16.943
 20
59.0613
 30
0.0
 11
16.0859
 21
59.7764
 31
0.0
  0
SPLINE
  5
1e4
100
AcDbEntity
  8
0
100
AcDbSpline
210
0.0
220
0.0
230
1.0
 62
     0
 70
     0
 71
     3
 72
     8
 73
4
 40
0.0
 40
0.0
 40
0.0
 40
0.0
 40
1.0
 40
1.0
 40
1.0
 40
1.0
 10
13.513
 20
13.6743
 30
0.0
 10
13.513
 20
13.9471
 30
0.0
 10
13.4001
 20
14.1786
 30
0.0
 10
13.2044
 20
14.3068
 30
0.0
  0
SPLINE
  5
1e5
100
AcDbEntity
  8
0
100
AcDbSpline
210
0.0
220
0.0
230
1.0
 62
     0
 70
     0
 71
     3
 72
     8
 73
4
 40
0.0
 40
0.0
 40
0.0
 40
0.0
 40
1.0
 40
1.0
 40
1.0
 40
1.0
 10
13.2044
 20
14.3068
 30
0.0
 10
13.1189
 20
14.3633
 30
0.0
 10
13.0197
 20
14.3977
 30
0.0
 10
12.9122
 20
14.4088
 30
0.0
  0
SPLINE
  5
1e6
100
AcDbEntity
  8
0
100
AcDbSpline
210
0.0
220
0.0
230
1.0
 62
     0
 70
     0
 71
     3
 72
     8
 73
4
 40
0.0
 40
0.0
 40
0.0
 40
0.0
 40
1.0
 40
1.0
 40
1.0
 40
1.0
 10
12.9122
 20
12.6559
 30
0.0
 10
13.2705
 20
12.8598
 30
0.0
 10
13.513
 20
13.2733
 30
0.0
 10
13.513
 20
13.6743
 30
0.0
  0
SPLINE
  5
1e7
100
AcDbEntity
  8
0
100
AcDbSpline
210
0.0
220
0.0
230
1.0
 62
     0
 70
     0
 71
     3
 72
     8
 73
4
 40
0.0
 40
0.0
 40
0.0
 40
0.0
 40
1.0
 40
1.0
 40
1.0
 40
1.0
 10
13.513
 20
5.40191
 30
0.0
 10
13.513
 20
5.67475
 30
0.0
 10
13.4001
 20
5.90765
 30
0.0
 10
13.2044
 20
6.03582
 30
0.0
  0
SPLINE
  5
1e8
100
AcDbEntity
  8
0
100
AcDbSpline
210
0.0
220
0.0
230
1.0
 62
     0
 70
     0
 71
     3
 72
     8
 73
4
 40
0.0
 40
0.0
 40
0.0
 40
0.0
 40
1.0
 40
1.0
 40
1.0
 40
1.0
 10
13.2044
 20
6.03582
 30
0.0
 10
13.1189
 20
6.0923
 30
0.0
 10
13.0197
 20
6.12676
 30
0.0
 10
12.9122
 20
6.13777
 30
0.0
  0
SPLINE
  5
1e9
100
AcDbEntity
  8
0
100
AcDbSpline
210
0.0
220
0.0
230
1.0
 62
     0
 70
     0
 71
     3
 72
     8
 73
4
 40
0.0
 40
0.0
 40
0.0
 40
0.0
 40
1.0
 40
1.0
 40
1.0
 40
1.0
 10
12.9122
 20
4.38355
 30
0.0
 10
13.2705
 20
4.58886
 30
0.0
 10
13.513
 20
5.00091
 30
0.0
 10
13.513
 20
5.40191
 30
0.0
  0
SPLINE
  5
1ea
100
AcDbEntity
  8
0
100
AcDbSpline
210
0.0
220
0.0
230
1.0
 62
     0
 70
     0
 71
     3
 72
     8
 73
4
 40
0.0
 40
0.0
 40
0.0
 40
0.0
 40
1.0
 40
1.0
 40
1.0
 40
1.0
 10
13.513
 20
55.0333
 30
0.0
 10
13.513
 20
55.306
 30
0.0
 10
13.4001
 20
55.5378
 30
0.0
 10
13.2044
 20
55.6659
 30
0.0
  0
SPLINE
  5
1eb
100
AcDbEntity
  8
0
100
AcDbSpline
210
0.0
220
0.0
230
1.0
 62
     0
 70
     0
 71
     3
 72
     8
 73
4
 40
0.0
 40
0.0
 40
0.0
 40
0.0
 40
1.0
 40
1.0
 40
1.0
 40
1.0
 10
13.2044
 20
55.6659
 30
0.0
 10
12.8405
 20
55.9058
 30
0.0
 10
12.3004
 20
55.7251
 30
0.0
 10
11.9972
 20
55.2633
 30
0.0
  0
SPLINE
  5
1ec
100
AcDbEntity
  8
0
100
AcDbSpline
210
0.0
220
0.0
230
1.0
 62
     0
 70
     0
 71
     3
 72
     8
 73
4
 40
0.0
 40
0.0
 40
0.0
 40
0.0
 40
1.0
 40
1.0
 40
1.0
 40
1.0
 10
11.9972
 20
55.2633
 30
0.0
 10
11.694
 20
54.8019
 30
0.0
 10
11.7423
 20
54.2339
 30
0.0
 10
12.1061
 20
53.9944
 30
0.0
  0
SPLINE
  5
1ed
100
AcDbEntity
  8
0
100
AcDbSpline
210
0.0
220
0.0
230
1.0
 62
     0
 70
     0
 71
     3
 72
     8
 73
4
 40
0.0
 40
0.0
 40
0.0
 40
0.0
 40
1.0
 40
1.0
 40
1.0
 40
1.0
 10
12.1061
 20
53.9944
 30
0.0
 10
12.3624
 20
53.8261
 30
0.0
 10
12.7179
 20
53.8621
 30
0.0
 10
13.0197
 20
54.084
 30
0.0
  0
SPLINE
  5
1ee
100
AcDbEntity
  8
0
100
AcDbSpline
210
0.0
220
0.0
230
1.0
 62
     0
 70
     0
 71
     3
 72
     8
 73
4
 40
0.0
 40
0.0
 40
0.0
 40
0.0
 40
1.0
 40
1.0
 40
1.0
 40
1.0
 10
13.0197
 20
54.084
 30
0.0
 10
13.3201
 20
54.307
 30
0.0
 10
13.513
 20
54.6763
 30
0.0
 10
13.513
 20
55.0333
 30
0.0
  0
SPLINE
  5
1ef
100
AcDbEntity
  8
0
100
AcDbSpline
210
0.0
220
0.0
230
1.0
 62
     0
 70
     0
 71
     3
 72
     8
 73
4
 40
0.0
 40
0.0
 40
0.0
 40
0.0
 40
1.0
 40
1.0
 40
1.0
 40
1.0
 10
13.513
 20
46.761
 30
0.0
 10
13.513
 20
47.0337
 30
0.0
 10
13.4001
 20
47.2652
 30
0.0
 10
13.2044
 20
47.395
 30
0.0
  0
SPLINE
  5
1f0
100
AcDbEntity
  8
0
100
AcDbSpline
210
0.0
220
0.0
230
1.0
 62
     0
 70
     0
 71
     3
 72
     8
 73
4
 40
0.0
 40
0.0
 40
0.0
 40
0.0
 40
1.0
 40
1.0
 40
1.0
 40
1.0
 10
13.2044
 20
47.395
 30
0.0
 10
12.8405
 20
47.6331
 30
0.0
 10
12.3004
 20
47.4528
 30
0.0
 10
11.9972
 20
46.9911
 30
0.0
  0
SPLINE
  5
1f1
100
AcDbEntity
  8
0
100
AcDbSpline
210
0.0
220
0.0
230
1.0
 62
     0
 70
     0
 71
     3
 72
     8
 73
4
 40
0.0
 40
0.0
 40
0.0
 40
0.0
 40
1.0
 40
1.0
 40
1.0
 40
1.0
 10
11.9972
 20
46.9911
 30
0.0
 10
11.694
 20
46.5296
 30
0.0
 10
11.7423
 20
45.9617
 30
0.0
 10
12.1061
 20
45.7232
 30
0.0
  0
SPLINE
  5
1f2
100
AcDbEntity
  8
0
100
AcDbSpline
210
0.0
220
0.0
230
1.0
 62
     0
 70
     0
 71
     3
 72
     8
 73
4
 40
0.0
 40
0.0
 40
0.0
 40
0.0
 40
1.0
 40
1.0
 40
1.0
 40
1.0
 10
12.1061
 20
45.7232
 30
0.0
 10
12.3624
 20
45.5553
 30
0.0
 10
12.7179
 20
45.5895
 30
0.0
 10
13.0197
 20
45.8128
 30
0.0
  0
SPLINE
  5
1f3
100
AcDbEntity
  8
0
100
AcDbSpline
210
0.0
220
0.0
230
1.0
 62
     0
 70
     0
 71
     3
 72
     8
 73
4
 40
0.0
 40
0.0
 40
0.0
 40
0.0
 40
1.0
 40
1.0
 40
1.0
 40
1.0
 10
13.0197
 20
45.8128
 30
0.0
 10
13.3201
 20
46.0347
 30
0.0
 10
13.513
 20
46.404
 30
0.0
 10
13.513
 20
46.761
 30
0.0
  0
LINE
  5
1f4
100
AcDbEntity
  8
0
100
AcDbLine
 62
     0
 10
1.59439
 20
39.5774
 30
0.0
 11
0.564995
 21
39.3347
 31
0.0
  0
LINE
  5
1f5
100
AcDbEntity
  8
0
100
AcDbLine
 62
     0
 10
6.48229
 20
36.3679
 30
0.0
 11
1.59439
 21
39.5774
 31
0.0
  0
LINE
  5
1f6
100
AcDbEntity
  8
0
100
AcDbLine
 62
     0
 10
7.51032
 20
35.6912
 30
0.0
 11
6.48229
 21
36.3679
 31
0.0
  0
LINE
  5
1f7
100
AcDbEntity
  8
0
100
AcDbLine
 62
     0
 10
6.48229
 20
1.4428
 30
0.0
 11
7.51032
 21
0.766191
 31
0.0
  0
LINE
  5
1f8
100
AcDbEntity
  8
0
100
AcDbLine
 62
     0
 10
6.48229
 20
1.4428
 30
0.0
 11
6.48229
 21
5.11803
 31
0.0
  0
LINE
  5
1f9
100
AcDbEntity
  8
0
100
AcDbLine
 62
     0
 10
6.48229
 20
1.4428
 30
0.0
 11
7.33944
 21
0.726225
 31
0.0
  0
LINE
  5
1fa
100
AcDbEntity
  8
0
100
AcDbLine
 62
     0
 10
7.33944
 20
0.726225
 30
0.0
 11
8.36884
 21
0.0496094
 31
0.0
  0
LINE
  5
1fb
100
AcDbEntity
  8
0
100
AcDbLine
 62
     0
 10
6.48229
 20
36.3679
 30
0.0
 11
6.48229
 21
57.507
 31
0.0
  0
LINE
  5
1fc
100
AcDbEntity
  8
0
100
AcDbLine
 62
     0
 10
6.48229
 20
57.507
 30
0.0
 11
7.51032
 21
56.8304
 31
0.0
  0
SPLINE
  5
1fd
100
AcDbEntity
  8
0
100
AcDbSpline
210
0.0
220
0.0
230
1.0
 62
     0
 70
     0
 71
     3
 72
     8
 73
4
 40
0.0
 40
0.0
 40
0.0
 40
0.0
 40
1.0
 40
1.0
 40
1.0
 40
1.0
 10
6.73862
 20
49.9844
 30
0.0
 10
6.73862
 20
49.8175
 30
0.0
 10
6.79372
 20
49.6164
 30
0.0
 10
6.87779
 20
49.4852
 30
0.0
  0
SPLINE
  5
1fe
100
AcDbEntity
  8
0
100
AcDbSpline
210
0.0
220
0.0
230
1.0
 62
     0
 70
     0
 71
     3
 72
     8
 73
4
 40
0.0
 40
0.0
 40
0.0
 40
0.0
 40
1.0
 40
1.0
 40
1.0
 40
1.0
 10
6.87779
 20
49.4852
 30
0.0
 10
6.94944
 20
49.3709
 30
0.0
 10
7.03901
 20
49.3116
 30
0.0
 10
7.11069
 20
49.3296
 30
0.0
  0
SPLINE
  5
1ff
100
AcDbEntity
  8
0
100
AcDbSpline
210
0.0
220
0.0
230
1.0
 62
     0
 70
     0
 71
     3
 72
     8
 73
4
 40
0.0
 40
0.0
 40
0.0
 40
0.0
 40
1.0
 40
1.0
 40
1.0
 40
1.0
 10
7.11069
 20
49.3296
 30
0.0
 10
7.17822
 20
49.3448
 30
0.0
 10
7.22919
 20
49.4259
 30
0.0
 10
7.24711
 20
49.5459
 30
0.0
  0
SPLINE
  5
200
100
AcDbEntity
  8
0
100
AcDbSpline
210
0.0
220
0.0
230
1.0
 62
     0
 70
     0
 71
     3
 72
     8
 73
4
 40
0.0
 40
0.0
 40
0.0
 40
0.0
 40
1.0
 40
1.0
 40
1.0
 40
1.0
 10
7.24711
 20
49.5459
 30
0.0
 10
7.26087
 20
49.6454
 30
0.0
 10
7.25262
 20
49.7678
 30
0.0
 10
7.22231
 20
49.8863
 30
0.0
  0
SPLINE
  5
201
100
AcDbEntity
  8
0
100
AcDbSpline
210
0.0
220
0.0
230
1.0
 62
     0
 70
     0
 71
     3
 72
     8
 73
4
 40
0.0
 40
0.0
 40
0.0
 40
0.0
 40
1.0
 40
1.0
 40
1.0
 40
1.0
 10
7.22231
 20
49.8863
 30
0.0
 10
7.19335
 20
50.0034
 30
0.0
 10
7.14375
 20
50.1124
 30
0.0
 10
7.08448
 20
50.1897
 30
0.0
  0
SPLINE
  5
202
100
AcDbEntity
  8
0
100
AcDbSpline
210
0.0
220
0.0
230
1.0
 62
     0
 70
     0
 71
     3
 72
     8
 73
4
 40
0.0
 40
0.0
 40
0.0
 40
0.0
 40
1.0
 40
1.0
 40
1.0
 40
1.0
 10
7.08448
 20
50.1897
 30
0.0
 10
7.01971
 20
50.2765
 30
0.0
 10
6.94394
 20
50.3178
 30
0.0
 10
6.88054
 20
50.3026
 30
0.0
  0
SPLINE
  5
203
100
AcDbEntity
  8
0
100
AcDbSpline
210
0.0
220
0.0
230
1.0
 62
     0
 70
     0
 71
     3
 72
     8
 73
4
 40
0.0
 40
0.0
 40
0.0
 40
0.0
 40
1.0
 40
1.0
 40
1.0
 40
1.0
 10
6.88054
 20
50.3026
 30
0.0
 10
6.7951
 20
50.2846
 30
0.0
 10
6.73724
 20
50.1565
 30
0.0
 10
6.73862
 20
49.9844
 30
0.0
  0
LINE
  5
204
100
AcDbEntity
  8
0
100
AcDbLine
 62
     0
 10
6.48229
 20
57.507
 30
0.0
 11
7.33944
 21
58.6285
 31
0.0
  0
LINE
  5
205
100
AcDbEntity
  8
0
100
AcDbLine
 62
     0
 10
7.33944
 20
58.6285
 30
0.0
 11
8.36884
 21
57.9519
 31
0.0
  0
LINE
  5
206
100
AcDbEntity
  8
0
100
AcDbLine
 62
     0
 10
15.0564
 20
60.4531
 30
0.0
 11
7.33944
 21
58.6285
 31
0.0
  0
LINE
  5
207
100
AcDbEntity
  8
0
100
AcDbLine
 62
     0
 10
16.0859
 20
59.7764
 30
0.0
 11
15.0564
 21
60.4531
 31
0.0
  0
SPLINE
  5
208
100
AcDbEntity
  8
0
100
AcDbSpline
210
0.0
220
0.0
230
1.0
 62
     0
 70
     0
 71
     3
 72
     8
 73
4
 40
0.0
 40
0.0
 40
0.0
 40
0.0
 40
1.0
 40
1.0
 40
1.0
 40
1.0
 10
11.7988
 20
54.646
 30
0.0
 10
12.1915
 20
54.8252
 30
0.0
 10
12.4754
 20
55.2595
 30
0.0
 10
12.4836
 20
55.6906
 30
0.0
  0
SPLINE
  5
209
100
AcDbEntity
  8
0
100
AcDbSpline
210
0.0
220
0.0
230
1.0
 62
     0
 70
     0
 71
     3
 72
     8
 73
4
 40
0.0
 40
0.0
 40
0.0
 40
0.0
 40
1.0
 40
1.0
 40
1.0
 40
1.0
 10
11.7988
 20
46.3751
 30
0.0
 10
12.1915
 20
46.5529
 30
0.0
 10
12.4754
 20
46.9868
 30
0.0
 10
12.4836
 20
47.4183
 30
0.0
  0
ENDSEC
  0
SECTION
  2
OBJECTS
  0
DICTIONARY
  5
C
330
0
100
AcDbDictionary
  3
ACAD_GROUP
350
D
  3
ACAD_LAYOUT
350
1A
  3
ACAD_MLINESTYLE
350
17
  3
ACAD_PLOTSETTINGS
350
19
  3
ACAD_PLOTSTYLENAME
350
E
  3
ACDBHEADERROUNDTRIPXREC
350
2F
  0
DICTIONARY
  5
52
330
1F
100
AcDbDictionary
280
     1
  3
ACAD_LAYOUTSELFREF
360
53
  0
DICTIONARY
  5
50
330
1B
100
AcDbDictionary
280
     1
  3
ACAD_LAYOUTSELFREF
360
51
  0
DICTIONARY
  5
D
102
{ACAD_REACTORS
330
C
102
}
330
C
100
AcDbDictionary
  0
DICTIONARY
  5
1A
102
{ACAD_REACTORS
330
C
102
}
330
C
100
AcDbDictionary
  0
DICTIONARY
  5
17
102
{ACAD_REACTORS
330
C
102
}
330
C
100
AcDbDictionary
  3
STANDARD
350
18
  0
DICTIONARY
  5
19
102
{ACAD_REACTORS
330
C
102
}
330
C
100
AcDbDictionary
  0
ACDBDICTIONARYWDFLT
  5
E
102
{ACAD_REACTORS
330
C
102
}
330
C
100
AcDbDictionary
281
     1
  3
Normal
350
F
100
AcDbDictionaryWithDefault
340
F
  0
DICTIONARY
  5
2F
102
{ACAD_REACTORS
330
C
102
}
330
C
100
AcDbDictionary
  3
CEPSNTYPE
350
39
  3
DIMSTYLEDATA
350
3D
  3
FINGERPRINTGUID
350
3A
  3
HYPERLINKBASE
350
32
  3
INSUNITS
350
38
  3
LAYOUTDICT
350
34
  3
LWETCUNION
350
37
  3
PLOTSETDICT
350
35
  3
PLOTSTYLNAMDICT
350
36
  3
PSVPSCALE
350
3C
  3
PUCSBASE
350
40
  3
PUCSORGBACK
350
46
  3
PUCSORGBOTTOM
350
42
  3
PUCSORGFRONT
350
45
  3
PUCSORGLEFT
350
43
  3
PUCSORGRIGHT
350
44
  3
PUCSORGTOP
350
41
  3
PUCSORTHOREF
350
3E
  3
PUCSORTHOVIEW
350
3F
  3
STYLESHEET
350
33
  3
TSTACKALIGN
350
30
  3
TSTACKSIZE
350
31
  3
UCSBASE
350
49
  3
UCSORGBACK
350
4F
  3
UCSORGBOTTOM
350
4B
  3
UCSORGFRONT
350
4E
  3
UCSORGLEFT
350
4C
  3
UCSORGRIGHT
350
4D
  3
UCSORGTOP
350
4A
  3
UCSORTHOREF
350
47
  3
UCSORTHOVIEW
350
48
  3
VERSIONGUID
350
3B
  0
XRECORD
  5
53
102
{ACAD_REACTORS
330
52
102
}
330
52
100
AcDbXrecord
340
1F
  0
XRECORD
  5
51
102
{ACAD_REACTORS
330
50
102
}
330
50
100
AcDbXrecord
340
1B
  0
MLINESTYLE
  5
18
102
{ACAD_REACTORS
330
17
102
}
330
17
100
AcDbMlineStyle
  2
STANDARD
 70
     0
  3

 62
   256
 51
90.0
 52
90.0
 71
     2
 49
0.5
 62
   256
  6
BYLAYER
 49
-0.5
 62
   256
  6
BYLAYER
  0
ACDBPLACEHOLDER
  5
F
102
{ACAD_REACTORS
330
E
102
}
330
E
100
AcDbPlaceHolder
280
     0
  0
XRECORD
  5
39
102
{ACAD_REACTORS
330
2F
102
}
330
2F
100
AcDbXrecord
 90
        0
  0
XRECORD
  5
3D
102
{ACAD_REACTORS
330
2F
102
}
330
2F
100
AcDbXrecord
1000
DSTYLE
1002
{
1070
   278
 70
    44
1002
}
  0
XRECORD
  5
3A
102
{ACAD_REACTORS
330
2F
102
}
330
2F
100
AcDbXrecord
  1
{705446A6-11D0-4548-8F8C-A97DCA50327D}
  0
XRECORD
  5
32
102
{ACAD_REACTORS
330
2F
102
}
330
2F
100
AcDbXrecord
  1

  0
XRECORD
  5
38
102
{ACAD_REACTORS
330
2F
102
}
330
2F
100
AcDbXrecord
 90
        4
  0
XRECORD
  5
34
102
{ACAD_REACTORS
330
2F
102
}
330
2F
100
AcDbXrecord
340
1A
  0
XRECORD
  5
37
102
{ACAD_REACTORS
330
2F
102
}
330
2F
100
AcDbXrecord
 90
    10781
  0
XRECORD
  5
35
102
{ACAD_REACTORS
330
2F
102
}
330
2F
100
AcDbXrecord
340
19
  0
XRECORD
  5
36
102
{ACAD_REACTORS
330
2F
102
}
330
2F
100
AcDbXrecord
340
E
  0
XRECORD
  5
3C
102
{ACAD_REACTORS
330
2F
102
}
330
2F
100
AcDbXrecord
 40
0.0
  0
XRECORD
  5
40
102
{ACAD_REACTORS
330
2F
102
}
330
2F
100
AcDbXrecord
340
0
  0
XRECORD
  5
46
102
{ACAD_REACTORS
330
2F
102
}
330
2F
100
AcDbXrecord
 10
0.0
 20
0.0
 30
0.0
  0
XRECORD
  5
42
102
{ACAD_REACTORS
330
2F
102
}
330
2F
100
AcDbXrecord
 10
0.0
 20
0.0
 30
0.0
  0
XRECORD
  5
45
102
{ACAD_REACTORS
330
2F
102
}
330
2F
100
AcDbXrecord
 10
0.0
 20
0.0
 30
0.0
  0
XRECORD
  5
43
102
{ACAD_REACTORS
330
2F
102
}
330
2F
100
AcDbXrecord
 10
0.0
 20
0.0
 30
0.0
  0
XRECORD
  5
44
102
{ACAD_REACTORS
330
2F
102
}
330
2F
100
AcDbXrecord
 10
0.0
 20
0.0
 30
0.0
  0
XRECORD
  5
41
102
{ACAD_REACTORS
330
2F
102
}
330
2F
100
AcDbXrecord
 10
0.0
 20
0.0
 30
0.0
  0
XRECORD
  5
3E
102
{ACAD_REACTORS
330
2F
102
}
330
2F
100
AcDbXrecord
340
0
  0
XRECORD
  5
3F
102
{ACAD_REACTORS
330
2F
102
}
330
2F
100
AcDbXrecord
 70
     0
  0
XRECORD
  5
33
102
{ACAD_REACTORS
330
2F
102
}
330
2F
100
AcDbXrecord
  1

  0
XRECORD
  5
30
102
{ACAD_REACTORS
330
2F
102
}
330
2F
100
AcDbXrecord
 90
        1
  0
XRECORD
  5
31
102
{ACAD_REACTORS
330
2F
102
}
330
2F
100
AcDbXrecord
 90
       70
  0
XRECORD
  5
49
102
{ACAD_REACTORS
330
2F
102
}
330
2F
100
AcDbXrecord
340
0
  0
XRECORD
  5
4F
102
{ACAD_REACTORS
330
2F
102
}
330
2F
100
AcDbXrecord
 10
0.0
 20
0.0
 30
0.0
  0
XRECORD
  5
4B
102
{ACAD_REACTORS
330
2F
102
}
330
2F
100
AcDbXrecord
 10
0.0
 20
0.0
 30
0.0
  0
XRECORD
  5
4E
102
{ACAD_REACTORS
330
2F
102
}
330
2F
100
AcDbXrecord
 10
0.0
 20
0.0
 30
0.0
  0
XRECORD
  5
4C
102
{ACAD_REACTORS
330
2F
102
}
330
2F
100
AcDbXrecord
 10
0.0
 20
0.0
 30
0.0
  0
XRECORD
  5
4D
102
{ACAD_REACTORS
330
2F
102
}
330
2F
100
AcDbXrecord
 10
0.0
 20
0.0
 30
0.0
  0
XRECORD
  5
4A
102
{ACAD_REACTORS
330
2F
102
}
330
2F
100
AcDbXrecord
 10
0.0
 20
0.0
 30
0.0
  0
XRECORD
  5
47
102
{ACAD_REACTORS
330
2F
102
}
330
2F
100
AcDbXrecord
340
0
  0
XRECORD
  5
48
102
{ACAD_REACTORS
330
2F
102
}
330
2F
100
AcDbXrecord
 70
     0
  0
XRECORD
  5
3B
102
{ACAD_REACTORS
330
2F
102
}
330
2F
100
AcDbXrecord
  1
{33328E3A-B6B8-4979-86B7-D70DEC2867C2}
  0
ENDSEC
  0
EOF
