  0
SECTION
  2
HEADER
  9
$ACADVER
  1
AC1014
  9
$EXTMIN
 10
70.16401489310567
 20
112.369642808922
 30
0.0
  9
$EXTMAX
 10
277.0834797641999
 20
227.1366601424358
 30
0.0
  9
$HANDSEED
  5
56
  9
$MEASUREMENT
 70
1
  0
ENDSEC
  0
SECTION
  2
TABLES
  0
TABLE
  2
VPORT
  5
8
330
0
100
AcDbSymbolTable
 70
     4
  0
VPORT
  5
2E
330
8
100
AcDbSymbolTableRecord
100
AcDbViewportTableRecord
  2
*ACTIVE
 70
     0
 10
0.0
 20
0.0
 11
1.0
 21
1.0
 12
209.9999999999999
 22
148.4999999999999
 13
0.0
 23
0.0
 14
10.0
 24
10.0
 15
10.0
 25
10.0
 16
0.0
 26
0.0
 36
1.0
 17
0.0
 27
0.0
 37
0.0
 40
340.9950045922664
 41
1.239944521497919
 42
50.0
 43
0.0
 44
0.0
 50
0.0
 51
0.0
 71
     0
 72
   100
 73
     1
 74
     3
 75
     0
 76
     0
 77
     0
 78
     0
  0
ENDTAB
  0
TABLE
  2
LTYPE
  5
5
330
0
100
AcDbSymbolTable
 70
     1
  0
LTYPE
  5
14
330
5
100
AcDbSymbolTableRecord
100
AcDbLinetypeTableRecord
  2
BYBLOCK
 70
     0
  3

 72
    65
 73
     0
 40
0.0
  0
LTYPE
  5
15
330
5
100
AcDbSymbolTableRecord
100
AcDbLinetypeTableRecord
  2
BYLAYER
 70
     0
  3

 72
    65
 73
     0
 40
0.0
  0
LTYPE
  5
16
330
5
100
AcDbSymbolTableRecord
100
AcDbLinetypeTableRecord
  2
CONTINUOUS
 70
     0
  3
Solid line
 72
    65
 73
     0
 40
0.0
  0
ENDTAB
  0
TABLE
  2
LAYER
  5
2
330
0
100
AcDbSymbolTable
 70
1
  0
LAYER
  5
10
330
2
100
AcDbSymbolTableRecord
100
AcDbLayerTableRecord
  2
0
 70
     0
 62
     7
  6
CONTINUOUS
  0
ENDTAB
  0
TABLE
  2
STYLE
  5
3
330
0
100
AcDbSymbolTable
 70
     1
  0
STYLE
  5
11
330
3
100
AcDbSymbolTableRecord
100
AcDbTextStyleTableRecord
  2
STANDARD
 70
     0
 40
0.0
 41
1.0
 50
0.0
 71
     0
 42
2.5
  3
txt
  4

  0
ENDTAB
  0
TABLE
  2
VIEW
  5
6
330
0
100
AcDbSymbolTable
 70
     0
  0
ENDTAB
  0
TABLE
  2
UCS
  5
7
330
0
100
AcDbSymbolTable
 70
     0
  0
ENDTAB
  0
TABLE
  2
APPID
  5
9
330
0
100
AcDbSymbolTable
 70
     2
  0
APPID
  5
12
330
9
100
AcDbSymbolTableRecord
100
AcDbRegAppTableRecord
  2
ACAD
 70
     0
  0
APPID
  5
2B
330
9
100
AcDbSymbolTableRecord
100
AcDbRegAppTableRecord
  2
URBANX
 70
     0
  0
ENDTAB
  0
TABLE
  2
DIMSTYLE
  5
A
330
0
100
AcDbSymbolTable
 70
     1
  0
DIMSTYLE
105
27
330
A
100
AcDbSymbolTableRecord
100
AcDbDimStyleTableRecord
  2
ISO-25
 70
     0
  3

  4

  5

  6

  7

 40
1.0
 41
2.5
 42
0.625
 43
3.75
 44
1.25
 45
0.0
 46
0.0
 47
0.0
 48
0.0
140
2.5
141
2.5
142
0.0
143
0.03937007874016
144
1.0
145
0.0
146
1.0
147
0.625
 71
     0
 72
     0
 73
     0
 74
     0
 75
     0
 76
     0
 77
     1
 78
     8
170
     0
171
     3
172
     1
173
     0
174
     0
175
     0
176
     0
177
     0
178
     0
270
     2
271
     2
272
     2
273
     2
274
     3
340
11
275
     0
280
     0
281
     0
282
     0
283
     0
284
     8
285
     0
286
     0
287
     3
288
     0
  0
ENDTAB
  0
TABLE
  2
BLOCK_RECORD
  5
1
330
0
100
AcDbSymbolTable
 70
     1
  0
BLOCK_RECORD
  5
1F
102
{ACAD_XDICTIONARY
360
52
102
}
330
1
100
AcDbSymbolTableRecord
100
AcDbBlockTableRecord
  2
*MODEL_SPACE
  0
BLOCK_RECORD
  5
1B
102
{ACAD_XDICTIONARY
360
50
102
}
330
1
100
AcDbSymbolTableRecord
100
AcDbBlockTableRecord
  2
*PAPER_SPACE
  0
ENDTAB
  0
ENDSEC
  0
SECTION
  2
BLOCKS
  0
BLOCK
  5
20
330
1F
100
AcDbEntity
  8
0
100
AcDbBlockBegin
  2
*MODEL_SPACE
 70
     0
 10
0.0
 20
0.0
 30
0.0
  3
*MODEL_SPACE
  1

  0
ENDBLK
  5
21
330
1F
100
AcDbEntity
  8
0
100
AcDbBlockEnd
  0
BLOCK
  5
1C
330
1B
100
AcDbEntity
 67
     1
  8
0
100
AcDbBlockBegin
  2
*PAPER_SPACE
  1

  0
ENDBLK
  5
1D
330
1B
100
AcDbEntity
 67
     1
  8
0
100
AcDbBlockEnd
  0
ENDSEC
  0
SECTION
  2
ENTITIES
  0
LINE
  5
ff
100
AcDbEntity
  8
0
100
AcDbLine
 62
     0
 10
25.3545
 20
85.9924
 30
0.0
 11
25.3545
 21
633.991
 31
0.0
  0
LINE
  5
100
100
AcDbEntity
  8
0
100
AcDbLine
 62
     0
 10
25.3545
 20
85.9924
 30
0.0
 11
24.3555
 21
85.9924
 31
0.0
  0
LINE
  5
101
100
AcDbEntity
  8
0
100
AcDbLine
 62
     0
 10
25.3545
 20
633.991
 30
0.0
 11
24.3555
 21
633.991
 31
0.0
  0
LINE
  5
102
100
AcDbEntity
  8
0
100
AcDbLine
 62
     0
 10
24.3555
 20
85.9924
 30
0.0
 11
24.3555
 21
633.991
 31
0.0
  0
LINE
  5
103
100
AcDbEntity
  8
0
100
AcDbLine
 62
     0
 10
24.3555
 20
84.9933
 30
0.0
 11
25.3545
 21
85.9924
 31
0.0
  0
LINE
  5
104
100
AcDbEntity
  8
0
100
AcDbLine
 62
     0
 10
24.3555
 20
634.993
 30
0.0
 11
25.3545
 21
633.991
 31
0.0
  0
LINE
  5
105
100
AcDbEntity
  8
0
100
AcDbLine
 62
     0
 10
24.3555
 20
84.9933
 30
0.0
 11
24.3555
 21
85.9924
 31
0.0
  0
LINE
  5
106
100
AcDbEntity
  8
0
100
AcDbLine
 62
     0
 10
24.3555
 20
634.993
 30
0.0
 11
24.3555
 21
633.991
 31
0.0
  0
LINE
  5
107
100
AcDbEntity
  8
0
100
AcDbLine
 62
     0
 10
24.3555
 20
85.9924
 30
0.0
 11
16.3546
 21
85.9924
 31
0.0
  0
LINE
  5
108
100
AcDbEntity
  8
0
100
AcDbLine
 62
     0
 10
24.3555
 20
633.991
 30
0.0
 11
16.3546
 21
633.991
 31
0.0
  0
LINE
  5
109
100
AcDbEntity
  8
0
100
AcDbLine
 62
     0
 10
16.3546
 20
85.9924
 30
0.0
 11
16.3546
 21
633.991
 31
0.0
  0
LINE
  5
10a
100
AcDbEntity
  8
0
100
AcDbLine
 62
     0
 10
24.3555
 20
84.9933
 30
0.0
 11
16.3546
 21
84.9933
 31
0.0
  0
LINE
  5
10b
100
AcDbEntity
  8
0
100
AcDbLine
 62
     0
 10
24.3555
 20
634.993
 30
0.0
 11
16.3546
 21
634.993
 31
0.0
  0
LINE
  5
10c
100
AcDbEntity
  8
0
100
AcDbLine
 62
     0
 10
15.3555
 20
85.9924
 30
0.0
 11
15.3555
 21
633.991
 31
0.0
  0
LINE
  5
10d
100
AcDbEntity
  8
0
100
AcDbLine
 62
     0
 10
16.3546
 20
84.9933
 30
0.0
 11
16.3546
 21
85.9924
 31
0.0
  0
LINE
  5
10e
100
AcDbEntity
  8
0
100
AcDbLine
 62
     0
 10
16.3546
 20
634.993
 30
0.0
 11
16.3546
 21
633.991
 31
0.0
  0
LINE
  5
10f
100
AcDbEntity
  8
0
100
AcDbLine
 62
     0
 10
15.3555
 20
85.9924
 30
0.0
 11
16.3546
 21
85.9924
 31
0.0
  0
LINE
  5
110
100
AcDbEntity
  8
0
100
AcDbLine
 62
     0
 10
15.3555
 20
633.991
 30
0.0
 11
16.3546
 21
633.991
 31
0.0
  0
LINE
  5
111
100
AcDbEntity
  8
0
100
AcDbLine
 62
     0
 10
16.3546
 20
84.9933
 30
0.0
 11
15.3555
 21
85.9924
 31
0.0
  0
LINE
  5
112
100
AcDbEntity
  8
0
100
AcDbLine
 62
     0
 10
16.3546
 20
634.993
 30
0.0
 11
15.3555
 21
633.991
 31
0.0
  0
LINE
  5
113
100
AcDbEntity
  8
0
100
AcDbLine
 62
     0
 10
0.355533
 20
85.9924
 30
0.0
 11
0.355533
 21
633.991
 31
0.0
  0
LINE
  5
114
100
AcDbEntity
  8
0
100
AcDbLine
 62
     0
 10
0.355533
 20
85.9924
 30
0.0
 11
1.35461
 21
85.9924
 31
0.0
  0
LINE
  5
115
100
AcDbEntity
  8
0
100
AcDbLine
 62
     0
 10
0.355533
 20
633.991
 30
0.0
 11
1.35461
 21
633.991
 31
0.0
  0
LINE
  5
116
100
AcDbEntity
  8
0
100
AcDbLine
 62
     0
 10
1.35461
 20
85.9924
 30
0.0
 11
1.35461
 21
633.991
 31
0.0
  0
LINE
  5
117
100
AcDbEntity
  8
0
100
AcDbLine
 62
     0
 10
1.35461
 20
84.9933
 30
0.0
 11
0.355533
 21
85.9924
 31
0.0
  0
LINE
  5
118
100
AcDbEntity
  8
0
100
AcDbLine
 62
     0
 10
1.35461
 20
634.993
 30
0.0
 11
0.355533
 21
633.991
 31
0.0
  0
LINE
  5
119
100
AcDbEntity
  8
0
100
AcDbLine
 62
     0
 10
1.35461
 20
84.9933
 30
0.0
 11
1.35461
 21
85.9924
 31
0.0
  0
LINE
  5
11a
100
AcDbEntity
  8
0
100
AcDbLine
 62
     0
 10
1.35461
 20
634.993
 30
0.0
 11
1.35461
 21
633.991
 31
0.0
  0
LINE
  5
11b
100
AcDbEntity
  8
0
100
AcDbLine
 62
     0
 10
1.35461
 20
85.9924
 30
0.0
 11
9.35549
 21
85.9924
 31
0.0
  0
LINE
  5
11c
100
AcDbEntity
  8
0
100
AcDbLine
 62
     0
 10
1.35461
 20
633.991
 30
0.0
 11
9.35549
 21
633.991
 31
0.0
  0
LINE
  5
11d
100
AcDbEntity
  8
0
100
AcDbLine
 62
     0
 10
9.35549
 20
85.9924
 30
0.0
 11
9.35549
 21
633.991
 31
0.0
  0
LINE
  5
11e
100
AcDbEntity
  8
0
100
AcDbLine
 62
     0
 10
1.35461
 20
84.9933
 30
0.0
 11
9.35549
 21
84.9933
 31
0.0
  0
LINE
  5
11f
100
AcDbEntity
  8
0
100
AcDbLine
 62
     0
 10
1.35461
 20
634.993
 30
0.0
 11
9.35549
 21
634.993
 31
0.0
  0
LINE
  5
120
100
AcDbEntity
  8
0
100
AcDbLine
 62
     0
 10
10.3546
 20
85.9924
 30
0.0
 11
10.3546
 21
633.991
 31
0.0
  0
LINE
  5
121
100
AcDbEntity
  8
0
100
AcDbLine
 62
     0
 10
9.35549
 20
84.9933
 30
0.0
 11
9.35549
 21
85.9924
 31
0.0
  0
LINE
  5
122
100
AcDbEntity
  8
0
100
AcDbLine
 62
     0
 10
9.35549
 20
634.993
 30
0.0
 11
9.35549
 21
633.991
 31
0.0
  0
LINE
  5
123
100
AcDbEntity
  8
0
100
AcDbLine
 62
     0
 10
10.3546
 20
85.9924
 30
0.0
 11
9.35549
 21
85.9924
 31
0.0
  0
LINE
  5
124
100
AcDbEntity
  8
0
100
AcDbLine
 62
     0
 10
10.3546
 20
633.991
 30
0.0
 11
9.35549
 21
633.991
 31
0.0
  0
LINE
  5
125
100
AcDbEntity
  8
0
100
AcDbLine
 62
     0
 10
9.35549
 20
84.9933
 30
0.0
 11
10.3546
 21
85.9924
 31
0.0
  0
LINE
  5
126
100
AcDbEntity
  8
0
100
AcDbLine
 62
     0
 10
9.35549
 20
634.993
 30
0.0
 11
10.3546
 21
633.991
 31
0.0
  0
LINE
  5
127
100
AcDbEntity
  8
0
100
AcDbLine
 62
     0
 10
87.0119
 20
85.9924
 30
0.0
 11
87.0119
 21
633.991
 31
0.0
  0
LINE
  5
128
100
AcDbEntity
  8
0
100
AcDbLine
 62
     0
 10
87.0119
 20
85.9924
 30
0.0
 11
64.0126
 21
85.9924
 31
0.0
  0
LINE
  5
129
100
AcDbEntity
  8
0
100
AcDbLine
 62
     0
 10
87.0119
 20
633.991
 30
0.0
 11
64.0126
 21
633.991
 31
0.0
  0
LINE
  5
12a
100
AcDbEntity
  8
0
100
AcDbLine
 62
     0
 10
64.0126
 20
85.9924
 30
0.0
 11
64.0126
 21
633.991
 31
0.0
  0
SPLINE
  5
12b
100
AcDbEntity
  8
0
100
AcDbSpline
210
0.0
220
0.0
230
1.0
 62
     0
 70
     0
 71
     3
 72
     8
 73
4
 40
0.0
 40
0.0
 40
0.0
 40
0.0
 40
1.0
 40
1.0
 40
1.0
 40
1.0
 10
78.0122
 20
241.244
 30
0.0
 10
78.0122
 20
239.863
 30
0.0
 10
76.8932
 20
238.744
 30
0.0
 10
75.5124
 20
238.744
 30
0.0
  0
SPLINE
  5
12c
100
AcDbEntity
  8
0
100
AcDbSpline
210
0.0
220
0.0
230
1.0
 62
     0
 70
     0
 71
     3
 72
     8
 73
4
 40
0.0
 40
0.0
 40
0.0
 40
0.0
 40
1.0
 40
1.0
 40
1.0
 40
1.0
 10
75.5124
 20
238.744
 30
0.0
 10
74.1317
 20
238.744
 30
0.0
 10
73.0127
 20
239.863
 30
0.0
 10
73.0127
 20
241.244
 30
0.0
  0
SPLINE
  5
12d
100
AcDbEntity
  8
0
100
AcDbSpline
210
0.0
220
0.0
230
1.0
 62
     0
 70
     0
 71
     3
 72
     8
 73
4
 40
0.0
 40
0.0
 40
0.0
 40
0.0
 40
1.0
 40
1.0
 40
1.0
 40
1.0
 10
73.0127
 20
241.244
 30
0.0
 10
73.0127
 20
242.624
 30
0.0
 10
74.1317
 20
243.743
 30
0.0
 10
75.5124
 20
243.743
 30
0.0
  0
SPLINE
  5
12e
100
AcDbEntity
  8
0
100
AcDbSpline
210
0.0
220
0.0
230
1.0
 62
     0
 70
     0
 71
     3
 72
     8
 73
4
 40
0.0
 40
0.0
 40
0.0
 40
0.0
 40
1.0
 40
1.0
 40
1.0
 40
1.0
 10
75.5124
 20
243.743
 30
0.0
 10
76.8932
 20
243.743
 30
0.0
 10
78.0122
 20
242.624
 30
0.0
 10
78.0122
 20
241.244
 30
0.0
  0
SPLINE
  5
12f
100
AcDbEntity
  8
0
100
AcDbSpline
210
0.0
220
0.0
230
1.0
 62
     0
 70
     0
 71
     3
 72
     8
 73
4
 40
0.0
 40
0.0
 40
0.0
 40
0.0
 40
1.0
 40
1.0
 40
1.0
 40
1.0
 10
78.0122
 20
353.741
 30
0.0
 10
78.0122
 20
352.363
 30
0.0
 10
76.8932
 20
351.242
 30
0.0
 10
75.5124
 20
351.242
 30
0.0
  0
SPLINE
  5
130
100
AcDbEntity
  8
0
100
AcDbSpline
210
0.0
220
0.0
230
1.0
 62
     0
 70
     0
 71
     3
 72
     8
 73
4
 40
0.0
 40
0.0
 40
0.0
 40
0.0
 40
1.0
 40
1.0
 40
1.0
 40
1.0
 10
75.5124
 20
351.242
 30
0.0
 10
74.1317
 20
351.242
 30
0.0
 10
73.0127
 20
352.363
 30
0.0
 10
73.0127
 20
353.741
 30
0.0
  0
SPLINE
  5
131
100
AcDbEntity
  8
0
100
AcDbSpline
210
0.0
220
0.0
230
1.0
 62
     0
 70
     0
 71
     3
 72
     8
 73
4
 40
0.0
 40
0.0
 40
0.0
 40
0.0
 40
1.0
 40
1.0
 40
1.0
 40
1.0
 10
73.0127
 20
353.741
 30
0.0
 10
73.0127
 20
355.124
 30
0.0
 10
74.1317
 20
356.242
 30
0.0
 10
75.5124
 20
356.242
 30
0.0
  0
SPLINE
  5
132
100
AcDbEntity
  8
0
100
AcDbSpline
210
0.0
220
0.0
230
1.0
 62
     0
 70
     0
 71
     3
 72
     8
 73
4
 40
0.0
 40
0.0
 40
0.0
 40
0.0
 40
1.0
 40
1.0
 40
1.0
 40
1.0
 10
75.5124
 20
356.242
 30
0.0
 10
76.8932
 20
356.242
 30
0.0
 10
78.0122
 20
355.124
 30
0.0
 10
78.0122
 20
353.741
 30
0.0
  0
SPLINE
  5
133
100
AcDbEntity
  8
0
100
AcDbSpline
210
0.0
220
0.0
230
1.0
 62
     0
 70
     0
 71
     3
 72
     8
 73
4
 40
0.0
 40
0.0
 40
0.0
 40
0.0
 40
1.0
 40
1.0
 40
1.0
 40
1.0
 10
78.0122
 20
331.243
 30
0.0
 10
78.0122
 20
329.862
 30
0.0
 10
76.8932
 20
328.743
 30
0.0
 10
75.5124
 20
328.743
 30
0.0
  0
SPLINE
  5
134
100
AcDbEntity
  8
0
100
AcDbSpline
210
0.0
220
0.0
230
1.0
 62
     0
 70
     0
 71
     3
 72
     8
 73
4
 40
0.0
 40
0.0
 40
0.0
 40
0.0
 40
1.0
 40
1.0
 40
1.0
 40
1.0
 10
75.5124
 20
328.743
 30
0.0
 10
74.1317
 20
328.743
 30
0.0
 10
73.0127
 20
329.862
 30
0.0
 10
73.0127
 20
331.243
 30
0.0
  0
SPLINE
  5
135
100
AcDbEntity
  8
0
100
AcDbSpline
210
0.0
220
0.0
230
1.0
 62
     0
 70
     0
 71
     3
 72
     8
 73
4
 40
0.0
 40
0.0
 40
0.0
 40
0.0
 40
1.0
 40
1.0
 40
1.0
 40
1.0
 10
73.0127
 20
331.243
 30
0.0
 10
73.0127
 20
332.624
 30
0.0
 10
74.1317
 20
333.744
 30
0.0
 10
75.5124
 20
333.744
 30
0.0
  0
SPLINE
  5
136
100
AcDbEntity
  8
0
100
AcDbSpline
210
0.0
220
0.0
230
1.0
 62
     0
 70
     0
 71
     3
 72
     8
 73
4
 40
0.0
 40
0.0
 40
0.0
 40
0.0
 40
1.0
 40
1.0
 40
1.0
 40
1.0
 10
75.5124
 20
333.744
 30
0.0
 10
76.8932
 20
333.744
 30
0.0
 10
78.0122
 20
332.624
 30
0.0
 10
78.0122
 20
331.243
 30
0.0
  0
SPLINE
  5
137
100
AcDbEntity
  8
0
100
AcDbSpline
210
0.0
220
0.0
230
1.0
 62
     0
 70
     0
 71
     3
 72
     8
 73
4
 40
0.0
 40
0.0
 40
0.0
 40
0.0
 40
1.0
 40
1.0
 40
1.0
 40
1.0
 10
78.0122
 20
578.746
 30
0.0
 10
78.0122
 20
577.363
 30
0.0
 10
76.8932
 20
576.241
 30
0.0
 10
75.5124
 20
576.241
 30
0.0
  0
SPLINE
  5
138
100
AcDbEntity
  8
0
100
AcDbSpline
210
0.0
220
0.0
230
1.0
 62
     0
 70
     0
 71
     3
 72
     8
 73
4
 40
0.0
 40
0.0
 40
0.0
 40
0.0
 40
1.0
 40
1.0
 40
1.0
 40
1.0
 10
75.5124
 20
576.241
 30
0.0
 10
74.1317
 20
576.241
 30
0.0
 10
73.0127
 20
577.363
 30
0.0
 10
73.0127
 20
578.746
 30
0.0
  0
SPLINE
  5
139
100
AcDbEntity
  8
0
100
AcDbSpline
210
0.0
220
0.0
230
1.0
 62
     0
 70
     0
 71
     3
 72
     8
 73
4
 40
0.0
 40
0.0
 40
0.0
 40
0.0
 40
1.0
 40
1.0
 40
1.0
 40
1.0
 10
73.0127
 20
578.746
 30
0.0
 10
73.0127
 20
580.125
 30
0.0
 10
74.1317
 20
581.244
 30
0.0
 10
75.5124
 20
581.244
 30
0.0
  0
SPLINE
  5
13a
100
AcDbEntity
  8
0
100
AcDbSpline
210
0.0
220
0.0
230
1.0
 62
     0
 70
     0
 71
     3
 72
     8
 73
4
 40
0.0
 40
0.0
 40
0.0
 40
0.0
 40
1.0
 40
1.0
 40
1.0
 40
1.0
 10
75.5124
 20
581.244
 30
0.0
 10
76.8932
 20
581.244
 30
0.0
 10
78.0122
 20
580.125
 30
0.0
 10
78.0122
 20
578.746
 30
0.0
  0
SPLINE
  5
13b
100
AcDbEntity
  8
0
100
AcDbSpline
210
0.0
220
0.0
230
1.0
 62
     0
 70
     0
 71
     3
 72
     8
 73
4
 40
0.0
 40
0.0
 40
0.0
 40
0.0
 40
1.0
 40
1.0
 40
1.0
 40
1.0
 10
78.0122
 20
556.242
 30
0.0
 10
78.0122
 20
554.863
 30
0.0
 10
76.8932
 20
553.745
 30
0.0
 10
75.5124
 20
553.745
 30
0.0
  0
SPLINE
  5
13c
100
AcDbEntity
  8
0
100
AcDbSpline
210
0.0
220
0.0
230
1.0
 62
     0
 70
     0
 71
     3
 72
     8
 73
4
 40
0.0
 40
0.0
 40
0.0
 40
0.0
 40
1.0
 40
1.0
 40
1.0
 40
1.0
 10
75.5124
 20
553.745
 30
0.0
 10
74.1317
 20
553.745
 30
0.0
 10
73.0127
 20
554.863
 30
0.0
 10
73.0127
 20
556.242
 30
0.0
  0
SPLINE
  5
13d
100
AcDbEntity
  8
0
100
AcDbSpline
210
0.0
220
0.0
230
1.0
 62
     0
 70
     0
 71
     3
 72
     8
 73
4
 40
0.0
 40
0.0
 40
0.0
 40
0.0
 40
1.0
 40
1.0
 40
1.0
 40
1.0
 10
73.0127
 20
556.242
 30
0.0
 10
73.0127
 20
557.625
 30
0.0
 10
74.1317
 20
558.744
 30
0.0
 10
75.5124
 20
558.744
 30
0.0
  0
SPLINE
  5
13e
100
AcDbEntity
  8
0
100
AcDbSpline
210
0.0
220
0.0
230
1.0
 62
     0
 70
     0
 71
     3
 72
     8
 73
4
 40
0.0
 40
0.0
 40
0.0
 40
0.0
 40
1.0
 40
1.0
 40
1.0
 40
1.0
 10
75.5124
 20
558.744
 30
0.0
 10
76.8932
 20
558.744
 30
0.0
 10
78.0122
 20
557.625
 30
0.0
 10
78.0122
 20
556.242
 30
0.0
  0
SPLINE
  5
13f
100
AcDbEntity
  8
0
100
AcDbSpline
210
0.0
220
0.0
230
1.0
 62
     0
 70
     0
 71
     3
 72
     8
 73
4
 40
0.0
 40
0.0
 40
0.0
 40
0.0
 40
1.0
 40
1.0
 40
1.0
 40
1.0
 10
78.0122
 20
466.242
 30
0.0
 10
78.0122
 20
464.862
 30
0.0
 10
76.8932
 20
463.744
 30
0.0
 10
75.5124
 20
463.744
 30
0.0
  0
SPLINE
  5
140
100
AcDbEntity
  8
0
100
AcDbSpline
210
0.0
220
0.0
230
1.0
 62
     0
 70
     0
 71
     3
 72
     8
 73
4
 40
0.0
 40
0.0
 40
0.0
 40
0.0
 40
1.0
 40
1.0
 40
1.0
 40
1.0
 10
75.5124
 20
463.744
 30
0.0
 10
74.1317
 20
463.744
 30
0.0
 10
73.0127
 20
464.862
 30
0.0
 10
73.0127
 20
466.242
 30
0.0
  0
SPLINE
  5
141
100
AcDbEntity
  8
0
100
AcDbSpline
210
0.0
220
0.0
230
1.0
 62
     0
 70
     0
 71
     3
 72
     8
 73
4
 40
0.0
 40
0.0
 40
0.0
 40
0.0
 40
1.0
 40
1.0
 40
1.0
 40
1.0
 10
73.0127
 20
466.242
 30
0.0
 10
73.0127
 20
467.625
 30
0.0
 10
74.1317
 20
468.743
 30
0.0
 10
75.5124
 20
468.743
 30
0.0
  0
SPLINE
  5
142
100
AcDbEntity
  8
0
100
AcDbSpline
210
0.0
220
0.0
230
1.0
 62
     0
 70
     0
 71
     3
 72
     8
 73
4
 40
0.0
 40
0.0
 40
0.0
 40
0.0
 40
1.0
 40
1.0
 40
1.0
 40
1.0
 10
75.5124
 20
468.743
 30
0.0
 10
76.8932
 20
468.743
 30
0.0
 10
78.0122
 20
467.625
 30
0.0
 10
78.0122
 20
466.242
 30
0.0
  0
SPLINE
  5
143
100
AcDbEntity
  8
0
100
AcDbSpline
210
0.0
220
0.0
230
1.0
 62
     0
 70
     0
 71
     3
 72
     8
 73
4
 40
0.0
 40
0.0
 40
0.0
 40
0.0
 40
1.0
 40
1.0
 40
1.0
 40
1.0
 10
78.0122
 20
443.742
 30
0.0
 10
78.0122
 20
442.362
 30
0.0
 10
76.8932
 20
441.244
 30
0.0
 10
75.5124
 20
441.244
 30
0.0
  0
SPLINE
  5
144
100
AcDbEntity
  8
0
100
AcDbSpline
210
0.0
220
0.0
230
1.0
 62
     0
 70
     0
 71
     3
 72
     8
 73
4
 40
0.0
 40
0.0
 40
0.0
 40
0.0
 40
1.0
 40
1.0
 40
1.0
 40
1.0
 10
75.5124
 20
441.244
 30
0.0
 10
74.1317
 20
441.244
 30
0.0
 10
73.0127
 20
442.362
 30
0.0
 10
73.0127
 20
443.742
 30
0.0
  0
SPLINE
  5
145
100
AcDbEntity
  8
0
100
AcDbSpline
210
0.0
220
0.0
230
1.0
 62
     0
 70
     0
 71
     3
 72
     8
 73
4
 40
0.0
 40
0.0
 40
0.0
 40
0.0
 40
1.0
 40
1.0
 40
1.0
 40
1.0
 10
73.0127
 20
443.742
 30
0.0
 10
73.0127
 20
445.124
 30
0.0
 10
74.1317
 20
446.243
 30
0.0
 10
75.5124
 20
446.243
 30
0.0
  0
SPLINE
  5
146
100
AcDbEntity
  8
0
100
AcDbSpline
210
0.0
220
0.0
230
1.0
 62
     0
 70
     0
 71
     3
 72
     8
 73
4
 40
0.0
 40
0.0
 40
0.0
 40
0.0
 40
1.0
 40
1.0
 40
1.0
 40
1.0
 10
75.5124
 20
446.243
 30
0.0
 10
76.8932
 20
446.243
 30
0.0
 10
78.0122
 20
445.124
 30
0.0
 10
78.0122
 20
443.742
 30
0.0
  0
SPLINE
  5
147
100
AcDbEntity
  8
0
100
AcDbSpline
210
0.0
220
0.0
230
1.0
 62
     0
 70
     0
 71
     3
 72
     8
 73
4
 40
0.0
 40
0.0
 40
0.0
 40
0.0
 40
1.0
 40
1.0
 40
1.0
 40
1.0
 10
78.0122
 20
106.244
 30
0.0
 10
78.0122
 20
104.863
 30
0.0
 10
76.8932
 20
103.744
 30
0.0
 10
75.5124
 20
103.744
 30
0.0
  0
SPLINE
  5
148
100
AcDbEntity
  8
0
100
AcDbSpline
210
0.0
220
0.0
230
1.0
 62
     0
 70
     0
 71
     3
 72
     8
 73
4
 40
0.0
 40
0.0
 40
0.0
 40
0.0
 40
1.0
 40
1.0
 40
1.0
 40
1.0
 10
75.5124
 20
103.744
 30
0.0
 10
74.1317
 20
103.744
 30
0.0
 10
73.0127
 20
104.863
 30
0.0
 10
73.0127
 20
106.244
 30
0.0
  0
SPLINE
  5
149
100
AcDbEntity
  8
0
100
AcDbSpline
210
0.0
220
0.0
230
1.0
 62
     0
 70
     0
 71
     3
 72
     8
 73
4
 40
0.0
 40
0.0
 40
0.0
 40
0.0
 40
1.0
 40
1.0
 40
1.0
 40
1.0
 10
73.0127
 20
106.244
 30
0.0
 10
73.0127
 20
107.625
 30
0.0
 10
74.1317
 20
108.744
 30
0.0
 10
75.5124
 20
108.744
 30
0.0
  0
SPLINE
  5
14a
100
AcDbEntity
  8
0
100
AcDbSpline
210
0.0
220
0.0
230
1.0
 62
     0
 70
     0
 71
     3
 72
     8
 73
4
 40
0.0
 40
0.0
 40
0.0
 40
0.0
 40
1.0
 40
1.0
 40
1.0
 40
1.0
 10
75.5124
 20
108.744
 30
0.0
 10
76.8932
 20
108.744
 30
0.0
 10
78.0122
 20
107.625
 30
0.0
 10
78.0122
 20
106.244
 30
0.0
  0
SPLINE
  5
14b
100
AcDbEntity
  8
0
100
AcDbSpline
210
0.0
220
0.0
230
1.0
 62
     0
 70
     0
 71
     3
 72
     8
 73
4
 40
0.0
 40
0.0
 40
0.0
 40
0.0
 40
1.0
 40
1.0
 40
1.0
 40
1.0
 10
78.0122
 20
128.742
 30
0.0
 10
78.0122
 20
127.361
 30
0.0
 10
76.8932
 20
126.242
 30
0.0
 10
75.5124
 20
126.242
 30
0.0
  0
SPLINE
  5
14c
100
AcDbEntity
  8
0
100
AcDbSpline
210
0.0
220
0.0
230
1.0
 62
     0
 70
     0
 71
     3
 72
     8
 73
4
 40
0.0
 40
0.0
 40
0.0
 40
0.0
 40
1.0
 40
1.0
 40
1.0
 40
1.0
 10
75.5124
 20
126.242
 30
0.0
 10
74.1317
 20
126.242
 30
0.0
 10
73.0127
 20
127.361
 30
0.0
 10
73.0127
 20
128.742
 30
0.0
  0
SPLINE
  5
14d
100
AcDbEntity
  8
0
100
AcDbSpline
210
0.0
220
0.0
230
1.0
 62
     0
 70
     0
 71
     3
 72
     8
 73
4
 40
0.0
 40
0.0
 40
0.0
 40
0.0
 40
1.0
 40
1.0
 40
1.0
 40
1.0
 10
73.0127
 20
128.742
 30
0.0
 10
73.0127
 20
130.123
 30
0.0
 10
74.1317
 20
131.241
 30
0.0
 10
75.5124
 20
131.241
 30
0.0
  0
SPLINE
  5
14e
100
AcDbEntity
  8
0
100
AcDbSpline
210
0.0
220
0.0
230
1.0
 62
     0
 70
     0
 71
     3
 72
     8
 73
4
 40
0.0
 40
0.0
 40
0.0
 40
0.0
 40
1.0
 40
1.0
 40
1.0
 40
1.0
 10
75.5124
 20
131.241
 30
0.0
 10
76.8932
 20
131.241
 30
0.0
 10
78.0122
 20
130.123
 30
0.0
 10
78.0122
 20
128.742
 30
0.0
  0
SPLINE
  5
14f
100
AcDbEntity
  8
0
100
AcDbSpline
210
0.0
220
0.0
230
1.0
 62
     0
 70
     0
 71
     3
 72
     8
 73
4
 40
0.0
 40
0.0
 40
0.0
 40
0.0
 40
1.0
 40
1.0
 40
1.0
 40
1.0
 10
78.0122
 20
218.743
 30
0.0
 10
78.0122
 20
217.361
 30
0.0
 10
76.8932
 20
216.242
 30
0.0
 10
75.5124
 20
216.242
 30
0.0
  0
SPLINE
  5
150
100
AcDbEntity
  8
0
100
AcDbSpline
210
0.0
220
0.0
230
1.0
 62
     0
 70
     0
 71
     3
 72
     8
 73
4
 40
0.0
 40
0.0
 40
0.0
 40
0.0
 40
1.0
 40
1.0
 40
1.0
 40
1.0
 10
75.5124
 20
216.242
 30
0.0
 10
74.1317
 20
216.242
 30
0.0
 10
73.0127
 20
217.361
 30
0.0
 10
73.0127
 20
218.743
 30
0.0
  0
SPLINE
  5
151
100
AcDbEntity
  8
0
100
AcDbSpline
210
0.0
220
0.0
230
1.0
 62
     0
 70
     0
 71
     3
 72
     8
 73
4
 40
0.0
 40
0.0
 40
0.0
 40
0.0
 40
1.0
 40
1.0
 40
1.0
 40
1.0
 10
73.0127
 20
218.743
 30
0.0
 10
73.0127
 20
220.124
 30
0.0
 10
74.1317
 20
221.243
 30
0.0
 10
75.5124
 20
221.243
 30
0.0
  0
SPLINE
  5
152
100
AcDbEntity
  8
0
100
AcDbSpline
210
0.0
220
0.0
230
1.0
 62
     0
 70
     0
 71
     3
 72
     8
 73
4
 40
0.0
 40
0.0
 40
0.0
 40
0.0
 40
1.0
 40
1.0
 40
1.0
 40
1.0
 10
75.5124
 20
221.243
 30
0.0
 10
76.8932
 20
221.243
 30
0.0
 10
78.0122
 20
220.124
 30
0.0
 10
78.0122
 20
218.743
 30
0.0
  0
LINE
  5
153
100
AcDbEntity
  8
0
100
AcDbLine
 62
     0
 10
87.0119
 20
85.9924
 30
0.0
 11
88.0124
 21
85.9924
 31
0.0
  0
LINE
  5
154
100
AcDbEntity
  8
0
100
AcDbLine
 62
     0
 10
87.0119
 20
633.991
 30
0.0
 11
88.0124
 21
633.991
 31
0.0
  0
LINE
  5
155
100
AcDbEntity
  8
0
100
AcDbLine
 62
     0
 10
88.0124
 20
85.9924
 30
0.0
 11
88.0124
 21
633.991
 31
0.0
  0
LINE
  5
156
100
AcDbEntity
  8
0
100
AcDbLine
 62
     0
 10
87.0119
 20
84.9933
 30
0.0
 11
87.0119
 21
85.9924
 31
0.0
  0
LINE
  5
157
100
AcDbEntity
  8
0
100
AcDbLine
 62
     0
 10
87.0119
 20
84.9933
 30
0.0
 11
64.0126
 21
84.9933
 31
0.0
  0
LINE
  5
158
100
AcDbEntity
  8
0
100
AcDbLine
 62
     0
 10
64.0126
 20
84.9933
 30
0.0
 11
64.0126
 21
85.9924
 31
0.0
  0
LINE
  5
159
100
AcDbEntity
  8
0
100
AcDbLine
 62
     0
 10
87.0119
 20
634.993
 30
0.0
 11
87.0119
 21
633.991
 31
0.0
  0
LINE
  5
15a
100
AcDbEntity
  8
0
100
AcDbLine
 62
     0
 10
87.0119
 20
634.993
 30
0.0
 11
64.0126
 21
634.993
 31
0.0
  0
LINE
  5
15b
100
AcDbEntity
  8
0
100
AcDbLine
 62
     0
 10
64.0126
 20
633.991
 30
0.0
 11
64.0126
 21
634.993
 31
0.0
  0
LINE
  5
15c
100
AcDbEntity
  8
0
100
AcDbLine
 62
     0
 10
64.0126
 20
85.9924
 30
0.0
 11
63.0121
 21
85.9924
 31
0.0
  0
LINE
  5
15d
100
AcDbEntity
  8
0
100
AcDbLine
 62
     0
 10
63.0121
 20
633.991
 30
0.0
 11
64.0126
 21
633.991
 31
0.0
  0
LINE
  5
15e
100
AcDbEntity
  8
0
100
AcDbLine
 62
     0
 10
63.0121
 20
85.9924
 30
0.0
 11
63.0121
 21
633.991
 31
0.0
  0
LINE
  5
15f
100
AcDbEntity
  8
0
100
AcDbLine
 62
     0
 10
87.0119
 20
84.9933
 30
0.0
 11
88.0124
 21
85.9924
 31
0.0
  0
LINE
  5
160
100
AcDbEntity
  8
0
100
AcDbLine
 62
     0
 10
87.0119
 20
634.993
 30
0.0
 11
88.0124
 21
633.991
 31
0.0
  0
LINE
  5
161
100
AcDbEntity
  8
0
100
AcDbLine
 62
     0
 10
64.0126
 20
84.9933
 30
0.0
 11
63.0121
 21
85.9924
 31
0.0
  0
LINE
  5
162
100
AcDbEntity
  8
0
100
AcDbLine
 62
     0
 10
63.0121
 20
633.991
 30
0.0
 11
64.0126
 21
634.993
 31
0.0
  0
LINE
  5
163
100
AcDbEntity
  8
0
100
AcDbLine
 62
     0
 10
75.5124
 20
238.442
 30
0.0
 11
75.5124
 21
244.042
 31
0.0
  0
LINE
  5
164
100
AcDbEntity
  8
0
100
AcDbLine
 62
     0
 10
78.3124
 20
241.244
 30
0.0
 11
72.7121
 21
241.244
 31
0.0
  0
LINE
  5
165
100
AcDbEntity
  8
0
100
AcDbLine
 62
     0
 10
75.5124
 20
238.442
 30
0.0
 11
75.5124
 21
244.042
 31
0.0
  0
LINE
  5
166
100
AcDbEntity
  8
0
100
AcDbLine
 62
     0
 10
78.3124
 20
241.244
 30
0.0
 11
72.7121
 21
241.244
 31
0.0
  0
LINE
  5
167
100
AcDbEntity
  8
0
100
AcDbLine
 62
     0
 10
75.5124
 20
350.944
 30
0.0
 11
75.5124
 21
356.545
 31
0.0
  0
LINE
  5
168
100
AcDbEntity
  8
0
100
AcDbLine
 62
     0
 10
78.3124
 20
353.741
 30
0.0
 11
72.7121
 21
353.741
 31
0.0
  0
LINE
  5
169
100
AcDbEntity
  8
0
100
AcDbLine
 62
     0
 10
75.5124
 20
350.942
 30
0.0
 11
75.5124
 21
356.545
 31
0.0
  0
LINE
  5
16a
100
AcDbEntity
  8
0
100
AcDbLine
 62
     0
 10
78.3124
 20
353.741
 30
0.0
 11
72.7121
 21
353.741
 31
0.0
  0
LINE
  5
16b
100
AcDbEntity
  8
0
100
AcDbLine
 62
     0
 10
75.5124
 20
328.443
 30
0.0
 11
75.5124
 21
334.044
 31
0.0
  0
LINE
  5
16c
100
AcDbEntity
  8
0
100
AcDbLine
 62
     0
 10
78.3124
 20
331.242
 30
0.0
 11
72.7121
 21
331.242
 31
0.0
  0
LINE
  5
16d
100
AcDbEntity
  8
0
100
AcDbLine
 62
     0
 10
75.5124
 20
328.442
 30
0.0
 11
75.5124
 21
334.042
 31
0.0
  0
LINE
  5
16e
100
AcDbEntity
  8
0
100
AcDbLine
 62
     0
 10
78.3124
 20
331.243
 30
0.0
 11
72.7121
 21
331.243
 31
0.0
  0
LINE
  5
16f
100
AcDbEntity
  8
0
100
AcDbLine
 62
     0
 10
75.5124
 20
575.945
 30
0.0
 11
75.5124
 21
581.544
 31
0.0
  0
LINE
  5
170
100
AcDbEntity
  8
0
100
AcDbLine
 62
     0
 10
78.3124
 20
578.743
 30
0.0
 11
72.7121
 21
578.743
 31
0.0
  0
LINE
  5
171
100
AcDbEntity
  8
0
100
AcDbLine
 62
     0
 10
75.5124
 20
575.941
 30
0.0
 11
75.5124
 21
581.54
 31
0.0
  0
LINE
  5
172
100
AcDbEntity
  8
0
100
AcDbLine
 62
     0
 10
78.3124
 20
578.743
 30
0.0
 11
72.7121
 21
578.743
 31
0.0
  0
LINE
  5
173
100
AcDbEntity
  8
0
100
AcDbLine
 62
     0
 10
75.5124
 20
553.441
 30
0.0
 11
75.5124
 21
559.043
 31
0.0
  0
LINE
  5
174
100
AcDbEntity
  8
0
100
AcDbLine
 62
     0
 10
78.3124
 20
556.242
 30
0.0
 11
72.7121
 21
556.242
 31
0.0
  0
LINE
  5
175
100
AcDbEntity
  8
0
100
AcDbLine
 62
     0
 10
75.5124
 20
553.441
 30
0.0
 11
75.5124
 21
559.043
 31
0.0
  0
LINE
  5
176
100
AcDbEntity
  8
0
100
AcDbLine
 62
     0
 10
78.3124
 20
556.242
 30
0.0
 11
72.7121
 21
556.242
 31
0.0
  0
LINE
  5
177
100
AcDbEntity
  8
0
100
AcDbLine
 62
     0
 10
75.5124
 20
463.444
 30
0.0
 11
75.5124
 21
469.043
 31
0.0
  0
LINE
  5
178
100
AcDbEntity
  8
0
100
AcDbLine
 62
     0
 10
78.3124
 20
466.245
 30
0.0
 11
72.7121
 21
466.245
 31
0.0
  0
LINE
  5
179
100
AcDbEntity
  8
0
100
AcDbLine
 62
     0
 10
75.5124
 20
463.444
 30
0.0
 11
75.5124
 21
469.043
 31
0.0
  0
LINE
  5
17a
100
AcDbEntity
  8
0
100
AcDbLine
 62
     0
 10
78.3124
 20
466.242
 30
0.0
 11
72.7121
 21
466.242
 31
0.0
  0
LINE
  5
17b
100
AcDbEntity
  8
0
100
AcDbLine
 62
     0
 10
75.5124
 20
440.94
 30
0.0
 11
75.5124
 21
446.543
 31
0.0
  0
LINE
  5
17c
100
AcDbEntity
  8
0
100
AcDbLine
 62
     0
 10
78.3124
 20
443.745
 30
0.0
 11
72.7121
 21
443.745
 31
0.0
  0
LINE
  5
17d
100
AcDbEntity
  8
0
100
AcDbLine
 62
     0
 10
75.5124
 20
440.944
 30
0.0
 11
75.5124
 21
446.543
 31
0.0
  0
LINE
  5
17e
100
AcDbEntity
  8
0
100
AcDbLine
 62
     0
 10
78.3124
 20
443.742
 30
0.0
 11
72.7121
 21
443.742
 31
0.0
  0
LINE
  5
17f
100
AcDbEntity
  8
0
100
AcDbLine
 62
     0
 10
75.5124
 20
103.444
 30
0.0
 11
75.5124
 21
109.044
 31
0.0
  0
LINE
  5
180
100
AcDbEntity
  8
0
100
AcDbLine
 62
     0
 10
78.3124
 20
106.243
 30
0.0
 11
72.7121
 21
106.243
 31
0.0
  0
LINE
  5
181
100
AcDbEntity
  8
0
100
AcDbLine
 62
     0
 10
75.5124
 20
103.443
 30
0.0
 11
75.5124
 21
109.043
 31
0.0
  0
LINE
  5
182
100
AcDbEntity
  8
0
100
AcDbLine
 62
     0
 10
78.3124
 20
106.244
 30
0.0
 11
72.7121
 21
106.244
 31
0.0
  0
LINE
  5
183
100
AcDbEntity
  8
0
100
AcDbLine
 62
     0
 10
75.5124
 20
125.943
 30
0.0
 11
75.5124
 21
131.543
 31
0.0
  0
LINE
  5
184
100
AcDbEntity
  8
0
100
AcDbLine
 62
     0
 10
78.3124
 20
128.742
 30
0.0
 11
72.7121
 21
128.742
 31
0.0
  0
LINE
  5
185
100
AcDbEntity
  8
0
100
AcDbLine
 62
     0
 10
75.5124
 20
125.943
 30
0.0
 11
75.5124
 21
131.543
 31
0.0
  0
LINE
  5
186
100
AcDbEntity
  8
0
100
AcDbLine
 62
     0
 10
78.3124
 20
128.742
 30
0.0
 11
72.7121
 21
128.742
 31
0.0
  0
LINE
  5
187
100
AcDbEntity
  8
0
100
AcDbLine
 62
     0
 10
75.5124
 20
215.943
 30
0.0
 11
75.5124
 21
221.542
 31
0.0
  0
LINE
  5
188
100
AcDbEntity
  8
0
100
AcDbLine
 62
     0
 10
78.3124
 20
218.744
 30
0.0
 11
72.7121
 21
218.744
 31
0.0
  0
LINE
  5
189
100
AcDbEntity
  8
0
100
AcDbLine
 62
     0
 10
75.5124
 20
215.944
 30
0.0
 11
75.5124
 21
221.543
 31
0.0
  0
LINE
  5
18a
100
AcDbEntity
  8
0
100
AcDbLine
 62
     0
 10
78.3124
 20
218.743
 30
0.0
 11
72.7121
 21
218.743
 31
0.0
  0
LINE
  5
18b
100
AcDbEntity
  8
0
100
AcDbLine
 62
     0
 10
25.3545
 20
28.0527
 30
0.0
 11
25.3545
 21
51.0522
 31
0.0
  0
LINE
  5
18c
100
AcDbEntity
  8
0
100
AcDbLine
 62
     0
 10
25.3545
 20
28.0527
 30
0.0
 11
24.3555
 21
27.0523
 31
0.0
  0
LINE
  5
18d
100
AcDbEntity
  8
0
100
AcDbLine
 62
     0
 10
24.3555
 20
28.0527
 30
0.0
 11
25.3545
 21
28.0527
 31
0.0
  0
LINE
  5
18e
100
AcDbEntity
  8
0
100
AcDbLine
 62
     0
 10
24.3555
 20
28.0527
 30
0.0
 11
24.3555
 21
51.0522
 31
0.0
  0
LINE
  5
18f
100
AcDbEntity
  8
0
100
AcDbLine
 62
     0
 10
25.3545
 20
51.0522
 30
0.0
 11
24.3555
 21
51.0522
 31
0.0
  0
LINE
  5
190
100
AcDbEntity
  8
0
100
AcDbLine
 62
     0
 10
24.3555
 20
52.0527
 30
0.0
 11
25.3545
 21
51.0522
 31
0.0
  0
LINE
  5
191
100
AcDbEntity
  8
0
100
AcDbLine
 62
     0
 10
24.3555
 20
28.0527
 30
0.0
 11
24.3555
 21
27.0523
 31
0.0
  0
LINE
  5
192
100
AcDbEntity
  8
0
100
AcDbLine
 62
     0
 10
24.3555
 20
27.0523
 30
0.0
 11
16.3546
 21
27.0523
 31
0.0
  0
LINE
  5
193
100
AcDbEntity
  8
0
100
AcDbLine
 62
     0
 10
24.3555
 20
28.0527
 30
0.0
 11
16.3546
 21
28.0527
 31
0.0
  0
LINE
  5
194
100
AcDbEntity
  8
0
100
AcDbLine
 62
     0
 10
24.3555
 20
51.0522
 30
0.0
 11
16.3546
 21
51.0522
 31
0.0
  0
LINE
  5
195
100
AcDbEntity
  8
0
100
AcDbLine
 62
     0
 10
16.3546
 20
28.0527
 30
0.0
 11
16.3546
 21
51.0522
 31
0.0
  0
LINE
  5
196
100
AcDbEntity
  8
0
100
AcDbLine
 62
     0
 10
24.3555
 20
52.0527
 30
0.0
 11
24.3555
 21
51.0522
 31
0.0
  0
LINE
  5
197
100
AcDbEntity
  8
0
100
AcDbLine
 62
     0
 10
24.3555
 20
52.0527
 30
0.0
 11
16.3546
 21
52.0527
 31
0.0
  0
LINE
  5
198
100
AcDbEntity
  8
0
100
AcDbLine
 62
     0
 10
15.3555
 20
28.0527
 30
0.0
 11
15.3555
 21
51.0522
 31
0.0
  0
LINE
  5
199
100
AcDbEntity
  8
0
100
AcDbLine
 62
     0
 10
16.3546
 20
28.0527
 30
0.0
 11
16.3546
 21
27.0523
 31
0.0
  0
LINE
  5
19a
100
AcDbEntity
  8
0
100
AcDbLine
 62
     0
 10
15.3555
 20
28.0527
 30
0.0
 11
16.3546
 21
27.0523
 31
0.0
  0
LINE
  5
19b
100
AcDbEntity
  8
0
100
AcDbLine
 62
     0
 10
16.3546
 20
52.0527
 30
0.0
 11
16.3546
 21
51.0522
 31
0.0
  0
LINE
  5
19c
100
AcDbEntity
  8
0
100
AcDbLine
 62
     0
 10
16.3546
 20
28.0527
 30
0.0
 11
15.3555
 21
28.0527
 31
0.0
  0
LINE
  5
19d
100
AcDbEntity
  8
0
100
AcDbLine
 62
     0
 10
15.3555
 20
51.0522
 30
0.0
 11
16.3546
 21
51.0522
 31
0.0
  0
LINE
  5
19e
100
AcDbEntity
  8
0
100
AcDbLine
 62
     0
 10
16.3546
 20
52.0527
 30
0.0
 11
15.3555
 21
51.0522
 31
0.0
  0
LINE
  5
19f
100
AcDbEntity
  8
0
100
AcDbLine
 62
     0
 10
0.355533
 20
28.0527
 30
0.0
 11
0.355533
 21
51.0522
 31
0.0
  0
LINE
  5
1a0
100
AcDbEntity
  8
0
100
AcDbLine
 62
     0
 10
0.355533
 20
28.0527
 30
0.0
 11
1.35461
 21
27.0523
 31
0.0
  0
LINE
  5
1a1
100
AcDbEntity
  8
0
100
AcDbLine
 62
     0
 10
1.35461
 20
28.0527
 30
0.0
 11
0.355533
 21
28.0527
 31
0.0
  0
LINE
  5
1a2
100
AcDbEntity
  8
0
100
AcDbLine
 62
     0
 10
1.35461
 20
28.0527
 30
0.0
 11
1.35461
 21
51.0522
 31
0.0
  0
LINE
  5
1a3
100
AcDbEntity
  8
0
100
AcDbLine
 62
     0
 10
0.355533
 20
51.0522
 30
0.0
 11
1.35461
 21
51.0522
 31
0.0
  0
LINE
  5
1a4
100
AcDbEntity
  8
0
100
AcDbLine
 62
     0
 10
1.35461
 20
52.0527
 30
0.0
 11
0.355533
 21
51.0522
 31
0.0
  0
LINE
  5
1a5
100
AcDbEntity
  8
0
100
AcDbLine
 62
     0
 10
1.35461
 20
28.0527
 30
0.0
 11
1.35461
 21
27.0523
 31
0.0
  0
LINE
  5
1a6
100
AcDbEntity
  8
0
100
AcDbLine
 62
     0
 10
1.35461
 20
27.0523
 30
0.0
 11
9.35549
 21
27.0523
 31
0.0
  0
LINE
  5
1a7
100
AcDbEntity
  8
0
100
AcDbLine
 62
     0
 10
1.35461
 20
28.0527
 30
0.0
 11
9.35549
 21
28.0527
 31
0.0
  0
LINE
  5
1a8
100
AcDbEntity
  8
0
100
AcDbLine
 62
     0
 10
1.35461
 20
51.0522
 30
0.0
 11
9.35549
 21
51.0522
 31
0.0
  0
LINE
  5
1a9
100
AcDbEntity
  8
0
100
AcDbLine
 62
     0
 10
9.35549
 20
28.0527
 30
0.0
 11
9.35549
 21
51.0522
 31
0.0
  0
LINE
  5
1aa
100
AcDbEntity
  8
0
100
AcDbLine
 62
     0
 10
1.35461
 20
52.0527
 30
0.0
 11
1.35461
 21
51.0522
 31
0.0
  0
LINE
  5
1ab
100
AcDbEntity
  8
0
100
AcDbLine
 62
     0
 10
1.35461
 20
52.0527
 30
0.0
 11
9.35549
 21
52.0527
 31
0.0
  0
LINE
  5
1ac
100
AcDbEntity
  8
0
100
AcDbLine
 62
     0
 10
10.3546
 20
28.0527
 30
0.0
 11
10.3546
 21
51.0522
 31
0.0
  0
LINE
  5
1ad
100
AcDbEntity
  8
0
100
AcDbLine
 62
     0
 10
9.35549
 20
28.0527
 30
0.0
 11
9.35549
 21
27.0523
 31
0.0
  0
LINE
  5
1ae
100
AcDbEntity
  8
0
100
AcDbLine
 62
     0
 10
10.3546
 20
28.0527
 30
0.0
 11
9.35549
 21
27.0523
 31
0.0
  0
LINE
  5
1af
100
AcDbEntity
  8
0
100
AcDbLine
 62
     0
 10
9.35549
 20
52.0527
 30
0.0
 11
9.35549
 21
51.0522
 31
0.0
  0
LINE
  5
1b0
100
AcDbEntity
  8
0
100
AcDbLine
 62
     0
 10
9.35549
 20
28.0527
 30
0.0
 11
10.3546
 21
28.0527
 31
0.0
  0
LINE
  5
1b1
100
AcDbEntity
  8
0
100
AcDbLine
 62
     0
 10
10.3546
 20
51.0522
 30
0.0
 11
9.35549
 21
51.0522
 31
0.0
  0
LINE
  5
1b2
100
AcDbEntity
  8
0
100
AcDbLine
 62
     0
 10
9.35549
 20
52.0527
 30
0.0
 11
10.3546
 21
51.0522
 31
0.0
  0
LINE
  5
1b3
100
AcDbEntity
  8
0
100
AcDbLine
 62
     0
 10
215.865
 20
5.35093
 30
0.0
 11
215.865
 21
503.964
 31
0.0
  0
LINE
  5
1b4
100
AcDbEntity
  8
0
100
AcDbLine
 62
     0
 10
215.865
 20
503.964
 30
0.0
 11
206.427
 21
512.664
 31
0.0
  0
LINE
  5
1b5
100
AcDbEntity
  8
0
100
AcDbLine
 62
     0
 10
215.865
 20
5.35093
 30
0.0
 11
215.364
 21
4.79972
 31
0.0
  0
LINE
  5
1b6
100
AcDbEntity
  8
0
100
AcDbLine
 62
     0
 10
215.865
 20
503.964
 30
0.0
 11
215.364
 21
503.417
 31
0.0
  0
LINE
  5
1b7
100
AcDbEntity
  8
0
100
AcDbLine
 62
     0
 10
215.364
 20
4.79972
 30
0.0
 11
215.364
 21
503.417
 31
0.0
  0
LINE
  5
1b8
100
AcDbEntity
  8
0
100
AcDbLine
 62
     0
 10
214.953
 20
4.26918
 30
0.0
 11
215.865
 21
5.35093
 31
0.0
  0
LINE
  5
1b9
100
AcDbEntity
  8
0
100
AcDbLine
 62
     0
 10
214.953
 20
504.705
 30
0.0
 11
215.865
 21
503.964
 31
0.0
  0
LINE
  5
1ba
100
AcDbEntity
  8
0
100
AcDbLine
 62
     0
 10
214.953
 20
504.705
 30
0.0
 11
205.515
 21
513.405
 31
0.0
  0
LINE
  5
1bb
100
AcDbEntity
  8
0
100
AcDbLine
 62
     0
 10
206.427
 20
512.664
 30
0.0
 11
205.515
 21
513.405
 31
0.0
  0
SPLINE
  5
1bc
100
AcDbEntity
  8
0
100
AcDbSpline
210
0.0
220
0.0
230
1.0
 62
     0
 70
     0
 71
     3
 72
     8
 73
4
 40
0.0
 40
0.0
 40
0.0
 40
0.0
 40
1.0
 40
1.0
 40
1.0
 40
1.0
 10
203.053
 20
148.311
 30
0.0
 10
203.053
 20
149.432
 30
0.0
 10
202.685
 20
150.724
 30
0.0
 10
202.186
 20
151.358
 30
0.0
  0
SPLINE
  5
1bd
100
AcDbEntity
  8
0
100
AcDbSpline
210
0.0
220
0.0
230
1.0
 62
     0
 70
     0
 71
     3
 72
     8
 73
4
 40
0.0
 40
0.0
 40
0.0
 40
0.0
 40
1.0
 40
1.0
 40
1.0
 40
1.0
 10
202.186
 20
146.862
 30
0.0
 10
202.291
 20
146.804
 30
0.0
 10
202.391
 20
146.783
 30
0.0
 10
202.486
 20
146.801
 30
0.0
  0
SPLINE
  5
1be
100
AcDbEntity
  8
0
100
AcDbSpline
210
0.0
220
0.0
230
1.0
 62
     0
 70
     0
 71
     3
 72
     8
 73
4
 40
0.0
 40
0.0
 40
0.0
 40
0.0
 40
1.0
 40
1.0
 40
1.0
 40
1.0
 10
202.486
 20
146.801
 30
0.0
 10
202.833
 20
146.865
 30
0.0
 10
203.053
 20
147.449
 30
0.0
 10
203.053
 20
148.311
 30
0.0
  0
SPLINE
  5
1bf
100
AcDbEntity
  8
0
100
AcDbSpline
210
0.0
220
0.0
230
1.0
 62
     0
 70
     0
 71
     3
 72
     8
 73
4
 40
0.0
 40
0.0
 40
0.0
 40
0.0
 40
1.0
 40
1.0
 40
1.0
 40
1.0
 10
203.053
 20
250.672
 30
0.0
 10
203.053
 20
251.794
 30
0.0
 10
202.685
 20
253.083
 30
0.0
 10
202.186
 20
253.719
 30
0.0
  0
SPLINE
  5
1c0
100
AcDbEntity
  8
0
100
AcDbSpline
210
0.0
220
0.0
230
1.0
 62
     0
 70
     0
 71
     3
 72
     8
 73
4
 40
0.0
 40
0.0
 40
0.0
 40
0.0
 40
1.0
 40
1.0
 40
1.0
 40
1.0
 10
202.186
 20
249.225
 30
0.0
 10
202.291
 20
249.166
 30
0.0
 10
202.391
 20
249.142
 30
0.0
 10
202.486
 20
249.162
 30
0.0
  0
SPLINE
  5
1c1
100
AcDbEntity
  8
0
100
AcDbSpline
210
0.0
220
0.0
230
1.0
 62
     0
 70
     0
 71
     3
 72
     8
 73
4
 40
0.0
 40
0.0
 40
0.0
 40
0.0
 40
1.0
 40
1.0
 40
1.0
 40
1.0
 10
202.486
 20
249.162
 30
0.0
 10
202.833
 20
249.225
 30
0.0
 10
203.053
 20
249.812
 30
0.0
 10
203.053
 20
250.672
 30
0.0
  0
SPLINE
  5
1c2
100
AcDbEntity
  8
0
100
AcDbSpline
210
0.0
220
0.0
230
1.0
 62
     0
 70
     0
 71
     3
 72
     8
 73
4
 40
0.0
 40
0.0
 40
0.0
 40
0.0
 40
1.0
 40
1.0
 40
1.0
 40
1.0
 10
203.053
 20
230.201
 30
0.0
 10
203.053
 20
231.322
 30
0.0
 10
202.685
 20
232.613
 30
0.0
 10
202.186
 20
233.247
 30
0.0
  0
SPLINE
  5
1c3
100
AcDbEntity
  8
0
100
AcDbSpline
210
0.0
220
0.0
230
1.0
 62
     0
 70
     0
 71
     3
 72
     8
 73
4
 40
0.0
 40
0.0
 40
0.0
 40
0.0
 40
1.0
 40
1.0
 40
1.0
 40
1.0
 10
202.186
 20
228.752
 30
0.0
 10
202.291
 20
228.692
 30
0.0
 10
202.391
 20
228.672
 30
0.0
 10
202.486
 20
228.69
 30
0.0
  0
SPLINE
  5
1c4
100
AcDbEntity
  8
0
100
AcDbSpline
210
0.0
220
0.0
230
1.0
 62
     0
 70
     0
 71
     3
 72
     8
 73
4
 40
0.0
 40
0.0
 40
0.0
 40
0.0
 40
1.0
 40
1.0
 40
1.0
 40
1.0
 10
202.486
 20
228.69
 30
0.0
 10
202.833
 20
228.753
 30
0.0
 10
203.053
 20
229.339
 30
0.0
 10
203.053
 20
230.201
 30
0.0
  0
SPLINE
  5
1c5
100
AcDbEntity
  8
0
100
AcDbSpline
210
0.0
220
0.0
230
1.0
 62
     0
 70
     0
 71
     3
 72
     8
 73
4
 40
0.0
 40
0.0
 40
0.0
 40
0.0
 40
1.0
 40
1.0
 40
1.0
 40
1.0
 10
203.053
 20
455.394
 30
0.0
 10
203.053
 20
456.516
 30
0.0
 10
202.685
 20
457.807
 30
0.0
 10
202.186
 20
458.442
 30
0.0
  0
SPLINE
  5
1c6
100
AcDbEntity
  8
0
100
AcDbSpline
210
0.0
220
0.0
230
1.0
 62
     0
 70
     0
 71
     3
 72
     8
 73
4
 40
0.0
 40
0.0
 40
0.0
 40
0.0
 40
1.0
 40
1.0
 40
1.0
 40
1.0
 10
202.186
 20
453.951
 30
0.0
 10
202.291
 20
453.887
 30
0.0
 10
202.391
 20
453.866
 30
0.0
 10
202.486
 20
453.884
 30
0.0
  0
SPLINE
  5
1c7
100
AcDbEntity
  8
0
100
AcDbSpline
210
0.0
220
0.0
230
1.0
 62
     0
 70
     0
 71
     3
 72
     8
 73
4
 40
0.0
 40
0.0
 40
0.0
 40
0.0
 40
1.0
 40
1.0
 40
1.0
 40
1.0
 10
202.486
 20
453.884
 30
0.0
 10
202.833
 20
453.951
 30
0.0
 10
203.053
 20
454.537
 30
0.0
 10
203.053
 20
455.394
 30
0.0
  0
SPLINE
  5
1c8
100
AcDbEntity
  8
0
100
AcDbSpline
210
0.0
220
0.0
230
1.0
 62
     0
 70
     0
 71
     3
 72
     8
 73
4
 40
0.0
 40
0.0
 40
0.0
 40
0.0
 40
1.0
 40
1.0
 40
1.0
 40
1.0
 10
203.053
 20
434.922
 30
0.0
 10
203.053
 20
436.044
 30
0.0
 10
202.685
 20
437.335
 30
0.0
 10
202.186
 20
437.97
 30
0.0
  0
SPLINE
  5
1c9
100
AcDbEntity
  8
0
100
AcDbSpline
210
0.0
220
0.0
230
1.0
 62
     0
 70
     0
 71
     3
 72
     8
 73
4
 40
0.0
 40
0.0
 40
0.0
 40
0.0
 40
1.0
 40
1.0
 40
1.0
 40
1.0
 10
202.186
 20
433.476
 30
0.0
 10
202.291
 20
433.416
 30
0.0
 10
202.391
 20
433.395
 30
0.0
 10
202.486
 20
433.412
 30
0.0
  0
SPLINE
  5
1ca
100
AcDbEntity
  8
0
100
AcDbSpline
210
0.0
220
0.0
230
1.0
 62
     0
 70
     0
 71
     3
 72
     8
 73
4
 40
0.0
 40
0.0
 40
0.0
 40
0.0
 40
1.0
 40
1.0
 40
1.0
 40
1.0
 10
202.486
 20
433.412
 30
0.0
 10
202.833
 20
433.476
 30
0.0
 10
203.053
 20
434.061
 30
0.0
 10
203.053
 20
434.922
 30
0.0
  0
SPLINE
  5
1cb
100
AcDbEntity
  8
0
100
AcDbSpline
210
0.0
220
0.0
230
1.0
 62
     0
 70
     0
 71
     3
 72
     8
 73
4
 40
0.0
 40
0.0
 40
0.0
 40
0.0
 40
1.0
 40
1.0
 40
1.0
 40
1.0
 10
203.053
 20
353.035
 30
0.0
 10
203.053
 20
354.154
 30
0.0
 10
202.685
 20
355.445
 30
0.0
 10
202.186
 20
356.08
 30
0.0
  0
SPLINE
  5
1cc
100
AcDbEntity
  8
0
100
AcDbSpline
210
0.0
220
0.0
230
1.0
 62
     0
 70
     0
 71
     3
 72
     8
 73
4
 40
0.0
 40
0.0
 40
0.0
 40
0.0
 40
1.0
 40
1.0
 40
1.0
 40
1.0
 10
202.186
 20
351.587
 30
0.0
 10
202.291
 20
351.528
 30
0.0
 10
202.391
 20
351.505
 30
0.0
 10
202.486
 20
351.522
 30
0.0
  0
SPLINE
  5
1cd
100
AcDbEntity
  8
0
100
AcDbSpline
210
0.0
220
0.0
230
1.0
 62
     0
 70
     0
 71
     3
 72
     8
 73
4
 40
0.0
 40
0.0
 40
0.0
 40
0.0
 40
1.0
 40
1.0
 40
1.0
 40
1.0
 10
202.486
 20
351.522
 30
0.0
 10
202.833
 20
351.589
 30
0.0
 10
203.053
 20
352.174
 30
0.0
 10
203.053
 20
353.035
 30
0.0
  0
SPLINE
  5
1ce
100
AcDbEntity
  8
0
100
AcDbSpline
210
0.0
220
0.0
230
1.0
 62
     0
 70
     0
 71
     3
 72
     8
 73
4
 40
0.0
 40
0.0
 40
0.0
 40
0.0
 40
1.0
 40
1.0
 40
1.0
 40
1.0
 10
203.053
 20
332.563
 30
0.0
 10
203.053
 20
333.682
 30
0.0
 10
202.685
 20
334.975
 30
0.0
 10
202.186
 20
335.609
 30
0.0
  0
SPLINE
  5
1cf
100
AcDbEntity
  8
0
100
AcDbSpline
210
0.0
220
0.0
230
1.0
 62
     0
 70
     0
 71
     3
 72
     8
 73
4
 40
0.0
 40
0.0
 40
0.0
 40
0.0
 40
1.0
 40
1.0
 40
1.0
 40
1.0
 10
202.186
 20
331.114
 30
0.0
 10
202.291
 20
331.054
 30
0.0
 10
202.391
 20
331.032
 30
0.0
 10
202.486
 20
331.052
 30
0.0
  0
SPLINE
  5
1d0
100
AcDbEntity
  8
0
100
AcDbSpline
210
0.0
220
0.0
230
1.0
 62
     0
 70
     0
 71
     3
 72
     8
 73
4
 40
0.0
 40
0.0
 40
0.0
 40
0.0
 40
1.0
 40
1.0
 40
1.0
 40
1.0
 10
202.486
 20
331.052
 30
0.0
 10
202.833
 20
331.115
 30
0.0
 10
203.053
 20
331.701
 30
0.0
 10
203.053
 20
332.563
 30
0.0
  0
SPLINE
  5
1d1
100
AcDbEntity
  8
0
100
AcDbSpline
210
0.0
220
0.0
230
1.0
 62
     0
 70
     0
 71
     3
 72
     8
 73
4
 40
0.0
 40
0.0
 40
0.0
 40
0.0
 40
1.0
 40
1.0
 40
1.0
 40
1.0
 10
203.053
 20
25.4772
 30
0.0
 10
203.053
 20
26.5961
 30
0.0
 10
202.685
 20
27.8887
 30
0.0
 10
202.186
 20
28.5226
 30
0.0
  0
SPLINE
  5
1d2
100
AcDbEntity
  8
0
100
AcDbSpline
210
0.0
220
0.0
230
1.0
 62
     0
 70
     0
 71
     3
 72
     8
 73
4
 40
0.0
 40
0.0
 40
0.0
 40
0.0
 40
1.0
 40
1.0
 40
1.0
 40
1.0
 10
202.186
 20
24.0302
 30
0.0
 10
202.291
 20
23.971
 30
0.0
 10
202.391
 20
23.9475
 30
0.0
 10
202.486
 20
23.9655
 30
0.0
  0
SPLINE
  5
1d3
100
AcDbEntity
  8
0
100
AcDbSpline
210
0.0
220
0.0
230
1.0
 62
     0
 70
     0
 71
     3
 72
     8
 73
4
 40
0.0
 40
0.0
 40
0.0
 40
0.0
 40
1.0
 40
1.0
 40
1.0
 40
1.0
 10
202.486
 20
23.9655
 30
0.0
 10
202.833
 20
24.0316
 30
0.0
 10
203.053
 20
24.6159
 30
0.0
 10
203.053
 20
25.4772
 30
0.0
  0
SPLINE
  5
1d4
100
AcDbEntity
  8
0
100
AcDbSpline
210
0.0
220
0.0
230
1.0
 62
     0
 70
     0
 71
     3
 72
     8
 73
4
 40
0.0
 40
0.0
 40
0.0
 40
0.0
 40
1.0
 40
1.0
 40
1.0
 40
1.0
 10
203.053
 20
45.9507
 30
0.0
 10
203.053
 20
47.0697
 30
0.0
 10
202.685
 20
48.3623
 30
0.0
 10
202.186
 20
48.9948
 30
0.0
  0
SPLINE
  5
1d5
100
AcDbEntity
  8
0
100
AcDbSpline
210
0.0
220
0.0
230
1.0
 62
     0
 70
     0
 71
     3
 72
     8
 73
4
 40
0.0
 40
0.0
 40
0.0
 40
0.0
 40
1.0
 40
1.0
 40
1.0
 40
1.0
 10
202.186
 20
44.5012
 30
0.0
 10
202.291
 20
44.4419
 30
0.0
 10
202.391
 20
44.4211
 30
0.0
 10
202.486
 20
44.4377
 30
0.0
  0
SPLINE
  5
1d6
100
AcDbEntity
  8
0
100
AcDbSpline
210
0.0
220
0.0
230
1.0
 62
     0
 70
     0
 71
     3
 72
     8
 73
4
 40
0.0
 40
0.0
 40
0.0
 40
0.0
 40
1.0
 40
1.0
 40
1.0
 40
1.0
 10
202.486
 20
44.4377
 30
0.0
 10
202.833
 20
44.5022
 30
0.0
 10
203.053
 20
45.0868
 30
0.0
 10
203.053
 20
45.9507
 30
0.0
  0
SPLINE
  5
1d7
100
AcDbEntity
  8
0
100
AcDbSpline
210
0.0
220
0.0
230
1.0
 62
     0
 70
     0
 71
     3
 72
     8
 73
4
 40
0.0
 40
0.0
 40
0.0
 40
0.0
 40
1.0
 40
1.0
 40
1.0
 40
1.0
 10
203.053
 20
127.839
 30
0.0
 10
203.053
 20
128.958
 30
0.0
 10
202.685
 20
130.251
 30
0.0
 10
202.186
 20
130.885
 30
0.0
  0
SPLINE
  5
1d8
100
AcDbEntity
  8
0
100
AcDbSpline
210
0.0
220
0.0
230
1.0
 62
     0
 70
     0
 71
     3
 72
     8
 73
4
 40
0.0
 40
0.0
 40
0.0
 40
0.0
 40
1.0
 40
1.0
 40
1.0
 40
1.0
 10
202.186
 20
126.391
 30
0.0
 10
202.291
 20
126.33
 30
0.0
 10
202.391
 20
126.311
 30
0.0
 10
202.486
 20
126.326
 30
0.0
  0
SPLINE
  5
1d9
100
AcDbEntity
  8
0
100
AcDbSpline
210
0.0
220
0.0
230
1.0
 62
     0
 70
     0
 71
     3
 72
     8
 73
4
 40
0.0
 40
0.0
 40
0.0
 40
0.0
 40
1.0
 40
1.0
 40
1.0
 40
1.0
 10
202.486
 20
126.326
 30
0.0
 10
202.833
 20
126.391
 30
0.0
 10
203.053
 20
126.978
 30
0.0
 10
203.053
 20
127.839
 30
0.0
  0
LINE
  5
1da
100
AcDbEntity
  8
0
100
AcDbLine
 62
     0
 10
214.953
 20
4.26918
 30
0.0
 11
215.364
 21
4.79972
 31
0.0
  0
LINE
  5
1db
100
AcDbEntity
  8
0
100
AcDbLine
 62
     0
 10
214.953
 20
504.705
 30
0.0
 11
215.364
 21
503.417
 31
0.0
  0
LINE
  5
1dc
100
AcDbEntity
  8
0
100
AcDbLine
 62
     0
 10
215.364
 20
4.79972
 30
0.0
 11
208.069
 21
3.43958
 31
0.0
  0
LINE
  5
1dd
100
AcDbEntity
  8
0
100
AcDbLine
 62
     0
 10
215.364
 20
503.417
 30
0.0
 11
208.069
 21
502.052
 31
0.0
  0
LINE
  5
1de
100
AcDbEntity
  8
0
100
AcDbLine
 62
     0
 10
208.069
 20
3.43958
 30
0.0
 11
208.069
 21
502.052
 31
0.0
  0
LINE
  5
1df
100
AcDbEntity
  8
0
100
AcDbLine
 62
     0
 10
214.953
 20
4.26918
 30
0.0
 11
207.658
 21
2.90904
 31
0.0
  0
LINE
  5
1e0
100
AcDbEntity
  8
0
100
AcDbLine
 62
     0
 10
214.953
 20
504.705
 30
0.0
 11
207.658
 21
503.343
 31
0.0
  0
LINE
  5
1e1
100
AcDbEntity
  8
0
100
AcDbLine
 62
     0
 10
205.515
 20
513.405
 30
0.0
 11
198.22
 21
512.043
 31
0.0
  0
LINE
  5
1e2
100
AcDbEntity
  8
0
100
AcDbLine
 62
     0
 10
207.658
 20
503.343
 30
0.0
 11
198.22
 21
512.043
 31
0.0
  0
LINE
  5
1e3
100
AcDbEntity
  8
0
100
AcDbLine
 62
     0
 10
206.746
 20
3.64765
 30
0.0
 11
206.746
 21
502.26
 31
0.0
  0
LINE
  5
1e4
100
AcDbEntity
  8
0
100
AcDbLine
 62
     0
 10
206.746
 20
3.64765
 30
0.0
 11
202.186
 21
7.85206
 31
0.0
  0
LINE
  5
1e5
100
AcDbEntity
  8
0
100
AcDbLine
 62
     0
 10
206.746
 20
502.26
 30
0.0
 11
197.308
 21
510.963
 31
0.0
  0
LINE
  5
1e6
100
AcDbEntity
  8
0
100
AcDbLine
 62
     0
 10
197.308
 20
505.908
 30
0.0
 11
197.308
 21
510.963
 31
0.0
  0
LINE
  5
1e7
100
AcDbEntity
  8
0
100
AcDbLine
 62
     0
 10
207.658
 20
2.90904
 30
0.0
 11
208.069
 21
3.43958
 31
0.0
  0
LINE
  5
1e8
100
AcDbEntity
  8
0
100
AcDbLine
 62
     0
 10
207.658
 20
503.343
 30
0.0
 11
208.069
 21
502.052
 31
0.0
  0
LINE
  5
1e9
100
AcDbEntity
  8
0
100
AcDbLine
 62
     0
 10
206.746
 20
3.64765
 30
0.0
 11
208.069
 21
3.43958
 31
0.0
  0
LINE
  5
1ea
100
AcDbEntity
  8
0
100
AcDbLine
 62
     0
 10
206.746
 20
502.26
 30
0.0
 11
208.069
 21
502.052
 31
0.0
  0
LINE
  5
1eb
100
AcDbEntity
  8
0
100
AcDbLine
 62
     0
 10
207.658
 20
2.90904
 30
0.0
 11
206.746
 21
3.64765
 31
0.0
  0
LINE
  5
1ec
100
AcDbEntity
  8
0
100
AcDbLine
 62
     0
 10
207.658
 20
503.343
 30
0.0
 11
206.746
 21
502.26
 31
0.0
  0
LINE
  5
1ed
100
AcDbEntity
  8
0
100
AcDbLine
 62
     0
 10
197.308
 20
510.963
 30
0.0
 11
198.22
 21
512.043
 31
0.0
  0
LINE
  5
1ee
100
AcDbEntity
  8
0
100
AcDbLine
 62
     0
 10
193.067
 20
1.09279
 30
0.0
 11
193.067
 21
499.71
 31
0.0
  0
LINE
  5
1ef
100
AcDbEntity
  8
0
100
AcDbLine
 62
     0
 10
193.067
 20
1.09279
 30
0.0
 11
183.629
 21
9.79371
 31
0.0
  0
LINE
  5
1f0
100
AcDbEntity
  8
0
100
AcDbLine
 62
     0
 10
193.067
 20
499.71
 30
0.0
 11
183.629
 21
508.409
 31
0.0
  0
LINE
  5
1f1
100
AcDbEntity
  8
0
100
AcDbLine
 62
     0
 10
183.629
 20
9.79371
 30
0.0
 11
183.629
 21
508.409
 31
0.0
  0
SPLINE
  5
1f2
100
AcDbEntity
  8
0
100
AcDbSpline
210
0.0
220
0.0
230
1.0
 62
     0
 70
     0
 71
     3
 72
     8
 73
4
 40
0.0
 40
0.0
 40
0.0
 40
0.0
 40
1.0
 40
1.0
 40
1.0
 40
1.0
 10
189.374
 20
145.759
 30
0.0
 10
189.374
 20
146.545
 30
0.0
 10
189.189
 20
147.449
 30
0.0
 10
188.888
 20
148.141
 30
0.0
  0
SPLINE
  5
1f3
100
AcDbEntity
  8
0
100
AcDbSpline
210
0.0
220
0.0
230
1.0
 62
     0
 70
     0
 71
     3
 72
     8
 73
4
 40
0.0
 40
0.0
 40
0.0
 40
0.0
 40
1.0
 40
1.0
 40
1.0
 40
1.0
 10
188.888
 20
148.141
 30
0.0
 10
188.584
 20
148.834
 30
0.0
 10
188.207
 20
149.219
 30
0.0
 10
187.889
 20
149.16
 30
0.0
  0
SPLINE
  5
1f4
100
AcDbEntity
  8
0
100
AcDbSpline
210
0.0
220
0.0
230
1.0
 62
     0
 70
     0
 71
     3
 72
     8
 73
4
 40
0.0
 40
0.0
 40
0.0
 40
0.0
 40
1.0
 40
1.0
 40
1.0
 40
1.0
 10
187.889
 20
149.16
 30
0.0
 10
187.383
 20
149.065
 30
0.0
 10
187.178
 20
147.89
 30
0.0
 10
187.43
 20
146.532
 30
0.0
  0
SPLINE
  5
1f5
100
AcDbEntity
  8
0
100
AcDbSpline
210
0.0
220
0.0
230
1.0
 62
     0
 70
     0
 71
     3
 72
     8
 73
4
 40
0.0
 40
0.0
 40
0.0
 40
0.0
 40
1.0
 40
1.0
 40
1.0
 40
1.0
 10
187.43
 20
146.532
 30
0.0
 10
187.683
 20
145.175
 30
0.0
 10
188.301
 20
144.151
 30
0.0
 10
188.806
 20
144.245
 30
0.0
  0
SPLINE
  5
1f6
100
AcDbEntity
  8
0
100
AcDbSpline
210
0.0
220
0.0
230
1.0
 62
     0
 70
     0
 71
     3
 72
     8
 73
4
 40
0.0
 40
0.0
 40
0.0
 40
0.0
 40
1.0
 40
1.0
 40
1.0
 40
1.0
 10
188.806
 20
144.245
 30
0.0
 10
189.154
 20
144.312
 30
0.0
 10
189.374
 20
144.895
 30
0.0
 10
189.374
 20
145.759
 30
0.0
  0
SPLINE
  5
1f7
100
AcDbEntity
  8
0
100
AcDbSpline
210
0.0
220
0.0
230
1.0
 62
     0
 70
     0
 71
     3
 72
     8
 73
4
 40
0.0
 40
0.0
 40
0.0
 40
0.0
 40
1.0
 40
1.0
 40
1.0
 40
1.0
 10
189.374
 20
248.12
 30
0.0
 10
189.374
 20
248.907
 30
0.0
 10
189.189
 20
249.811
 30
0.0
 10
188.888
 20
250.504
 30
0.0
  0
SPLINE
  5
1f8
100
AcDbEntity
  8
0
100
AcDbSpline
210
0.0
220
0.0
230
1.0
 62
     0
 70
     0
 71
     3
 72
     8
 73
4
 40
0.0
 40
0.0
 40
0.0
 40
0.0
 40
1.0
 40
1.0
 40
1.0
 40
1.0
 10
188.888
 20
250.504
 30
0.0
 10
188.584
 20
251.196
 30
0.0
 10
188.207
 20
251.582
 30
0.0
 10
187.889
 20
251.522
 30
0.0
  0
SPLINE
  5
1f9
100
AcDbEntity
  8
0
100
AcDbSpline
210
0.0
220
0.0
230
1.0
 62
     0
 70
     0
 71
     3
 72
     8
 73
4
 40
0.0
 40
0.0
 40
0.0
 40
0.0
 40
1.0
 40
1.0
 40
1.0
 40
1.0
 10
187.889
 20
251.522
 30
0.0
 10
187.383
 20
251.429
 30
0.0
 10
187.178
 20
250.252
 30
0.0
 10
187.43
 20
248.893
 30
0.0
  0
SPLINE
  5
1fa
100
AcDbEntity
  8
0
100
AcDbSpline
210
0.0
220
0.0
230
1.0
 62
     0
 70
     0
 71
     3
 72
     8
 73
4
 40
0.0
 40
0.0
 40
0.0
 40
0.0
 40
1.0
 40
1.0
 40
1.0
 40
1.0
 10
187.43
 20
248.893
 30
0.0
 10
187.683
 20
247.536
 30
0.0
 10
188.301
 20
246.512
 30
0.0
 10
188.806
 20
246.608
 30
0.0
  0
SPLINE
  5
1fb
100
AcDbEntity
  8
0
100
AcDbSpline
210
0.0
220
0.0
230
1.0
 62
     0
 70
     0
 71
     3
 72
     8
 73
4
 40
0.0
 40
0.0
 40
0.0
 40
0.0
 40
1.0
 40
1.0
 40
1.0
 40
1.0
 10
188.806
 20
246.608
 30
0.0
 10
189.154
 20
246.672
 30
0.0
 10
189.374
 20
247.257
 30
0.0
 10
189.374
 20
248.12
 30
0.0
  0
SPLINE
  5
1fc
100
AcDbEntity
  8
0
100
AcDbSpline
210
0.0
220
0.0
230
1.0
 62
     0
 70
     0
 71
     3
 72
     8
 73
4
 40
0.0
 40
0.0
 40
0.0
 40
0.0
 40
1.0
 40
1.0
 40
1.0
 40
1.0
 10
189.374
 20
227.646
 30
0.0
 10
189.374
 20
228.436
 30
0.0
 10
189.189
 20
229.337
 30
0.0
 10
188.888
 20
230.031
 30
0.0
  0
SPLINE
  5
1fd
100
AcDbEntity
  8
0
100
AcDbSpline
210
0.0
220
0.0
230
1.0
 62
     0
 70
     0
 71
     3
 72
     8
 73
4
 40
0.0
 40
0.0
 40
0.0
 40
0.0
 40
1.0
 40
1.0
 40
1.0
 40
1.0
 10
188.888
 20
230.031
 30
0.0
 10
188.584
 20
230.724
 30
0.0
 10
188.207
 20
231.111
 30
0.0
 10
187.889
 20
231.051
 30
0.0
  0
SPLINE
  5
1fe
100
AcDbEntity
  8
0
100
AcDbSpline
210
0.0
220
0.0
230
1.0
 62
     0
 70
     0
 71
     3
 72
     8
 73
4
 40
0.0
 40
0.0
 40
0.0
 40
0.0
 40
1.0
 40
1.0
 40
1.0
 40
1.0
 10
187.889
 20
231.051
 30
0.0
 10
187.383
 20
230.955
 30
0.0
 10
187.178
 20
229.778
 30
0.0
 10
187.43
 20
228.422
 30
0.0
  0
SPLINE
  5
1ff
100
AcDbEntity
  8
0
100
AcDbSpline
210
0.0
220
0.0
230
1.0
 62
     0
 70
     0
 71
     3
 72
     8
 73
4
 40
0.0
 40
0.0
 40
0.0
 40
0.0
 40
1.0
 40
1.0
 40
1.0
 40
1.0
 10
187.43
 20
228.422
 30
0.0
 10
187.683
 20
227.064
 30
0.0
 10
188.301
 20
226.041
 30
0.0
 10
188.806
 20
226.135
 30
0.0
  0
SPLINE
  5
200
100
AcDbEntity
  8
0
100
AcDbSpline
210
0.0
220
0.0
230
1.0
 62
     0
 70
     0
 71
     3
 72
     8
 73
4
 40
0.0
 40
0.0
 40
0.0
 40
0.0
 40
1.0
 40
1.0
 40
1.0
 40
1.0
 10
188.806
 20
226.135
 30
0.0
 10
189.154
 20
226.201
 30
0.0
 10
189.374
 20
226.785
 30
0.0
 10
189.374
 20
227.646
 30
0.0
  0
SPLINE
  5
201
100
AcDbEntity
  8
0
100
AcDbSpline
210
0.0
220
0.0
230
1.0
 62
     0
 70
     0
 71
     3
 72
     8
 73
4
 40
0.0
 40
0.0
 40
0.0
 40
0.0
 40
1.0
 40
1.0
 40
1.0
 40
1.0
 10
189.374
 20
452.84
 30
0.0
 10
189.374
 20
453.63
 30
0.0
 10
189.189
 20
454.533
 30
0.0
 10
188.888
 20
455.228
 30
0.0
  0
SPLINE
  5
202
100
AcDbEntity
  8
0
100
AcDbSpline
210
0.0
220
0.0
230
1.0
 62
     0
 70
     0
 71
     3
 72
     8
 73
4
 40
0.0
 40
0.0
 40
0.0
 40
0.0
 40
1.0
 40
1.0
 40
1.0
 40
1.0
 10
188.888
 20
455.228
 30
0.0
 10
188.584
 20
455.919
 30
0.0
 10
188.207
 20
456.304
 30
0.0
 10
187.889
 20
456.248
 30
0.0
  0
SPLINE
  5
203
100
AcDbEntity
  8
0
100
AcDbSpline
210
0.0
220
0.0
230
1.0
 62
     0
 70
     0
 71
     3
 72
     8
 73
4
 40
0.0
 40
0.0
 40
0.0
 40
0.0
 40
1.0
 40
1.0
 40
1.0
 40
1.0
 10
187.889
 20
456.248
 30
0.0
 10
187.383
 20
456.149
 30
0.0
 10
187.178
 20
454.974
 30
0.0
 10
187.43
 20
453.616
 30
0.0
  0
SPLINE
  5
204
100
AcDbEntity
  8
0
100
AcDbSpline
210
0.0
220
0.0
230
1.0
 62
     0
 70
     0
 71
     3
 72
     8
 73
4
 40
0.0
 40
0.0
 40
0.0
 40
0.0
 40
1.0
 40
1.0
 40
1.0
 40
1.0
 10
187.43
 20
453.616
 30
0.0
 10
187.683
 20
452.261
 30
0.0
 10
188.301
 20
451.235
 30
0.0
 10
188.806
 20
451.333
 30
0.0
  0
SPLINE
  5
205
100
AcDbEntity
  8
0
100
AcDbSpline
210
0.0
220
0.0
230
1.0
 62
     0
 70
     0
 71
     3
 72
     8
 73
4
 40
0.0
 40
0.0
 40
0.0
 40
0.0
 40
1.0
 40
1.0
 40
1.0
 40
1.0
 10
188.806
 20
451.333
 30
0.0
 10
189.154
 20
451.397
 30
0.0
 10
189.374
 20
451.982
 30
0.0
 10
189.374
 20
452.84
 30
0.0
  0
SPLINE
  5
206
100
AcDbEntity
  8
0
100
AcDbSpline
210
0.0
220
0.0
230
1.0
 62
     0
 70
     0
 71
     3
 72
     8
 73
4
 40
0.0
 40
0.0
 40
0.0
 40
0.0
 40
1.0
 40
1.0
 40
1.0
 40
1.0
 10
189.374
 20
432.371
 30
0.0
 10
189.374
 20
433.158
 30
0.0
 10
189.189
 20
434.061
 30
0.0
 10
188.888
 20
434.756
 30
0.0
  0
SPLINE
  5
207
100
AcDbEntity
  8
0
100
AcDbSpline
210
0.0
220
0.0
230
1.0
 62
     0
 70
     0
 71
     3
 72
     8
 73
4
 40
0.0
 40
0.0
 40
0.0
 40
0.0
 40
1.0
 40
1.0
 40
1.0
 40
1.0
 10
188.888
 20
434.756
 30
0.0
 10
188.584
 20
435.448
 30
0.0
 10
188.207
 20
435.832
 30
0.0
 10
187.889
 20
435.772
 30
0.0
  0
SPLINE
  5
208
100
AcDbEntity
  8
0
100
AcDbSpline
210
0.0
220
0.0
230
1.0
 62
     0
 70
     0
 71
     3
 72
     8
 73
4
 40
0.0
 40
0.0
 40
0.0
 40
0.0
 40
1.0
 40
1.0
 40
1.0
 40
1.0
 10
187.889
 20
435.772
 30
0.0
 10
187.383
 20
435.681
 30
0.0
 10
187.178
 20
434.502
 30
0.0
 10
187.43
 20
433.144
 30
0.0
  0
SPLINE
  5
209
100
AcDbEntity
  8
0
100
AcDbSpline
210
0.0
220
0.0
230
1.0
 62
     0
 70
     0
 71
     3
 72
     8
 73
4
 40
0.0
 40
0.0
 40
0.0
 40
0.0
 40
1.0
 40
1.0
 40
1.0
 40
1.0
 10
187.43
 20
433.144
 30
0.0
 10
187.683
 20
431.786
 30
0.0
 10
188.301
 20
430.763
 30
0.0
 10
188.806
 20
430.858
 30
0.0
  0
SPLINE
  5
20a
100
AcDbEntity
  8
0
100
AcDbSpline
210
0.0
220
0.0
230
1.0
 62
     0
 70
     0
 71
     3
 72
     8
 73
4
 40
0.0
 40
0.0
 40
0.0
 40
0.0
 40
1.0
 40
1.0
 40
1.0
 40
1.0
 10
188.806
 20
430.858
 30
0.0
 10
189.154
 20
430.922
 30
0.0
 10
189.374
 20
431.511
 30
0.0
 10
189.374
 20
432.371
 30
0.0
  0
SPLINE
  5
20b
100
AcDbEntity
  8
0
100
AcDbSpline
210
0.0
220
0.0
230
1.0
 62
     0
 70
     0
 71
     3
 72
     8
 73
4
 40
0.0
 40
0.0
 40
0.0
 40
0.0
 40
1.0
 40
1.0
 40
1.0
 40
1.0
 10
189.374
 20
350.482
 30
0.0
 10
189.374
 20
351.269
 30
0.0
 10
189.189
 20
352.171
 30
0.0
 10
188.888
 20
352.866
 30
0.0
  0
SPLINE
  5
20c
100
AcDbEntity
  8
0
100
AcDbSpline
210
0.0
220
0.0
230
1.0
 62
     0
 70
     0
 71
     3
 72
     8
 73
4
 40
0.0
 40
0.0
 40
0.0
 40
0.0
 40
1.0
 40
1.0
 40
1.0
 40
1.0
 10
188.888
 20
352.866
 30
0.0
 10
188.584
 20
353.557
 30
0.0
 10
188.207
 20
353.942
 30
0.0
 10
187.889
 20
353.882
 30
0.0
  0
SPLINE
  5
20d
100
AcDbEntity
  8
0
100
AcDbSpline
210
0.0
220
0.0
230
1.0
 62
     0
 70
     0
 71
     3
 72
     8
 73
4
 40
0.0
 40
0.0
 40
0.0
 40
0.0
 40
1.0
 40
1.0
 40
1.0
 40
1.0
 10
187.889
 20
353.882
 30
0.0
 10
187.383
 20
353.79
 30
0.0
 10
187.178
 20
352.614
 30
0.0
 10
187.43
 20
351.255
 30
0.0
  0
SPLINE
  5
20e
100
AcDbEntity
  8
0
100
AcDbSpline
210
0.0
220
0.0
230
1.0
 62
     0
 70
     0
 71
     3
 72
     8
 73
4
 40
0.0
 40
0.0
 40
0.0
 40
0.0
 40
1.0
 40
1.0
 40
1.0
 40
1.0
 10
187.43
 20
351.255
 30
0.0
 10
187.683
 20
349.899
 30
0.0
 10
188.301
 20
348.874
 30
0.0
 10
188.806
 20
348.97
 30
0.0
  0
SPLINE
  5
20f
100
AcDbEntity
  8
0
100
AcDbSpline
210
0.0
220
0.0
230
1.0
 62
     0
 70
     0
 71
     3
 72
     8
 73
4
 40
0.0
 40
0.0
 40
0.0
 40
0.0
 40
1.0
 40
1.0
 40
1.0
 40
1.0
 10
188.806
 20
348.97
 30
0.0
 10
189.154
 20
349.034
 30
0.0
 10
189.374
 20
349.619
 30
0.0
 10
189.374
 20
350.482
 30
0.0
  0
SPLINE
  5
210
100
AcDbEntity
  8
0
100
AcDbSpline
210
0.0
220
0.0
230
1.0
 62
     0
 70
     0
 71
     3
 72
     8
 73
4
 40
0.0
 40
0.0
 40
0.0
 40
0.0
 40
1.0
 40
1.0
 40
1.0
 40
1.0
 10
189.374
 20
330.01
 30
0.0
 10
189.374
 20
330.797
 30
0.0
 10
189.189
 20
331.699
 30
0.0
 10
188.888
 20
332.393
 30
0.0
  0
SPLINE
  5
211
100
AcDbEntity
  8
0
100
AcDbSpline
210
0.0
220
0.0
230
1.0
 62
     0
 70
     0
 71
     3
 72
     8
 73
4
 40
0.0
 40
0.0
 40
0.0
 40
0.0
 40
1.0
 40
1.0
 40
1.0
 40
1.0
 10
188.888
 20
332.393
 30
0.0
 10
188.584
 20
333.084
 30
0.0
 10
188.207
 20
333.47
 30
0.0
 10
187.889
 20
333.411
 30
0.0
  0
SPLINE
  5
212
100
AcDbEntity
  8
0
100
AcDbSpline
210
0.0
220
0.0
230
1.0
 62
     0
 70
     0
 71
     3
 72
     8
 73
4
 40
0.0
 40
0.0
 40
0.0
 40
0.0
 40
1.0
 40
1.0
 40
1.0
 40
1.0
 10
187.889
 20
333.411
 30
0.0
 10
187.383
 20
333.319
 30
0.0
 10
187.178
 20
332.142
 30
0.0
 10
187.43
 20
330.784
 30
0.0
  0
SPLINE
  5
213
100
AcDbEntity
  8
0
100
AcDbSpline
210
0.0
220
0.0
230
1.0
 62
     0
 70
     0
 71
     3
 72
     8
 73
4
 40
0.0
 40
0.0
 40
0.0
 40
0.0
 40
1.0
 40
1.0
 40
1.0
 40
1.0
 10
187.43
 20
330.784
 30
0.0
 10
187.683
 20
329.426
 30
0.0
 10
188.301
 20
328.403
 30
0.0
 10
188.806
 20
328.498
 30
0.0
  0
SPLINE
  5
214
100
AcDbEntity
  8
0
100
AcDbSpline
210
0.0
220
0.0
230
1.0
 62
     0
 70
     0
 71
     3
 72
     8
 73
4
 40
0.0
 40
0.0
 40
0.0
 40
0.0
 40
1.0
 40
1.0
 40
1.0
 40
1.0
 10
188.806
 20
328.498
 30
0.0
 10
189.154
 20
328.561
 30
0.0
 10
189.374
 20
329.146
 30
0.0
 10
189.374
 20
330.01
 30
0.0
  0
SPLINE
  5
215
100
AcDbEntity
  8
0
100
AcDbSpline
210
0.0
220
0.0
230
1.0
 62
     0
 70
     0
 71
     3
 72
     8
 73
4
 40
0.0
 40
0.0
 40
0.0
 40
0.0
 40
1.0
 40
1.0
 40
1.0
 40
1.0
 10
189.374
 20
22.9237
 30
0.0
 10
189.374
 20
23.7119
 30
0.0
 10
189.189
 20
24.6131
 30
0.0
 10
188.888
 20
25.3063
 30
0.0
  0
SPLINE
  5
216
100
AcDbEntity
  8
0
100
AcDbSpline
210
0.0
220
0.0
230
1.0
 62
     0
 70
     0
 71
     3
 72
     8
 73
4
 40
0.0
 40
0.0
 40
0.0
 40
0.0
 40
1.0
 40
1.0
 40
1.0
 40
1.0
 10
188.888
 20
25.3063
 30
0.0
 10
188.584
 20
26.0022
 30
0.0
 10
188.207
 20
26.3867
 30
0.0
 10
187.889
 20
26.3274
 30
0.0
  0
SPLINE
  5
217
100
AcDbEntity
  8
0
100
AcDbSpline
210
0.0
220
0.0
230
1.0
 62
     0
 70
     0
 71
     3
 72
     8
 73
4
 40
0.0
 40
0.0
 40
0.0
 40
0.0
 40
1.0
 40
1.0
 40
1.0
 40
1.0
 10
187.889
 20
26.3274
 30
0.0
 10
187.383
 20
26.2323
 30
0.0
 10
187.178
 20
25.0555
 30
0.0
 10
187.43
 20
23.6981
 30
0.0
  0
SPLINE
  5
218
100
AcDbEntity
  8
0
100
AcDbSpline
210
0.0
220
0.0
230
1.0
 62
     0
 70
     0
 71
     3
 72
     8
 73
4
 40
0.0
 40
0.0
 40
0.0
 40
0.0
 40
1.0
 40
1.0
 40
1.0
 40
1.0
 10
187.43
 20
23.6981
 30
0.0
 10
187.683
 20
22.3421
 30
0.0
 10
188.301
 20
21.3169
 30
0.0
 10
188.806
 20
21.4133
 30
0.0
  0
SPLINE
  5
219
100
AcDbEntity
  8
0
100
AcDbSpline
210
0.0
220
0.0
230
1.0
 62
     0
 70
     0
 71
     3
 72
     8
 73
4
 40
0.0
 40
0.0
 40
0.0
 40
0.0
 40
1.0
 40
1.0
 40
1.0
 40
1.0
 10
188.806
 20
21.4133
 30
0.0
 10
189.154
 20
21.4781
 30
0.0
 10
189.374
 20
22.0624
 30
0.0
 10
189.374
 20
22.9237
 30
0.0
  0
SPLINE
  5
21a
100
AcDbEntity
  8
0
100
AcDbSpline
210
0.0
220
0.0
230
1.0
 62
     0
 70
     0
 71
     3
 72
     8
 73
4
 40
0.0
 40
0.0
 40
0.0
 40
0.0
 40
1.0
 40
1.0
 40
1.0
 40
1.0
 10
189.374
 20
43.3959
 30
0.0
 10
189.374
 20
44.1854
 30
0.0
 10
189.189
 20
45.0854
 30
0.0
 10
188.888
 20
45.78
 30
0.0
  0
SPLINE
  5
21b
100
AcDbEntity
  8
0
100
AcDbSpline
210
0.0
220
0.0
230
1.0
 62
     0
 70
     0
 71
     3
 72
     8
 73
4
 40
0.0
 40
0.0
 40
0.0
 40
0.0
 40
1.0
 40
1.0
 40
1.0
 40
1.0
 10
188.888
 20
45.78
 30
0.0
 10
188.584
 20
46.4728
 30
0.0
 10
188.207
 20
46.8602
 30
0.0
 10
187.889
 20
46.8009
 30
0.0
  0
SPLINE
  5
21c
100
AcDbEntity
  8
0
100
AcDbSpline
210
0.0
220
0.0
230
1.0
 62
     0
 70
     0
 71
     3
 72
     8
 73
4
 40
0.0
 40
0.0
 40
0.0
 40
0.0
 40
1.0
 40
1.0
 40
1.0
 40
1.0
 10
187.889
 20
46.8009
 30
0.0
 10
187.383
 20
46.7046
 30
0.0
 10
187.178
 20
45.5277
 30
0.0
 10
187.43
 20
44.1717
 30
0.0
  0
SPLINE
  5
21d
100
AcDbEntity
  8
0
100
AcDbSpline
210
0.0
220
0.0
230
1.0
 62
     0
 70
     0
 71
     3
 72
     8
 73
4
 40
0.0
 40
0.0
 40
0.0
 40
0.0
 40
1.0
 40
1.0
 40
1.0
 40
1.0
 10
187.43
 20
44.1717
 30
0.0
 10
187.683
 20
42.8128
 30
0.0
 10
188.301
 20
41.7904
 30
0.0
 10
188.806
 20
41.8828
 30
0.0
  0
SPLINE
  5
21e
100
AcDbEntity
  8
0
100
AcDbSpline
210
0.0
220
0.0
230
1.0
 62
     0
 70
     0
 71
     3
 72
     8
 73
4
 40
0.0
 40
0.0
 40
0.0
 40
0.0
 40
1.0
 40
1.0
 40
1.0
 40
1.0
 10
188.806
 20
41.8828
 30
0.0
 10
189.154
 20
41.9502
 30
0.0
 10
189.374
 20
42.5358
 30
0.0
 10
189.374
 20
43.3959
 30
0.0
  0
SPLINE
  5
21f
100
AcDbEntity
  8
0
100
AcDbSpline
210
0.0
220
0.0
230
1.0
 62
     0
 70
     0
 71
     3
 72
     8
 73
4
 40
0.0
 40
0.0
 40
0.0
 40
0.0
 40
1.0
 40
1.0
 40
1.0
 40
1.0
 10
189.374
 20
125.284
 30
0.0
 10
189.374
 20
126.075
 30
0.0
 10
189.189
 20
126.975
 30
0.0
 10
188.888
 20
127.669
 30
0.0
  0
SPLINE
  5
220
100
AcDbEntity
  8
0
100
AcDbSpline
210
0.0
220
0.0
230
1.0
 62
     0
 70
     0
 71
     3
 72
     8
 73
4
 40
0.0
 40
0.0
 40
0.0
 40
0.0
 40
1.0
 40
1.0
 40
1.0
 40
1.0
 10
188.888
 20
127.669
 30
0.0
 10
188.584
 20
128.361
 30
0.0
 10
188.207
 20
128.749
 30
0.0
 10
187.889
 20
128.689
 30
0.0
  0
SPLINE
  5
221
100
AcDbEntity
  8
0
100
AcDbSpline
210
0.0
220
0.0
230
1.0
 62
     0
 70
     0
 71
     3
 72
     8
 73
4
 40
0.0
 40
0.0
 40
0.0
 40
0.0
 40
1.0
 40
1.0
 40
1.0
 40
1.0
 10
187.889
 20
128.689
 30
0.0
 10
187.383
 20
128.593
 30
0.0
 10
187.178
 20
127.416
 30
0.0
 10
187.43
 20
126.06
 30
0.0
  0
SPLINE
  5
222
100
AcDbEntity
  8
0
100
AcDbSpline
210
0.0
220
0.0
230
1.0
 62
     0
 70
     0
 71
     3
 72
     8
 73
4
 40
0.0
 40
0.0
 40
0.0
 40
0.0
 40
1.0
 40
1.0
 40
1.0
 40
1.0
 10
187.43
 20
126.06
 30
0.0
 10
187.683
 20
124.704
 30
0.0
 10
188.301
 20
123.68
 30
0.0
 10
188.806
 20
123.773
 30
0.0
  0
SPLINE
  5
223
100
AcDbEntity
  8
0
100
AcDbSpline
210
0.0
220
0.0
230
1.0
 62
     0
 70
     0
 71
     3
 72
     8
 73
4
 40
0.0
 40
0.0
 40
0.0
 40
0.0
 40
1.0
 40
1.0
 40
1.0
 40
1.0
 10
188.806
 20
123.773
 30
0.0
 10
189.154
 20
123.84
 30
0.0
 10
189.374
 20
124.424
 30
0.0
 10
189.374
 20
125.284
 30
0.0
  0
LINE
  5
224
100
AcDbEntity
  8
0
100
AcDbLine
 62
     0
 10
193.067
 20
1.09279
 30
0.0
 11
194.389
 21
0.8847
 31
0.0
  0
LINE
  5
225
100
AcDbEntity
  8
0
100
AcDbLine
 62
     0
 10
193.067
 20
499.71
 30
0.0
 11
194.389
 21
499.498
 31
0.0
  0
LINE
  5
226
100
AcDbEntity
  8
0
100
AcDbLine
 62
     0
 10
194.389
 20
0.8847
 30
0.0
 11
194.389
 21
499.498
 31
0.0
  0
LINE
  5
227
100
AcDbEntity
  8
0
100
AcDbLine
 62
     0
 10
193.979
 20
0.354157
 30
0.0
 11
193.067
 21
1.09279
 31
0.0
  0
LINE
  5
228
100
AcDbEntity
  8
0
100
AcDbLine
 62
     0
 10
193.979
 20
500.789
 30
0.0
 11
193.067
 21
499.71
 31
0.0
  0
LINE
  5
229
100
AcDbEntity
  8
0
100
AcDbLine
 62
     0
 10
193.979
 20
500.789
 30
0.0
 11
184.541
 21
509.489
 31
0.0
  0
LINE
  5
22a
100
AcDbEntity
  8
0
100
AcDbLine
 62
     0
 10
183.629
 20
508.409
 30
0.0
 11
184.541
 21
509.489
 31
0.0
  0
LINE
  5
22b
100
AcDbEntity
  8
0
100
AcDbLine
 62
     0
 10
193.979
 20
0.354157
 30
0.0
 11
194.389
 21
0.8847
 31
0.0
  0
LINE
  5
22c
100
AcDbEntity
  8
0
100
AcDbLine
 62
     0
 10
193.979
 20
500.789
 30
0.0
 11
194.389
 21
499.498
 31
0.0
  0
LINE
  5
22d
100
AcDbEntity
  8
0
100
AcDbLine
 62
     0
 10
194.389
 20
0.8847
 30
0.0
 11
201.684
 21
2.24896
 31
0.0
  0
LINE
  5
22e
100
AcDbEntity
  8
0
100
AcDbLine
 62
     0
 10
194.389
 20
499.498
 30
0.0
 11
201.684
 21
500.863
 31
0.0
  0
LINE
  5
22f
100
AcDbEntity
  8
0
100
AcDbLine
 62
     0
 10
201.684
 20
2.24896
 30
0.0
 11
201.684
 21
500.863
 31
0.0
  0
LINE
  5
230
100
AcDbEntity
  8
0
100
AcDbLine
 62
     0
 10
193.979
 20
0.354157
 30
0.0
 11
201.275
 21
1.71704
 31
0.0
  0
LINE
  5
231
100
AcDbEntity
  8
0
100
AcDbLine
 62
     0
 10
193.979
 20
500.789
 30
0.0
 11
201.275
 21
502.151
 31
0.0
  0
LINE
  5
232
100
AcDbEntity
  8
0
100
AcDbLine
 62
     0
 10
184.541
 20
509.489
 30
0.0
 11
191.837
 21
510.854
 31
0.0
  0
LINE
  5
233
100
AcDbEntity
  8
0
100
AcDbLine
 62
     0
 10
201.275
 20
502.151
 30
0.0
 11
191.837
 21
510.854
 31
0.0
  0
LINE
  5
234
100
AcDbEntity
  8
0
100
AcDbLine
 62
     0
 10
202.186
 20
2.79604
 30
0.0
 11
202.186
 21
501.41
 31
0.0
  0
LINE
  5
235
100
AcDbEntity
  8
0
100
AcDbLine
 62
     0
 10
202.186
 20
501.41
 30
0.0
 11
192.748
 21
510.11
 31
0.0
  0
LINE
  5
236
100
AcDbEntity
  8
0
100
AcDbLine
 62
     0
 10
201.275
 20
1.71704
 30
0.0
 11
201.684
 21
2.24896
 31
0.0
  0
LINE
  5
237
100
AcDbEntity
  8
0
100
AcDbLine
 62
     0
 10
201.275
 20
502.151
 30
0.0
 11
201.684
 21
500.863
 31
0.0
  0
LINE
  5
238
100
AcDbEntity
  8
0
100
AcDbLine
 62
     0
 10
202.186
 20
2.79604
 30
0.0
 11
201.684
 21
2.24896
 31
0.0
  0
LINE
  5
239
100
AcDbEntity
  8
0
100
AcDbLine
 62
     0
 10
202.186
 20
501.41
 30
0.0
 11
201.684
 21
500.863
 31
0.0
  0
LINE
  5
23a
100
AcDbEntity
  8
0
100
AcDbLine
 62
     0
 10
201.275
 20
1.71704
 30
0.0
 11
202.186
 21
2.79604
 31
0.0
  0
LINE
  5
23b
100
AcDbEntity
  8
0
100
AcDbLine
 62
     0
 10
201.275
 20
502.151
 30
0.0
 11
202.186
 21
501.41
 31
0.0
  0
LINE
  5
23c
100
AcDbEntity
  8
0
100
AcDbLine
 62
     0
 10
192.748
 20
510.11
 30
0.0
 11
191.837
 21
510.854
 31
0.0
  0
ENDSEC
  0
SECTION
  2
OBJECTS
  0
DICTIONARY
  5
C
330
0
100
AcDbDictionary
  3
ACAD_GROUP
350
D
  3
ACAD_LAYOUT
350
1A
  3
ACAD_MLINESTYLE
350
17
  3
ACAD_PLOTSETTINGS
350
19
  3
ACAD_PLOTSTYLENAME
350
E
  3
ACDBHEADERROUNDTRIPXREC
350
2F
  0
DICTIONARY
  5
52
330
1F
100
AcDbDictionary
280
     1
  3
ACAD_LAYOUTSELFREF
360
53
  0
DICTIONARY
  5
50
330
1B
100
AcDbDictionary
280
     1
  3
ACAD_LAYOUTSELFREF
360
51
  0
DICTIONARY
  5
D
102
{ACAD_REACTORS
330
C
102
}
330
C
100
AcDbDictionary
  0
DICTIONARY
  5
1A
102
{ACAD_REACTORS
330
C
102
}
330
C
100
AcDbDictionary
  0
DICTIONARY
  5
17
102
{ACAD_REACTORS
330
C
102
}
330
C
100
AcDbDictionary
  3
STANDARD
350
18
  0
DICTIONARY
  5
19
102
{ACAD_REACTORS
330
C
102
}
330
C
100
AcDbDictionary
  0
ACDBDICTIONARYWDFLT
  5
E
102
{ACAD_REACTORS
330
C
102
}
330
C
100
AcDbDictionary
281
     1
  3
Normal
350
F
100
AcDbDictionaryWithDefault
340
F
  0
DICTIONARY
  5
2F
102
{ACAD_REACTORS
330
C
102
}
330
C
100
AcDbDictionary
  3
CEPSNTYPE
350
39
  3
DIMSTYLEDATA
350
3D
  3
FINGERPRINTGUID
350
3A
  3
HYPERLINKBASE
350
32
  3
INSUNITS
350
38
  3
LAYOUTDICT
350
34
  3
LWETCUNION
350
37
  3
PLOTSETDICT
350
35
  3
PLOTSTYLNAMDICT
350
36
  3
PSVPSCALE
350
3C
  3
PUCSBASE
350
40
  3
PUCSORGBACK
350
46
  3
PUCSORGBOTTOM
350
42
  3
PUCSORGFRONT
350
45
  3
PUCSORGLEFT
350
43
  3
PUCSORGRIGHT
350
44
  3
PUCSORGTOP
350
41
  3
PUCSORTHOREF
350
3E
  3
PUCSORTHOVIEW
350
3F
  3
STYLESHEET
350
33
  3
TSTACKALIGN
350
30
  3
TSTACKSIZE
350
31
  3
UCSBASE
350
49
  3
UCSORGBACK
350
4F
  3
UCSORGBOTTOM
350
4B
  3
UCSORGFRONT
350
4E
  3
UCSORGLEFT
350
4C
  3
UCSORGRIGHT
350
4D
  3
UCSORGTOP
350
4A
  3
UCSORTHOREF
350
47
  3
UCSORTHOVIEW
350
48
  3
VERSIONGUID
350
3B
  0
XRECORD
  5
53
102
{ACAD_REACTORS
330
52
102
}
330
52
100
AcDbXrecord
340
1F
  0
XRECORD
  5
51
102
{ACAD_REACTORS
330
50
102
}
330
50
100
AcDbXrecord
340
1B
  0
MLINESTYLE
  5
18
102
{ACAD_REACTORS
330
17
102
}
330
17
100
AcDbMlineStyle
  2
STANDARD
 70
     0
  3

 62
   256
 51
90.0
 52
90.0
 71
     2
 49
0.5
 62
   256
  6
BYLAYER
 49
-0.5
 62
   256
  6
BYLAYER
  0
ACDBPLACEHOLDER
  5
F
102
{ACAD_REACTORS
330
E
102
}
330
E
100
AcDbPlaceHolder
280
     0
  0
XRECORD
  5
39
102
{ACAD_REACTORS
330
2F
102
}
330
2F
100
AcDbXrecord
 90
        0
  0
XRECORD
  5
3D
102
{ACAD_REACTORS
330
2F
102
}
330
2F
100
AcDbXrecord
1000
DSTYLE
1002
{
1070
   278
 70
    44
1002
}
  0
XRECORD
  5
3A
102
{ACAD_REACTORS
330
2F
102
}
330
2F
100
AcDbXrecord
  1
{705446A6-11D0-4548-8F8C-A97DCA50327D}
  0
XRECORD
  5
32
102
{ACAD_REACTORS
330
2F
102
}
330
2F
100
AcDbXrecord
  1

  0
XRECORD
  5
38
102
{ACAD_REACTORS
330
2F
102
}
330
2F
100
AcDbXrecord
 90
        4
  0
XRECORD
  5
34
102
{ACAD_REACTORS
330
2F
102
}
330
2F
100
AcDbXrecord
340
1A
  0
XRECORD
  5
37
102
{ACAD_REACTORS
330
2F
102
}
330
2F
100
AcDbXrecord
 90
    10781
  0
XRECORD
  5
35
102
{ACAD_REACTORS
330
2F
102
}
330
2F
100
AcDbXrecord
340
19
  0
XRECORD
  5
36
102
{ACAD_REACTORS
330
2F
102
}
330
2F
100
AcDbXrecord
340
E
  0
XRECORD
  5
3C
102
{ACAD_REACTORS
330
2F
102
}
330
2F
100
AcDbXrecord
 40
0.0
  0
XRECORD
  5
40
102
{ACAD_REACTORS
330
2F
102
}
330
2F
100
AcDbXrecord
340
0
  0
XRECORD
  5
46
102
{ACAD_REACTORS
330
2F
102
}
330
2F
100
AcDbXrecord
 10
0.0
 20
0.0
 30
0.0
  0
XRECORD
  5
42
102
{ACAD_REACTORS
330
2F
102
}
330
2F
100
AcDbXrecord
 10
0.0
 20
0.0
 30
0.0
  0
XRECORD
  5
45
102
{ACAD_REACTORS
330
2F
102
}
330
2F
100
AcDbXrecord
 10
0.0
 20
0.0
 30
0.0
  0
XRECORD
  5
43
102
{ACAD_REACTORS
330
2F
102
}
330
2F
100
AcDbXrecord
 10
0.0
 20
0.0
 30
0.0
  0
XRECORD
  5
44
102
{ACAD_REACTORS
330
2F
102
}
330
2F
100
AcDbXrecord
 10
0.0
 20
0.0
 30
0.0
  0
XRECORD
  5
41
102
{ACAD_REACTORS
330
2F
102
}
330
2F
100
AcDbXrecord
 10
0.0
 20
0.0
 30
0.0
  0
XRECORD
  5
3E
102
{ACAD_REACTORS
330
2F
102
}
330
2F
100
AcDbXrecord
340
0
  0
XRECORD
  5
3F
102
{ACAD_REACTORS
330
2F
102
}
330
2F
100
AcDbXrecord
 70
     0
  0
XRECORD
  5
33
102
{ACAD_REACTORS
330
2F
102
}
330
2F
100
AcDbXrecord
  1

  0
XRECORD
  5
30
102
{ACAD_REACTORS
330
2F
102
}
330
2F
100
AcDbXrecord
 90
        1
  0
XRECORD
  5
31
102
{ACAD_REACTORS
330
2F
102
}
330
2F
100
AcDbXrecord
 90
       70
  0
XRECORD
  5
49
102
{ACAD_REACTORS
330
2F
102
}
330
2F
100
AcDbXrecord
340
0
  0
XRECORD
  5
4F
102
{ACAD_REACTORS
330
2F
102
}
330
2F
100
AcDbXrecord
 10
0.0
 20
0.0
 30
0.0
  0
XRECORD
  5
4B
102
{ACAD_REACTORS
330
2F
102
}
330
2F
100
AcDbXrecord
 10
0.0
 20
0.0
 30
0.0
  0
XRECORD
  5
4E
102
{ACAD_REACTORS
330
2F
102
}
330
2F
100
AcDbXrecord
 10
0.0
 20
0.0
 30
0.0
  0
XRECORD
  5
4C
102
{ACAD_REACTORS
330
2F
102
}
330
2F
100
AcDbXrecord
 10
0.0
 20
0.0
 30
0.0
  0
XRECORD
  5
4D
102
{ACAD_REACTORS
330
2F
102
}
330
2F
100
AcDbXrecord
 10
0.0
 20
0.0
 30
0.0
  0
XRECORD
  5
4A
102
{ACAD_REACTORS
330
2F
102
}
330
2F
100
AcDbXrecord
 10
0.0
 20
0.0
 30
0.0
  0
XRECORD
  5
47
102
{ACAD_REACTORS
330
2F
102
}
330
2F
100
AcDbXrecord
340
0
  0
XRECORD
  5
48
102
{ACAD_REACTORS
330
2F
102
}
330
2F
100
AcDbXrecord
 70
     0
  0
XRECORD
  5
3B
102
{ACAD_REACTORS
330
2F
102
}
330
2F
100
AcDbXrecord
  1
{33328E3A-B6B8-4979-86B7-D70DEC2867C2}
  0
ENDSEC
  0
EOF
