  0
SECTION
  2
HEADER
  9
$ACADVER
  1
AC1014
  9
$EXTMIN
 10
70.16401489310567
 20
112.369642808922
 30
0.0
  9
$EXTMAX
 10
277.0834797641999
 20
227.1366601424358
 30
0.0
  9
$HANDSEED
  5
56
  9
$MEASUREMENT
 70
1
  0
ENDSEC
  0
SECTION
  2
TABLES
  0
TABLE
  2
VPORT
  5
8
330
0
100
AcDbSymbolTable
 70
     4
  0
VPORT
  5
2E
330
8
100
AcDbSymbolTableRecord
100
AcDbViewportTableRecord
  2
*ACTIVE
 70
     0
 10
0.0
 20
0.0
 11
1.0
 21
1.0
 12
209.9999999999999
 22
148.4999999999999
 13
0.0
 23
0.0
 14
10.0
 24
10.0
 15
10.0
 25
10.0
 16
0.0
 26
0.0
 36
1.0
 17
0.0
 27
0.0
 37
0.0
 40
340.9950045922664
 41
1.239944521497919
 42
50.0
 43
0.0
 44
0.0
 50
0.0
 51
0.0
 71
     0
 72
   100
 73
     1
 74
     3
 75
     0
 76
     0
 77
     0
 78
     0
  0
ENDTAB
  0
TABLE
  2
LTYPE
  5
5
330
0
100
AcDbSymbolTable
 70
     1
  0
LTYPE
  5
14
330
5
100
AcDbSymbolTableRecord
100
AcDbLinetypeTableRecord
  2
BYBLOCK
 70
     0
  3

 72
    65
 73
     0
 40
0.0
  0
LTYPE
  5
15
330
5
100
AcDbSymbolTableRecord
100
AcDbLinetypeTableRecord
  2
BYLAYER
 70
     0
  3

 72
    65
 73
     0
 40
0.0
  0
LTYPE
  5
16
330
5
100
AcDbSymbolTableRecord
100
AcDbLinetypeTableRecord
  2
CONTINUOUS
 70
     0
  3
Solid line
 72
    65
 73
     0
 40
0.0
  0
ENDTAB
  0
TABLE
  2
LAYER
  5
2
330
0
100
AcDbSymbolTable
 70
1
  0
LAYER
  5
10
330
2
100
AcDbSymbolTableRecord
100
AcDbLayerTableRecord
  2
0
 70
     0
 62
     7
  6
CONTINUOUS
  0
ENDTAB
  0
TABLE
  2
STYLE
  5
3
330
0
100
AcDbSymbolTable
 70
     1
  0
STYLE
  5
11
330
3
100
AcDbSymbolTableRecord
100
AcDbTextStyleTableRecord
  2
STANDARD
 70
     0
 40
0.0
 41
1.0
 50
0.0
 71
     0
 42
2.5
  3
txt
  4

  0
ENDTAB
  0
TABLE
  2
VIEW
  5
6
330
0
100
AcDbSymbolTable
 70
     0
  0
ENDTAB
  0
TABLE
  2
UCS
  5
7
330
0
100
AcDbSymbolTable
 70
     0
  0
ENDTAB
  0
TABLE
  2
APPID
  5
9
330
0
100
AcDbSymbolTable
 70
     2
  0
APPID
  5
12
330
9
100
AcDbSymbolTableRecord
100
AcDbRegAppTableRecord
  2
ACAD
 70
     0
  0
APPID
  5
2B
330
9
100
AcDbSymbolTableRecord
100
AcDbRegAppTableRecord
  2
URBANX
 70
     0
  0
ENDTAB
  0
TABLE
  2
DIMSTYLE
  5
A
330
0
100
AcDbSymbolTable
 70
     1
  0
DIMSTYLE
105
27
330
A
100
AcDbSymbolTableRecord
100
AcDbDimStyleTableRecord
  2
ISO-25
 70
     0
  3

  4

  5

  6

  7

 40
1.0
 41
2.5
 42
0.625
 43
3.75
 44
1.25
 45
0.0
 46
0.0
 47
0.0
 48
0.0
140
2.5
141
2.5
142
0.0
143
0.03937007874016
144
1.0
145
0.0
146
1.0
147
0.625
 71
     0
 72
     0
 73
     0
 74
     0
 75
     0
 76
     0
 77
     1
 78
     8
170
     0
171
     3
172
     1
173
     0
174
     0
175
     0
176
     0
177
     0
178
     0
270
     2
271
     2
272
     2
273
     2
274
     3
340
11
275
     0
280
     0
281
     0
282
     0
283
     0
284
     8
285
     0
286
     0
287
     3
288
     0
  0
ENDTAB
  0
TABLE
  2
BLOCK_RECORD
  5
1
330
0
100
AcDbSymbolTable
 70
     1
  0
BLOCK_RECORD
  5
1F
102
{ACAD_XDICTIONARY
360
52
102
}
330
1
100
AcDbSymbolTableRecord
100
AcDbBlockTableRecord
  2
*MODEL_SPACE
  0
BLOCK_RECORD
  5
1B
102
{ACAD_XDICTIONARY
360
50
102
}
330
1
100
AcDbSymbolTableRecord
100
AcDbBlockTableRecord
  2
*PAPER_SPACE
  0
ENDTAB
  0
ENDSEC
  0
SECTION
  2
BLOCKS
  0
BLOCK
  5
20
330
1F
100
AcDbEntity
  8
0
100
AcDbBlockBegin
  2
*MODEL_SPACE
 70
     0
 10
0.0
 20
0.0
 30
0.0
  3
*MODEL_SPACE
  1

  0
ENDBLK
  5
21
330
1F
100
AcDbEntity
  8
0
100
AcDbBlockEnd
  0
BLOCK
  5
1C
330
1B
100
AcDbEntity
 67
     1
  8
0
100
AcDbBlockBegin
  2
*PAPER_SPACE
  1

  0
ENDBLK
  5
1D
330
1B
100
AcDbEntity
 67
     1
  8
0
100
AcDbBlockEnd
  0
ENDSEC
  0
SECTION
  2
ENTITIES
  0
LINE
  5
ff
100
AcDbEntity
  8
0
100
AcDbLine
 62
     253
 10
0.0757922
 20
86.5766
 30
0.0
 11
0.0757922
 21
164.075
 31
0.0
  0
LINE
  5
100
100
AcDbEntity
  8
0
100
AcDbLine
 62
     253
 10
26.326
 20
84.0768
 30
0.0
 11
26.326
 21
166.576
 31
0.0
  0
LINE
  5
101
100
AcDbEntity
  8
0
100
AcDbLine
 62
     253
 10
0.0757922
 20
86.5766
 30
0.0
 11
2.57555
 21
84.0768
 31
0.0
  0
LINE
  5
102
100
AcDbEntity
  8
0
100
AcDbLine
 62
     253
 10
0.0757922
 20
164.075
 30
0.0
 11
2.57555
 21
166.576
 31
0.0
  0
LINE
  5
103
100
AcDbEntity
  8
0
100
AcDbLine
 62
     253
 10
2.57555
 20
84.0768
 30
0.0
 11
55.076
 21
84.0768
 31
0.0
  0
LINE
  5
104
100
AcDbEntity
  8
0
100
AcDbLine
 62
     253
 10
55.076
 20
84.0768
 30
0.0
 11
57.5758
 21
86.5766
 31
0.0
  0
LINE
  5
105
100
AcDbEntity
  8
0
100
AcDbLine
 62
     253
 10
57.5758
 20
86.5766
 30
0.0
 11
57.5758
 21
164.075
 31
0.0
  0
LINE
  5
106
100
AcDbEntity
  8
0
100
AcDbLine
 62
     253
 10
55.076
 20
166.576
 30
0.0
 11
57.5758
 21
164.075
 31
0.0
  0
LINE
  5
107
100
AcDbEntity
  8
0
100
AcDbLine
 62
     253
 10
55.076
 20
166.576
 30
0.0
 11
2.57555
 21
166.576
 31
0.0
  0
SPLINE
  5
108
100
AcDbEntity
  8
0
100
AcDbSpline
210
0.0
220
0.0
230
1.0
 62
     253
 70
     0
 71
     3
 72
     8
 73
4
 40
0.0
 40
0.0
 40
0.0
 40
0.0
 40
1.0
 40
1.0
 40
1.0
 40
1.0
 10
12.576
 20
94.076
 30
0.0
 10
12.576
 20
92.6952
 30
0.0
 10
11.457
 20
91.5748
 30
0.0
 10
10.0762
 20
91.5748
 30
0.0
  0
SPLINE
  5
109
100
AcDbEntity
  8
0
100
AcDbSpline
210
0.0
220
0.0
230
1.0
 62
     253
 70
     0
 71
     3
 72
     8
 73
4
 40
0.0
 40
0.0
 40
0.0
 40
0.0
 40
1.0
 40
1.0
 40
1.0
 40
1.0
 10
10.0762
 20
91.5748
 30
0.0
 10
8.69541
 20
91.5748
 30
0.0
 10
7.57647
 20
92.6952
 30
0.0
 10
7.57647
 20
94.076
 30
0.0
  0
SPLINE
  5
10a
100
AcDbEntity
  8
0
100
AcDbSpline
210
0.0
220
0.0
230
1.0
 62
     253
 70
     0
 71
     3
 72
     8
 73
4
 40
0.0
 40
0.0
 40
0.0
 40
0.0
 40
1.0
 40
1.0
 40
1.0
 40
1.0
 10
7.57647
 20
94.076
 30
0.0
 10
7.57647
 20
95.4567
 30
0.0
 10
8.69541
 20
96.5757
 30
0.0
 10
10.0762
 20
96.5757
 30
0.0
  0
SPLINE
  5
10b
100
AcDbEntity
  8
0
100
AcDbSpline
210
0.0
220
0.0
230
1.0
 62
     253
 70
     0
 71
     3
 72
     8
 73
4
 40
0.0
 40
0.0
 40
0.0
 40
0.0
 40
1.0
 40
1.0
 40
1.0
 40
1.0
 10
10.0762
 20
96.5757
 30
0.0
 10
11.457
 20
96.5757
 30
0.0
 10
12.576
 20
95.4567
 30
0.0
 10
12.576
 20
94.076
 30
0.0
  0
SPLINE
  5
10c
100
AcDbEntity
  8
0
100
AcDbSpline
210
0.0
220
0.0
230
1.0
 62
     253
 70
     0
 71
     3
 72
     8
 73
4
 40
0.0
 40
0.0
 40
0.0
 40
0.0
 40
1.0
 40
1.0
 40
1.0
 40
1.0
 10
50.0765
 20
94.076
 30
0.0
 10
50.0765
 20
92.6952
 30
0.0
 10
48.956
 20
91.5748
 30
0.0
 10
47.5753
 20
91.5748
 30
0.0
  0
SPLINE
  5
10d
100
AcDbEntity
  8
0
100
AcDbSpline
210
0.0
220
0.0
230
1.0
 62
     253
 70
     0
 71
     3
 72
     8
 73
4
 40
0.0
 40
0.0
 40
0.0
 40
0.0
 40
1.0
 40
1.0
 40
1.0
 40
1.0
 10
47.5753
 20
91.5748
 30
0.0
 10
46.1959
 20
91.5748
 30
0.0
 10
45.0755
 20
92.6952
 30
0.0
 10
45.0755
 20
94.076
 30
0.0
  0
SPLINE
  5
10e
100
AcDbEntity
  8
0
100
AcDbSpline
210
0.0
220
0.0
230
1.0
 62
     253
 70
     0
 71
     3
 72
     8
 73
4
 40
0.0
 40
0.0
 40
0.0
 40
0.0
 40
1.0
 40
1.0
 40
1.0
 40
1.0
 10
45.0755
 20
94.076
 30
0.0
 10
45.0755
 20
95.4567
 30
0.0
 10
46.1959
 20
96.5757
 30
0.0
 10
47.5753
 20
96.5757
 30
0.0
  0
SPLINE
  5
10f
100
AcDbEntity
  8
0
100
AcDbSpline
210
0.0
220
0.0
230
1.0
 62
     253
 70
     0
 71
     3
 72
     8
 73
4
 40
0.0
 40
0.0
 40
0.0
 40
0.0
 40
1.0
 40
1.0
 40
1.0
 40
1.0
 10
47.5753
 20
96.5757
 30
0.0
 10
48.956
 20
96.5757
 30
0.0
 10
50.0765
 20
95.4567
 30
0.0
 10
50.0765
 20
94.076
 30
0.0
  0
SPLINE
  5
110
100
AcDbEntity
  8
0
100
AcDbSpline
210
0.0
220
0.0
230
1.0
 62
     253
 70
     0
 71
     3
 72
     8
 73
4
 40
0.0
 40
0.0
 40
0.0
 40
0.0
 40
1.0
 40
1.0
 40
1.0
 40
1.0
 10
50.0765
 20
156.575
 30
0.0
 10
50.0765
 20
155.195
 30
0.0
 10
48.956
 20
154.076
 30
0.0
 10
47.5753
 20
154.076
 30
0.0
  0
SPLINE
  5
111
100
AcDbEntity
  8
0
100
AcDbSpline
210
0.0
220
0.0
230
1.0
 62
     253
 70
     0
 71
     3
 72
     8
 73
4
 40
0.0
 40
0.0
 40
0.0
 40
0.0
 40
1.0
 40
1.0
 40
1.0
 40
1.0
 10
47.5753
 20
154.076
 30
0.0
 10
46.1959
 20
154.076
 30
0.0
 10
45.0755
 20
155.195
 30
0.0
 10
45.0755
 20
156.575
 30
0.0
  0
SPLINE
  5
112
100
AcDbEntity
  8
0
100
AcDbSpline
210
0.0
220
0.0
230
1.0
 62
     253
 70
     0
 71
     3
 72
     8
 73
4
 40
0.0
 40
0.0
 40
0.0
 40
0.0
 40
1.0
 40
1.0
 40
1.0
 40
1.0
 10
45.0755
 20
156.575
 30
0.0
 10
45.0755
 20
157.956
 30
0.0
 10
46.1959
 20
159.075
 30
0.0
 10
47.5753
 20
159.075
 30
0.0
  0
SPLINE
  5
113
100
AcDbEntity
  8
0
100
AcDbSpline
210
0.0
220
0.0
230
1.0
 62
     253
 70
     0
 71
     3
 72
     8
 73
4
 40
0.0
 40
0.0
 40
0.0
 40
0.0
 40
1.0
 40
1.0
 40
1.0
 40
1.0
 10
47.5753
 20
159.075
 30
0.0
 10
48.956
 20
159.075
 30
0.0
 10
50.0765
 20
157.956
 30
0.0
 10
50.0765
 20
156.575
 30
0.0
  0
SPLINE
  5
114
100
AcDbEntity
  8
0
100
AcDbSpline
210
0.0
220
0.0
230
1.0
 62
     253
 70
     0
 71
     3
 72
     8
 73
4
 40
0.0
 40
0.0
 40
0.0
 40
0.0
 40
1.0
 40
1.0
 40
1.0
 40
1.0
 10
12.576
 20
156.575
 30
0.0
 10
12.576
 20
155.195
 30
0.0
 10
11.457
 20
154.076
 30
0.0
 10
10.0762
 20
154.076
 30
0.0
  0
SPLINE
  5
115
100
AcDbEntity
  8
0
100
AcDbSpline
210
0.0
220
0.0
230
1.0
 62
     253
 70
     0
 71
     3
 72
     8
 73
4
 40
0.0
 40
0.0
 40
0.0
 40
0.0
 40
1.0
 40
1.0
 40
1.0
 40
1.0
 10
10.0762
 20
154.076
 30
0.0
 10
8.69541
 20
154.076
 30
0.0
 10
7.57647
 20
155.195
 30
0.0
 10
7.57647
 20
156.575
 30
0.0
  0
SPLINE
  5
116
100
AcDbEntity
  8
0
100
AcDbSpline
210
0.0
220
0.0
230
1.0
 62
     253
 70
     0
 71
     3
 72
     8
 73
4
 40
0.0
 40
0.0
 40
0.0
 40
0.0
 40
1.0
 40
1.0
 40
1.0
 40
1.0
 10
7.57647
 20
156.575
 30
0.0
 10
7.57647
 20
157.956
 30
0.0
 10
8.69541
 20
159.075
 30
0.0
 10
10.0762
 20
159.075
 30
0.0
  0
SPLINE
  5
117
100
AcDbEntity
  8
0
100
AcDbSpline
210
0.0
220
0.0
230
1.0
 62
     253
 70
     0
 71
     3
 72
     8
 73
4
 40
0.0
 40
0.0
 40
0.0
 40
0.0
 40
1.0
 40
1.0
 40
1.0
 40
1.0
 10
10.0762
 20
159.075
 30
0.0
 10
11.457
 20
159.075
 30
0.0
 10
12.576
 20
157.956
 30
0.0
 10
12.576
 20
156.575
 30
0.0
  0
LINE
  5
118
100
AcDbEntity
  8
0
100
AcDbLine
 62
     253
 10
31.3256
 20
84.0768
 30
0.0
 11
26.326
 21
84.0768
 31
0.0
  0
LINE
  5
119
100
AcDbEntity
  8
0
100
AcDbLine
 62
     253
 10
26.326
 20
71.5754
 30
0.0
 11
26.326
 21
84.0768
 31
0.0
  0
LINE
  5
11a
100
AcDbEntity
  8
0
100
AcDbLine
 62
     253
 10
26.326
 20
71.5754
 30
0.0
 11
26.326
 21
69.0757
 31
0.0
  0
LINE
  5
11b
100
AcDbEntity
  8
0
100
AcDbLine
 62
     253
 10
26.326
 20
166.576
 30
0.0
 11
26.326
 21
224.076
 31
0.0
  0
LINE
  5
11c
100
AcDbEntity
  8
0
100
AcDbLine
 62
     253
 10
26.326
 20
224.076
 30
0.0
 11
26.326
 21
226.576
 31
0.0
  0
LINE
  5
11d
100
AcDbEntity
  8
0
100
AcDbLine
 62
     253
 10
26.326
 20
192.825
 30
0.0
 11
26.326
 21
195.326
 31
0.0
  0
LINE
  5
11e
100
AcDbEntity
  8
0
100
AcDbLine
 62
     253
 10
26.326
 20
195.326
 30
0.0
 11
26.326
 21
190.325
 31
0.0
  0
LINE
  5
11f
100
AcDbEntity
  8
0
100
AcDbLine
 62
     253
 10
26.326
 20
190.325
 30
0.0
 11
26.326
 21
192.825
 31
0.0
  0
LINE
  5
120
100
AcDbEntity
  8
0
100
AcDbLine
 62
     253
 10
26.326
 20
215.327
 30
0.0
 11
26.326
 21
217.825
 31
0.0
  0
LINE
  5
121
100
AcDbEntity
  8
0
100
AcDbLine
 62
     253
 10
26.326
 20
217.825
 30
0.0
 11
26.326
 21
212.827
 31
0.0
  0
LINE
  5
122
100
AcDbEntity
  8
0
100
AcDbLine
 62
     253
 10
26.326
 20
212.827
 30
0.0
 11
26.326
 21
215.327
 31
0.0
  0
LINE
  5
123
100
AcDbEntity
  8
0
100
AcDbLine
 62
     253
 10
26.326
 20
102.825
 30
0.0
 11
26.326
 21
105.325
 31
0.0
  0
LINE
  5
124
100
AcDbEntity
  8
0
100
AcDbLine
 62
     253
 10
26.326
 20
105.325
 30
0.0
 11
26.326
 21
100.325
 31
0.0
  0
LINE
  5
125
100
AcDbEntity
  8
0
100
AcDbLine
 62
     253
 10
26.326
 20
100.325
 30
0.0
 11
26.326
 21
102.825
 31
0.0
  0
LINE
  5
126
100
AcDbEntity
  8
0
100
AcDbLine
 62
     253
 10
26.326
 20
80.3271
 30
0.0
 11
26.326
 21
82.8269
 31
0.0
  0
LINE
  5
127
100
AcDbEntity
  8
0
100
AcDbLine
 62
     253
 10
26.326
 20
82.8269
 30
0.0
 11
26.326
 21
77.826
 31
0.0
  0
LINE
  5
128
100
AcDbEntity
  8
0
100
AcDbLine
 62
     253
 10
26.326
 20
77.826
 30
0.0
 11
26.326
 21
80.3271
 31
0.0
  0
LINE
  5
129
100
AcDbEntity
  8
0
100
AcDbLine
 62
     253
 10
26.326
 20
166.576
 30
0.0
 11
31.3256
 21
166.576
 31
0.0
  0
LINE
  5
12a
100
AcDbEntity
  8
0
100
AcDbLine
 62
     253
 10
31.3256
 20
84.0768
 30
0.0
 11
31.3256
 21
166.576
 31
0.0
  0
LINE
  5
12b
100
AcDbEntity
  8
0
100
AcDbLine
 62
     253
 10
31.3256
 20
71.5754
 30
0.0
 11
26.326
 21
71.5754
 31
0.0
  0
LINE
  5
12c
100
AcDbEntity
  8
0
100
AcDbLine
 62
     253
 10
31.3256
 20
71.5754
 30
0.0
 11
31.3256
 21
84.0768
 31
0.0
  0
LINE
  5
12d
100
AcDbEntity
  8
0
100
AcDbLine
 62
     253
 10
31.3256
 20
71.5754
 30
0.0
 11
31.3256
 21
69.0757
 31
0.0
  0
LINE
  5
12e
100
AcDbEntity
  8
0
100
AcDbLine
 62
     253
 10
31.3256
 20
69.0757
 30
0.0
 11
26.326
 21
69.0757
 31
0.0
  0
LINE
  5
12f
100
AcDbEntity
  8
0
100
AcDbLine
 62
     253
 10
31.3256
 20
166.576
 30
0.0
 11
31.3256
 21
224.076
 31
0.0
  0
LINE
  5
130
100
AcDbEntity
  8
0
100
AcDbLine
 62
     253
 10
31.3256
 20
224.076
 30
0.0
 11
26.326
 21
224.076
 31
0.0
  0
LINE
  5
131
100
AcDbEntity
  8
0
100
AcDbLine
 62
     253
 10
31.3256
 20
224.076
 30
0.0
 11
31.3256
 21
226.576
 31
0.0
  0
LINE
  5
132
100
AcDbEntity
  8
0
100
AcDbLine
 62
     253
 10
31.3256
 20
226.576
 30
0.0
 11
26.326
 21
226.576
 31
0.0
  0
LINE
  5
133
100
AcDbEntity
  8
0
100
AcDbLine
 62
     253
 10
31.3256
 20
192.825
 30
0.0
 11
31.3256
 21
195.326
 31
0.0
  0
LINE
  5
134
100
AcDbEntity
  8
0
100
AcDbLine
 62
     253
 10
31.3256
 20
195.326
 30
0.0
 11
31.3256
 21
190.325
 31
0.0
  0
LINE
  5
135
100
AcDbEntity
  8
0
100
AcDbLine
 62
     253
 10
31.3256
 20
190.325
 30
0.0
 11
31.3256
 21
192.825
 31
0.0
  0
LINE
  5
136
100
AcDbEntity
  8
0
100
AcDbLine
 62
     253
 10
31.3256
 20
215.327
 30
0.0
 11
31.3256
 21
217.825
 31
0.0
  0
LINE
  5
137
100
AcDbEntity
  8
0
100
AcDbLine
 62
     253
 10
31.3256
 20
217.825
 30
0.0
 11
31.3256
 21
212.827
 31
0.0
  0
LINE
  5
138
100
AcDbEntity
  8
0
100
AcDbLine
 62
     253
 10
31.3256
 20
212.827
 30
0.0
 11
31.3256
 21
215.327
 31
0.0
  0
LINE
  5
139
100
AcDbEntity
  8
0
100
AcDbLine
 62
     253
 10
31.3256
 20
102.825
 30
0.0
 11
31.3256
 21
105.325
 31
0.0
  0
LINE
  5
13a
100
AcDbEntity
  8
0
100
AcDbLine
 62
     253
 10
31.3256
 20
105.325
 30
0.0
 11
31.3256
 21
100.325
 31
0.0
  0
LINE
  5
13b
100
AcDbEntity
  8
0
100
AcDbLine
 62
     253
 10
31.3256
 20
100.325
 30
0.0
 11
31.3256
 21
102.825
 31
0.0
  0
LINE
  5
13c
100
AcDbEntity
  8
0
100
AcDbLine
 62
     253
 10
31.3256
 20
80.3271
 30
0.0
 11
31.3256
 21
82.8269
 31
0.0
  0
LINE
  5
13d
100
AcDbEntity
  8
0
100
AcDbLine
 62
     253
 10
31.3256
 20
82.8269
 30
0.0
 11
31.3256
 21
77.826
 31
0.0
  0
LINE
  5
13e
100
AcDbEntity
  8
0
100
AcDbLine
 62
     253
 10
31.3256
 20
77.826
 30
0.0
 11
31.3256
 21
80.3271
 31
0.0
  0
LINE
  5
13f
100
AcDbEntity
  8
0
100
AcDbLine
 62
     253
 10
31.3256
 20
190.325
 30
0.0
 11
26.326
 21
190.325
 31
0.0
  0
LINE
  5
140
100
AcDbEntity
  8
0
100
AcDbLine
 62
     253
 10
31.3256
 20
195.326
 30
0.0
 11
26.326
 21
195.326
 31
0.0
  0
LINE
  5
141
100
AcDbEntity
  8
0
100
AcDbLine
 62
     253
 10
31.3256
 20
212.827
 30
0.0
 11
26.326
 21
212.827
 31
0.0
  0
LINE
  5
142
100
AcDbEntity
  8
0
100
AcDbLine
 62
     253
 10
31.3256
 20
217.825
 30
0.0
 11
26.326
 21
217.825
 31
0.0
  0
LINE
  5
143
100
AcDbEntity
  8
0
100
AcDbLine
 62
     253
 10
31.3256
 20
100.325
 30
0.0
 11
26.326
 21
100.325
 31
0.0
  0
LINE
  5
144
100
AcDbEntity
  8
0
100
AcDbLine
 62
     253
 10
31.3256
 20
105.325
 30
0.0
 11
26.326
 21
105.325
 31
0.0
  0
LINE
  5
145
100
AcDbEntity
  8
0
100
AcDbLine
 62
     253
 10
31.3256
 20
77.826
 30
0.0
 11
26.326
 21
77.826
 31
0.0
  0
LINE
  5
146
100
AcDbEntity
  8
0
100
AcDbLine
 62
     253
 10
31.3256
 20
82.8269
 30
0.0
 11
26.326
 21
82.8269
 31
0.0
  0
LINE
  5
147
100
AcDbEntity
  8
0
100
AcDbLine
 62
     253
 10
99.0755
 20
84.0768
 30
0.0
 11
99.0755
 21
166.576
 31
0.0
  0
LINE
  5
148
100
AcDbEntity
  8
0
100
AcDbLine
 62
     253
 10
99.0755
 20
156.575
 30
0.0
 11
99.0755
 21
159.075
 31
0.0
  0
LINE
  5
149
100
AcDbEntity
  8
0
100
AcDbLine
 62
     253
 10
99.0755
 20
159.075
 30
0.0
 11
99.0755
 21
154.076
 31
0.0
  0
LINE
  5
14a
100
AcDbEntity
  8
0
100
AcDbLine
 62
     253
 10
99.0755
 20
154.076
 30
0.0
 11
99.0755
 21
156.575
 31
0.0
  0
LINE
  5
14b
100
AcDbEntity
  8
0
100
AcDbLine
 62
     253
 10
99.0755
 20
94.076
 30
0.0
 11
99.0755
 21
96.5757
 31
0.0
  0
LINE
  5
14c
100
AcDbEntity
  8
0
100
AcDbLine
 62
     253
 10
99.0755
 20
96.5757
 30
0.0
 11
99.0755
 21
91.5748
 31
0.0
  0
LINE
  5
14d
100
AcDbEntity
  8
0
100
AcDbLine
 62
     253
 10
99.0755
 20
91.5748
 30
0.0
 11
99.0755
 21
94.076
 31
0.0
  0
LINE
  5
14e
100
AcDbEntity
  8
0
100
AcDbLine
 62
     253
 10
96.0755
 20
84.0768
 30
0.0
 11
96.0755
 21
86.5766
 31
0.0
  0
LINE
  5
14f
100
AcDbEntity
  8
0
100
AcDbLine
 62
     253
 10
96.0755
 20
86.5766
 30
0.0
 11
96.0755
 21
164.075
 31
0.0
  0
LINE
  5
150
100
AcDbEntity
  8
0
100
AcDbLine
 62
     253
 10
96.0755
 20
166.576
 30
0.0
 11
96.0755
 21
164.075
 31
0.0
  0
LINE
  5
151
100
AcDbEntity
  8
0
100
AcDbLine
 62
     253
 10
96.0755
 20
94.076
 30
0.0
 11
96.0755
 21
96.5757
 31
0.0
  0
LINE
  5
152
100
AcDbEntity
  8
0
100
AcDbLine
 62
     253
 10
96.0755
 20
96.5757
 30
0.0
 11
96.0755
 21
91.5748
 31
0.0
  0
LINE
  5
153
100
AcDbEntity
  8
0
100
AcDbLine
 62
     253
 10
96.0755
 20
91.5748
 30
0.0
 11
96.0755
 21
94.076
 31
0.0
  0
LINE
  5
154
100
AcDbEntity
  8
0
100
AcDbLine
 62
     253
 10
96.0755
 20
94.076
 30
0.0
 11
96.0755
 21
96.5757
 31
0.0
  0
LINE
  5
155
100
AcDbEntity
  8
0
100
AcDbLine
 62
     253
 10
96.0755
 20
96.5757
 30
0.0
 11
96.0755
 21
91.5748
 31
0.0
  0
LINE
  5
156
100
AcDbEntity
  8
0
100
AcDbLine
 62
     253
 10
96.0755
 20
91.5748
 30
0.0
 11
96.0755
 21
94.076
 31
0.0
  0
LINE
  5
157
100
AcDbEntity
  8
0
100
AcDbLine
 62
     253
 10
96.0755
 20
156.575
 30
0.0
 11
96.0755
 21
159.075
 31
0.0
  0
LINE
  5
158
100
AcDbEntity
  8
0
100
AcDbLine
 62
     253
 10
96.0755
 20
159.075
 30
0.0
 11
96.0755
 21
154.076
 31
0.0
  0
LINE
  5
159
100
AcDbEntity
  8
0
100
AcDbLine
 62
     253
 10
96.0755
 20
154.076
 30
0.0
 11
96.0755
 21
156.575
 31
0.0
  0
LINE
  5
15a
100
AcDbEntity
  8
0
100
AcDbLine
 62
     253
 10
96.0755
 20
156.575
 30
0.0
 11
96.0755
 21
159.075
 31
0.0
  0
LINE
  5
15b
100
AcDbEntity
  8
0
100
AcDbLine
 62
     253
 10
96.0755
 20
159.075
 30
0.0
 11
96.0755
 21
154.076
 31
0.0
  0
LINE
  5
15c
100
AcDbEntity
  8
0
100
AcDbLine
 62
     253
 10
96.0755
 20
154.076
 30
0.0
 11
96.0755
 21
156.575
 31
0.0
  0
LINE
  5
15d
100
AcDbEntity
  8
0
100
AcDbLine
 62
     253
 10
96.0755
 20
84.0768
 30
0.0
 11
99.0755
 21
84.0768
 31
0.0
  0
LINE
  5
15e
100
AcDbEntity
  8
0
100
AcDbLine
 62
     253
 10
99.0755
 20
166.576
 30
0.0
 11
96.0755
 21
166.576
 31
0.0
  0
LINE
  5
15f
100
AcDbEntity
  8
0
100
AcDbLine
 62
     253
 10
96.0755
 20
86.5766
 30
0.0
 11
99.0755
 21
86.5766
 31
0.0
  0
LINE
  5
160
100
AcDbEntity
  8
0
100
AcDbLine
 62
     253
 10
99.0755
 20
84.0768
 30
0.0
 11
99.0755
 21
86.5766
 31
0.0
  0
LINE
  5
161
100
AcDbEntity
  8
0
100
AcDbLine
 62
     253
 10
99.0755
 20
164.075
 30
0.0
 11
96.0755
 21
164.075
 31
0.0
  0
LINE
  5
162
100
AcDbEntity
  8
0
100
AcDbLine
 62
     253
 10
99.0755
 20
86.5766
 30
0.0
 11
99.0755
 21
164.075
 31
0.0
  0
LINE
  5
163
100
AcDbEntity
  8
0
100
AcDbLine
 62
     253
 10
99.0755
 20
166.576
 30
0.0
 11
99.0755
 21
164.075
 31
0.0
  0
LINE
  5
164
100
AcDbEntity
  8
0
100
AcDbLine
 62
     253
 10
99.0755
 20
94.076
 30
0.0
 11
99.0755
 21
96.5757
 31
0.0
  0
LINE
  5
165
100
AcDbEntity
  8
0
100
AcDbLine
 62
     253
 10
99.0755
 20
96.5757
 30
0.0
 11
99.0755
 21
91.5748
 31
0.0
  0
LINE
  5
166
100
AcDbEntity
  8
0
100
AcDbLine
 62
     253
 10
99.0755
 20
91.5748
 30
0.0
 11
99.0755
 21
94.076
 31
0.0
  0
LINE
  5
167
100
AcDbEntity
  8
0
100
AcDbLine
 62
     253
 10
99.0755
 20
156.575
 30
0.0
 11
99.0755
 21
159.075
 31
0.0
  0
LINE
  5
168
100
AcDbEntity
  8
0
100
AcDbLine
 62
     253
 10
99.0755
 20
159.075
 30
0.0
 11
99.0755
 21
154.076
 31
0.0
  0
LINE
  5
169
100
AcDbEntity
  8
0
100
AcDbLine
 62
     253
 10
99.0755
 20
154.076
 30
0.0
 11
99.0755
 21
156.575
 31
0.0
  0
LINE
  5
16a
100
AcDbEntity
  8
0
100
AcDbLine
 62
     253
 10
99.0755
 20
84.0768
 30
0.0
 11
99.0755
 21
166.576
 31
0.0
  0
LINE
  5
16b
100
AcDbEntity
  8
0
100
AcDbLine
 62
     253
 10
99.0755
 20
71.5754
 30
0.0
 11
99.0755
 21
84.0768
 31
0.0
  0
LINE
  5
16c
100
AcDbEntity
  8
0
100
AcDbLine
 62
     253
 10
99.0755
 20
71.5754
 30
0.0
 11
101.577
 21
69.0757
 31
0.0
  0
LINE
  5
16d
100
AcDbEntity
  8
0
100
AcDbLine
 62
     253
 10
124.076
 20
69.0757
 30
0.0
 11
101.577
 21
69.0757
 31
0.0
  0
LINE
  5
16e
100
AcDbEntity
  8
0
100
AcDbLine
 62
     253
 10
99.0755
 20
166.576
 30
0.0
 11
99.0755
 21
224.076
 31
0.0
  0
LINE
  5
16f
100
AcDbEntity
  8
0
100
AcDbLine
 62
     253
 10
124.076
 20
69.0757
 30
0.0
 11
126.576
 21
71.5754
 31
0.0
  0
LINE
  5
170
100
AcDbEntity
  8
0
100
AcDbLine
 62
     253
 10
99.0755
 20
224.076
 30
0.0
 11
101.577
 21
226.576
 31
0.0
  0
LINE
  5
171
100
AcDbEntity
  8
0
100
AcDbLine
 62
     253
 10
126.576
 20
71.5754
 30
0.0
 11
126.576
 21
224.076
 31
0.0
  0
LINE
  5
172
100
AcDbEntity
  8
0
100
AcDbLine
 62
     253
 10
124.076
 20
226.576
 30
0.0
 11
101.577
 21
226.576
 31
0.0
  0
LINE
  5
173
100
AcDbEntity
  8
0
100
AcDbLine
 62
     253
 10
126.576
 20
224.076
 30
0.0
 11
124.076
 21
226.576
 31
0.0
  0
SPLINE
  5
174
100
AcDbEntity
  8
0
100
AcDbSpline
210
0.0
220
0.0
230
1.0
 62
     253
 70
     0
 71
     3
 72
     8
 73
4
 40
0.0
 40
0.0
 40
0.0
 40
0.0
 40
1.0
 40
1.0
 40
1.0
 40
1.0
 10
116.576
 20
192.825
 30
0.0
 10
116.576
 20
191.445
 30
0.0
 10
115.456
 20
190.325
 30
0.0
 10
114.075
 20
190.325
 30
0.0
  0
SPLINE
  5
175
100
AcDbEntity
  8
0
100
AcDbSpline
210
0.0
220
0.0
230
1.0
 62
     253
 70
     0
 71
     3
 72
     8
 73
4
 40
0.0
 40
0.0
 40
0.0
 40
0.0
 40
1.0
 40
1.0
 40
1.0
 40
1.0
 10
114.075
 20
190.325
 30
0.0
 10
112.696
 20
190.325
 30
0.0
 10
111.576
 20
191.445
 30
0.0
 10
111.576
 20
192.825
 30
0.0
  0
SPLINE
  5
176
100
AcDbEntity
  8
0
100
AcDbSpline
210
0.0
220
0.0
230
1.0
 62
     253
 70
     0
 71
     3
 72
     8
 73
4
 40
0.0
 40
0.0
 40
0.0
 40
0.0
 40
1.0
 40
1.0
 40
1.0
 40
1.0
 10
111.576
 20
192.825
 30
0.0
 10
111.576
 20
194.206
 30
0.0
 10
112.696
 20
195.326
 30
0.0
 10
114.075
 20
195.326
 30
0.0
  0
SPLINE
  5
177
100
AcDbEntity
  8
0
100
AcDbSpline
210
0.0
220
0.0
230
1.0
 62
     253
 70
     0
 71
     3
 72
     8
 73
4
 40
0.0
 40
0.0
 40
0.0
 40
0.0
 40
1.0
 40
1.0
 40
1.0
 40
1.0
 10
114.075
 20
195.326
 30
0.0
 10
115.456
 20
195.326
 30
0.0
 10
116.576
 20
194.206
 30
0.0
 10
116.576
 20
192.825
 30
0.0
  0
SPLINE
  5
178
100
AcDbEntity
  8
0
100
AcDbSpline
210
0.0
220
0.0
230
1.0
 62
     253
 70
     0
 71
     3
 72
     8
 73
4
 40
0.0
 40
0.0
 40
0.0
 40
0.0
 40
1.0
 40
1.0
 40
1.0
 40
1.0
 10
116.576
 20
215.327
 30
0.0
 10
116.576
 20
213.945
 30
0.0
 10
115.456
 20
212.827
 30
0.0
 10
114.075
 20
212.827
 30
0.0
  0
SPLINE
  5
179
100
AcDbEntity
  8
0
100
AcDbSpline
210
0.0
220
0.0
230
1.0
 62
     253
 70
     0
 71
     3
 72
     8
 73
4
 40
0.0
 40
0.0
 40
0.0
 40
0.0
 40
1.0
 40
1.0
 40
1.0
 40
1.0
 10
114.075
 20
212.827
 30
0.0
 10
112.696
 20
212.827
 30
0.0
 10
111.576
 20
213.945
 30
0.0
 10
111.576
 20
215.327
 30
0.0
  0
SPLINE
  5
17a
100
AcDbEntity
  8
0
100
AcDbSpline
210
0.0
220
0.0
230
1.0
 62
     253
 70
     0
 71
     3
 72
     8
 73
4
 40
0.0
 40
0.0
 40
0.0
 40
0.0
 40
1.0
 40
1.0
 40
1.0
 40
1.0
 10
111.576
 20
215.327
 30
0.0
 10
111.576
 20
216.708
 30
0.0
 10
112.696
 20
217.825
 30
0.0
 10
114.075
 20
217.825
 30
0.0
  0
SPLINE
  5
17b
100
AcDbEntity
  8
0
100
AcDbSpline
210
0.0
220
0.0
230
1.0
 62
     253
 70
     0
 71
     3
 72
     8
 73
4
 40
0.0
 40
0.0
 40
0.0
 40
0.0
 40
1.0
 40
1.0
 40
1.0
 40
1.0
 10
114.075
 20
217.825
 30
0.0
 10
115.456
 20
217.825
 30
0.0
 10
116.576
 20
216.708
 30
0.0
 10
116.576
 20
215.327
 30
0.0
  0
SPLINE
  5
17c
100
AcDbEntity
  8
0
100
AcDbSpline
210
0.0
220
0.0
230
1.0
 62
     253
 70
     0
 71
     3
 72
     8
 73
4
 40
0.0
 40
0.0
 40
0.0
 40
0.0
 40
1.0
 40
1.0
 40
1.0
 40
1.0
 10
116.576
 20
102.825
 30
0.0
 10
116.576
 20
101.444
 30
0.0
 10
115.456
 20
100.325
 30
0.0
 10
114.075
 20
100.325
 30
0.0
  0
SPLINE
  5
17d
100
AcDbEntity
  8
0
100
AcDbSpline
210
0.0
220
0.0
230
1.0
 62
     253
 70
     0
 71
     3
 72
     8
 73
4
 40
0.0
 40
0.0
 40
0.0
 40
0.0
 40
1.0
 40
1.0
 40
1.0
 40
1.0
 10
114.075
 20
100.325
 30
0.0
 10
112.696
 20
100.325
 30
0.0
 10
111.576
 20
101.444
 30
0.0
 10
111.576
 20
102.825
 30
0.0
  0
SPLINE
  5
17e
100
AcDbEntity
  8
0
100
AcDbSpline
210
0.0
220
0.0
230
1.0
 62
     253
 70
     0
 71
     3
 72
     8
 73
4
 40
0.0
 40
0.0
 40
0.0
 40
0.0
 40
1.0
 40
1.0
 40
1.0
 40
1.0
 10
111.576
 20
102.825
 30
0.0
 10
111.576
 20
104.206
 30
0.0
 10
112.696
 20
105.325
 30
0.0
 10
114.075
 20
105.325
 30
0.0
  0
SPLINE
  5
17f
100
AcDbEntity
  8
0
100
AcDbSpline
210
0.0
220
0.0
230
1.0
 62
     253
 70
     0
 71
     3
 72
     8
 73
4
 40
0.0
 40
0.0
 40
0.0
 40
0.0
 40
1.0
 40
1.0
 40
1.0
 40
1.0
 10
114.075
 20
105.325
 30
0.0
 10
115.456
 20
105.325
 30
0.0
 10
116.576
 20
104.206
 30
0.0
 10
116.576
 20
102.825
 30
0.0
  0
SPLINE
  5
180
100
AcDbEntity
  8
0
100
AcDbSpline
210
0.0
220
0.0
230
1.0
 62
     253
 70
     0
 71
     3
 72
     8
 73
4
 40
0.0
 40
0.0
 40
0.0
 40
0.0
 40
1.0
 40
1.0
 40
1.0
 40
1.0
 10
116.576
 20
80.3271
 30
0.0
 10
116.576
 20
78.9464
 30
0.0
 10
115.456
 20
77.826
 30
0.0
 10
114.075
 20
77.826
 30
0.0
  0
SPLINE
  5
181
100
AcDbEntity
  8
0
100
AcDbSpline
210
0.0
220
0.0
230
1.0
 62
     253
 70
     0
 71
     3
 72
     8
 73
4
 40
0.0
 40
0.0
 40
0.0
 40
0.0
 40
1.0
 40
1.0
 40
1.0
 40
1.0
 10
114.075
 20
77.826
 30
0.0
 10
112.696
 20
77.826
 30
0.0
 10
111.576
 20
78.9464
 30
0.0
 10
111.576
 20
80.3271
 30
0.0
  0
SPLINE
  5
182
100
AcDbEntity
  8
0
100
AcDbSpline
210
0.0
220
0.0
230
1.0
 62
     253
 70
     0
 71
     3
 72
     8
 73
4
 40
0.0
 40
0.0
 40
0.0
 40
0.0
 40
1.0
 40
1.0
 40
1.0
 40
1.0
 10
111.576
 20
80.3271
 30
0.0
 10
111.576
 20
81.7079
 30
0.0
 10
112.696
 20
82.8269
 30
0.0
 10
114.075
 20
82.8269
 30
0.0
  0
SPLINE
  5
183
100
AcDbEntity
  8
0
100
AcDbSpline
210
0.0
220
0.0
230
1.0
 62
     253
 70
     0
 71
     3
 72
     8
 73
4
 40
0.0
 40
0.0
 40
0.0
 40
0.0
 40
1.0
 40
1.0
 40
1.0
 40
1.0
 10
114.075
 20
82.8269
 30
0.0
 10
115.456
 20
82.8269
 30
0.0
 10
116.576
 20
81.7079
 30
0.0
 10
116.576
 20
80.3271
 30
0.0
  0
LINE
  5
184
100
AcDbEntity
  8
0
100
AcDbLine
 62
     253
 10
96.0755
 20
159.075
 30
0.0
 11
99.0755
 21
159.075
 31
0.0
  0
LINE
  5
185
100
AcDbEntity
  8
0
100
AcDbLine
 62
     253
 10
96.0755
 20
154.076
 30
0.0
 11
99.0755
 21
154.076
 31
0.0
  0
LINE
  5
186
100
AcDbEntity
  8
0
100
AcDbLine
 62
     253
 10
96.0755
 20
96.5757
 30
0.0
 11
99.0755
 21
96.5757
 31
0.0
  0
LINE
  5
187
100
AcDbEntity
  8
0
100
AcDbLine
 62
     253
 10
96.0755
 20
91.5748
 30
0.0
 11
99.0755
 21
91.5748
 31
0.0
  0
LINE
  5
188
100
AcDbEntity
  8
0
100
AcDbLine
 62
     253
 10
96.0755
 20
96.5757
 30
0.0
 11
99.0755
 21
96.5757
 31
0.0
  0
LINE
  5
189
100
AcDbEntity
  8
0
100
AcDbLine
 62
     253
 10
96.0755
 20
91.5748
 30
0.0
 11
99.0755
 21
91.5748
 31
0.0
  0
LINE
  5
18a
100
AcDbEntity
  8
0
100
AcDbLine
 62
     253
 10
96.0755
 20
159.075
 30
0.0
 11
99.0755
 21
159.075
 31
0.0
  0
LINE
  5
18b
100
AcDbEntity
  8
0
100
AcDbLine
 62
     253
 10
96.0755
 20
154.076
 30
0.0
 11
99.0755
 21
154.076
 31
0.0
  0
LINE
  5
18c
100
AcDbEntity
  8
0
100
AcDbLine
 62
     253
 10
0.0757922
 20
27.5759
 30
0.0
 11
0.0757922
 21
30.5759
 31
0.0
  0
LINE
  5
18d
100
AcDbEntity
  8
0
100
AcDbLine
 62
     253
 10
26.326
 20
27.5759
 30
0.0
 11
2.57555
 21
27.5759
 31
0.0
  0
LINE
  5
18e
100
AcDbEntity
  8
0
100
AcDbLine
 62
     253
 10
0.0757922
 20
27.5759
 30
0.0
 11
2.57555
 21
27.5759
 31
0.0
  0
LINE
  5
18f
100
AcDbEntity
  8
0
100
AcDbLine
 62
     253
 10
12.576
 20
27.5759
 30
0.0
 11
7.57647
 21
27.5759
 31
0.0
  0
LINE
  5
190
100
AcDbEntity
  8
0
100
AcDbLine
 62
     253
 10
7.57647
 20
27.5759
 30
0.0
 11
12.576
 21
27.5759
 31
0.0
  0
LINE
  5
191
100
AcDbEntity
  8
0
100
AcDbLine
 62
     253
 10
12.576
 20
27.5759
 30
0.0
 11
7.57647
 21
27.5759
 31
0.0
  0
LINE
  5
192
100
AcDbEntity
  8
0
100
AcDbLine
 62
     253
 10
7.57647
 20
27.5759
 30
0.0
 11
12.576
 21
27.5759
 31
0.0
  0
LINE
  5
193
100
AcDbEntity
  8
0
100
AcDbLine
 62
     253
 10
2.57555
 20
27.5759
 30
0.0
 11
2.57555
 21
30.5759
 31
0.0
  0
LINE
  5
194
100
AcDbEntity
  8
0
100
AcDbLine
 62
     253
 10
0.0757922
 20
30.5759
 30
0.0
 11
2.57555
 21
30.5759
 31
0.0
  0
LINE
  5
195
100
AcDbEntity
  8
0
100
AcDbLine
 62
     253
 10
2.57555
 20
30.5759
 30
0.0
 11
55.076
 21
30.5759
 31
0.0
  0
LINE
  5
196
100
AcDbEntity
  8
0
100
AcDbLine
 62
     253
 10
55.076
 20
30.5759
 30
0.0
 11
57.5758
 21
30.5759
 31
0.0
  0
LINE
  5
197
100
AcDbEntity
  8
0
100
AcDbLine
 62
     253
 10
12.576
 20
30.5759
 30
0.0
 11
7.57647
 21
30.5759
 31
0.0
  0
LINE
  5
198
100
AcDbEntity
  8
0
100
AcDbLine
 62
     253
 10
7.57647
 20
30.5759
 30
0.0
 11
12.576
 21
30.5759
 31
0.0
  0
LINE
  5
199
100
AcDbEntity
  8
0
100
AcDbLine
 62
     253
 10
50.0765
 20
30.5759
 30
0.0
 11
45.0755
 21
30.5759
 31
0.0
  0
LINE
  5
19a
100
AcDbEntity
  8
0
100
AcDbLine
 62
     253
 10
45.0755
 20
30.5759
 30
0.0
 11
50.0765
 21
30.5759
 31
0.0
  0
LINE
  5
19b
100
AcDbEntity
  8
0
100
AcDbLine
 62
     253
 10
50.0765
 20
30.5759
 30
0.0
 11
45.0755
 21
30.5759
 31
0.0
  0
LINE
  5
19c
100
AcDbEntity
  8
0
100
AcDbLine
 62
     253
 10
45.0755
 20
30.5759
 30
0.0
 11
50.0765
 21
30.5759
 31
0.0
  0
LINE
  5
19d
100
AcDbEntity
  8
0
100
AcDbLine
 62
     253
 10
12.576
 20
30.5759
 30
0.0
 11
7.57647
 21
30.5759
 31
0.0
  0
LINE
  5
19e
100
AcDbEntity
  8
0
100
AcDbLine
 62
     253
 10
7.57647
 20
30.5759
 30
0.0
 11
12.576
 21
30.5759
 31
0.0
  0
LINE
  5
19f
100
AcDbEntity
  8
0
100
AcDbLine
 62
     253
 10
55.076
 20
30.5759
 30
0.0
 11
55.076
 21
27.5759
 31
0.0
  0
LINE
  5
1a0
100
AcDbEntity
  8
0
100
AcDbLine
 62
     253
 10
55.076
 20
27.5759
 30
0.0
 11
31.3256
 21
27.5759
 31
0.0
  0
LINE
  5
1a1
100
AcDbEntity
  8
0
100
AcDbLine
 62
     253
 10
31.3256
 20
27.5759
 30
0.0
 11
26.326
 21
27.5759
 31
0.0
  0
LINE
  5
1a2
100
AcDbEntity
  8
0
100
AcDbLine
 62
     253
 10
26.326
 20
27.5759
 30
0.0
 11
26.326
 21
25.0762
 31
0.0
  0
LINE
  5
1a3
100
AcDbEntity
  8
0
100
AcDbLine
 62
     253
 10
26.326
 20
25.0762
 30
0.0
 11
26.326
 21
2.57555
 31
0.0
  0
LINE
  5
1a4
100
AcDbEntity
  8
0
100
AcDbLine
 62
     253
 10
26.326
 20
2.57555
 30
0.0
 11
26.326
 21
0.0757922
 31
0.0
  0
LINE
  5
1a5
100
AcDbEntity
  8
0
100
AcDbLine
 62
     253
 10
26.326
 20
10.0748
 30
0.0
 11
26.326
 21
15.0771
 31
0.0
  0
LINE
  5
1a6
100
AcDbEntity
  8
0
100
AcDbLine
 62
     253
 10
26.326
 20
15.0771
 30
0.0
 11
26.326
 21
10.0748
 31
0.0
  0
LINE
  5
1a7
100
AcDbEntity
  8
0
100
AcDbLine
 62
     253
 10
26.326
 20
10.0748
 30
0.0
 11
26.326
 21
15.0771
 31
0.0
  0
LINE
  5
1a8
100
AcDbEntity
  8
0
100
AcDbLine
 62
     253
 10
26.326
 20
15.0771
 30
0.0
 11
26.326
 21
10.0748
 31
0.0
  0
LINE
  5
1a9
100
AcDbEntity
  8
0
100
AcDbLine
 62
     253
 10
26.326
 20
10.0748
 30
0.0
 11
26.326
 21
15.0771
 31
0.0
  0
LINE
  5
1aa
100
AcDbEntity
  8
0
100
AcDbLine
 62
     253
 10
26.326
 20
15.0771
 30
0.0
 11
26.326
 21
10.0748
 31
0.0
  0
LINE
  5
1ab
100
AcDbEntity
  8
0
100
AcDbLine
 62
     253
 10
26.326
 20
10.0748
 30
0.0
 11
26.326
 21
15.0771
 31
0.0
  0
LINE
  5
1ac
100
AcDbEntity
  8
0
100
AcDbLine
 62
     253
 10
26.326
 20
15.0771
 30
0.0
 11
26.326
 21
10.0748
 31
0.0
  0
LINE
  5
1ad
100
AcDbEntity
  8
0
100
AcDbLine
 62
     253
 10
26.326
 20
27.5759
 30
0.0
 11
31.3256
 21
27.5759
 31
0.0
  0
LINE
  5
1ae
100
AcDbEntity
  8
0
100
AcDbLine
 62
     253
 10
12.576
 20
27.5759
 30
0.0
 11
12.576
 21
30.5759
 31
0.0
  0
LINE
  5
1af
100
AcDbEntity
  8
0
100
AcDbLine
 62
     253
 10
12.576
 20
27.5759
 30
0.0
 11
12.576
 21
30.5759
 31
0.0
  0
LINE
  5
1b0
100
AcDbEntity
  8
0
100
AcDbLine
 62
     253
 10
57.5758
 20
30.5759
 30
0.0
 11
57.5758
 21
27.5759
 31
0.0
  0
LINE
  5
1b1
100
AcDbEntity
  8
0
100
AcDbLine
 62
     253
 10
55.076
 20
27.5759
 30
0.0
 11
57.5758
 21
27.5759
 31
0.0
  0
LINE
  5
1b2
100
AcDbEntity
  8
0
100
AcDbLine
 62
     253
 10
50.0765
 20
27.5759
 30
0.0
 11
45.0755
 21
27.5759
 31
0.0
  0
LINE
  5
1b3
100
AcDbEntity
  8
0
100
AcDbLine
 62
     253
 10
45.0755
 20
27.5759
 30
0.0
 11
50.0765
 21
27.5759
 31
0.0
  0
LINE
  5
1b4
100
AcDbEntity
  8
0
100
AcDbLine
 62
     253
 10
50.0765
 20
27.5759
 30
0.0
 11
50.0765
 21
30.5759
 31
0.0
  0
LINE
  5
1b5
100
AcDbEntity
  8
0
100
AcDbLine
 62
     253
 10
50.0765
 20
27.5759
 30
0.0
 11
45.0755
 21
27.5759
 31
0.0
  0
LINE
  5
1b6
100
AcDbEntity
  8
0
100
AcDbLine
 62
     253
 10
45.0755
 20
27.5759
 30
0.0
 11
50.0765
 21
27.5759
 31
0.0
  0
LINE
  5
1b7
100
AcDbEntity
  8
0
100
AcDbLine
 62
     253
 10
50.0765
 20
27.5759
 30
0.0
 11
50.0765
 21
30.5759
 31
0.0
  0
LINE
  5
1b8
100
AcDbEntity
  8
0
100
AcDbLine
 62
     253
 10
31.3256
 20
27.5759
 30
0.0
 11
26.326
 21
27.5759
 31
0.0
  0
LINE
  5
1b9
100
AcDbEntity
  8
0
100
AcDbLine
 62
     253
 10
31.3256
 20
27.5759
 30
0.0
 11
31.3256
 21
25.0762
 31
0.0
  0
LINE
  5
1ba
100
AcDbEntity
  8
0
100
AcDbLine
 62
     253
 10
31.3256
 20
25.0762
 30
0.0
 11
26.326
 21
25.0762
 31
0.0
  0
LINE
  5
1bb
100
AcDbEntity
  8
0
100
AcDbLine
 62
     253
 10
31.3256
 20
2.57555
 30
0.0
 11
31.3256
 21
25.0762
 31
0.0
  0
LINE
  5
1bc
100
AcDbEntity
  8
0
100
AcDbLine
 62
     253
 10
26.326
 20
2.57555
 30
0.0
 11
31.3256
 21
2.57555
 31
0.0
  0
LINE
  5
1bd
100
AcDbEntity
  8
0
100
AcDbLine
 62
     253
 10
26.326
 20
0.0757922
 30
0.0
 11
31.3256
 21
0.0757922
 31
0.0
  0
LINE
  5
1be
100
AcDbEntity
  8
0
100
AcDbLine
 62
     253
 10
31.3256
 20
2.57555
 30
0.0
 11
31.3256
 21
0.0757922
 31
0.0
  0
LINE
  5
1bf
100
AcDbEntity
  8
0
100
AcDbLine
 62
     253
 10
26.326
 20
10.0748
 30
0.0
 11
31.3256
 21
10.0748
 31
0.0
  0
LINE
  5
1c0
100
AcDbEntity
  8
0
100
AcDbLine
 62
     253
 10
31.3256
 20
10.0748
 30
0.0
 11
31.3256
 21
15.0771
 31
0.0
  0
LINE
  5
1c1
100
AcDbEntity
  8
0
100
AcDbLine
 62
     253
 10
31.3256
 20
15.0771
 30
0.0
 11
31.3256
 21
10.0748
 31
0.0
  0
LINE
  5
1c2
100
AcDbEntity
  8
0
100
AcDbLine
 62
     253
 10
26.326
 20
10.0748
 30
0.0
 11
31.3256
 21
10.0748
 31
0.0
  0
LINE
  5
1c3
100
AcDbEntity
  8
0
100
AcDbLine
 62
     253
 10
31.3256
 20
10.0748
 30
0.0
 11
31.3256
 21
15.0771
 31
0.0
  0
LINE
  5
1c4
100
AcDbEntity
  8
0
100
AcDbLine
 62
     253
 10
31.3256
 20
15.0771
 30
0.0
 11
31.3256
 21
10.0748
 31
0.0
  0
LINE
  5
1c5
100
AcDbEntity
  8
0
100
AcDbLine
 62
     253
 10
26.326
 20
10.0748
 30
0.0
 11
31.3256
 21
10.0748
 31
0.0
  0
LINE
  5
1c6
100
AcDbEntity
  8
0
100
AcDbLine
 62
     253
 10
31.3256
 20
10.0748
 30
0.0
 11
31.3256
 21
15.0771
 31
0.0
  0
LINE
  5
1c7
100
AcDbEntity
  8
0
100
AcDbLine
 62
     253
 10
31.3256
 20
15.0771
 30
0.0
 11
31.3256
 21
10.0748
 31
0.0
  0
LINE
  5
1c8
100
AcDbEntity
  8
0
100
AcDbLine
 62
     253
 10
26.326
 20
10.0748
 30
0.0
 11
31.3256
 21
10.0748
 31
0.0
  0
LINE
  5
1c9
100
AcDbEntity
  8
0
100
AcDbLine
 62
     253
 10
31.3256
 20
10.0748
 30
0.0
 11
31.3256
 21
15.0771
 31
0.0
  0
LINE
  5
1ca
100
AcDbEntity
  8
0
100
AcDbLine
 62
     253
 10
31.3256
 20
15.0771
 30
0.0
 11
31.3256
 21
10.0748
 31
0.0
  0
LINE
  5
1cb
100
AcDbEntity
  8
0
100
AcDbLine
 62
     253
 10
7.57647
 20
30.5759
 30
0.0
 11
7.57647
 21
27.5759
 31
0.0
  0
LINE
  5
1cc
100
AcDbEntity
  8
0
100
AcDbLine
 62
     253
 10
7.57647
 20
30.5759
 30
0.0
 11
7.57647
 21
27.5759
 31
0.0
  0
LINE
  5
1cd
100
AcDbEntity
  8
0
100
AcDbLine
 62
     253
 10
45.0755
 20
30.5759
 30
0.0
 11
45.0755
 21
27.5759
 31
0.0
  0
LINE
  5
1ce
100
AcDbEntity
  8
0
100
AcDbLine
 62
     253
 10
45.0755
 20
30.5759
 30
0.0
 11
45.0755
 21
27.5759
 31
0.0
  0
LINE
  5
1cf
100
AcDbEntity
  8
0
100
AcDbLine
 62
     253
 10
31.3256
 20
15.0771
 30
0.0
 11
26.326
 21
15.0771
 31
0.0
  0
LINE
  5
1d0
100
AcDbEntity
  8
0
100
AcDbLine
 62
     253
 10
31.3256
 20
15.0771
 30
0.0
 11
26.326
 21
15.0771
 31
0.0
  0
LINE
  5
1d1
100
AcDbEntity
  8
0
100
AcDbLine
 62
     253
 10
31.3256
 20
15.0771
 30
0.0
 11
26.326
 21
15.0771
 31
0.0
  0
LINE
  5
1d2
100
AcDbEntity
  8
0
100
AcDbLine
 62
     253
 10
31.3256
 20
15.0771
 30
0.0
 11
26.326
 21
15.0771
 31
0.0
  0
LINE
  5
1d3
100
AcDbEntity
  8
0
100
AcDbLine
 62
     253
 10
191.56
 20
77.906
 30
0.0
 11
190.328
 21
79.0402
 31
0.0
  0
LINE
  5
1d4
100
AcDbEntity
  8
0
100
AcDbLine
 62
     253
 10
188.049
 20
80.8895
 30
0.0
 11
190.328
 21
79.0402
 31
0.0
  0
LINE
  5
1d5
100
AcDbEntity
  8
0
100
AcDbLine
 62
     253
 10
190.328
 20
79.0402
 30
0.0
 11
238.204
 21
87.9782
 31
0.0
  0
LINE
  5
1d6
100
AcDbEntity
  8
0
100
AcDbLine
 62
     253
 10
238.204
 20
87.9782
 30
0.0
 11
240.484
 21
90.6791
 31
0.0
  0
LINE
  5
1d7
100
AcDbEntity
  8
0
100
AcDbLine
 62
     253
 10
240.484
 20
90.6791
 30
0.0
 11
240.484
 21
161.195
 31
0.0
  0
LINE
  5
1d8
100
AcDbEntity
  8
0
100
AcDbLine
 62
     253
 10
229.062
 20
161.337
 30
0.0
 11
213.217
 21
158.381
 31
0.0
  0
SPLINE
  5
1d9
100
AcDbEntity
  8
0
100
AcDbSpline
210
0.0
220
0.0
230
1.0
 62
     253
 70
     0
 71
     3
 72
     8
 73
4
 40
0.0
 40
0.0
 40
0.0
 40
0.0
 40
1.0
 40
1.0
 40
1.0
 40
1.0
 10
199.333
 20
90.5316
 30
0.0
 10
199.234
 20
90.8128
 30
0.0
 10
199.074
 20
91.0594
 30
0.0
 10
198.862
 20
91.2537
 30
0.0
  0
SPLINE
  5
1da
100
AcDbEntity
  8
0
100
AcDbSpline
210
0.0
220
0.0
230
1.0
 62
     253
 70
     0
 71
     3
 72
     8
 73
4
 40
0.0
 40
0.0
 40
0.0
 40
0.0
 40
1.0
 40
1.0
 40
1.0
 40
1.0
 10
198.862
 20
91.2537
 30
0.0
 10
198.02
 20
92.0309
 30
0.0
 10
196.578
 20
91.8379
 30
0.0
 10
195.643
 20
90.8237
 30
0.0
  0
SPLINE
  5
1db
100
AcDbEntity
  8
0
100
AcDbSpline
210
0.0
220
0.0
230
1.0
 62
     253
 70
     0
 71
     3
 72
     8
 73
4
 40
0.0
 40
0.0
 40
0.0
 40
0.0
 40
1.0
 40
1.0
 40
1.0
 40
1.0
 10
195.643
 20
90.8237
 30
0.0
 10
194.707
 20
89.8081
 30
0.0
 10
194.63
 20
88.3557
 30
0.0
 10
195.473
 20
87.5785
 30
0.0
  0
SPLINE
  5
1dc
100
AcDbEntity
  8
0
100
AcDbSpline
210
0.0
220
0.0
230
1.0
 62
     253
 70
     0
 71
     3
 72
     8
 73
4
 40
0.0
 40
0.0
 40
0.0
 40
0.0
 40
1.0
 40
1.0
 40
1.0
 40
1.0
 10
195.473
 20
87.5785
 30
0.0
 10
195.685
 20
87.3841
 30
0.0
 10
195.943
 20
87.2423
 30
0.0
 10
196.233
 20
87.1664
 30
0.0
  0
SPLINE
  5
1dd
100
AcDbEntity
  8
0
100
AcDbSpline
210
0.0
220
0.0
230
1.0
 62
     253
 70
     0
 71
     3
 72
     8
 73
4
 40
0.0
 40
0.0
 40
0.0
 40
0.0
 40
1.0
 40
1.0
 40
1.0
 40
1.0
 10
233.531
 20
96.9148
 30
0.0
 10
233.431
 20
97.1959
 30
0.0
 10
233.271
 20
97.4425
 30
0.0
 10
233.059
 20
97.6383
 30
0.0
  0
SPLINE
  5
1de
100
AcDbEntity
  8
0
100
AcDbSpline
210
0.0
220
0.0
230
1.0
 62
     253
 70
     0
 71
     3
 72
     8
 73
4
 40
0.0
 40
0.0
 40
0.0
 40
0.0
 40
1.0
 40
1.0
 40
1.0
 40
1.0
 10
233.059
 20
97.6383
 30
0.0
 10
232.217
 20
98.4155
 30
0.0
 10
230.776
 20
98.2211
 30
0.0
 10
229.839
 20
97.2069
 30
0.0
  0
SPLINE
  5
1df
100
AcDbEntity
  8
0
100
AcDbSpline
210
0.0
220
0.0
230
1.0
 62
     253
 70
     0
 71
     3
 72
     8
 73
4
 40
0.0
 40
0.0
 40
0.0
 40
0.0
 40
1.0
 40
1.0
 40
1.0
 40
1.0
 10
229.839
 20
97.2069
 30
0.0
 10
228.903
 20
96.1912
 30
0.0
 10
228.828
 20
94.7388
 30
0.0
 10
229.671
 20
93.9617
 30
0.0
  0
SPLINE
  5
1e0
100
AcDbEntity
  8
0
100
AcDbSpline
210
0.0
220
0.0
230
1.0
 62
     253
 70
     0
 71
     3
 72
     8
 73
4
 40
0.0
 40
0.0
 40
0.0
 40
0.0
 40
1.0
 40
1.0
 40
1.0
 40
1.0
 10
229.671
 20
93.9617
 30
0.0
 10
229.882
 20
93.7673
 30
0.0
 10
230.141
 20
93.6279
 30
0.0
 10
230.43
 20
93.551
 30
0.0
  0
SPLINE
  5
1e1
100
AcDbEntity
  8
0
100
AcDbSpline
210
0.0
220
0.0
230
1.0
 62
     253
 70
     0
 71
     3
 72
     8
 73
4
 40
0.0
 40
0.0
 40
0.0
 40
0.0
 40
1.0
 40
1.0
 40
1.0
 40
1.0
 10
233.531
 20
153.782
 30
0.0
 10
233.431
 20
154.065
 30
0.0
 10
233.271
 20
154.311
 30
0.0
 10
233.059
 20
154.506
 30
0.0
  0
SPLINE
  5
1e2
100
AcDbEntity
  8
0
100
AcDbSpline
210
0.0
220
0.0
230
1.0
 62
     253
 70
     0
 71
     3
 72
     8
 73
4
 40
0.0
 40
0.0
 40
0.0
 40
0.0
 40
1.0
 40
1.0
 40
1.0
 40
1.0
 10
233.059
 20
154.506
 30
0.0
 10
232.217
 20
155.283
 30
0.0
 10
230.776
 20
155.09
 30
0.0
 10
229.839
 20
154.076
 30
0.0
  0
SPLINE
  5
1e3
100
AcDbEntity
  8
0
100
AcDbSpline
210
0.0
220
0.0
230
1.0
 62
     253
 70
     0
 71
     3
 72
     8
 73
4
 40
0.0
 40
0.0
 40
0.0
 40
0.0
 40
1.0
 40
1.0
 40
1.0
 40
1.0
 10
229.839
 20
154.076
 30
0.0
 10
228.903
 20
153.06
 30
0.0
 10
228.828
 20
151.606
 30
0.0
 10
229.671
 20
150.83
 30
0.0
  0
SPLINE
  5
1e4
100
AcDbEntity
  8
0
100
AcDbSpline
210
0.0
220
0.0
230
1.0
 62
     253
 70
     0
 71
     3
 72
     8
 73
4
 40
0.0
 40
0.0
 40
0.0
 40
0.0
 40
1.0
 40
1.0
 40
1.0
 40
1.0
 10
229.671
 20
150.83
 30
0.0
 10
229.882
 20
150.636
 30
0.0
 10
230.141
 20
150.494
 30
0.0
 10
230.43
 20
150.418
 30
0.0
  0
SPLINE
  5
1e5
100
AcDbEntity
  8
0
100
AcDbSpline
210
0.0
220
0.0
230
1.0
 62
     253
 70
     0
 71
     3
 72
     8
 73
4
 40
0.0
 40
0.0
 40
0.0
 40
0.0
 40
1.0
 40
1.0
 40
1.0
 40
1.0
 10
199.333
 20
147.399
 30
0.0
 10
199.234
 20
147.682
 30
0.0
 10
199.074
 20
147.927
 30
0.0
 10
198.862
 20
148.123
 30
0.0
  0
SPLINE
  5
1e6
100
AcDbEntity
  8
0
100
AcDbSpline
210
0.0
220
0.0
230
1.0
 62
     253
 70
     0
 71
     3
 72
     8
 73
4
 40
0.0
 40
0.0
 40
0.0
 40
0.0
 40
1.0
 40
1.0
 40
1.0
 40
1.0
 10
198.862
 20
148.123
 30
0.0
 10
198.02
 20
148.9
 30
0.0
 10
196.578
 20
148.705
 30
0.0
 10
195.643
 20
147.691
 30
0.0
  0
SPLINE
  5
1e7
100
AcDbEntity
  8
0
100
AcDbSpline
210
0.0
220
0.0
230
1.0
 62
     253
 70
     0
 71
     3
 72
     8
 73
4
 40
0.0
 40
0.0
 40
0.0
 40
0.0
 40
1.0
 40
1.0
 40
1.0
 40
1.0
 10
195.643
 20
147.691
 30
0.0
 10
194.707
 20
146.675
 30
0.0
 10
194.63
 20
145.223
 30
0.0
 10
195.473
 20
144.447
 30
0.0
  0
SPLINE
  5
1e8
100
AcDbEntity
  8
0
100
AcDbSpline
210
0.0
220
0.0
230
1.0
 62
     253
 70
     0
 71
     3
 72
     8
 73
4
 40
0.0
 40
0.0
 40
0.0
 40
0.0
 40
1.0
 40
1.0
 40
1.0
 40
1.0
 10
195.473
 20
144.447
 30
0.0
 10
195.685
 20
144.252
 30
0.0
 10
195.943
 20
144.11
 30
0.0
 10
196.233
 20
144.035
 30
0.0
  0
LINE
  5
1e9
100
AcDbEntity
  8
0
100
AcDbLine
 62
     253
 10
238.204
 20
87.9782
 30
0.0
 11
239.436
 21
86.844
 31
0.0
  0
LINE
  5
1ea
100
AcDbEntity
  8
0
100
AcDbLine
 62
     253
 10
229.062
 20
84.9066
 30
0.0
 11
217.777
 21
82.7994
 31
0.0
  0
LINE
  5
1eb
100
AcDbEntity
  8
0
100
AcDbLine
 62
     253
 10
217.777
 20
82.7994
 30
0.0
 11
213.217
 21
81.9492
 31
0.0
  0
LINE
  5
1ec
100
AcDbEntity
  8
0
100
AcDbLine
 62
     253
 10
217.777
 20
157.867
 30
0.0
 11
229.062
 21
159.972
 31
0.0
  0
LINE
  5
1ed
100
AcDbEntity
  8
0
100
AcDbLine
 62
     253
 10
213.217
 20
157.015
 30
0.0
 11
217.777
 21
157.867
 31
0.0
  0
LINE
  5
1ee
100
AcDbEntity
  8
0
100
AcDbLine
 62
     253
 10
240.484
 20
90.6791
 30
0.0
 11
241.715
 21
89.5449
 31
0.0
  0
LINE
  5
1ef
100
AcDbEntity
  8
0
100
AcDbLine
 62
     253
 10
217.777
 20
82.7994
 30
0.0
 11
217.777
 21
157.867
 31
0.0
  0
LINE
  5
1f0
100
AcDbEntity
  8
0
100
AcDbLine
 62
     253
 10
217.777
 20
71.4266
 30
0.0
 11
213.217
 21
70.575
 31
0.0
  0
LINE
  5
1f1
100
AcDbEntity
  8
0
100
AcDbLine
 62
     253
 10
217.777
 20
71.4266
 30
0.0
 11
217.777
 21
82.7994
 31
0.0
  0
LINE
  5
1f2
100
AcDbEntity
  8
0
100
AcDbLine
 62
     253
 10
217.777
 20
71.4266
 30
0.0
 11
218.803
 21
68.2061
 31
0.0
  0
LINE
  5
1f3
100
AcDbEntity
  8
0
100
AcDbLine
 62
     253
 10
218.803
 20
68.2061
 30
0.0
 11
214.244
 21
67.3544
 31
0.0
  0
LINE
  5
1f4
100
AcDbEntity
  8
0
100
AcDbLine
 62
     253
 10
228.036
 20
59.6939
 30
0.0
 11
218.803
 21
68.2061
 31
0.0
  0
LINE
  5
1f5
100
AcDbEntity
  8
0
100
AcDbLine
 62
     253
 10
217.777
 20
157.867
 30
0.0
 11
217.777
 21
210.184
 31
0.0
  0
LINE
  5
1f6
100
AcDbEntity
  8
0
100
AcDbLine
 62
     253
 10
217.777
 20
210.184
 30
0.0
 11
213.217
 21
209.332
 31
0.0
  0
LINE
  5
1f7
100
AcDbEntity
  8
0
100
AcDbLine
 62
     253
 10
217.777
 20
210.184
 30
0.0
 11
218.803
 21
211.514
 31
0.0
  0
SPLINE
  5
1f8
100
AcDbEntity
  8
0
100
AcDbSpline
210
0.0
220
0.0
230
1.0
 62
     253
 70
     0
 71
     3
 72
     8
 73
4
 40
0.0
 40
0.0
 40
0.0
 40
0.0
 40
1.0
 40
1.0
 40
1.0
 40
1.0
 10
224.958
 20
175.129
 30
0.0
 10
224.958
 20
175.919
 30
0.0
 10
224.774
 20
176.819
 30
0.0
 10
224.471
 20
177.512
 30
0.0
  0
SPLINE
  5
1f9
100
AcDbEntity
  8
0
100
AcDbSpline
210
0.0
220
0.0
230
1.0
 62
     253
 70
     0
 71
     3
 72
     8
 73
4
 40
0.0
 40
0.0
 40
0.0
 40
0.0
 40
1.0
 40
1.0
 40
1.0
 40
1.0
 10
224.471
 20
177.512
 30
0.0
 10
224.169
 20
178.206
 30
0.0
 10
223.792
 20
178.592
 30
0.0
 10
223.474
 20
178.533
 30
0.0
  0
SPLINE
  5
1fa
100
AcDbEntity
  8
0
100
AcDbSpline
210
0.0
220
0.0
230
1.0
 62
     253
 70
     0
 71
     3
 72
     8
 73
4
 40
0.0
 40
0.0
 40
0.0
 40
0.0
 40
1.0
 40
1.0
 40
1.0
 40
1.0
 10
223.474
 20
178.533
 30
0.0
 10
222.966
 20
178.438
 30
0.0
 10
222.761
 20
177.26
 30
0.0
 10
223.015
 20
175.904
 30
0.0
  0
SPLINE
  5
1fb
100
AcDbEntity
  8
0
100
AcDbSpline
210
0.0
220
0.0
230
1.0
 62
     253
 70
     0
 71
     3
 72
     8
 73
4
 40
0.0
 40
0.0
 40
0.0
 40
0.0
 40
1.0
 40
1.0
 40
1.0
 40
1.0
 10
223.015
 20
175.904
 30
0.0
 10
223.268
 20
174.548
 30
0.0
 10
223.884
 20
173.523
 30
0.0
 10
224.391
 20
173.619
 30
0.0
  0
SPLINE
  5
1fc
100
AcDbEntity
  8
0
100
AcDbSpline
210
0.0
220
0.0
230
1.0
 62
     253
 70
     0
 71
     3
 72
     8
 73
4
 40
0.0
 40
0.0
 40
0.0
 40
0.0
 40
1.0
 40
1.0
 40
1.0
 40
1.0
 10
224.391
 20
173.619
 30
0.0
 10
224.739
 20
173.684
 30
0.0
 10
224.958
 20
174.268
 30
0.0
 10
224.958
 20
175.129
 30
0.0
  0
SPLINE
  5
1fd
100
AcDbEntity
  8
0
100
AcDbSpline
210
0.0
220
0.0
230
1.0
 62
     253
 70
     0
 71
     3
 72
     8
 73
4
 40
0.0
 40
0.0
 40
0.0
 40
0.0
 40
1.0
 40
1.0
 40
1.0
 40
1.0
 10
224.958
 20
195.602
 30
0.0
 10
224.958
 20
196.391
 30
0.0
 10
224.774
 20
197.291
 30
0.0
 10
224.471
 20
197.984
 30
0.0
  0
SPLINE
  5
1fe
100
AcDbEntity
  8
0
100
AcDbSpline
210
0.0
220
0.0
230
1.0
 62
     253
 70
     0
 71
     3
 72
     8
 73
4
 40
0.0
 40
0.0
 40
0.0
 40
0.0
 40
1.0
 40
1.0
 40
1.0
 40
1.0
 10
224.471
 20
197.984
 30
0.0
 10
224.169
 20
198.677
 30
0.0
 10
223.792
 20
199.064
 30
0.0
 10
223.474
 20
199.005
 30
0.0
  0
SPLINE
  5
1ff
100
AcDbEntity
  8
0
100
AcDbSpline
210
0.0
220
0.0
230
1.0
 62
     253
 70
     0
 71
     3
 72
     8
 73
4
 40
0.0
 40
0.0
 40
0.0
 40
0.0
 40
1.0
 40
1.0
 40
1.0
 40
1.0
 10
223.474
 20
199.005
 30
0.0
 10
222.966
 20
198.91
 30
0.0
 10
222.761
 20
197.733
 30
0.0
 10
223.015
 20
196.377
 30
0.0
  0
SPLINE
  5
200
100
AcDbEntity
  8
0
100
AcDbSpline
210
0.0
220
0.0
230
1.0
 62
     253
 70
     0
 71
     3
 72
     8
 73
4
 40
0.0
 40
0.0
 40
0.0
 40
0.0
 40
1.0
 40
1.0
 40
1.0
 40
1.0
 10
223.015
 20
196.377
 30
0.0
 10
223.268
 20
195.019
 30
0.0
 10
223.884
 20
193.996
 30
0.0
 10
224.391
 20
194.09
 30
0.0
  0
SPLINE
  5
201
100
AcDbEntity
  8
0
100
AcDbSpline
210
0.0
220
0.0
230
1.0
 62
     253
 70
     0
 71
     3
 72
     8
 73
4
 40
0.0
 40
0.0
 40
0.0
 40
0.0
 40
1.0
 40
1.0
 40
1.0
 40
1.0
 10
224.391
 20
194.09
 30
0.0
 10
224.739
 20
194.156
 30
0.0
 10
224.958
 20
194.739
 30
0.0
 10
224.958
 20
195.602
 30
0.0
  0
SPLINE
  5
202
100
AcDbEntity
  8
0
100
AcDbSpline
210
0.0
220
0.0
230
1.0
 62
     253
 70
     0
 71
     3
 72
     8
 73
4
 40
0.0
 40
0.0
 40
0.0
 40
0.0
 40
1.0
 40
1.0
 40
1.0
 40
1.0
 10
224.958
 20
93.2395
 30
0.0
 10
224.958
 20
94.029
 30
0.0
 10
224.774
 20
94.9304
 30
0.0
 10
224.471
 20
95.6236
 30
0.0
  0
SPLINE
  5
203
100
AcDbEntity
  8
0
100
AcDbSpline
210
0.0
220
0.0
230
1.0
 62
     253
 70
     0
 71
     3
 72
     8
 73
4
 40
0.0
 40
0.0
 40
0.0
 40
0.0
 40
1.0
 40
1.0
 40
1.0
 40
1.0
 10
224.471
 20
95.6236
 30
0.0
 10
224.169
 20
96.3179
 30
0.0
 10
223.792
 20
96.7038
 30
0.0
 10
223.474
 20
96.6445
 30
0.0
  0
SPLINE
  5
204
100
AcDbEntity
  8
0
100
AcDbSpline
210
0.0
220
0.0
230
1.0
 62
     253
 70
     0
 71
     3
 72
     8
 73
4
 40
0.0
 40
0.0
 40
0.0
 40
0.0
 40
1.0
 40
1.0
 40
1.0
 40
1.0
 10
223.474
 20
96.6445
 30
0.0
 10
222.966
 20
96.5482
 30
0.0
 10
222.761
 20
95.3714
 30
0.0
 10
223.015
 20
94.0153
 30
0.0
  0
SPLINE
  5
205
100
AcDbEntity
  8
0
100
AcDbSpline
210
0.0
220
0.0
230
1.0
 62
     253
 70
     0
 71
     3
 72
     8
 73
4
 40
0.0
 40
0.0
 40
0.0
 40
0.0
 40
1.0
 40
1.0
 40
1.0
 40
1.0
 10
223.015
 20
94.0153
 30
0.0
 10
223.268
 20
92.6578
 30
0.0
 10
223.884
 20
91.634
 30
0.0
 10
224.391
 20
91.7279
 30
0.0
  0
SPLINE
  5
206
100
AcDbEntity
  8
0
100
AcDbSpline
210
0.0
220
0.0
230
1.0
 62
     253
 70
     0
 71
     3
 72
     8
 73
4
 40
0.0
 40
0.0
 40
0.0
 40
0.0
 40
1.0
 40
1.0
 40
1.0
 40
1.0
 10
224.391
 20
91.7279
 30
0.0
 10
224.739
 20
91.7938
 30
0.0
 10
224.958
 20
92.3794
 30
0.0
 10
224.958
 20
93.2395
 30
0.0
  0
SPLINE
  5
207
100
AcDbEntity
  8
0
100
AcDbSpline
210
0.0
220
0.0
230
1.0
 62
     253
 70
     0
 71
     3
 72
     8
 73
4
 40
0.0
 40
0.0
 40
0.0
 40
0.0
 40
1.0
 40
1.0
 40
1.0
 40
1.0
 10
224.958
 20
72.7675
 30
0.0
 10
224.958
 20
73.5556
 30
0.0
 10
224.774
 20
74.4569
 30
0.0
 10
224.471
 20
75.1526
 30
0.0
  0
SPLINE
  5
208
100
AcDbEntity
  8
0
100
AcDbSpline
210
0.0
220
0.0
230
1.0
 62
     253
 70
     0
 71
     3
 72
     8
 73
4
 40
0.0
 40
0.0
 40
0.0
 40
0.0
 40
1.0
 40
1.0
 40
1.0
 40
1.0
 10
224.471
 20
75.1526
 30
0.0
 10
224.169
 20
75.8458
 30
0.0
 10
223.792
 20
76.2303
 30
0.0
 10
223.474
 20
76.1711
 30
0.0
  0
SPLINE
  5
209
100
AcDbEntity
  8
0
100
AcDbSpline
210
0.0
220
0.0
230
1.0
 62
     253
 70
     0
 71
     3
 72
     8
 73
4
 40
0.0
 40
0.0
 40
0.0
 40
0.0
 40
1.0
 40
1.0
 40
1.0
 40
1.0
 10
223.474
 20
76.1711
 30
0.0
 10
222.966
 20
76.0772
 30
0.0
 10
222.761
 20
74.9004
 30
0.0
 10
223.015
 20
73.5418
 30
0.0
  0
SPLINE
  5
20a
100
AcDbEntity
  8
0
100
AcDbSpline
210
0.0
220
0.0
230
1.0
 62
     253
 70
     0
 71
     3
 72
     8
 73
4
 40
0.0
 40
0.0
 40
0.0
 40
0.0
 40
1.0
 40
1.0
 40
1.0
 40
1.0
 10
223.015
 20
73.5418
 30
0.0
 10
223.268
 20
72.1857
 30
0.0
 10
223.884
 20
71.1606
 30
0.0
 10
224.391
 20
71.2569
 30
0.0
  0
SPLINE
  5
20b
100
AcDbEntity
  8
0
100
AcDbSpline
210
0.0
220
0.0
230
1.0
 62
     253
 70
     0
 71
     3
 72
     8
 73
4
 40
0.0
 40
0.0
 40
0.0
 40
0.0
 40
1.0
 40
1.0
 40
1.0
 40
1.0
 10
224.391
 20
71.2569
 30
0.0
 10
224.739
 20
71.3204
 30
0.0
 10
224.958
 20
71.9074
 30
0.0
 10
224.958
 20
72.7675
 30
0.0
  0
LINE
  5
20c
100
AcDbEntity
  8
0
100
AcDbLine
 62
     253
 10
198.862
 20
148.123
 30
0.0
 11
200.094
 21
146.988
 31
0.0
  0
LINE
  5
20d
100
AcDbEntity
  8
0
100
AcDbLine
 62
     253
 10
195.473
 20
144.447
 30
0.0
 11
196.704
 21
143.312
 31
0.0
  0
LINE
  5
20e
100
AcDbEntity
  8
0
100
AcDbLine
 62
     253
 10
198.862
 20
91.2537
 30
0.0
 11
200.094
 21
90.1196
 31
0.0
  0
LINE
  5
20f
100
AcDbEntity
  8
0
100
AcDbLine
 62
     253
 10
195.473
 20
87.5785
 30
0.0
 11
196.704
 21
86.4443
 31
0.0
  0
LINE
  5
210
100
AcDbEntity
  8
0
100
AcDbLine
 62
     253
 10
233.059
 20
97.6383
 30
0.0
 11
234.29
 21
96.5041
 31
0.0
  0
LINE
  5
211
100
AcDbEntity
  8
0
100
AcDbLine
 62
     253
 10
229.671
 20
93.9617
 30
0.0
 11
230.901
 21
92.8275
 31
0.0
  0
LINE
  5
212
100
AcDbEntity
  8
0
100
AcDbLine
 62
     253
 10
233.059
 20
154.506
 30
0.0
 11
234.29
 21
153.372
 31
0.0
  0
LINE
  5
213
100
AcDbEntity
  8
0
100
AcDbLine
 62
     253
 10
229.671
 20
150.83
 30
0.0
 11
230.901
 21
149.695
 31
0.0
  0
LINE
  5
214
100
AcDbEntity
  8
0
100
AcDbLine
 62
     253
 10
224.391
 20
173.619
 30
0.0
 11
219.832
 21
172.767
 31
0.0
  0
LINE
  5
215
100
AcDbEntity
  8
0
100
AcDbLine
 62
     253
 10
223.474
 20
178.533
 30
0.0
 11
218.914
 21
177.683
 31
0.0
  0
LINE
  5
216
100
AcDbEntity
  8
0
100
AcDbLine
 62
     253
 10
224.391
 20
194.09
 30
0.0
 11
219.832
 21
193.238
 31
0.0
  0
LINE
  5
217
100
AcDbEntity
  8
0
100
AcDbLine
 62
     253
 10
223.474
 20
199.005
 30
0.0
 11
218.914
 21
198.155
 31
0.0
  0
LINE
  5
218
100
AcDbEntity
  8
0
100
AcDbLine
 62
     253
 10
224.391
 20
91.7279
 30
0.0
 11
219.832
 21
90.8763
 31
0.0
  0
LINE
  5
219
100
AcDbEntity
  8
0
100
AcDbLine
 62
     253
 10
223.474
 20
96.6445
 30
0.0
 11
218.914
 21
95.7929
 31
0.0
  0
LINE
  5
21a
100
AcDbEntity
  8
0
100
AcDbLine
 62
     253
 10
224.391
 20
71.2569
 30
0.0
 11
219.832
 21
70.4053
 31
0.0
  0
LINE
  5
21b
100
AcDbEntity
  8
0
100
AcDbLine
 62
     253
 10
223.474
 20
76.1711
 30
0.0
 11
218.914
 21
75.3195
 31
0.0
  0
ENDSEC
  0
SECTION
  2
OBJECTS
  0
DICTIONARY
  5
C
330
0
100
AcDbDictionary
  3
ACAD_GROUP
350
D
  3
ACAD_LAYOUT
350
1A
  3
ACAD_MLINESTYLE
350
17
  3
ACAD_PLOTSETTINGS
350
19
  3
ACAD_PLOTSTYLENAME
350
E
  3
ACDBHEADERROUNDTRIPXREC
350
2F
  0
DICTIONARY
  5
52
330
1F
100
AcDbDictionary
280
     1
  3
ACAD_LAYOUTSELFREF
360
53
  0
DICTIONARY
  5
50
330
1B
100
AcDbDictionary
280
     1
  3
ACAD_LAYOUTSELFREF
360
51
  0
DICTIONARY
  5
D
102
{ACAD_REACTORS
330
C
102
}
330
C
100
AcDbDictionary
  0
DICTIONARY
  5
1A
102
{ACAD_REACTORS
330
C
102
}
330
C
100
AcDbDictionary
  0
DICTIONARY
  5
17
102
{ACAD_REACTORS
330
C
102
}
330
C
100
AcDbDictionary
  3
STANDARD
350
18
  0
DICTIONARY
  5
19
102
{ACAD_REACTORS
330
C
102
}
330
C
100
AcDbDictionary
  0
ACDBDICTIONARYWDFLT
  5
E
102
{ACAD_REACTORS
330
C
102
}
330
C
100
AcDbDictionary
281
     1
  3
Normal
350
F
100
AcDbDictionaryWithDefault
340
F
  0
DICTIONARY
  5
2F
102
{ACAD_REACTORS
330
C
102
}
330
C
100
AcDbDictionary
  3
CEPSNTYPE
350
39
  3
DIMSTYLEDATA
350
3D
  3
FINGERPRINTGUID
350
3A
  3
HYPERLINKBASE
350
32
  3
INSUNITS
350
38
  3
LAYOUTDICT
350
34
  3
LWETCUNION
350
37
  3
PLOTSETDICT
350
35
  3
PLOTSTYLNAMDICT
350
36
  3
PSVPSCALE
350
3C
  3
PUCSBASE
350
40
  3
PUCSORGBACK
350
46
  3
PUCSORGBOTTOM
350
42
  3
PUCSORGFRONT
350
45
  3
PUCSORGLEFT
350
43
  3
PUCSORGRIGHT
350
44
  3
PUCSORGTOP
350
41
  3
PUCSORTHOREF
350
3E
  3
PUCSORTHOVIEW
350
3F
  3
STYLESHEET
350
33
  3
TSTACKALIGN
350
30
  3
TSTACKSIZE
350
31
  3
UCSBASE
350
49
  3
UCSORGBACK
350
4F
  3
UCSORGBOTTOM
350
4B
  3
UCSORGFRONT
350
4E
  3
UCSORGLEFT
350
4C
  3
UCSORGRIGHT
350
4D
  3
UCSORGTOP
350
4A
  3
UCSORTHOREF
350
47
  3
UCSORTHOVIEW
350
48
  3
VERSIONGUID
350
3B
  0
XRECORD
  5
53
102
{ACAD_REACTORS
330
52
102
}
330
52
100
AcDbXrecord
340
1F
  0
XRECORD
  5
51
102
{ACAD_REACTORS
330
50
102
}
330
50
100
AcDbXrecord
340
1B
  0
MLINESTYLE
  5
18
102
{ACAD_REACTORS
330
17
102
}
330
17
100
AcDbMlineStyle
  2
STANDARD
 70
     0
  3

 62
   256
 51
90.0
 52
90.0
 71
     2
 49
0.5
 62
   256
  6
BYLAYER
 49
-0.5
 62
   256
  6
BYLAYER
  0
ACDBPLACEHOLDER
  5
F
102
{ACAD_REACTORS
330
E
102
}
330
E
100
AcDbPlaceHolder
280
     0
  0
XRECORD
  5
39
102
{ACAD_REACTORS
330
2F
102
}
330
2F
100
AcDbXrecord
 90
        0
  0
XRECORD
  5
3D
102
{ACAD_REACTORS
330
2F
102
}
330
2F
100
AcDbXrecord
1000
DSTYLE
1002
{
1070
   278
 70
    44
1002
}
  0
XRECORD
  5
3A
102
{ACAD_REACTORS
330
2F
102
}
330
2F
100
AcDbXrecord
  1
{705446A6-11D0-4548-8F8C-A97DCA50327D}
  0
XRECORD
  5
32
102
{ACAD_REACTORS
330
2F
102
}
330
2F
100
AcDbXrecord
  1

  0
XRECORD
  5
38
102
{ACAD_REACTORS
330
2F
102
}
330
2F
100
AcDbXrecord
 90
        4
  0
XRECORD
  5
34
102
{ACAD_REACTORS
330
2F
102
}
330
2F
100
AcDbXrecord
340
1A
  0
XRECORD
  5
37
102
{ACAD_REACTORS
330
2F
102
}
330
2F
100
AcDbXrecord
 90
    10781
  0
XRECORD
  5
35
102
{ACAD_REACTORS
330
2F
102
}
330
2F
100
AcDbXrecord
340
19
  0
XRECORD
  5
36
102
{ACAD_REACTORS
330
2F
102
}
330
2F
100
AcDbXrecord
340
E
  0
XRECORD
  5
3C
102
{ACAD_REACTORS
330
2F
102
}
330
2F
100
AcDbXrecord
 40
0.0
  0
XRECORD
  5
40
102
{ACAD_REACTORS
330
2F
102
}
330
2F
100
AcDbXrecord
340
0
  0
XRECORD
  5
46
102
{ACAD_REACTORS
330
2F
102
}
330
2F
100
AcDbXrecord
 10
0.0
 20
0.0
 30
0.0
  0
XRECORD
  5
42
102
{ACAD_REACTORS
330
2F
102
}
330
2F
100
AcDbXrecord
 10
0.0
 20
0.0
 30
0.0
  0
XRECORD
  5
45
102
{ACAD_REACTORS
330
2F
102
}
330
2F
100
AcDbXrecord
 10
0.0
 20
0.0
 30
0.0
  0
XRECORD
  5
43
102
{ACAD_REACTORS
330
2F
102
}
330
2F
100
AcDbXrecord
 10
0.0
 20
0.0
 30
0.0
  0
XRECORD
  5
44
102
{ACAD_REACTORS
330
2F
102
}
330
2F
100
AcDbXrecord
 10
0.0
 20
0.0
 30
0.0
  0
XRECORD
  5
41
102
{ACAD_REACTORS
330
2F
102
}
330
2F
100
AcDbXrecord
 10
0.0
 20
0.0
 30
0.0
  0
XRECORD
  5
3E
102
{ACAD_REACTORS
330
2F
102
}
330
2F
100
AcDbXrecord
340
0
  0
XRECORD
  5
3F
102
{ACAD_REACTORS
330
2F
102
}
330
2F
100
AcDbXrecord
 70
     0
  0
XRECORD
  5
33
102
{ACAD_REACTORS
330
2F
102
}
330
2F
100
AcDbXrecord
  1

  0
XRECORD
  5
30
102
{ACAD_REACTORS
330
2F
102
}
330
2F
100
AcDbXrecord
 90
        1
  0
XRECORD
  5
31
102
{ACAD_REACTORS
330
2F
102
}
330
2F
100
AcDbXrecord
 90
       70
  0
XRECORD
  5
49
102
{ACAD_REACTORS
330
2F
102
}
330
2F
100
AcDbXrecord
340
0
  0
XRECORD
  5
4F
102
{ACAD_REACTORS
330
2F
102
}
330
2F
100
AcDbXrecord
 10
0.0
 20
0.0
 30
0.0
  0
XRECORD
  5
4B
102
{ACAD_REACTORS
330
2F
102
}
330
2F
100
AcDbXrecord
 10
0.0
 20
0.0
 30
0.0
  0
XRECORD
  5
4E
102
{ACAD_REACTORS
330
2F
102
}
330
2F
100
AcDbXrecord
 10
0.0
 20
0.0
 30
0.0
  0
XRECORD
  5
4C
102
{ACAD_REACTORS
330
2F
102
}
330
2F
100
AcDbXrecord
 10
0.0
 20
0.0
 30
0.0
  0
XRECORD
  5
4D
102
{ACAD_REACTORS
330
2F
102
}
330
2F
100
AcDbXrecord
 10
0.0
 20
0.0
 30
0.0
  0
XRECORD
  5
4A
102
{ACAD_REACTORS
330
2F
102
}
330
2F
100
AcDbXrecord
 10
0.0
 20
0.0
 30
0.0
  0
XRECORD
  5
47
102
{ACAD_REACTORS
330
2F
102
}
330
2F
100
AcDbXrecord
340
0
  0
XRECORD
  5
48
102
{ACAD_REACTORS
330
2F
102
}
330
2F
100
AcDbXrecord
 70
     0
  0
XRECORD
  5
3B
102
{ACAD_REACTORS
330
2F
102
}
330
2F
100
AcDbXrecord
  1
{33328E3A-B6B8-4979-86B7-D70DEC2867C2}
  0
ENDSEC
  0
EOF
