  0
SECTION
  2
HEADER
  9
$ACADVER
  1
AC1014
  9
$EXTMIN
 10
70.16401489310567
 20
112.369642808922
 30
0.0
  9
$EXTMAX
 10
277.0834797641999
 20
227.1366601424358
 30
0.0
  9
$HANDSEED
  5
56
  9
$MEASUREMENT
 70
1
  0
ENDSEC
  0
SECTION
  2
TABLES
  0
TABLE
  2
VPORT
  5
8
330
0
100
AcDbSymbolTable
 70
     4
  0
VPORT
  5
2E
330
8
100
AcDbSymbolTableRecord
100
AcDbViewportTableRecord
  2
*ACTIVE
 70
     0
 10
0.0
 20
0.0
 11
1.0
 21
1.0
 12
209.9999999999999
 22
148.4999999999999
 13
0.0
 23
0.0
 14
10.0
 24
10.0
 15
10.0
 25
10.0
 16
0.0
 26
0.0
 36
1.0
 17
0.0
 27
0.0
 37
0.0
 40
340.9950045922664
 41
1.239944521497919
 42
50.0
 43
0.0
 44
0.0
 50
0.0
 51
0.0
 71
     0
 72
   100
 73
     1
 74
     3
 75
     0
 76
     0
 77
     0
 78
     0
  0
ENDTAB
  0
TABLE
  2
LTYPE
  5
5
330
0
100
AcDbSymbolTable
 70
     1
  0
LTYPE
  5
14
330
5
100
AcDbSymbolTableRecord
100
AcDbLinetypeTableRecord
  2
BYBLOCK
 70
     0
  3

 72
    65
 73
     0
 40
0.0
  0
LTYPE
  5
15
330
5
100
AcDbSymbolTableRecord
100
AcDbLinetypeTableRecord
  2
BYLAYER
 70
     0
  3

 72
    65
 73
     0
 40
0.0
  0
LTYPE
  5
16
330
5
100
AcDbSymbolTableRecord
100
AcDbLinetypeTableRecord
  2
CONTINUOUS
 70
     0
  3
Solid line
 72
    65
 73
     0
 40
0.0
  0
ENDTAB
  0
TABLE
  2
LAYER
  5
2
330
0
100
AcDbSymbolTable
 70
1
  0
LAYER
  5
10
330
2
100
AcDbSymbolTableRecord
100
AcDbLayerTableRecord
  2
0
 70
     0
 62
     7
  6
CONTINUOUS
  0
ENDTAB
  0
TABLE
  2
STYLE
  5
3
330
0
100
AcDbSymbolTable
 70
     1
  0
STYLE
  5
11
330
3
100
AcDbSymbolTableRecord
100
AcDbTextStyleTableRecord
  2
STANDARD
 70
     0
 40
0.0
 41
1.0
 50
0.0
 71
     0
 42
2.5
  3
txt
  4

  0
ENDTAB
  0
TABLE
  2
VIEW
  5
6
330
0
100
AcDbSymbolTable
 70
     0
  0
ENDTAB
  0
TABLE
  2
UCS
  5
7
330
0
100
AcDbSymbolTable
 70
     0
  0
ENDTAB
  0
TABLE
  2
APPID
  5
9
330
0
100
AcDbSymbolTable
 70
     2
  0
APPID
  5
12
330
9
100
AcDbSymbolTableRecord
100
AcDbRegAppTableRecord
  2
ACAD
 70
     0
  0
APPID
  5
2B
330
9
100
AcDbSymbolTableRecord
100
AcDbRegAppTableRecord
  2
URBANX
 70
     0
  0
ENDTAB
  0
TABLE
  2
DIMSTYLE
  5
A
330
0
100
AcDbSymbolTable
 70
     1
  0
DIMSTYLE
105
27
330
A
100
AcDbSymbolTableRecord
100
AcDbDimStyleTableRecord
  2
ISO-25
 70
     0
  3

  4

  5

  6

  7

 40
1.0
 41
2.5
 42
0.625
 43
3.75
 44
1.25
 45
0.0
 46
0.0
 47
0.0
 48
0.0
140
2.5
141
2.5
142
0.0
143
0.03937007874016
144
1.0
145
0.0
146
1.0
147
0.625
 71
     0
 72
     0
 73
     0
 74
     0
 75
     0
 76
     0
 77
     1
 78
     8
170
     0
171
     3
172
     1
173
     0
174
     0
175
     0
176
     0
177
     0
178
     0
270
     2
271
     2
272
     2
273
     2
274
     3
340
11
275
     0
280
     0
281
     0
282
     0
283
     0
284
     8
285
     0
286
     0
287
     3
288
     0
  0
ENDTAB
  0
TABLE
  2
BLOCK_RECORD
  5
1
330
0
100
AcDbSymbolTable
 70
     1
  0
BLOCK_RECORD
  5
1F
102
{ACAD_XDICTIONARY
360
52
102
}
330
1
100
AcDbSymbolTableRecord
100
AcDbBlockTableRecord
  2
*MODEL_SPACE
  0
BLOCK_RECORD
  5
1B
102
{ACAD_XDICTIONARY
360
50
102
}
330
1
100
AcDbSymbolTableRecord
100
AcDbBlockTableRecord
  2
*PAPER_SPACE
  0
ENDTAB
  0
ENDSEC
  0
SECTION
  2
BLOCKS
  0
BLOCK
  5
20
330
1F
100
AcDbEntity
  8
0
100
AcDbBlockBegin
  2
*MODEL_SPACE
 70
     0
 10
0.0
 20
0.0
 30
0.0
  3
*MODEL_SPACE
  1

  0
ENDBLK
  5
21
330
1F
100
AcDbEntity
  8
0
100
AcDbBlockEnd
  0
BLOCK
  5
1C
330
1B
100
AcDbEntity
 67
     1
  8
0
100
AcDbBlockBegin
  2
*PAPER_SPACE
  1

  0
ENDBLK
  5
1D
330
1B
100
AcDbEntity
 67
     1
  8
0
100
AcDbBlockEnd
  0
ENDSEC
  0
SECTION
  2
ENTITIES
  0
LINE
  5
ff
100
AcDbEntity
  8
0
100
AcDbLine
 62
     0
 10
0.0509873
 20
363.185
 30
0.0
 11
0.0509873
 21
394.183
 31
0.0
  0
LINE
  5
100
100
AcDbEntity
  8
0
100
AcDbLine
 62
     0
 10
10.5503
 20
362.183
 30
0.0
 11
1.05006
 21
362.183
 31
0.0
  0
LINE
  5
101
100
AcDbEntity
  8
0
100
AcDbLine
 62
     0
 10
0.0509873
 20
363.185
 30
0.0
 11
1.05006
 21
362.183
 31
0.0
  0
LINE
  5
102
100
AcDbEntity
  8
0
100
AcDbLine
 62
     0
 10
1.05006
 20
395.182
 30
0.0
 11
10.5503
 21
395.182
 31
0.0
  0
LINE
  5
103
100
AcDbEntity
  8
0
100
AcDbLine
 62
     0
 10
0.0509873
 20
394.183
 30
0.0
 11
1.05006
 21
395.182
 31
0.0
  0
SPLINE
  5
104
100
AcDbEntity
  8
0
100
AcDbSpline
210
0.0
220
0.0
230
1.0
 62
     0
 70
     0
 71
     3
 72
     8
 73
4
 40
0.0
 40
0.0
 40
0.0
 40
0.0
 40
1.0
 40
1.0
 40
1.0
 40
1.0
 10
5.05051
 20
391.185
 30
0.0
 10
5.05051
 20
390.631
 30
0.0
 10
4.60266
 20
390.183
 30
0.0
 10
4.05007
 20
390.183
 30
0.0
  0
SPLINE
  5
105
100
AcDbEntity
  8
0
100
AcDbSpline
210
0.0
220
0.0
230
1.0
 62
     0
 70
     0
 71
     3
 72
     8
 73
4
 40
0.0
 40
0.0
 40
0.0
 40
0.0
 40
1.0
 40
1.0
 40
1.0
 40
1.0
 10
4.05007
 20
390.183
 30
0.0
 10
3.49884
 20
390.183
 30
0.0
 10
3.05098
 20
390.631
 30
0.0
 10
3.05098
 20
391.185
 30
0.0
  0
SPLINE
  5
106
100
AcDbEntity
  8
0
100
AcDbSpline
210
0.0
220
0.0
230
1.0
 62
     0
 70
     0
 71
     3
 72
     8
 73
4
 40
0.0
 40
0.0
 40
0.0
 40
0.0
 40
1.0
 40
1.0
 40
1.0
 40
1.0
 10
3.05098
 20
391.185
 30
0.0
 10
3.05098
 20
391.735
 30
0.0
 10
3.49884
 20
392.183
 30
0.0
 10
4.05007
 20
392.183
 30
0.0
  0
SPLINE
  5
107
100
AcDbEntity
  8
0
100
AcDbSpline
210
0.0
220
0.0
230
1.0
 62
     0
 70
     0
 71
     3
 72
     8
 73
4
 40
0.0
 40
0.0
 40
0.0
 40
0.0
 40
1.0
 40
1.0
 40
1.0
 40
1.0
 10
4.05007
 20
392.183
 30
0.0
 10
4.60266
 20
392.183
 30
0.0
 10
5.05051
 20
391.735
 30
0.0
 10
5.05051
 20
391.185
 30
0.0
  0
SPLINE
  5
108
100
AcDbEntity
  8
0
100
AcDbSpline
210
0.0
220
0.0
230
1.0
 62
     0
 70
     0
 71
     3
 72
     8
 73
4
 40
0.0
 40
0.0
 40
0.0
 40
0.0
 40
1.0
 40
1.0
 40
1.0
 40
1.0
 10
5.05051
 20
366.183
 30
0.0
 10
5.05051
 20
365.633
 30
0.0
 10
4.60266
 20
365.185
 30
0.0
 10
4.05007
 20
365.185
 30
0.0
  0
SPLINE
  5
109
100
AcDbEntity
  8
0
100
AcDbSpline
210
0.0
220
0.0
230
1.0
 62
     0
 70
     0
 71
     3
 72
     8
 73
4
 40
0.0
 40
0.0
 40
0.0
 40
0.0
 40
1.0
 40
1.0
 40
1.0
 40
1.0
 10
4.05007
 20
365.185
 30
0.0
 10
3.49884
 20
365.185
 30
0.0
 10
3.05098
 20
365.633
 30
0.0
 10
3.05098
 20
366.183
 30
0.0
  0
SPLINE
  5
10a
100
AcDbEntity
  8
0
100
AcDbSpline
210
0.0
220
0.0
230
1.0
 62
     0
 70
     0
 71
     3
 72
     8
 73
4
 40
0.0
 40
0.0
 40
0.0
 40
0.0
 40
1.0
 40
1.0
 40
1.0
 40
1.0
 10
3.05098
 20
366.183
 30
0.0
 10
3.05098
 20
366.737
 30
0.0
 10
3.49884
 20
367.185
 30
0.0
 10
4.05007
 20
367.185
 30
0.0
  0
SPLINE
  5
10b
100
AcDbEntity
  8
0
100
AcDbSpline
210
0.0
220
0.0
230
1.0
 62
     0
 70
     0
 71
     3
 72
     8
 73
4
 40
0.0
 40
0.0
 40
0.0
 40
0.0
 40
1.0
 40
1.0
 40
1.0
 40
1.0
 10
4.05007
 20
367.185
 30
0.0
 10
4.60266
 20
367.185
 30
0.0
 10
5.05051
 20
366.737
 30
0.0
 10
5.05051
 20
366.183
 30
0.0
  0
LINE
  5
10c
100
AcDbEntity
  8
0
100
AcDbLine
 62
     0
 10
22.0514
 20
362.183
 30
0.0
 11
12.5512
 21
362.183
 31
0.0
  0
LINE
  5
10d
100
AcDbEntity
  8
0
100
AcDbLine
 62
     0
 10
10.5503
 20
356.182
 30
0.0
 11
10.5503
 21
357.184
 31
0.0
  0
LINE
  5
10e
100
AcDbEntity
  8
0
100
AcDbLine
 62
     0
 10
10.5503
 20
357.184
 30
0.0
 11
10.5503
 21
418.183
 31
0.0
  0
LINE
  5
10f
100
AcDbEntity
  8
0
100
AcDbLine
 62
     0
 10
10.5503
 20
418.183
 30
0.0
 11
10.5503
 21
419.181
 31
0.0
  0
LINE
  5
110
100
AcDbEntity
  8
0
100
AcDbLine
 62
     0
 10
12.5512
 20
395.182
 30
0.0
 11
22.0514
 21
395.182
 31
0.0
  0
LINE
  5
111
100
AcDbEntity
  8
0
100
AcDbLine
 62
     0
 10
22.0514
 20
362.183
 30
0.0
 11
23.0504
 21
363.185
 31
0.0
  0
LINE
  5
112
100
AcDbEntity
  8
0
100
AcDbLine
 62
     0
 10
23.0504
 20
363.185
 30
0.0
 11
23.0504
 21
394.183
 31
0.0
  0
LINE
  5
113
100
AcDbEntity
  8
0
100
AcDbLine
 62
     0
 10
22.0514
 20
395.182
 30
0.0
 11
23.0504
 21
394.183
 31
0.0
  0
SPLINE
  5
114
100
AcDbEntity
  8
0
100
AcDbSpline
210
0.0
220
0.0
230
1.0
 62
     0
 70
     0
 71
     3
 72
     8
 73
4
 40
0.0
 40
0.0
 40
0.0
 40
0.0
 40
1.0
 40
1.0
 40
1.0
 40
1.0
 10
20.0504
 20
366.183
 30
0.0
 10
20.0504
 20
365.633
 30
0.0
 10
19.6026
 20
365.185
 30
0.0
 10
19.0514
 20
365.185
 30
0.0
  0
SPLINE
  5
115
100
AcDbEntity
  8
0
100
AcDbSpline
210
0.0
220
0.0
230
1.0
 62
     0
 70
     0
 71
     3
 72
     8
 73
4
 40
0.0
 40
0.0
 40
0.0
 40
0.0
 40
1.0
 40
1.0
 40
1.0
 40
1.0
 10
19.0514
 20
365.185
 30
0.0
 10
18.4988
 20
365.185
 30
0.0
 10
18.0509
 20
365.633
 30
0.0
 10
18.0509
 20
366.183
 30
0.0
  0
SPLINE
  5
116
100
AcDbEntity
  8
0
100
AcDbSpline
210
0.0
220
0.0
230
1.0
 62
     0
 70
     0
 71
     3
 72
     8
 73
4
 40
0.0
 40
0.0
 40
0.0
 40
0.0
 40
1.0
 40
1.0
 40
1.0
 40
1.0
 10
18.0509
 20
366.183
 30
0.0
 10
18.0509
 20
366.737
 30
0.0
 10
18.4988
 20
367.185
 30
0.0
 10
19.0514
 20
367.185
 30
0.0
  0
SPLINE
  5
117
100
AcDbEntity
  8
0
100
AcDbSpline
210
0.0
220
0.0
230
1.0
 62
     0
 70
     0
 71
     3
 72
     8
 73
4
 40
0.0
 40
0.0
 40
0.0
 40
0.0
 40
1.0
 40
1.0
 40
1.0
 40
1.0
 10
19.0514
 20
367.185
 30
0.0
 10
19.6026
 20
367.185
 30
0.0
 10
20.0504
 20
366.737
 30
0.0
 10
20.0504
 20
366.183
 30
0.0
  0
SPLINE
  5
118
100
AcDbEntity
  8
0
100
AcDbSpline
210
0.0
220
0.0
230
1.0
 62
     0
 70
     0
 71
     3
 72
     8
 73
4
 40
0.0
 40
0.0
 40
0.0
 40
0.0
 40
1.0
 40
1.0
 40
1.0
 40
1.0
 10
20.0504
 20
391.185
 30
0.0
 10
20.0504
 20
390.631
 30
0.0
 10
19.6026
 20
390.183
 30
0.0
 10
19.0514
 20
390.183
 30
0.0
  0
SPLINE
  5
119
100
AcDbEntity
  8
0
100
AcDbSpline
210
0.0
220
0.0
230
1.0
 62
     0
 70
     0
 71
     3
 72
     8
 73
4
 40
0.0
 40
0.0
 40
0.0
 40
0.0
 40
1.0
 40
1.0
 40
1.0
 40
1.0
 10
19.0514
 20
390.183
 30
0.0
 10
18.4988
 20
390.183
 30
0.0
 10
18.0509
 20
390.631
 30
0.0
 10
18.0509
 20
391.185
 30
0.0
  0
SPLINE
  5
11a
100
AcDbEntity
  8
0
100
AcDbSpline
210
0.0
220
0.0
230
1.0
 62
     0
 70
     0
 71
     3
 72
     8
 73
4
 40
0.0
 40
0.0
 40
0.0
 40
0.0
 40
1.0
 40
1.0
 40
1.0
 40
1.0
 10
18.0509
 20
391.185
 30
0.0
 10
18.0509
 20
391.735
 30
0.0
 10
18.4988
 20
392.183
 30
0.0
 10
19.0514
 20
392.183
 30
0.0
  0
SPLINE
  5
11b
100
AcDbEntity
  8
0
100
AcDbSpline
210
0.0
220
0.0
230
1.0
 62
     0
 70
     0
 71
     3
 72
     8
 73
4
 40
0.0
 40
0.0
 40
0.0
 40
0.0
 40
1.0
 40
1.0
 40
1.0
 40
1.0
 10
19.0514
 20
392.183
 30
0.0
 10
19.6026
 20
392.183
 30
0.0
 10
20.0504
 20
391.735
 30
0.0
 10
20.0504
 20
391.185
 30
0.0
  0
LINE
  5
11c
100
AcDbEntity
  8
0
100
AcDbLine
 62
     0
 10
10.5503
 20
356.182
 30
0.0
 11
12.5512
 21
356.182
 31
0.0
  0
LINE
  5
11d
100
AcDbEntity
  8
0
100
AcDbLine
 62
     0
 10
10.5503
 20
357.184
 30
0.0
 11
12.5512
 21
357.184
 31
0.0
  0
LINE
  5
11e
100
AcDbEntity
  8
0
100
AcDbLine
 62
     0
 10
12.5512
 20
356.182
 30
0.0
 11
12.5512
 21
357.184
 31
0.0
  0
LINE
  5
11f
100
AcDbEntity
  8
0
100
AcDbLine
 62
     0
 10
10.5503
 20
418.183
 30
0.0
 11
12.5512
 21
418.183
 31
0.0
  0
LINE
  5
120
100
AcDbEntity
  8
0
100
AcDbLine
 62
     0
 10
12.5512
 20
357.184
 30
0.0
 11
12.5512
 21
418.183
 31
0.0
  0
LINE
  5
121
100
AcDbEntity
  8
0
100
AcDbLine
 62
     0
 10
10.5503
 20
419.181
 30
0.0
 11
12.5512
 21
419.181
 31
0.0
  0
LINE
  5
122
100
AcDbEntity
  8
0
100
AcDbLine
 62
     0
 10
12.5512
 20
418.183
 30
0.0
 11
12.5512
 21
419.181
 31
0.0
  0
LINE
  5
123
100
AcDbEntity
  8
0
100
AcDbLine
 62
     0
 10
4.05007
 20
390.783
 30
0.0
 11
4.05007
 21
391.583
 31
0.0
  0
LINE
  5
124
100
AcDbEntity
  8
0
100
AcDbLine
 62
     0
 10
4.45107
 20
391.185
 30
0.0
 11
3.65044
 21
391.185
 31
0.0
  0
LINE
  5
125
100
AcDbEntity
  8
0
100
AcDbLine
 62
     0
 10
4.05007
 20
390.783
 30
0.0
 11
4.05007
 21
391.583
 31
0.0
  0
LINE
  5
126
100
AcDbEntity
  8
0
100
AcDbLine
 62
     0
 10
4.45107
 20
391.185
 30
0.0
 11
3.65044
 21
391.185
 31
0.0
  0
LINE
  5
127
100
AcDbEntity
  8
0
100
AcDbLine
 62
     0
 10
4.05007
 20
365.785
 30
0.0
 11
4.05007
 21
366.586
 31
0.0
  0
LINE
  5
128
100
AcDbEntity
  8
0
100
AcDbLine
 62
     0
 10
4.45107
 20
366.183
 30
0.0
 11
3.65044
 21
366.183
 31
0.0
  0
LINE
  5
129
100
AcDbEntity
  8
0
100
AcDbLine
 62
     0
 10
4.05007
 20
365.785
 30
0.0
 11
4.05007
 21
366.586
 31
0.0
  0
LINE
  5
12a
100
AcDbEntity
  8
0
100
AcDbLine
 62
     0
 10
4.45107
 20
366.183
 30
0.0
 11
3.65044
 21
366.183
 31
0.0
  0
LINE
  5
12b
100
AcDbEntity
  8
0
100
AcDbLine
 62
     0
 10
19.0514
 20
365.785
 30
0.0
 11
19.0514
 21
366.586
 31
0.0
  0
LINE
  5
12c
100
AcDbEntity
  8
0
100
AcDbLine
 62
     0
 10
19.451
 20
366.183
 30
0.0
 11
18.6504
 21
366.183
 31
0.0
  0
LINE
  5
12d
100
AcDbEntity
  8
0
100
AcDbLine
 62
     0
 10
19.0514
 20
365.785
 30
0.0
 11
19.0514
 21
366.586
 31
0.0
  0
LINE
  5
12e
100
AcDbEntity
  8
0
100
AcDbLine
 62
     0
 10
19.451
 20
366.183
 30
0.0
 11
18.6504
 21
366.183
 31
0.0
  0
LINE
  5
12f
100
AcDbEntity
  8
0
100
AcDbLine
 62
     0
 10
19.0514
 20
390.783
 30
0.0
 11
19.0514
 21
391.583
 31
0.0
  0
LINE
  5
130
100
AcDbEntity
  8
0
100
AcDbLine
 62
     0
 10
19.451
 20
391.185
 30
0.0
 11
18.6504
 21
391.185
 31
0.0
  0
LINE
  5
131
100
AcDbEntity
  8
0
100
AcDbLine
 62
     0
 10
19.0514
 20
390.783
 30
0.0
 11
19.0514
 21
391.583
 31
0.0
  0
LINE
  5
132
100
AcDbEntity
  8
0
100
AcDbLine
 62
     0
 10
19.451
 20
391.185
 30
0.0
 11
18.6504
 21
391.185
 31
0.0
  0
LINE
  5
133
100
AcDbEntity
  8
0
100
AcDbLine
 62
     0
 10
54.6502
 20
363.185
 30
0.0
 11
54.6502
 21
394.183
 31
0.0
  0
LINE
  5
134
100
AcDbEntity
  8
0
100
AcDbLine
 62
     0
 10
54.6502
 20
363.185
 30
0.0
 11
53.4515
 21
363.185
 31
0.0
  0
LINE
  5
135
100
AcDbEntity
  8
0
100
AcDbLine
 62
     0
 10
53.4515
 20
394.183
 30
0.0
 11
54.6502
 21
394.183
 31
0.0
  0
LINE
  5
136
100
AcDbEntity
  8
0
100
AcDbLine
 62
     0
 10
53.4515
 20
363.185
 30
0.0
 11
53.4515
 21
394.183
 31
0.0
  0
LINE
  5
137
100
AcDbEntity
  8
0
100
AcDbLine
 62
     0
 10
54.6502
 20
363.185
 30
0.0
 11
54.6502
 21
362.183
 31
0.0
  0
LINE
  5
138
100
AcDbEntity
  8
0
100
AcDbLine
 62
     0
 10
54.6502
 20
394.183
 30
0.0
 11
54.6502
 21
395.182
 31
0.0
  0
LINE
  5
139
100
AcDbEntity
  8
0
100
AcDbLine
 62
     0
 10
54.6502
 20
362.183
 30
0.0
 11
53.4515
 21
362.183
 31
0.0
  0
LINE
  5
13a
100
AcDbEntity
  8
0
100
AcDbLine
 62
     0
 10
53.4515
 20
363.185
 30
0.0
 11
53.4515
 21
362.183
 31
0.0
  0
LINE
  5
13b
100
AcDbEntity
  8
0
100
AcDbLine
 62
     0
 10
53.4515
 20
394.183
 30
0.0
 11
53.4515
 21
395.182
 31
0.0
  0
LINE
  5
13c
100
AcDbEntity
  8
0
100
AcDbLine
 62
     0
 10
53.4515
 20
395.182
 30
0.0
 11
54.6502
 21
395.182
 31
0.0
  0
LINE
  5
13d
100
AcDbEntity
  8
0
100
AcDbLine
 62
     0
 10
54.6502
 20
357.184
 30
0.0
 11
54.6502
 21
362.183
 31
0.0
  0
LINE
  5
13e
100
AcDbEntity
  8
0
100
AcDbLine
 62
     0
 10
54.6502
 20
357.184
 30
0.0
 11
55.6507
 21
356.182
 31
0.0
  0
LINE
  5
13f
100
AcDbEntity
  8
0
100
AcDbLine
 62
     0
 10
55.6507
 20
356.182
 30
0.0
 11
64.6508
 21
356.182
 31
0.0
  0
LINE
  5
140
100
AcDbEntity
  8
0
100
AcDbLine
 62
     0
 10
54.6502
 20
395.182
 30
0.0
 11
54.6502
 21
418.183
 31
0.0
  0
LINE
  5
141
100
AcDbEntity
  8
0
100
AcDbLine
 62
     0
 10
64.6508
 20
356.182
 30
0.0
 11
65.6512
 21
357.184
 31
0.0
  0
LINE
  5
142
100
AcDbEntity
  8
0
100
AcDbLine
 62
     0
 10
54.6502
 20
418.183
 30
0.0
 11
55.6507
 21
419.181
 31
0.0
  0
LINE
  5
143
100
AcDbEntity
  8
0
100
AcDbLine
 62
     0
 10
65.6512
 20
357.184
 30
0.0
 11
65.6512
 21
418.183
 31
0.0
  0
LINE
  5
144
100
AcDbEntity
  8
0
100
AcDbLine
 62
     0
 10
55.6507
 20
419.181
 30
0.0
 11
64.6508
 21
419.181
 31
0.0
  0
LINE
  5
145
100
AcDbEntity
  8
0
100
AcDbLine
 62
     0
 10
65.6512
 20
418.183
 30
0.0
 11
64.6508
 21
419.181
 31
0.0
  0
SPLINE
  5
146
100
AcDbEntity
  8
0
100
AcDbSpline
210
0.0
220
0.0
230
1.0
 62
     0
 70
     0
 71
     3
 72
     8
 73
4
 40
0.0
 40
0.0
 40
0.0
 40
0.0
 40
1.0
 40
1.0
 40
1.0
 40
1.0
 10
61.6507
 20
369.686
 30
0.0
 10
61.6507
 20
369.133
 30
0.0
 10
61.2027
 20
368.685
 30
0.0
 10
60.6503
 20
368.685
 30
0.0
  0
SPLINE
  5
147
100
AcDbEntity
  8
0
100
AcDbSpline
210
0.0
220
0.0
230
1.0
 62
     0
 70
     0
 71
     3
 72
     8
 73
4
 40
0.0
 40
0.0
 40
0.0
 40
0.0
 40
1.0
 40
1.0
 40
1.0
 40
1.0
 10
60.6503
 20
368.685
 30
0.0
 10
60.0989
 20
368.685
 30
0.0
 10
59.6512
 20
369.133
 30
0.0
 10
59.6512
 20
369.686
 30
0.0
  0
SPLINE
  5
148
100
AcDbEntity
  8
0
100
AcDbSpline
210
0.0
220
0.0
230
1.0
 62
     0
 70
     0
 71
     3
 72
     8
 73
4
 40
0.0
 40
0.0
 40
0.0
 40
0.0
 40
1.0
 40
1.0
 40
1.0
 40
1.0
 10
59.6512
 20
369.686
 30
0.0
 10
59.6512
 20
370.237
 30
0.0
 10
60.0989
 20
370.685
 30
0.0
 10
60.6503
 20
370.685
 30
0.0
  0
SPLINE
  5
149
100
AcDbEntity
  8
0
100
AcDbSpline
210
0.0
220
0.0
230
1.0
 62
     0
 70
     0
 71
     3
 72
     8
 73
4
 40
0.0
 40
0.0
 40
0.0
 40
0.0
 40
1.0
 40
1.0
 40
1.0
 40
1.0
 10
60.6503
 20
370.685
 30
0.0
 10
61.2027
 20
370.685
 30
0.0
 10
61.6507
 20
370.237
 30
0.0
 10
61.6507
 20
369.686
 30
0.0
  0
SPLINE
  5
14a
100
AcDbEntity
  8
0
100
AcDbSpline
210
0.0
220
0.0
230
1.0
 62
     0
 70
     0
 71
     3
 72
     8
 73
4
 40
0.0
 40
0.0
 40
0.0
 40
0.0
 40
1.0
 40
1.0
 40
1.0
 40
1.0
 10
61.6507
 20
360.684
 30
0.0
 10
61.6507
 20
360.133
 30
0.0
 10
61.2027
 20
359.682
 30
0.0
 10
60.6503
 20
359.682
 30
0.0
  0
SPLINE
  5
14b
100
AcDbEntity
  8
0
100
AcDbSpline
210
0.0
220
0.0
230
1.0
 62
     0
 70
     0
 71
     3
 72
     8
 73
4
 40
0.0
 40
0.0
 40
0.0
 40
0.0
 40
1.0
 40
1.0
 40
1.0
 40
1.0
 10
60.6503
 20
359.682
 30
0.0
 10
60.0989
 20
359.682
 30
0.0
 10
59.6512
 20
360.133
 30
0.0
 10
59.6512
 20
360.684
 30
0.0
  0
SPLINE
  5
14c
100
AcDbEntity
  8
0
100
AcDbSpline
210
0.0
220
0.0
230
1.0
 62
     0
 70
     0
 71
     3
 72
     8
 73
4
 40
0.0
 40
0.0
 40
0.0
 40
0.0
 40
1.0
 40
1.0
 40
1.0
 40
1.0
 10
59.6512
 20
360.684
 30
0.0
 10
59.6512
 20
361.237
 30
0.0
 10
60.0989
 20
361.682
 30
0.0
 10
60.6503
 20
361.682
 30
0.0
  0
SPLINE
  5
14d
100
AcDbEntity
  8
0
100
AcDbSpline
210
0.0
220
0.0
230
1.0
 62
     0
 70
     0
 71
     3
 72
     8
 73
4
 40
0.0
 40
0.0
 40
0.0
 40
0.0
 40
1.0
 40
1.0
 40
1.0
 40
1.0
 10
60.6503
 20
361.682
 30
0.0
 10
61.2027
 20
361.682
 30
0.0
 10
61.6507
 20
361.237
 30
0.0
 10
61.6507
 20
360.684
 30
0.0
  0
SPLINE
  5
14e
100
AcDbEntity
  8
0
100
AcDbSpline
210
0.0
220
0.0
230
1.0
 62
     0
 70
     0
 71
     3
 72
     8
 73
4
 40
0.0
 40
0.0
 40
0.0
 40
0.0
 40
1.0
 40
1.0
 40
1.0
 40
1.0
 10
61.6507
 20
414.683
 30
0.0
 10
61.6507
 20
414.133
 30
0.0
 10
61.2027
 20
413.681
 30
0.0
 10
60.6503
 20
413.681
 30
0.0
  0
SPLINE
  5
14f
100
AcDbEntity
  8
0
100
AcDbSpline
210
0.0
220
0.0
230
1.0
 62
     0
 70
     0
 71
     3
 72
     8
 73
4
 40
0.0
 40
0.0
 40
0.0
 40
0.0
 40
1.0
 40
1.0
 40
1.0
 40
1.0
 10
60.6503
 20
413.681
 30
0.0
 10
60.0989
 20
413.681
 30
0.0
 10
59.6512
 20
414.133
 30
0.0
 10
59.6512
 20
414.683
 30
0.0
  0
SPLINE
  5
150
100
AcDbEntity
  8
0
100
AcDbSpline
210
0.0
220
0.0
230
1.0
 62
     0
 70
     0
 71
     3
 72
     8
 73
4
 40
0.0
 40
0.0
 40
0.0
 40
0.0
 40
1.0
 40
1.0
 40
1.0
 40
1.0
 10
59.6512
 20
414.683
 30
0.0
 10
59.6512
 20
415.237
 30
0.0
 10
60.0989
 20
415.685
 30
0.0
 10
60.6503
 20
415.685
 30
0.0
  0
SPLINE
  5
151
100
AcDbEntity
  8
0
100
AcDbSpline
210
0.0
220
0.0
230
1.0
 62
     0
 70
     0
 71
     3
 72
     8
 73
4
 40
0.0
 40
0.0
 40
0.0
 40
0.0
 40
1.0
 40
1.0
 40
1.0
 40
1.0
 10
60.6503
 20
415.685
 30
0.0
 10
61.2027
 20
415.685
 30
0.0
 10
61.6507
 20
415.237
 30
0.0
 10
61.6507
 20
414.683
 30
0.0
  0
SPLINE
  5
152
100
AcDbEntity
  8
0
100
AcDbSpline
210
0.0
220
0.0
230
1.0
 62
     0
 70
     0
 71
     3
 72
     8
 73
4
 40
0.0
 40
0.0
 40
0.0
 40
0.0
 40
1.0
 40
1.0
 40
1.0
 40
1.0
 10
61.6507
 20
405.684
 30
0.0
 10
61.6507
 20
405.13
 30
0.0
 10
61.2027
 20
404.686
 30
0.0
 10
60.6503
 20
404.686
 30
0.0
  0
SPLINE
  5
153
100
AcDbEntity
  8
0
100
AcDbSpline
210
0.0
220
0.0
230
1.0
 62
     0
 70
     0
 71
     3
 72
     8
 73
4
 40
0.0
 40
0.0
 40
0.0
 40
0.0
 40
1.0
 40
1.0
 40
1.0
 40
1.0
 10
60.6503
 20
404.686
 30
0.0
 10
60.0989
 20
404.686
 30
0.0
 10
59.6512
 20
405.13
 30
0.0
 10
59.6512
 20
405.684
 30
0.0
  0
SPLINE
  5
154
100
AcDbEntity
  8
0
100
AcDbSpline
210
0.0
220
0.0
230
1.0
 62
     0
 70
     0
 71
     3
 72
     8
 73
4
 40
0.0
 40
0.0
 40
0.0
 40
0.0
 40
1.0
 40
1.0
 40
1.0
 40
1.0
 10
59.6512
 20
405.684
 30
0.0
 10
59.6512
 20
406.238
 30
0.0
 10
60.0989
 20
406.686
 30
0.0
 10
60.6503
 20
406.686
 30
0.0
  0
SPLINE
  5
155
100
AcDbEntity
  8
0
100
AcDbSpline
210
0.0
220
0.0
230
1.0
 62
     0
 70
     0
 71
     3
 72
     8
 73
4
 40
0.0
 40
0.0
 40
0.0
 40
0.0
 40
1.0
 40
1.0
 40
1.0
 40
1.0
 10
60.6503
 20
406.686
 30
0.0
 10
61.2027
 20
406.686
 30
0.0
 10
61.6507
 20
406.238
 30
0.0
 10
61.6507
 20
405.684
 30
0.0
  0
LINE
  5
156
100
AcDbEntity
  8
0
100
AcDbLine
 62
     0
 10
60.6503
 20
369.284
 30
0.0
 11
60.6503
 21
370.085
 31
0.0
  0
LINE
  5
157
100
AcDbEntity
  8
0
100
AcDbLine
 62
     0
 10
61.0514
 20
369.686
 30
0.0
 11
60.2506
 21
369.686
 31
0.0
  0
LINE
  5
158
100
AcDbEntity
  8
0
100
AcDbLine
 62
     0
 10
60.6503
 20
369.284
 30
0.0
 11
60.6503
 21
370.085
 31
0.0
  0
LINE
  5
159
100
AcDbEntity
  8
0
100
AcDbLine
 62
     0
 10
61.0514
 20
369.686
 30
0.0
 11
60.2506
 21
369.686
 31
0.0
  0
LINE
  5
15a
100
AcDbEntity
  8
0
100
AcDbLine
 62
     0
 10
60.6503
 20
360.285
 30
0.0
 11
60.6503
 21
361.086
 31
0.0
  0
LINE
  5
15b
100
AcDbEntity
  8
0
100
AcDbLine
 62
     0
 10
61.0514
 20
360.684
 30
0.0
 11
60.2506
 21
360.684
 31
0.0
  0
LINE
  5
15c
100
AcDbEntity
  8
0
100
AcDbLine
 62
     0
 10
60.6503
 20
360.285
 30
0.0
 11
60.6503
 21
361.086
 31
0.0
  0
LINE
  5
15d
100
AcDbEntity
  8
0
100
AcDbLine
 62
     0
 10
61.0514
 20
360.684
 30
0.0
 11
60.2506
 21
360.684
 31
0.0
  0
LINE
  5
15e
100
AcDbEntity
  8
0
100
AcDbLine
 62
     0
 10
60.6503
 20
414.285
 30
0.0
 11
60.6503
 21
415.082
 31
0.0
  0
LINE
  5
15f
100
AcDbEntity
  8
0
100
AcDbLine
 62
     0
 10
61.0514
 20
414.683
 30
0.0
 11
60.2506
 21
414.683
 31
0.0
  0
LINE
  5
160
100
AcDbEntity
  8
0
100
AcDbLine
 62
     0
 10
60.6503
 20
414.285
 30
0.0
 11
60.6503
 21
415.082
 31
0.0
  0
LINE
  5
161
100
AcDbEntity
  8
0
100
AcDbLine
 62
     0
 10
61.0514
 20
414.683
 30
0.0
 11
60.2506
 21
414.683
 31
0.0
  0
LINE
  5
162
100
AcDbEntity
  8
0
100
AcDbLine
 62
     0
 10
60.6503
 20
405.285
 30
0.0
 11
60.6503
 21
406.086
 31
0.0
  0
LINE
  5
163
100
AcDbEntity
  8
0
100
AcDbLine
 62
     0
 10
61.0514
 20
405.684
 30
0.0
 11
60.2506
 21
405.684
 31
0.0
  0
LINE
  5
164
100
AcDbEntity
  8
0
100
AcDbLine
 62
     0
 10
60.6503
 20
405.285
 30
0.0
 11
60.6503
 21
406.082
 31
0.0
  0
LINE
  5
165
100
AcDbEntity
  8
0
100
AcDbLine
 62
     0
 10
61.0514
 20
405.684
 30
0.0
 11
60.2506
 21
405.684
 31
0.0
  0
LINE
  5
166
100
AcDbEntity
  8
0
100
AcDbLine
 62
     0
 10
119.052
 20
363.185
 30
0.0
 11
119.052
 21
394.183
 31
0.0
  0
LINE
  5
167
100
AcDbEntity
  8
0
100
AcDbLine
 62
     0
 10
119.052
 20
363.185
 30
0.0
 11
118.051
 21
362.183
 31
0.0
  0
LINE
  5
168
100
AcDbEntity
  8
0
100
AcDbLine
 62
     0
 10
119.052
 20
394.183
 30
0.0
 11
118.051
 21
395.182
 31
0.0
  0
LINE
  5
169
100
AcDbEntity
  8
0
100
AcDbLine
 62
     0
 10
118.051
 20
362.183
 30
0.0
 11
97.0509
 21
362.183
 31
0.0
  0
LINE
  5
16a
100
AcDbEntity
  8
0
100
AcDbLine
 62
     0
 10
97.0509
 20
362.183
 30
0.0
 11
96.0508
 21
363.185
 31
0.0
  0
LINE
  5
16b
100
AcDbEntity
  8
0
100
AcDbLine
 62
     0
 10
96.0508
 20
363.185
 30
0.0
 11
96.0508
 21
394.183
 31
0.0
  0
LINE
  5
16c
100
AcDbEntity
  8
0
100
AcDbLine
 62
     0
 10
97.0509
 20
395.182
 30
0.0
 11
96.0508
 21
394.183
 31
0.0
  0
LINE
  5
16d
100
AcDbEntity
  8
0
100
AcDbLine
 62
     0
 10
97.0509
 20
395.182
 30
0.0
 11
118.051
 21
395.182
 31
0.0
  0
SPLINE
  5
16e
100
AcDbEntity
  8
0
100
AcDbSpline
210
0.0
220
0.0
230
1.0
 62
     0
 70
     0
 71
     3
 72
     8
 73
4
 40
0.0
 40
0.0
 40
0.0
 40
0.0
 40
1.0
 40
1.0
 40
1.0
 40
1.0
 10
116.052
 20
366.183
 30
0.0
 10
116.052
 20
365.633
 30
0.0
 10
115.604
 20
365.185
 30
0.0
 10
115.051
 20
365.185
 30
0.0
  0
SPLINE
  5
16f
100
AcDbEntity
  8
0
100
AcDbSpline
210
0.0
220
0.0
230
1.0
 62
     0
 70
     0
 71
     3
 72
     8
 73
4
 40
0.0
 40
0.0
 40
0.0
 40
0.0
 40
1.0
 40
1.0
 40
1.0
 40
1.0
 10
115.051
 20
365.185
 30
0.0
 10
114.499
 20
365.185
 30
0.0
 10
114.051
 20
365.633
 30
0.0
 10
114.051
 20
366.183
 30
0.0
  0
SPLINE
  5
170
100
AcDbEntity
  8
0
100
AcDbSpline
210
0.0
220
0.0
230
1.0
 62
     0
 70
     0
 71
     3
 72
     8
 73
4
 40
0.0
 40
0.0
 40
0.0
 40
0.0
 40
1.0
 40
1.0
 40
1.0
 40
1.0
 10
114.051
 20
366.183
 30
0.0
 10
114.051
 20
366.737
 30
0.0
 10
114.499
 20
367.185
 30
0.0
 10
115.051
 20
367.185
 30
0.0
  0
SPLINE
  5
171
100
AcDbEntity
  8
0
100
AcDbSpline
210
0.0
220
0.0
230
1.0
 62
     0
 70
     0
 71
     3
 72
     8
 73
4
 40
0.0
 40
0.0
 40
0.0
 40
0.0
 40
1.0
 40
1.0
 40
1.0
 40
1.0
 10
115.051
 20
367.185
 30
0.0
 10
115.604
 20
367.185
 30
0.0
 10
116.052
 20
366.737
 30
0.0
 10
116.052
 20
366.183
 30
0.0
  0
SPLINE
  5
172
100
AcDbEntity
  8
0
100
AcDbSpline
210
0.0
220
0.0
230
1.0
 62
     0
 70
     0
 71
     3
 72
     8
 73
4
 40
0.0
 40
0.0
 40
0.0
 40
0.0
 40
1.0
 40
1.0
 40
1.0
 40
1.0
 10
101.05
 20
366.183
 30
0.0
 10
101.05
 20
365.633
 30
0.0
 10
100.604
 20
365.185
 30
0.0
 10
100.051
 20
365.185
 30
0.0
  0
SPLINE
  5
173
100
AcDbEntity
  8
0
100
AcDbSpline
210
0.0
220
0.0
230
1.0
 62
     0
 70
     0
 71
     3
 72
     8
 73
4
 40
0.0
 40
0.0
 40
0.0
 40
0.0
 40
1.0
 40
1.0
 40
1.0
 40
1.0
 10
100.051
 20
365.185
 30
0.0
 10
99.4985
 20
365.185
 30
0.0
 10
99.0505
 20
365.633
 30
0.0
 10
99.0505
 20
366.183
 30
0.0
  0
SPLINE
  5
174
100
AcDbEntity
  8
0
100
AcDbSpline
210
0.0
220
0.0
230
1.0
 62
     0
 70
     0
 71
     3
 72
     8
 73
4
 40
0.0
 40
0.0
 40
0.0
 40
0.0
 40
1.0
 40
1.0
 40
1.0
 40
1.0
 10
99.0505
 20
366.183
 30
0.0
 10
99.0505
 20
366.737
 30
0.0
 10
99.4985
 20
367.185
 30
0.0
 10
100.051
 20
367.185
 30
0.0
  0
SPLINE
  5
175
100
AcDbEntity
  8
0
100
AcDbSpline
210
0.0
220
0.0
230
1.0
 62
     0
 70
     0
 71
     3
 72
     8
 73
4
 40
0.0
 40
0.0
 40
0.0
 40
0.0
 40
1.0
 40
1.0
 40
1.0
 40
1.0
 10
100.051
 20
367.185
 30
0.0
 10
100.604
 20
367.185
 30
0.0
 10
101.05
 20
366.737
 30
0.0
 10
101.05
 20
366.183
 30
0.0
  0
SPLINE
  5
176
100
AcDbEntity
  8
0
100
AcDbSpline
210
0.0
220
0.0
230
1.0
 62
     0
 70
     0
 71
     3
 72
     8
 73
4
 40
0.0
 40
0.0
 40
0.0
 40
0.0
 40
1.0
 40
1.0
 40
1.0
 40
1.0
 10
101.05
 20
391.185
 30
0.0
 10
101.05
 20
390.631
 30
0.0
 10
100.604
 20
390.183
 30
0.0
 10
100.051
 20
390.183
 30
0.0
  0
SPLINE
  5
177
100
AcDbEntity
  8
0
100
AcDbSpline
210
0.0
220
0.0
230
1.0
 62
     0
 70
     0
 71
     3
 72
     8
 73
4
 40
0.0
 40
0.0
 40
0.0
 40
0.0
 40
1.0
 40
1.0
 40
1.0
 40
1.0
 10
100.051
 20
390.183
 30
0.0
 10
99.4985
 20
390.183
 30
0.0
 10
99.0505
 20
390.631
 30
0.0
 10
99.0505
 20
391.185
 30
0.0
  0
SPLINE
  5
178
100
AcDbEntity
  8
0
100
AcDbSpline
210
0.0
220
0.0
230
1.0
 62
     0
 70
     0
 71
     3
 72
     8
 73
4
 40
0.0
 40
0.0
 40
0.0
 40
0.0
 40
1.0
 40
1.0
 40
1.0
 40
1.0
 10
99.0505
 20
391.185
 30
0.0
 10
99.0505
 20
391.735
 30
0.0
 10
99.4985
 20
392.183
 30
0.0
 10
100.051
 20
392.183
 30
0.0
  0
SPLINE
  5
179
100
AcDbEntity
  8
0
100
AcDbSpline
210
0.0
220
0.0
230
1.0
 62
     0
 70
     0
 71
     3
 72
     8
 73
4
 40
0.0
 40
0.0
 40
0.0
 40
0.0
 40
1.0
 40
1.0
 40
1.0
 40
1.0
 10
100.051
 20
392.183
 30
0.0
 10
100.604
 20
392.183
 30
0.0
 10
101.05
 20
391.735
 30
0.0
 10
101.05
 20
391.185
 30
0.0
  0
SPLINE
  5
17a
100
AcDbEntity
  8
0
100
AcDbSpline
210
0.0
220
0.0
230
1.0
 62
     0
 70
     0
 71
     3
 72
     8
 73
4
 40
0.0
 40
0.0
 40
0.0
 40
0.0
 40
1.0
 40
1.0
 40
1.0
 40
1.0
 10
116.052
 20
391.185
 30
0.0
 10
116.052
 20
390.631
 30
0.0
 10
115.604
 20
390.183
 30
0.0
 10
115.051
 20
390.183
 30
0.0
  0
SPLINE
  5
17b
100
AcDbEntity
  8
0
100
AcDbSpline
210
0.0
220
0.0
230
1.0
 62
     0
 70
     0
 71
     3
 72
     8
 73
4
 40
0.0
 40
0.0
 40
0.0
 40
0.0
 40
1.0
 40
1.0
 40
1.0
 40
1.0
 10
115.051
 20
390.183
 30
0.0
 10
114.499
 20
390.183
 30
0.0
 10
114.051
 20
390.631
 30
0.0
 10
114.051
 20
391.185
 30
0.0
  0
SPLINE
  5
17c
100
AcDbEntity
  8
0
100
AcDbSpline
210
0.0
220
0.0
230
1.0
 62
     0
 70
     0
 71
     3
 72
     8
 73
4
 40
0.0
 40
0.0
 40
0.0
 40
0.0
 40
1.0
 40
1.0
 40
1.0
 40
1.0
 10
114.051
 20
391.185
 30
0.0
 10
114.051
 20
391.735
 30
0.0
 10
114.499
 20
392.183
 30
0.0
 10
115.051
 20
392.183
 30
0.0
  0
SPLINE
  5
17d
100
AcDbEntity
  8
0
100
AcDbSpline
210
0.0
220
0.0
230
1.0
 62
     0
 70
     0
 71
     3
 72
     8
 73
4
 40
0.0
 40
0.0
 40
0.0
 40
0.0
 40
1.0
 40
1.0
 40
1.0
 40
1.0
 10
115.051
 20
392.183
 30
0.0
 10
115.604
 20
392.183
 30
0.0
 10
116.052
 20
391.735
 30
0.0
 10
116.052
 20
391.185
 30
0.0
  0
LINE
  5
17e
100
AcDbEntity
  8
0
100
AcDbLine
 62
     0
 10
108.551
 20
357.184
 30
0.0
 11
108.551
 21
362.183
 31
0.0
  0
LINE
  5
17f
100
AcDbEntity
  8
0
100
AcDbLine
 62
     0
 10
108.551
 20
357.184
 30
0.0
 11
108.551
 21
356.182
 31
0.0
  0
LINE
  5
180
100
AcDbEntity
  8
0
100
AcDbLine
 62
     0
 10
108.551
 20
395.182
 30
0.0
 11
108.551
 21
418.183
 31
0.0
  0
LINE
  5
181
100
AcDbEntity
  8
0
100
AcDbLine
 62
     0
 10
108.551
 20
418.183
 30
0.0
 11
108.551
 21
419.181
 31
0.0
  0
LINE
  5
182
100
AcDbEntity
  8
0
100
AcDbLine
 62
     0
 10
106.551
 20
357.184
 30
0.0
 11
108.551
 21
357.184
 31
0.0
  0
LINE
  5
183
100
AcDbEntity
  8
0
100
AcDbLine
 62
     0
 10
106.551
 20
357.184
 30
0.0
 11
106.551
 21
362.183
 31
0.0
  0
LINE
  5
184
100
AcDbEntity
  8
0
100
AcDbLine
 62
     0
 10
106.551
 20
357.184
 30
0.0
 11
106.551
 21
356.182
 31
0.0
  0
LINE
  5
185
100
AcDbEntity
  8
0
100
AcDbLine
 62
     0
 10
106.551
 20
356.182
 30
0.0
 11
108.551
 21
356.182
 31
0.0
  0
LINE
  5
186
100
AcDbEntity
  8
0
100
AcDbLine
 62
     0
 10
106.551
 20
395.182
 30
0.0
 11
106.551
 21
418.183
 31
0.0
  0
LINE
  5
187
100
AcDbEntity
  8
0
100
AcDbLine
 62
     0
 10
106.551
 20
418.183
 30
0.0
 11
108.551
 21
418.183
 31
0.0
  0
SPLINE
  5
188
100
AcDbEntity
  8
0
100
AcDbSpline
210
0.0
220
0.0
230
1.0
 62
     0
 70
     0
 71
     3
 72
     8
 73
4
 40
0.0
 40
0.0
 40
0.0
 40
0.0
 40
1.0
 40
1.0
 40
1.0
 40
1.0
 10
107.05
 20
410.185
 30
0.0
 10
107.05
 20
410.062
 30
0.0
 10
107.097
 20
409.942
 30
0.0
 10
107.178
 20
409.85
 30
0.0
  0
SPLINE
  5
189
100
AcDbEntity
  8
0
100
AcDbSpline
210
0.0
220
0.0
230
1.0
 62
     0
 70
     0
 71
     3
 72
     8
 73
4
 40
0.0
 40
0.0
 40
0.0
 40
0.0
 40
1.0
 40
1.0
 40
1.0
 40
1.0
 10
107.178
 20
409.85
 30
0.0
 10
107.258
 20
409.758
 30
0.0
 10
107.374
 20
409.702
 30
0.0
 10
107.494
 20
409.688
 30
0.0
  0
SPLINE
  5
18a
100
AcDbEntity
  8
0
100
AcDbSpline
210
0.0
220
0.0
230
1.0
 62
     0
 70
     0
 71
     3
 72
     8
 73
4
 40
0.0
 40
0.0
 40
0.0
 40
0.0
 40
1.0
 40
1.0
 40
1.0
 40
1.0
 10
107.494
 20
409.688
 30
0.0
 10
107.644
 20
409.67
 30
0.0
 10
107.801
 20
409.727
 30
0.0
 10
107.906
 20
409.833
 30
0.0
  0
SPLINE
  5
18b
100
AcDbEntity
  8
0
100
AcDbSpline
210
0.0
220
0.0
230
1.0
 62
     0
 70
     0
 71
     3
 72
     8
 73
4
 40
0.0
 40
0.0
 40
0.0
 40
0.0
 40
1.0
 40
1.0
 40
1.0
 40
1.0
 10
107.906
 20
409.833
 30
0.0
 10
107.993
 20
409.921
 30
0.0
 10
108.045
 20
410.037
 30
0.0
 10
108.051
 20
410.157
 30
0.0
  0
SPLINE
  5
18c
100
AcDbEntity
  8
0
100
AcDbSpline
210
0.0
220
0.0
230
1.0
 62
     0
 70
     0
 71
     3
 72
     8
 73
4
 40
0.0
 40
0.0
 40
0.0
 40
0.0
 40
1.0
 40
1.0
 40
1.0
 40
1.0
 10
108.051
 20
410.157
 30
0.0
 10
108.059
 20
410.312
 30
0.0
 10
107.994
 20
410.464
 30
0.0
 10
107.88
 20
410.563
 30
0.0
  0
SPLINE
  5
18d
100
AcDbEntity
  8
0
100
AcDbSpline
210
0.0
220
0.0
230
1.0
 62
     0
 70
     0
 71
     3
 72
     8
 73
4
 40
0.0
 40
0.0
 40
0.0
 40
0.0
 40
1.0
 40
1.0
 40
1.0
 40
1.0
 10
107.88
 20
410.563
 30
0.0
 10
107.787
 20
410.64
 30
0.0
 10
107.666
 20
410.686
 30
0.0
 10
107.545
 20
410.683
 30
0.0
  0
SPLINE
  5
18e
100
AcDbEntity
  8
0
100
AcDbSpline
210
0.0
220
0.0
230
1.0
 62
     0
 70
     0
 71
     3
 72
     8
 73
4
 40
0.0
 40
0.0
 40
0.0
 40
0.0
 40
1.0
 40
1.0
 40
1.0
 40
1.0
 10
107.545
 20
410.683
 30
0.0
 10
107.424
 20
410.683
 30
0.0
 10
107.302
 20
410.637
 30
0.0
 10
107.213
 20
410.552
 30
0.0
  0
SPLINE
  5
18f
100
AcDbEntity
  8
0
100
AcDbSpline
210
0.0
220
0.0
230
1.0
 62
     0
 70
     0
 71
     3
 72
     8
 73
4
 40
0.0
 40
0.0
 40
0.0
 40
0.0
 40
1.0
 40
1.0
 40
1.0
 40
1.0
 10
107.213
 20
410.552
 30
0.0
 10
107.111
 20
410.46
 30
0.0
 10
107.05
 20
410.323
 30
0.0
 10
107.05
 20
410.185
 30
0.0
  0
LINE
  5
190
100
AcDbEntity
  8
0
100
AcDbLine
 62
     0
 10
106.551
 20
418.183
 30
0.0
 11
106.551
 21
419.181
 31
0.0
  0
LINE
  5
191
100
AcDbEntity
  8
0
100
AcDbLine
 62
     0
 10
106.551
 20
419.181
 30
0.0
 11
108.551
 21
419.181
 31
0.0
  0
LINE
  5
192
100
AcDbEntity
  8
0
100
AcDbLine
 62
     0
 10
115.051
 20
365.785
 30
0.0
 11
115.051
 21
366.586
 31
0.0
  0
LINE
  5
193
100
AcDbEntity
  8
0
100
AcDbLine
 62
     0
 10
115.451
 20
366.183
 30
0.0
 11
114.651
 21
366.183
 31
0.0
  0
LINE
  5
194
100
AcDbEntity
  8
0
100
AcDbLine
 62
     0
 10
115.051
 20
365.785
 30
0.0
 11
115.051
 21
366.586
 31
0.0
  0
LINE
  5
195
100
AcDbEntity
  8
0
100
AcDbLine
 62
     0
 10
115.451
 20
366.183
 30
0.0
 11
114.651
 21
366.183
 31
0.0
  0
LINE
  5
196
100
AcDbEntity
  8
0
100
AcDbLine
 62
     0
 10
100.051
 20
365.785
 30
0.0
 11
100.051
 21
366.586
 31
0.0
  0
LINE
  5
197
100
AcDbEntity
  8
0
100
AcDbLine
 62
     0
 10
100.451
 20
366.183
 30
0.0
 11
99.6516
 21
366.183
 31
0.0
  0
LINE
  5
198
100
AcDbEntity
  8
0
100
AcDbLine
 62
     0
 10
100.051
 20
365.785
 30
0.0
 11
100.051
 21
366.586
 31
0.0
  0
LINE
  5
199
100
AcDbEntity
  8
0
100
AcDbLine
 62
     0
 10
100.451
 20
366.183
 30
0.0
 11
99.6516
 21
366.183
 31
0.0
  0
LINE
  5
19a
100
AcDbEntity
  8
0
100
AcDbLine
 62
     0
 10
100.051
 20
390.783
 30
0.0
 11
100.051
 21
391.583
 31
0.0
  0
LINE
  5
19b
100
AcDbEntity
  8
0
100
AcDbLine
 62
     0
 10
100.451
 20
391.185
 30
0.0
 11
99.6516
 21
391.185
 31
0.0
  0
LINE
  5
19c
100
AcDbEntity
  8
0
100
AcDbLine
 62
     0
 10
100.051
 20
390.783
 30
0.0
 11
100.051
 21
391.583
 31
0.0
  0
LINE
  5
19d
100
AcDbEntity
  8
0
100
AcDbLine
 62
     0
 10
100.451
 20
391.185
 30
0.0
 11
99.6516
 21
391.185
 31
0.0
  0
LINE
  5
19e
100
AcDbEntity
  8
0
100
AcDbLine
 62
     0
 10
115.051
 20
390.783
 30
0.0
 11
115.051
 21
391.583
 31
0.0
  0
LINE
  5
19f
100
AcDbEntity
  8
0
100
AcDbLine
 62
     0
 10
115.451
 20
391.185
 30
0.0
 11
114.651
 21
391.185
 31
0.0
  0
LINE
  5
1a0
100
AcDbEntity
  8
0
100
AcDbLine
 62
     0
 10
115.051
 20
390.783
 30
0.0
 11
115.051
 21
391.583
 31
0.0
  0
LINE
  5
1a1
100
AcDbEntity
  8
0
100
AcDbLine
 62
     0
 10
115.451
 20
391.185
 30
0.0
 11
114.651
 21
391.185
 31
0.0
  0
LINE
  5
1a2
100
AcDbEntity
  8
0
100
AcDbLine
 62
     0
 10
0.0509873
 20
330.783
 30
0.0
 11
0.0509873
 21
329.584
 31
0.0
  0
LINE
  5
1a3
100
AcDbEntity
  8
0
100
AcDbLine
 62
     0
 10
1.05006
 20
329.584
 30
0.0
 11
10.5503
 21
329.584
 31
0.0
  0
LINE
  5
1a4
100
AcDbEntity
  8
0
100
AcDbLine
 62
     0
 10
0.0509873
 20
329.584
 30
0.0
 11
1.05006
 21
329.584
 31
0.0
  0
LINE
  5
1a5
100
AcDbEntity
  8
0
100
AcDbLine
 62
     0
 10
0.0509873
 20
330.783
 30
0.0
 11
1.05006
 21
330.783
 31
0.0
  0
LINE
  5
1a6
100
AcDbEntity
  8
0
100
AcDbLine
 62
     0
 10
1.05006
 20
330.783
 30
0.0
 11
1.05006
 21
329.584
 31
0.0
  0
LINE
  5
1a7
100
AcDbEntity
  8
0
100
AcDbLine
 62
     0
 10
22.0514
 20
330.783
 30
0.0
 11
23.0504
 21
330.783
 31
0.0
  0
LINE
  5
1a8
100
AcDbEntity
  8
0
100
AcDbLine
 62
     0
 10
22.0514
 20
330.783
 30
0.0
 11
1.05006
 21
330.783
 31
0.0
  0
LINE
  5
1a9
100
AcDbEntity
  8
0
100
AcDbLine
 62
     0
 10
10.5503
 20
329.584
 30
0.0
 11
10.5503
 21
328.585
 31
0.0
  0
LINE
  5
1aa
100
AcDbEntity
  8
0
100
AcDbLine
 62
     0
 10
10.5503
 20
328.585
 30
0.0
 11
10.5503
 21
319.584
 31
0.0
  0
LINE
  5
1ab
100
AcDbEntity
  8
0
100
AcDbLine
 62
     0
 10
10.5503
 20
318.583
 30
0.0
 11
10.5503
 21
319.584
 31
0.0
  0
LINE
  5
1ac
100
AcDbEntity
  8
0
100
AcDbLine
 62
     0
 10
22.0514
 20
329.584
 30
0.0
 11
22.0514
 21
330.783
 31
0.0
  0
LINE
  5
1ad
100
AcDbEntity
  8
0
100
AcDbLine
 62
     0
 10
12.5512
 20
329.584
 30
0.0
 11
22.0514
 21
329.584
 31
0.0
  0
LINE
  5
1ae
100
AcDbEntity
  8
0
100
AcDbLine
 62
     0
 10
23.0504
 20
329.584
 30
0.0
 11
23.0504
 21
330.783
 31
0.0
  0
LINE
  5
1af
100
AcDbEntity
  8
0
100
AcDbLine
 62
     0
 10
22.0514
 20
329.584
 30
0.0
 11
23.0504
 21
329.584
 31
0.0
  0
LINE
  5
1b0
100
AcDbEntity
  8
0
100
AcDbLine
 62
     0
 10
12.5512
 20
329.584
 30
0.0
 11
10.5503
 21
329.584
 31
0.0
  0
LINE
  5
1b1
100
AcDbEntity
  8
0
100
AcDbLine
 62
     0
 10
12.5512
 20
329.584
 30
0.0
 11
12.5512
 21
328.585
 31
0.0
  0
LINE
  5
1b2
100
AcDbEntity
  8
0
100
AcDbLine
 62
     0
 10
12.5512
 20
328.585
 30
0.0
 11
10.5503
 21
328.585
 31
0.0
  0
LINE
  5
1b3
100
AcDbEntity
  8
0
100
AcDbLine
 62
     0
 10
10.5503
 20
318.583
 30
0.0
 11
12.5512
 21
318.583
 31
0.0
  0
LINE
  5
1b4
100
AcDbEntity
  8
0
100
AcDbLine
 62
     0
 10
12.5512
 20
319.584
 30
0.0
 11
12.5512
 21
328.585
 31
0.0
  0
LINE
  5
1b5
100
AcDbEntity
  8
0
100
AcDbLine
 62
     0
 10
10.5503
 20
319.584
 30
0.0
 11
12.5512
 21
319.584
 31
0.0
  0
LINE
  5
1b6
100
AcDbEntity
  8
0
100
AcDbLine
 62
     0
 10
12.5512
 20
318.583
 30
0.0
 11
12.5512
 21
319.584
 31
0.0
  0
LINE
  5
1b7
100
AcDbEntity
  8
0
100
AcDbLine
 62
     0
 10
155.04
 20
363.446
 30
0.0
 11
155.04
 21
391.936
 31
0.0
  0
LINE
  5
1b8
100
AcDbEntity
  8
0
100
AcDbLine
 62
     0
 10
155.04
 20
363.446
 30
0.0
 11
154.011
 21
363.202
 31
0.0
  0
LINE
  5
1b9
100
AcDbEntity
  8
0
100
AcDbLine
 62
     0
 10
154.011
 20
391.693
 30
0.0
 11
155.04
 21
391.936
 31
0.0
  0
LINE
  5
1ba
100
AcDbEntity
  8
0
100
AcDbLine
 62
     0
 10
154.011
 20
363.202
 30
0.0
 11
154.011
 21
391.693
 31
0.0
  0
LINE
  5
1bb
100
AcDbEntity
  8
0
100
AcDbLine
 62
     0
 10
155.04
 20
363.446
 30
0.0
 11
154.526
 21
362.864
 31
0.0
  0
LINE
  5
1bc
100
AcDbEntity
  8
0
100
AcDbLine
 62
     0
 10
154.526
 20
393.192
 30
0.0
 11
149.638
 21
396.406
 31
0.0
  0
LINE
  5
1bd
100
AcDbEntity
  8
0
100
AcDbLine
 62
     0
 10
155.04
 20
391.936
 30
0.0
 11
154.526
 21
393.192
 31
0.0
  0
LINE
  5
1be
100
AcDbEntity
  8
0
100
AcDbLine
 62
     0
 10
154.526
 20
362.864
 30
0.0
 11
153.497
 21
362.62
 31
0.0
  0
LINE
  5
1bf
100
AcDbEntity
  8
0
100
AcDbLine
 62
     0
 10
154.011
 20
363.202
 30
0.0
 11
153.497
 21
362.62
 31
0.0
  0
LINE
  5
1c0
100
AcDbEntity
  8
0
100
AcDbLine
 62
     0
 10
154.011
 20
391.693
 30
0.0
 11
153.497
 21
392.952
 31
0.0
  0
LINE
  5
1c1
100
AcDbEntity
  8
0
100
AcDbLine
 62
     0
 10
153.497
 20
392.952
 30
0.0
 11
154.526
 21
393.192
 31
0.0
  0
LINE
  5
1c2
100
AcDbEntity
  8
0
100
AcDbLine
 62
     0
 10
153.497
 20
362.62
 30
0.0
 11
142.693
 21
369.718
 31
0.0
  0
LINE
  5
1c3
100
AcDbEntity
  8
0
100
AcDbLine
 62
     0
 10
142.693
 20
369.718
 30
0.0
 11
142.178
 21
370.974
 31
0.0
  0
LINE
  5
1c4
100
AcDbEntity
  8
0
100
AcDbLine
 62
     0
 10
142.178
 20
370.974
 30
0.0
 11
142.178
 21
399.464
 31
0.0
  0
LINE
  5
1c5
100
AcDbEntity
  8
0
100
AcDbLine
 62
     0
 10
142.693
 20
400.046
 30
0.0
 11
142.178
 21
399.464
 31
0.0
  0
LINE
  5
1c6
100
AcDbEntity
  8
0
100
AcDbLine
 62
     0
 10
142.693
 20
400.046
 30
0.0
 11
153.497
 21
392.952
 31
0.0
  0
SPLINE
  5
1c7
100
AcDbEntity
  8
0
100
AcDbSpline
210
0.0
220
0.0
230
1.0
 62
     0
 70
     0
 71
     3
 72
     8
 73
4
 40
0.0
 40
0.0
 40
0.0
 40
0.0
 40
1.0
 40
1.0
 40
1.0
 40
1.0
 10
151.439
 20
367.647
 30
0.0
 10
151.439
 20
367.997
 30
0.0
 10
151.548
 20
368.244
 30
0.0
 10
151.723
 20
368.282
 30
0.0
  0
SPLINE
  5
1c8
100
AcDbEntity
  8
0
100
AcDbSpline
210
0.0
220
0.0
230
1.0
 62
     0
 70
     0
 71
     3
 72
     8
 73
4
 40
0.0
 40
0.0
 40
0.0
 40
0.0
 40
1.0
 40
1.0
 40
1.0
 40
1.0
 10
151.723
 20
368.282
 30
0.0
 10
151.977
 20
368.346
 30
0.0
 10
152.287
 20
367.958
 30
0.0
 10
152.414
 20
367.422
 30
0.0
  0
SPLINE
  5
1c9
100
AcDbEntity
  8
0
100
AcDbSpline
210
0.0
220
0.0
230
1.0
 62
     0
 70
     0
 71
     3
 72
     8
 73
4
 40
0.0
 40
0.0
 40
0.0
 40
0.0
 40
1.0
 40
1.0
 40
1.0
 40
1.0
 10
152.414
 20
367.422
 30
0.0
 10
152.54
 20
366.882
 30
0.0
 10
152.437
 20
366.399
 30
0.0
 10
152.184
 20
366.339
 30
0.0
  0
SPLINE
  5
1ca
100
AcDbEntity
  8
0
100
AcDbSpline
210
0.0
220
0.0
230
1.0
 62
     0
 70
     0
 71
     3
 72
     8
 73
4
 40
0.0
 40
0.0
 40
0.0
 40
0.0
 40
1.0
 40
1.0
 40
1.0
 40
1.0
 10
152.184
 20
366.339
 30
0.0
 10
152.024
 20
366.3
 30
0.0
 10
151.835
 20
366.441
 30
0.0
 10
151.684
 20
366.705
 30
0.0
  0
SPLINE
  5
1cb
100
AcDbEntity
  8
0
100
AcDbSpline
210
0.0
220
0.0
230
1.0
 62
     0
 70
     0
 71
     3
 72
     8
 73
4
 40
0.0
 40
0.0
 40
0.0
 40
0.0
 40
1.0
 40
1.0
 40
1.0
 40
1.0
 10
151.684
 20
366.705
 30
0.0
 10
151.532
 20
366.974
 30
0.0
 10
151.439
 20
367.33
 30
0.0
 10
151.439
 20
367.647
 30
0.0
  0
SPLINE
  5
1cc
100
AcDbEntity
  8
0
100
AcDbSpline
210
0.0
220
0.0
230
1.0
 62
     0
 70
     0
 71
     3
 72
     8
 73
4
 40
0.0
 40
0.0
 40
0.0
 40
0.0
 40
1.0
 40
1.0
 40
1.0
 40
1.0
 10
143.721
 20
372.717
 30
0.0
 10
143.721
 20
373.066
 30
0.0
 10
143.831
 20
373.309
 30
0.0
 10
144.006
 20
373.352
 30
0.0
  0
SPLINE
  5
1cd
100
AcDbEntity
  8
0
100
AcDbSpline
210
0.0
220
0.0
230
1.0
 62
     0
 70
     0
 71
     3
 72
     8
 73
4
 40
0.0
 40
0.0
 40
0.0
 40
0.0
 40
1.0
 40
1.0
 40
1.0
 40
1.0
 10
144.006
 20
373.352
 30
0.0
 10
144.26
 20
373.412
 30
0.0
 10
144.569
 20
373.024
 30
0.0
 10
144.697
 20
372.487
 30
0.0
  0
SPLINE
  5
1ce
100
AcDbEntity
  8
0
100
AcDbSpline
210
0.0
220
0.0
230
1.0
 62
     0
 70
     0
 71
     3
 72
     8
 73
4
 40
0.0
 40
0.0
 40
0.0
 40
0.0
 40
1.0
 40
1.0
 40
1.0
 40
1.0
 10
144.697
 20
372.487
 30
0.0
 10
144.823
 20
371.951
 30
0.0
 10
144.72
 20
371.468
 30
0.0
 10
144.467
 20
371.408
 30
0.0
  0
SPLINE
  5
1cf
100
AcDbEntity
  8
0
100
AcDbSpline
210
0.0
220
0.0
230
1.0
 62
     0
 70
     0
 71
     3
 72
     8
 73
4
 40
0.0
 40
0.0
 40
0.0
 40
0.0
 40
1.0
 40
1.0
 40
1.0
 40
1.0
 10
144.467
 20
371.408
 30
0.0
 10
144.307
 20
371.369
 30
0.0
 10
144.117
 20
371.51
 30
0.0
 10
143.965
 20
371.775
 30
0.0
  0
SPLINE
  5
1d0
100
AcDbEntity
  8
0
100
AcDbSpline
210
0.0
220
0.0
230
1.0
 62
     0
 70
     0
 71
     3
 72
     8
 73
4
 40
0.0
 40
0.0
 40
0.0
 40
0.0
 40
1.0
 40
1.0
 40
1.0
 40
1.0
 10
143.965
 20
371.775
 30
0.0
 10
143.813
 20
372.043
 30
0.0
 10
143.721
 20
372.399
 30
0.0
 10
143.721
 20
372.717
 30
0.0
  0
SPLINE
  5
1d1
100
AcDbEntity
  8
0
100
AcDbSpline
210
0.0
220
0.0
230
1.0
 62
     0
 70
     0
 71
     3
 72
     8
 73
4
 40
0.0
 40
0.0
 40
0.0
 40
0.0
 40
1.0
 40
1.0
 40
1.0
 40
1.0
 10
143.721
 20
395.693
 30
0.0
 10
143.721
 20
396.042
 30
0.0
 10
143.831
 20
396.289
 30
0.0
 10
144.006
 20
396.328
 30
0.0
  0
SPLINE
  5
1d2
100
AcDbEntity
  8
0
100
AcDbSpline
210
0.0
220
0.0
230
1.0
 62
     0
 70
     0
 71
     3
 72
     8
 73
4
 40
0.0
 40
0.0
 40
0.0
 40
0.0
 40
1.0
 40
1.0
 40
1.0
 40
1.0
 10
144.006
 20
396.328
 30
0.0
 10
144.26
 20
396.392
 30
0.0
 10
144.569
 20
396.004
 30
0.0
 10
144.697
 20
395.467
 30
0.0
  0
SPLINE
  5
1d3
100
AcDbEntity
  8
0
100
AcDbSpline
210
0.0
220
0.0
230
1.0
 62
     0
 70
     0
 71
     3
 72
     8
 73
4
 40
0.0
 40
0.0
 40
0.0
 40
0.0
 40
1.0
 40
1.0
 40
1.0
 40
1.0
 10
144.697
 20
395.467
 30
0.0
 10
144.823
 20
394.928
 30
0.0
 10
144.72
 20
394.444
 30
0.0
 10
144.467
 20
394.384
 30
0.0
  0
SPLINE
  5
1d4
100
AcDbEntity
  8
0
100
AcDbSpline
210
0.0
220
0.0
230
1.0
 62
     0
 70
     0
 71
     3
 72
     8
 73
4
 40
0.0
 40
0.0
 40
0.0
 40
0.0
 40
1.0
 40
1.0
 40
1.0
 40
1.0
 10
144.467
 20
394.384
 30
0.0
 10
144.307
 20
394.346
 30
0.0
 10
144.117
 20
394.487
 30
0.0
 10
143.965
 20
394.751
 30
0.0
  0
SPLINE
  5
1d5
100
AcDbEntity
  8
0
100
AcDbSpline
210
0.0
220
0.0
230
1.0
 62
     0
 70
     0
 71
     3
 72
     8
 73
4
 40
0.0
 40
0.0
 40
0.0
 40
0.0
 40
1.0
 40
1.0
 40
1.0
 40
1.0
 10
143.965
 20
394.751
 30
0.0
 10
143.813
 20
395.019
 30
0.0
 10
143.721
 20
395.376
 30
0.0
 10
143.721
 20
395.693
 30
0.0
  0
SPLINE
  5
1d6
100
AcDbEntity
  8
0
100
AcDbSpline
210
0.0
220
0.0
230
1.0
 62
     0
 70
     0
 71
     3
 72
     8
 73
4
 40
0.0
 40
0.0
 40
0.0
 40
0.0
 40
1.0
 40
1.0
 40
1.0
 40
1.0
 10
151.439
 20
390.627
 30
0.0
 10
151.439
 20
390.973
 30
0.0
 10
151.548
 20
391.22
 30
0.0
 10
151.723
 20
391.262
 30
0.0
  0
SPLINE
  5
1d7
100
AcDbEntity
  8
0
100
AcDbSpline
210
0.0
220
0.0
230
1.0
 62
     0
 70
     0
 71
     3
 72
     8
 73
4
 40
0.0
 40
0.0
 40
0.0
 40
0.0
 40
1.0
 40
1.0
 40
1.0
 40
1.0
 10
151.723
 20
391.262
 30
0.0
 10
151.977
 20
391.322
 30
0.0
 10
152.287
 20
390.934
 30
0.0
 10
152.414
 20
390.398
 30
0.0
  0
SPLINE
  5
1d8
100
AcDbEntity
  8
0
100
AcDbSpline
210
0.0
220
0.0
230
1.0
 62
     0
 70
     0
 71
     3
 72
     8
 73
4
 40
0.0
 40
0.0
 40
0.0
 40
0.0
 40
1.0
 40
1.0
 40
1.0
 40
1.0
 10
152.414
 20
390.398
 30
0.0
 10
152.54
 20
389.858
 30
0.0
 10
152.437
 20
389.375
 30
0.0
 10
152.184
 20
389.315
 30
0.0
  0
SPLINE
  5
1d9
100
AcDbEntity
  8
0
100
AcDbSpline
210
0.0
220
0.0
230
1.0
 62
     0
 70
     0
 71
     3
 72
     8
 73
4
 40
0.0
 40
0.0
 40
0.0
 40
0.0
 40
1.0
 40
1.0
 40
1.0
 40
1.0
 10
152.184
 20
389.315
 30
0.0
 10
152.024
 20
389.276
 30
0.0
 10
151.835
 20
389.417
 30
0.0
 10
151.684
 20
389.682
 30
0.0
  0
SPLINE
  5
1da
100
AcDbEntity
  8
0
100
AcDbSpline
210
0.0
220
0.0
230
1.0
 62
     0
 70
     0
 71
     3
 72
     8
 73
4
 40
0.0
 40
0.0
 40
0.0
 40
0.0
 40
1.0
 40
1.0
 40
1.0
 40
1.0
 10
151.684
 20
389.682
 30
0.0
 10
151.532
 20
389.95
 30
0.0
 10
151.439
 20
390.31
 30
0.0
 10
151.439
 20
390.627
 30
0.0
  0
LINE
  5
1db
100
AcDbEntity
  8
0
100
AcDbLine
 62
     0
 10
149.638
 20
361.481
 30
0.0
 11
149.638
 21
365.157
 31
0.0
  0
LINE
  5
1dc
100
AcDbEntity
  8
0
100
AcDbLine
 62
     0
 10
149.638
 20
361.481
 30
0.0
 11
150.496
 21
360.765
 31
0.0
  0
LINE
  5
1dd
100
AcDbEntity
  8
0
100
AcDbLine
 62
     0
 10
150.496
 20
360.765
 30
0.0
 11
158.213
 21
362.589
 31
0.0
  0
LINE
  5
1de
100
AcDbEntity
  8
0
100
AcDbLine
 62
     0
 10
149.638
 20
396.406
 30
0.0
 11
149.638
 21
417.544
 31
0.0
  0
LINE
  5
1df
100
AcDbEntity
  8
0
100
AcDbLine
 62
     0
 10
158.213
 20
362.589
 30
0.0
 11
159.071
 21
363.707
 31
0.0
  0
LINE
  5
1e0
100
AcDbEntity
  8
0
100
AcDbLine
 62
     0
 10
149.638
 20
417.544
 30
0.0
 11
150.496
 21
418.666
 31
0.0
  0
LINE
  5
1e1
100
AcDbEntity
  8
0
100
AcDbLine
 62
     0
 10
159.071
 20
363.707
 30
0.0
 11
159.071
 21
419.774
 31
0.0
  0
LINE
  5
1e2
100
AcDbEntity
  8
0
100
AcDbLine
 62
     0
 10
150.496
 20
418.666
 30
0.0
 11
158.213
 21
420.49
 31
0.0
  0
LINE
  5
1e3
100
AcDbEntity
  8
0
100
AcDbLine
 62
     0
 10
159.071
 20
419.774
 30
0.0
 11
158.213
 21
420.49
 31
0.0
  0
SPLINE
  5
1e4
100
AcDbEntity
  8
0
100
AcDbSpline
210
0.0
220
0.0
230
1.0
 62
     0
 70
     0
 71
     3
 72
     8
 73
4
 40
0.0
 40
0.0
 40
0.0
 40
0.0
 40
1.0
 40
1.0
 40
1.0
 40
1.0
 10
155.641
 20
374.385
 30
0.0
 10
155.641
 20
374.657
 30
0.0
 10
155.528
 20
374.893
 30
0.0
 10
155.333
 20
375.02
 30
0.0
  0
SPLINE
  5
1e5
100
AcDbEntity
  8
0
100
AcDbSpline
210
0.0
220
0.0
230
1.0
 62
     0
 70
     0
 71
     3
 72
     8
 73
4
 40
0.0
 40
0.0
 40
0.0
 40
0.0
 40
1.0
 40
1.0
 40
1.0
 40
1.0
 10
155.333
 20
375.02
 30
0.0
 10
155.246
 20
375.077
 30
0.0
 10
155.146
 20
375.112
 30
0.0
 10
155.04
 20
375.123
 30
0.0
  0
SPLINE
  5
1e6
100
AcDbEntity
  8
0
100
AcDbSpline
210
0.0
220
0.0
230
1.0
 62
     0
 70
     0
 71
     3
 72
     8
 73
4
 40
0.0
 40
0.0
 40
0.0
 40
0.0
 40
1.0
 40
1.0
 40
1.0
 40
1.0
 10
155.04
 20
373.366
 30
0.0
 10
155.397
 20
373.574
 30
0.0
 10
155.641
 20
373.983
 30
0.0
 10
155.641
 20
374.385
 30
0.0
  0
SPLINE
  5
1e7
100
AcDbEntity
  8
0
100
AcDbSpline
210
0.0
220
0.0
230
1.0
 62
     0
 70
     0
 71
     3
 72
     8
 73
4
 40
0.0
 40
0.0
 40
0.0
 40
0.0
 40
1.0
 40
1.0
 40
1.0
 40
1.0
 10
155.641
 20
366.116
 30
0.0
 10
155.641
 20
366.388
 30
0.0
 10
155.528
 20
366.617
 30
0.0
 10
155.333
 20
366.748
 30
0.0
  0
SPLINE
  5
1e8
100
AcDbEntity
  8
0
100
AcDbSpline
210
0.0
220
0.0
230
1.0
 62
     0
 70
     0
 71
     3
 72
     8
 73
4
 40
0.0
 40
0.0
 40
0.0
 40
0.0
 40
1.0
 40
1.0
 40
1.0
 40
1.0
 10
155.333
 20
366.748
 30
0.0
 10
155.246
 20
366.804
 30
0.0
 10
155.146
 20
366.839
 30
0.0
 10
155.04
 20
366.85
 30
0.0
  0
SPLINE
  5
1e9
100
AcDbEntity
  8
0
100
AcDbSpline
210
0.0
220
0.0
230
1.0
 62
     0
 70
     0
 71
     3
 72
     8
 73
4
 40
0.0
 40
0.0
 40
0.0
 40
0.0
 40
1.0
 40
1.0
 40
1.0
 40
1.0
 10
155.04
 20
365.097
 30
0.0
 10
155.397
 20
365.301
 30
0.0
 10
155.641
 20
365.714
 30
0.0
 10
155.641
 20
366.116
 30
0.0
  0
SPLINE
  5
1ea
100
AcDbEntity
  8
0
100
AcDbSpline
210
0.0
220
0.0
230
1.0
 62
     0
 70
     0
 71
     3
 72
     8
 73
4
 40
0.0
 40
0.0
 40
0.0
 40
0.0
 40
1.0
 40
1.0
 40
1.0
 40
1.0
 10
155.641
 20
415.745
 30
0.0
 10
155.641
 20
416.02
 30
0.0
 10
155.528
 20
416.253
 30
0.0
 10
155.333
 20
416.38
 30
0.0
  0
SPLINE
  5
1eb
100
AcDbEntity
  8
0
100
AcDbSpline
210
0.0
220
0.0
230
1.0
 62
     0
 70
     0
 71
     3
 72
     8
 73
4
 40
0.0
 40
0.0
 40
0.0
 40
0.0
 40
1.0
 40
1.0
 40
1.0
 40
1.0
 10
155.333
 20
416.38
 30
0.0
 10
154.969
 20
416.616
 30
0.0
 10
154.427
 20
416.437
 30
0.0
 10
154.124
 20
415.974
 30
0.0
  0
SPLINE
  5
1ec
100
AcDbEntity
  8
0
100
AcDbSpline
210
0.0
220
0.0
230
1.0
 62
     0
 70
     0
 71
     3
 72
     8
 73
4
 40
0.0
 40
0.0
 40
0.0
 40
0.0
 40
1.0
 40
1.0
 40
1.0
 40
1.0
 10
154.124
 20
415.974
 30
0.0
 10
153.821
 20
415.516
 30
0.0
 10
153.87
 20
414.948
 30
0.0
 10
154.234
 20
414.708
 30
0.0
  0
SPLINE
  5
1ed
100
AcDbEntity
  8
0
100
AcDbSpline
210
0.0
220
0.0
230
1.0
 62
     0
 70
     0
 71
     3
 72
     8
 73
4
 40
0.0
 40
0.0
 40
0.0
 40
0.0
 40
1.0
 40
1.0
 40
1.0
 40
1.0
 10
154.234
 20
414.708
 30
0.0
 10
154.489
 20
414.539
 30
0.0
 10
154.846
 20
414.574
 30
0.0
 10
155.146
 20
414.796
 30
0.0
  0
SPLINE
  5
1ee
100
AcDbEntity
  8
0
100
AcDbSpline
210
0.0
220
0.0
230
1.0
 62
     0
 70
     0
 71
     3
 72
     8
 73
4
 40
0.0
 40
0.0
 40
0.0
 40
0.0
 40
1.0
 40
1.0
 40
1.0
 40
1.0
 10
155.146
 20
414.796
 30
0.0
 10
155.448
 20
415.018
 30
0.0
 10
155.641
 20
415.389
 30
0.0
 10
155.641
 20
415.745
 30
0.0
  0
SPLINE
  5
1ef
100
AcDbEntity
  8
0
100
AcDbSpline
210
0.0
220
0.0
230
1.0
 62
     0
 70
     0
 71
     3
 72
     8
 73
4
 40
0.0
 40
0.0
 40
0.0
 40
0.0
 40
1.0
 40
1.0
 40
1.0
 40
1.0
 10
155.641
 20
407.476
 30
0.0
 10
155.641
 20
407.748
 30
0.0
 10
155.528
 20
407.98
 30
0.0
 10
155.333
 20
408.107
 30
0.0
  0
SPLINE
  5
1f0
100
AcDbEntity
  8
0
100
AcDbSpline
210
0.0
220
0.0
230
1.0
 62
     0
 70
     0
 71
     3
 72
     8
 73
4
 40
0.0
 40
0.0
 40
0.0
 40
0.0
 40
1.0
 40
1.0
 40
1.0
 40
1.0
 10
155.333
 20
408.107
 30
0.0
 10
154.969
 20
408.347
 30
0.0
 10
154.427
 20
408.167
 30
0.0
 10
154.124
 20
407.705
 30
0.0
  0
SPLINE
  5
1f1
100
AcDbEntity
  8
0
100
AcDbSpline
210
0.0
220
0.0
230
1.0
 62
     0
 70
     0
 71
     3
 72
     8
 73
4
 40
0.0
 40
0.0
 40
0.0
 40
0.0
 40
1.0
 40
1.0
 40
1.0
 40
1.0
 10
154.124
 20
407.705
 30
0.0
 10
153.821
 20
407.243
 30
0.0
 10
153.87
 20
406.672
 30
0.0
 10
154.234
 20
406.435
 30
0.0
  0
SPLINE
  5
1f2
100
AcDbEntity
  8
0
100
AcDbSpline
210
0.0
220
0.0
230
1.0
 62
     0
 70
     0
 71
     3
 72
     8
 73
4
 40
0.0
 40
0.0
 40
0.0
 40
0.0
 40
1.0
 40
1.0
 40
1.0
 40
1.0
 10
154.234
 20
406.435
 30
0.0
 10
154.489
 20
406.266
 30
0.0
 10
154.846
 20
406.305
 30
0.0
 10
155.146
 20
406.523
 30
0.0
  0
SPLINE
  5
1f3
100
AcDbEntity
  8
0
100
AcDbSpline
210
0.0
220
0.0
230
1.0
 62
     0
 70
     0
 71
     3
 72
     8
 73
4
 40
0.0
 40
0.0
 40
0.0
 40
0.0
 40
1.0
 40
1.0
 40
1.0
 40
1.0
 10
155.146
 20
406.523
 30
0.0
 10
155.448
 20
406.746
 30
0.0
 10
155.641
 20
407.116
 30
0.0
 10
155.641
 20
407.476
 30
0.0
  0
LINE
  5
1f4
100
AcDbEntity
  8
0
100
AcDbLine
 62
     0
 10
143.721
 20
400.29
 30
0.0
 11
142.693
 21
400.046
 31
0.0
  0
LINE
  5
1f5
100
AcDbEntity
  8
0
100
AcDbLine
 62
     0
 10
148.609
 20
397.08
 30
0.0
 11
143.721
 21
400.29
 31
0.0
  0
LINE
  5
1f6
100
AcDbEntity
  8
0
100
AcDbLine
 62
     0
 10
149.638
 20
396.406
 30
0.0
 11
148.609
 21
397.08
 31
0.0
  0
LINE
  5
1f7
100
AcDbEntity
  8
0
100
AcDbLine
 62
     0
 10
148.609
 20
362.155
 30
0.0
 11
149.638
 21
361.481
 31
0.0
  0
LINE
  5
1f8
100
AcDbEntity
  8
0
100
AcDbLine
 62
     0
 10
148.609
 20
362.155
 30
0.0
 11
148.609
 21
365.831
 31
0.0
  0
LINE
  5
1f9
100
AcDbEntity
  8
0
100
AcDbLine
 62
     0
 10
148.609
 20
362.155
 30
0.0
 11
149.466
 21
361.438
 31
0.0
  0
LINE
  5
1fa
100
AcDbEntity
  8
0
100
AcDbLine
 62
     0
 10
149.466
 20
361.438
 30
0.0
 11
150.496
 21
360.765
 31
0.0
  0
LINE
  5
1fb
100
AcDbEntity
  8
0
100
AcDbLine
 62
     0
 10
148.609
 20
397.08
 30
0.0
 11
148.609
 21
418.218
 31
0.0
  0
LINE
  5
1fc
100
AcDbEntity
  8
0
100
AcDbLine
 62
     0
 10
148.609
 20
418.218
 30
0.0
 11
149.638
 21
417.544
 31
0.0
  0
SPLINE
  5
1fd
100
AcDbEntity
  8
0
100
AcDbSpline
210
0.0
220
0.0
230
1.0
 62
     0
 70
     0
 71
     3
 72
     8
 73
4
 40
0.0
 40
0.0
 40
0.0
 40
0.0
 40
1.0
 40
1.0
 40
1.0
 40
1.0
 10
148.867
 20
410.697
 30
0.0
 10
148.865
 20
410.527
 30
0.0
 10
148.922
 20
410.33
 30
0.0
 10
149.006
 20
410.199
 30
0.0
  0
SPLINE
  5
1fe
100
AcDbEntity
  8
0
100
AcDbSpline
210
0.0
220
0.0
230
1.0
 62
     0
 70
     0
 71
     3
 72
     8
 73
4
 40
0.0
 40
0.0
 40
0.0
 40
0.0
 40
1.0
 40
1.0
 40
1.0
 40
1.0
 10
149.006
 20
410.199
 30
0.0
 10
149.078
 20
410.083
 30
0.0
 10
149.167
 20
410.023
 30
0.0
 10
149.239
 20
410.041
 30
0.0
  0
SPLINE
  5
1ff
100
AcDbEntity
  8
0
100
AcDbSpline
210
0.0
220
0.0
230
1.0
 62
     0
 70
     0
 71
     3
 72
     8
 73
4
 40
0.0
 40
0.0
 40
0.0
 40
0.0
 40
1.0
 40
1.0
 40
1.0
 40
1.0
 10
149.239
 20
410.041
 30
0.0
 10
149.306
 20
410.055
 30
0.0
 10
149.357
 20
410.139
 30
0.0
 10
149.374
 20
410.259
 30
0.0
  0
SPLINE
  5
200
100
AcDbEntity
  8
0
100
AcDbSpline
210
0.0
220
0.0
230
1.0
 62
     0
 70
     0
 71
     3
 72
     8
 73
4
 40
0.0
 40
0.0
 40
0.0
 40
0.0
 40
1.0
 40
1.0
 40
1.0
 40
1.0
 10
149.374
 20
410.259
 30
0.0
 10
149.389
 20
410.358
 30
0.0
 10
149.38
 20
410.482
 30
0.0
 10
149.35
 20
410.598
 30
0.0
  0
SPLINE
  5
201
100
AcDbEntity
  8
0
100
AcDbSpline
210
0.0
220
0.0
230
1.0
 62
     0
 70
     0
 71
     3
 72
     8
 73
4
 40
0.0
 40
0.0
 40
0.0
 40
0.0
 40
1.0
 40
1.0
 40
1.0
 40
1.0
 10
149.35
 20
410.598
 30
0.0
 10
149.32
 20
410.714
 30
0.0
 10
149.271
 20
410.827
 30
0.0
 10
149.213
 20
410.901
 30
0.0
  0
SPLINE
  5
202
100
AcDbEntity
  8
0
100
AcDbSpline
210
0.0
220
0.0
230
1.0
 62
     0
 70
     0
 71
     3
 72
     8
 73
4
 40
0.0
 40
0.0
 40
0.0
 40
0.0
 40
1.0
 40
1.0
 40
1.0
 40
1.0
 10
149.213
 20
410.901
 30
0.0
 10
149.146
 20
410.99
 30
0.0
 10
149.071
 20
411.032
 30
0.0
 10
149.009
 20
411.018
 30
0.0
  0
SPLINE
  5
203
100
AcDbEntity
  8
0
100
AcDbSpline
210
0.0
220
0.0
230
1.0
 62
     0
 70
     0
 71
     3
 72
     8
 73
4
 40
0.0
 40
0.0
 40
0.0
 40
0.0
 40
1.0
 40
1.0
 40
1.0
 40
1.0
 10
149.009
 20
411.018
 30
0.0
 10
148.923
 20
410.997
 30
0.0
 10
148.865
 20
410.87
 30
0.0
 10
148.867
 20
410.697
 30
0.0
  0
LINE
  5
204
100
AcDbEntity
  8
0
100
AcDbLine
 62
     0
 10
148.609
 20
418.218
 30
0.0
 11
149.466
 21
419.34
 31
0.0
  0
LINE
  5
205
100
AcDbEntity
  8
0
100
AcDbLine
 62
     0
 10
149.466
 20
419.34
 30
0.0
 11
150.496
 21
418.666
 31
0.0
  0
LINE
  5
206
100
AcDbEntity
  8
0
100
AcDbLine
 62
     0
 10
157.185
 20
421.164
 30
0.0
 11
149.466
 21
419.34
 31
0.0
  0
LINE
  5
207
100
AcDbEntity
  8
0
100
AcDbLine
 62
     0
 10
158.213
 20
420.49
 30
0.0
 11
157.185
 21
421.164
 31
0.0
  0
SPLINE
  5
208
100
AcDbEntity
  8
0
100
AcDbSpline
210
0.0
220
0.0
230
1.0
 62
     0
 70
     0
 71
     3
 72
     8
 73
4
 40
0.0
 40
0.0
 40
0.0
 40
0.0
 40
1.0
 40
1.0
 40
1.0
 40
1.0
 10
153.925
 20
415.357
 30
0.0
 10
154.318
 20
415.537
 30
0.0
 10
154.603
 20
415.971
 30
0.0
 10
154.612
 20
416.401
 30
0.0
  0
SPLINE
  5
209
100
AcDbEntity
  8
0
100
AcDbSpline
210
0.0
220
0.0
230
1.0
 62
     0
 70
     0
 71
     3
 72
     8
 73
4
 40
0.0
 40
0.0
 40
0.0
 40
0.0
 40
1.0
 40
1.0
 40
1.0
 40
1.0
 10
153.925
 20
407.088
 30
0.0
 10
154.318
 20
407.264
 30
0.0
 10
154.603
 20
407.698
 30
0.0
 10
154.612
 20
408.132
 30
0.0
  0
LINE
  5
20a
100
AcDbEntity
  8
0
100
AcDbLine
 62
     0
 10
328.138
 20
170.378
 30
0.0
 11
296.318
 21
196.357
 31
0.0
  0
LINE
  5
20b
100
AcDbEntity
  8
0
100
AcDbLine
 62
     0
 10
328.138
 20
170.378
 30
0.0
 11
328.138
 21
148.726
 31
0.0
  0
LINE
  5
20c
100
AcDbEntity
  8
0
100
AcDbLine
 62
     0
 10
296.318
 20
196.357
 30
0.0
 11
296.318
 21
184.81
 31
0.0
  0
LINE
  5
20d
100
AcDbEntity
  8
0
100
AcDbLine
 62
     0
 10
328.138
 20
148.726
 30
0.0
 11
324.602
 21
151.613
 31
0.0
  0
LINE
  5
20e
100
AcDbEntity
  8
0
100
AcDbLine
 62
     0
 10
319.3
 20
166.047
 30
0.0
 11
319.3
 21
170.378
 31
0.0
  0
LINE
  5
20f
100
AcDbEntity
  8
0
100
AcDbLine
 62
     0
 10
322.836
 20
163.161
 30
0.0
 11
322.836
 21
167.489
 31
0.0
  0
SPLINE
  5
210
100
AcDbEntity
  8
0
100
AcDbSpline
210
0.0
220
0.0
230
1.0
 62
     0
 70
     0
 71
     3
 72
     8
 73
4
 40
0.0
 40
0.0
 40
0.0
 40
0.0
 40
1.0
 40
1.0
 40
1.0
 40
1.0
 10
319.3
 20
170.378
 30
0.0
 10
319.3
 20
170.601
 30
0.0
 10
319.363
 20
170.769
 30
0.0
 10
319.486
 20
170.869
 30
0.0
  0
SPLINE
  5
211
100
AcDbEntity
  8
0
100
AcDbSpline
210
0.0
220
0.0
230
1.0
 62
     0
 70
     0
 71
     3
 72
     8
 73
4
 40
0.0
 40
0.0
 40
0.0
 40
0.0
 40
1.0
 40
1.0
 40
1.0
 40
1.0
 10
319.486
 20
170.869
 30
0.0
 10
319.852
 20
171.169
 30
0.0
 10
320.675
 20
170.811
 30
0.0
 10
321.473
 20
170.006
 30
0.0
  0
SPLINE
  5
212
100
AcDbEntity
  8
0
100
AcDbSpline
210
0.0
220
0.0
230
1.0
 62
     0
 70
     0
 71
     3
 72
     8
 73
4
 40
0.0
 40
0.0
 40
0.0
 40
0.0
 40
1.0
 40
1.0
 40
1.0
 40
1.0
 10
321.473
 20
170.006
 30
0.0
 10
322.271
 20
169.202
 30
0.0
 10
322.836
 20
168.161
 30
0.0
 10
322.836
 20
167.489
 30
0.0
  0
LINE
  5
213
100
AcDbEntity
  8
0
100
AcDbLine
 62
     0
 10
301.622
 20
180.482
 30
0.0
 11
301.622
 21
184.81
 31
0.0
  0
LINE
  5
214
100
AcDbEntity
  8
0
100
AcDbLine
 62
     0
 10
305.157
 20
177.595
 30
0.0
 11
305.157
 21
181.923
 31
0.0
  0
SPLINE
  5
215
100
AcDbEntity
  8
0
100
AcDbSpline
210
0.0
220
0.0
230
1.0
 62
     0
 70
     0
 71
     3
 72
     8
 73
4
 40
0.0
 40
0.0
 40
0.0
 40
0.0
 40
1.0
 40
1.0
 40
1.0
 40
1.0
 10
301.622
 20
184.81
 30
0.0
 10
301.622
 20
185.035
 30
0.0
 10
301.686
 20
185.203
 30
0.0
 10
301.808
 20
185.304
 30
0.0
  0
SPLINE
  5
216
100
AcDbEntity
  8
0
100
AcDbSpline
210
0.0
220
0.0
230
1.0
 62
     0
 70
     0
 71
     3
 72
     8
 73
4
 40
0.0
 40
0.0
 40
0.0
 40
0.0
 40
1.0
 40
1.0
 40
1.0
 40
1.0
 10
301.808
 20
185.304
 30
0.0
 10
302.175
 20
185.602
 30
0.0
 10
302.998
 20
185.244
 30
0.0
 10
303.795
 20
184.439
 30
0.0
  0
SPLINE
  5
217
100
AcDbEntity
  8
0
100
AcDbSpline
210
0.0
220
0.0
230
1.0
 62
     0
 70
     0
 71
     3
 72
     8
 73
4
 40
0.0
 40
0.0
 40
0.0
 40
0.0
 40
1.0
 40
1.0
 40
1.0
 40
1.0
 10
303.795
 20
184.439
 30
0.0
 10
304.593
 20
183.636
 30
0.0
 10
305.157
 20
182.594
 30
0.0
 10
305.157
 20
181.923
 30
0.0
  0
LINE
  5
218
100
AcDbEntity
  8
0
100
AcDbLine
 62
     0
 10
331.675
 20
173.264
 30
0.0
 11
319.3
 21
183.366
 31
0.0
  0
LINE
  5
219
100
AcDbEntity
  8
0
100
AcDbLine
 62
     0
 10
331.675
 20
173.264
 30
0.0
 11
328.138
 21
170.378
 31
0.0
  0
LINE
  5
21a
100
AcDbEntity
  8
0
100
AcDbLine
 62
     0
 10
319.3
 20
183.366
 30
0.0
 11
312.229
 21
189.14
 31
0.0
  0
LINE
  5
21b
100
AcDbEntity
  8
0
100
AcDbLine
 62
     0
 10
312.229
 20
189.14
 30
0.0
 11
299.854
 21
199.244
 31
0.0
  0
LINE
  5
21c
100
AcDbEntity
  8
0
100
AcDbLine
 62
     0
 10
299.854
 20
199.244
 30
0.0
 11
296.318
 21
196.357
 31
0.0
  0
LINE
  5
21d
100
AcDbEntity
  8
0
100
AcDbLine
 62
     0
 10
328.138
 20
148.726
 30
0.0
 11
345.816
 21
163.161
 31
0.0
  0
LINE
  5
21e
100
AcDbEntity
  8
0
100
AcDbLine
 62
     0
 10
345.816
 20
163.161
 30
0.0
 11
345.816
 21
166.047
 31
0.0
  0
LINE
  5
21f
100
AcDbEntity
  8
0
100
AcDbLine
 62
     0
 10
345.816
 20
166.047
 30
0.0
 11
331.675
 21
154.499
 31
0.0
  0
LINE
  5
220
100
AcDbEntity
  8
0
100
AcDbLine
 62
     0
 10
331.675
 20
154.499
 30
0.0
 11
331.675
 21
173.264
 31
0.0
  0
LINE
  5
221
100
AcDbEntity
  8
0
100
AcDbLine
 62
     0
 10
313.995
 20
192.027
 30
0.0
 11
311.344
 21
189.862
 31
0.0
  0
LINE
  5
222
100
AcDbEntity
  8
0
100
AcDbLine
 62
     0
 10
319.3
 20
170.378
 30
0.0
 11
319.3
 21
170.378
 31
0.0
  0
LINE
  5
223
100
AcDbEntity
  8
0
100
AcDbLine
 62
     0
 10
322.836
 20
186.254
 30
0.0
 11
315.764
 21
192.027
 31
0.0
  0
LINE
  5
224
100
AcDbEntity
  8
0
100
AcDbLine
 62
     0
 10
322.836
 20
186.254
 30
0.0
 11
319.3
 21
183.366
 31
0.0
  0
LINE
  5
225
100
AcDbEntity
  8
0
100
AcDbLine
 62
     0
 10
315.764
 20
192.027
 30
0.0
 11
312.229
 21
189.14
 31
0.0
  0
LINE
  5
226
100
AcDbEntity
  8
0
100
AcDbLine
 62
     0
 10
345.816
 20
166.047
 30
0.0
 11
333.441
 21
176.149
 31
0.0
  0
LINE
  5
227
100
AcDbEntity
  8
0
100
AcDbLine
 62
     0
 10
314.88
 20
191.305
 30
0.0
 11
313.995
 21
192.027
 31
0.0
  0
LINE
  5
228
100
AcDbEntity
  8
0
100
AcDbLine
 62
     0
 10
330.79
 20
173.986
 30
0.0
 11
333.441
 21
176.149
 31
0.0
  0
LINE
  5
229
100
AcDbEntity
  8
0
100
AcDbLine
 62
     0
 10
333.441
 20
176.149
 30
0.0
 11
333.441
 21
179.038
 31
0.0
  0
LINE
  5
22a
100
AcDbEntity
  8
0
100
AcDbLine
 62
     0
 10
333.441
 20
179.038
 30
0.0
 11
322.836
 21
186.254
 31
0.0
  0
LINE
  5
22b
100
AcDbEntity
  8
0
100
AcDbLine
 62
     0
 10
333.441
 20
179.038
 30
0.0
 11
326.371
 21
184.81
 31
0.0
  0
LINE
  5
22c
100
AcDbEntity
  8
0
100
AcDbLine
 62
     0
 10
326.371
 20
184.81
 30
0.0
 11
315.764
 21
192.027
 31
0.0
  0
SPLINE
  5
22d
100
AcDbEntity
  8
0
100
AcDbSpline
210
0.0
220
0.0
230
1.0
 62
     0
 70
     0
 71
     3
 72
     8
 73
4
 40
0.0
 40
0.0
 40
0.0
 40
0.0
 40
1.0
 40
1.0
 40
1.0
 40
1.0
 10
324.416
 20
115.036
 30
0.0
 10
324.539
 20
115.135
 30
0.0
 10
324.602
 20
115.305
 30
0.0
 10
324.602
 20
115.528
 30
0.0
  0
LINE
  5
22e
100
AcDbEntity
  8
0
100
AcDbLine
 62
     0
 10
324.602
 20
115.528
 30
0.0
 11
324.602
 21
160.273
 31
0.0
  0
LINE
  5
22f
100
AcDbEntity
  8
0
100
AcDbLine
 62
     0
 10
289.247
 20
190.583
 30
0.0
 11
322.836
 21
163.161
 31
0.0
  0
SPLINE
  5
230
100
AcDbEntity
  8
0
100
AcDbSpline
210
0.0
220
0.0
230
1.0
 62
     0
 70
     0
 71
     3
 72
     8
 73
4
 40
0.0
 40
0.0
 40
0.0
 40
0.0
 40
1.0
 40
1.0
 40
1.0
 40
1.0
 10
322.836
 20
163.161
 30
0.0
 10
323.812
 20
162.362
 30
0.0
 10
324.602
 20
161.069
 30
0.0
 10
324.602
 20
160.273
 30
0.0
  0
LINE
  5
231
100
AcDbEntity
  8
0
100
AcDbLine
 62
     0
 10
319.3
 20
112.642
 30
0.0
 11
289.247
 21
137.178
 31
0.0
  0
LINE
  5
232
100
AcDbEntity
  8
0
100
AcDbLine
 62
     0
 10
289.247
 20
137.178
 30
0.0
 11
227.375
 21
86.6606
 31
0.0
  0
SPLINE
  5
233
100
AcDbEntity
  8
0
100
AcDbSpline
210
0.0
220
0.0
230
1.0
 62
     0
 70
     0
 71
     3
 72
     8
 73
4
 40
0.0
 40
0.0
 40
0.0
 40
0.0
 40
1.0
 40
1.0
 40
1.0
 40
1.0
 10
319.3
 20
112.642
 30
0.0
 10
319.969
 20
112.094
 30
0.0
 10
320.581
 20
111.905
 30
0.0
 10
320.88
 20
112.147
 30
0.0
  0
SPLINE
  5
234
100
AcDbEntity
  8
0
100
AcDbSpline
210
0.0
220
0.0
230
1.0
 62
     0
 70
     0
 71
     3
 72
     8
 73
4
 40
0.0
 40
0.0
 40
0.0
 40
0.0
 40
1.0
 40
1.0
 40
1.0
 40
1.0
 10
320.88
 20
112.147
 30
0.0
 10
321.003
 20
112.25
 30
0.0
 10
321.068
 20
112.416
 30
0.0
 10
321.068
 20
112.642
 30
0.0
  0
LINE
  5
235
100
AcDbEntity
  8
0
100
AcDbLine
 62
     0
 10
222.072
 20
89.5477
 30
0.0
 11
222.072
 21
134.293
 31
0.0
  0
SPLINE
  5
236
100
AcDbEntity
  8
0
100
AcDbSpline
210
0.0
220
0.0
230
1.0
 62
     0
 70
     0
 71
     3
 72
     8
 73
4
 40
0.0
 40
0.0
 40
0.0
 40
0.0
 40
1.0
 40
1.0
 40
1.0
 40
1.0
 10
222.26
 20
89.0545
 30
0.0
 10
222.136
 20
89.1551
 30
0.0
 10
222.072
 20
89.323
 30
0.0
 10
222.072
 20
89.5477
 30
0.0
  0
SPLINE
  5
237
100
AcDbEntity
  8
0
100
AcDbSpline
210
0.0
220
0.0
230
1.0
 62
     0
 70
     0
 71
     3
 72
     8
 73
4
 40
0.0
 40
0.0
 40
0.0
 40
0.0
 40
1.0
 40
1.0
 40
1.0
 40
1.0
 10
223.84
 20
137.178
 30
0.0
 10
222.863
 20
136.383
 30
0.0
 10
222.072
 20
135.091
 30
0.0
 10
222.072
 20
134.293
 30
0.0
  0
LINE
  5
238
100
AcDbEntity
  8
0
100
AcDbLine
 62
     0
 10
223.84
 20
137.178
 30
0.0
 11
289.247
 21
190.583
 31
0.0
  0
LINE
  5
239
100
AcDbEntity
  8
0
100
AcDbLine
 62
     0
 10
321.068
 20
112.642
 30
0.0
 11
321.068
 21
157.387
 31
0.0
  0
LINE
  5
23a
100
AcDbEntity
  8
0
100
AcDbLine
 62
     0
 10
319.3
 20
160.273
 30
0.0
 11
289.247
 21
184.81
 31
0.0
  0
LINE
  5
23b
100
AcDbEntity
  8
0
100
AcDbLine
 62
     0
 10
289.247
 20
184.81
 30
0.0
 11
227.375
 21
134.293
 31
0.0
  0
SPLINE
  5
23c
100
AcDbEntity
  8
0
100
AcDbSpline
210
0.0
220
0.0
230
1.0
 62
     0
 70
     0
 71
     3
 72
     8
 73
4
 40
0.0
 40
0.0
 40
0.0
 40
0.0
 40
1.0
 40
1.0
 40
1.0
 40
1.0
 10
319.3
 20
160.273
 30
0.0
 10
320.275
 20
159.476
 30
0.0
 10
321.068
 20
158.184
 30
0.0
 10
321.068
 20
157.387
 30
0.0
  0
SPLINE
  5
23d
100
AcDbEntity
  8
0
100
AcDbSpline
210
0.0
220
0.0
230
1.0
 62
     0
 70
     0
 71
     3
 72
     8
 73
4
 40
0.0
 40
0.0
 40
0.0
 40
0.0
 40
1.0
 40
1.0
 40
1.0
 40
1.0
 10
315.764
 20
158.83
 30
0.0
 10
315.764
 20
159.498
 30
0.0
 10
315.2
 20
160.54
 30
0.0
 10
314.402
 20
161.345
 30
0.0
  0
SPLINE
  5
23e
100
AcDbEntity
  8
0
100
AcDbSpline
210
0.0
220
0.0
230
1.0
 62
     0
 70
     0
 71
     3
 72
     8
 73
4
 40
0.0
 40
0.0
 40
0.0
 40
0.0
 40
1.0
 40
1.0
 40
1.0
 40
1.0
 10
314.402
 20
161.345
 30
0.0
 10
313.604
 20
162.153
 30
0.0
 10
312.782
 20
162.508
 30
0.0
 10
312.415
 20
162.21
 30
0.0
  0
SPLINE
  5
23f
100
AcDbEntity
  8
0
100
AcDbSpline
210
0.0
220
0.0
230
1.0
 62
     0
 70
     0
 71
     3
 72
     8
 73
4
 40
0.0
 40
0.0
 40
0.0
 40
0.0
 40
1.0
 40
1.0
 40
1.0
 40
1.0
 10
312.415
 20
162.21
 30
0.0
 10
311.978
 20
161.853
 30
0.0
 10
312.333
 20
160.697
 30
0.0
 10
313.206
 20
159.626
 30
0.0
  0
SPLINE
  5
240
100
AcDbEntity
  8
0
100
AcDbSpline
210
0.0
220
0.0
230
1.0
 62
     0
 70
     0
 71
     3
 72
     8
 73
4
 40
0.0
 40
0.0
 40
0.0
 40
0.0
 40
1.0
 40
1.0
 40
1.0
 40
1.0
 10
313.206
 20
159.626
 30
0.0
 10
314.078
 20
158.557
 30
0.0
 10
315.141
 20
157.98
 30
0.0
 10
315.578
 20
158.335
 30
0.0
  0
SPLINE
  5
241
100
AcDbEntity
  8
0
100
AcDbSpline
210
0.0
220
0.0
230
1.0
 62
     0
 70
     0
 71
     3
 72
     8
 73
4
 40
0.0
 40
0.0
 40
0.0
 40
0.0
 40
1.0
 40
1.0
 40
1.0
 40
1.0
 10
315.578
 20
158.335
 30
0.0
 10
315.7
 20
158.436
 30
0.0
 10
315.764
 20
158.607
 30
0.0
 10
315.764
 20
158.83
 30
0.0
  0
SPLINE
  5
242
100
AcDbEntity
  8
0
100
AcDbSpline
210
0.0
220
0.0
230
1.0
 62
     0
 70
     0
 71
     3
 72
     8
 73
4
 40
0.0
 40
0.0
 40
0.0
 40
0.0
 40
1.0
 40
1.0
 40
1.0
 40
1.0
 10
298.086
 20
173.264
 30
0.0
 10
298.086
 20
173.932
 30
0.0
 10
297.523
 20
174.974
 30
0.0
 10
296.725
 20
175.78
 30
0.0
  0
SPLINE
  5
243
100
AcDbEntity
  8
0
100
AcDbSpline
210
0.0
220
0.0
230
1.0
 62
     0
 70
     0
 71
     3
 72
     8
 73
4
 40
0.0
 40
0.0
 40
0.0
 40
0.0
 40
1.0
 40
1.0
 40
1.0
 40
1.0
 10
296.725
 20
175.78
 30
0.0
 10
295.927
 20
176.586
 30
0.0
 10
295.104
 20
176.941
 30
0.0
 10
294.738
 20
176.644
 30
0.0
  0
SPLINE
  5
244
100
AcDbEntity
  8
0
100
AcDbSpline
210
0.0
220
0.0
230
1.0
 62
     0
 70
     0
 71
     3
 72
     8
 73
4
 40
0.0
 40
0.0
 40
0.0
 40
0.0
 40
1.0
 40
1.0
 40
1.0
 40
1.0
 10
294.738
 20
176.644
 30
0.0
 10
294.301
 20
176.287
 30
0.0
 10
294.655
 20
175.132
 30
0.0
 10
295.529
 20
174.06
 30
0.0
  0
SPLINE
  5
245
100
AcDbEntity
  8
0
100
AcDbSpline
210
0.0
220
0.0
230
1.0
 62
     0
 70
     0
 71
     3
 72
     8
 73
4
 40
0.0
 40
0.0
 40
0.0
 40
0.0
 40
1.0
 40
1.0
 40
1.0
 40
1.0
 10
295.529
 20
174.06
 30
0.0
 10
296.401
 20
172.991
 30
0.0
 10
297.463
 20
172.413
 30
0.0
 10
297.9
 20
172.77
 30
0.0
  0
SPLINE
  5
246
100
AcDbEntity
  8
0
100
AcDbSpline
210
0.0
220
0.0
230
1.0
 62
     0
 70
     0
 71
     3
 72
     8
 73
4
 40
0.0
 40
0.0
 40
0.0
 40
0.0
 40
1.0
 40
1.0
 40
1.0
 40
1.0
 10
297.9
 20
172.77
 30
0.0
 10
298.023
 20
172.869
 30
0.0
 10
298.086
 20
173.04
 30
0.0
 10
298.086
 20
173.264
 30
0.0
  0
LINE
  5
247
100
AcDbEntity
  8
0
100
AcDbLine
 62
     0
 10
289.247
 20
137.178
 30
0.0
 11
289.247
 21
184.81
 31
0.0
  0
SPLINE
  5
248
100
AcDbEntity
  8
0
100
AcDbSpline
210
0.0
220
0.0
230
1.0
 62
     0
 70
     0
 71
     3
 72
     8
 73
4
 40
0.0
 40
0.0
 40
0.0
 40
0.0
 40
1.0
 40
1.0
 40
1.0
 40
1.0
 10
227.375
 20
86.6606
 30
0.0
 10
226.707
 20
86.1138
 30
0.0
 10
226.094
 20
85.9222
 30
0.0
 10
225.794
 20
86.1688
 30
0.0
  0
SPLINE
  5
249
100
AcDbEntity
  8
0
100
AcDbSpline
210
0.0
220
0.0
230
1.0
 62
     0
 70
     0
 71
     3
 72
     8
 73
4
 40
0.0
 40
0.0
 40
0.0
 40
0.0
 40
1.0
 40
1.0
 40
1.0
 40
1.0
 10
225.794
 20
86.1688
 30
0.0
 10
225.672
 20
86.2693
 30
0.0
 10
225.608
 20
86.4376
 30
0.0
 10
225.608
 20
86.6606
 30
0.0
  0
LINE
  5
24a
100
AcDbEntity
  8
0
100
AcDbLine
 62
     0
 10
225.608
 20
86.6606
 30
0.0
 11
225.608
 21
131.404
 31
0.0
  0
SPLINE
  5
24b
100
AcDbEntity
  8
0
100
AcDbSpline
210
0.0
220
0.0
230
1.0
 62
     0
 70
     0
 71
     3
 72
     8
 73
4
 40
0.0
 40
0.0
 40
0.0
 40
0.0
 40
1.0
 40
1.0
 40
1.0
 40
1.0
 10
227.375
 20
134.293
 30
0.0
 10
226.399
 20
133.495
 30
0.0
 10
225.608
 20
132.202
 30
0.0
 10
225.608
 20
131.404
 30
0.0
  0
SPLINE
  5
24c
100
AcDbEntity
  8
0
100
AcDbSpline
210
0.0
220
0.0
230
1.0
 62
     0
 70
     0
 71
     3
 72
     8
 73
4
 40
0.0
 40
0.0
 40
0.0
 40
0.0
 40
1.0
 40
1.0
 40
1.0
 40
1.0
 10
233.562
 20
96.0423
 30
0.0
 10
232.893
 20
95.4952
 30
0.0
 10
232.281
 20
95.305
 30
0.0
 10
231.982
 20
95.5506
 30
0.0
  0
SPLINE
  5
24d
100
AcDbEntity
  8
0
100
AcDbSpline
210
0.0
220
0.0
230
1.0
 62
     0
 70
     0
 71
     3
 72
     8
 73
4
 40
0.0
 40
0.0
 40
0.0
 40
0.0
 40
1.0
 40
1.0
 40
1.0
 40
1.0
 10
231.982
 20
95.5506
 30
0.0
 10
231.708
 20
95.7721
 30
0.0
 10
231.737
 20
96.3291
 30
0.0
 10
232.059
 20
97.0181
 30
0.0
  0
SPLINE
  5
24e
100
AcDbEntity
  8
0
100
AcDbSpline
210
0.0
220
0.0
230
1.0
 62
     0
 70
     0
 71
     3
 72
     8
 73
4
 40
0.0
 40
0.0
 40
0.0
 40
0.0
 40
1.0
 40
1.0
 40
1.0
 40
1.0
 10
232.059
 20
97.0181
 30
0.0
 10
232.381
 20
97.7071
 30
0.0
 10
232.95
 20
98.4306
 30
0.0
 10
233.562
 20
98.9309
 30
0.0
  0
LINE
  5
24f
100
AcDbEntity
  8
0
100
AcDbLine
 62
     0
 10
233.562
 20
96.0423
 30
0.0
 11
238.867
 21
100.372
 31
0.0
  0
SPLINE
  5
250
100
AcDbEntity
  8
0
100
AcDbSpline
210
0.0
220
0.0
230
1.0
 62
     0
 70
     0
 71
     3
 72
     8
 73
4
 40
0.0
 40
0.0
 40
0.0
 40
0.0
 40
1.0
 40
1.0
 40
1.0
 40
1.0
 10
238.867
 20
103.259
 30
0.0
 10
239.536
 20
103.808
 30
0.0
 10
240.148
 20
103.998
 30
0.0
 10
240.447
 20
103.753
 30
0.0
  0
SPLINE
  5
251
100
AcDbEntity
  8
0
100
AcDbSpline
210
0.0
220
0.0
230
1.0
 62
     0
 70
     0
 71
     3
 72
     8
 73
4
 40
0.0
 40
0.0
 40
0.0
 40
0.0
 40
1.0
 40
1.0
 40
1.0
 40
1.0
 10
240.447
 20
103.753
 30
0.0
 10
240.721
 20
103.529
 30
0.0
 10
240.692
 20
102.974
 30
0.0
 10
240.37
 20
102.285
 30
0.0
  0
SPLINE
  5
252
100
AcDbEntity
  8
0
100
AcDbSpline
210
0.0
220
0.0
230
1.0
 62
     0
 70
     0
 71
     3
 72
     8
 73
4
 40
0.0
 40
0.0
 40
0.0
 40
0.0
 40
1.0
 40
1.0
 40
1.0
 40
1.0
 10
240.37
 20
102.285
 30
0.0
 10
240.047
 20
101.596
 30
0.0
 10
239.478
 20
100.873
 30
0.0
 10
238.867
 20
100.372
 30
0.0
  0
LINE
  5
253
100
AcDbEntity
  8
0
100
AcDbLine
 62
     0
 10
233.562
 20
98.9309
 30
0.0
 11
238.867
 21
103.259
 31
0.0
  0
SPLINE
  5
254
100
AcDbEntity
  8
0
100
AcDbSpline
210
0.0
220
0.0
230
1.0
 62
     0
 70
     0
 71
     3
 72
     8
 73
4
 40
0.0
 40
0.0
 40
0.0
 40
0.0
 40
1.0
 40
1.0
 40
1.0
 40
1.0
 10
260.08
 20
117.693
 30
0.0
 10
259.41
 20
117.146
 30
0.0
 10
258.797
 20
116.955
 30
0.0
 10
258.498
 20
117.201
 30
0.0
  0
SPLINE
  5
255
100
AcDbEntity
  8
0
100
AcDbSpline
210
0.0
220
0.0
230
1.0
 62
     0
 70
     0
 71
     3
 72
     8
 73
4
 40
0.0
 40
0.0
 40
0.0
 40
0.0
 40
1.0
 40
1.0
 40
1.0
 40
1.0
 10
258.498
 20
117.201
 30
0.0
 10
258.224
 20
117.423
 30
0.0
 10
258.254
 20
117.979
 30
0.0
 10
258.575
 20
118.668
 30
0.0
  0
SPLINE
  5
256
100
AcDbEntity
  8
0
100
AcDbSpline
210
0.0
220
0.0
230
1.0
 62
     0
 70
     0
 71
     3
 72
     8
 73
4
 40
0.0
 40
0.0
 40
0.0
 40
0.0
 40
1.0
 40
1.0
 40
1.0
 40
1.0
 10
258.575
 20
118.668
 30
0.0
 10
258.898
 20
119.357
 30
0.0
 10
259.467
 20
120.081
 30
0.0
 10
260.08
 20
120.581
 30
0.0
  0
LINE
  5
257
100
AcDbEntity
  8
0
100
AcDbLine
 62
     0
 10
260.08
 20
117.693
 30
0.0
 11
265.383
 21
122.024
 31
0.0
  0
SPLINE
  5
258
100
AcDbEntity
  8
0
100
AcDbSpline
210
0.0
220
0.0
230
1.0
 62
     0
 70
     0
 71
     3
 72
     8
 73
4
 40
0.0
 40
0.0
 40
0.0
 40
0.0
 40
1.0
 40
1.0
 40
1.0
 40
1.0
 10
265.383
 20
124.909
 30
0.0
 10
266.052
 20
125.458
 30
0.0
 10
266.664
 20
125.648
 30
0.0
 10
266.963
 20
125.404
 30
0.0
  0
SPLINE
  5
259
100
AcDbEntity
  8
0
100
AcDbSpline
210
0.0
220
0.0
230
1.0
 62
     0
 70
     0
 71
     3
 72
     8
 73
4
 40
0.0
 40
0.0
 40
0.0
 40
0.0
 40
1.0
 40
1.0
 40
1.0
 40
1.0
 10
266.963
 20
125.404
 30
0.0
 10
267.237
 20
125.181
 30
0.0
 10
267.208
 20
124.626
 30
0.0
 10
266.886
 20
123.935
 30
0.0
  0
SPLINE
  5
25a
100
AcDbEntity
  8
0
100
AcDbSpline
210
0.0
220
0.0
230
1.0
 62
     0
 70
     0
 71
     3
 72
     8
 73
4
 40
0.0
 40
0.0
 40
0.0
 40
0.0
 40
1.0
 40
1.0
 40
1.0
 40
1.0
 10
266.886
 20
123.935
 30
0.0
 10
266.565
 20
123.246
 30
0.0
 10
265.996
 20
122.523
 30
0.0
 10
265.383
 20
122.024
 30
0.0
  0
LINE
  5
25b
100
AcDbEntity
  8
0
100
AcDbLine
 62
     0
 10
260.08
 20
120.581
 30
0.0
 11
265.383
 21
124.909
 31
0.0
  0
LINE
  5
25c
100
AcDbEntity
  8
0
100
AcDbLine
 62
     0
 10
260.08
 20
153.777
 30
0.0
 11
265.383
 21
158.109
 31
0.0
  0
SPLINE
  5
25d
100
AcDbEntity
  8
0
100
AcDbSpline
210
0.0
220
0.0
230
1.0
 62
     0
 70
     0
 71
     3
 72
     8
 73
4
 40
0.0
 40
0.0
 40
0.0
 40
0.0
 40
1.0
 40
1.0
 40
1.0
 40
1.0
 10
265.383
 20
160.993
 30
0.0
 10
266.052
 20
161.54
 30
0.0
 10
266.664
 20
161.732
 30
0.0
 10
266.963
 20
161.488
 30
0.0
  0
SPLINE
  5
25e
100
AcDbEntity
  8
0
100
AcDbSpline
210
0.0
220
0.0
230
1.0
 62
     0
 70
     0
 71
     3
 72
     8
 73
4
 40
0.0
 40
0.0
 40
0.0
 40
0.0
 40
1.0
 40
1.0
 40
1.0
 40
1.0
 10
266.963
 20
161.488
 30
0.0
 10
267.237
 20
161.265
 30
0.0
 10
267.208
 20
160.71
 30
0.0
 10
266.886
 20
160.021
 30
0.0
  0
SPLINE
  5
25f
100
AcDbEntity
  8
0
100
AcDbSpline
210
0.0
220
0.0
230
1.0
 62
     0
 70
     0
 71
     3
 72
     8
 73
4
 40
0.0
 40
0.0
 40
0.0
 40
0.0
 40
1.0
 40
1.0
 40
1.0
 40
1.0
 10
266.886
 20
160.021
 30
0.0
 10
266.565
 20
159.331
 30
0.0
 10
265.996
 20
158.61
 30
0.0
 10
265.383
 20
158.109
 30
0.0
  0
LINE
  5
260
100
AcDbEntity
  8
0
100
AcDbLine
 62
     0
 10
260.08
 20
156.665
 30
0.0
 11
265.383
 21
160.993
 31
0.0
  0
SPLINE
  5
261
100
AcDbEntity
  8
0
100
AcDbSpline
210
0.0
220
0.0
230
1.0
 62
     0
 70
     0
 71
     3
 72
     8
 73
4
 40
0.0
 40
0.0
 40
0.0
 40
0.0
 40
1.0
 40
1.0
 40
1.0
 40
1.0
 10
260.08
 20
153.777
 30
0.0
 10
259.41
 20
153.231
 30
0.0
 10
258.797
 20
153.04
 30
0.0
 10
258.498
 20
153.286
 30
0.0
  0
SPLINE
  5
262
100
AcDbEntity
  8
0
100
AcDbSpline
210
0.0
220
0.0
230
1.0
 62
     0
 70
     0
 71
     3
 72
     8
 73
4
 40
0.0
 40
0.0
 40
0.0
 40
0.0
 40
1.0
 40
1.0
 40
1.0
 40
1.0
 10
258.498
 20
153.286
 30
0.0
 10
258.224
 20
153.509
 30
0.0
 10
258.254
 20
154.065
 30
0.0
 10
258.575
 20
154.752
 30
0.0
  0
SPLINE
  5
263
100
AcDbEntity
  8
0
100
AcDbSpline
210
0.0
220
0.0
230
1.0
 62
     0
 70
     0
 71
     3
 72
     8
 73
4
 40
0.0
 40
0.0
 40
0.0
 40
0.0
 40
1.0
 40
1.0
 40
1.0
 40
1.0
 10
258.575
 20
154.752
 30
0.0
 10
258.898
 20
155.44
 30
0.0
 10
259.467
 20
156.165
 30
0.0
 10
260.08
 20
156.665
 30
0.0
  0
LINE
  5
264
100
AcDbEntity
  8
0
100
AcDbLine
 62
     0
 10
233.562
 20
135.015
 30
0.0
 11
238.867
 21
139.343
 31
0.0
  0
SPLINE
  5
265
100
AcDbEntity
  8
0
100
AcDbSpline
210
0.0
220
0.0
230
1.0
 62
     0
 70
     0
 71
     3
 72
     8
 73
4
 40
0.0
 40
0.0
 40
0.0
 40
0.0
 40
1.0
 40
1.0
 40
1.0
 40
1.0
 10
233.562
 20
132.126
 30
0.0
 10
232.893
 20
131.579
 30
0.0
 10
232.281
 20
131.389
 30
0.0
 10
231.982
 20
131.634
 30
0.0
  0
SPLINE
  5
266
100
AcDbEntity
  8
0
100
AcDbSpline
210
0.0
220
0.0
230
1.0
 62
     0
 70
     0
 71
     3
 72
     8
 73
4
 40
0.0
 40
0.0
 40
0.0
 40
0.0
 40
1.0
 40
1.0
 40
1.0
 40
1.0
 10
231.982
 20
131.634
 30
0.0
 10
231.708
 20
131.858
 30
0.0
 10
231.737
 20
132.414
 30
0.0
 10
232.059
 20
133.102
 30
0.0
  0
SPLINE
  5
267
100
AcDbEntity
  8
0
100
AcDbSpline
210
0.0
220
0.0
230
1.0
 62
     0
 70
     0
 71
     3
 72
     8
 73
4
 40
0.0
 40
0.0
 40
0.0
 40
0.0
 40
1.0
 40
1.0
 40
1.0
 40
1.0
 10
232.059
 20
133.102
 30
0.0
 10
232.381
 20
133.79
 30
0.0
 10
232.95
 20
134.515
 30
0.0
 10
233.562
 20
135.015
 30
0.0
  0
LINE
  5
268
100
AcDbEntity
  8
0
100
AcDbLine
 62
     0
 10
233.562
 20
132.126
 30
0.0
 11
238.867
 21
136.458
 31
0.0
  0
SPLINE
  5
269
100
AcDbEntity
  8
0
100
AcDbSpline
210
0.0
220
0.0
230
1.0
 62
     0
 70
     0
 71
     3
 72
     8
 73
4
 40
0.0
 40
0.0
 40
0.0
 40
0.0
 40
1.0
 40
1.0
 40
1.0
 40
1.0
 10
238.867
 20
139.343
 30
0.0
 10
239.536
 20
139.892
 30
0.0
 10
240.148
 20
140.08
 30
0.0
 10
240.447
 20
139.838
 30
0.0
  0
SPLINE
  5
26a
100
AcDbEntity
  8
0
100
AcDbSpline
210
0.0
220
0.0
230
1.0
 62
     0
 70
     0
 71
     3
 72
     8
 73
4
 40
0.0
 40
0.0
 40
0.0
 40
0.0
 40
1.0
 40
1.0
 40
1.0
 40
1.0
 10
240.447
 20
139.838
 30
0.0
 10
240.721
 20
139.615
 30
0.0
 10
240.692
 20
139.059
 30
0.0
 10
240.37
 20
138.369
 30
0.0
  0
SPLINE
  5
26b
100
AcDbEntity
  8
0
100
AcDbSpline
210
0.0
220
0.0
230
1.0
 62
     0
 70
     0
 71
     3
 72
     8
 73
4
 40
0.0
 40
0.0
 40
0.0
 40
0.0
 40
1.0
 40
1.0
 40
1.0
 40
1.0
 10
240.37
 20
138.369
 30
0.0
 10
240.047
 20
137.68
 30
0.0
 10
239.478
 20
136.958
 30
0.0
 10
238.867
 20
136.458
 30
0.0
  0
LINE
  5
26c
100
AcDbEntity
  8
0
100
AcDbLine
 62
     0
 10
324.416
 20
115.036
 30
0.0
 11
320.88
 21
112.147
 31
0.0
  0
LINE
  5
26d
100
AcDbEntity
  8
0
100
AcDbLine
 62
     0
 10
225.794
 20
86.1688
 30
0.0
 11
222.26
 21
89.0545
 31
0.0
  0
LINE
  5
26e
100
AcDbEntity
  8
0
100
AcDbLine
 62
     0
 10
40.652
 20
221.742
 30
0.0
 11
40.652
 21
184.242
 31
0.0
  0
LINE
  5
26f
100
AcDbEntity
  8
0
100
AcDbLine
 62
     0
 10
45.653
 20
221.742
 30
0.0
 11
40.652
 21
221.742
 31
0.0
  0
LINE
  5
270
100
AcDbEntity
  8
0
100
AcDbLine
 62
     0
 10
40.652
 20
184.242
 30
0.0
 11
65.6527
 21
184.242
 31
0.0
  0
LINE
  5
271
100
AcDbEntity
  8
0
100
AcDbLine
 62
     0
 10
65.6527
 20
184.242
 30
0.0
 11
65.6527
 21
189.242
 31
0.0
  0
LINE
  5
272
100
AcDbEntity
  8
0
100
AcDbLine
 62
     0
 10
65.6527
 20
189.242
 30
0.0
 11
45.653
 21
189.242
 31
0.0
  0
LINE
  5
273
100
AcDbEntity
  8
0
100
AcDbLine
 62
     0
 10
45.653
 20
189.242
 30
0.0
 11
45.653
 21
221.742
 31
0.0
  0
LINE
  5
274
100
AcDbEntity
  8
0
100
AcDbLine
 62
     0
 10
50.6525
 20
221.742
 30
0.0
 11
45.653
 21
221.742
 31
0.0
  0
LINE
  5
275
100
AcDbEntity
  8
0
100
AcDbLine
 62
     0
 10
65.6527
 20
189.242
 30
0.0
 11
65.6527
 21
194.24
 31
0.0
  0
LINE
  5
276
100
AcDbEntity
  8
0
100
AcDbLine
 62
     0
 10
65.6527
 20
194.24
 30
0.0
 11
50.6525
 21
221.742
 31
0.0
  0
LINE
  5
277
100
AcDbEntity
  8
0
100
AcDbLine
 62
     0
 10
40.652
 20
120.492
 30
0.0
 11
40.652
 21
165.49
 31
0.0
  0
LINE
  5
278
100
AcDbEntity
  8
0
100
AcDbLine
 62
     0
 10
45.653
 20
120.492
 30
0.0
 11
45.653
 21
137.99
 31
0.0
  0
LINE
  5
279
100
AcDbEntity
  8
0
100
AcDbLine
 62
     0
 10
45.653
 20
120.492
 30
0.0
 11
40.652
 21
120.492
 31
0.0
  0
LINE
  5
27a
100
AcDbEntity
  8
0
100
AcDbLine
 62
     0
 10
45.653
 20
137.99
 30
0.0
 11
45.653
 21
140.49
 31
0.0
  0
LINE
  5
27b
100
AcDbEntity
  8
0
100
AcDbLine
 62
     0
 10
45.653
 20
140.49
 30
0.0
 11
45.653
 21
145.492
 31
0.0
  0
LINE
  5
27c
100
AcDbEntity
  8
0
100
AcDbLine
 62
     0
 10
45.653
 20
165.49
 30
0.0
 11
40.652
 21
165.49
 31
0.0
  0
LINE
  5
27d
100
AcDbEntity
  8
0
100
AcDbLine
 62
     0
 10
45.653
 20
145.492
 30
0.0
 11
45.653
 21
147.992
 31
0.0
  0
LINE
  5
27e
100
AcDbEntity
  8
0
100
AcDbLine
 62
     0
 10
45.653
 20
147.992
 30
0.0
 11
45.653
 21
165.49
 31
0.0
  0
LINE
  5
27f
100
AcDbEntity
  8
0
100
AcDbLine
 62
     0
 10
65.6527
 20
120.492
 30
0.0
 11
45.653
 21
120.492
 31
0.0
  0
LINE
  5
280
100
AcDbEntity
  8
0
100
AcDbLine
 62
     0
 10
65.6527
 20
165.49
 30
0.0
 11
45.653
 21
165.49
 31
0.0
  0
LINE
  5
281
100
AcDbEntity
  8
0
100
AcDbLine
 62
     0
 10
50.6525
 20
137.99
 30
0.0
 11
45.653
 21
137.99
 31
0.0
  0
LINE
  5
282
100
AcDbEntity
  8
0
100
AcDbLine
 62
     0
 10
45.653
 20
140.49
 30
0.0
 11
50.6525
 21
140.49
 31
0.0
  0
LINE
  5
283
100
AcDbEntity
  8
0
100
AcDbLine
 62
     0
 10
50.6525
 20
137.99
 30
0.0
 11
50.6525
 21
140.49
 31
0.0
  0
LINE
  5
284
100
AcDbEntity
  8
0
100
AcDbLine
 62
     0
 10
45.653
 20
145.492
 30
0.0
 11
50.6525
 21
145.492
 31
0.0
  0
LINE
  5
285
100
AcDbEntity
  8
0
100
AcDbLine
 62
     0
 10
50.6525
 20
147.992
 30
0.0
 11
45.653
 21
147.992
 31
0.0
  0
LINE
  5
286
100
AcDbEntity
  8
0
100
AcDbLine
 62
     0
 10
50.6525
 20
145.492
 30
0.0
 11
50.6525
 21
147.992
 31
0.0
  0
LINE
  5
287
100
AcDbEntity
  8
0
100
AcDbLine
 62
     0
 10
65.6527
 20
120.492
 30
0.0
 11
65.6527
 21
137.99
 31
0.0
  0
LINE
  5
288
100
AcDbEntity
  8
0
100
AcDbLine
 62
     0
 10
65.6527
 20
147.992
 30
0.0
 11
65.6527
 21
165.49
 31
0.0
  0
LINE
  5
289
100
AcDbEntity
  8
0
100
AcDbLine
 62
     0
 10
65.6527
 20
140.49
 30
0.0
 11
65.6527
 21
145.492
 31
0.0
  0
LINE
  5
28a
100
AcDbEntity
  8
0
100
AcDbLine
 62
     0
 10
65.6527
 20
137.99
 30
0.0
 11
50.6525
 21
137.99
 31
0.0
  0
LINE
  5
28b
100
AcDbEntity
  8
0
100
AcDbLine
 62
     0
 10
50.6525
 20
140.49
 30
0.0
 11
65.6527
 21
140.49
 31
0.0
  0
LINE
  5
28c
100
AcDbEntity
  8
0
100
AcDbLine
 62
     0
 10
65.6527
 20
137.99
 30
0.0
 11
65.6527
 21
140.49
 31
0.0
  0
LINE
  5
28d
100
AcDbEntity
  8
0
100
AcDbLine
 62
     0
 10
50.6525
 20
145.492
 30
0.0
 11
65.6527
 21
145.492
 31
0.0
  0
LINE
  5
28e
100
AcDbEntity
  8
0
100
AcDbLine
 62
     0
 10
65.6527
 20
147.992
 30
0.0
 11
50.6525
 21
147.992
 31
0.0
  0
LINE
  5
28f
100
AcDbEntity
  8
0
100
AcDbLine
 62
     0
 10
65.6527
 20
145.492
 30
0.0
 11
65.6527
 21
147.992
 31
0.0
  0
LINE
  5
290
100
AcDbEntity
  8
0
100
AcDbLine
 62
     0
 10
70.7817
 20
41.8553
 30
0.0
 11
70.7817
 21
42.8544
 31
0.0
  0
LINE
  5
291
100
AcDbEntity
  8
0
100
AcDbLine
 62
     0
 10
70.7817
 20
42.8544
 30
0.0
 11
70.7817
 21
73.8547
 31
0.0
  0
LINE
  5
292
100
AcDbEntity
  8
0
100
AcDbLine
 62
     0
 10
70.7817
 20
74.8552
 30
0.0
 11
70.7817
 21
73.8547
 31
0.0
  0
LINE
  5
293
100
AcDbEntity
  8
0
100
AcDbLine
 62
     0
 10
70.7817
 20
41.8553
 30
0.0
 11
68.7821
 21
41.8553
 31
0.0
  0
LINE
  5
294
100
AcDbEntity
  8
0
100
AcDbLine
 62
     0
 10
68.7821
 20
41.8553
 30
0.0
 11
33.7812
 21
41.8553
 31
0.0
  0
LINE
  5
295
100
AcDbEntity
  8
0
100
AcDbLine
 62
     0
 10
68.7821
 20
41.8553
 30
0.0
 11
68.7821
 21
42.8544
 31
0.0
  0
LINE
  5
296
100
AcDbEntity
  8
0
100
AcDbLine
 62
     0
 10
68.7821
 20
42.8544
 30
0.0
 11
68.7821
 21
73.8547
 31
0.0
  0
LINE
  5
297
100
AcDbEntity
  8
0
100
AcDbLine
 62
     0
 10
70.7817
 20
74.8552
 30
0.0
 11
68.7821
 21
74.8552
 31
0.0
  0
LINE
  5
298
100
AcDbEntity
  8
0
100
AcDbLine
 62
     0
 10
68.7821
 20
74.8552
 30
0.0
 11
33.7812
 21
74.8552
 31
0.0
  0
LINE
  5
299
100
AcDbEntity
  8
0
100
AcDbLine
 62
     0
 10
68.7821
 20
74.8552
 30
0.0
 11
68.7821
 21
73.8547
 31
0.0
  0
SPLINE
  5
29a
100
AcDbEntity
  8
0
100
AcDbSpline
210
0.0
220
0.0
230
1.0
 62
     0
 70
     0
 71
     3
 72
     8
 73
4
 40
0.0
 40
0.0
 40
0.0
 40
0.0
 40
1.0
 40
1.0
 40
1.0
 40
1.0
 10
33.7812
 20
41.8553
 30
0.0
 10
33.23
 20
41.8553
 30
0.0
 10
32.7822
 20
42.3016
 30
0.0
 10
32.7822
 20
42.8544
 30
0.0
  0
LINE
  5
29b
100
AcDbEntity
  8
0
100
AcDbLine
 62
     0
 10
32.7822
 20
42.8544
 30
0.0
 11
32.7822
 21
73.8547
 31
0.0
  0
SPLINE
  5
29c
100
AcDbEntity
  8
0
100
AcDbSpline
210
0.0
220
0.0
230
1.0
 62
     0
 70
     0
 71
     3
 72
     8
 73
4
 40
0.0
 40
0.0
 40
0.0
 40
0.0
 40
1.0
 40
1.0
 40
1.0
 40
1.0
 10
33.7812
 20
74.8552
 30
0.0
 10
33.23
 20
74.8552
 30
0.0
 10
32.7822
 20
74.4086
 30
0.0
 10
32.7822
 20
73.8547
 30
0.0
  0
SPLINE
  5
29d
100
AcDbEntity
  8
0
100
AcDbSpline
210
0.0
220
0.0
230
1.0
 62
     0
 70
     0
 71
     3
 72
     8
 73
4
 40
0.0
 40
0.0
 40
0.0
 40
0.0
 40
1.0
 40
1.0
 40
1.0
 40
1.0
 10
37.2816
 20
44.8539
 30
0.0
 10
36.7288
 20
44.8539
 30
0.0
 10
36.2825
 20
45.3016
 30
0.0
 10
36.2825
 20
45.8541
 30
0.0
  0
SPLINE
  5
29e
100
AcDbEntity
  8
0
100
AcDbSpline
210
0.0
220
0.0
230
1.0
 62
     0
 70
     0
 71
     3
 72
     8
 73
4
 40
0.0
 40
0.0
 40
0.0
 40
0.0
 40
1.0
 40
1.0
 40
1.0
 40
1.0
 10
36.2825
 20
45.8541
 30
0.0
 10
36.2825
 20
46.4083
 30
0.0
 10
36.7288
 20
46.8545
 30
0.0
 10
37.2816
 20
46.8545
 30
0.0
  0
LINE
  5
29f
100
AcDbEntity
  8
0
100
AcDbLine
 62
     0
 10
37.2816
 20
44.8539
 30
0.0
 11
40.2816
 21
44.8539
 31
0.0
  0
SPLINE
  5
2a0
100
AcDbEntity
  8
0
100
AcDbSpline
210
0.0
220
0.0
230
1.0
 62
     0
 70
     0
 71
     3
 72
     8
 73
4
 40
0.0
 40
0.0
 40
0.0
 40
0.0
 40
1.0
 40
1.0
 40
1.0
 40
1.0
 10
40.2816
 20
46.8545
 30
0.0
 10
40.834
 20
46.8545
 30
0.0
 10
41.2821
 20
46.4083
 30
0.0
 10
41.2821
 20
45.8541
 30
0.0
  0
SPLINE
  5
2a1
100
AcDbEntity
  8
0
100
AcDbSpline
210
0.0
220
0.0
230
1.0
 62
     0
 70
     0
 71
     3
 72
     8
 73
4
 40
0.0
 40
0.0
 40
0.0
 40
0.0
 40
1.0
 40
1.0
 40
1.0
 40
1.0
 10
41.2821
 20
45.8541
 30
0.0
 10
41.2821
 20
45.3016
 30
0.0
 10
40.834
 20
44.8539
 30
0.0
 10
40.2816
 20
44.8539
 30
0.0
  0
LINE
  5
2a2
100
AcDbEntity
  8
0
100
AcDbLine
 62
     0
 10
37.2816
 20
46.8545
 30
0.0
 11
40.2816
 21
46.8545
 31
0.0
  0
SPLINE
  5
2a3
100
AcDbEntity
  8
0
100
AcDbSpline
210
0.0
220
0.0
230
1.0
 62
     0
 70
     0
 71
     3
 72
     8
 73
4
 40
0.0
 40
0.0
 40
0.0
 40
0.0
 40
1.0
 40
1.0
 40
1.0
 40
1.0
 10
52.2813
 20
44.8539
 30
0.0
 10
51.7303
 20
44.8539
 30
0.0
 10
51.2822
 20
45.3016
 30
0.0
 10
51.2822
 20
45.8541
 30
0.0
  0
SPLINE
  5
2a4
100
AcDbEntity
  8
0
100
AcDbSpline
210
0.0
220
0.0
230
1.0
 62
     0
 70
     0
 71
     3
 72
     8
 73
4
 40
0.0
 40
0.0
 40
0.0
 40
0.0
 40
1.0
 40
1.0
 40
1.0
 40
1.0
 10
51.2822
 20
45.8541
 30
0.0
 10
51.2822
 20
46.4083
 30
0.0
 10
51.7303
 20
46.8545
 30
0.0
 10
52.2813
 20
46.8545
 30
0.0
  0
LINE
  5
2a5
100
AcDbEntity
  8
0
100
AcDbLine
 62
     0
 10
52.2813
 20
44.8539
 30
0.0
 11
55.2813
 21
44.8539
 31
0.0
  0
SPLINE
  5
2a6
100
AcDbEntity
  8
0
100
AcDbSpline
210
0.0
220
0.0
230
1.0
 62
     0
 70
     0
 71
     3
 72
     8
 73
4
 40
0.0
 40
0.0
 40
0.0
 40
0.0
 40
1.0
 40
1.0
 40
1.0
 40
1.0
 10
55.2813
 20
46.8545
 30
0.0
 10
55.8341
 20
46.8545
 30
0.0
 10
56.2818
 20
46.4083
 30
0.0
 10
56.2818
 20
45.8541
 30
0.0
  0
SPLINE
  5
2a7
100
AcDbEntity
  8
0
100
AcDbSpline
210
0.0
220
0.0
230
1.0
 62
     0
 70
     0
 71
     3
 72
     8
 73
4
 40
0.0
 40
0.0
 40
0.0
 40
0.0
 40
1.0
 40
1.0
 40
1.0
 40
1.0
 10
56.2818
 20
45.8541
 30
0.0
 10
56.2818
 20
45.3016
 30
0.0
 10
55.8341
 20
44.8539
 30
0.0
 10
55.2813
 20
44.8539
 30
0.0
  0
LINE
  5
2a8
100
AcDbEntity
  8
0
100
AcDbLine
 62
     0
 10
52.2813
 20
46.8545
 30
0.0
 11
55.2813
 21
46.8545
 31
0.0
  0
LINE
  5
2a9
100
AcDbEntity
  8
0
100
AcDbLine
 62
     0
 10
52.2813
 20
69.8556
 30
0.0
 11
55.2813
 21
69.8556
 31
0.0
  0
SPLINE
  5
2aa
100
AcDbEntity
  8
0
100
AcDbSpline
210
0.0
220
0.0
230
1.0
 62
     0
 70
     0
 71
     3
 72
     8
 73
4
 40
0.0
 40
0.0
 40
0.0
 40
0.0
 40
1.0
 40
1.0
 40
1.0
 40
1.0
 10
55.2813
 20
71.8552
 30
0.0
 10
55.8341
 20
71.8552
 30
0.0
 10
56.2818
 20
71.4086
 30
0.0
 10
56.2818
 20
70.8561
 30
0.0
  0
SPLINE
  5
2ab
100
AcDbEntity
  8
0
100
AcDbSpline
210
0.0
220
0.0
230
1.0
 62
     0
 70
     0
 71
     3
 72
     8
 73
4
 40
0.0
 40
0.0
 40
0.0
 40
0.0
 40
1.0
 40
1.0
 40
1.0
 40
1.0
 10
56.2818
 20
70.8561
 30
0.0
 10
56.2818
 20
70.3019
 30
0.0
 10
55.8341
 20
69.8556
 30
0.0
 10
55.2813
 20
69.8556
 30
0.0
  0
LINE
  5
2ac
100
AcDbEntity
  8
0
100
AcDbLine
 62
     0
 10
52.2813
 20
71.8552
 30
0.0
 11
55.2813
 21
71.8552
 31
0.0
  0
SPLINE
  5
2ad
100
AcDbEntity
  8
0
100
AcDbSpline
210
0.0
220
0.0
230
1.0
 62
     0
 70
     0
 71
     3
 72
     8
 73
4
 40
0.0
 40
0.0
 40
0.0
 40
0.0
 40
1.0
 40
1.0
 40
1.0
 40
1.0
 10
52.2813
 20
69.8556
 30
0.0
 10
51.7303
 20
69.8556
 30
0.0
 10
51.2822
 20
70.3019
 30
0.0
 10
51.2822
 20
70.8561
 30
0.0
  0
SPLINE
  5
2ae
100
AcDbEntity
  8
0
100
AcDbSpline
210
0.0
220
0.0
230
1.0
 62
     0
 70
     0
 71
     3
 72
     8
 73
4
 40
0.0
 40
0.0
 40
0.0
 40
0.0
 40
1.0
 40
1.0
 40
1.0
 40
1.0
 10
51.2822
 20
70.8561
 30
0.0
 10
51.2822
 20
71.4086
 30
0.0
 10
51.7303
 20
71.8552
 30
0.0
 10
52.2813
 20
71.8552
 30
0.0
  0
LINE
  5
2af
100
AcDbEntity
  8
0
100
AcDbLine
 62
     0
 10
37.2816
 20
71.8552
 30
0.0
 11
40.2816
 21
71.8552
 31
0.0
  0
SPLINE
  5
2b0
100
AcDbEntity
  8
0
100
AcDbSpline
210
0.0
220
0.0
230
1.0
 62
     0
 70
     0
 71
     3
 72
     8
 73
4
 40
0.0
 40
0.0
 40
0.0
 40
0.0
 40
1.0
 40
1.0
 40
1.0
 40
1.0
 10
37.2816
 20
69.8556
 30
0.0
 10
36.7288
 20
69.8556
 30
0.0
 10
36.2825
 20
70.3019
 30
0.0
 10
36.2825
 20
70.8561
 30
0.0
  0
SPLINE
  5
2b1
100
AcDbEntity
  8
0
100
AcDbSpline
210
0.0
220
0.0
230
1.0
 62
     0
 70
     0
 71
     3
 72
     8
 73
4
 40
0.0
 40
0.0
 40
0.0
 40
0.0
 40
1.0
 40
1.0
 40
1.0
 40
1.0
 10
36.2825
 20
70.8561
 30
0.0
 10
36.2825
 20
71.4086
 30
0.0
 10
36.7288
 20
71.8552
 30
0.0
 10
37.2816
 20
71.8552
 30
0.0
  0
LINE
  5
2b2
100
AcDbEntity
  8
0
100
AcDbLine
 62
     0
 10
37.2816
 20
69.8556
 30
0.0
 11
40.2816
 21
69.8556
 31
0.0
  0
SPLINE
  5
2b3
100
AcDbEntity
  8
0
100
AcDbSpline
210
0.0
220
0.0
230
1.0
 62
     0
 70
     0
 71
     3
 72
     8
 73
4
 40
0.0
 40
0.0
 40
0.0
 40
0.0
 40
1.0
 40
1.0
 40
1.0
 40
1.0
 10
40.2816
 20
71.8552
 30
0.0
 10
40.834
 20
71.8552
 30
0.0
 10
41.2821
 20
71.4086
 30
0.0
 10
41.2821
 20
70.8561
 30
0.0
  0
SPLINE
  5
2b4
100
AcDbEntity
  8
0
100
AcDbSpline
210
0.0
220
0.0
230
1.0
 62
     0
 70
     0
 71
     3
 72
     8
 73
4
 40
0.0
 40
0.0
 40
0.0
 40
0.0
 40
1.0
 40
1.0
 40
1.0
 40
1.0
 10
41.2821
 20
70.8561
 30
0.0
 10
41.2821
 20
70.3019
 30
0.0
 10
40.834
 20
69.8556
 30
0.0
 10
40.2816
 20
69.8556
 30
0.0
  0
LINE
  5
2b5
100
AcDbEntity
  8
0
100
AcDbLine
 62
     0
 10
33.7812
 20
40.054
 30
0.0
 11
33.7812
 21
45.6544
 31
0.0
  0
LINE
  5
2b6
100
AcDbEntity
  8
0
100
AcDbLine
 62
     0
 10
36.5813
 20
42.8554
 30
0.0
 11
30.9824
 21
42.8554
 31
0.0
  0
LINE
  5
2b7
100
AcDbEntity
  8
0
100
AcDbLine
 62
     0
 10
33.7812
 20
40.054
 30
0.0
 11
33.7812
 21
45.6544
 31
0.0
  0
LINE
  5
2b8
100
AcDbEntity
  8
0
100
AcDbLine
 62
     0
 10
36.5813
 20
42.8544
 30
0.0
 11
30.9824
 21
42.8544
 31
0.0
  0
LINE
  5
2b9
100
AcDbEntity
  8
0
100
AcDbLine
 62
     0
 10
33.7812
 20
71.0544
 30
0.0
 11
33.7812
 21
76.6547
 31
0.0
  0
LINE
  5
2ba
100
AcDbEntity
  8
0
100
AcDbLine
 62
     0
 10
36.5813
 20
73.8558
 30
0.0
 11
30.9824
 21
73.8558
 31
0.0
  0
LINE
  5
2bb
100
AcDbEntity
  8
0
100
AcDbLine
 62
     0
 10
33.7812
 20
71.0558
 30
0.0
 11
33.7812
 21
76.6561
 31
0.0
  0
LINE
  5
2bc
100
AcDbEntity
  8
0
100
AcDbLine
 62
     0
 10
36.5813
 20
73.8547
 30
0.0
 11
30.9824
 21
73.8547
 31
0.0
  0
LINE
  5
2bd
100
AcDbEntity
  8
0
100
AcDbLine
 62
     0
 10
37.2816
 20
43.0555
 30
0.0
 11
37.2816
 21
48.6558
 31
0.0
  0
LINE
  5
2be
100
AcDbEntity
  8
0
100
AcDbLine
 62
     0
 10
40.0816
 20
45.8541
 30
0.0
 11
34.4813
 21
45.8541
 31
0.0
  0
LINE
  5
2bf
100
AcDbEntity
  8
0
100
AcDbLine
 62
     0
 10
37.2816
 20
43.0555
 30
0.0
 11
37.2816
 21
48.6558
 31
0.0
  0
LINE
  5
2c0
100
AcDbEntity
  8
0
100
AcDbLine
 62
     0
 10
40.0816
 20
45.8541
 30
0.0
 11
34.4813
 21
45.8541
 31
0.0
  0
LINE
  5
2c1
100
AcDbEntity
  8
0
100
AcDbLine
 62
     0
 10
40.2816
 20
43.0555
 30
0.0
 11
40.2816
 21
48.6558
 31
0.0
  0
LINE
  5
2c2
100
AcDbEntity
  8
0
100
AcDbLine
 62
     0
 10
43.0816
 20
45.8541
 30
0.0
 11
37.4812
 21
45.8541
 31
0.0
  0
LINE
  5
2c3
100
AcDbEntity
  8
0
100
AcDbLine
 62
     0
 10
40.2816
 20
43.0555
 30
0.0
 11
40.2816
 21
48.6558
 31
0.0
  0
LINE
  5
2c4
100
AcDbEntity
  8
0
100
AcDbLine
 62
     0
 10
43.0816
 20
45.8541
 30
0.0
 11
37.4812
 21
45.8541
 31
0.0
  0
LINE
  5
2c5
100
AcDbEntity
  8
0
100
AcDbLine
 62
     0
 10
52.2813
 20
43.0555
 30
0.0
 11
52.2813
 21
48.6558
 31
0.0
  0
LINE
  5
2c6
100
AcDbEntity
  8
0
100
AcDbLine
 62
     0
 10
55.0817
 20
45.8541
 30
0.0
 11
49.4813
 21
45.8541
 31
0.0
  0
LINE
  5
2c7
100
AcDbEntity
  8
0
100
AcDbLine
 62
     0
 10
52.2813
 20
43.0555
 30
0.0
 11
52.2813
 21
48.6558
 31
0.0
  0
LINE
  5
2c8
100
AcDbEntity
  8
0
100
AcDbLine
 62
     0
 10
55.0817
 20
45.8541
 30
0.0
 11
49.4813
 21
45.8541
 31
0.0
  0
LINE
  5
2c9
100
AcDbEntity
  8
0
100
AcDbLine
 62
     0
 10
55.2813
 20
43.0555
 30
0.0
 11
55.2813
 21
48.6558
 31
0.0
  0
LINE
  5
2ca
100
AcDbEntity
  8
0
100
AcDbLine
 62
     0
 10
58.0817
 20
45.8541
 30
0.0
 11
52.4813
 21
45.8541
 31
0.0
  0
LINE
  5
2cb
100
AcDbEntity
  8
0
100
AcDbLine
 62
     0
 10
55.2813
 20
43.0555
 30
0.0
 11
55.2813
 21
48.6558
 31
0.0
  0
LINE
  5
2cc
100
AcDbEntity
  8
0
100
AcDbLine
 62
     0
 10
58.0817
 20
45.8541
 30
0.0
 11
52.4813
 21
45.8541
 31
0.0
  0
LINE
  5
2cd
100
AcDbEntity
  8
0
100
AcDbLine
 62
     0
 10
55.2813
 20
68.0544
 30
0.0
 11
55.2813
 21
73.6547
 31
0.0
  0
LINE
  5
2ce
100
AcDbEntity
  8
0
100
AcDbLine
 62
     0
 10
58.0817
 20
70.8561
 30
0.0
 11
52.4813
 21
70.8561
 31
0.0
  0
LINE
  5
2cf
100
AcDbEntity
  8
0
100
AcDbLine
 62
     0
 10
55.2813
 20
68.0544
 30
0.0
 11
55.2813
 21
73.6547
 31
0.0
  0
LINE
  5
2d0
100
AcDbEntity
  8
0
100
AcDbLine
 62
     0
 10
58.0817
 20
70.8561
 30
0.0
 11
52.4813
 21
70.8561
 31
0.0
  0
LINE
  5
2d1
100
AcDbEntity
  8
0
100
AcDbLine
 62
     0
 10
52.2813
 20
68.0544
 30
0.0
 11
52.2813
 21
73.6547
 31
0.0
  0
LINE
  5
2d2
100
AcDbEntity
  8
0
100
AcDbLine
 62
     0
 10
55.0817
 20
70.8561
 30
0.0
 11
49.4813
 21
70.8561
 31
0.0
  0
LINE
  5
2d3
100
AcDbEntity
  8
0
100
AcDbLine
 62
     0
 10
52.2813
 20
68.0544
 30
0.0
 11
52.2813
 21
73.6547
 31
0.0
  0
LINE
  5
2d4
100
AcDbEntity
  8
0
100
AcDbLine
 62
     0
 10
55.0817
 20
70.8561
 30
0.0
 11
49.4813
 21
70.8561
 31
0.0
  0
LINE
  5
2d5
100
AcDbEntity
  8
0
100
AcDbLine
 62
     0
 10
37.2816
 20
68.0544
 30
0.0
 11
37.2816
 21
73.6547
 31
0.0
  0
LINE
  5
2d6
100
AcDbEntity
  8
0
100
AcDbLine
 62
     0
 10
40.0816
 20
70.8561
 30
0.0
 11
34.4813
 21
70.8561
 31
0.0
  0
LINE
  5
2d7
100
AcDbEntity
  8
0
100
AcDbLine
 62
     0
 10
37.2816
 20
68.0544
 30
0.0
 11
37.2816
 21
73.6547
 31
0.0
  0
LINE
  5
2d8
100
AcDbEntity
  8
0
100
AcDbLine
 62
     0
 10
40.0816
 20
70.8561
 30
0.0
 11
34.4813
 21
70.8561
 31
0.0
  0
LINE
  5
2d9
100
AcDbEntity
  8
0
100
AcDbLine
 62
     0
 10
40.2816
 20
68.0544
 30
0.0
 11
40.2816
 21
73.6547
 31
0.0
  0
LINE
  5
2da
100
AcDbEntity
  8
0
100
AcDbLine
 62
     0
 10
43.0816
 20
70.8561
 30
0.0
 11
37.4812
 21
70.8561
 31
0.0
  0
LINE
  5
2db
100
AcDbEntity
  8
0
100
AcDbLine
 62
     0
 10
40.2816
 20
68.0544
 30
0.0
 11
40.2816
 21
73.6547
 31
0.0
  0
LINE
  5
2dc
100
AcDbEntity
  8
0
100
AcDbLine
 62
     0
 10
43.0816
 20
70.8561
 30
0.0
 11
37.4812
 21
70.8561
 31
0.0
  0
LINE
  5
2dd
100
AcDbEntity
  8
0
100
AcDbLine
 62
     0
 10
70.7817
 20
20.3536
 30
0.0
 11
70.7817
 21
1.35599
 31
0.0
  0
LINE
  5
2de
100
AcDbEntity
  8
0
100
AcDbLine
 62
     0
 10
70.7817
 20
1.35599
 30
0.0
 11
70.7817
 21
0.355533
 31
0.0
  0
LINE
  5
2df
100
AcDbEntity
  8
0
100
AcDbLine
 62
     0
 10
33.7812
 20
20.3536
 30
0.0
 11
32.7822
 21
20.3536
 31
0.0
  0
LINE
  5
2e0
100
AcDbEntity
  8
0
100
AcDbLine
 62
     0
 10
33.7812
 20
20.3536
 30
0.0
 11
70.7817
 21
20.3536
 31
0.0
  0
LINE
  5
2e1
100
AcDbEntity
  8
0
100
AcDbLine
 62
     0
 10
70.7817
 20
0.355533
 30
0.0
 11
68.7821
 21
0.355533
 31
0.0
  0
LINE
  5
2e2
100
AcDbEntity
  8
0
100
AcDbLine
 62
     0
 10
68.7821
 20
1.35599
 30
0.0
 11
68.7821
 21
18.3541
 31
0.0
  0
LINE
  5
2e3
100
AcDbEntity
  8
0
100
AcDbLine
 62
     0
 10
68.7821
 20
18.3541
 30
0.0
 11
33.7812
 21
18.3541
 31
0.0
  0
LINE
  5
2e4
100
AcDbEntity
  8
0
100
AcDbLine
 62
     0
 10
68.7821
 20
1.35599
 30
0.0
 11
68.7821
 21
0.355533
 31
0.0
  0
LINE
  5
2e5
100
AcDbEntity
  8
0
100
AcDbLine
 62
     0
 10
33.7812
 20
18.3541
 30
0.0
 11
32.7822
 21
18.3541
 31
0.0
  0
LINE
  5
2e6
100
AcDbEntity
  8
0
100
AcDbLine
 62
     0
 10
32.7822
 20
18.3541
 30
0.0
 11
32.7822
 21
20.3536
 31
0.0
  0
LINE
  5
2e7
100
AcDbEntity
  8
0
100
AcDbLine
 62
     0
 10
113.782
 20
41.8553
 30
0.0
 11
96.7825
 21
41.8553
 31
0.0
  0
LINE
  5
2e8
100
AcDbEntity
  8
0
100
AcDbLine
 62
     0
 10
96.7825
 20
41.8553
 30
0.0
 11
94.7815
 21
41.8553
 31
0.0
  0
SPLINE
  5
2e9
100
AcDbEntity
  8
0
100
AcDbSpline
210
0.0
220
0.0
230
1.0
 62
     0
 70
     0
 71
     3
 72
     8
 73
4
 40
0.0
 40
0.0
 40
0.0
 40
0.0
 40
1.0
 40
1.0
 40
1.0
 40
1.0
 10
113.782
 20
41.8553
 30
0.0
 10
114.335
 20
41.8553
 30
0.0
 10
114.782
 20
42.3016
 30
0.0
 10
114.782
 20
42.8544
 30
0.0
  0
LINE
  5
2ea
100
AcDbEntity
  8
0
100
AcDbLine
 62
     0
 10
94.7815
 20
42.8544
 30
0.0
 11
94.7815
 21
73.8547
 31
0.0
  0
LINE
  5
2eb
100
AcDbEntity
  8
0
100
AcDbLine
 62
     0
 10
94.7815
 20
41.8553
 30
0.0
 11
94.7815
 21
42.8544
 31
0.0
  0
LINE
  5
2ec
100
AcDbEntity
  8
0
100
AcDbLine
 62
     0
 10
94.7815
 20
74.8552
 30
0.0
 11
94.7815
 21
73.8547
 31
0.0
  0
LINE
  5
2ed
100
AcDbEntity
  8
0
100
AcDbLine
 62
     0
 10
114.782
 20
42.8544
 30
0.0
 11
114.782
 21
73.8547
 31
0.0
  0
LINE
  5
2ee
100
AcDbEntity
  8
0
100
AcDbLine
 62
     0
 10
113.782
 20
74.8552
 30
0.0
 11
96.7825
 21
74.8552
 31
0.0
  0
LINE
  5
2ef
100
AcDbEntity
  8
0
100
AcDbLine
 62
     0
 10
96.7825
 20
74.8552
 30
0.0
 11
94.7815
 21
74.8552
 31
0.0
  0
SPLINE
  5
2f0
100
AcDbEntity
  8
0
100
AcDbSpline
210
0.0
220
0.0
230
1.0
 62
     0
 70
     0
 71
     3
 72
     8
 73
4
 40
0.0
 40
0.0
 40
0.0
 40
0.0
 40
1.0
 40
1.0
 40
1.0
 40
1.0
 10
113.782
 20
74.8552
 30
0.0
 10
114.335
 20
74.8552
 30
0.0
 10
114.782
 20
74.4086
 30
0.0
 10
114.782
 20
73.8547
 30
0.0
  0
SPLINE
  5
2f1
100
AcDbEntity
  8
0
100
AcDbSpline
210
0.0
220
0.0
230
1.0
 62
     0
 70
     0
 71
     3
 72
     8
 73
4
 40
0.0
 40
0.0
 40
0.0
 40
0.0
 40
1.0
 40
1.0
 40
1.0
 40
1.0
 10
111.782
 20
71.8552
 30
0.0
 10
111.782
 20
71.3024
 30
0.0
 10
111.335
 20
70.8561
 30
0.0
 10
110.782
 20
70.8561
 30
0.0
  0
SPLINE
  5
2f2
100
AcDbEntity
  8
0
100
AcDbSpline
210
0.0
220
0.0
230
1.0
 62
     0
 70
     0
 71
     3
 72
     8
 73
4
 40
0.0
 40
0.0
 40
0.0
 40
0.0
 40
1.0
 40
1.0
 40
1.0
 40
1.0
 10
110.782
 20
70.8561
 30
0.0
 10
110.229
 20
70.8561
 30
0.0
 10
109.781
 20
71.3024
 30
0.0
 10
109.781
 20
71.8552
 30
0.0
  0
SPLINE
  5
2f3
100
AcDbEntity
  8
0
100
AcDbSpline
210
0.0
220
0.0
230
1.0
 62
     0
 70
     0
 71
     3
 72
     8
 73
4
 40
0.0
 40
0.0
 40
0.0
 40
0.0
 40
1.0
 40
1.0
 40
1.0
 40
1.0
 10
109.781
 20
71.8552
 30
0.0
 10
109.781
 20
72.4062
 30
0.0
 10
110.229
 20
72.8557
 30
0.0
 10
110.782
 20
72.8557
 30
0.0
  0
SPLINE
  5
2f4
100
AcDbEntity
  8
0
100
AcDbSpline
210
0.0
220
0.0
230
1.0
 62
     0
 70
     0
 71
     3
 72
     8
 73
4
 40
0.0
 40
0.0
 40
0.0
 40
0.0
 40
1.0
 40
1.0
 40
1.0
 40
1.0
 10
110.782
 20
72.8557
 30
0.0
 10
111.335
 20
72.8557
 30
0.0
 10
111.782
 20
72.4062
 30
0.0
 10
111.782
 20
71.8552
 30
0.0
  0
SPLINE
  5
2f5
100
AcDbEntity
  8
0
100
AcDbSpline
210
0.0
220
0.0
230
1.0
 62
     0
 70
     0
 71
     3
 72
     8
 73
4
 40
0.0
 40
0.0
 40
0.0
 40
0.0
 40
1.0
 40
1.0
 40
1.0
 40
1.0
 10
101.782
 20
71.8552
 30
0.0
 10
101.782
 20
71.3024
 30
0.0
 10
101.334
 20
70.8561
 30
0.0
 10
100.782
 20
70.8561
 30
0.0
  0
SPLINE
  5
2f6
100
AcDbEntity
  8
0
100
AcDbSpline
210
0.0
220
0.0
230
1.0
 62
     0
 70
     0
 71
     3
 72
     8
 73
4
 40
0.0
 40
0.0
 40
0.0
 40
0.0
 40
1.0
 40
1.0
 40
1.0
 40
1.0
 10
100.782
 20
70.8561
 30
0.0
 10
100.229
 20
70.8561
 30
0.0
 10
99.7825
 20
71.3024
 30
0.0
 10
99.7825
 20
71.8552
 30
0.0
  0
SPLINE
  5
2f7
100
AcDbEntity
  8
0
100
AcDbSpline
210
0.0
220
0.0
230
1.0
 62
     0
 70
     0
 71
     3
 72
     8
 73
4
 40
0.0
 40
0.0
 40
0.0
 40
0.0
 40
1.0
 40
1.0
 40
1.0
 40
1.0
 10
99.7825
 20
71.8552
 30
0.0
 10
99.7825
 20
72.4062
 30
0.0
 10
100.229
 20
72.8557
 30
0.0
 10
100.782
 20
72.8557
 30
0.0
  0
SPLINE
  5
2f8
100
AcDbEntity
  8
0
100
AcDbSpline
210
0.0
220
0.0
230
1.0
 62
     0
 70
     0
 71
     3
 72
     8
 73
4
 40
0.0
 40
0.0
 40
0.0
 40
0.0
 40
1.0
 40
1.0
 40
1.0
 40
1.0
 10
100.782
 20
72.8557
 30
0.0
 10
101.334
 20
72.8557
 30
0.0
 10
101.782
 20
72.4062
 30
0.0
 10
101.782
 20
71.8552
 30
0.0
  0
LINE
  5
2f9
100
AcDbEntity
  8
0
100
AcDbLine
 62
     0
 10
96.7825
 20
41.8553
 30
0.0
 11
96.7825
 21
42.8544
 31
0.0
  0
LINE
  5
2fa
100
AcDbEntity
  8
0
100
AcDbLine
 62
     0
 10
96.7825
 20
42.8544
 30
0.0
 11
96.7825
 21
73.8547
 31
0.0
  0
LINE
  5
2fb
100
AcDbEntity
  8
0
100
AcDbLine
 62
     0
 10
96.7825
 20
74.8552
 30
0.0
 11
96.7825
 21
73.8547
 31
0.0
  0
LINE
  5
2fc
100
AcDbEntity
  8
0
100
AcDbLine
 62
     0
 10
113.782
 20
40.054
 30
0.0
 11
113.782
 21
45.6544
 31
0.0
  0
LINE
  5
2fd
100
AcDbEntity
  8
0
100
AcDbLine
 62
     0
 10
116.582
 20
42.8554
 30
0.0
 11
110.982
 21
42.8554
 31
0.0
  0
LINE
  5
2fe
100
AcDbEntity
  8
0
100
AcDbLine
 62
     0
 10
113.782
 20
40.054
 30
0.0
 11
113.782
 21
45.6544
 31
0.0
  0
LINE
  5
2ff
100
AcDbEntity
  8
0
100
AcDbLine
 62
     0
 10
116.582
 20
42.8544
 30
0.0
 11
110.982
 21
42.8544
 31
0.0
  0
LINE
  5
300
100
AcDbEntity
  8
0
100
AcDbLine
 62
     0
 10
113.782
 20
71.0544
 30
0.0
 11
113.782
 21
76.6547
 31
0.0
  0
LINE
  5
301
100
AcDbEntity
  8
0
100
AcDbLine
 62
     0
 10
116.582
 20
73.8558
 30
0.0
 11
110.982
 21
73.8558
 31
0.0
  0
LINE
  5
302
100
AcDbEntity
  8
0
100
AcDbLine
 62
     0
 10
113.782
 20
71.0558
 30
0.0
 11
113.782
 21
76.6561
 31
0.0
  0
LINE
  5
303
100
AcDbEntity
  8
0
100
AcDbLine
 62
     0
 10
116.582
 20
73.8547
 30
0.0
 11
110.982
 21
73.8547
 31
0.0
  0
LINE
  5
304
100
AcDbEntity
  8
0
100
AcDbLine
 62
     0
 10
110.782
 20
69.0548
 30
0.0
 11
110.782
 21
74.6538
 31
0.0
  0
LINE
  5
305
100
AcDbEntity
  8
0
100
AcDbLine
 62
     0
 10
113.582
 20
71.8552
 30
0.0
 11
107.982
 21
71.8552
 31
0.0
  0
LINE
  5
306
100
AcDbEntity
  8
0
100
AcDbLine
 62
     0
 10
110.782
 20
69.0548
 30
0.0
 11
110.782
 21
74.6538
 31
0.0
  0
LINE
  5
307
100
AcDbEntity
  8
0
100
AcDbLine
 62
     0
 10
113.582
 20
71.8552
 30
0.0
 11
107.982
 21
71.8552
 31
0.0
  0
LINE
  5
308
100
AcDbEntity
  8
0
100
AcDbLine
 62
     0
 10
100.782
 20
69.0548
 30
0.0
 11
100.782
 21
74.6538
 31
0.0
  0
LINE
  5
309
100
AcDbEntity
  8
0
100
AcDbLine
 62
     0
 10
103.582
 20
71.8552
 30
0.0
 11
97.9812
 21
71.8552
 31
0.0
  0
LINE
  5
30a
100
AcDbEntity
  8
0
100
AcDbLine
 62
     0
 10
100.782
 20
69.0548
 30
0.0
 11
100.782
 21
74.6538
 31
0.0
  0
LINE
  5
30b
100
AcDbEntity
  8
0
100
AcDbLine
 62
     0
 10
103.582
 20
71.8552
 30
0.0
 11
97.9812
 21
71.8552
 31
0.0
  0
ENDSEC
  0
SECTION
  2
OBJECTS
  0
DICTIONARY
  5
C
330
0
100
AcDbDictionary
  3
ACAD_GROUP
350
D
  3
ACAD_LAYOUT
350
1A
  3
ACAD_MLINESTYLE
350
17
  3
ACAD_PLOTSETTINGS
350
19
  3
ACAD_PLOTSTYLENAME
350
E
  3
ACDBHEADERROUNDTRIPXREC
350
2F
  0
DICTIONARY
  5
52
330
1F
100
AcDbDictionary
280
     1
  3
ACAD_LAYOUTSELFREF
360
53
  0
DICTIONARY
  5
50
330
1B
100
AcDbDictionary
280
     1
  3
ACAD_LAYOUTSELFREF
360
51
  0
DICTIONARY
  5
D
102
{ACAD_REACTORS
330
C
102
}
330
C
100
AcDbDictionary
  0
DICTIONARY
  5
1A
102
{ACAD_REACTORS
330
C
102
}
330
C
100
AcDbDictionary
  0
DICTIONARY
  5
17
102
{ACAD_REACTORS
330
C
102
}
330
C
100
AcDbDictionary
  3
STANDARD
350
18
  0
DICTIONARY
  5
19
102
{ACAD_REACTORS
330
C
102
}
330
C
100
AcDbDictionary
  0
ACDBDICTIONARYWDFLT
  5
E
102
{ACAD_REACTORS
330
C
102
}
330
C
100
AcDbDictionary
281
     1
  3
Normal
350
F
100
AcDbDictionaryWithDefault
340
F
  0
DICTIONARY
  5
2F
102
{ACAD_REACTORS
330
C
102
}
330
C
100
AcDbDictionary
  3
CEPSNTYPE
350
39
  3
DIMSTYLEDATA
350
3D
  3
FINGERPRINTGUID
350
3A
  3
HYPERLINKBASE
350
32
  3
INSUNITS
350
38
  3
LAYOUTDICT
350
34
  3
LWETCUNION
350
37
  3
PLOTSETDICT
350
35
  3
PLOTSTYLNAMDICT
350
36
  3
PSVPSCALE
350
3C
  3
PUCSBASE
350
40
  3
PUCSORGBACK
350
46
  3
PUCSORGBOTTOM
350
42
  3
PUCSORGFRONT
350
45
  3
PUCSORGLEFT
350
43
  3
PUCSORGRIGHT
350
44
  3
PUCSORGTOP
350
41
  3
PUCSORTHOREF
350
3E
  3
PUCSORTHOVIEW
350
3F
  3
STYLESHEET
350
33
  3
TSTACKALIGN
350
30
  3
TSTACKSIZE
350
31
  3
UCSBASE
350
49
  3
UCSORGBACK
350
4F
  3
UCSORGBOTTOM
350
4B
  3
UCSORGFRONT
350
4E
  3
UCSORGLEFT
350
4C
  3
UCSORGRIGHT
350
4D
  3
UCSORGTOP
350
4A
  3
UCSORTHOREF
350
47
  3
UCSORTHOVIEW
350
48
  3
VERSIONGUID
350
3B
  0
XRECORD
  5
53
102
{ACAD_REACTORS
330
52
102
}
330
52
100
AcDbXrecord
340
1F
  0
XRECORD
  5
51
102
{ACAD_REACTORS
330
50
102
}
330
50
100
AcDbXrecord
340
1B
  0
MLINESTYLE
  5
18
102
{ACAD_REACTORS
330
17
102
}
330
17
100
AcDbMlineStyle
  2
STANDARD
 70
     0
  3

 62
   256
 51
90.0
 52
90.0
 71
     2
 49
0.5
 62
   256
  6
BYLAYER
 49
-0.5
 62
   256
  6
BYLAYER
  0
ACDBPLACEHOLDER
  5
F
102
{ACAD_REACTORS
330
E
102
}
330
E
100
AcDbPlaceHolder
280
     0
  0
XRECORD
  5
39
102
{ACAD_REACTORS
330
2F
102
}
330
2F
100
AcDbXrecord
 90
        0
  0
XRECORD
  5
3D
102
{ACAD_REACTORS
330
2F
102
}
330
2F
100
AcDbXrecord
1000
DSTYLE
1002
{
1070
   278
 70
    44
1002
}
  0
XRECORD
  5
3A
102
{ACAD_REACTORS
330
2F
102
}
330
2F
100
AcDbXrecord
  1
{705446A6-11D0-4548-8F8C-A97DCA50327D}
  0
XRECORD
  5
32
102
{ACAD_REACTORS
330
2F
102
}
330
2F
100
AcDbXrecord
  1

  0
XRECORD
  5
38
102
{ACAD_REACTORS
330
2F
102
}
330
2F
100
AcDbXrecord
 90
        4
  0
XRECORD
  5
34
102
{ACAD_REACTORS
330
2F
102
}
330
2F
100
AcDbXrecord
340
1A
  0
XRECORD
  5
37
102
{ACAD_REACTORS
330
2F
102
}
330
2F
100
AcDbXrecord
 90
    10781
  0
XRECORD
  5
35
102
{ACAD_REACTORS
330
2F
102
}
330
2F
100
AcDbXrecord
340
19
  0
XRECORD
  5
36
102
{ACAD_REACTORS
330
2F
102
}
330
2F
100
AcDbXrecord
340
E
  0
XRECORD
  5
3C
102
{ACAD_REACTORS
330
2F
102
}
330
2F
100
AcDbXrecord
 40
0.0
  0
XRECORD
  5
40
102
{ACAD_REACTORS
330
2F
102
}
330
2F
100
AcDbXrecord
340
0
  0
XRECORD
  5
46
102
{ACAD_REACTORS
330
2F
102
}
330
2F
100
AcDbXrecord
 10
0.0
 20
0.0
 30
0.0
  0
XRECORD
  5
42
102
{ACAD_REACTORS
330
2F
102
}
330
2F
100
AcDbXrecord
 10
0.0
 20
0.0
 30
0.0
  0
XRECORD
  5
45
102
{ACAD_REACTORS
330
2F
102
}
330
2F
100
AcDbXrecord
 10
0.0
 20
0.0
 30
0.0
  0
XRECORD
  5
43
102
{ACAD_REACTORS
330
2F
102
}
330
2F
100
AcDbXrecord
 10
0.0
 20
0.0
 30
0.0
  0
XRECORD
  5
44
102
{ACAD_REACTORS
330
2F
102
}
330
2F
100
AcDbXrecord
 10
0.0
 20
0.0
 30
0.0
  0
XRECORD
  5
41
102
{ACAD_REACTORS
330
2F
102
}
330
2F
100
AcDbXrecord
 10
0.0
 20
0.0
 30
0.0
  0
XRECORD
  5
3E
102
{ACAD_REACTORS
330
2F
102
}
330
2F
100
AcDbXrecord
340
0
  0
XRECORD
  5
3F
102
{ACAD_REACTORS
330
2F
102
}
330
2F
100
AcDbXrecord
 70
     0
  0
XRECORD
  5
33
102
{ACAD_REACTORS
330
2F
102
}
330
2F
100
AcDbXrecord
  1

  0
XRECORD
  5
30
102
{ACAD_REACTORS
330
2F
102
}
330
2F
100
AcDbXrecord
 90
        1
  0
XRECORD
  5
31
102
{ACAD_REACTORS
330
2F
102
}
330
2F
100
AcDbXrecord
 90
       70
  0
XRECORD
  5
49
102
{ACAD_REACTORS
330
2F
102
}
330
2F
100
AcDbXrecord
340
0
  0
XRECORD
  5
4F
102
{ACAD_REACTORS
330
2F
102
}
330
2F
100
AcDbXrecord
 10
0.0
 20
0.0
 30
0.0
  0
XRECORD
  5
4B
102
{ACAD_REACTORS
330
2F
102
}
330
2F
100
AcDbXrecord
 10
0.0
 20
0.0
 30
0.0
  0
XRECORD
  5
4E
102
{ACAD_REACTORS
330
2F
102
}
330
2F
100
AcDbXrecord
 10
0.0
 20
0.0
 30
0.0
  0
XRECORD
  5
4C
102
{ACAD_REACTORS
330
2F
102
}
330
2F
100
AcDbXrecord
 10
0.0
 20
0.0
 30
0.0
  0
XRECORD
  5
4D
102
{ACAD_REACTORS
330
2F
102
}
330
2F
100
AcDbXrecord
 10
0.0
 20
0.0
 30
0.0
  0
XRECORD
  5
4A
102
{ACAD_REACTORS
330
2F
102
}
330
2F
100
AcDbXrecord
 10
0.0
 20
0.0
 30
0.0
  0
XRECORD
  5
47
102
{ACAD_REACTORS
330
2F
102
}
330
2F
100
AcDbXrecord
340
0
  0
XRECORD
  5
48
102
{ACAD_REACTORS
330
2F
102
}
330
2F
100
AcDbXrecord
 70
     0
  0
XRECORD
  5
3B
102
{ACAD_REACTORS
330
2F
102
}
330
2F
100
AcDbXrecord
  1
{33328E3A-B6B8-4979-86B7-D70DEC2867C2}
  0
ENDSEC
  0
EOF
