  0
SECTION
  2
HEADER
  9
$ACADVER
  1
AC1014
  9
$EXTMIN
 10
70.16401489310567
 20
112.369642808922
 30
0.0
  9
$EXTMAX
 10
277.0834797641999
 20
227.1366601424358
 30
0.0
  9
$HANDSEED
  5
56
  9
$MEASUREMENT
 70
1
  0
ENDSEC
  0
SECTION
  2
TABLES
  0
TABLE
  2
VPORT
  5
8
330
0
100
AcDbSymbolTable
 70
     4
  0
VPORT
  5
2E
330
8
100
AcDbSymbolTableRecord
100
AcDbViewportTableRecord
  2
*ACTIVE
 70
     0
 10
0.0
 20
0.0
 11
1.0
 21
1.0
 12
209.9999999999999
 22
148.4999999999999
 13
0.0
 23
0.0
 14
10.0
 24
10.0
 15
10.0
 25
10.0
 16
0.0
 26
0.0
 36
1.0
 17
0.0
 27
0.0
 37
0.0
 40
340.9950045922664
 41
1.239944521497919
 42
50.0
 43
0.0
 44
0.0
 50
0.0
 51
0.0
 71
     0
 72
   100
 73
     1
 74
     3
 75
     0
 76
     0
 77
     0
 78
     0
  0
ENDTAB
  0
TABLE
  2
LTYPE
  5
5
330
0
100
AcDbSymbolTable
 70
     1
  0
LTYPE
  5
14
330
5
100
AcDbSymbolTableRecord
100
AcDbLinetypeTableRecord
  2
BYBLOCK
 70
     0
  3

 72
    65
 73
     0
 40
0.0
  0
LTYPE
  5
15
330
5
100
AcDbSymbolTableRecord
100
AcDbLinetypeTableRecord
  2
BYLAYER
 70
     0
  3

 72
    65
 73
     0
 40
0.0
  0
LTYPE
  5
16
330
5
100
AcDbSymbolTableRecord
100
AcDbLinetypeTableRecord
  2
CONTINUOUS
 70
     0
  3
Solid line
 72
    65
 73
     0
 40
0.0
  0
ENDTAB
  0
TABLE
  2
LAYER
  5
2
330
0
100
AcDbSymbolTable
 70
1
  0
LAYER
  5
10
330
2
100
AcDbSymbolTableRecord
100
AcDbLayerTableRecord
  2
0
 70
     0
 62
     7
  6
CONTINUOUS
  0
ENDTAB
  0
TABLE
  2
STYLE
  5
3
330
0
100
AcDbSymbolTable
 70
     1
  0
STYLE
  5
11
330
3
100
AcDbSymbolTableRecord
100
AcDbTextStyleTableRecord
  2
STANDARD
 70
     0
 40
0.0
 41
1.0
 50
0.0
 71
     0
 42
2.5
  3
txt
  4

  0
ENDTAB
  0
TABLE
  2
VIEW
  5
6
330
0
100
AcDbSymbolTable
 70
     0
  0
ENDTAB
  0
TABLE
  2
UCS
  5
7
330
0
100
AcDbSymbolTable
 70
     0
  0
ENDTAB
  0
TABLE
  2
APPID
  5
9
330
0
100
AcDbSymbolTable
 70
     2
  0
APPID
  5
12
330
9
100
AcDbSymbolTableRecord
100
AcDbRegAppTableRecord
  2
ACAD
 70
     0
  0
APPID
  5
2B
330
9
100
AcDbSymbolTableRecord
100
AcDbRegAppTableRecord
  2
URBANX
 70
     0
  0
ENDTAB
  0
TABLE
  2
DIMSTYLE
  5
A
330
0
100
AcDbSymbolTable
 70
     1
  0
DIMSTYLE
105
27
330
A
100
AcDbSymbolTableRecord
100
AcDbDimStyleTableRecord
  2
ISO-25
 70
     0
  3

  4

  5

  6

  7

 40
1.0
 41
2.5
 42
0.625
 43
3.75
 44
1.25
 45
0.0
 46
0.0
 47
0.0
 48
0.0
140
2.5
141
2.5
142
0.0
143
0.03937007874016
144
1.0
145
0.0
146
1.0
147
0.625
 71
     0
 72
     0
 73
     0
 74
     0
 75
     0
 76
     0
 77
     1
 78
     8
170
     0
171
     3
172
     1
173
     0
174
     0
175
     0
176
     0
177
     0
178
     0
270
     2
271
     2
272
     2
273
     2
274
     3
340
11
275
     0
280
     0
281
     0
282
     0
283
     0
284
     8
285
     0
286
     0
287
     3
288
     0
  0
ENDTAB
  0
TABLE
  2
BLOCK_RECORD
  5
1
330
0
100
AcDbSymbolTable
 70
     1
  0
BLOCK_RECORD
  5
1F
102
{ACAD_XDICTIONARY
360
52
102
}
330
1
100
AcDbSymbolTableRecord
100
AcDbBlockTableRecord
  2
*MODEL_SPACE
  0
BLOCK_RECORD
  5
1B
102
{ACAD_XDICTIONARY
360
50
102
}
330
1
100
AcDbSymbolTableRecord
100
AcDbBlockTableRecord
  2
*PAPER_SPACE
  0
ENDTAB
  0
ENDSEC
  0
SECTION
  2
BLOCKS
  0
BLOCK
  5
20
330
1F
100
AcDbEntity
  8
0
100
AcDbBlockBegin
  2
*MODEL_SPACE
 70
     0
 10
0.0
 20
0.0
 30
0.0
  3
*MODEL_SPACE
  1

  0
ENDBLK
  5
21
330
1F
100
AcDbEntity
  8
0
100
AcDbBlockEnd
  0
BLOCK
  5
1C
330
1B
100
AcDbEntity
 67
     1
  8
0
100
AcDbBlockBegin
  2
*PAPER_SPACE
  1

  0
ENDBLK
  5
1D
330
1B
100
AcDbEntity
 67
     1
  8
0
100
AcDbBlockEnd
  0
ENDSEC
  0
SECTION
  2
ENTITIES
  0
LINE
  5
ff
100
AcDbEntity
  8
0
100
AcDbLine
 62
     0
 10
0.355533
 20
69.106
 30
0.0
 11
0.355533
 21
109.105
 31
0.0
  0
LINE
  5
100
100
AcDbEntity
  8
0
100
AcDbLine
 62
     0
 10
0.355533
 20
69.106
 30
0.0
 11
5.35506
 21
69.106
 31
0.0
  0
LINE
  5
101
100
AcDbEntity
  8
0
100
AcDbLine
 62
     0
 10
0.355533
 20
109.105
 30
0.0
 11
5.35506
 21
109.105
 31
0.0
  0
LINE
  5
102
100
AcDbEntity
  8
0
100
AcDbLine
 62
     0
 10
5.35506
 20
69.106
 30
0.0
 11
5.35506
 21
109.105
 31
0.0
  0
LINE
  5
103
100
AcDbEntity
  8
0
100
AcDbLine
 62
     0
 10
0.355533
 20
69.106
 30
0.0
 11
0.355533
 21
66.6048
 31
0.0
  0
LINE
  5
104
100
AcDbEntity
  8
0
100
AcDbLine
 62
     0
 10
0.355533
 20
109.105
 30
0.0
 11
0.355533
 21
111.606
 31
0.0
  0
LINE
  5
105
100
AcDbEntity
  8
0
100
AcDbLine
 62
     0
 10
0.355533
 20
66.6048
 30
0.0
 11
5.35506
 21
66.6048
 31
0.0
  0
LINE
  5
106
100
AcDbEntity
  8
0
100
AcDbLine
 62
     0
 10
5.35506
 20
69.106
 30
0.0
 11
5.35506
 21
66.6048
 31
0.0
  0
LINE
  5
107
100
AcDbEntity
  8
0
100
AcDbLine
 62
     0
 10
0.355533
 20
111.606
 30
0.0
 11
5.35506
 21
111.606
 31
0.0
  0
LINE
  5
108
100
AcDbEntity
  8
0
100
AcDbLine
 62
     0
 10
5.35506
 20
109.105
 30
0.0
 11
5.35506
 21
111.606
 31
0.0
  0
LINE
  5
109
100
AcDbEntity
  8
0
100
AcDbLine
 62
     0
 10
0.355533
 20
181.605
 30
0.0
 11
0.355533
 21
221.605
 31
0.0
  0
LINE
  5
10a
100
AcDbEntity
  8
0
100
AcDbLine
 62
     0
 10
0.355533
 20
181.605
 30
0.0
 11
5.35506
 21
181.605
 31
0.0
  0
LINE
  5
10b
100
AcDbEntity
  8
0
100
AcDbLine
 62
     0
 10
0.355533
 20
221.605
 30
0.0
 11
5.35506
 21
221.605
 31
0.0
  0
LINE
  5
10c
100
AcDbEntity
  8
0
100
AcDbLine
 62
     0
 10
5.35506
 20
181.605
 30
0.0
 11
5.35506
 21
221.605
 31
0.0
  0
LINE
  5
10d
100
AcDbEntity
  8
0
100
AcDbLine
 62
     0
 10
0.355533
 20
181.605
 30
0.0
 11
0.355533
 21
179.105
 31
0.0
  0
LINE
  5
10e
100
AcDbEntity
  8
0
100
AcDbLine
 62
     0
 10
0.355533
 20
221.605
 30
0.0
 11
0.355533
 21
224.105
 31
0.0
  0
LINE
  5
10f
100
AcDbEntity
  8
0
100
AcDbLine
 62
     0
 10
0.355533
 20
179.105
 30
0.0
 11
5.35506
 21
179.105
 31
0.0
  0
LINE
  5
110
100
AcDbEntity
  8
0
100
AcDbLine
 62
     0
 10
5.35506
 20
181.605
 30
0.0
 11
5.35506
 21
179.105
 31
0.0
  0
LINE
  5
111
100
AcDbEntity
  8
0
100
AcDbLine
 62
     0
 10
0.355533
 20
224.105
 30
0.0
 11
5.35506
 21
224.105
 31
0.0
  0
LINE
  5
112
100
AcDbEntity
  8
0
100
AcDbLine
 62
     0
 10
5.35506
 20
221.605
 30
0.0
 11
5.35506
 21
224.105
 31
0.0
  0
LINE
  5
113
100
AcDbEntity
  8
0
100
AcDbLine
 62
     0
 10
65.3549
 20
69.106
 30
0.0
 11
65.3549
 21
109.105
 31
0.0
  0
LINE
  5
114
100
AcDbEntity
  8
0
100
AcDbLine
 62
     0
 10
40.3546
 20
69.106
 30
0.0
 11
40.3546
 21
109.105
 31
0.0
  0
LINE
  5
115
100
AcDbEntity
  8
0
100
AcDbLine
 62
     0
 10
40.3546
 20
69.106
 30
0.0
 11
42.8554
 21
66.6048
 31
0.0
  0
LINE
  5
116
100
AcDbEntity
  8
0
100
AcDbLine
 62
     0
 10
40.3546
 20
109.105
 30
0.0
 11
42.8554
 21
111.606
 31
0.0
  0
LINE
  5
117
100
AcDbEntity
  8
0
100
AcDbLine
 62
     0
 10
42.8554
 20
66.6048
 30
0.0
 11
62.8551
 21
66.6048
 31
0.0
  0
LINE
  5
118
100
AcDbEntity
  8
0
100
AcDbLine
 62
     0
 10
42.8554
 20
111.606
 30
0.0
 11
62.8551
 21
111.606
 31
0.0
  0
LINE
  5
119
100
AcDbEntity
  8
0
100
AcDbLine
 62
     0
 10
65.3549
 20
69.106
 30
0.0
 11
62.8551
 21
66.6048
 31
0.0
  0
LINE
  5
11a
100
AcDbEntity
  8
0
100
AcDbLine
 62
     0
 10
65.3549
 20
109.105
 30
0.0
 11
62.8551
 21
111.606
 31
0.0
  0
SPLINE
  5
11b
100
AcDbEntity
  8
0
100
AcDbSpline
210
0.0
220
0.0
230
1.0
 62
     0
 70
     0
 71
     3
 72
     8
 73
4
 40
0.0
 40
0.0
 40
0.0
 40
0.0
 40
1.0
 40
1.0
 40
1.0
 40
1.0
 10
55.3544
 20
100.356
 30
0.0
 10
55.3544
 20
98.975
 30
0.0
 10
54.2354
 20
97.856
 30
0.0
 10
52.8546
 20
97.856
 30
0.0
  0
SPLINE
  5
11c
100
AcDbEntity
  8
0
100
AcDbSpline
210
0.0
220
0.0
230
1.0
 62
     0
 70
     0
 71
     3
 72
     8
 73
4
 40
0.0
 40
0.0
 40
0.0
 40
0.0
 40
1.0
 40
1.0
 40
1.0
 40
1.0
 10
52.8546
 20
97.856
 30
0.0
 10
51.4738
 20
97.856
 30
0.0
 10
50.3548
 20
98.975
 30
0.0
 10
50.3548
 20
100.356
 30
0.0
  0
SPLINE
  5
11d
100
AcDbEntity
  8
0
100
AcDbSpline
210
0.0
220
0.0
230
1.0
 62
     0
 70
     0
 71
     3
 72
     8
 73
4
 40
0.0
 40
0.0
 40
0.0
 40
0.0
 40
1.0
 40
1.0
 40
1.0
 40
1.0
 10
50.3548
 20
100.356
 30
0.0
 10
50.3548
 20
101.737
 30
0.0
 10
51.4738
 20
102.856
 30
0.0
 10
52.8546
 20
102.856
 30
0.0
  0
SPLINE
  5
11e
100
AcDbEntity
  8
0
100
AcDbSpline
210
0.0
220
0.0
230
1.0
 62
     0
 70
     0
 71
     3
 72
     8
 73
4
 40
0.0
 40
0.0
 40
0.0
 40
0.0
 40
1.0
 40
1.0
 40
1.0
 40
1.0
 10
52.8546
 20
102.856
 30
0.0
 10
54.2354
 20
102.856
 30
0.0
 10
55.3544
 20
101.737
 30
0.0
 10
55.3544
 20
100.356
 30
0.0
  0
SPLINE
  5
11f
100
AcDbEntity
  8
0
100
AcDbSpline
210
0.0
220
0.0
230
1.0
 62
     0
 70
     0
 71
     3
 72
     8
 73
4
 40
0.0
 40
0.0
 40
0.0
 40
0.0
 40
1.0
 40
1.0
 40
1.0
 40
1.0
 10
55.3544
 20
77.8549
 30
0.0
 10
55.3544
 20
76.4741
 30
0.0
 10
54.2354
 20
75.3551
 30
0.0
 10
52.8546
 20
75.3551
 30
0.0
  0
SPLINE
  5
120
100
AcDbEntity
  8
0
100
AcDbSpline
210
0.0
220
0.0
230
1.0
 62
     0
 70
     0
 71
     3
 72
     8
 73
4
 40
0.0
 40
0.0
 40
0.0
 40
0.0
 40
1.0
 40
1.0
 40
1.0
 40
1.0
 10
52.8546
 20
75.3551
 30
0.0
 10
51.4738
 20
75.3551
 30
0.0
 10
50.3548
 20
76.4741
 30
0.0
 10
50.3548
 20
77.8549
 30
0.0
  0
SPLINE
  5
121
100
AcDbEntity
  8
0
100
AcDbSpline
210
0.0
220
0.0
230
1.0
 62
     0
 70
     0
 71
     3
 72
     8
 73
4
 40
0.0
 40
0.0
 40
0.0
 40
0.0
 40
1.0
 40
1.0
 40
1.0
 40
1.0
 10
50.3548
 20
77.8549
 30
0.0
 10
50.3548
 20
79.2357
 30
0.0
 10
51.4738
 20
80.3547
 30
0.0
 10
52.8546
 20
80.3547
 30
0.0
  0
SPLINE
  5
122
100
AcDbEntity
  8
0
100
AcDbSpline
210
0.0
220
0.0
230
1.0
 62
     0
 70
     0
 71
     3
 72
     8
 73
4
 40
0.0
 40
0.0
 40
0.0
 40
0.0
 40
1.0
 40
1.0
 40
1.0
 40
1.0
 10
52.8546
 20
80.3547
 30
0.0
 10
54.2354
 20
80.3547
 30
0.0
 10
55.3544
 20
79.2357
 30
0.0
 10
55.3544
 20
77.8549
 30
0.0
  0
LINE
  5
123
100
AcDbEntity
  8
0
100
AcDbLine
 62
     0
 10
65.3549
 20
181.605
 30
0.0
 11
65.3549
 21
221.605
 31
0.0
  0
LINE
  5
124
100
AcDbEntity
  8
0
100
AcDbLine
 62
     0
 10
40.3546
 20
181.605
 30
0.0
 11
40.3546
 21
221.605
 31
0.0
  0
LINE
  5
125
100
AcDbEntity
  8
0
100
AcDbLine
 62
     0
 10
40.3546
 20
181.605
 30
0.0
 11
42.8554
 21
179.105
 31
0.0
  0
LINE
  5
126
100
AcDbEntity
  8
0
100
AcDbLine
 62
     0
 10
40.3546
 20
221.605
 30
0.0
 11
42.8554
 21
224.105
 31
0.0
  0
LINE
  5
127
100
AcDbEntity
  8
0
100
AcDbLine
 62
     0
 10
42.8554
 20
179.105
 30
0.0
 11
62.8551
 21
179.105
 31
0.0
  0
LINE
  5
128
100
AcDbEntity
  8
0
100
AcDbLine
 62
     0
 10
42.8554
 20
224.105
 30
0.0
 11
62.8551
 21
224.105
 31
0.0
  0
LINE
  5
129
100
AcDbEntity
  8
0
100
AcDbLine
 62
     0
 10
65.3549
 20
181.605
 30
0.0
 11
62.8551
 21
179.105
 31
0.0
  0
LINE
  5
12a
100
AcDbEntity
  8
0
100
AcDbLine
 62
     0
 10
65.3549
 20
221.605
 30
0.0
 11
62.8551
 21
224.105
 31
0.0
  0
SPLINE
  5
12b
100
AcDbEntity
  8
0
100
AcDbSpline
210
0.0
220
0.0
230
1.0
 62
     0
 70
     0
 71
     3
 72
     8
 73
4
 40
0.0
 40
0.0
 40
0.0
 40
0.0
 40
1.0
 40
1.0
 40
1.0
 40
1.0
 10
55.3544
 20
190.355
 30
0.0
 10
55.3544
 20
188.975
 30
0.0
 10
54.2354
 20
187.856
 30
0.0
 10
52.8546
 20
187.856
 30
0.0
  0
SPLINE
  5
12c
100
AcDbEntity
  8
0
100
AcDbSpline
210
0.0
220
0.0
230
1.0
 62
     0
 70
     0
 71
     3
 72
     8
 73
4
 40
0.0
 40
0.0
 40
0.0
 40
0.0
 40
1.0
 40
1.0
 40
1.0
 40
1.0
 10
52.8546
 20
187.856
 30
0.0
 10
51.4738
 20
187.856
 30
0.0
 10
50.3548
 20
188.975
 30
0.0
 10
50.3548
 20
190.355
 30
0.0
  0
SPLINE
  5
12d
100
AcDbEntity
  8
0
100
AcDbSpline
210
0.0
220
0.0
230
1.0
 62
     0
 70
     0
 71
     3
 72
     8
 73
4
 40
0.0
 40
0.0
 40
0.0
 40
0.0
 40
1.0
 40
1.0
 40
1.0
 40
1.0
 10
50.3548
 20
190.355
 30
0.0
 10
50.3548
 20
191.736
 30
0.0
 10
51.4738
 20
192.855
 30
0.0
 10
52.8546
 20
192.855
 30
0.0
  0
SPLINE
  5
12e
100
AcDbEntity
  8
0
100
AcDbSpline
210
0.0
220
0.0
230
1.0
 62
     0
 70
     0
 71
     3
 72
     8
 73
4
 40
0.0
 40
0.0
 40
0.0
 40
0.0
 40
1.0
 40
1.0
 40
1.0
 40
1.0
 10
52.8546
 20
192.855
 30
0.0
 10
54.2354
 20
192.855
 30
0.0
 10
55.3544
 20
191.736
 30
0.0
 10
55.3544
 20
190.355
 30
0.0
  0
SPLINE
  5
12f
100
AcDbEntity
  8
0
100
AcDbSpline
210
0.0
220
0.0
230
1.0
 62
     0
 70
     0
 71
     3
 72
     8
 73
4
 40
0.0
 40
0.0
 40
0.0
 40
0.0
 40
1.0
 40
1.0
 40
1.0
 40
1.0
 10
55.3544
 20
212.856
 30
0.0
 10
55.3544
 20
211.475
 30
0.0
 10
54.2354
 20
210.355
 30
0.0
 10
52.8546
 20
210.355
 30
0.0
  0
SPLINE
  5
130
100
AcDbEntity
  8
0
100
AcDbSpline
210
0.0
220
0.0
230
1.0
 62
     0
 70
     0
 71
     3
 72
     8
 73
4
 40
0.0
 40
0.0
 40
0.0
 40
0.0
 40
1.0
 40
1.0
 40
1.0
 40
1.0
 10
52.8546
 20
210.355
 30
0.0
 10
51.4738
 20
210.355
 30
0.0
 10
50.3548
 20
211.475
 30
0.0
 10
50.3548
 20
212.856
 30
0.0
  0
SPLINE
  5
131
100
AcDbEntity
  8
0
100
AcDbSpline
210
0.0
220
0.0
230
1.0
 62
     0
 70
     0
 71
     3
 72
     8
 73
4
 40
0.0
 40
0.0
 40
0.0
 40
0.0
 40
1.0
 40
1.0
 40
1.0
 40
1.0
 10
50.3548
 20
212.856
 30
0.0
 10
50.3548
 20
214.237
 30
0.0
 10
51.4738
 20
215.356
 30
0.0
 10
52.8546
 20
215.356
 30
0.0
  0
SPLINE
  5
132
100
AcDbEntity
  8
0
100
AcDbSpline
210
0.0
220
0.0
230
1.0
 62
     0
 70
     0
 71
     3
 72
     8
 73
4
 40
0.0
 40
0.0
 40
0.0
 40
0.0
 40
1.0
 40
1.0
 40
1.0
 40
1.0
 10
52.8546
 20
215.356
 30
0.0
 10
54.2354
 20
215.356
 30
0.0
 10
55.3544
 20
214.237
 30
0.0
 10
55.3544
 20
212.856
 30
0.0
  0
LINE
  5
133
100
AcDbEntity
  8
0
100
AcDbLine
 62
     0
 10
52.8546
 20
97.5554
 30
0.0
 11
52.8546
 21
103.156
 31
0.0
  0
LINE
  5
134
100
AcDbEntity
  8
0
100
AcDbLine
 62
     0
 10
55.6549
 20
100.356
 30
0.0
 11
50.0546
 21
100.356
 31
0.0
  0
LINE
  5
135
100
AcDbEntity
  8
0
100
AcDbLine
 62
     0
 10
52.8546
 20
97.5554
 30
0.0
 11
52.8546
 21
103.156
 31
0.0
  0
LINE
  5
136
100
AcDbEntity
  8
0
100
AcDbLine
 62
     0
 10
55.6549
 20
100.356
 30
0.0
 11
50.0546
 21
100.356
 31
0.0
  0
LINE
  5
137
100
AcDbEntity
  8
0
100
AcDbLine
 62
     0
 10
52.8546
 20
75.0549
 30
0.0
 11
52.8546
 21
80.6552
 31
0.0
  0
LINE
  5
138
100
AcDbEntity
  8
0
100
AcDbLine
 62
     0
 10
55.6549
 20
77.8549
 30
0.0
 11
50.0546
 21
77.8549
 31
0.0
  0
LINE
  5
139
100
AcDbEntity
  8
0
100
AcDbLine
 62
     0
 10
52.8546
 20
75.0549
 30
0.0
 11
52.8546
 21
80.6552
 31
0.0
  0
LINE
  5
13a
100
AcDbEntity
  8
0
100
AcDbLine
 62
     0
 10
55.6549
 20
77.8549
 30
0.0
 11
50.0546
 21
77.8549
 31
0.0
  0
LINE
  5
13b
100
AcDbEntity
  8
0
100
AcDbLine
 62
     0
 10
52.8546
 20
187.555
 30
0.0
 11
52.8546
 21
193.155
 31
0.0
  0
LINE
  5
13c
100
AcDbEntity
  8
0
100
AcDbLine
 62
     0
 10
55.6549
 20
190.355
 30
0.0
 11
50.0546
 21
190.355
 31
0.0
  0
LINE
  5
13d
100
AcDbEntity
  8
0
100
AcDbLine
 62
     0
 10
52.8546
 20
187.555
 30
0.0
 11
52.8546
 21
193.155
 31
0.0
  0
LINE
  5
13e
100
AcDbEntity
  8
0
100
AcDbLine
 62
     0
 10
55.6549
 20
190.355
 30
0.0
 11
50.0546
 21
190.355
 31
0.0
  0
LINE
  5
13f
100
AcDbEntity
  8
0
100
AcDbLine
 62
     0
 10
52.8546
 20
210.056
 30
0.0
 11
52.8546
 21
215.655
 31
0.0
  0
LINE
  5
140
100
AcDbEntity
  8
0
100
AcDbLine
 62
     0
 10
55.6549
 20
212.856
 30
0.0
 11
50.0546
 21
212.856
 31
0.0
  0
LINE
  5
141
100
AcDbEntity
  8
0
100
AcDbLine
 62
     0
 10
52.8546
 20
210.056
 30
0.0
 11
52.8546
 21
215.655
 31
0.0
  0
LINE
  5
142
100
AcDbEntity
  8
0
100
AcDbLine
 62
     0
 10
55.6549
 20
212.856
 30
0.0
 11
50.0546
 21
212.856
 31
0.0
  0
LINE
  5
143
100
AcDbEntity
  8
0
100
AcDbLine
 62
     0
 10
105.355
 20
69.106
 30
0.0
 11
105.355
 21
109.105
 31
0.0
  0
LINE
  5
144
100
AcDbEntity
  8
0
100
AcDbLine
 62
     0
 10
105.355
 20
69.106
 30
0.0
 11
105.355
 21
66.6048
 31
0.0
  0
LINE
  5
145
100
AcDbEntity
  8
0
100
AcDbLine
 62
     0
 10
105.355
 20
109.105
 30
0.0
 11
105.355
 21
111.606
 31
0.0
  0
LINE
  5
146
100
AcDbEntity
  8
0
100
AcDbLine
 62
     0
 10
100.356
 20
69.106
 30
0.0
 11
100.356
 21
66.6048
 31
0.0
  0
LINE
  5
147
100
AcDbEntity
  8
0
100
AcDbLine
 62
     0
 10
100.356
 20
109.105
 30
0.0
 11
100.356
 21
111.606
 31
0.0
  0
LINE
  5
148
100
AcDbEntity
  8
0
100
AcDbLine
 62
     0
 10
100.356
 20
69.106
 30
0.0
 11
100.356
 21
109.105
 31
0.0
  0
LINE
  5
149
100
AcDbEntity
  8
0
100
AcDbLine
 62
     0
 10
100.356
 20
69.106
 30
0.0
 11
105.355
 21
69.106
 31
0.0
  0
LINE
  5
14a
100
AcDbEntity
  8
0
100
AcDbLine
 62
     0
 10
100.356
 20
109.105
 30
0.0
 11
105.355
 21
109.105
 31
0.0
  0
SPLINE
  5
14b
100
AcDbEntity
  8
0
100
AcDbSpline
210
0.0
220
0.0
230
1.0
 62
     0
 70
     0
 71
     3
 72
     8
 73
4
 40
0.0
 40
0.0
 40
0.0
 40
0.0
 40
1.0
 40
1.0
 40
1.0
 40
1.0
 10
101.606
 20
89.1053
 30
0.0
 10
101.603
 20
88.7278
 30
0.0
 10
101.785
 20
88.3543
 30
0.0
 10
102.082
 20
88.1228
 30
0.0
  0
SPLINE
  5
14c
100
AcDbEntity
  8
0
100
AcDbSpline
210
0.0
220
0.0
230
1.0
 62
     0
 70
     0
 71
     3
 72
     8
 73
4
 40
0.0
 40
0.0
 40
0.0
 40
0.0
 40
1.0
 40
1.0
 40
1.0
 40
1.0
 10
102.082
 20
88.1228
 30
0.0
 10
102.285
 20
87.963
 30
0.0
 10
102.536
 20
87.8692
 30
0.0
 10
102.792
 20
87.8568
 30
0.0
  0
SPLINE
  5
14d
100
AcDbEntity
  8
0
100
AcDbSpline
210
0.0
220
0.0
230
1.0
 62
     0
 70
     0
 71
     3
 72
     8
 73
4
 40
0.0
 40
0.0
 40
0.0
 40
0.0
 40
1.0
 40
1.0
 40
1.0
 40
1.0
 10
102.792
 20
87.8568
 30
0.0
 10
103.098
 20
87.8403
 30
0.0
 10
103.409
 20
87.9422
 30
0.0
 10
103.646
 20
88.138
 30
0.0
  0
SPLINE
  5
14e
100
AcDbEntity
  8
0
100
AcDbSpline
210
0.0
220
0.0
230
1.0
 62
     0
 70
     0
 71
     3
 72
     8
 73
4
 40
0.0
 40
0.0
 40
0.0
 40
0.0
 40
1.0
 40
1.0
 40
1.0
 40
1.0
 10
103.646
 20
88.138
 30
0.0
 10
103.941
 20
88.3765
 30
0.0
 10
104.116
 20
88.7568
 30
0.0
 10
104.105
 20
89.1371
 30
0.0
  0
SPLINE
  5
14f
100
AcDbEntity
  8
0
100
AcDbSpline
210
0.0
220
0.0
230
1.0
 62
     0
 70
     0
 71
     3
 72
     8
 73
4
 40
0.0
 40
0.0
 40
0.0
 40
0.0
 40
1.0
 40
1.0
 40
1.0
 40
1.0
 10
104.105
 20
89.1371
 30
0.0
 10
104.098
 20
89.4401
 30
0.0
 10
103.974
 20
89.7407
 30
0.0
 10
103.766
 20
89.9612
 30
0.0
  0
SPLINE
  5
150
100
AcDbEntity
  8
0
100
AcDbSpline
210
0.0
220
0.0
230
1.0
 62
     0
 70
     0
 71
     3
 72
     8
 73
4
 40
0.0
 40
0.0
 40
0.0
 40
0.0
 40
1.0
 40
1.0
 40
1.0
 40
1.0
 10
103.766
 20
89.9612
 30
0.0
 10
103.509
 20
90.2381
 30
0.0
 10
103.122
 20
90.3855
 30
0.0
 10
102.745
 20
90.351
 30
0.0
  0
SPLINE
  5
151
100
AcDbEntity
  8
0
100
AcDbSpline
210
0.0
220
0.0
230
1.0
 62
     0
 70
     0
 71
     3
 72
     8
 73
4
 40
0.0
 40
0.0
 40
0.0
 40
0.0
 40
1.0
 40
1.0
 40
1.0
 40
1.0
 10
102.745
 20
90.351
 30
0.0
 10
102.442
 20
90.3249
 30
0.0
 10
102.151
 20
90.1831
 30
0.0
 10
101.943
 20
89.9612
 30
0.0
  0
SPLINE
  5
152
100
AcDbEntity
  8
0
100
AcDbSpline
210
0.0
220
0.0
230
1.0
 62
     0
 70
     0
 71
     3
 72
     8
 73
4
 40
0.0
 40
0.0
 40
0.0
 40
0.0
 40
1.0
 40
1.0
 40
1.0
 40
1.0
 10
101.943
 20
89.9612
 30
0.0
 10
101.728
 20
89.7322
 30
0.0
 10
101.604
 20
89.4196
 30
0.0
 10
101.606
 20
89.1053
 30
0.0
  0
LINE
  5
153
100
AcDbEntity
  8
0
100
AcDbLine
 62
     0
 10
100.356
 20
66.6048
 30
0.0
 11
105.355
 21
66.6048
 31
0.0
  0
LINE
  5
154
100
AcDbEntity
  8
0
100
AcDbLine
 62
     0
 10
100.356
 20
111.606
 30
0.0
 11
105.355
 21
111.606
 31
0.0
  0
LINE
  5
155
100
AcDbEntity
  8
0
100
AcDbLine
 62
     0
 10
105.355
 20
181.605
 30
0.0
 11
105.355
 21
221.605
 31
0.0
  0
LINE
  5
156
100
AcDbEntity
  8
0
100
AcDbLine
 62
     0
 10
105.355
 20
181.605
 30
0.0
 11
105.355
 21
179.105
 31
0.0
  0
LINE
  5
157
100
AcDbEntity
  8
0
100
AcDbLine
 62
     0
 10
105.355
 20
221.605
 30
0.0
 11
105.355
 21
224.105
 31
0.0
  0
LINE
  5
158
100
AcDbEntity
  8
0
100
AcDbLine
 62
     0
 10
100.356
 20
181.605
 30
0.0
 11
100.356
 21
179.105
 31
0.0
  0
LINE
  5
159
100
AcDbEntity
  8
0
100
AcDbLine
 62
     0
 10
100.356
 20
221.605
 30
0.0
 11
100.356
 21
224.105
 31
0.0
  0
LINE
  5
15a
100
AcDbEntity
  8
0
100
AcDbLine
 62
     0
 10
100.356
 20
181.605
 30
0.0
 11
100.356
 21
221.605
 31
0.0
  0
LINE
  5
15b
100
AcDbEntity
  8
0
100
AcDbLine
 62
     0
 10
100.356
 20
181.605
 30
0.0
 11
105.355
 21
181.605
 31
0.0
  0
LINE
  5
15c
100
AcDbEntity
  8
0
100
AcDbLine
 62
     0
 10
100.356
 20
221.605
 30
0.0
 11
105.355
 21
221.605
 31
0.0
  0
SPLINE
  5
15d
100
AcDbEntity
  8
0
100
AcDbSpline
210
0.0
220
0.0
230
1.0
 62
     0
 70
     0
 71
     3
 72
     8
 73
4
 40
0.0
 40
0.0
 40
0.0
 40
0.0
 40
1.0
 40
1.0
 40
1.0
 40
1.0
 10
101.606
 20
201.605
 30
0.0
 10
101.603
 20
201.228
 30
0.0
 10
101.785
 20
200.855
 30
0.0
 10
102.082
 20
200.623
 30
0.0
  0
SPLINE
  5
15e
100
AcDbEntity
  8
0
100
AcDbSpline
210
0.0
220
0.0
230
1.0
 62
     0
 70
     0
 71
     3
 72
     8
 73
4
 40
0.0
 40
0.0
 40
0.0
 40
0.0
 40
1.0
 40
1.0
 40
1.0
 40
1.0
 10
102.082
 20
200.623
 30
0.0
 10
102.285
 20
200.463
 30
0.0
 10
102.536
 20
200.37
 30
0.0
 10
102.792
 20
200.357
 30
0.0
  0
SPLINE
  5
15f
100
AcDbEntity
  8
0
100
AcDbSpline
210
0.0
220
0.0
230
1.0
 62
     0
 70
     0
 71
     3
 72
     8
 73
4
 40
0.0
 40
0.0
 40
0.0
 40
0.0
 40
1.0
 40
1.0
 40
1.0
 40
1.0
 10
102.792
 20
200.357
 30
0.0
 10
103.098
 20
200.341
 30
0.0
 10
103.409
 20
200.443
 30
0.0
 10
103.646
 20
200.637
 30
0.0
  0
SPLINE
  5
160
100
AcDbEntity
  8
0
100
AcDbSpline
210
0.0
220
0.0
230
1.0
 62
     0
 70
     0
 71
     3
 72
     8
 73
4
 40
0.0
 40
0.0
 40
0.0
 40
0.0
 40
1.0
 40
1.0
 40
1.0
 40
1.0
 10
103.646
 20
200.637
 30
0.0
 10
103.941
 20
200.877
 30
0.0
 10
104.116
 20
201.257
 30
0.0
 10
104.105
 20
201.637
 30
0.0
  0
SPLINE
  5
161
100
AcDbEntity
  8
0
100
AcDbSpline
210
0.0
220
0.0
230
1.0
 62
     0
 70
     0
 71
     3
 72
     8
 73
4
 40
0.0
 40
0.0
 40
0.0
 40
0.0
 40
1.0
 40
1.0
 40
1.0
 40
1.0
 10
104.105
 20
201.637
 30
0.0
 10
104.098
 20
201.941
 30
0.0
 10
103.974
 20
202.239
 30
0.0
 10
103.766
 20
202.461
 30
0.0
  0
SPLINE
  5
162
100
AcDbEntity
  8
0
100
AcDbSpline
210
0.0
220
0.0
230
1.0
 62
     0
 70
     0
 71
     3
 72
     8
 73
4
 40
0.0
 40
0.0
 40
0.0
 40
0.0
 40
1.0
 40
1.0
 40
1.0
 40
1.0
 10
103.766
 20
202.461
 30
0.0
 10
103.509
 20
202.738
 30
0.0
 10
103.122
 20
202.886
 30
0.0
 10
102.745
 20
202.85
 30
0.0
  0
SPLINE
  5
163
100
AcDbEntity
  8
0
100
AcDbSpline
210
0.0
220
0.0
230
1.0
 62
     0
 70
     0
 71
     3
 72
     8
 73
4
 40
0.0
 40
0.0
 40
0.0
 40
0.0
 40
1.0
 40
1.0
 40
1.0
 40
1.0
 10
102.745
 20
202.85
 30
0.0
 10
102.442
 20
202.825
 30
0.0
 10
102.151
 20
202.683
 30
0.0
 10
101.943
 20
202.461
 30
0.0
  0
SPLINE
  5
164
100
AcDbEntity
  8
0
100
AcDbSpline
210
0.0
220
0.0
230
1.0
 62
     0
 70
     0
 71
     3
 72
     8
 73
4
 40
0.0
 40
0.0
 40
0.0
 40
0.0
 40
1.0
 40
1.0
 40
1.0
 40
1.0
 10
101.943
 20
202.461
 30
0.0
 10
101.728
 20
202.233
 30
0.0
 10
101.604
 20
201.92
 30
0.0
 10
101.606
 20
201.605
 30
0.0
  0
LINE
  5
165
100
AcDbEntity
  8
0
100
AcDbLine
 62
     0
 10
100.356
 20
179.105
 30
0.0
 11
105.355
 21
179.105
 31
0.0
  0
LINE
  5
166
100
AcDbEntity
  8
0
100
AcDbLine
 62
     0
 10
100.356
 20
224.105
 30
0.0
 11
105.355
 21
224.105
 31
0.0
  0
LINE
  5
167
100
AcDbEntity
  8
0
100
AcDbLine
 62
     0
 10
0.355533
 20
0.355533
 30
0.0
 11
5.35506
 21
0.355533
 31
0.0
  0
LINE
  5
168
100
AcDbEntity
  8
0
100
AcDbLine
 62
     0
 10
0.355533
 20
25.3559
 30
0.0
 11
0.355533
 21
22.8548
 31
0.0
  0
LINE
  5
169
100
AcDbEntity
  8
0
100
AcDbLine
 62
     0
 10
0.355533
 20
22.8548
 30
0.0
 11
0.355533
 21
2.8553
 31
0.0
  0
LINE
  5
16a
100
AcDbEntity
  8
0
100
AcDbLine
 62
     0
 10
0.355533
 20
0.355533
 30
0.0
 11
0.355533
 21
2.8553
 31
0.0
  0
LINE
  5
16b
100
AcDbEntity
  8
0
100
AcDbLine
 62
     0
 10
0.355533
 20
2.8553
 30
0.0
 11
5.35506
 21
2.8553
 31
0.0
  0
LINE
  5
16c
100
AcDbEntity
  8
0
100
AcDbLine
 62
     0
 10
5.35506
 20
0.355533
 30
0.0
 11
5.35506
 21
2.8553
 31
0.0
  0
LINE
  5
16d
100
AcDbEntity
  8
0
100
AcDbLine
 62
     0
 10
5.35506
 20
2.8553
 30
0.0
 11
5.35506
 21
22.8548
 31
0.0
  0
LINE
  5
16e
100
AcDbEntity
  8
0
100
AcDbLine
 62
     0
 10
5.35506
 20
25.3559
 30
0.0
 11
5.35506
 21
22.8548
 31
0.0
  0
LINE
  5
16f
100
AcDbEntity
  8
0
100
AcDbLine
 62
     0
 10
5.35506
 20
25.3559
 30
0.0
 11
0.355533
 21
25.3559
 31
0.0
  0
LINE
  5
170
100
AcDbEntity
  8
0
100
AcDbLine
 62
     0
 10
5.35506
 20
22.8548
 30
0.0
 11
0.355533
 21
22.8548
 31
0.0
  0
LINE
  5
171
100
AcDbEntity
  8
0
100
AcDbLine
 62
     0
 10
151.336
 20
64.1188
 30
0.0
 11
151.336
 21
100.514
 31
0.0
  0
LINE
  5
172
100
AcDbEntity
  8
0
100
AcDbLine
 62
     0
 10
151.336
 20
64.1188
 30
0.0
 11
155.896
 21
64.969
 31
0.0
  0
LINE
  5
173
100
AcDbEntity
  8
0
100
AcDbLine
 62
     0
 10
151.336
 20
100.514
 30
0.0
 11
155.896
 21
101.364
 31
0.0
  0
LINE
  5
174
100
AcDbEntity
  8
0
100
AcDbLine
 62
     0
 10
155.896
 20
64.969
 30
0.0
 11
155.896
 21
101.364
 31
0.0
  0
LINE
  5
175
100
AcDbEntity
  8
0
100
AcDbLine
 62
     0
 10
141.078
 20
73.5764
 30
0.0
 11
141.078
 21
109.971
 31
0.0
  0
LINE
  5
176
100
AcDbEntity
  8
0
100
AcDbLine
 62
     0
 10
141.078
 20
73.5764
 30
0.0
 11
142.103
 21
70.3559
 31
0.0
  0
LINE
  5
177
100
AcDbEntity
  8
0
100
AcDbLine
 62
     0
 10
141.078
 20
109.971
 30
0.0
 11
142.103
 21
111.3
 31
0.0
  0
LINE
  5
178
100
AcDbEntity
  8
0
100
AcDbLine
 62
     0
 10
142.103
 20
70.3559
 30
0.0
 11
150.311
 21
62.7888
 31
0.0
  0
LINE
  5
179
100
AcDbEntity
  8
0
100
AcDbLine
 62
     0
 10
142.103
 20
111.3
 30
0.0
 11
150.311
 21
103.735
 31
0.0
  0
LINE
  5
17a
100
AcDbEntity
  8
0
100
AcDbLine
 62
     0
 10
151.336
 20
64.1188
 30
0.0
 11
150.311
 21
62.7888
 31
0.0
  0
LINE
  5
17b
100
AcDbEntity
  8
0
100
AcDbLine
 62
     0
 10
151.336
 20
100.514
 30
0.0
 11
150.311
 21
103.735
 31
0.0
  0
SPLINE
  5
17c
100
AcDbEntity
  8
0
100
AcDbSpline
210
0.0
220
0.0
230
1.0
 62
     0
 70
     0
 71
     3
 72
     8
 73
4
 40
0.0
 40
0.0
 40
0.0
 40
0.0
 40
1.0
 40
1.0
 40
1.0
 40
1.0
 10
147.234
 20
96.3359
 30
0.0
 10
147.234
 20
97.1243
 30
0.0
 10
147.049
 20
98.0253
 30
0.0
 10
146.746
 20
98.7185
 30
0.0
  0
SPLINE
  5
17d
100
AcDbEntity
  8
0
100
AcDbSpline
210
0.0
220
0.0
230
1.0
 62
     0
 70
     0
 71
     3
 72
     8
 73
4
 40
0.0
 40
0.0
 40
0.0
 40
0.0
 40
1.0
 40
1.0
 40
1.0
 40
1.0
 10
146.746
 20
98.7185
 30
0.0
 10
146.444
 20
99.4117
 30
0.0
 10
146.067
 20
99.7977
 30
0.0
 10
145.748
 20
99.7384
 30
0.0
  0
SPLINE
  5
17e
100
AcDbEntity
  8
0
100
AcDbSpline
210
0.0
220
0.0
230
1.0
 62
     0
 70
     0
 71
     3
 72
     8
 73
4
 40
0.0
 40
0.0
 40
0.0
 40
0.0
 40
1.0
 40
1.0
 40
1.0
 40
1.0
 10
145.748
 20
99.7384
 30
0.0
 10
145.241
 20
99.6446
 30
0.0
 10
145.036
 20
98.4677
 30
0.0
 10
145.289
 20
97.1102
 30
0.0
  0
SPLINE
  5
17f
100
AcDbEntity
  8
0
100
AcDbSpline
210
0.0
220
0.0
230
1.0
 62
     0
 70
     0
 71
     3
 72
     8
 73
4
 40
0.0
 40
0.0
 40
0.0
 40
0.0
 40
1.0
 40
1.0
 40
1.0
 40
1.0
 10
145.289
 20
97.1102
 30
0.0
 10
145.543
 20
95.7531
 30
0.0
 10
146.159
 20
94.729
 30
0.0
 10
146.666
 20
94.8242
 30
0.0
  0
SPLINE
  5
180
100
AcDbEntity
  8
0
100
AcDbSpline
210
0.0
220
0.0
230
1.0
 62
     0
 70
     0
 71
     3
 72
     8
 73
4
 40
0.0
 40
0.0
 40
0.0
 40
0.0
 40
1.0
 40
1.0
 40
1.0
 40
1.0
 10
146.666
 20
94.8242
 30
0.0
 10
147.013
 20
94.8891
 30
0.0
 10
147.234
 20
95.4733
 30
0.0
 10
147.234
 20
96.3359
 30
0.0
  0
SPLINE
  5
181
100
AcDbEntity
  8
0
100
AcDbSpline
210
0.0
220
0.0
230
1.0
 62
     0
 70
     0
 71
     3
 72
     8
 73
4
 40
0.0
 40
0.0
 40
0.0
 40
0.0
 40
1.0
 40
1.0
 40
1.0
 40
1.0
 10
147.234
 20
75.8624
 30
0.0
 10
147.234
 20
76.6519
 30
0.0
 10
147.049
 20
77.5533
 30
0.0
 10
146.746
 20
78.2465
 30
0.0
  0
SPLINE
  5
182
100
AcDbEntity
  8
0
100
AcDbSpline
210
0.0
220
0.0
230
1.0
 62
     0
 70
     0
 71
     3
 72
     8
 73
4
 40
0.0
 40
0.0
 40
0.0
 40
0.0
 40
1.0
 40
1.0
 40
1.0
 40
1.0
 10
146.746
 20
78.2465
 30
0.0
 10
146.444
 20
78.9397
 30
0.0
 10
146.067
 20
79.3253
 30
0.0
 10
145.748
 20
79.266
 30
0.0
  0
SPLINE
  5
183
100
AcDbEntity
  8
0
100
AcDbSpline
210
0.0
220
0.0
230
1.0
 62
     0
 70
     0
 71
     3
 72
     8
 73
4
 40
0.0
 40
0.0
 40
0.0
 40
0.0
 40
1.0
 40
1.0
 40
1.0
 40
1.0
 10
145.748
 20
79.266
 30
0.0
 10
145.241
 20
79.1725
 30
0.0
 10
145.036
 20
77.9942
 30
0.0
 10
145.289
 20
76.6367
 30
0.0
  0
SPLINE
  5
184
100
AcDbEntity
  8
0
100
AcDbSpline
210
0.0
220
0.0
230
1.0
 62
     0
 70
     0
 71
     3
 72
     8
 73
4
 40
0.0
 40
0.0
 40
0.0
 40
0.0
 40
1.0
 40
1.0
 40
1.0
 40
1.0
 10
145.289
 20
76.6367
 30
0.0
 10
145.543
 20
75.281
 30
0.0
 10
146.159
 20
74.2569
 30
0.0
 10
146.666
 20
74.3507
 30
0.0
  0
SPLINE
  5
185
100
AcDbEntity
  8
0
100
AcDbSpline
210
0.0
220
0.0
230
1.0
 62
     0
 70
     0
 71
     3
 72
     8
 73
4
 40
0.0
 40
0.0
 40
0.0
 40
0.0
 40
1.0
 40
1.0
 40
1.0
 40
1.0
 10
146.666
 20
74.3507
 30
0.0
 10
147.013
 20
74.4167
 30
0.0
 10
147.234
 20
75.0013
 30
0.0
 10
147.234
 20
75.8624
 30
0.0
  0
LINE
  5
186
100
AcDbEntity
  8
0
100
AcDbLine
 62
     0
 10
150.311
 20
62.7888
 30
0.0
 11
154.871
 21
63.6404
 31
0.0
  0
LINE
  5
187
100
AcDbEntity
  8
0
100
AcDbLine
 62
     0
 10
155.896
 20
64.969
 30
0.0
 11
154.871
 21
63.6404
 31
0.0
  0
LINE
  5
188
100
AcDbEntity
  8
0
100
AcDbLine
 62
     0
 10
150.311
 20
103.735
 30
0.0
 11
154.871
 21
104.585
 31
0.0
  0
LINE
  5
189
100
AcDbEntity
  8
0
100
AcDbLine
 62
     0
 10
155.896
 20
101.364
 30
0.0
 11
154.871
 21
104.585
 31
0.0
  0
LINE
  5
18a
100
AcDbEntity
  8
0
100
AcDbLine
 62
     0
 10
154.871
 20
104.585
 30
0.0
 11
146.663
 21
112.152
 31
0.0
  0
LINE
  5
18b
100
AcDbEntity
  8
0
100
AcDbLine
 62
     0
 10
146.663
 20
112.152
 30
0.0
 11
142.103
 21
111.3
 31
0.0
  0
LINE
  5
18c
100
AcDbEntity
  8
0
100
AcDbLine
 62
     0
 10
151.336
 20
166.479
 30
0.0
 11
151.336
 21
202.875
 31
0.0
  0
LINE
  5
18d
100
AcDbEntity
  8
0
100
AcDbLine
 62
     0
 10
151.336
 20
166.479
 30
0.0
 11
155.896
 21
167.331
 31
0.0
  0
LINE
  5
18e
100
AcDbEntity
  8
0
100
AcDbLine
 62
     0
 10
151.336
 20
202.875
 30
0.0
 11
155.896
 21
203.726
 31
0.0
  0
LINE
  5
18f
100
AcDbEntity
  8
0
100
AcDbLine
 62
     0
 10
155.896
 20
167.331
 30
0.0
 11
155.896
 21
203.726
 31
0.0
  0
LINE
  5
190
100
AcDbEntity
  8
0
100
AcDbLine
 62
     0
 10
141.078
 20
175.938
 30
0.0
 11
141.078
 21
212.334
 31
0.0
  0
LINE
  5
191
100
AcDbEntity
  8
0
100
AcDbLine
 62
     0
 10
141.078
 20
175.938
 30
0.0
 11
142.103
 21
172.718
 31
0.0
  0
LINE
  5
192
100
AcDbEntity
  8
0
100
AcDbLine
 62
     0
 10
141.078
 20
212.334
 30
0.0
 11
142.103
 21
213.662
 31
0.0
  0
LINE
  5
193
100
AcDbEntity
  8
0
100
AcDbLine
 62
     0
 10
142.103
 20
172.718
 30
0.0
 11
150.311
 21
165.151
 31
0.0
  0
LINE
  5
194
100
AcDbEntity
  8
0
100
AcDbLine
 62
     0
 10
142.103
 20
213.662
 30
0.0
 11
150.311
 21
206.095
 31
0.0
  0
LINE
  5
195
100
AcDbEntity
  8
0
100
AcDbLine
 62
     0
 10
151.336
 20
166.479
 30
0.0
 11
150.311
 21
165.151
 31
0.0
  0
LINE
  5
196
100
AcDbEntity
  8
0
100
AcDbLine
 62
     0
 10
151.336
 20
202.875
 30
0.0
 11
150.311
 21
206.095
 31
0.0
  0
SPLINE
  5
197
100
AcDbEntity
  8
0
100
AcDbSpline
210
0.0
220
0.0
230
1.0
 62
     0
 70
     0
 71
     3
 72
     8
 73
4
 40
0.0
 40
0.0
 40
0.0
 40
0.0
 40
1.0
 40
1.0
 40
1.0
 40
1.0
 10
147.234
 20
178.224
 30
0.0
 10
147.234
 20
179.013
 30
0.0
 10
147.049
 20
179.915
 30
0.0
 10
146.746
 20
180.608
 30
0.0
  0
SPLINE
  5
198
100
AcDbEntity
  8
0
100
AcDbSpline
210
0.0
220
0.0
230
1.0
 62
     0
 70
     0
 71
     3
 72
     8
 73
4
 40
0.0
 40
0.0
 40
0.0
 40
0.0
 40
1.0
 40
1.0
 40
1.0
 40
1.0
 10
146.746
 20
180.608
 30
0.0
 10
146.444
 20
181.302
 30
0.0
 10
146.067
 20
181.688
 30
0.0
 10
145.748
 20
181.628
 30
0.0
  0
SPLINE
  5
199
100
AcDbEntity
  8
0
100
AcDbSpline
210
0.0
220
0.0
230
1.0
 62
     0
 70
     0
 71
     3
 72
     8
 73
4
 40
0.0
 40
0.0
 40
0.0
 40
0.0
 40
1.0
 40
1.0
 40
1.0
 40
1.0
 10
145.748
 20
181.628
 30
0.0
 10
145.241
 20
181.533
 30
0.0
 10
145.036
 20
180.356
 30
0.0
 10
145.289
 20
178.999
 30
0.0
  0
SPLINE
  5
19a
100
AcDbEntity
  8
0
100
AcDbSpline
210
0.0
220
0.0
230
1.0
 62
     0
 70
     0
 71
     3
 72
     8
 73
4
 40
0.0
 40
0.0
 40
0.0
 40
0.0
 40
1.0
 40
1.0
 40
1.0
 40
1.0
 10
145.289
 20
178.999
 30
0.0
 10
145.543
 20
177.642
 30
0.0
 10
146.159
 20
176.617
 30
0.0
 10
146.666
 20
176.713
 30
0.0
  0
SPLINE
  5
19b
100
AcDbEntity
  8
0
100
AcDbSpline
210
0.0
220
0.0
230
1.0
 62
     0
 70
     0
 71
     3
 72
     8
 73
4
 40
0.0
 40
0.0
 40
0.0
 40
0.0
 40
1.0
 40
1.0
 40
1.0
 40
1.0
 10
146.666
 20
176.713
 30
0.0
 10
147.013
 20
176.778
 30
0.0
 10
147.234
 20
177.363
 30
0.0
 10
147.234
 20
178.224
 30
0.0
  0
SPLINE
  5
19c
100
AcDbEntity
  8
0
100
AcDbSpline
210
0.0
220
0.0
230
1.0
 62
     0
 70
     0
 71
     3
 72
     8
 73
4
 40
0.0
 40
0.0
 40
0.0
 40
0.0
 40
1.0
 40
1.0
 40
1.0
 40
1.0
 10
147.234
 20
198.696
 30
0.0
 10
147.234
 20
199.485
 30
0.0
 10
147.049
 20
200.387
 30
0.0
 10
146.746
 20
201.081
 30
0.0
  0
SPLINE
  5
19d
100
AcDbEntity
  8
0
100
AcDbSpline
210
0.0
220
0.0
230
1.0
 62
     0
 70
     0
 71
     3
 72
     8
 73
4
 40
0.0
 40
0.0
 40
0.0
 40
0.0
 40
1.0
 40
1.0
 40
1.0
 40
1.0
 10
146.746
 20
201.081
 30
0.0
 10
146.444
 20
201.774
 30
0.0
 10
146.067
 20
202.16
 30
0.0
 10
145.748
 20
202.1
 30
0.0
  0
SPLINE
  5
19e
100
AcDbEntity
  8
0
100
AcDbSpline
210
0.0
220
0.0
230
1.0
 62
     0
 70
     0
 71
     3
 72
     8
 73
4
 40
0.0
 40
0.0
 40
0.0
 40
0.0
 40
1.0
 40
1.0
 40
1.0
 40
1.0
 10
145.748
 20
202.1
 30
0.0
 10
145.241
 20
202.005
 30
0.0
 10
145.036
 20
200.828
 30
0.0
 10
145.289
 20
199.471
 30
0.0
  0
SPLINE
  5
19f
100
AcDbEntity
  8
0
100
AcDbSpline
210
0.0
220
0.0
230
1.0
 62
     0
 70
     0
 71
     3
 72
     8
 73
4
 40
0.0
 40
0.0
 40
0.0
 40
0.0
 40
1.0
 40
1.0
 40
1.0
 40
1.0
 10
145.289
 20
199.471
 30
0.0
 10
145.543
 20
198.114
 30
0.0
 10
146.159
 20
197.091
 30
0.0
 10
146.666
 20
197.185
 30
0.0
  0
SPLINE
  5
1a0
100
AcDbEntity
  8
0
100
AcDbSpline
210
0.0
220
0.0
230
1.0
 62
     0
 70
     0
 71
     3
 72
     8
 73
4
 40
0.0
 40
0.0
 40
0.0
 40
0.0
 40
1.0
 40
1.0
 40
1.0
 40
1.0
 10
146.666
 20
197.185
 30
0.0
 10
147.013
 20
197.25
 30
0.0
 10
147.234
 20
197.835
 30
0.0
 10
147.234
 20
198.696
 30
0.0
  0
LINE
  5
1a1
100
AcDbEntity
  8
0
100
AcDbLine
 62
     0
 10
150.311
 20
165.151
 30
0.0
 11
154.871
 21
166.003
 31
0.0
  0
LINE
  5
1a2
100
AcDbEntity
  8
0
100
AcDbLine
 62
     0
 10
155.896
 20
167.331
 30
0.0
 11
154.871
 21
166.003
 31
0.0
  0
LINE
  5
1a3
100
AcDbEntity
  8
0
100
AcDbLine
 62
     0
 10
150.311
 20
206.095
 30
0.0
 11
154.871
 21
206.947
 31
0.0
  0
LINE
  5
1a4
100
AcDbEntity
  8
0
100
AcDbLine
 62
     0
 10
155.896
 20
203.726
 30
0.0
 11
154.871
 21
206.947
 31
0.0
  0
LINE
  5
1a5
100
AcDbEntity
  8
0
100
AcDbLine
 62
     0
 10
154.871
 20
206.947
 30
0.0
 11
146.663
 21
214.514
 31
0.0
  0
LINE
  5
1a6
100
AcDbEntity
  8
0
100
AcDbLine
 62
     0
 10
146.663
 20
214.514
 30
0.0
 11
142.103
 21
213.662
 31
0.0
  0
ENDSEC
  0
SECTION
  2
OBJECTS
  0
DICTIONARY
  5
C
330
0
100
AcDbDictionary
  3
ACAD_GROUP
350
D
  3
ACAD_LAYOUT
350
1A
  3
ACAD_MLINESTYLE
350
17
  3
ACAD_PLOTSETTINGS
350
19
  3
ACAD_PLOTSTYLENAME
350
E
  3
ACDBHEADERROUNDTRIPXREC
350
2F
  0
DICTIONARY
  5
52
330
1F
100
AcDbDictionary
280
     1
  3
ACAD_LAYOUTSELFREF
360
53
  0
DICTIONARY
  5
50
330
1B
100
AcDbDictionary
280
     1
  3
ACAD_LAYOUTSELFREF
360
51
  0
DICTIONARY
  5
D
102
{ACAD_REACTORS
330
C
102
}
330
C
100
AcDbDictionary
  0
DICTIONARY
  5
1A
102
{ACAD_REACTORS
330
C
102
}
330
C
100
AcDbDictionary
  0
DICTIONARY
  5
17
102
{ACAD_REACTORS
330
C
102
}
330
C
100
AcDbDictionary
  3
STANDARD
350
18
  0
DICTIONARY
  5
19
102
{ACAD_REACTORS
330
C
102
}
330
C
100
AcDbDictionary
  0
ACDBDICTIONARYWDFLT
  5
E
102
{ACAD_REACTORS
330
C
102
}
330
C
100
AcDbDictionary
281
     1
  3
Normal
350
F
100
AcDbDictionaryWithDefault
340
F
  0
DICTIONARY
  5
2F
102
{ACAD_REACTORS
330
C
102
}
330
C
100
AcDbDictionary
  3
CEPSNTYPE
350
39
  3
DIMSTYLEDATA
350
3D
  3
FINGERPRINTGUID
350
3A
  3
HYPERLINKBASE
350
32
  3
INSUNITS
350
38
  3
LAYOUTDICT
350
34
  3
LWETCUNION
350
37
  3
PLOTSETDICT
350
35
  3
PLOTSTYLNAMDICT
350
36
  3
PSVPSCALE
350
3C
  3
PUCSBASE
350
40
  3
PUCSORGBACK
350
46
  3
PUCSORGBOTTOM
350
42
  3
PUCSORGFRONT
350
45
  3
PUCSORGLEFT
350
43
  3
PUCSORGRIGHT
350
44
  3
PUCSORGTOP
350
41
  3
PUCSORTHOREF
350
3E
  3
PUCSORTHOVIEW
350
3F
  3
STYLESHEET
350
33
  3
TSTACKALIGN
350
30
  3
TSTACKSIZE
350
31
  3
UCSBASE
350
49
  3
UCSORGBACK
350
4F
  3
UCSORGBOTTOM
350
4B
  3
UCSORGFRONT
350
4E
  3
UCSORGLEFT
350
4C
  3
UCSORGRIGHT
350
4D
  3
UCSORGTOP
350
4A
  3
UCSORTHOREF
350
47
  3
UCSORTHOVIEW
350
48
  3
VERSIONGUID
350
3B
  0
XRECORD
  5
53
102
{ACAD_REACTORS
330
52
102
}
330
52
100
AcDbXrecord
340
1F
  0
XRECORD
  5
51
102
{ACAD_REACTORS
330
50
102
}
330
50
100
AcDbXrecord
340
1B
  0
MLINESTYLE
  5
18
102
{ACAD_REACTORS
330
17
102
}
330
17
100
AcDbMlineStyle
  2
STANDARD
 70
     0
  3

 62
   256
 51
90.0
 52
90.0
 71
     2
 49
0.5
 62
   256
  6
BYLAYER
 49
-0.5
 62
   256
  6
BYLAYER
  0
ACDBPLACEHOLDER
  5
F
102
{ACAD_REACTORS
330
E
102
}
330
E
100
AcDbPlaceHolder
280
     0
  0
XRECORD
  5
39
102
{ACAD_REACTORS
330
2F
102
}
330
2F
100
AcDbXrecord
 90
        0
  0
XRECORD
  5
3D
102
{ACAD_REACTORS
330
2F
102
}
330
2F
100
AcDbXrecord
1000
DSTYLE
1002
{
1070
   278
 70
    44
1002
}
  0
XRECORD
  5
3A
102
{ACAD_REACTORS
330
2F
102
}
330
2F
100
AcDbXrecord
  1
{705446A6-11D0-4548-8F8C-A97DCA50327D}
  0
XRECORD
  5
32
102
{ACAD_REACTORS
330
2F
102
}
330
2F
100
AcDbXrecord
  1

  0
XRECORD
  5
38
102
{ACAD_REACTORS
330
2F
102
}
330
2F
100
AcDbXrecord
 90
        4
  0
XRECORD
  5
34
102
{ACAD_REACTORS
330
2F
102
}
330
2F
100
AcDbXrecord
340
1A
  0
XRECORD
  5
37
102
{ACAD_REACTORS
330
2F
102
}
330
2F
100
AcDbXrecord
 90
    10781
  0
XRECORD
  5
35
102
{ACAD_REACTORS
330
2F
102
}
330
2F
100
AcDbXrecord
340
19
  0
XRECORD
  5
36
102
{ACAD_REACTORS
330
2F
102
}
330
2F
100
AcDbXrecord
340
E
  0
XRECORD
  5
3C
102
{ACAD_REACTORS
330
2F
102
}
330
2F
100
AcDbXrecord
 40
0.0
  0
XRECORD
  5
40
102
{ACAD_REACTORS
330
2F
102
}
330
2F
100
AcDbXrecord
340
0
  0
XRECORD
  5
46
102
{ACAD_REACTORS
330
2F
102
}
330
2F
100
AcDbXrecord
 10
0.0
 20
0.0
 30
0.0
  0
XRECORD
  5
42
102
{ACAD_REACTORS
330
2F
102
}
330
2F
100
AcDbXrecord
 10
0.0
 20
0.0
 30
0.0
  0
XRECORD
  5
45
102
{ACAD_REACTORS
330
2F
102
}
330
2F
100
AcDbXrecord
 10
0.0
 20
0.0
 30
0.0
  0
XRECORD
  5
43
102
{ACAD_REACTORS
330
2F
102
}
330
2F
100
AcDbXrecord
 10
0.0
 20
0.0
 30
0.0
  0
XRECORD
  5
44
102
{ACAD_REACTORS
330
2F
102
}
330
2F
100
AcDbXrecord
 10
0.0
 20
0.0
 30
0.0
  0
XRECORD
  5
41
102
{ACAD_REACTORS
330
2F
102
}
330
2F
100
AcDbXrecord
 10
0.0
 20
0.0
 30
0.0
  0
XRECORD
  5
3E
102
{ACAD_REACTORS
330
2F
102
}
330
2F
100
AcDbXrecord
340
0
  0
XRECORD
  5
3F
102
{ACAD_REACTORS
330
2F
102
}
330
2F
100
AcDbXrecord
 70
     0
  0
XRECORD
  5
33
102
{ACAD_REACTORS
330
2F
102
}
330
2F
100
AcDbXrecord
  1

  0
XRECORD
  5
30
102
{ACAD_REACTORS
330
2F
102
}
330
2F
100
AcDbXrecord
 90
        1
  0
XRECORD
  5
31
102
{ACAD_REACTORS
330
2F
102
}
330
2F
100
AcDbXrecord
 90
       70
  0
XRECORD
  5
49
102
{ACAD_REACTORS
330
2F
102
}
330
2F
100
AcDbXrecord
340
0
  0
XRECORD
  5
4F
102
{ACAD_REACTORS
330
2F
102
}
330
2F
100
AcDbXrecord
 10
0.0
 20
0.0
 30
0.0
  0
XRECORD
  5
4B
102
{ACAD_REACTORS
330
2F
102
}
330
2F
100
AcDbXrecord
 10
0.0
 20
0.0
 30
0.0
  0
XRECORD
  5
4E
102
{ACAD_REACTORS
330
2F
102
}
330
2F
100
AcDbXrecord
 10
0.0
 20
0.0
 30
0.0
  0
XRECORD
  5
4C
102
{ACAD_REACTORS
330
2F
102
}
330
2F
100
AcDbXrecord
 10
0.0
 20
0.0
 30
0.0
  0
XRECORD
  5
4D
102
{ACAD_REACTORS
330
2F
102
}
330
2F
100
AcDbXrecord
 10
0.0
 20
0.0
 30
0.0
  0
XRECORD
  5
4A
102
{ACAD_REACTORS
330
2F
102
}
330
2F
100
AcDbXrecord
 10
0.0
 20
0.0
 30
0.0
  0
XRECORD
  5
47
102
{ACAD_REACTORS
330
2F
102
}
330
2F
100
AcDbXrecord
340
0
  0
XRECORD
  5
48
102
{ACAD_REACTORS
330
2F
102
}
330
2F
100
AcDbXrecord
 70
     0
  0
XRECORD
  5
3B
102
{ACAD_REACTORS
330
2F
102
}
330
2F
100
AcDbXrecord
  1
{33328E3A-B6B8-4979-86B7-D70DEC2867C2}
  0
ENDSEC
  0
EOF
