  0
SECTION
  2
HEADER
  9
$ACADVER
  1
AC1014
  9
$EXTMIN
 10
70.16401489310567
 20
112.369642808922
 30
0.0
  9
$EXTMAX
 10
277.0834797641999
 20
227.1366601424358
 30
0.0
  9
$HANDSEED
  5
56
  9
$MEASUREMENT
 70
1
  0
ENDSEC
  0
SECTION
  2
TABLES
  0
TABLE
  2
VPORT
  5
8
330
0
100
AcDbSymbolTable
 70
     4
  0
VPORT
  5
2E
330
8
100
AcDbSymbolTableRecord
100
AcDbViewportTableRecord
  2
*ACTIVE
 70
     0
 10
0.0
 20
0.0
 11
1.0
 21
1.0
 12
209.9999999999999
 22
148.4999999999999
 13
0.0
 23
0.0
 14
10.0
 24
10.0
 15
10.0
 25
10.0
 16
0.0
 26
0.0
 36
1.0
 17
0.0
 27
0.0
 37
0.0
 40
340.9950045922664
 41
1.239944521497919
 42
50.0
 43
0.0
 44
0.0
 50
0.0
 51
0.0
 71
     0
 72
   100
 73
     1
 74
     3
 75
     0
 76
     0
 77
     0
 78
     0
  0
ENDTAB
  0
TABLE
  2
LTYPE
  5
5
330
0
100
AcDbSymbolTable
 70
     1
  0
LTYPE
  5
14
330
5
100
AcDbSymbolTableRecord
100
AcDbLinetypeTableRecord
  2
BYBLOCK
 70
     0
  3

 72
    65
 73
     0
 40
0.0
  0
LTYPE
  5
15
330
5
100
AcDbSymbolTableRecord
100
AcDbLinetypeTableRecord
  2
BYLAYER
 70
     0
  3

 72
    65
 73
     0
 40
0.0
  0
LTYPE
  5
16
330
5
100
AcDbSymbolTableRecord
100
AcDbLinetypeTableRecord
  2
CONTINUOUS
 70
     0
  3
Solid line
 72
    65
 73
     0
 40
0.0
  0
ENDTAB
  0
TABLE
  2
LAYER
  5
2
330
0
100
AcDbSymbolTable
 70
1
  0
LAYER
  5
10
330
2
100
AcDbSymbolTableRecord
100
AcDbLayerTableRecord
  2
0
 70
     0
 62
     7
  6
CONTINUOUS
  0
ENDTAB
  0
TABLE
  2
STYLE
  5
3
330
0
100
AcDbSymbolTable
 70
     1
  0
STYLE
  5
11
330
3
100
AcDbSymbolTableRecord
100
AcDbTextStyleTableRecord
  2
STANDARD
 70
     0
 40
0.0
 41
1.0
 50
0.0
 71
     0
 42
2.5
  3
txt
  4

  0
ENDTAB
  0
TABLE
  2
VIEW
  5
6
330
0
100
AcDbSymbolTable
 70
     0
  0
ENDTAB
  0
TABLE
  2
UCS
  5
7
330
0
100
AcDbSymbolTable
 70
     0
  0
ENDTAB
  0
TABLE
  2
APPID
  5
9
330
0
100
AcDbSymbolTable
 70
     2
  0
APPID
  5
12
330
9
100
AcDbSymbolTableRecord
100
AcDbRegAppTableRecord
  2
ACAD
 70
     0
  0
APPID
  5
2B
330
9
100
AcDbSymbolTableRecord
100
AcDbRegAppTableRecord
  2
URBANX
 70
     0
  0
ENDTAB
  0
TABLE
  2
DIMSTYLE
  5
A
330
0
100
AcDbSymbolTable
 70
     1
  0
DIMSTYLE
105
27
330
A
100
AcDbSymbolTableRecord
100
AcDbDimStyleTableRecord
  2
ISO-25
 70
     0
  3

  4

  5

  6

  7

 40
1.0
 41
2.5
 42
0.625
 43
3.75
 44
1.25
 45
0.0
 46
0.0
 47
0.0
 48
0.0
140
2.5
141
2.5
142
0.0
143
0.03937007874016
144
1.0
145
0.0
146
1.0
147
0.625
 71
     0
 72
     0
 73
     0
 74
     0
 75
     0
 76
     0
 77
     1
 78
     8
170
     0
171
     3
172
     1
173
     0
174
     0
175
     0
176
     0
177
     0
178
     0
270
     2
271
     2
272
     2
273
     2
274
     3
340
11
275
     0
280
     0
281
     0
282
     0
283
     0
284
     8
285
     0
286
     0
287
     3
288
     0
  0
ENDTAB
  0
TABLE
  2
BLOCK_RECORD
  5
1
330
0
100
AcDbSymbolTable
 70
     1
  0
BLOCK_RECORD
  5
1F
102
{ACAD_XDICTIONARY
360
52
102
}
330
1
100
AcDbSymbolTableRecord
100
AcDbBlockTableRecord
  2
*MODEL_SPACE
  0
BLOCK_RECORD
  5
1B
102
{ACAD_XDICTIONARY
360
50
102
}
330
1
100
AcDbSymbolTableRecord
100
AcDbBlockTableRecord
  2
*PAPER_SPACE
  0
ENDTAB
  0
ENDSEC
  0
SECTION
  2
BLOCKS
  0
BLOCK
  5
20
330
1F
100
AcDbEntity
  8
0
100
AcDbBlockBegin
  2
*MODEL_SPACE
 70
     0
 10
0.0
 20
0.0
 30
0.0
  3
*MODEL_SPACE
  1

  0
ENDBLK
  5
21
330
1F
100
AcDbEntity
  8
0
100
AcDbBlockEnd
  0
BLOCK
  5
1C
330
1B
100
AcDbEntity
 67
     1
  8
0
100
AcDbBlockBegin
  2
*PAPER_SPACE
  1

  0
ENDBLK
  5
1D
330
1B
100
AcDbEntity
 67
     1
  8
0
100
AcDbBlockEnd
  0
ENDSEC
  0
SECTION
  2
ENTITIES
  0
LINE
  5
ff
100
AcDbEntity
  8
0
100
AcDbLine
 62
     253
 10
10.0762
 20
41.9749
 30
0.0
 11
10.0762
 21
214.176
 31
0.0
  0
LINE
  5
100
100
AcDbEntity
  8
0
100
AcDbLine
 62
     253
 10
10.0762
 20
93.0755
 30
0.0
 11
10.0762
 21
94.076
 31
0.0
  0
LINE
  5
101
100
AcDbEntity
  8
0
100
AcDbLine
 62
     253
 10
10.0762
 20
94.076
 30
0.0
 11
10.0762
 21
92.075
 31
0.0
  0
LINE
  5
102
100
AcDbEntity
  8
0
100
AcDbLine
 62
     253
 10
10.0762
 20
92.075
 30
0.0
 11
10.0762
 21
93.0755
 31
0.0
  0
LINE
  5
103
100
AcDbEntity
  8
0
100
AcDbLine
 62
     253
 10
10.0762
 20
102.077
 30
0.0
 11
10.0762
 21
103.077
 31
0.0
  0
LINE
  5
104
100
AcDbEntity
  8
0
100
AcDbLine
 62
     253
 10
10.0762
 20
103.077
 30
0.0
 11
10.0762
 21
101.076
 31
0.0
  0
LINE
  5
105
100
AcDbEntity
  8
0
100
AcDbLine
 62
     253
 10
10.0762
 20
101.076
 30
0.0
 11
10.0762
 21
102.077
 31
0.0
  0
LINE
  5
106
100
AcDbEntity
  8
0
100
AcDbLine
 62
     253
 10
10.0762
 20
138.077
 30
0.0
 11
10.0762
 21
139.077
 31
0.0
  0
LINE
  5
107
100
AcDbEntity
  8
0
100
AcDbLine
 62
     253
 10
10.0762
 20
139.077
 30
0.0
 11
10.0762
 21
137.076
 31
0.0
  0
LINE
  5
108
100
AcDbEntity
  8
0
100
AcDbLine
 62
     253
 10
10.0762
 20
137.076
 30
0.0
 11
10.0762
 21
138.077
 31
0.0
  0
LINE
  5
109
100
AcDbEntity
  8
0
100
AcDbLine
 62
     253
 10
10.0762
 20
183.075
 30
0.0
 11
10.0762
 21
184.076
 31
0.0
  0
LINE
  5
10a
100
AcDbEntity
  8
0
100
AcDbLine
 62
     253
 10
10.0762
 20
184.076
 30
0.0
 11
10.0762
 21
182.076
 31
0.0
  0
LINE
  5
10b
100
AcDbEntity
  8
0
100
AcDbLine
 62
     253
 10
10.0762
 20
182.076
 30
0.0
 11
10.0762
 21
183.075
 31
0.0
  0
LINE
  5
10c
100
AcDbEntity
  8
0
100
AcDbLine
 62
     253
 10
10.0762
 20
147.075
 30
0.0
 11
10.0762
 21
148.076
 31
0.0
  0
LINE
  5
10d
100
AcDbEntity
  8
0
100
AcDbLine
 62
     253
 10
10.0762
 20
148.076
 30
0.0
 11
10.0762
 21
146.075
 31
0.0
  0
LINE
  5
10e
100
AcDbEntity
  8
0
100
AcDbLine
 62
     253
 10
10.0762
 20
146.075
 30
0.0
 11
10.0762
 21
147.075
 31
0.0
  0
LINE
  5
10f
100
AcDbEntity
  8
0
100
AcDbLine
 62
     253
 10
10.0762
 20
48.0755
 30
0.0
 11
10.0762
 21
49.076
 31
0.0
  0
LINE
  5
110
100
AcDbEntity
  8
0
100
AcDbLine
 62
     253
 10
10.0762
 20
49.076
 30
0.0
 11
10.0762
 21
47.075
 31
0.0
  0
LINE
  5
111
100
AcDbEntity
  8
0
100
AcDbLine
 62
     253
 10
10.0762
 20
47.075
 30
0.0
 11
10.0762
 21
48.0755
 31
0.0
  0
LINE
  5
112
100
AcDbEntity
  8
0
100
AcDbLine
 62
     253
 10
10.0762
 20
57.0756
 30
0.0
 11
10.0762
 21
58.076
 31
0.0
  0
LINE
  5
113
100
AcDbEntity
  8
0
100
AcDbLine
 62
     253
 10
10.0762
 20
58.076
 30
0.0
 11
10.0762
 21
56.0751
 31
0.0
  0
LINE
  5
114
100
AcDbEntity
  8
0
100
AcDbLine
 62
     253
 10
10.0762
 20
56.0751
 30
0.0
 11
10.0762
 21
57.0756
 31
0.0
  0
LINE
  5
115
100
AcDbEntity
  8
0
100
AcDbLine
 62
     253
 10
10.0762
 20
192.075
 30
0.0
 11
10.0762
 21
193.077
 31
0.0
  0
LINE
  5
116
100
AcDbEntity
  8
0
100
AcDbLine
 62
     253
 10
10.0762
 20
193.077
 30
0.0
 11
10.0762
 21
191.076
 31
0.0
  0
LINE
  5
117
100
AcDbEntity
  8
0
100
AcDbLine
 62
     253
 10
10.0762
 20
191.076
 30
0.0
 11
10.0762
 21
192.075
 31
0.0
  0
LINE
  5
118
100
AcDbEntity
  8
0
100
AcDbLine
 62
     253
 10
9.67659
 20
41.5766
 30
0.0
 11
10.0762
 21
41.9749
 31
0.0
  0
LINE
  5
119
100
AcDbEntity
  8
0
100
AcDbLine
 62
     253
 10
10.0762
 20
214.176
 30
0.0
 11
9.67659
 21
214.576
 31
0.0
  0
LINE
  5
11a
100
AcDbEntity
  8
0
100
AcDbLine
 62
     253
 10
10.0762
 20
41.9749
 30
0.0
 11
9.67659
 21
41.9749
 31
0.0
  0
LINE
  5
11b
100
AcDbEntity
  8
0
100
AcDbLine
 62
     253
 10
9.67659
 20
214.176
 30
0.0
 11
10.0762
 21
214.176
 31
0.0
  0
LINE
  5
11c
100
AcDbEntity
  8
0
100
AcDbLine
 62
     253
 10
9.67659
 20
41.9749
 30
0.0
 11
9.67659
 21
214.176
 31
0.0
  0
LINE
  5
11d
100
AcDbEntity
  8
0
100
AcDbLine
 62
     253
 10
6.07579
 20
93.0755
 30
0.0
 11
6.07579
 21
94.076
 31
0.0
  0
LINE
  5
11e
100
AcDbEntity
  8
0
100
AcDbLine
 62
     253
 10
6.07579
 20
94.076
 30
0.0
 11
6.07579
 21
92.075
 31
0.0
  0
LINE
  5
11f
100
AcDbEntity
  8
0
100
AcDbLine
 62
     253
 10
6.07579
 20
92.075
 30
0.0
 11
6.07579
 21
93.0755
 31
0.0
  0
LINE
  5
120
100
AcDbEntity
  8
0
100
AcDbLine
 62
     253
 10
6.07579
 20
102.077
 30
0.0
 11
6.07579
 21
103.077
 31
0.0
  0
LINE
  5
121
100
AcDbEntity
  8
0
100
AcDbLine
 62
     253
 10
6.07579
 20
103.077
 30
0.0
 11
6.07579
 21
101.076
 31
0.0
  0
LINE
  5
122
100
AcDbEntity
  8
0
100
AcDbLine
 62
     253
 10
6.07579
 20
101.076
 30
0.0
 11
6.07579
 21
102.077
 31
0.0
  0
LINE
  5
123
100
AcDbEntity
  8
0
100
AcDbLine
 62
     253
 10
6.07579
 20
138.077
 30
0.0
 11
6.07579
 21
139.077
 31
0.0
  0
LINE
  5
124
100
AcDbEntity
  8
0
100
AcDbLine
 62
     253
 10
6.07579
 20
139.077
 30
0.0
 11
6.07579
 21
137.076
 31
0.0
  0
LINE
  5
125
100
AcDbEntity
  8
0
100
AcDbLine
 62
     253
 10
6.07579
 20
137.076
 30
0.0
 11
6.07579
 21
138.077
 31
0.0
  0
LINE
  5
126
100
AcDbEntity
  8
0
100
AcDbLine
 62
     253
 10
6.07579
 20
183.075
 30
0.0
 11
6.07579
 21
184.076
 31
0.0
  0
LINE
  5
127
100
AcDbEntity
  8
0
100
AcDbLine
 62
     253
 10
6.07579
 20
184.076
 30
0.0
 11
6.07579
 21
182.076
 31
0.0
  0
LINE
  5
128
100
AcDbEntity
  8
0
100
AcDbLine
 62
     253
 10
6.07579
 20
182.076
 30
0.0
 11
6.07579
 21
183.075
 31
0.0
  0
LINE
  5
129
100
AcDbEntity
  8
0
100
AcDbLine
 62
     253
 10
6.07579
 20
147.075
 30
0.0
 11
6.07579
 21
148.076
 31
0.0
  0
LINE
  5
12a
100
AcDbEntity
  8
0
100
AcDbLine
 62
     253
 10
6.07579
 20
148.076
 30
0.0
 11
6.07579
 21
146.075
 31
0.0
  0
LINE
  5
12b
100
AcDbEntity
  8
0
100
AcDbLine
 62
     253
 10
6.07579
 20
146.075
 30
0.0
 11
6.07579
 21
147.075
 31
0.0
  0
LINE
  5
12c
100
AcDbEntity
  8
0
100
AcDbLine
 62
     253
 10
6.07579
 20
48.0755
 30
0.0
 11
6.07579
 21
49.076
 31
0.0
  0
LINE
  5
12d
100
AcDbEntity
  8
0
100
AcDbLine
 62
     253
 10
6.07579
 20
49.076
 30
0.0
 11
6.07579
 21
47.075
 31
0.0
  0
LINE
  5
12e
100
AcDbEntity
  8
0
100
AcDbLine
 62
     253
 10
6.07579
 20
47.075
 30
0.0
 11
6.07579
 21
48.0755
 31
0.0
  0
LINE
  5
12f
100
AcDbEntity
  8
0
100
AcDbLine
 62
     253
 10
6.07579
 20
57.0756
 30
0.0
 11
6.07579
 21
58.076
 31
0.0
  0
LINE
  5
130
100
AcDbEntity
  8
0
100
AcDbLine
 62
     253
 10
6.07579
 20
58.076
 30
0.0
 11
6.07579
 21
56.0751
 31
0.0
  0
LINE
  5
131
100
AcDbEntity
  8
0
100
AcDbLine
 62
     253
 10
6.07579
 20
56.0751
 30
0.0
 11
6.07579
 21
57.0756
 31
0.0
  0
LINE
  5
132
100
AcDbEntity
  8
0
100
AcDbLine
 62
     253
 10
6.07579
 20
192.075
 30
0.0
 11
6.07579
 21
193.077
 31
0.0
  0
LINE
  5
133
100
AcDbEntity
  8
0
100
AcDbLine
 62
     253
 10
6.07579
 20
193.077
 30
0.0
 11
6.07579
 21
191.076
 31
0.0
  0
LINE
  5
134
100
AcDbEntity
  8
0
100
AcDbLine
 62
     253
 10
6.07579
 20
191.076
 30
0.0
 11
6.07579
 21
192.075
 31
0.0
  0
LINE
  5
135
100
AcDbEntity
  8
0
100
AcDbLine
 62
     253
 10
9.67659
 20
41.5766
 30
0.0
 11
6.47541
 21
41.5766
 31
0.0
  0
LINE
  5
136
100
AcDbEntity
  8
0
100
AcDbLine
 62
     253
 10
9.67659
 20
41.5766
 30
0.0
 11
9.67659
 21
41.9749
 31
0.0
  0
LINE
  5
137
100
AcDbEntity
  8
0
100
AcDbLine
 62
     253
 10
9.67659
 20
214.576
 30
0.0
 11
6.47541
 21
214.576
 31
0.0
  0
LINE
  5
138
100
AcDbEntity
  8
0
100
AcDbLine
 62
     253
 10
9.67659
 20
214.176
 30
0.0
 11
9.67659
 21
214.576
 31
0.0
  0
LINE
  5
139
100
AcDbEntity
  8
0
100
AcDbLine
 62
     253
 10
9.67659
 20
41.9749
 30
0.0
 11
6.47541
 21
41.9749
 31
0.0
  0
LINE
  5
13a
100
AcDbEntity
  8
0
100
AcDbLine
 62
     253
 10
9.67659
 20
214.176
 30
0.0
 11
6.47541
 21
214.176
 31
0.0
  0
LINE
  5
13b
100
AcDbEntity
  8
0
100
AcDbLine
 62
     253
 10
6.47541
 20
41.9749
 30
0.0
 11
6.47541
 21
214.176
 31
0.0
  0
LINE
  5
13c
100
AcDbEntity
  8
0
100
AcDbLine
 62
     253
 10
6.07579
 20
41.9749
 30
0.0
 11
6.07579
 21
214.176
 31
0.0
  0
LINE
  5
13d
100
AcDbEntity
  8
0
100
AcDbLine
 62
     253
 10
6.47541
 20
41.5766
 30
0.0
 11
6.47541
 21
41.9749
 31
0.0
  0
LINE
  5
13e
100
AcDbEntity
  8
0
100
AcDbLine
 62
     253
 10
6.47541
 20
41.5766
 30
0.0
 11
6.07579
 21
41.9749
 31
0.0
  0
LINE
  5
13f
100
AcDbEntity
  8
0
100
AcDbLine
 62
     253
 10
6.47541
 20
214.176
 30
0.0
 11
6.47541
 21
214.576
 31
0.0
  0
LINE
  5
140
100
AcDbEntity
  8
0
100
AcDbLine
 62
     253
 10
6.07579
 20
214.176
 30
0.0
 11
6.47541
 21
214.576
 31
0.0
  0
LINE
  5
141
100
AcDbEntity
  8
0
100
AcDbLine
 62
     253
 10
6.07579
 20
41.9749
 30
0.0
 11
6.47541
 21
41.9749
 31
0.0
  0
LINE
  5
142
100
AcDbEntity
  8
0
100
AcDbLine
 62
     253
 10
6.47541
 20
214.176
 30
0.0
 11
6.07579
 21
214.176
 31
0.0
  0
LINE
  5
143
100
AcDbEntity
  8
0
100
AcDbLine
 62
     253
 10
0.0757922
 20
41.9749
 30
0.0
 11
0.0757922
 21
214.176
 31
0.0
  0
LINE
  5
144
100
AcDbEntity
  8
0
100
AcDbLine
 62
     253
 10
0.0757922
 20
93.0755
 30
0.0
 11
0.0757922
 21
94.076
 31
0.0
  0
LINE
  5
145
100
AcDbEntity
  8
0
100
AcDbLine
 62
     253
 10
0.0757922
 20
94.076
 30
0.0
 11
0.0757922
 21
92.075
 31
0.0
  0
LINE
  5
146
100
AcDbEntity
  8
0
100
AcDbLine
 62
     253
 10
0.0757922
 20
92.075
 30
0.0
 11
0.0757922
 21
93.0755
 31
0.0
  0
LINE
  5
147
100
AcDbEntity
  8
0
100
AcDbLine
 62
     253
 10
0.0757922
 20
102.077
 30
0.0
 11
0.0757922
 21
103.077
 31
0.0
  0
LINE
  5
148
100
AcDbEntity
  8
0
100
AcDbLine
 62
     253
 10
0.0757922
 20
103.077
 30
0.0
 11
0.0757922
 21
101.076
 31
0.0
  0
LINE
  5
149
100
AcDbEntity
  8
0
100
AcDbLine
 62
     253
 10
0.0757922
 20
101.076
 30
0.0
 11
0.0757922
 21
102.077
 31
0.0
  0
LINE
  5
14a
100
AcDbEntity
  8
0
100
AcDbLine
 62
     253
 10
0.0757922
 20
138.077
 30
0.0
 11
0.0757922
 21
139.077
 31
0.0
  0
LINE
  5
14b
100
AcDbEntity
  8
0
100
AcDbLine
 62
     253
 10
0.0757922
 20
139.077
 30
0.0
 11
0.0757922
 21
137.076
 31
0.0
  0
LINE
  5
14c
100
AcDbEntity
  8
0
100
AcDbLine
 62
     253
 10
0.0757922
 20
137.076
 30
0.0
 11
0.0757922
 21
138.077
 31
0.0
  0
LINE
  5
14d
100
AcDbEntity
  8
0
100
AcDbLine
 62
     253
 10
0.0757922
 20
183.075
 30
0.0
 11
0.0757922
 21
184.076
 31
0.0
  0
LINE
  5
14e
100
AcDbEntity
  8
0
100
AcDbLine
 62
     253
 10
0.0757922
 20
184.076
 30
0.0
 11
0.0757922
 21
182.076
 31
0.0
  0
LINE
  5
14f
100
AcDbEntity
  8
0
100
AcDbLine
 62
     253
 10
0.0757922
 20
182.076
 30
0.0
 11
0.0757922
 21
183.075
 31
0.0
  0
LINE
  5
150
100
AcDbEntity
  8
0
100
AcDbLine
 62
     253
 10
0.0757922
 20
147.075
 30
0.0
 11
0.0757922
 21
148.076
 31
0.0
  0
LINE
  5
151
100
AcDbEntity
  8
0
100
AcDbLine
 62
     253
 10
0.0757922
 20
148.076
 30
0.0
 11
0.0757922
 21
146.075
 31
0.0
  0
LINE
  5
152
100
AcDbEntity
  8
0
100
AcDbLine
 62
     253
 10
0.0757922
 20
146.075
 30
0.0
 11
0.0757922
 21
147.075
 31
0.0
  0
LINE
  5
153
100
AcDbEntity
  8
0
100
AcDbLine
 62
     253
 10
0.0757922
 20
48.0755
 30
0.0
 11
0.0757922
 21
49.076
 31
0.0
  0
LINE
  5
154
100
AcDbEntity
  8
0
100
AcDbLine
 62
     253
 10
0.0757922
 20
49.076
 30
0.0
 11
0.0757922
 21
47.075
 31
0.0
  0
LINE
  5
155
100
AcDbEntity
  8
0
100
AcDbLine
 62
     253
 10
0.0757922
 20
47.075
 30
0.0
 11
0.0757922
 21
48.0755
 31
0.0
  0
LINE
  5
156
100
AcDbEntity
  8
0
100
AcDbLine
 62
     253
 10
0.0757922
 20
57.0756
 30
0.0
 11
0.0757922
 21
58.076
 31
0.0
  0
LINE
  5
157
100
AcDbEntity
  8
0
100
AcDbLine
 62
     253
 10
0.0757922
 20
58.076
 30
0.0
 11
0.0757922
 21
56.0751
 31
0.0
  0
LINE
  5
158
100
AcDbEntity
  8
0
100
AcDbLine
 62
     253
 10
0.0757922
 20
56.0751
 30
0.0
 11
0.0757922
 21
57.0756
 31
0.0
  0
LINE
  5
159
100
AcDbEntity
  8
0
100
AcDbLine
 62
     253
 10
0.0757922
 20
192.075
 30
0.0
 11
0.0757922
 21
193.077
 31
0.0
  0
LINE
  5
15a
100
AcDbEntity
  8
0
100
AcDbLine
 62
     253
 10
0.0757922
 20
193.077
 30
0.0
 11
0.0757922
 21
191.076
 31
0.0
  0
LINE
  5
15b
100
AcDbEntity
  8
0
100
AcDbLine
 62
     253
 10
0.0757922
 20
191.076
 30
0.0
 11
0.0757922
 21
192.075
 31
0.0
  0
LINE
  5
15c
100
AcDbEntity
  8
0
100
AcDbLine
 62
     253
 10
0.475424
 20
41.5766
 30
0.0
 11
0.0757922
 21
41.9749
 31
0.0
  0
LINE
  5
15d
100
AcDbEntity
  8
0
100
AcDbLine
 62
     253
 10
0.0757922
 20
214.176
 30
0.0
 11
0.475424
 21
214.576
 31
0.0
  0
LINE
  5
15e
100
AcDbEntity
  8
0
100
AcDbLine
 62
     253
 10
0.0757922
 20
41.9749
 30
0.0
 11
0.475424
 21
41.9749
 31
0.0
  0
LINE
  5
15f
100
AcDbEntity
  8
0
100
AcDbLine
 62
     253
 10
0.475424
 20
214.176
 30
0.0
 11
0.0757922
 21
214.176
 31
0.0
  0
LINE
  5
160
100
AcDbEntity
  8
0
100
AcDbLine
 62
     253
 10
0.475424
 20
41.9749
 30
0.0
 11
0.475424
 21
214.176
 31
0.0
  0
LINE
  5
161
100
AcDbEntity
  8
0
100
AcDbLine
 62
     253
 10
4.07624
 20
93.0755
 30
0.0
 11
4.07624
 21
94.076
 31
0.0
  0
LINE
  5
162
100
AcDbEntity
  8
0
100
AcDbLine
 62
     253
 10
4.07624
 20
94.076
 30
0.0
 11
4.07624
 21
92.075
 31
0.0
  0
LINE
  5
163
100
AcDbEntity
  8
0
100
AcDbLine
 62
     253
 10
4.07624
 20
92.075
 30
0.0
 11
4.07624
 21
93.0755
 31
0.0
  0
LINE
  5
164
100
AcDbEntity
  8
0
100
AcDbLine
 62
     253
 10
4.07624
 20
102.077
 30
0.0
 11
4.07624
 21
103.077
 31
0.0
  0
LINE
  5
165
100
AcDbEntity
  8
0
100
AcDbLine
 62
     253
 10
4.07624
 20
103.077
 30
0.0
 11
4.07624
 21
101.076
 31
0.0
  0
LINE
  5
166
100
AcDbEntity
  8
0
100
AcDbLine
 62
     253
 10
4.07624
 20
101.076
 30
0.0
 11
4.07624
 21
102.077
 31
0.0
  0
LINE
  5
167
100
AcDbEntity
  8
0
100
AcDbLine
 62
     253
 10
4.07624
 20
138.077
 30
0.0
 11
4.07624
 21
139.077
 31
0.0
  0
LINE
  5
168
100
AcDbEntity
  8
0
100
AcDbLine
 62
     253
 10
4.07624
 20
139.077
 30
0.0
 11
4.07624
 21
137.076
 31
0.0
  0
LINE
  5
169
100
AcDbEntity
  8
0
100
AcDbLine
 62
     253
 10
4.07624
 20
137.076
 30
0.0
 11
4.07624
 21
138.077
 31
0.0
  0
LINE
  5
16a
100
AcDbEntity
  8
0
100
AcDbLine
 62
     253
 10
4.07624
 20
183.075
 30
0.0
 11
4.07624
 21
184.076
 31
0.0
  0
LINE
  5
16b
100
AcDbEntity
  8
0
100
AcDbLine
 62
     253
 10
4.07624
 20
184.076
 30
0.0
 11
4.07624
 21
182.076
 31
0.0
  0
LINE
  5
16c
100
AcDbEntity
  8
0
100
AcDbLine
 62
     253
 10
4.07624
 20
182.076
 30
0.0
 11
4.07624
 21
183.075
 31
0.0
  0
LINE
  5
16d
100
AcDbEntity
  8
0
100
AcDbLine
 62
     253
 10
4.07624
 20
147.075
 30
0.0
 11
4.07624
 21
148.076
 31
0.0
  0
LINE
  5
16e
100
AcDbEntity
  8
0
100
AcDbLine
 62
     253
 10
4.07624
 20
148.076
 30
0.0
 11
4.07624
 21
146.075
 31
0.0
  0
LINE
  5
16f
100
AcDbEntity
  8
0
100
AcDbLine
 62
     253
 10
4.07624
 20
146.075
 30
0.0
 11
4.07624
 21
147.075
 31
0.0
  0
LINE
  5
170
100
AcDbEntity
  8
0
100
AcDbLine
 62
     253
 10
4.07624
 20
48.0755
 30
0.0
 11
4.07624
 21
49.076
 31
0.0
  0
LINE
  5
171
100
AcDbEntity
  8
0
100
AcDbLine
 62
     253
 10
4.07624
 20
49.076
 30
0.0
 11
4.07624
 21
47.075
 31
0.0
  0
LINE
  5
172
100
AcDbEntity
  8
0
100
AcDbLine
 62
     253
 10
4.07624
 20
47.075
 30
0.0
 11
4.07624
 21
48.0755
 31
0.0
  0
LINE
  5
173
100
AcDbEntity
  8
0
100
AcDbLine
 62
     253
 10
4.07624
 20
57.0756
 30
0.0
 11
4.07624
 21
58.076
 31
0.0
  0
LINE
  5
174
100
AcDbEntity
  8
0
100
AcDbLine
 62
     253
 10
4.07624
 20
58.076
 30
0.0
 11
4.07624
 21
56.0751
 31
0.0
  0
LINE
  5
175
100
AcDbEntity
  8
0
100
AcDbLine
 62
     253
 10
4.07624
 20
56.0751
 30
0.0
 11
4.07624
 21
57.0756
 31
0.0
  0
LINE
  5
176
100
AcDbEntity
  8
0
100
AcDbLine
 62
     253
 10
4.07624
 20
192.075
 30
0.0
 11
4.07624
 21
193.077
 31
0.0
  0
LINE
  5
177
100
AcDbEntity
  8
0
100
AcDbLine
 62
     253
 10
4.07624
 20
193.077
 30
0.0
 11
4.07624
 21
191.076
 31
0.0
  0
LINE
  5
178
100
AcDbEntity
  8
0
100
AcDbLine
 62
     253
 10
4.07624
 20
191.076
 30
0.0
 11
4.07624
 21
192.075
 31
0.0
  0
LINE
  5
179
100
AcDbEntity
  8
0
100
AcDbLine
 62
     253
 10
0.475424
 20
41.5766
 30
0.0
 11
3.67661
 21
41.5766
 31
0.0
  0
LINE
  5
17a
100
AcDbEntity
  8
0
100
AcDbLine
 62
     253
 10
0.475424
 20
41.5766
 30
0.0
 11
0.475424
 21
41.9749
 31
0.0
  0
LINE
  5
17b
100
AcDbEntity
  8
0
100
AcDbLine
 62
     253
 10
0.475424
 20
214.576
 30
0.0
 11
3.67661
 21
214.576
 31
0.0
  0
LINE
  5
17c
100
AcDbEntity
  8
0
100
AcDbLine
 62
     253
 10
0.475424
 20
214.176
 30
0.0
 11
0.475424
 21
214.576
 31
0.0
  0
LINE
  5
17d
100
AcDbEntity
  8
0
100
AcDbLine
 62
     253
 10
0.475424
 20
41.9749
 30
0.0
 11
3.67661
 21
41.9749
 31
0.0
  0
LINE
  5
17e
100
AcDbEntity
  8
0
100
AcDbLine
 62
     253
 10
0.475424
 20
214.176
 30
0.0
 11
3.67661
 21
214.176
 31
0.0
  0
LINE
  5
17f
100
AcDbEntity
  8
0
100
AcDbLine
 62
     253
 10
3.67661
 20
41.9749
 30
0.0
 11
3.67661
 21
214.176
 31
0.0
  0
LINE
  5
180
100
AcDbEntity
  8
0
100
AcDbLine
 62
     253
 10
4.07624
 20
41.9749
 30
0.0
 11
4.07624
 21
214.176
 31
0.0
  0
LINE
  5
181
100
AcDbEntity
  8
0
100
AcDbLine
 62
     253
 10
3.67661
 20
41.5766
 30
0.0
 11
3.67661
 21
41.9749
 31
0.0
  0
LINE
  5
182
100
AcDbEntity
  8
0
100
AcDbLine
 62
     253
 10
3.67661
 20
41.5766
 30
0.0
 11
4.07624
 21
41.9749
 31
0.0
  0
LINE
  5
183
100
AcDbEntity
  8
0
100
AcDbLine
 62
     253
 10
3.67661
 20
214.176
 30
0.0
 11
3.67661
 21
214.576
 31
0.0
  0
LINE
  5
184
100
AcDbEntity
  8
0
100
AcDbLine
 62
     253
 10
4.07624
 20
214.176
 30
0.0
 11
3.67661
 21
214.576
 31
0.0
  0
LINE
  5
185
100
AcDbEntity
  8
0
100
AcDbLine
 62
     253
 10
4.07624
 20
41.9749
 30
0.0
 11
3.67661
 21
41.9749
 31
0.0
  0
LINE
  5
186
100
AcDbEntity
  8
0
100
AcDbLine
 62
     253
 10
3.67661
 20
214.176
 30
0.0
 11
4.07624
 21
214.176
 31
0.0
  0
LINE
  5
187
100
AcDbEntity
  8
0
100
AcDbLine
 62
     253
 10
10.0762
 20
92.075
 30
0.0
 11
6.07579
 21
92.075
 31
0.0
  0
LINE
  5
188
100
AcDbEntity
  8
0
100
AcDbLine
 62
     253
 10
10.0762
 20
94.076
 30
0.0
 11
6.07579
 21
94.076
 31
0.0
  0
LINE
  5
189
100
AcDbEntity
  8
0
100
AcDbLine
 62
     253
 10
10.0762
 20
101.076
 30
0.0
 11
6.07579
 21
101.076
 31
0.0
  0
LINE
  5
18a
100
AcDbEntity
  8
0
100
AcDbLine
 62
     253
 10
10.0762
 20
103.077
 30
0.0
 11
6.07579
 21
103.077
 31
0.0
  0
LINE
  5
18b
100
AcDbEntity
  8
0
100
AcDbLine
 62
     253
 10
10.0762
 20
137.076
 30
0.0
 11
6.07579
 21
137.076
 31
0.0
  0
LINE
  5
18c
100
AcDbEntity
  8
0
100
AcDbLine
 62
     253
 10
10.0762
 20
139.077
 30
0.0
 11
6.07579
 21
139.077
 31
0.0
  0
LINE
  5
18d
100
AcDbEntity
  8
0
100
AcDbLine
 62
     253
 10
10.0762
 20
182.076
 30
0.0
 11
6.07579
 21
182.076
 31
0.0
  0
LINE
  5
18e
100
AcDbEntity
  8
0
100
AcDbLine
 62
     253
 10
10.0762
 20
184.076
 30
0.0
 11
6.07579
 21
184.076
 31
0.0
  0
LINE
  5
18f
100
AcDbEntity
  8
0
100
AcDbLine
 62
     253
 10
10.0762
 20
146.075
 30
0.0
 11
6.07579
 21
146.075
 31
0.0
  0
LINE
  5
190
100
AcDbEntity
  8
0
100
AcDbLine
 62
     253
 10
10.0762
 20
148.076
 30
0.0
 11
6.07579
 21
148.076
 31
0.0
  0
LINE
  5
191
100
AcDbEntity
  8
0
100
AcDbLine
 62
     253
 10
10.0762
 20
47.075
 30
0.0
 11
6.07579
 21
47.075
 31
0.0
  0
LINE
  5
192
100
AcDbEntity
  8
0
100
AcDbLine
 62
     253
 10
10.0762
 20
49.076
 30
0.0
 11
6.07579
 21
49.076
 31
0.0
  0
LINE
  5
193
100
AcDbEntity
  8
0
100
AcDbLine
 62
     253
 10
10.0762
 20
56.0751
 30
0.0
 11
6.07579
 21
56.0751
 31
0.0
  0
LINE
  5
194
100
AcDbEntity
  8
0
100
AcDbLine
 62
     253
 10
10.0762
 20
58.076
 30
0.0
 11
6.07579
 21
58.076
 31
0.0
  0
LINE
  5
195
100
AcDbEntity
  8
0
100
AcDbLine
 62
     253
 10
10.0762
 20
191.076
 30
0.0
 11
6.07579
 21
191.076
 31
0.0
  0
LINE
  5
196
100
AcDbEntity
  8
0
100
AcDbLine
 62
     253
 10
10.0762
 20
193.077
 30
0.0
 11
6.07579
 21
193.077
 31
0.0
  0
LINE
  5
197
100
AcDbEntity
  8
0
100
AcDbLine
 62
     253
 10
4.07624
 20
92.075
 30
0.0
 11
0.0757922
 21
92.075
 31
0.0
  0
LINE
  5
198
100
AcDbEntity
  8
0
100
AcDbLine
 62
     253
 10
4.07624
 20
94.076
 30
0.0
 11
0.0757922
 21
94.076
 31
0.0
  0
LINE
  5
199
100
AcDbEntity
  8
0
100
AcDbLine
 62
     253
 10
4.07624
 20
101.076
 30
0.0
 11
0.0757922
 21
101.076
 31
0.0
  0
LINE
  5
19a
100
AcDbEntity
  8
0
100
AcDbLine
 62
     253
 10
4.07624
 20
103.077
 30
0.0
 11
0.0757922
 21
103.077
 31
0.0
  0
LINE
  5
19b
100
AcDbEntity
  8
0
100
AcDbLine
 62
     253
 10
4.07624
 20
137.076
 30
0.0
 11
0.0757922
 21
137.076
 31
0.0
  0
LINE
  5
19c
100
AcDbEntity
  8
0
100
AcDbLine
 62
     253
 10
4.07624
 20
139.077
 30
0.0
 11
0.0757922
 21
139.077
 31
0.0
  0
LINE
  5
19d
100
AcDbEntity
  8
0
100
AcDbLine
 62
     253
 10
4.07624
 20
182.076
 30
0.0
 11
0.0757922
 21
182.076
 31
0.0
  0
LINE
  5
19e
100
AcDbEntity
  8
0
100
AcDbLine
 62
     253
 10
4.07624
 20
184.076
 30
0.0
 11
0.0757922
 21
184.076
 31
0.0
  0
LINE
  5
19f
100
AcDbEntity
  8
0
100
AcDbLine
 62
     253
 10
4.07624
 20
146.075
 30
0.0
 11
0.0757922
 21
146.075
 31
0.0
  0
LINE
  5
1a0
100
AcDbEntity
  8
0
100
AcDbLine
 62
     253
 10
4.07624
 20
148.076
 30
0.0
 11
0.0757922
 21
148.076
 31
0.0
  0
LINE
  5
1a1
100
AcDbEntity
  8
0
100
AcDbLine
 62
     253
 10
4.07624
 20
47.075
 30
0.0
 11
0.0757922
 21
47.075
 31
0.0
  0
LINE
  5
1a2
100
AcDbEntity
  8
0
100
AcDbLine
 62
     253
 10
4.07624
 20
49.076
 30
0.0
 11
0.0757922
 21
49.076
 31
0.0
  0
LINE
  5
1a3
100
AcDbEntity
  8
0
100
AcDbLine
 62
     253
 10
4.07624
 20
56.0751
 30
0.0
 11
0.0757922
 21
56.0751
 31
0.0
  0
LINE
  5
1a4
100
AcDbEntity
  8
0
100
AcDbLine
 62
     253
 10
4.07624
 20
58.076
 30
0.0
 11
0.0757922
 21
58.076
 31
0.0
  0
LINE
  5
1a5
100
AcDbEntity
  8
0
100
AcDbLine
 62
     253
 10
4.07624
 20
191.076
 30
0.0
 11
0.0757922
 21
191.076
 31
0.0
  0
LINE
  5
1a6
100
AcDbEntity
  8
0
100
AcDbLine
 62
     253
 10
4.07624
 20
193.077
 30
0.0
 11
0.0757922
 21
193.077
 31
0.0
  0
LINE
  5
1a7
100
AcDbEntity
  8
0
100
AcDbLine
 62
     253
 10
44.6761
 20
41.9749
 30
0.0
 11
44.6761
 21
214.176
 31
0.0
  0
LINE
  5
1a8
100
AcDbEntity
  8
0
100
AcDbLine
 62
     253
 10
44.6761
 20
41.9749
 30
0.0
 11
35.4764
 21
41.9749
 31
0.0
  0
LINE
  5
1a9
100
AcDbEntity
  8
0
100
AcDbLine
 62
     253
 10
44.6761
 20
214.176
 30
0.0
 11
35.4764
 21
214.176
 31
0.0
  0
LINE
  5
1aa
100
AcDbEntity
  8
0
100
AcDbLine
 62
     253
 10
35.4764
 20
41.9749
 30
0.0
 11
35.4764
 21
214.176
 31
0.0
  0
SPLINE
  5
1ab
100
AcDbEntity
  8
0
100
AcDbSpline
210
0.0
220
0.0
230
1.0
 62
     253
 70
     0
 71
     3
 72
     8
 73
4
 40
0.0
 40
0.0
 40
0.0
 40
0.0
 40
1.0
 40
1.0
 40
1.0
 40
1.0
 10
41.0767
 20
93.0755
 30
0.0
 10
41.0767
 20
92.5241
 30
0.0
 10
40.6287
 20
92.075
 30
0.0
 10
40.0763
 20
92.075
 30
0.0
  0
SPLINE
  5
1ac
100
AcDbEntity
  8
0
100
AcDbSpline
210
0.0
220
0.0
230
1.0
 62
     253
 70
     0
 71
     3
 72
     8
 73
4
 40
0.0
 40
0.0
 40
0.0
 40
0.0
 40
1.0
 40
1.0
 40
1.0
 40
1.0
 10
40.0763
 20
92.075
 30
0.0
 10
39.5235
 20
92.075
 30
0.0
 10
39.0758
 20
92.5241
 30
0.0
 10
39.0758
 20
93.0755
 30
0.0
  0
SPLINE
  5
1ad
100
AcDbEntity
  8
0
100
AcDbSpline
210
0.0
220
0.0
230
1.0
 62
     253
 70
     0
 71
     3
 72
     8
 73
4
 40
0.0
 40
0.0
 40
0.0
 40
0.0
 40
1.0
 40
1.0
 40
1.0
 40
1.0
 10
39.0758
 20
93.0755
 30
0.0
 10
39.0758
 20
93.6279
 30
0.0
 10
39.5235
 20
94.076
 30
0.0
 10
40.0763
 20
94.076
 30
0.0
  0
SPLINE
  5
1ae
100
AcDbEntity
  8
0
100
AcDbSpline
210
0.0
220
0.0
230
1.0
 62
     253
 70
     0
 71
     3
 72
     8
 73
4
 40
0.0
 40
0.0
 40
0.0
 40
0.0
 40
1.0
 40
1.0
 40
1.0
 40
1.0
 10
40.0763
 20
94.076
 30
0.0
 10
40.6287
 20
94.076
 30
0.0
 10
41.0767
 20
93.6279
 30
0.0
 10
41.0767
 20
93.0755
 30
0.0
  0
SPLINE
  5
1af
100
AcDbEntity
  8
0
100
AcDbSpline
210
0.0
220
0.0
230
1.0
 62
     253
 70
     0
 71
     3
 72
     8
 73
4
 40
0.0
 40
0.0
 40
0.0
 40
0.0
 40
1.0
 40
1.0
 40
1.0
 40
1.0
 10
41.0767
 20
102.077
 30
0.0
 10
41.0767
 20
101.523
 30
0.0
 10
40.6287
 20
101.076
 30
0.0
 10
40.0763
 20
101.076
 30
0.0
  0
SPLINE
  5
1b0
100
AcDbEntity
  8
0
100
AcDbSpline
210
0.0
220
0.0
230
1.0
 62
     253
 70
     0
 71
     3
 72
     8
 73
4
 40
0.0
 40
0.0
 40
0.0
 40
0.0
 40
1.0
 40
1.0
 40
1.0
 40
1.0
 10
40.0763
 20
101.076
 30
0.0
 10
39.5235
 20
101.076
 30
0.0
 10
39.0758
 20
101.523
 30
0.0
 10
39.0758
 20
102.077
 30
0.0
  0
SPLINE
  5
1b1
100
AcDbEntity
  8
0
100
AcDbSpline
210
0.0
220
0.0
230
1.0
 62
     253
 70
     0
 71
     3
 72
     8
 73
4
 40
0.0
 40
0.0
 40
0.0
 40
0.0
 40
1.0
 40
1.0
 40
1.0
 40
1.0
 10
39.0758
 20
102.077
 30
0.0
 10
39.0758
 20
102.628
 30
0.0
 10
39.5235
 20
103.077
 30
0.0
 10
40.0763
 20
103.077
 30
0.0
  0
SPLINE
  5
1b2
100
AcDbEntity
  8
0
100
AcDbSpline
210
0.0
220
0.0
230
1.0
 62
     253
 70
     0
 71
     3
 72
     8
 73
4
 40
0.0
 40
0.0
 40
0.0
 40
0.0
 40
1.0
 40
1.0
 40
1.0
 40
1.0
 10
40.0763
 20
103.077
 30
0.0
 10
40.6287
 20
103.077
 30
0.0
 10
41.0767
 20
102.628
 30
0.0
 10
41.0767
 20
102.077
 30
0.0
  0
SPLINE
  5
1b3
100
AcDbEntity
  8
0
100
AcDbSpline
210
0.0
220
0.0
230
1.0
 62
     253
 70
     0
 71
     3
 72
     8
 73
4
 40
0.0
 40
0.0
 40
0.0
 40
0.0
 40
1.0
 40
1.0
 40
1.0
 40
1.0
 10
41.0767
 20
138.077
 30
0.0
 10
41.0767
 20
137.523
 30
0.0
 10
40.6287
 20
137.076
 30
0.0
 10
40.0763
 20
137.076
 30
0.0
  0
SPLINE
  5
1b4
100
AcDbEntity
  8
0
100
AcDbSpline
210
0.0
220
0.0
230
1.0
 62
     253
 70
     0
 71
     3
 72
     8
 73
4
 40
0.0
 40
0.0
 40
0.0
 40
0.0
 40
1.0
 40
1.0
 40
1.0
 40
1.0
 10
40.0763
 20
137.076
 30
0.0
 10
39.5235
 20
137.076
 30
0.0
 10
39.0758
 20
137.523
 30
0.0
 10
39.0758
 20
138.077
 30
0.0
  0
SPLINE
  5
1b5
100
AcDbEntity
  8
0
100
AcDbSpline
210
0.0
220
0.0
230
1.0
 62
     253
 70
     0
 71
     3
 72
     8
 73
4
 40
0.0
 40
0.0
 40
0.0
 40
0.0
 40
1.0
 40
1.0
 40
1.0
 40
1.0
 10
39.0758
 20
138.077
 30
0.0
 10
39.0758
 20
138.628
 30
0.0
 10
39.5235
 20
139.077
 30
0.0
 10
40.0763
 20
139.077
 30
0.0
  0
SPLINE
  5
1b6
100
AcDbEntity
  8
0
100
AcDbSpline
210
0.0
220
0.0
230
1.0
 62
     253
 70
     0
 71
     3
 72
     8
 73
4
 40
0.0
 40
0.0
 40
0.0
 40
0.0
 40
1.0
 40
1.0
 40
1.0
 40
1.0
 10
40.0763
 20
139.077
 30
0.0
 10
40.6287
 20
139.077
 30
0.0
 10
41.0767
 20
138.628
 30
0.0
 10
41.0767
 20
138.077
 30
0.0
  0
SPLINE
  5
1b7
100
AcDbEntity
  8
0
100
AcDbSpline
210
0.0
220
0.0
230
1.0
 62
     253
 70
     0
 71
     3
 72
     8
 73
4
 40
0.0
 40
0.0
 40
0.0
 40
0.0
 40
1.0
 40
1.0
 40
1.0
 40
1.0
 10
41.0767
 20
183.075
 30
0.0
 10
41.0767
 20
182.524
 30
0.0
 10
40.6287
 20
182.076
 30
0.0
 10
40.0763
 20
182.076
 30
0.0
  0
SPLINE
  5
1b8
100
AcDbEntity
  8
0
100
AcDbSpline
210
0.0
220
0.0
230
1.0
 62
     253
 70
     0
 71
     3
 72
     8
 73
4
 40
0.0
 40
0.0
 40
0.0
 40
0.0
 40
1.0
 40
1.0
 40
1.0
 40
1.0
 10
40.0763
 20
182.076
 30
0.0
 10
39.5235
 20
182.076
 30
0.0
 10
39.0758
 20
182.524
 30
0.0
 10
39.0758
 20
183.075
 30
0.0
  0
SPLINE
  5
1b9
100
AcDbEntity
  8
0
100
AcDbSpline
210
0.0
220
0.0
230
1.0
 62
     253
 70
     0
 71
     3
 72
     8
 73
4
 40
0.0
 40
0.0
 40
0.0
 40
0.0
 40
1.0
 40
1.0
 40
1.0
 40
1.0
 10
39.0758
 20
183.075
 30
0.0
 10
39.0758
 20
183.629
 30
0.0
 10
39.5235
 20
184.076
 30
0.0
 10
40.0763
 20
184.076
 30
0.0
  0
SPLINE
  5
1ba
100
AcDbEntity
  8
0
100
AcDbSpline
210
0.0
220
0.0
230
1.0
 62
     253
 70
     0
 71
     3
 72
     8
 73
4
 40
0.0
 40
0.0
 40
0.0
 40
0.0
 40
1.0
 40
1.0
 40
1.0
 40
1.0
 10
40.0763
 20
184.076
 30
0.0
 10
40.6287
 20
184.076
 30
0.0
 10
41.0767
 20
183.629
 30
0.0
 10
41.0767
 20
183.075
 30
0.0
  0
SPLINE
  5
1bb
100
AcDbEntity
  8
0
100
AcDbSpline
210
0.0
220
0.0
230
1.0
 62
     253
 70
     0
 71
     3
 72
     8
 73
4
 40
0.0
 40
0.0
 40
0.0
 40
0.0
 40
1.0
 40
1.0
 40
1.0
 40
1.0
 10
41.0767
 20
147.075
 30
0.0
 10
41.0767
 20
146.523
 30
0.0
 10
40.6287
 20
146.075
 30
0.0
 10
40.0763
 20
146.075
 30
0.0
  0
SPLINE
  5
1bc
100
AcDbEntity
  8
0
100
AcDbSpline
210
0.0
220
0.0
230
1.0
 62
     253
 70
     0
 71
     3
 72
     8
 73
4
 40
0.0
 40
0.0
 40
0.0
 40
0.0
 40
1.0
 40
1.0
 40
1.0
 40
1.0
 10
40.0763
 20
146.075
 30
0.0
 10
39.5235
 20
146.075
 30
0.0
 10
39.0758
 20
146.523
 30
0.0
 10
39.0758
 20
147.075
 30
0.0
  0
SPLINE
  5
1bd
100
AcDbEntity
  8
0
100
AcDbSpline
210
0.0
220
0.0
230
1.0
 62
     253
 70
     0
 71
     3
 72
     8
 73
4
 40
0.0
 40
0.0
 40
0.0
 40
0.0
 40
1.0
 40
1.0
 40
1.0
 40
1.0
 10
39.0758
 20
147.075
 30
0.0
 10
39.0758
 20
147.629
 30
0.0
 10
39.5235
 20
148.076
 30
0.0
 10
40.0763
 20
148.076
 30
0.0
  0
SPLINE
  5
1be
100
AcDbEntity
  8
0
100
AcDbSpline
210
0.0
220
0.0
230
1.0
 62
     253
 70
     0
 71
     3
 72
     8
 73
4
 40
0.0
 40
0.0
 40
0.0
 40
0.0
 40
1.0
 40
1.0
 40
1.0
 40
1.0
 10
40.0763
 20
148.076
 30
0.0
 10
40.6287
 20
148.076
 30
0.0
 10
41.0767
 20
147.629
 30
0.0
 10
41.0767
 20
147.075
 30
0.0
  0
SPLINE
  5
1bf
100
AcDbEntity
  8
0
100
AcDbSpline
210
0.0
220
0.0
230
1.0
 62
     253
 70
     0
 71
     3
 72
     8
 73
4
 40
0.0
 40
0.0
 40
0.0
 40
0.0
 40
1.0
 40
1.0
 40
1.0
 40
1.0
 10
41.0767
 20
48.0755
 30
0.0
 10
41.0767
 20
47.523
 30
0.0
 10
40.6287
 20
47.075
 30
0.0
 10
40.0763
 20
47.075
 30
0.0
  0
SPLINE
  5
1c0
100
AcDbEntity
  8
0
100
AcDbSpline
210
0.0
220
0.0
230
1.0
 62
     253
 70
     0
 71
     3
 72
     8
 73
4
 40
0.0
 40
0.0
 40
0.0
 40
0.0
 40
1.0
 40
1.0
 40
1.0
 40
1.0
 10
40.0763
 20
47.075
 30
0.0
 10
39.5235
 20
47.075
 30
0.0
 10
39.0758
 20
47.523
 30
0.0
 10
39.0758
 20
48.0755
 30
0.0
  0
SPLINE
  5
1c1
100
AcDbEntity
  8
0
100
AcDbSpline
210
0.0
220
0.0
230
1.0
 62
     253
 70
     0
 71
     3
 72
     8
 73
4
 40
0.0
 40
0.0
 40
0.0
 40
0.0
 40
1.0
 40
1.0
 40
1.0
 40
1.0
 10
39.0758
 20
48.0755
 30
0.0
 10
39.0758
 20
48.6297
 30
0.0
 10
39.5235
 20
49.076
 30
0.0
 10
40.0763
 20
49.076
 30
0.0
  0
SPLINE
  5
1c2
100
AcDbEntity
  8
0
100
AcDbSpline
210
0.0
220
0.0
230
1.0
 62
     253
 70
     0
 71
     3
 72
     8
 73
4
 40
0.0
 40
0.0
 40
0.0
 40
0.0
 40
1.0
 40
1.0
 40
1.0
 40
1.0
 10
40.0763
 20
49.076
 30
0.0
 10
40.6287
 20
49.076
 30
0.0
 10
41.0767
 20
48.6297
 30
0.0
 10
41.0767
 20
48.0755
 30
0.0
  0
SPLINE
  5
1c3
100
AcDbEntity
  8
0
100
AcDbSpline
210
0.0
220
0.0
230
1.0
 62
     253
 70
     0
 71
     3
 72
     8
 73
4
 40
0.0
 40
0.0
 40
0.0
 40
0.0
 40
1.0
 40
1.0
 40
1.0
 40
1.0
 10
41.0767
 20
57.0756
 30
0.0
 10
41.0767
 20
56.5245
 30
0.0
 10
40.6287
 20
56.0751
 30
0.0
 10
40.0763
 20
56.0751
 30
0.0
  0
SPLINE
  5
1c4
100
AcDbEntity
  8
0
100
AcDbSpline
210
0.0
220
0.0
230
1.0
 62
     253
 70
     0
 71
     3
 72
     8
 73
4
 40
0.0
 40
0.0
 40
0.0
 40
0.0
 40
1.0
 40
1.0
 40
1.0
 40
1.0
 10
40.0763
 20
56.0751
 30
0.0
 10
39.5235
 20
56.0751
 30
0.0
 10
39.0758
 20
56.5245
 30
0.0
 10
39.0758
 20
57.0756
 30
0.0
  0
SPLINE
  5
1c5
100
AcDbEntity
  8
0
100
AcDbSpline
210
0.0
220
0.0
230
1.0
 62
     253
 70
     0
 71
     3
 72
     8
 73
4
 40
0.0
 40
0.0
 40
0.0
 40
0.0
 40
1.0
 40
1.0
 40
1.0
 40
1.0
 10
39.0758
 20
57.0756
 30
0.0
 10
39.0758
 20
57.6294
 30
0.0
 10
39.5235
 20
58.076
 30
0.0
 10
40.0763
 20
58.076
 30
0.0
  0
SPLINE
  5
1c6
100
AcDbEntity
  8
0
100
AcDbSpline
210
0.0
220
0.0
230
1.0
 62
     253
 70
     0
 71
     3
 72
     8
 73
4
 40
0.0
 40
0.0
 40
0.0
 40
0.0
 40
1.0
 40
1.0
 40
1.0
 40
1.0
 10
40.0763
 20
58.076
 30
0.0
 10
40.6287
 20
58.076
 30
0.0
 10
41.0767
 20
57.6294
 30
0.0
 10
41.0767
 20
57.0756
 30
0.0
  0
SPLINE
  5
1c7
100
AcDbEntity
  8
0
100
AcDbSpline
210
0.0
220
0.0
230
1.0
 62
     253
 70
     0
 71
     3
 72
     8
 73
4
 40
0.0
 40
0.0
 40
0.0
 40
0.0
 40
1.0
 40
1.0
 40
1.0
 40
1.0
 10
41.0767
 20
192.075
 30
0.0
 10
41.0767
 20
191.524
 30
0.0
 10
40.6287
 20
191.076
 30
0.0
 10
40.0763
 20
191.076
 30
0.0
  0
SPLINE
  5
1c8
100
AcDbEntity
  8
0
100
AcDbSpline
210
0.0
220
0.0
230
1.0
 62
     253
 70
     0
 71
     3
 72
     8
 73
4
 40
0.0
 40
0.0
 40
0.0
 40
0.0
 40
1.0
 40
1.0
 40
1.0
 40
1.0
 10
40.0763
 20
191.076
 30
0.0
 10
39.5235
 20
191.076
 30
0.0
 10
39.0758
 20
191.524
 30
0.0
 10
39.0758
 20
192.075
 30
0.0
  0
SPLINE
  5
1c9
100
AcDbEntity
  8
0
100
AcDbSpline
210
0.0
220
0.0
230
1.0
 62
     253
 70
     0
 71
     3
 72
     8
 73
4
 40
0.0
 40
0.0
 40
0.0
 40
0.0
 40
1.0
 40
1.0
 40
1.0
 40
1.0
 10
39.0758
 20
192.075
 30
0.0
 10
39.0758
 20
192.628
 30
0.0
 10
39.5235
 20
193.077
 30
0.0
 10
40.0763
 20
193.077
 30
0.0
  0
SPLINE
  5
1ca
100
AcDbEntity
  8
0
100
AcDbSpline
210
0.0
220
0.0
230
1.0
 62
     253
 70
     0
 71
     3
 72
     8
 73
4
 40
0.0
 40
0.0
 40
0.0
 40
0.0
 40
1.0
 40
1.0
 40
1.0
 40
1.0
 10
40.0763
 20
193.077
 30
0.0
 10
40.6287
 20
193.077
 30
0.0
 10
41.0767
 20
192.628
 30
0.0
 10
41.0767
 20
192.075
 30
0.0
  0
LINE
  5
1cb
100
AcDbEntity
  8
0
100
AcDbLine
 62
     253
 10
44.6761
 20
41.9749
 30
0.0
 11
45.0755
 21
41.9749
 31
0.0
  0
LINE
  5
1cc
100
AcDbEntity
  8
0
100
AcDbLine
 62
     253
 10
44.6761
 20
214.176
 30
0.0
 11
45.0755
 21
214.176
 31
0.0
  0
LINE
  5
1cd
100
AcDbEntity
  8
0
100
AcDbLine
 62
     253
 10
45.0755
 20
41.9749
 30
0.0
 11
45.0755
 21
214.176
 31
0.0
  0
LINE
  5
1ce
100
AcDbEntity
  8
0
100
AcDbLine
 62
     253
 10
44.6761
 20
41.5766
 30
0.0
 11
44.6761
 21
41.9749
 31
0.0
  0
LINE
  5
1cf
100
AcDbEntity
  8
0
100
AcDbLine
 62
     253
 10
44.6761
 20
41.5766
 30
0.0
 11
35.4764
 21
41.5766
 31
0.0
  0
LINE
  5
1d0
100
AcDbEntity
  8
0
100
AcDbLine
 62
     253
 10
35.4764
 20
41.5766
 30
0.0
 11
35.4764
 21
41.9749
 31
0.0
  0
LINE
  5
1d1
100
AcDbEntity
  8
0
100
AcDbLine
 62
     253
 10
44.6761
 20
214.576
 30
0.0
 11
44.6761
 21
214.176
 31
0.0
  0
LINE
  5
1d2
100
AcDbEntity
  8
0
100
AcDbLine
 62
     253
 10
44.6761
 20
214.576
 30
0.0
 11
35.4764
 21
214.576
 31
0.0
  0
LINE
  5
1d3
100
AcDbEntity
  8
0
100
AcDbLine
 62
     253
 10
35.4764
 20
214.176
 30
0.0
 11
35.4764
 21
214.576
 31
0.0
  0
LINE
  5
1d4
100
AcDbEntity
  8
0
100
AcDbLine
 62
     253
 10
35.4764
 20
41.9749
 30
0.0
 11
35.0766
 21
41.9749
 31
0.0
  0
LINE
  5
1d5
100
AcDbEntity
  8
0
100
AcDbLine
 62
     253
 10
35.0766
 20
214.176
 30
0.0
 11
35.4764
 21
214.176
 31
0.0
  0
LINE
  5
1d6
100
AcDbEntity
  8
0
100
AcDbLine
 62
     253
 10
35.0766
 20
41.9749
 30
0.0
 11
35.0766
 21
214.176
 31
0.0
  0
SPLINE
  5
1d7
100
AcDbEntity
  8
0
100
AcDbSpline
210
0.0
220
0.0
230
1.0
 62
     253
 70
     0
 71
     3
 72
     8
 73
4
 40
0.0
 40
0.0
 40
0.0
 40
0.0
 40
1.0
 40
1.0
 40
1.0
 40
1.0
 10
41.0767
 20
93.0755
 30
0.0
 10
41.0767
 20
92.5241
 30
0.0
 10
40.6287
 20
92.075
 30
0.0
 10
40.0763
 20
92.075
 30
0.0
  0
SPLINE
  5
1d8
100
AcDbEntity
  8
0
100
AcDbSpline
210
0.0
220
0.0
230
1.0
 62
     253
 70
     0
 71
     3
 72
     8
 73
4
 40
0.0
 40
0.0
 40
0.0
 40
0.0
 40
1.0
 40
1.0
 40
1.0
 40
1.0
 10
40.0763
 20
92.075
 30
0.0
 10
39.5235
 20
92.075
 30
0.0
 10
39.0758
 20
92.5241
 30
0.0
 10
39.0758
 20
93.0755
 30
0.0
  0
SPLINE
  5
1d9
100
AcDbEntity
  8
0
100
AcDbSpline
210
0.0
220
0.0
230
1.0
 62
     253
 70
     0
 71
     3
 72
     8
 73
4
 40
0.0
 40
0.0
 40
0.0
 40
0.0
 40
1.0
 40
1.0
 40
1.0
 40
1.0
 10
39.0758
 20
93.0755
 30
0.0
 10
39.0758
 20
93.6279
 30
0.0
 10
39.5235
 20
94.076
 30
0.0
 10
40.0763
 20
94.076
 30
0.0
  0
SPLINE
  5
1da
100
AcDbEntity
  8
0
100
AcDbSpline
210
0.0
220
0.0
230
1.0
 62
     253
 70
     0
 71
     3
 72
     8
 73
4
 40
0.0
 40
0.0
 40
0.0
 40
0.0
 40
1.0
 40
1.0
 40
1.0
 40
1.0
 10
40.0763
 20
94.076
 30
0.0
 10
40.6287
 20
94.076
 30
0.0
 10
41.0767
 20
93.6279
 30
0.0
 10
41.0767
 20
93.0755
 30
0.0
  0
SPLINE
  5
1db
100
AcDbEntity
  8
0
100
AcDbSpline
210
0.0
220
0.0
230
1.0
 62
     253
 70
     0
 71
     3
 72
     8
 73
4
 40
0.0
 40
0.0
 40
0.0
 40
0.0
 40
1.0
 40
1.0
 40
1.0
 40
1.0
 10
41.0767
 20
102.077
 30
0.0
 10
41.0767
 20
101.523
 30
0.0
 10
40.6287
 20
101.076
 30
0.0
 10
40.0763
 20
101.076
 30
0.0
  0
SPLINE
  5
1dc
100
AcDbEntity
  8
0
100
AcDbSpline
210
0.0
220
0.0
230
1.0
 62
     253
 70
     0
 71
     3
 72
     8
 73
4
 40
0.0
 40
0.0
 40
0.0
 40
0.0
 40
1.0
 40
1.0
 40
1.0
 40
1.0
 10
40.0763
 20
101.076
 30
0.0
 10
39.5235
 20
101.076
 30
0.0
 10
39.0758
 20
101.523
 30
0.0
 10
39.0758
 20
102.077
 30
0.0
  0
SPLINE
  5
1dd
100
AcDbEntity
  8
0
100
AcDbSpline
210
0.0
220
0.0
230
1.0
 62
     253
 70
     0
 71
     3
 72
     8
 73
4
 40
0.0
 40
0.0
 40
0.0
 40
0.0
 40
1.0
 40
1.0
 40
1.0
 40
1.0
 10
39.0758
 20
102.077
 30
0.0
 10
39.0758
 20
102.628
 30
0.0
 10
39.5235
 20
103.077
 30
0.0
 10
40.0763
 20
103.077
 30
0.0
  0
SPLINE
  5
1de
100
AcDbEntity
  8
0
100
AcDbSpline
210
0.0
220
0.0
230
1.0
 62
     253
 70
     0
 71
     3
 72
     8
 73
4
 40
0.0
 40
0.0
 40
0.0
 40
0.0
 40
1.0
 40
1.0
 40
1.0
 40
1.0
 10
40.0763
 20
103.077
 30
0.0
 10
40.6287
 20
103.077
 30
0.0
 10
41.0767
 20
102.628
 30
0.0
 10
41.0767
 20
102.077
 30
0.0
  0
SPLINE
  5
1df
100
AcDbEntity
  8
0
100
AcDbSpline
210
0.0
220
0.0
230
1.0
 62
     253
 70
     0
 71
     3
 72
     8
 73
4
 40
0.0
 40
0.0
 40
0.0
 40
0.0
 40
1.0
 40
1.0
 40
1.0
 40
1.0
 10
41.0767
 20
138.077
 30
0.0
 10
41.0767
 20
137.523
 30
0.0
 10
40.6287
 20
137.076
 30
0.0
 10
40.0763
 20
137.076
 30
0.0
  0
SPLINE
  5
1e0
100
AcDbEntity
  8
0
100
AcDbSpline
210
0.0
220
0.0
230
1.0
 62
     253
 70
     0
 71
     3
 72
     8
 73
4
 40
0.0
 40
0.0
 40
0.0
 40
0.0
 40
1.0
 40
1.0
 40
1.0
 40
1.0
 10
40.0763
 20
137.076
 30
0.0
 10
39.5235
 20
137.076
 30
0.0
 10
39.0758
 20
137.523
 30
0.0
 10
39.0758
 20
138.077
 30
0.0
  0
SPLINE
  5
1e1
100
AcDbEntity
  8
0
100
AcDbSpline
210
0.0
220
0.0
230
1.0
 62
     253
 70
     0
 71
     3
 72
     8
 73
4
 40
0.0
 40
0.0
 40
0.0
 40
0.0
 40
1.0
 40
1.0
 40
1.0
 40
1.0
 10
39.0758
 20
138.077
 30
0.0
 10
39.0758
 20
138.628
 30
0.0
 10
39.5235
 20
139.077
 30
0.0
 10
40.0763
 20
139.077
 30
0.0
  0
SPLINE
  5
1e2
100
AcDbEntity
  8
0
100
AcDbSpline
210
0.0
220
0.0
230
1.0
 62
     253
 70
     0
 71
     3
 72
     8
 73
4
 40
0.0
 40
0.0
 40
0.0
 40
0.0
 40
1.0
 40
1.0
 40
1.0
 40
1.0
 10
40.0763
 20
139.077
 30
0.0
 10
40.6287
 20
139.077
 30
0.0
 10
41.0767
 20
138.628
 30
0.0
 10
41.0767
 20
138.077
 30
0.0
  0
SPLINE
  5
1e3
100
AcDbEntity
  8
0
100
AcDbSpline
210
0.0
220
0.0
230
1.0
 62
     253
 70
     0
 71
     3
 72
     8
 73
4
 40
0.0
 40
0.0
 40
0.0
 40
0.0
 40
1.0
 40
1.0
 40
1.0
 40
1.0
 10
41.0767
 20
183.075
 30
0.0
 10
41.0767
 20
182.524
 30
0.0
 10
40.6287
 20
182.076
 30
0.0
 10
40.0763
 20
182.076
 30
0.0
  0
SPLINE
  5
1e4
100
AcDbEntity
  8
0
100
AcDbSpline
210
0.0
220
0.0
230
1.0
 62
     253
 70
     0
 71
     3
 72
     8
 73
4
 40
0.0
 40
0.0
 40
0.0
 40
0.0
 40
1.0
 40
1.0
 40
1.0
 40
1.0
 10
40.0763
 20
182.076
 30
0.0
 10
39.5235
 20
182.076
 30
0.0
 10
39.0758
 20
182.524
 30
0.0
 10
39.0758
 20
183.075
 30
0.0
  0
SPLINE
  5
1e5
100
AcDbEntity
  8
0
100
AcDbSpline
210
0.0
220
0.0
230
1.0
 62
     253
 70
     0
 71
     3
 72
     8
 73
4
 40
0.0
 40
0.0
 40
0.0
 40
0.0
 40
1.0
 40
1.0
 40
1.0
 40
1.0
 10
39.0758
 20
183.075
 30
0.0
 10
39.0758
 20
183.629
 30
0.0
 10
39.5235
 20
184.076
 30
0.0
 10
40.0763
 20
184.076
 30
0.0
  0
SPLINE
  5
1e6
100
AcDbEntity
  8
0
100
AcDbSpline
210
0.0
220
0.0
230
1.0
 62
     253
 70
     0
 71
     3
 72
     8
 73
4
 40
0.0
 40
0.0
 40
0.0
 40
0.0
 40
1.0
 40
1.0
 40
1.0
 40
1.0
 10
40.0763
 20
184.076
 30
0.0
 10
40.6287
 20
184.076
 30
0.0
 10
41.0767
 20
183.629
 30
0.0
 10
41.0767
 20
183.075
 30
0.0
  0
SPLINE
  5
1e7
100
AcDbEntity
  8
0
100
AcDbSpline
210
0.0
220
0.0
230
1.0
 62
     253
 70
     0
 71
     3
 72
     8
 73
4
 40
0.0
 40
0.0
 40
0.0
 40
0.0
 40
1.0
 40
1.0
 40
1.0
 40
1.0
 10
41.0767
 20
147.075
 30
0.0
 10
41.0767
 20
146.523
 30
0.0
 10
40.6287
 20
146.075
 30
0.0
 10
40.0763
 20
146.075
 30
0.0
  0
SPLINE
  5
1e8
100
AcDbEntity
  8
0
100
AcDbSpline
210
0.0
220
0.0
230
1.0
 62
     253
 70
     0
 71
     3
 72
     8
 73
4
 40
0.0
 40
0.0
 40
0.0
 40
0.0
 40
1.0
 40
1.0
 40
1.0
 40
1.0
 10
40.0763
 20
146.075
 30
0.0
 10
39.5235
 20
146.075
 30
0.0
 10
39.0758
 20
146.523
 30
0.0
 10
39.0758
 20
147.075
 30
0.0
  0
SPLINE
  5
1e9
100
AcDbEntity
  8
0
100
AcDbSpline
210
0.0
220
0.0
230
1.0
 62
     253
 70
     0
 71
     3
 72
     8
 73
4
 40
0.0
 40
0.0
 40
0.0
 40
0.0
 40
1.0
 40
1.0
 40
1.0
 40
1.0
 10
39.0758
 20
147.075
 30
0.0
 10
39.0758
 20
147.629
 30
0.0
 10
39.5235
 20
148.076
 30
0.0
 10
40.0763
 20
148.076
 30
0.0
  0
SPLINE
  5
1ea
100
AcDbEntity
  8
0
100
AcDbSpline
210
0.0
220
0.0
230
1.0
 62
     253
 70
     0
 71
     3
 72
     8
 73
4
 40
0.0
 40
0.0
 40
0.0
 40
0.0
 40
1.0
 40
1.0
 40
1.0
 40
1.0
 10
40.0763
 20
148.076
 30
0.0
 10
40.6287
 20
148.076
 30
0.0
 10
41.0767
 20
147.629
 30
0.0
 10
41.0767
 20
147.075
 30
0.0
  0
SPLINE
  5
1eb
100
AcDbEntity
  8
0
100
AcDbSpline
210
0.0
220
0.0
230
1.0
 62
     253
 70
     0
 71
     3
 72
     8
 73
4
 40
0.0
 40
0.0
 40
0.0
 40
0.0
 40
1.0
 40
1.0
 40
1.0
 40
1.0
 10
41.0767
 20
48.0755
 30
0.0
 10
41.0767
 20
47.523
 30
0.0
 10
40.6287
 20
47.075
 30
0.0
 10
40.0763
 20
47.075
 30
0.0
  0
SPLINE
  5
1ec
100
AcDbEntity
  8
0
100
AcDbSpline
210
0.0
220
0.0
230
1.0
 62
     253
 70
     0
 71
     3
 72
     8
 73
4
 40
0.0
 40
0.0
 40
0.0
 40
0.0
 40
1.0
 40
1.0
 40
1.0
 40
1.0
 10
40.0763
 20
47.075
 30
0.0
 10
39.5235
 20
47.075
 30
0.0
 10
39.0758
 20
47.523
 30
0.0
 10
39.0758
 20
48.0755
 30
0.0
  0
SPLINE
  5
1ed
100
AcDbEntity
  8
0
100
AcDbSpline
210
0.0
220
0.0
230
1.0
 62
     253
 70
     0
 71
     3
 72
     8
 73
4
 40
0.0
 40
0.0
 40
0.0
 40
0.0
 40
1.0
 40
1.0
 40
1.0
 40
1.0
 10
39.0758
 20
48.0755
 30
0.0
 10
39.0758
 20
48.6297
 30
0.0
 10
39.5235
 20
49.076
 30
0.0
 10
40.0763
 20
49.076
 30
0.0
  0
SPLINE
  5
1ee
100
AcDbEntity
  8
0
100
AcDbSpline
210
0.0
220
0.0
230
1.0
 62
     253
 70
     0
 71
     3
 72
     8
 73
4
 40
0.0
 40
0.0
 40
0.0
 40
0.0
 40
1.0
 40
1.0
 40
1.0
 40
1.0
 10
40.0763
 20
49.076
 30
0.0
 10
40.6287
 20
49.076
 30
0.0
 10
41.0767
 20
48.6297
 30
0.0
 10
41.0767
 20
48.0755
 30
0.0
  0
SPLINE
  5
1ef
100
AcDbEntity
  8
0
100
AcDbSpline
210
0.0
220
0.0
230
1.0
 62
     253
 70
     0
 71
     3
 72
     8
 73
4
 40
0.0
 40
0.0
 40
0.0
 40
0.0
 40
1.0
 40
1.0
 40
1.0
 40
1.0
 10
41.0767
 20
57.0756
 30
0.0
 10
41.0767
 20
56.5245
 30
0.0
 10
40.6287
 20
56.0751
 30
0.0
 10
40.0763
 20
56.0751
 30
0.0
  0
SPLINE
  5
1f0
100
AcDbEntity
  8
0
100
AcDbSpline
210
0.0
220
0.0
230
1.0
 62
     253
 70
     0
 71
     3
 72
     8
 73
4
 40
0.0
 40
0.0
 40
0.0
 40
0.0
 40
1.0
 40
1.0
 40
1.0
 40
1.0
 10
40.0763
 20
56.0751
 30
0.0
 10
39.5235
 20
56.0751
 30
0.0
 10
39.0758
 20
56.5245
 30
0.0
 10
39.0758
 20
57.0756
 30
0.0
  0
SPLINE
  5
1f1
100
AcDbEntity
  8
0
100
AcDbSpline
210
0.0
220
0.0
230
1.0
 62
     253
 70
     0
 71
     3
 72
     8
 73
4
 40
0.0
 40
0.0
 40
0.0
 40
0.0
 40
1.0
 40
1.0
 40
1.0
 40
1.0
 10
39.0758
 20
57.0756
 30
0.0
 10
39.0758
 20
57.6294
 30
0.0
 10
39.5235
 20
58.076
 30
0.0
 10
40.0763
 20
58.076
 30
0.0
  0
SPLINE
  5
1f2
100
AcDbEntity
  8
0
100
AcDbSpline
210
0.0
220
0.0
230
1.0
 62
     253
 70
     0
 71
     3
 72
     8
 73
4
 40
0.0
 40
0.0
 40
0.0
 40
0.0
 40
1.0
 40
1.0
 40
1.0
 40
1.0
 10
40.0763
 20
58.076
 30
0.0
 10
40.6287
 20
58.076
 30
0.0
 10
41.0767
 20
57.6294
 30
0.0
 10
41.0767
 20
57.0756
 30
0.0
  0
SPLINE
  5
1f3
100
AcDbEntity
  8
0
100
AcDbSpline
210
0.0
220
0.0
230
1.0
 62
     253
 70
     0
 71
     3
 72
     8
 73
4
 40
0.0
 40
0.0
 40
0.0
 40
0.0
 40
1.0
 40
1.0
 40
1.0
 40
1.0
 10
41.0767
 20
192.075
 30
0.0
 10
41.0767
 20
191.524
 30
0.0
 10
40.6287
 20
191.076
 30
0.0
 10
40.0763
 20
191.076
 30
0.0
  0
SPLINE
  5
1f4
100
AcDbEntity
  8
0
100
AcDbSpline
210
0.0
220
0.0
230
1.0
 62
     253
 70
     0
 71
     3
 72
     8
 73
4
 40
0.0
 40
0.0
 40
0.0
 40
0.0
 40
1.0
 40
1.0
 40
1.0
 40
1.0
 10
40.0763
 20
191.076
 30
0.0
 10
39.5235
 20
191.076
 30
0.0
 10
39.0758
 20
191.524
 30
0.0
 10
39.0758
 20
192.075
 30
0.0
  0
SPLINE
  5
1f5
100
AcDbEntity
  8
0
100
AcDbSpline
210
0.0
220
0.0
230
1.0
 62
     253
 70
     0
 71
     3
 72
     8
 73
4
 40
0.0
 40
0.0
 40
0.0
 40
0.0
 40
1.0
 40
1.0
 40
1.0
 40
1.0
 10
39.0758
 20
192.075
 30
0.0
 10
39.0758
 20
192.628
 30
0.0
 10
39.5235
 20
193.077
 30
0.0
 10
40.0763
 20
193.077
 30
0.0
  0
SPLINE
  5
1f6
100
AcDbEntity
  8
0
100
AcDbSpline
210
0.0
220
0.0
230
1.0
 62
     253
 70
     0
 71
     3
 72
     8
 73
4
 40
0.0
 40
0.0
 40
0.0
 40
0.0
 40
1.0
 40
1.0
 40
1.0
 40
1.0
 10
40.0763
 20
193.077
 30
0.0
 10
40.6287
 20
193.077
 30
0.0
 10
41.0767
 20
192.628
 30
0.0
 10
41.0767
 20
192.075
 30
0.0
  0
LINE
  5
1f7
100
AcDbEntity
  8
0
100
AcDbLine
 62
     253
 10
44.6761
 20
41.5766
 30
0.0
 11
45.0755
 21
41.9749
 31
0.0
  0
LINE
  5
1f8
100
AcDbEntity
  8
0
100
AcDbLine
 62
     253
 10
44.6761
 20
214.576
 30
0.0
 11
45.0755
 21
214.176
 31
0.0
  0
LINE
  5
1f9
100
AcDbEntity
  8
0
100
AcDbLine
 62
     253
 10
45.0755
 20
41.9749
 30
0.0
 11
45.0755
 21
214.176
 31
0.0
  0
LINE
  5
1fa
100
AcDbEntity
  8
0
100
AcDbLine
 62
     253
 10
44.6761
 20
41.5766
 30
0.0
 11
35.4764
 21
41.5766
 31
0.0
  0
LINE
  5
1fb
100
AcDbEntity
  8
0
100
AcDbLine
 62
     253
 10
35.4764
 20
41.5766
 30
0.0
 11
35.0766
 21
41.9749
 31
0.0
  0
LINE
  5
1fc
100
AcDbEntity
  8
0
100
AcDbLine
 62
     253
 10
44.6761
 20
214.576
 30
0.0
 11
35.4764
 21
214.576
 31
0.0
  0
LINE
  5
1fd
100
AcDbEntity
  8
0
100
AcDbLine
 62
     253
 10
35.0766
 20
214.176
 30
0.0
 11
35.4764
 21
214.576
 31
0.0
  0
LINE
  5
1fe
100
AcDbEntity
  8
0
100
AcDbLine
 62
     253
 10
35.0766
 20
41.9749
 30
0.0
 11
35.0766
 21
214.176
 31
0.0
  0
LINE
  5
1ff
100
AcDbEntity
  8
0
100
AcDbLine
 62
     253
 10
44.6761
 20
41.9749
 30
0.0
 11
44.6761
 21
214.176
 31
0.0
  0
LINE
  5
200
100
AcDbEntity
  8
0
100
AcDbLine
 62
     253
 10
44.6761
 20
41.9749
 30
0.0
 11
35.4764
 21
41.9749
 31
0.0
  0
LINE
  5
201
100
AcDbEntity
  8
0
100
AcDbLine
 62
     253
 10
44.6761
 20
214.176
 30
0.0
 11
35.4764
 21
214.176
 31
0.0
  0
LINE
  5
202
100
AcDbEntity
  8
0
100
AcDbLine
 62
     253
 10
35.4764
 20
41.9749
 30
0.0
 11
35.4764
 21
214.176
 31
0.0
  0
LINE
  5
203
100
AcDbEntity
  8
0
100
AcDbLine
 62
     253
 10
44.6761
 20
41.5766
 30
0.0
 11
45.0755
 21
41.9749
 31
0.0
  0
LINE
  5
204
100
AcDbEntity
  8
0
100
AcDbLine
 62
     253
 10
44.6761
 20
214.576
 30
0.0
 11
45.0755
 21
214.176
 31
0.0
  0
LINE
  5
205
100
AcDbEntity
  8
0
100
AcDbLine
 62
     253
 10
44.6761
 20
41.9749
 30
0.0
 11
45.0755
 21
41.9749
 31
0.0
  0
LINE
  5
206
100
AcDbEntity
  8
0
100
AcDbLine
 62
     253
 10
44.6761
 20
214.176
 30
0.0
 11
45.0755
 21
214.176
 31
0.0
  0
LINE
  5
207
100
AcDbEntity
  8
0
100
AcDbLine
 62
     253
 10
35.4764
 20
41.5766
 30
0.0
 11
35.0766
 21
41.9749
 31
0.0
  0
LINE
  5
208
100
AcDbEntity
  8
0
100
AcDbLine
 62
     253
 10
44.6761
 20
41.5766
 30
0.0
 11
44.6761
 21
41.9749
 31
0.0
  0
LINE
  5
209
100
AcDbEntity
  8
0
100
AcDbLine
 62
     253
 10
35.4764
 20
41.5766
 30
0.0
 11
35.4764
 21
41.9749
 31
0.0
  0
LINE
  5
20a
100
AcDbEntity
  8
0
100
AcDbLine
 62
     253
 10
35.0766
 20
214.176
 30
0.0
 11
35.4764
 21
214.576
 31
0.0
  0
LINE
  5
20b
100
AcDbEntity
  8
0
100
AcDbLine
 62
     253
 10
44.6761
 20
214.576
 30
0.0
 11
44.6761
 21
214.176
 31
0.0
  0
LINE
  5
20c
100
AcDbEntity
  8
0
100
AcDbLine
 62
     253
 10
35.4764
 20
214.176
 30
0.0
 11
35.4764
 21
214.576
 31
0.0
  0
LINE
  5
20d
100
AcDbEntity
  8
0
100
AcDbLine
 62
     253
 10
35.4764
 20
41.9749
 30
0.0
 11
35.0766
 21
41.9749
 31
0.0
  0
LINE
  5
20e
100
AcDbEntity
  8
0
100
AcDbLine
 62
     253
 10
35.0766
 20
214.176
 30
0.0
 11
35.4764
 21
214.176
 31
0.0
  0
SPLINE
  5
20f
100
AcDbEntity
  8
0
100
AcDbSpline
210
0.0
220
0.0
230
1.0
 62
     253
 70
     0
 71
     3
 72
     8
 73
4
 40
0.0
 40
0.0
 40
0.0
 40
0.0
 40
1.0
 40
1.0
 40
1.0
 40
1.0
 10
41.0767
 20
93.0755
 30
0.0
 10
41.0767
 20
92.5241
 30
0.0
 10
40.6287
 20
92.075
 30
0.0
 10
40.0763
 20
92.075
 30
0.0
  0
SPLINE
  5
210
100
AcDbEntity
  8
0
100
AcDbSpline
210
0.0
220
0.0
230
1.0
 62
     253
 70
     0
 71
     3
 72
     8
 73
4
 40
0.0
 40
0.0
 40
0.0
 40
0.0
 40
1.0
 40
1.0
 40
1.0
 40
1.0
 10
40.0763
 20
92.075
 30
0.0
 10
39.5235
 20
92.075
 30
0.0
 10
39.0758
 20
92.5241
 30
0.0
 10
39.0758
 20
93.0755
 30
0.0
  0
SPLINE
  5
211
100
AcDbEntity
  8
0
100
AcDbSpline
210
0.0
220
0.0
230
1.0
 62
     253
 70
     0
 71
     3
 72
     8
 73
4
 40
0.0
 40
0.0
 40
0.0
 40
0.0
 40
1.0
 40
1.0
 40
1.0
 40
1.0
 10
39.0758
 20
93.0755
 30
0.0
 10
39.0758
 20
93.6279
 30
0.0
 10
39.5235
 20
94.076
 30
0.0
 10
40.0763
 20
94.076
 30
0.0
  0
SPLINE
  5
212
100
AcDbEntity
  8
0
100
AcDbSpline
210
0.0
220
0.0
230
1.0
 62
     253
 70
     0
 71
     3
 72
     8
 73
4
 40
0.0
 40
0.0
 40
0.0
 40
0.0
 40
1.0
 40
1.0
 40
1.0
 40
1.0
 10
40.0763
 20
94.076
 30
0.0
 10
40.6287
 20
94.076
 30
0.0
 10
41.0767
 20
93.6279
 30
0.0
 10
41.0767
 20
93.0755
 30
0.0
  0
SPLINE
  5
213
100
AcDbEntity
  8
0
100
AcDbSpline
210
0.0
220
0.0
230
1.0
 62
     253
 70
     0
 71
     3
 72
     8
 73
4
 40
0.0
 40
0.0
 40
0.0
 40
0.0
 40
1.0
 40
1.0
 40
1.0
 40
1.0
 10
41.0767
 20
102.077
 30
0.0
 10
41.0767
 20
101.523
 30
0.0
 10
40.6287
 20
101.076
 30
0.0
 10
40.0763
 20
101.076
 30
0.0
  0
SPLINE
  5
214
100
AcDbEntity
  8
0
100
AcDbSpline
210
0.0
220
0.0
230
1.0
 62
     253
 70
     0
 71
     3
 72
     8
 73
4
 40
0.0
 40
0.0
 40
0.0
 40
0.0
 40
1.0
 40
1.0
 40
1.0
 40
1.0
 10
40.0763
 20
101.076
 30
0.0
 10
39.5235
 20
101.076
 30
0.0
 10
39.0758
 20
101.523
 30
0.0
 10
39.0758
 20
102.077
 30
0.0
  0
SPLINE
  5
215
100
AcDbEntity
  8
0
100
AcDbSpline
210
0.0
220
0.0
230
1.0
 62
     253
 70
     0
 71
     3
 72
     8
 73
4
 40
0.0
 40
0.0
 40
0.0
 40
0.0
 40
1.0
 40
1.0
 40
1.0
 40
1.0
 10
39.0758
 20
102.077
 30
0.0
 10
39.0758
 20
102.628
 30
0.0
 10
39.5235
 20
103.077
 30
0.0
 10
40.0763
 20
103.077
 30
0.0
  0
SPLINE
  5
216
100
AcDbEntity
  8
0
100
AcDbSpline
210
0.0
220
0.0
230
1.0
 62
     253
 70
     0
 71
     3
 72
     8
 73
4
 40
0.0
 40
0.0
 40
0.0
 40
0.0
 40
1.0
 40
1.0
 40
1.0
 40
1.0
 10
40.0763
 20
103.077
 30
0.0
 10
40.6287
 20
103.077
 30
0.0
 10
41.0767
 20
102.628
 30
0.0
 10
41.0767
 20
102.077
 30
0.0
  0
SPLINE
  5
217
100
AcDbEntity
  8
0
100
AcDbSpline
210
0.0
220
0.0
230
1.0
 62
     253
 70
     0
 71
     3
 72
     8
 73
4
 40
0.0
 40
0.0
 40
0.0
 40
0.0
 40
1.0
 40
1.0
 40
1.0
 40
1.0
 10
41.0767
 20
138.077
 30
0.0
 10
41.0767
 20
137.523
 30
0.0
 10
40.6287
 20
137.076
 30
0.0
 10
40.0763
 20
137.076
 30
0.0
  0
SPLINE
  5
218
100
AcDbEntity
  8
0
100
AcDbSpline
210
0.0
220
0.0
230
1.0
 62
     253
 70
     0
 71
     3
 72
     8
 73
4
 40
0.0
 40
0.0
 40
0.0
 40
0.0
 40
1.0
 40
1.0
 40
1.0
 40
1.0
 10
40.0763
 20
137.076
 30
0.0
 10
39.5235
 20
137.076
 30
0.0
 10
39.0758
 20
137.523
 30
0.0
 10
39.0758
 20
138.077
 30
0.0
  0
SPLINE
  5
219
100
AcDbEntity
  8
0
100
AcDbSpline
210
0.0
220
0.0
230
1.0
 62
     253
 70
     0
 71
     3
 72
     8
 73
4
 40
0.0
 40
0.0
 40
0.0
 40
0.0
 40
1.0
 40
1.0
 40
1.0
 40
1.0
 10
39.0758
 20
138.077
 30
0.0
 10
39.0758
 20
138.628
 30
0.0
 10
39.5235
 20
139.077
 30
0.0
 10
40.0763
 20
139.077
 30
0.0
  0
SPLINE
  5
21a
100
AcDbEntity
  8
0
100
AcDbSpline
210
0.0
220
0.0
230
1.0
 62
     253
 70
     0
 71
     3
 72
     8
 73
4
 40
0.0
 40
0.0
 40
0.0
 40
0.0
 40
1.0
 40
1.0
 40
1.0
 40
1.0
 10
40.0763
 20
139.077
 30
0.0
 10
40.6287
 20
139.077
 30
0.0
 10
41.0767
 20
138.628
 30
0.0
 10
41.0767
 20
138.077
 30
0.0
  0
SPLINE
  5
21b
100
AcDbEntity
  8
0
100
AcDbSpline
210
0.0
220
0.0
230
1.0
 62
     253
 70
     0
 71
     3
 72
     8
 73
4
 40
0.0
 40
0.0
 40
0.0
 40
0.0
 40
1.0
 40
1.0
 40
1.0
 40
1.0
 10
41.0767
 20
183.075
 30
0.0
 10
41.0767
 20
182.524
 30
0.0
 10
40.6287
 20
182.076
 30
0.0
 10
40.0763
 20
182.076
 30
0.0
  0
SPLINE
  5
21c
100
AcDbEntity
  8
0
100
AcDbSpline
210
0.0
220
0.0
230
1.0
 62
     253
 70
     0
 71
     3
 72
     8
 73
4
 40
0.0
 40
0.0
 40
0.0
 40
0.0
 40
1.0
 40
1.0
 40
1.0
 40
1.0
 10
40.0763
 20
182.076
 30
0.0
 10
39.5235
 20
182.076
 30
0.0
 10
39.0758
 20
182.524
 30
0.0
 10
39.0758
 20
183.075
 30
0.0
  0
SPLINE
  5
21d
100
AcDbEntity
  8
0
100
AcDbSpline
210
0.0
220
0.0
230
1.0
 62
     253
 70
     0
 71
     3
 72
     8
 73
4
 40
0.0
 40
0.0
 40
0.0
 40
0.0
 40
1.0
 40
1.0
 40
1.0
 40
1.0
 10
39.0758
 20
183.075
 30
0.0
 10
39.0758
 20
183.629
 30
0.0
 10
39.5235
 20
184.076
 30
0.0
 10
40.0763
 20
184.076
 30
0.0
  0
SPLINE
  5
21e
100
AcDbEntity
  8
0
100
AcDbSpline
210
0.0
220
0.0
230
1.0
 62
     253
 70
     0
 71
     3
 72
     8
 73
4
 40
0.0
 40
0.0
 40
0.0
 40
0.0
 40
1.0
 40
1.0
 40
1.0
 40
1.0
 10
40.0763
 20
184.076
 30
0.0
 10
40.6287
 20
184.076
 30
0.0
 10
41.0767
 20
183.629
 30
0.0
 10
41.0767
 20
183.075
 30
0.0
  0
SPLINE
  5
21f
100
AcDbEntity
  8
0
100
AcDbSpline
210
0.0
220
0.0
230
1.0
 62
     253
 70
     0
 71
     3
 72
     8
 73
4
 40
0.0
 40
0.0
 40
0.0
 40
0.0
 40
1.0
 40
1.0
 40
1.0
 40
1.0
 10
41.0767
 20
147.075
 30
0.0
 10
41.0767
 20
146.523
 30
0.0
 10
40.6287
 20
146.075
 30
0.0
 10
40.0763
 20
146.075
 30
0.0
  0
SPLINE
  5
220
100
AcDbEntity
  8
0
100
AcDbSpline
210
0.0
220
0.0
230
1.0
 62
     253
 70
     0
 71
     3
 72
     8
 73
4
 40
0.0
 40
0.0
 40
0.0
 40
0.0
 40
1.0
 40
1.0
 40
1.0
 40
1.0
 10
40.0763
 20
146.075
 30
0.0
 10
39.5235
 20
146.075
 30
0.0
 10
39.0758
 20
146.523
 30
0.0
 10
39.0758
 20
147.075
 30
0.0
  0
SPLINE
  5
221
100
AcDbEntity
  8
0
100
AcDbSpline
210
0.0
220
0.0
230
1.0
 62
     253
 70
     0
 71
     3
 72
     8
 73
4
 40
0.0
 40
0.0
 40
0.0
 40
0.0
 40
1.0
 40
1.0
 40
1.0
 40
1.0
 10
39.0758
 20
147.075
 30
0.0
 10
39.0758
 20
147.629
 30
0.0
 10
39.5235
 20
148.076
 30
0.0
 10
40.0763
 20
148.076
 30
0.0
  0
SPLINE
  5
222
100
AcDbEntity
  8
0
100
AcDbSpline
210
0.0
220
0.0
230
1.0
 62
     253
 70
     0
 71
     3
 72
     8
 73
4
 40
0.0
 40
0.0
 40
0.0
 40
0.0
 40
1.0
 40
1.0
 40
1.0
 40
1.0
 10
40.0763
 20
148.076
 30
0.0
 10
40.6287
 20
148.076
 30
0.0
 10
41.0767
 20
147.629
 30
0.0
 10
41.0767
 20
147.075
 30
0.0
  0
SPLINE
  5
223
100
AcDbEntity
  8
0
100
AcDbSpline
210
0.0
220
0.0
230
1.0
 62
     253
 70
     0
 71
     3
 72
     8
 73
4
 40
0.0
 40
0.0
 40
0.0
 40
0.0
 40
1.0
 40
1.0
 40
1.0
 40
1.0
 10
41.0767
 20
48.0755
 30
0.0
 10
41.0767
 20
47.523
 30
0.0
 10
40.6287
 20
47.075
 30
0.0
 10
40.0763
 20
47.075
 30
0.0
  0
SPLINE
  5
224
100
AcDbEntity
  8
0
100
AcDbSpline
210
0.0
220
0.0
230
1.0
 62
     253
 70
     0
 71
     3
 72
     8
 73
4
 40
0.0
 40
0.0
 40
0.0
 40
0.0
 40
1.0
 40
1.0
 40
1.0
 40
1.0
 10
40.0763
 20
47.075
 30
0.0
 10
39.5235
 20
47.075
 30
0.0
 10
39.0758
 20
47.523
 30
0.0
 10
39.0758
 20
48.0755
 30
0.0
  0
SPLINE
  5
225
100
AcDbEntity
  8
0
100
AcDbSpline
210
0.0
220
0.0
230
1.0
 62
     253
 70
     0
 71
     3
 72
     8
 73
4
 40
0.0
 40
0.0
 40
0.0
 40
0.0
 40
1.0
 40
1.0
 40
1.0
 40
1.0
 10
39.0758
 20
48.0755
 30
0.0
 10
39.0758
 20
48.6297
 30
0.0
 10
39.5235
 20
49.076
 30
0.0
 10
40.0763
 20
49.076
 30
0.0
  0
SPLINE
  5
226
100
AcDbEntity
  8
0
100
AcDbSpline
210
0.0
220
0.0
230
1.0
 62
     253
 70
     0
 71
     3
 72
     8
 73
4
 40
0.0
 40
0.0
 40
0.0
 40
0.0
 40
1.0
 40
1.0
 40
1.0
 40
1.0
 10
40.0763
 20
49.076
 30
0.0
 10
40.6287
 20
49.076
 30
0.0
 10
41.0767
 20
48.6297
 30
0.0
 10
41.0767
 20
48.0755
 30
0.0
  0
SPLINE
  5
227
100
AcDbEntity
  8
0
100
AcDbSpline
210
0.0
220
0.0
230
1.0
 62
     253
 70
     0
 71
     3
 72
     8
 73
4
 40
0.0
 40
0.0
 40
0.0
 40
0.0
 40
1.0
 40
1.0
 40
1.0
 40
1.0
 10
41.0767
 20
57.0756
 30
0.0
 10
41.0767
 20
56.5245
 30
0.0
 10
40.6287
 20
56.0751
 30
0.0
 10
40.0763
 20
56.0751
 30
0.0
  0
SPLINE
  5
228
100
AcDbEntity
  8
0
100
AcDbSpline
210
0.0
220
0.0
230
1.0
 62
     253
 70
     0
 71
     3
 72
     8
 73
4
 40
0.0
 40
0.0
 40
0.0
 40
0.0
 40
1.0
 40
1.0
 40
1.0
 40
1.0
 10
40.0763
 20
56.0751
 30
0.0
 10
39.5235
 20
56.0751
 30
0.0
 10
39.0758
 20
56.5245
 30
0.0
 10
39.0758
 20
57.0756
 30
0.0
  0
SPLINE
  5
229
100
AcDbEntity
  8
0
100
AcDbSpline
210
0.0
220
0.0
230
1.0
 62
     253
 70
     0
 71
     3
 72
     8
 73
4
 40
0.0
 40
0.0
 40
0.0
 40
0.0
 40
1.0
 40
1.0
 40
1.0
 40
1.0
 10
39.0758
 20
57.0756
 30
0.0
 10
39.0758
 20
57.6294
 30
0.0
 10
39.5235
 20
58.076
 30
0.0
 10
40.0763
 20
58.076
 30
0.0
  0
SPLINE
  5
22a
100
AcDbEntity
  8
0
100
AcDbSpline
210
0.0
220
0.0
230
1.0
 62
     253
 70
     0
 71
     3
 72
     8
 73
4
 40
0.0
 40
0.0
 40
0.0
 40
0.0
 40
1.0
 40
1.0
 40
1.0
 40
1.0
 10
40.0763
 20
58.076
 30
0.0
 10
40.6287
 20
58.076
 30
0.0
 10
41.0767
 20
57.6294
 30
0.0
 10
41.0767
 20
57.0756
 30
0.0
  0
SPLINE
  5
22b
100
AcDbEntity
  8
0
100
AcDbSpline
210
0.0
220
0.0
230
1.0
 62
     253
 70
     0
 71
     3
 72
     8
 73
4
 40
0.0
 40
0.0
 40
0.0
 40
0.0
 40
1.0
 40
1.0
 40
1.0
 40
1.0
 10
41.0767
 20
192.075
 30
0.0
 10
41.0767
 20
191.524
 30
0.0
 10
40.6287
 20
191.076
 30
0.0
 10
40.0763
 20
191.076
 30
0.0
  0
SPLINE
  5
22c
100
AcDbEntity
  8
0
100
AcDbSpline
210
0.0
220
0.0
230
1.0
 62
     253
 70
     0
 71
     3
 72
     8
 73
4
 40
0.0
 40
0.0
 40
0.0
 40
0.0
 40
1.0
 40
1.0
 40
1.0
 40
1.0
 10
40.0763
 20
191.076
 30
0.0
 10
39.5235
 20
191.076
 30
0.0
 10
39.0758
 20
191.524
 30
0.0
 10
39.0758
 20
192.075
 30
0.0
  0
SPLINE
  5
22d
100
AcDbEntity
  8
0
100
AcDbSpline
210
0.0
220
0.0
230
1.0
 62
     253
 70
     0
 71
     3
 72
     8
 73
4
 40
0.0
 40
0.0
 40
0.0
 40
0.0
 40
1.0
 40
1.0
 40
1.0
 40
1.0
 10
39.0758
 20
192.075
 30
0.0
 10
39.0758
 20
192.628
 30
0.0
 10
39.5235
 20
193.077
 30
0.0
 10
40.0763
 20
193.077
 30
0.0
  0
SPLINE
  5
22e
100
AcDbEntity
  8
0
100
AcDbSpline
210
0.0
220
0.0
230
1.0
 62
     253
 70
     0
 71
     3
 72
     8
 73
4
 40
0.0
 40
0.0
 40
0.0
 40
0.0
 40
1.0
 40
1.0
 40
1.0
 40
1.0
 10
40.0763
 20
193.077
 30
0.0
 10
40.6287
 20
193.077
 30
0.0
 10
41.0767
 20
192.628
 30
0.0
 10
41.0767
 20
192.075
 30
0.0
  0
LINE
  5
22f
100
AcDbEntity
  8
0
100
AcDbLine
 62
     253
 10
45.0755
 20
41.9749
 30
0.0
 11
45.0755
 21
214.176
 31
0.0
  0
LINE
  5
230
100
AcDbEntity
  8
0
100
AcDbLine
 62
     253
 10
44.6761
 20
41.5766
 30
0.0
 11
35.4764
 21
41.5766
 31
0.0
  0
LINE
  5
231
100
AcDbEntity
  8
0
100
AcDbLine
 62
     253
 10
44.6761
 20
214.576
 30
0.0
 11
35.4764
 21
214.576
 31
0.0
  0
LINE
  5
232
100
AcDbEntity
  8
0
100
AcDbLine
 62
     253
 10
35.0766
 20
41.9749
 30
0.0
 11
35.0766
 21
214.176
 31
0.0
  0
LINE
  5
233
100
AcDbEntity
  8
0
100
AcDbLine
 62
     253
 10
44.6761
 20
41.9749
 30
0.0
 11
44.6761
 21
214.176
 31
0.0
  0
LINE
  5
234
100
AcDbEntity
  8
0
100
AcDbLine
 62
     253
 10
44.6761
 20
41.9749
 30
0.0
 11
35.4764
 21
41.9749
 31
0.0
  0
LINE
  5
235
100
AcDbEntity
  8
0
100
AcDbLine
 62
     253
 10
44.6761
 20
214.176
 30
0.0
 11
35.4764
 21
214.176
 31
0.0
  0
LINE
  5
236
100
AcDbEntity
  8
0
100
AcDbLine
 62
     253
 10
35.4764
 20
41.9749
 30
0.0
 11
35.4764
 21
214.176
 31
0.0
  0
LINE
  5
237
100
AcDbEntity
  8
0
100
AcDbLine
 62
     253
 10
44.6761
 20
41.5766
 30
0.0
 11
45.0755
 21
41.9749
 31
0.0
  0
LINE
  5
238
100
AcDbEntity
  8
0
100
AcDbLine
 62
     253
 10
44.6761
 20
214.576
 30
0.0
 11
45.0755
 21
214.176
 31
0.0
  0
LINE
  5
239
100
AcDbEntity
  8
0
100
AcDbLine
 62
     253
 10
44.6761
 20
41.9749
 30
0.0
 11
45.0755
 21
41.9749
 31
0.0
  0
LINE
  5
23a
100
AcDbEntity
  8
0
100
AcDbLine
 62
     253
 10
44.6761
 20
214.176
 30
0.0
 11
45.0755
 21
214.176
 31
0.0
  0
LINE
  5
23b
100
AcDbEntity
  8
0
100
AcDbLine
 62
     253
 10
35.4764
 20
41.5766
 30
0.0
 11
35.0766
 21
41.9749
 31
0.0
  0
LINE
  5
23c
100
AcDbEntity
  8
0
100
AcDbLine
 62
     253
 10
44.6761
 20
41.5766
 30
0.0
 11
44.6761
 21
41.9749
 31
0.0
  0
LINE
  5
23d
100
AcDbEntity
  8
0
100
AcDbLine
 62
     253
 10
35.4764
 20
41.5766
 30
0.0
 11
35.4764
 21
41.9749
 31
0.0
  0
LINE
  5
23e
100
AcDbEntity
  8
0
100
AcDbLine
 62
     253
 10
35.0766
 20
214.176
 30
0.0
 11
35.4764
 21
214.576
 31
0.0
  0
LINE
  5
23f
100
AcDbEntity
  8
0
100
AcDbLine
 62
     253
 10
44.6761
 20
214.576
 30
0.0
 11
44.6761
 21
214.176
 31
0.0
  0
LINE
  5
240
100
AcDbEntity
  8
0
100
AcDbLine
 62
     253
 10
35.4764
 20
214.176
 30
0.0
 11
35.4764
 21
214.576
 31
0.0
  0
LINE
  5
241
100
AcDbEntity
  8
0
100
AcDbLine
 62
     253
 10
35.4764
 20
41.9749
 30
0.0
 11
35.0766
 21
41.9749
 31
0.0
  0
LINE
  5
242
100
AcDbEntity
  8
0
100
AcDbLine
 62
     253
 10
35.0766
 20
214.176
 30
0.0
 11
35.4764
 21
214.176
 31
0.0
  0
LINE
  5
243
100
AcDbEntity
  8
0
100
AcDbLine
 62
     253
 10
10.0762
 20
0.4768
 30
0.0
 11
10.0762
 21
9.67659
 31
0.0
  0
LINE
  5
244
100
AcDbEntity
  8
0
100
AcDbLine
 62
     253
 10
10.0762
 20
4.07624
 30
0.0
 11
10.0762
 21
6.07716
 31
0.0
  0
LINE
  5
245
100
AcDbEntity
  8
0
100
AcDbLine
 62
     253
 10
10.0762
 20
6.07716
 30
0.0
 11
10.0762
 21
4.07624
 31
0.0
  0
LINE
  5
246
100
AcDbEntity
  8
0
100
AcDbLine
 62
     253
 10
10.0762
 20
4.07624
 30
0.0
 11
10.0762
 21
6.07716
 31
0.0
  0
LINE
  5
247
100
AcDbEntity
  8
0
100
AcDbLine
 62
     253
 10
10.0762
 20
6.07716
 30
0.0
 11
10.0762
 21
4.07624
 31
0.0
  0
LINE
  5
248
100
AcDbEntity
  8
0
100
AcDbLine
 62
     253
 10
10.0762
 20
4.07624
 30
0.0
 11
10.0762
 21
6.07716
 31
0.0
  0
LINE
  5
249
100
AcDbEntity
  8
0
100
AcDbLine
 62
     253
 10
10.0762
 20
6.07716
 30
0.0
 11
10.0762
 21
4.07624
 31
0.0
  0
LINE
  5
24a
100
AcDbEntity
  8
0
100
AcDbLine
 62
     253
 10
10.0762
 20
4.07624
 30
0.0
 11
10.0762
 21
6.07716
 31
0.0
  0
LINE
  5
24b
100
AcDbEntity
  8
0
100
AcDbLine
 62
     253
 10
10.0762
 20
6.07716
 30
0.0
 11
10.0762
 21
4.07624
 31
0.0
  0
LINE
  5
24c
100
AcDbEntity
  8
0
100
AcDbLine
 62
     253
 10
10.0762
 20
4.07624
 30
0.0
 11
10.0762
 21
6.07716
 31
0.0
  0
LINE
  5
24d
100
AcDbEntity
  8
0
100
AcDbLine
 62
     253
 10
10.0762
 20
6.07716
 30
0.0
 11
10.0762
 21
4.07624
 31
0.0
  0
LINE
  5
24e
100
AcDbEntity
  8
0
100
AcDbLine
 62
     253
 10
10.0762
 20
4.07624
 30
0.0
 11
10.0762
 21
6.07716
 31
0.0
  0
LINE
  5
24f
100
AcDbEntity
  8
0
100
AcDbLine
 62
     253
 10
10.0762
 20
6.07716
 30
0.0
 11
10.0762
 21
4.07624
 31
0.0
  0
LINE
  5
250
100
AcDbEntity
  8
0
100
AcDbLine
 62
     253
 10
10.0762
 20
4.07624
 30
0.0
 11
10.0762
 21
6.07716
 31
0.0
  0
LINE
  5
251
100
AcDbEntity
  8
0
100
AcDbLine
 62
     253
 10
10.0762
 20
6.07716
 30
0.0
 11
10.0762
 21
4.07624
 31
0.0
  0
LINE
  5
252
100
AcDbEntity
  8
0
100
AcDbLine
 62
     253
 10
10.0762
 20
4.07624
 30
0.0
 11
10.0762
 21
6.07716
 31
0.0
  0
LINE
  5
253
100
AcDbEntity
  8
0
100
AcDbLine
 62
     253
 10
10.0762
 20
6.07716
 30
0.0
 11
10.0762
 21
4.07624
 31
0.0
  0
LINE
  5
254
100
AcDbEntity
  8
0
100
AcDbLine
 62
     253
 10
10.0762
 20
0.4768
 30
0.0
 11
9.67659
 21
0.0757922
 31
0.0
  0
LINE
  5
255
100
AcDbEntity
  8
0
100
AcDbLine
 62
     253
 10
9.67659
 20
0.4768
 30
0.0
 11
10.0762
 21
0.4768
 31
0.0
  0
LINE
  5
256
100
AcDbEntity
  8
0
100
AcDbLine
 62
     253
 10
9.67659
 20
0.4768
 30
0.0
 11
9.67659
 21
9.67659
 31
0.0
  0
LINE
  5
257
100
AcDbEntity
  8
0
100
AcDbLine
 62
     253
 10
9.67659
 20
9.67659
 30
0.0
 11
10.0762
 21
9.67659
 31
0.0
  0
LINE
  5
258
100
AcDbEntity
  8
0
100
AcDbLine
 62
     253
 10
10.0762
 20
9.67659
 30
0.0
 11
9.67659
 21
10.0762
 31
0.0
  0
LINE
  5
259
100
AcDbEntity
  8
0
100
AcDbLine
 62
     253
 10
6.07579
 20
4.07624
 30
0.0
 11
6.07579
 21
6.07716
 31
0.0
  0
LINE
  5
25a
100
AcDbEntity
  8
0
100
AcDbLine
 62
     253
 10
6.07579
 20
6.07716
 30
0.0
 11
6.07579
 21
4.07624
 31
0.0
  0
LINE
  5
25b
100
AcDbEntity
  8
0
100
AcDbLine
 62
     253
 10
6.07579
 20
4.07624
 30
0.0
 11
10.0762
 21
4.07624
 31
0.0
  0
LINE
  5
25c
100
AcDbEntity
  8
0
100
AcDbLine
 62
     253
 10
6.07579
 20
4.07624
 30
0.0
 11
6.07579
 21
6.07716
 31
0.0
  0
LINE
  5
25d
100
AcDbEntity
  8
0
100
AcDbLine
 62
     253
 10
6.07579
 20
6.07716
 30
0.0
 11
6.07579
 21
4.07624
 31
0.0
  0
LINE
  5
25e
100
AcDbEntity
  8
0
100
AcDbLine
 62
     253
 10
6.07579
 20
4.07624
 30
0.0
 11
10.0762
 21
4.07624
 31
0.0
  0
LINE
  5
25f
100
AcDbEntity
  8
0
100
AcDbLine
 62
     253
 10
6.07579
 20
4.07624
 30
0.0
 11
6.07579
 21
6.07716
 31
0.0
  0
LINE
  5
260
100
AcDbEntity
  8
0
100
AcDbLine
 62
     253
 10
6.07579
 20
6.07716
 30
0.0
 11
6.07579
 21
4.07624
 31
0.0
  0
LINE
  5
261
100
AcDbEntity
  8
0
100
AcDbLine
 62
     253
 10
6.07579
 20
4.07624
 30
0.0
 11
10.0762
 21
4.07624
 31
0.0
  0
LINE
  5
262
100
AcDbEntity
  8
0
100
AcDbLine
 62
     253
 10
6.07579
 20
4.07624
 30
0.0
 11
6.07579
 21
6.07716
 31
0.0
  0
LINE
  5
263
100
AcDbEntity
  8
0
100
AcDbLine
 62
     253
 10
6.07579
 20
6.07716
 30
0.0
 11
6.07579
 21
4.07624
 31
0.0
  0
LINE
  5
264
100
AcDbEntity
  8
0
100
AcDbLine
 62
     253
 10
6.07579
 20
4.07624
 30
0.0
 11
10.0762
 21
4.07624
 31
0.0
  0
LINE
  5
265
100
AcDbEntity
  8
0
100
AcDbLine
 62
     253
 10
6.07579
 20
4.07624
 30
0.0
 11
6.07579
 21
6.07716
 31
0.0
  0
LINE
  5
266
100
AcDbEntity
  8
0
100
AcDbLine
 62
     253
 10
6.07579
 20
6.07716
 30
0.0
 11
6.07579
 21
4.07624
 31
0.0
  0
LINE
  5
267
100
AcDbEntity
  8
0
100
AcDbLine
 62
     253
 10
6.07579
 20
4.07624
 30
0.0
 11
10.0762
 21
4.07624
 31
0.0
  0
LINE
  5
268
100
AcDbEntity
  8
0
100
AcDbLine
 62
     253
 10
6.07579
 20
4.07624
 30
0.0
 11
6.07579
 21
6.07716
 31
0.0
  0
LINE
  5
269
100
AcDbEntity
  8
0
100
AcDbLine
 62
     253
 10
6.07579
 20
6.07716
 30
0.0
 11
6.07579
 21
4.07624
 31
0.0
  0
LINE
  5
26a
100
AcDbEntity
  8
0
100
AcDbLine
 62
     253
 10
6.07579
 20
4.07624
 30
0.0
 11
10.0762
 21
4.07624
 31
0.0
  0
LINE
  5
26b
100
AcDbEntity
  8
0
100
AcDbLine
 62
     253
 10
6.07579
 20
4.07624
 30
0.0
 11
6.07579
 21
6.07716
 31
0.0
  0
LINE
  5
26c
100
AcDbEntity
  8
0
100
AcDbLine
 62
     253
 10
6.07579
 20
6.07716
 30
0.0
 11
6.07579
 21
4.07624
 31
0.0
  0
LINE
  5
26d
100
AcDbEntity
  8
0
100
AcDbLine
 62
     253
 10
6.07579
 20
4.07624
 30
0.0
 11
10.0762
 21
4.07624
 31
0.0
  0
LINE
  5
26e
100
AcDbEntity
  8
0
100
AcDbLine
 62
     253
 10
6.07579
 20
4.07624
 30
0.0
 11
6.07579
 21
6.07716
 31
0.0
  0
LINE
  5
26f
100
AcDbEntity
  8
0
100
AcDbLine
 62
     253
 10
6.07579
 20
6.07716
 30
0.0
 11
6.07579
 21
4.07624
 31
0.0
  0
LINE
  5
270
100
AcDbEntity
  8
0
100
AcDbLine
 62
     253
 10
6.07579
 20
4.07624
 30
0.0
 11
10.0762
 21
4.07624
 31
0.0
  0
LINE
  5
271
100
AcDbEntity
  8
0
100
AcDbLine
 62
     253
 10
9.67659
 20
0.4768
 30
0.0
 11
9.67659
 21
0.0757922
 31
0.0
  0
LINE
  5
272
100
AcDbEntity
  8
0
100
AcDbLine
 62
     253
 10
9.67659
 20
0.0757922
 30
0.0
 11
6.47541
 21
0.0757922
 31
0.0
  0
LINE
  5
273
100
AcDbEntity
  8
0
100
AcDbLine
 62
     253
 10
9.67659
 20
0.4768
 30
0.0
 11
6.47541
 21
0.4768
 31
0.0
  0
LINE
  5
274
100
AcDbEntity
  8
0
100
AcDbLine
 62
     253
 10
9.67659
 20
9.67659
 30
0.0
 11
6.47541
 21
9.67659
 31
0.0
  0
LINE
  5
275
100
AcDbEntity
  8
0
100
AcDbLine
 62
     253
 10
6.47541
 20
0.4768
 30
0.0
 11
6.47541
 21
9.67659
 31
0.0
  0
LINE
  5
276
100
AcDbEntity
  8
0
100
AcDbLine
 62
     253
 10
9.67659
 20
9.67659
 30
0.0
 11
9.67659
 21
10.0762
 31
0.0
  0
LINE
  5
277
100
AcDbEntity
  8
0
100
AcDbLine
 62
     253
 10
9.67659
 20
10.0762
 30
0.0
 11
6.47541
 21
10.0762
 31
0.0
  0
LINE
  5
278
100
AcDbEntity
  8
0
100
AcDbLine
 62
     253
 10
6.07579
 20
0.4768
 30
0.0
 11
6.07579
 21
9.67659
 31
0.0
  0
LINE
  5
279
100
AcDbEntity
  8
0
100
AcDbLine
 62
     253
 10
6.47541
 20
0.4768
 30
0.0
 11
6.47541
 21
0.0757922
 31
0.0
  0
LINE
  5
27a
100
AcDbEntity
  8
0
100
AcDbLine
 62
     253
 10
6.07579
 20
0.4768
 30
0.0
 11
6.47541
 21
0.0757922
 31
0.0
  0
LINE
  5
27b
100
AcDbEntity
  8
0
100
AcDbLine
 62
     253
 10
6.47541
 20
9.67659
 30
0.0
 11
6.47541
 21
10.0762
 31
0.0
  0
LINE
  5
27c
100
AcDbEntity
  8
0
100
AcDbLine
 62
     253
 10
6.47541
 20
0.4768
 30
0.0
 11
6.07579
 21
0.4768
 31
0.0
  0
LINE
  5
27d
100
AcDbEntity
  8
0
100
AcDbLine
 62
     253
 10
6.47541
 20
9.67659
 30
0.0
 11
6.07579
 21
9.67659
 31
0.0
  0
LINE
  5
27e
100
AcDbEntity
  8
0
100
AcDbLine
 62
     253
 10
6.07579
 20
9.67659
 30
0.0
 11
6.47541
 21
10.0762
 31
0.0
  0
LINE
  5
27f
100
AcDbEntity
  8
0
100
AcDbLine
 62
     253
 10
0.0757922
 20
0.4768
 30
0.0
 11
0.0757922
 21
9.67659
 31
0.0
  0
LINE
  5
280
100
AcDbEntity
  8
0
100
AcDbLine
 62
     253
 10
0.0757922
 20
4.07624
 30
0.0
 11
0.0757922
 21
6.07716
 31
0.0
  0
LINE
  5
281
100
AcDbEntity
  8
0
100
AcDbLine
 62
     253
 10
0.0757922
 20
6.07716
 30
0.0
 11
0.0757922
 21
4.07624
 31
0.0
  0
LINE
  5
282
100
AcDbEntity
  8
0
100
AcDbLine
 62
     253
 10
0.0757922
 20
4.07624
 30
0.0
 11
0.0757922
 21
6.07716
 31
0.0
  0
LINE
  5
283
100
AcDbEntity
  8
0
100
AcDbLine
 62
     253
 10
0.0757922
 20
6.07716
 30
0.0
 11
0.0757922
 21
4.07624
 31
0.0
  0
LINE
  5
284
100
AcDbEntity
  8
0
100
AcDbLine
 62
     253
 10
0.0757922
 20
4.07624
 30
0.0
 11
0.0757922
 21
6.07716
 31
0.0
  0
LINE
  5
285
100
AcDbEntity
  8
0
100
AcDbLine
 62
     253
 10
0.0757922
 20
6.07716
 30
0.0
 11
0.0757922
 21
4.07624
 31
0.0
  0
LINE
  5
286
100
AcDbEntity
  8
0
100
AcDbLine
 62
     253
 10
0.0757922
 20
4.07624
 30
0.0
 11
0.0757922
 21
6.07716
 31
0.0
  0
LINE
  5
287
100
AcDbEntity
  8
0
100
AcDbLine
 62
     253
 10
0.0757922
 20
6.07716
 30
0.0
 11
0.0757922
 21
4.07624
 31
0.0
  0
LINE
  5
288
100
AcDbEntity
  8
0
100
AcDbLine
 62
     253
 10
0.0757922
 20
4.07624
 30
0.0
 11
0.0757922
 21
6.07716
 31
0.0
  0
LINE
  5
289
100
AcDbEntity
  8
0
100
AcDbLine
 62
     253
 10
0.0757922
 20
6.07716
 30
0.0
 11
0.0757922
 21
4.07624
 31
0.0
  0
LINE
  5
28a
100
AcDbEntity
  8
0
100
AcDbLine
 62
     253
 10
0.0757922
 20
4.07624
 30
0.0
 11
0.0757922
 21
6.07716
 31
0.0
  0
LINE
  5
28b
100
AcDbEntity
  8
0
100
AcDbLine
 62
     253
 10
0.0757922
 20
6.07716
 30
0.0
 11
0.0757922
 21
4.07624
 31
0.0
  0
LINE
  5
28c
100
AcDbEntity
  8
0
100
AcDbLine
 62
     253
 10
0.0757922
 20
4.07624
 30
0.0
 11
0.0757922
 21
6.07716
 31
0.0
  0
LINE
  5
28d
100
AcDbEntity
  8
0
100
AcDbLine
 62
     253
 10
0.0757922
 20
6.07716
 30
0.0
 11
0.0757922
 21
4.07624
 31
0.0
  0
LINE
  5
28e
100
AcDbEntity
  8
0
100
AcDbLine
 62
     253
 10
0.0757922
 20
4.07624
 30
0.0
 11
0.0757922
 21
6.07716
 31
0.0
  0
LINE
  5
28f
100
AcDbEntity
  8
0
100
AcDbLine
 62
     253
 10
0.0757922
 20
6.07716
 30
0.0
 11
0.0757922
 21
4.07624
 31
0.0
  0
LINE
  5
290
100
AcDbEntity
  8
0
100
AcDbLine
 62
     253
 10
0.0757922
 20
0.4768
 30
0.0
 11
0.475424
 21
0.0757922
 31
0.0
  0
LINE
  5
291
100
AcDbEntity
  8
0
100
AcDbLine
 62
     253
 10
0.475424
 20
0.4768
 30
0.0
 11
0.0757922
 21
0.4768
 31
0.0
  0
LINE
  5
292
100
AcDbEntity
  8
0
100
AcDbLine
 62
     253
 10
0.475424
 20
0.4768
 30
0.0
 11
0.475424
 21
9.67659
 31
0.0
  0
LINE
  5
293
100
AcDbEntity
  8
0
100
AcDbLine
 62
     253
 10
0.475424
 20
9.67659
 30
0.0
 11
0.0757922
 21
9.67659
 31
0.0
  0
LINE
  5
294
100
AcDbEntity
  8
0
100
AcDbLine
 62
     253
 10
0.0757922
 20
9.67659
 30
0.0
 11
0.475424
 21
10.0762
 31
0.0
  0
LINE
  5
295
100
AcDbEntity
  8
0
100
AcDbLine
 62
     253
 10
0.0757922
 20
4.07624
 30
0.0
 11
4.07624
 21
4.07624
 31
0.0
  0
LINE
  5
296
100
AcDbEntity
  8
0
100
AcDbLine
 62
     253
 10
4.07624
 20
4.07624
 30
0.0
 11
4.07624
 21
6.07716
 31
0.0
  0
LINE
  5
297
100
AcDbEntity
  8
0
100
AcDbLine
 62
     253
 10
4.07624
 20
6.07716
 30
0.0
 11
4.07624
 21
4.07624
 31
0.0
  0
LINE
  5
298
100
AcDbEntity
  8
0
100
AcDbLine
 62
     253
 10
0.0757922
 20
4.07624
 30
0.0
 11
4.07624
 21
4.07624
 31
0.0
  0
LINE
  5
299
100
AcDbEntity
  8
0
100
AcDbLine
 62
     253
 10
4.07624
 20
4.07624
 30
0.0
 11
4.07624
 21
6.07716
 31
0.0
  0
LINE
  5
29a
100
AcDbEntity
  8
0
100
AcDbLine
 62
     253
 10
4.07624
 20
6.07716
 30
0.0
 11
4.07624
 21
4.07624
 31
0.0
  0
LINE
  5
29b
100
AcDbEntity
  8
0
100
AcDbLine
 62
     253
 10
0.0757922
 20
4.07624
 30
0.0
 11
4.07624
 21
4.07624
 31
0.0
  0
LINE
  5
29c
100
AcDbEntity
  8
0
100
AcDbLine
 62
     253
 10
4.07624
 20
4.07624
 30
0.0
 11
4.07624
 21
6.07716
 31
0.0
  0
LINE
  5
29d
100
AcDbEntity
  8
0
100
AcDbLine
 62
     253
 10
4.07624
 20
6.07716
 30
0.0
 11
4.07624
 21
4.07624
 31
0.0
  0
LINE
  5
29e
100
AcDbEntity
  8
0
100
AcDbLine
 62
     253
 10
0.0757922
 20
4.07624
 30
0.0
 11
4.07624
 21
4.07624
 31
0.0
  0
LINE
  5
29f
100
AcDbEntity
  8
0
100
AcDbLine
 62
     253
 10
4.07624
 20
4.07624
 30
0.0
 11
4.07624
 21
6.07716
 31
0.0
  0
LINE
  5
2a0
100
AcDbEntity
  8
0
100
AcDbLine
 62
     253
 10
4.07624
 20
6.07716
 30
0.0
 11
4.07624
 21
4.07624
 31
0.0
  0
LINE
  5
2a1
100
AcDbEntity
  8
0
100
AcDbLine
 62
     253
 10
0.0757922
 20
4.07624
 30
0.0
 11
4.07624
 21
4.07624
 31
0.0
  0
LINE
  5
2a2
100
AcDbEntity
  8
0
100
AcDbLine
 62
     253
 10
4.07624
 20
4.07624
 30
0.0
 11
4.07624
 21
6.07716
 31
0.0
  0
LINE
  5
2a3
100
AcDbEntity
  8
0
100
AcDbLine
 62
     253
 10
4.07624
 20
6.07716
 30
0.0
 11
4.07624
 21
4.07624
 31
0.0
  0
LINE
  5
2a4
100
AcDbEntity
  8
0
100
AcDbLine
 62
     253
 10
0.0757922
 20
4.07624
 30
0.0
 11
4.07624
 21
4.07624
 31
0.0
  0
LINE
  5
2a5
100
AcDbEntity
  8
0
100
AcDbLine
 62
     253
 10
4.07624
 20
4.07624
 30
0.0
 11
4.07624
 21
6.07716
 31
0.0
  0
LINE
  5
2a6
100
AcDbEntity
  8
0
100
AcDbLine
 62
     253
 10
4.07624
 20
6.07716
 30
0.0
 11
4.07624
 21
4.07624
 31
0.0
  0
LINE
  5
2a7
100
AcDbEntity
  8
0
100
AcDbLine
 62
     253
 10
0.0757922
 20
4.07624
 30
0.0
 11
4.07624
 21
4.07624
 31
0.0
  0
LINE
  5
2a8
100
AcDbEntity
  8
0
100
AcDbLine
 62
     253
 10
4.07624
 20
4.07624
 30
0.0
 11
4.07624
 21
6.07716
 31
0.0
  0
LINE
  5
2a9
100
AcDbEntity
  8
0
100
AcDbLine
 62
     253
 10
4.07624
 20
6.07716
 30
0.0
 11
4.07624
 21
4.07624
 31
0.0
  0
LINE
  5
2aa
100
AcDbEntity
  8
0
100
AcDbLine
 62
     253
 10
0.0757922
 20
4.07624
 30
0.0
 11
4.07624
 21
4.07624
 31
0.0
  0
LINE
  5
2ab
100
AcDbEntity
  8
0
100
AcDbLine
 62
     253
 10
4.07624
 20
4.07624
 30
0.0
 11
4.07624
 21
6.07716
 31
0.0
  0
LINE
  5
2ac
100
AcDbEntity
  8
0
100
AcDbLine
 62
     253
 10
4.07624
 20
6.07716
 30
0.0
 11
4.07624
 21
4.07624
 31
0.0
  0
LINE
  5
2ad
100
AcDbEntity
  8
0
100
AcDbLine
 62
     253
 10
0.475424
 20
0.4768
 30
0.0
 11
0.475424
 21
0.0757922
 31
0.0
  0
LINE
  5
2ae
100
AcDbEntity
  8
0
100
AcDbLine
 62
     253
 10
0.475424
 20
0.0757922
 30
0.0
 11
3.67661
 21
0.0757922
 31
0.0
  0
LINE
  5
2af
100
AcDbEntity
  8
0
100
AcDbLine
 62
     253
 10
0.475424
 20
0.4768
 30
0.0
 11
3.67661
 21
0.4768
 31
0.0
  0
LINE
  5
2b0
100
AcDbEntity
  8
0
100
AcDbLine
 62
     253
 10
0.475424
 20
9.67659
 30
0.0
 11
3.67661
 21
9.67659
 31
0.0
  0
LINE
  5
2b1
100
AcDbEntity
  8
0
100
AcDbLine
 62
     253
 10
3.67661
 20
0.4768
 30
0.0
 11
3.67661
 21
9.67659
 31
0.0
  0
LINE
  5
2b2
100
AcDbEntity
  8
0
100
AcDbLine
 62
     253
 10
0.475424
 20
9.67659
 30
0.0
 11
0.475424
 21
10.0762
 31
0.0
  0
LINE
  5
2b3
100
AcDbEntity
  8
0
100
AcDbLine
 62
     253
 10
0.475424
 20
10.0762
 30
0.0
 11
3.67661
 21
10.0762
 31
0.0
  0
LINE
  5
2b4
100
AcDbEntity
  8
0
100
AcDbLine
 62
     253
 10
4.07624
 20
0.4768
 30
0.0
 11
4.07624
 21
9.67659
 31
0.0
  0
LINE
  5
2b5
100
AcDbEntity
  8
0
100
AcDbLine
 62
     253
 10
3.67661
 20
0.4768
 30
0.0
 11
3.67661
 21
0.0757922
 31
0.0
  0
LINE
  5
2b6
100
AcDbEntity
  8
0
100
AcDbLine
 62
     253
 10
4.07624
 20
0.4768
 30
0.0
 11
3.67661
 21
0.0757922
 31
0.0
  0
LINE
  5
2b7
100
AcDbEntity
  8
0
100
AcDbLine
 62
     253
 10
3.67661
 20
9.67659
 30
0.0
 11
3.67661
 21
10.0762
 31
0.0
  0
LINE
  5
2b8
100
AcDbEntity
  8
0
100
AcDbLine
 62
     253
 10
3.67661
 20
0.4768
 30
0.0
 11
4.07624
 21
0.4768
 31
0.0
  0
LINE
  5
2b9
100
AcDbEntity
  8
0
100
AcDbLine
 62
     253
 10
3.67661
 20
9.67659
 30
0.0
 11
4.07624
 21
9.67659
 31
0.0
  0
LINE
  5
2ba
100
AcDbEntity
  8
0
100
AcDbLine
 62
     253
 10
4.07624
 20
9.67659
 30
0.0
 11
3.67661
 21
10.0762
 31
0.0
  0
LINE
  5
2bb
100
AcDbEntity
  8
0
100
AcDbLine
 62
     253
 10
10.0762
 20
6.07716
 30
0.0
 11
6.07579
 21
6.07716
 31
0.0
  0
LINE
  5
2bc
100
AcDbEntity
  8
0
100
AcDbLine
 62
     253
 10
10.0762
 20
6.07716
 30
0.0
 11
6.07579
 21
6.07716
 31
0.0
  0
LINE
  5
2bd
100
AcDbEntity
  8
0
100
AcDbLine
 62
     253
 10
10.0762
 20
6.07716
 30
0.0
 11
6.07579
 21
6.07716
 31
0.0
  0
LINE
  5
2be
100
AcDbEntity
  8
0
100
AcDbLine
 62
     253
 10
10.0762
 20
6.07716
 30
0.0
 11
6.07579
 21
6.07716
 31
0.0
  0
LINE
  5
2bf
100
AcDbEntity
  8
0
100
AcDbLine
 62
     253
 10
10.0762
 20
6.07716
 30
0.0
 11
6.07579
 21
6.07716
 31
0.0
  0
LINE
  5
2c0
100
AcDbEntity
  8
0
100
AcDbLine
 62
     253
 10
10.0762
 20
6.07716
 30
0.0
 11
6.07579
 21
6.07716
 31
0.0
  0
LINE
  5
2c1
100
AcDbEntity
  8
0
100
AcDbLine
 62
     253
 10
10.0762
 20
6.07716
 30
0.0
 11
6.07579
 21
6.07716
 31
0.0
  0
LINE
  5
2c2
100
AcDbEntity
  8
0
100
AcDbLine
 62
     253
 10
10.0762
 20
6.07716
 30
0.0
 11
6.07579
 21
6.07716
 31
0.0
  0
LINE
  5
2c3
100
AcDbEntity
  8
0
100
AcDbLine
 62
     253
 10
4.07624
 20
6.07716
 30
0.0
 11
0.0757922
 21
6.07716
 31
0.0
  0
LINE
  5
2c4
100
AcDbEntity
  8
0
100
AcDbLine
 62
     253
 10
4.07624
 20
6.07716
 30
0.0
 11
0.0757922
 21
6.07716
 31
0.0
  0
LINE
  5
2c5
100
AcDbEntity
  8
0
100
AcDbLine
 62
     253
 10
4.07624
 20
6.07716
 30
0.0
 11
0.0757922
 21
6.07716
 31
0.0
  0
LINE
  5
2c6
100
AcDbEntity
  8
0
100
AcDbLine
 62
     253
 10
4.07624
 20
6.07716
 30
0.0
 11
0.0757922
 21
6.07716
 31
0.0
  0
LINE
  5
2c7
100
AcDbEntity
  8
0
100
AcDbLine
 62
     253
 10
4.07624
 20
6.07716
 30
0.0
 11
0.0757922
 21
6.07716
 31
0.0
  0
LINE
  5
2c8
100
AcDbEntity
  8
0
100
AcDbLine
 62
     253
 10
4.07624
 20
6.07716
 30
0.0
 11
0.0757922
 21
6.07716
 31
0.0
  0
LINE
  5
2c9
100
AcDbEntity
  8
0
100
AcDbLine
 62
     253
 10
4.07624
 20
6.07716
 30
0.0
 11
0.0757922
 21
6.07716
 31
0.0
  0
LINE
  5
2ca
100
AcDbEntity
  8
0
100
AcDbLine
 62
     253
 10
4.07624
 20
6.07716
 30
0.0
 11
0.0757922
 21
6.07716
 31
0.0
  0
ENDSEC
  0
SECTION
  2
OBJECTS
  0
DICTIONARY
  5
C
330
0
100
AcDbDictionary
  3
ACAD_GROUP
350
D
  3
ACAD_LAYOUT
350
1A
  3
ACAD_MLINESTYLE
350
17
  3
ACAD_PLOTSETTINGS
350
19
  3
ACAD_PLOTSTYLENAME
350
E
  3
ACDBHEADERROUNDTRIPXREC
350
2F
  0
DICTIONARY
  5
52
330
1F
100
AcDbDictionary
280
     1
  3
ACAD_LAYOUTSELFREF
360
53
  0
DICTIONARY
  5
50
330
1B
100
AcDbDictionary
280
     1
  3
ACAD_LAYOUTSELFREF
360
51
  0
DICTIONARY
  5
D
102
{ACAD_REACTORS
330
C
102
}
330
C
100
AcDbDictionary
  0
DICTIONARY
  5
1A
102
{ACAD_REACTORS
330
C
102
}
330
C
100
AcDbDictionary
  0
DICTIONARY
  5
17
102
{ACAD_REACTORS
330
C
102
}
330
C
100
AcDbDictionary
  3
STANDARD
350
18
  0
DICTIONARY
  5
19
102
{ACAD_REACTORS
330
C
102
}
330
C
100
AcDbDictionary
  0
ACDBDICTIONARYWDFLT
  5
E
102
{ACAD_REACTORS
330
C
102
}
330
C
100
AcDbDictionary
281
     1
  3
Normal
350
F
100
AcDbDictionaryWithDefault
340
F
  0
DICTIONARY
  5
2F
102
{ACAD_REACTORS
330
C
102
}
330
C
100
AcDbDictionary
  3
CEPSNTYPE
350
39
  3
DIMSTYLEDATA
350
3D
  3
FINGERPRINTGUID
350
3A
  3
HYPERLINKBASE
350
32
  3
INSUNITS
350
38
  3
LAYOUTDICT
350
34
  3
LWETCUNION
350
37
  3
PLOTSETDICT
350
35
  3
PLOTSTYLNAMDICT
350
36
  3
PSVPSCALE
350
3C
  3
PUCSBASE
350
40
  3
PUCSORGBACK
350
46
  3
PUCSORGBOTTOM
350
42
  3
PUCSORGFRONT
350
45
  3
PUCSORGLEFT
350
43
  3
PUCSORGRIGHT
350
44
  3
PUCSORGTOP
350
41
  3
PUCSORTHOREF
350
3E
  3
PUCSORTHOVIEW
350
3F
  3
STYLESHEET
350
33
  3
TSTACKALIGN
350
30
  3
TSTACKSIZE
350
31
  3
UCSBASE
350
49
  3
UCSORGBACK
350
4F
  3
UCSORGBOTTOM
350
4B
  3
UCSORGFRONT
350
4E
  3
UCSORGLEFT
350
4C
  3
UCSORGRIGHT
350
4D
  3
UCSORGTOP
350
4A
  3
UCSORTHOREF
350
47
  3
UCSORTHOVIEW
350
48
  3
VERSIONGUID
350
3B
  0
XRECORD
  5
53
102
{ACAD_REACTORS
330
52
102
}
330
52
100
AcDbXrecord
340
1F
  0
XRECORD
  5
51
102
{ACAD_REACTORS
330
50
102
}
330
50
100
AcDbXrecord
340
1B
  0
MLINESTYLE
  5
18
102
{ACAD_REACTORS
330
17
102
}
330
17
100
AcDbMlineStyle
  2
STANDARD
 70
     0
  3

 62
   256
 51
90.0
 52
90.0
 71
     2
 49
0.5
 62
   256
  6
BYLAYER
 49
-0.5
 62
   256
  6
BYLAYER
  0
ACDBPLACEHOLDER
  5
F
102
{ACAD_REACTORS
330
E
102
}
330
E
100
AcDbPlaceHolder
280
     0
  0
XRECORD
  5
39
102
{ACAD_REACTORS
330
2F
102
}
330
2F
100
AcDbXrecord
 90
        0
  0
XRECORD
  5
3D
102
{ACAD_REACTORS
330
2F
102
}
330
2F
100
AcDbXrecord
1000
DSTYLE
1002
{
1070
   278
 70
    44
1002
}
  0
XRECORD
  5
3A
102
{ACAD_REACTORS
330
2F
102
}
330
2F
100
AcDbXrecord
  1
{705446A6-11D0-4548-8F8C-A97DCA50327D}
  0
XRECORD
  5
32
102
{ACAD_REACTORS
330
2F
102
}
330
2F
100
AcDbXrecord
  1

  0
XRECORD
  5
38
102
{ACAD_REACTORS
330
2F
102
}
330
2F
100
AcDbXrecord
 90
        4
  0
XRECORD
  5
34
102
{ACAD_REACTORS
330
2F
102
}
330
2F
100
AcDbXrecord
340
1A
  0
XRECORD
  5
37
102
{ACAD_REACTORS
330
2F
102
}
330
2F
100
AcDbXrecord
 90
    10781
  0
XRECORD
  5
35
102
{ACAD_REACTORS
330
2F
102
}
330
2F
100
AcDbXrecord
340
19
  0
XRECORD
  5
36
102
{ACAD_REACTORS
330
2F
102
}
330
2F
100
AcDbXrecord
340
E
  0
XRECORD
  5
3C
102
{ACAD_REACTORS
330
2F
102
}
330
2F
100
AcDbXrecord
 40
0.0
  0
XRECORD
  5
40
102
{ACAD_REACTORS
330
2F
102
}
330
2F
100
AcDbXrecord
340
0
  0
XRECORD
  5
46
102
{ACAD_REACTORS
330
2F
102
}
330
2F
100
AcDbXrecord
 10
0.0
 20
0.0
 30
0.0
  0
XRECORD
  5
42
102
{ACAD_REACTORS
330
2F
102
}
330
2F
100
AcDbXrecord
 10
0.0
 20
0.0
 30
0.0
  0
XRECORD
  5
45
102
{ACAD_REACTORS
330
2F
102
}
330
2F
100
AcDbXrecord
 10
0.0
 20
0.0
 30
0.0
  0
XRECORD
  5
43
102
{ACAD_REACTORS
330
2F
102
}
330
2F
100
AcDbXrecord
 10
0.0
 20
0.0
 30
0.0
  0
XRECORD
  5
44
102
{ACAD_REACTORS
330
2F
102
}
330
2F
100
AcDbXrecord
 10
0.0
 20
0.0
 30
0.0
  0
XRECORD
  5
41
102
{ACAD_REACTORS
330
2F
102
}
330
2F
100
AcDbXrecord
 10
0.0
 20
0.0
 30
0.0
  0
XRECORD
  5
3E
102
{ACAD_REACTORS
330
2F
102
}
330
2F
100
AcDbXrecord
340
0
  0
XRECORD
  5
3F
102
{ACAD_REACTORS
330
2F
102
}
330
2F
100
AcDbXrecord
 70
     0
  0
XRECORD
  5
33
102
{ACAD_REACTORS
330
2F
102
}
330
2F
100
AcDbXrecord
  1

  0
XRECORD
  5
30
102
{ACAD_REACTORS
330
2F
102
}
330
2F
100
AcDbXrecord
 90
        1
  0
XRECORD
  5
31
102
{ACAD_REACTORS
330
2F
102
}
330
2F
100
AcDbXrecord
 90
       70
  0
XRECORD
  5
49
102
{ACAD_REACTORS
330
2F
102
}
330
2F
100
AcDbXrecord
340
0
  0
XRECORD
  5
4F
102
{ACAD_REACTORS
330
2F
102
}
330
2F
100
AcDbXrecord
 10
0.0
 20
0.0
 30
0.0
  0
XRECORD
  5
4B
102
{ACAD_REACTORS
330
2F
102
}
330
2F
100
AcDbXrecord
 10
0.0
 20
0.0
 30
0.0
  0
XRECORD
  5
4E
102
{ACAD_REACTORS
330
2F
102
}
330
2F
100
AcDbXrecord
 10
0.0
 20
0.0
 30
0.0
  0
XRECORD
  5
4C
102
{ACAD_REACTORS
330
2F
102
}
330
2F
100
AcDbXrecord
 10
0.0
 20
0.0
 30
0.0
  0
XRECORD
  5
4D
102
{ACAD_REACTORS
330
2F
102
}
330
2F
100
AcDbXrecord
 10
0.0
 20
0.0
 30
0.0
  0
XRECORD
  5
4A
102
{ACAD_REACTORS
330
2F
102
}
330
2F
100
AcDbXrecord
 10
0.0
 20
0.0
 30
0.0
  0
XRECORD
  5
47
102
{ACAD_REACTORS
330
2F
102
}
330
2F
100
AcDbXrecord
340
0
  0
XRECORD
  5
48
102
{ACAD_REACTORS
330
2F
102
}
330
2F
100
AcDbXrecord
 70
     0
  0
XRECORD
  5
3B
102
{ACAD_REACTORS
330
2F
102
}
330
2F
100
AcDbXrecord
  1
{33328E3A-B6B8-4979-86B7-D70DEC2867C2}
  0
ENDSEC
  0
EOF
