  0
SECTION
  2
HEADER
  9
$ACADVER
  1
AC1014
  9
$EXTMIN
 10
70.16401489310567
 20
112.369642808922
 30
0.0
  9
$EXTMAX
 10
277.0834797641999
 20
227.1366601424358
 30
0.0
  9
$HANDSEED
  5
56
  9
$MEASUREMENT
 70
1
  0
ENDSEC
  0
SECTION
  2
TABLES
  0
TABLE
  2
VPORT
  5
8
330
0
100
AcDbSymbolTable
 70
     4
  0
VPORT
  5
2E
330
8
100
AcDbSymbolTableRecord
100
AcDbViewportTableRecord
  2
*ACTIVE
 70
     0
 10
0.0
 20
0.0
 11
1.0
 21
1.0
 12
209.9999999999999
 22
148.4999999999999
 13
0.0
 23
0.0
 14
10.0
 24
10.0
 15
10.0
 25
10.0
 16
0.0
 26
0.0
 36
1.0
 17
0.0
 27
0.0
 37
0.0
 40
340.9950045922664
 41
1.239944521497919
 42
50.0
 43
0.0
 44
0.0
 50
0.0
 51
0.0
 71
     0
 72
   100
 73
     1
 74
     3
 75
     0
 76
     0
 77
     0
 78
     0
  0
ENDTAB
  0
TABLE
  2
LTYPE
  5
5
330
0
100
AcDbSymbolTable
 70
     1
  0
LTYPE
  5
14
330
5
100
AcDbSymbolTableRecord
100
AcDbLinetypeTableRecord
  2
BYBLOCK
 70
     0
  3

 72
    65
 73
     0
 40
0.0
  0
LTYPE
  5
15
330
5
100
AcDbSymbolTableRecord
100
AcDbLinetypeTableRecord
  2
BYLAYER
 70
     0
  3

 72
    65
 73
     0
 40
0.0
  0
LTYPE
  5
16
330
5
100
AcDbSymbolTableRecord
100
AcDbLinetypeTableRecord
  2
CONTINUOUS
 70
     0
  3
Solid line
 72
    65
 73
     0
 40
0.0
  0
ENDTAB
  0
TABLE
  2
LAYER
  5
2
330
0
100
AcDbSymbolTable
 70
1
  0
LAYER
  5
10
330
2
100
AcDbSymbolTableRecord
100
AcDbLayerTableRecord
  2
0
 70
     0
 62
     7
  6
CONTINUOUS
  0
ENDTAB
  0
TABLE
  2
STYLE
  5
3
330
0
100
AcDbSymbolTable
 70
     1
  0
STYLE
  5
11
330
3
100
AcDbSymbolTableRecord
100
AcDbTextStyleTableRecord
  2
STANDARD
 70
     0
 40
0.0
 41
1.0
 50
0.0
 71
     0
 42
2.5
  3
txt
  4

  0
ENDTAB
  0
TABLE
  2
VIEW
  5
6
330
0
100
AcDbSymbolTable
 70
     0
  0
ENDTAB
  0
TABLE
  2
UCS
  5
7
330
0
100
AcDbSymbolTable
 70
     0
  0
ENDTAB
  0
TABLE
  2
APPID
  5
9
330
0
100
AcDbSymbolTable
 70
     2
  0
APPID
  5
12
330
9
100
AcDbSymbolTableRecord
100
AcDbRegAppTableRecord
  2
ACAD
 70
     0
  0
APPID
  5
2B
330
9
100
AcDbSymbolTableRecord
100
AcDbRegAppTableRecord
  2
URBANX
 70
     0
  0
ENDTAB
  0
TABLE
  2
DIMSTYLE
  5
A
330
0
100
AcDbSymbolTable
 70
     1
  0
DIMSTYLE
105
27
330
A
100
AcDbSymbolTableRecord
100
AcDbDimStyleTableRecord
  2
ISO-25
 70
     0
  3

  4

  5

  6

  7

 40
1.0
 41
2.5
 42
0.625
 43
3.75
 44
1.25
 45
0.0
 46
0.0
 47
0.0
 48
0.0
140
2.5
141
2.5
142
0.0
143
0.03937007874016
144
1.0
145
0.0
146
1.0
147
0.625
 71
     0
 72
     0
 73
     0
 74
     0
 75
     0
 76
     0
 77
     1
 78
     8
170
     0
171
     3
172
     1
173
     0
174
     0
175
     0
176
     0
177
     0
178
     0
270
     2
271
     2
272
     2
273
     2
274
     3
340
11
275
     0
280
     0
281
     0
282
     0
283
     0
284
     8
285
     0
286
     0
287
     3
288
     0
  0
ENDTAB
  0
TABLE
  2
BLOCK_RECORD
  5
1
330
0
100
AcDbSymbolTable
 70
     1
  0
BLOCK_RECORD
  5
1F
102
{ACAD_XDICTIONARY
360
52
102
}
330
1
100
AcDbSymbolTableRecord
100
AcDbBlockTableRecord
  2
*MODEL_SPACE
  0
BLOCK_RECORD
  5
1B
102
{ACAD_XDICTIONARY
360
50
102
}
330
1
100
AcDbSymbolTableRecord
100
AcDbBlockTableRecord
  2
*PAPER_SPACE
  0
ENDTAB
  0
ENDSEC
  0
SECTION
  2
BLOCKS
  0
BLOCK
  5
20
330
1F
100
AcDbEntity
  8
0
100
AcDbBlockBegin
  2
*MODEL_SPACE
 70
     0
 10
0.0
 20
0.0
 30
0.0
  3
*MODEL_SPACE
  1

  0
ENDBLK
  5
21
330
1F
100
AcDbEntity
  8
0
100
AcDbBlockEnd
  0
BLOCK
  5
1C
330
1B
100
AcDbEntity
 67
     1
  8
0
100
AcDbBlockBegin
  2
*PAPER_SPACE
  1

  0
ENDBLK
  5
1D
330
1B
100
AcDbEntity
 67
     1
  8
0
100
AcDbBlockEnd
  0
ENDSEC
  0
SECTION
  2
ENTITIES
  0
LINE
  5
ff
100
AcDbEntity
  8
0
100
AcDbLine
 62
     253
 10
0.0757922
 20
68.8262
 30
0.0
 11
0.0757922
 21
108.826
 31
0.0
  0
LINE
  5
100
100
AcDbEntity
  8
0
100
AcDbLine
 62
     253
 10
0.0757922
 20
68.8262
 30
0.0
 11
0.0757922
 21
66.3265
 31
0.0
  0
LINE
  5
101
100
AcDbEntity
  8
0
100
AcDbLine
 62
     253
 10
0.0757922
 20
108.826
 30
0.0
 11
0.0757922
 21
111.326
 31
0.0
  0
LINE
  5
102
100
AcDbEntity
  8
0
100
AcDbLine
 62
     253
 10
0.0757922
 20
100.076
 30
0.0
 11
0.0757922
 21
102.576
 31
0.0
  0
LINE
  5
103
100
AcDbEntity
  8
0
100
AcDbLine
 62
     253
 10
0.0757922
 20
102.576
 30
0.0
 11
0.0757922
 21
97.5762
 31
0.0
  0
LINE
  5
104
100
AcDbEntity
  8
0
100
AcDbLine
 62
     253
 10
0.0757922
 20
97.5762
 30
0.0
 11
0.0757922
 21
100.076
 31
0.0
  0
LINE
  5
105
100
AcDbEntity
  8
0
100
AcDbLine
 62
     253
 10
0.0757922
 20
77.5765
 30
0.0
 11
0.0757922
 21
80.0763
 31
0.0
  0
LINE
  5
106
100
AcDbEntity
  8
0
100
AcDbLine
 62
     253
 10
0.0757922
 20
80.0763
 30
0.0
 11
0.0757922
 21
75.0757
 31
0.0
  0
LINE
  5
107
100
AcDbEntity
  8
0
100
AcDbLine
 62
     253
 10
0.0757922
 20
75.0757
 30
0.0
 11
0.0757922
 21
77.5765
 31
0.0
  0
LINE
  5
108
100
AcDbEntity
  8
0
100
AcDbLine
 62
     253
 10
5.07668
 20
68.8262
 30
0.0
 11
5.07668
 21
66.3265
 31
0.0
  0
LINE
  5
109
100
AcDbEntity
  8
0
100
AcDbLine
 62
     253
 10
5.07668
 20
108.826
 30
0.0
 11
5.07668
 21
111.326
 31
0.0
  0
LINE
  5
10a
100
AcDbEntity
  8
0
100
AcDbLine
 62
     253
 10
5.07668
 20
68.8262
 30
0.0
 11
5.07668
 21
108.826
 31
0.0
  0
LINE
  5
10b
100
AcDbEntity
  8
0
100
AcDbLine
 62
     253
 10
5.07668
 20
100.076
 30
0.0
 11
5.07668
 21
102.576
 31
0.0
  0
LINE
  5
10c
100
AcDbEntity
  8
0
100
AcDbLine
 62
     253
 10
5.07668
 20
102.576
 30
0.0
 11
5.07668
 21
97.5762
 31
0.0
  0
LINE
  5
10d
100
AcDbEntity
  8
0
100
AcDbLine
 62
     253
 10
5.07668
 20
97.5762
 30
0.0
 11
5.07668
 21
100.076
 31
0.0
  0
LINE
  5
10e
100
AcDbEntity
  8
0
100
AcDbLine
 62
     253
 10
5.07668
 20
77.5765
 30
0.0
 11
5.07668
 21
80.0763
 31
0.0
  0
LINE
  5
10f
100
AcDbEntity
  8
0
100
AcDbLine
 62
     253
 10
5.07668
 20
80.0763
 30
0.0
 11
5.07668
 21
75.0757
 31
0.0
  0
LINE
  5
110
100
AcDbEntity
  8
0
100
AcDbLine
 62
     253
 10
5.07668
 20
75.0757
 30
0.0
 11
5.07668
 21
77.5765
 31
0.0
  0
LINE
  5
111
100
AcDbEntity
  8
0
100
AcDbLine
 62
     253
 10
5.07668
 20
68.8262
 30
0.0
 11
0.0757922
 21
68.8262
 31
0.0
  0
LINE
  5
112
100
AcDbEntity
  8
0
100
AcDbLine
 62
     253
 10
5.07668
 20
108.826
 30
0.0
 11
0.0757922
 21
108.826
 31
0.0
  0
SPLINE
  5
113
100
AcDbEntity
  8
0
100
AcDbSpline
210
0.0
220
0.0
230
1.0
 62
     253
 70
     0
 71
     3
 72
     8
 73
4
 40
0.0
 40
0.0
 40
0.0
 40
0.0
 40
1.0
 40
1.0
 40
1.0
 40
1.0
 10
3.82545
 20
88.8256
 30
0.0
 10
3.8282
 20
88.4481
 30
0.0
 10
3.64628
 20
88.0745
 30
0.0
 10
3.34863
 20
87.8431
 30
0.0
  0
SPLINE
  5
114
100
AcDbEntity
  8
0
100
AcDbSpline
210
0.0
220
0.0
230
1.0
 62
     253
 70
     0
 71
     3
 72
     8
 73
4
 40
0.0
 40
0.0
 40
0.0
 40
0.0
 40
1.0
 40
1.0
 40
1.0
 40
1.0
 10
3.34863
 20
87.8431
 30
0.0
 10
3.14744
 20
87.6847
 30
0.0
 10
2.89526
 20
87.5908
 30
0.0
 10
2.63894
 20
87.5785
 30
0.0
  0
SPLINE
  5
115
100
AcDbEntity
  8
0
100
AcDbSpline
210
0.0
220
0.0
230
1.0
 62
     253
 70
     0
 71
     3
 72
     8
 73
4
 40
0.0
 40
0.0
 40
0.0
 40
0.0
 40
1.0
 40
1.0
 40
1.0
 40
1.0
 10
2.63894
 20
87.5785
 30
0.0
 10
2.33302
 20
87.5619
 30
0.0
 10
2.02158
 20
87.6639
 30
0.0
 10
1.78594
 20
87.8582
 30
0.0
  0
SPLINE
  5
116
100
AcDbEntity
  8
0
100
AcDbSpline
210
0.0
220
0.0
230
1.0
 62
     253
 70
     0
 71
     3
 72
     8
 73
4
 40
0.0
 40
0.0
 40
0.0
 40
0.0
 40
1.0
 40
1.0
 40
1.0
 40
1.0
 10
1.78594
 20
87.8582
 30
0.0
 10
1.48966
 20
88.0967
 30
0.0
 10
1.31465
 20
88.477
 30
0.0
 10
1.32705
 20
88.8573
 30
0.0
  0
SPLINE
  5
117
100
AcDbEntity
  8
0
100
AcDbSpline
210
0.0
220
0.0
230
1.0
 62
     253
 70
     0
 71
     3
 72
     8
 73
4
 40
0.0
 40
0.0
 40
0.0
 40
0.0
 40
1.0
 40
1.0
 40
1.0
 40
1.0
 10
1.32705
 20
88.8573
 30
0.0
 10
1.33256
 20
89.1618
 30
0.0
 10
1.45659
 20
89.4609
 30
0.0
 10
1.66467
 20
89.6814
 30
0.0
  0
SPLINE
  5
118
100
AcDbEntity
  8
0
100
AcDbSpline
210
0.0
220
0.0
230
1.0
 62
     253
 70
     0
 71
     3
 72
     8
 73
4
 40
0.0
 40
0.0
 40
0.0
 40
0.0
 40
1.0
 40
1.0
 40
1.0
 40
1.0
 10
1.66467
 20
89.6814
 30
0.0
 10
1.92236
 20
89.9583
 30
0.0
 10
2.30959
 20
90.1072
 30
0.0
 10
2.6858
 20
90.0712
 30
0.0
  0
SPLINE
  5
119
100
AcDbEntity
  8
0
100
AcDbSpline
210
0.0
220
0.0
230
1.0
 62
     253
 70
     0
 71
     3
 72
     8
 73
4
 40
0.0
 40
0.0
 40
0.0
 40
0.0
 40
1.0
 40
1.0
 40
1.0
 40
1.0
 10
2.6858
 20
90.0712
 30
0.0
 10
2.98897
 20
90.0451
 30
0.0
 10
3.27973
 20
89.9047
 30
0.0
 10
3.48782
 20
89.6814
 30
0.0
  0
SPLINE
  5
11a
100
AcDbEntity
  8
0
100
AcDbSpline
210
0.0
220
0.0
230
1.0
 62
     253
 70
     0
 71
     3
 72
     8
 73
4
 40
0.0
 40
0.0
 40
0.0
 40
0.0
 40
1.0
 40
1.0
 40
1.0
 40
1.0
 10
3.48782
 20
89.6814
 30
0.0
 10
3.70279
 20
89.4539
 30
0.0
 10
3.82683
 20
89.1413
 30
0.0
 10
3.82545
 20
88.8256
 30
0.0
  0
LINE
  5
11b
100
AcDbEntity
  8
0
100
AcDbLine
 62
     253
 10
5.07668
 20
66.3265
 30
0.0
 11
0.0757922
 21
66.3265
 31
0.0
  0
LINE
  5
11c
100
AcDbEntity
  8
0
100
AcDbLine
 62
     253
 10
5.07668
 20
111.326
 30
0.0
 11
0.0757922
 21
111.326
 31
0.0
  0
SPLINE
  5
11d
100
AcDbEntity
  8
0
100
AcDbSpline
210
0.0
220
0.0
230
1.0
 62
     253
 70
     0
 71
     3
 72
     8
 73
4
 40
0.0
 40
0.0
 40
0.0
 40
0.0
 40
1.0
 40
1.0
 40
1.0
 40
1.0
 10
2.57555
 20
87.5757
 30
0.0
 10
3.26595
 20
87.5757
 30
0.0
 10
3.82545
 20
88.1352
 30
0.0
 10
3.82545
 20
88.8256
 30
0.0
  0
SPLINE
  5
11e
100
AcDbEntity
  8
0
100
AcDbSpline
210
0.0
220
0.0
230
1.0
 62
     253
 70
     0
 71
     3
 72
     8
 73
4
 40
0.0
 40
0.0
 40
0.0
 40
0.0
 40
1.0
 40
1.0
 40
1.0
 40
1.0
 10
3.82545
 20
88.8256
 30
0.0
 10
3.82545
 20
89.516
 30
0.0
 10
3.26595
 20
90.0769
 30
0.0
 10
2.57555
 20
90.0769
 30
0.0
  0
SPLINE
  5
11f
100
AcDbEntity
  8
0
100
AcDbSpline
210
0.0
220
0.0
230
1.0
 62
     253
 70
     0
 71
     3
 72
     8
 73
4
 40
0.0
 40
0.0
 40
0.0
 40
0.0
 40
1.0
 40
1.0
 40
1.0
 40
1.0
 10
2.57555
 20
90.0769
 30
0.0
 10
1.88516
 20
90.0769
 30
0.0
 10
1.32567
 20
89.516
 30
0.0
 10
1.32567
 20
88.8256
 30
0.0
  0
SPLINE
  5
120
100
AcDbEntity
  8
0
100
AcDbSpline
210
0.0
220
0.0
230
1.0
 62
     253
 70
     0
 71
     3
 72
     8
 73
4
 40
0.0
 40
0.0
 40
0.0
 40
0.0
 40
1.0
 40
1.0
 40
1.0
 40
1.0
 10
1.32567
 20
88.8256
 30
0.0
 10
1.32567
 20
88.1352
 30
0.0
 10
1.88516
 20
87.5757
 30
0.0
 10
2.57555
 20
87.5757
 30
0.0
  0
LINE
  5
121
100
AcDbEntity
  8
0
100
AcDbLine
 62
     253
 10
0.0757922
 20
181.326
 30
0.0
 11
0.0757922
 21
221.327
 31
0.0
  0
LINE
  5
122
100
AcDbEntity
  8
0
100
AcDbLine
 62
     253
 10
0.0757922
 20
181.326
 30
0.0
 11
0.0757922
 21
178.827
 31
0.0
  0
LINE
  5
123
100
AcDbEntity
  8
0
100
AcDbLine
 62
     253
 10
0.0757922
 20
221.327
 30
0.0
 11
0.0757922
 21
223.827
 31
0.0
  0
LINE
  5
124
100
AcDbEntity
  8
0
100
AcDbLine
 62
     253
 10
0.0757922
 20
190.076
 30
0.0
 11
0.0757922
 21
192.577
 31
0.0
  0
LINE
  5
125
100
AcDbEntity
  8
0
100
AcDbLine
 62
     253
 10
0.0757922
 20
192.577
 30
0.0
 11
0.0757922
 21
187.576
 31
0.0
  0
LINE
  5
126
100
AcDbEntity
  8
0
100
AcDbLine
 62
     253
 10
0.0757922
 20
187.576
 30
0.0
 11
0.0757922
 21
190.076
 31
0.0
  0
LINE
  5
127
100
AcDbEntity
  8
0
100
AcDbLine
 62
     253
 10
0.0757922
 20
212.576
 30
0.0
 11
0.0757922
 21
215.076
 31
0.0
  0
LINE
  5
128
100
AcDbEntity
  8
0
100
AcDbLine
 62
     253
 10
0.0757922
 20
215.076
 30
0.0
 11
0.0757922
 21
210.076
 31
0.0
  0
LINE
  5
129
100
AcDbEntity
  8
0
100
AcDbLine
 62
     253
 10
0.0757922
 20
210.076
 30
0.0
 11
0.0757922
 21
212.576
 31
0.0
  0
LINE
  5
12a
100
AcDbEntity
  8
0
100
AcDbLine
 62
     253
 10
5.07668
 20
181.326
 30
0.0
 11
5.07668
 21
178.827
 31
0.0
  0
LINE
  5
12b
100
AcDbEntity
  8
0
100
AcDbLine
 62
     253
 10
5.07668
 20
221.327
 30
0.0
 11
5.07668
 21
223.827
 31
0.0
  0
LINE
  5
12c
100
AcDbEntity
  8
0
100
AcDbLine
 62
     253
 10
5.07668
 20
181.326
 30
0.0
 11
5.07668
 21
221.327
 31
0.0
  0
LINE
  5
12d
100
AcDbEntity
  8
0
100
AcDbLine
 62
     253
 10
5.07668
 20
190.076
 30
0.0
 11
5.07668
 21
192.577
 31
0.0
  0
LINE
  5
12e
100
AcDbEntity
  8
0
100
AcDbLine
 62
     253
 10
5.07668
 20
192.577
 30
0.0
 11
5.07668
 21
187.576
 31
0.0
  0
LINE
  5
12f
100
AcDbEntity
  8
0
100
AcDbLine
 62
     253
 10
5.07668
 20
187.576
 30
0.0
 11
5.07668
 21
190.076
 31
0.0
  0
LINE
  5
130
100
AcDbEntity
  8
0
100
AcDbLine
 62
     253
 10
5.07668
 20
212.576
 30
0.0
 11
5.07668
 21
215.076
 31
0.0
  0
LINE
  5
131
100
AcDbEntity
  8
0
100
AcDbLine
 62
     253
 10
5.07668
 20
215.076
 30
0.0
 11
5.07668
 21
210.076
 31
0.0
  0
LINE
  5
132
100
AcDbEntity
  8
0
100
AcDbLine
 62
     253
 10
5.07668
 20
210.076
 30
0.0
 11
5.07668
 21
212.576
 31
0.0
  0
LINE
  5
133
100
AcDbEntity
  8
0
100
AcDbLine
 62
     253
 10
5.07668
 20
181.326
 30
0.0
 11
0.0757922
 21
181.326
 31
0.0
  0
LINE
  5
134
100
AcDbEntity
  8
0
100
AcDbLine
 62
     253
 10
5.07668
 20
221.327
 30
0.0
 11
0.0757922
 21
221.327
 31
0.0
  0
SPLINE
  5
135
100
AcDbEntity
  8
0
100
AcDbSpline
210
0.0
220
0.0
230
1.0
 62
     253
 70
     0
 71
     3
 72
     8
 73
4
 40
0.0
 40
0.0
 40
0.0
 40
0.0
 40
1.0
 40
1.0
 40
1.0
 40
1.0
 10
3.82545
 20
201.326
 30
0.0
 10
3.8282
 20
200.948
 30
0.0
 10
3.64628
 20
200.575
 30
0.0
 10
3.34863
 20
200.343
 30
0.0
  0
SPLINE
  5
136
100
AcDbEntity
  8
0
100
AcDbSpline
210
0.0
220
0.0
230
1.0
 62
     253
 70
     0
 71
     3
 72
     8
 73
4
 40
0.0
 40
0.0
 40
0.0
 40
0.0
 40
1.0
 40
1.0
 40
1.0
 40
1.0
 10
3.34863
 20
200.343
 30
0.0
 10
3.14744
 20
200.185
 30
0.0
 10
2.89526
 20
200.09
 30
0.0
 10
2.63894
 20
200.077
 30
0.0
  0
SPLINE
  5
137
100
AcDbEntity
  8
0
100
AcDbSpline
210
0.0
220
0.0
230
1.0
 62
     253
 70
     0
 71
     3
 72
     8
 73
4
 40
0.0
 40
0.0
 40
0.0
 40
0.0
 40
1.0
 40
1.0
 40
1.0
 40
1.0
 10
2.63894
 20
200.077
 30
0.0
 10
2.33302
 20
200.061
 30
0.0
 10
2.02158
 20
200.163
 30
0.0
 10
1.78594
 20
200.358
 30
0.0
  0
SPLINE
  5
138
100
AcDbEntity
  8
0
100
AcDbSpline
210
0.0
220
0.0
230
1.0
 62
     253
 70
     0
 71
     3
 72
     8
 73
4
 40
0.0
 40
0.0
 40
0.0
 40
0.0
 40
1.0
 40
1.0
 40
1.0
 40
1.0
 10
1.78594
 20
200.358
 30
0.0
 10
1.48966
 20
200.597
 30
0.0
 10
1.31465
 20
200.977
 30
0.0
 10
1.32705
 20
201.357
 30
0.0
  0
SPLINE
  5
139
100
AcDbEntity
  8
0
100
AcDbSpline
210
0.0
220
0.0
230
1.0
 62
     253
 70
     0
 71
     3
 72
     8
 73
4
 40
0.0
 40
0.0
 40
0.0
 40
0.0
 40
1.0
 40
1.0
 40
1.0
 40
1.0
 10
1.32705
 20
201.357
 30
0.0
 10
1.33256
 20
201.662
 30
0.0
 10
1.45659
 20
201.961
 30
0.0
 10
1.66467
 20
202.182
 30
0.0
  0
SPLINE
  5
13a
100
AcDbEntity
  8
0
100
AcDbSpline
210
0.0
220
0.0
230
1.0
 62
     253
 70
     0
 71
     3
 72
     8
 73
4
 40
0.0
 40
0.0
 40
0.0
 40
0.0
 40
1.0
 40
1.0
 40
1.0
 40
1.0
 10
1.66467
 20
202.182
 30
0.0
 10
1.92236
 20
202.458
 30
0.0
 10
2.30959
 20
202.607
 30
0.0
 10
2.6858
 20
202.572
 30
0.0
  0
SPLINE
  5
13b
100
AcDbEntity
  8
0
100
AcDbSpline
210
0.0
220
0.0
230
1.0
 62
     253
 70
     0
 71
     3
 72
     8
 73
4
 40
0.0
 40
0.0
 40
0.0
 40
0.0
 40
1.0
 40
1.0
 40
1.0
 40
1.0
 10
2.6858
 20
202.572
 30
0.0
 10
2.98897
 20
202.546
 30
0.0
 10
3.27973
 20
202.405
 30
0.0
 10
3.48782
 20
202.182
 30
0.0
  0
SPLINE
  5
13c
100
AcDbEntity
  8
0
100
AcDbSpline
210
0.0
220
0.0
230
1.0
 62
     253
 70
     0
 71
     3
 72
     8
 73
4
 40
0.0
 40
0.0
 40
0.0
 40
0.0
 40
1.0
 40
1.0
 40
1.0
 40
1.0
 10
3.48782
 20
202.182
 30
0.0
 10
3.70279
 20
201.953
 30
0.0
 10
3.82683
 20
201.64
 30
0.0
 10
3.82545
 20
201.326
 30
0.0
  0
LINE
  5
13d
100
AcDbEntity
  8
0
100
AcDbLine
 62
     253
 10
5.07668
 20
178.827
 30
0.0
 11
0.0757922
 21
178.827
 31
0.0
  0
LINE
  5
13e
100
AcDbEntity
  8
0
100
AcDbLine
 62
     253
 10
5.07668
 20
223.827
 30
0.0
 11
0.0757922
 21
223.827
 31
0.0
  0
SPLINE
  5
13f
100
AcDbEntity
  8
0
100
AcDbSpline
210
0.0
220
0.0
230
1.0
 62
     253
 70
     0
 71
     3
 72
     8
 73
4
 40
0.0
 40
0.0
 40
0.0
 40
0.0
 40
1.0
 40
1.0
 40
1.0
 40
1.0
 10
2.57555
 20
200.076
 30
0.0
 10
3.26595
 20
200.076
 30
0.0
 10
3.82545
 20
200.635
 30
0.0
 10
3.82545
 20
201.326
 30
0.0
  0
SPLINE
  5
140
100
AcDbEntity
  8
0
100
AcDbSpline
210
0.0
220
0.0
230
1.0
 62
     253
 70
     0
 71
     3
 72
     8
 73
4
 40
0.0
 40
0.0
 40
0.0
 40
0.0
 40
1.0
 40
1.0
 40
1.0
 40
1.0
 10
3.82545
 20
201.326
 30
0.0
 10
3.82545
 20
202.016
 30
0.0
 10
3.26595
 20
202.576
 30
0.0
 10
2.57555
 20
202.576
 30
0.0
  0
SPLINE
  5
141
100
AcDbEntity
  8
0
100
AcDbSpline
210
0.0
220
0.0
230
1.0
 62
     253
 70
     0
 71
     3
 72
     8
 73
4
 40
0.0
 40
0.0
 40
0.0
 40
0.0
 40
1.0
 40
1.0
 40
1.0
 40
1.0
 10
2.57555
 20
202.576
 30
0.0
 10
1.88516
 20
202.576
 30
0.0
 10
1.32567
 20
202.016
 30
0.0
 10
1.32567
 20
201.326
 30
0.0
  0
SPLINE
  5
142
100
AcDbEntity
  8
0
100
AcDbSpline
210
0.0
220
0.0
230
1.0
 62
     253
 70
     0
 71
     3
 72
     8
 73
4
 40
0.0
 40
0.0
 40
0.0
 40
0.0
 40
1.0
 40
1.0
 40
1.0
 40
1.0
 10
1.32567
 20
201.326
 30
0.0
 10
1.32567
 20
200.635
 30
0.0
 10
1.88516
 20
200.076
 30
0.0
 10
2.57555
 20
200.076
 30
0.0
  0
LINE
  5
143
100
AcDbEntity
  8
0
100
AcDbLine
 62
     253
 10
5.07668
 20
97.5762
 30
0.0
 11
0.0757922
 21
97.5762
 31
0.0
  0
LINE
  5
144
100
AcDbEntity
  8
0
100
AcDbLine
 62
     253
 10
5.07668
 20
102.576
 30
0.0
 11
0.0757922
 21
102.576
 31
0.0
  0
LINE
  5
145
100
AcDbEntity
  8
0
100
AcDbLine
 62
     253
 10
5.07668
 20
75.0757
 30
0.0
 11
0.0757922
 21
75.0757
 31
0.0
  0
LINE
  5
146
100
AcDbEntity
  8
0
100
AcDbLine
 62
     253
 10
5.07668
 20
80.0763
 30
0.0
 11
0.0757922
 21
80.0763
 31
0.0
  0
LINE
  5
147
100
AcDbEntity
  8
0
100
AcDbLine
 62
     253
 10
5.07668
 20
187.576
 30
0.0
 11
0.0757922
 21
187.576
 31
0.0
  0
LINE
  5
148
100
AcDbEntity
  8
0
100
AcDbLine
 62
     253
 10
5.07668
 20
192.577
 30
0.0
 11
0.0757922
 21
192.577
 31
0.0
  0
LINE
  5
149
100
AcDbEntity
  8
0
100
AcDbLine
 62
     253
 10
5.07668
 20
210.076
 30
0.0
 11
0.0757922
 21
210.076
 31
0.0
  0
LINE
  5
14a
100
AcDbEntity
  8
0
100
AcDbLine
 62
     253
 10
5.07668
 20
215.076
 30
0.0
 11
0.0757922
 21
215.076
 31
0.0
  0
LINE
  5
14b
100
AcDbEntity
  8
0
100
AcDbLine
 62
     253
 10
65.0766
 20
68.8262
 30
0.0
 11
65.0766
 21
108.826
 31
0.0
  0
LINE
  5
14c
100
AcDbEntity
  8
0
100
AcDbLine
 62
     253
 10
65.0766
 20
68.8262
 30
0.0
 11
62.5768
 21
66.3265
 31
0.0
  0
LINE
  5
14d
100
AcDbEntity
  8
0
100
AcDbLine
 62
     253
 10
65.0766
 20
108.826
 30
0.0
 11
62.5768
 21
111.326
 31
0.0
  0
LINE
  5
14e
100
AcDbEntity
  8
0
100
AcDbLine
 62
     253
 10
62.5768
 20
66.3265
 30
0.0
 11
42.576
 21
66.3265
 31
0.0
  0
LINE
  5
14f
100
AcDbEntity
  8
0
100
AcDbLine
 62
     253
 10
62.5768
 20
111.326
 30
0.0
 11
42.576
 21
111.326
 31
0.0
  0
LINE
  5
150
100
AcDbEntity
  8
0
100
AcDbLine
 62
     253
 10
40.0763
 20
68.8262
 30
0.0
 11
42.576
 21
66.3265
 31
0.0
  0
LINE
  5
151
100
AcDbEntity
  8
0
100
AcDbLine
 62
     253
 10
40.0763
 20
108.826
 30
0.0
 11
42.576
 21
111.326
 31
0.0
  0
LINE
  5
152
100
AcDbEntity
  8
0
100
AcDbLine
 62
     253
 10
40.0763
 20
68.8262
 30
0.0
 11
40.0763
 21
108.826
 31
0.0
  0
SPLINE
  5
153
100
AcDbEntity
  8
0
100
AcDbSpline
210
0.0
220
0.0
230
1.0
 62
     253
 70
     0
 71
     3
 72
     8
 73
4
 40
0.0
 40
0.0
 40
0.0
 40
0.0
 40
1.0
 40
1.0
 40
1.0
 40
1.0
 10
55.076
 20
100.076
 30
0.0
 10
55.076
 20
98.6952
 30
0.0
 10
53.957
 20
97.5762
 30
0.0
 10
52.5762
 20
97.5762
 30
0.0
  0
SPLINE
  5
154
100
AcDbEntity
  8
0
100
AcDbSpline
210
0.0
220
0.0
230
1.0
 62
     253
 70
     0
 71
     3
 72
     8
 73
4
 40
0.0
 40
0.0
 40
0.0
 40
0.0
 40
1.0
 40
1.0
 40
1.0
 40
1.0
 10
52.5762
 20
97.5762
 30
0.0
 10
51.1955
 20
97.5762
 30
0.0
 10
50.0765
 20
98.6952
 30
0.0
 10
50.0765
 20
100.076
 30
0.0
  0
SPLINE
  5
155
100
AcDbEntity
  8
0
100
AcDbSpline
210
0.0
220
0.0
230
1.0
 62
     253
 70
     0
 71
     3
 72
     8
 73
4
 40
0.0
 40
0.0
 40
0.0
 40
0.0
 40
1.0
 40
1.0
 40
1.0
 40
1.0
 10
50.0765
 20
100.076
 30
0.0
 10
50.0765
 20
101.457
 30
0.0
 10
51.1955
 20
102.576
 30
0.0
 10
52.5762
 20
102.576
 30
0.0
  0
SPLINE
  5
156
100
AcDbEntity
  8
0
100
AcDbSpline
210
0.0
220
0.0
230
1.0
 62
     253
 70
     0
 71
     3
 72
     8
 73
4
 40
0.0
 40
0.0
 40
0.0
 40
0.0
 40
1.0
 40
1.0
 40
1.0
 40
1.0
 10
52.5762
 20
102.576
 30
0.0
 10
53.957
 20
102.576
 30
0.0
 10
55.076
 20
101.457
 30
0.0
 10
55.076
 20
100.076
 30
0.0
  0
SPLINE
  5
157
100
AcDbEntity
  8
0
100
AcDbSpline
210
0.0
220
0.0
230
1.0
 62
     253
 70
     0
 71
     3
 72
     8
 73
4
 40
0.0
 40
0.0
 40
0.0
 40
0.0
 40
1.0
 40
1.0
 40
1.0
 40
1.0
 10
55.076
 20
77.5765
 30
0.0
 10
55.076
 20
76.1958
 30
0.0
 10
53.957
 20
75.0757
 30
0.0
 10
52.5762
 20
75.0757
 30
0.0
  0
SPLINE
  5
158
100
AcDbEntity
  8
0
100
AcDbSpline
210
0.0
220
0.0
230
1.0
 62
     253
 70
     0
 71
     3
 72
     8
 73
4
 40
0.0
 40
0.0
 40
0.0
 40
0.0
 40
1.0
 40
1.0
 40
1.0
 40
1.0
 10
52.5762
 20
75.0757
 30
0.0
 10
51.1955
 20
75.0757
 30
0.0
 10
50.0765
 20
76.1958
 30
0.0
 10
50.0765
 20
77.5765
 30
0.0
  0
SPLINE
  5
159
100
AcDbEntity
  8
0
100
AcDbSpline
210
0.0
220
0.0
230
1.0
 62
     253
 70
     0
 71
     3
 72
     8
 73
4
 40
0.0
 40
0.0
 40
0.0
 40
0.0
 40
1.0
 40
1.0
 40
1.0
 40
1.0
 10
50.0765
 20
77.5765
 30
0.0
 10
50.0765
 20
78.9573
 30
0.0
 10
51.1955
 20
80.0763
 30
0.0
 10
52.5762
 20
80.0763
 30
0.0
  0
SPLINE
  5
15a
100
AcDbEntity
  8
0
100
AcDbSpline
210
0.0
220
0.0
230
1.0
 62
     253
 70
     0
 71
     3
 72
     8
 73
4
 40
0.0
 40
0.0
 40
0.0
 40
0.0
 40
1.0
 40
1.0
 40
1.0
 40
1.0
 10
52.5762
 20
80.0763
 30
0.0
 10
53.957
 20
80.0763
 30
0.0
 10
55.076
 20
78.9573
 30
0.0
 10
55.076
 20
77.5765
 30
0.0
  0
SPLINE
  5
15b
100
AcDbEntity
  8
0
100
AcDbSpline
210
0.0
220
0.0
230
1.0
 62
     253
 70
     0
 71
     3
 72
     8
 73
4
 40
0.0
 40
0.0
 40
0.0
 40
0.0
 40
1.0
 40
1.0
 40
1.0
 40
1.0
 10
40.0763
 20
88.8256
 30
0.0
 10
40.0763
 20
88.4481
 30
0.0
 10
40.0763
 20
88.0745
 30
0.0
 10
40.0763
 20
87.8431
 30
0.0
  0
SPLINE
  5
15c
100
AcDbEntity
  8
0
100
AcDbSpline
210
0.0
220
0.0
230
1.0
 62
     253
 70
     0
 71
     3
 72
     8
 73
4
 40
0.0
 40
0.0
 40
0.0
 40
0.0
 40
1.0
 40
1.0
 40
1.0
 40
1.0
 10
40.0763
 20
87.8431
 30
0.0
 10
40.0763
 20
87.6709
 30
0.0
 10
40.0763
 20
87.5757
 30
0.0
 10
40.0763
 20
87.5757
 30
0.0
  0
SPLINE
  5
15d
100
AcDbEntity
  8
0
100
AcDbSpline
210
0.0
220
0.0
230
1.0
 62
     253
 70
     0
 71
     3
 72
     8
 73
4
 40
0.0
 40
0.0
 40
0.0
 40
0.0
 40
1.0
 40
1.0
 40
1.0
 40
1.0
 10
40.0763
 20
87.5757
 30
0.0
 10
40.0763
 20
87.5743
 30
0.0
 10
40.0763
 20
87.7397
 30
0.0
 10
40.0763
 20
88.0181
 30
0.0
  0
SPLINE
  5
15e
100
AcDbEntity
  8
0
100
AcDbSpline
210
0.0
220
0.0
230
1.0
 62
     253
 70
     0
 71
     3
 72
     8
 73
4
 40
0.0
 40
0.0
 40
0.0
 40
0.0
 40
1.0
 40
1.0
 40
1.0
 40
1.0
 10
40.0763
 20
88.0181
 30
0.0
 10
40.0763
 20
88.2481
 30
0.0
 10
40.0763
 20
88.5543
 30
0.0
 10
40.0763
 20
88.8573
 30
0.0
  0
SPLINE
  5
15f
100
AcDbEntity
  8
0
100
AcDbSpline
210
0.0
220
0.0
230
1.0
 62
     253
 70
     0
 71
     3
 72
     8
 73
4
 40
0.0
 40
0.0
 40
0.0
 40
0.0
 40
1.0
 40
1.0
 40
1.0
 40
1.0
 10
40.0763
 20
88.8573
 30
0.0
 10
40.0763
 20
89.1618
 30
0.0
 10
40.0763
 20
89.4609
 30
0.0
 10
40.0763
 20
89.6814
 30
0.0
  0
SPLINE
  5
160
100
AcDbEntity
  8
0
100
AcDbSpline
210
0.0
220
0.0
230
1.0
 62
     253
 70
     0
 71
     3
 72
     8
 73
4
 40
0.0
 40
0.0
 40
0.0
 40
0.0
 40
1.0
 40
1.0
 40
1.0
 40
1.0
 10
40.0763
 20
89.6814
 30
0.0
 10
40.0763
 20
89.9308
 30
0.0
 10
40.0763
 20
90.0783
 30
0.0
 10
40.0763
 20
90.0769
 30
0.0
  0
SPLINE
  5
161
100
AcDbEntity
  8
0
100
AcDbSpline
210
0.0
220
0.0
230
1.0
 62
     253
 70
     0
 71
     3
 72
     8
 73
4
 40
0.0
 40
0.0
 40
0.0
 40
0.0
 40
1.0
 40
1.0
 40
1.0
 40
1.0
 10
40.0763
 20
90.0769
 30
0.0
 10
40.0763
 20
90.0783
 30
0.0
 10
40.0763
 20
89.9308
 30
0.0
 10
40.0763
 20
89.6814
 30
0.0
  0
SPLINE
  5
162
100
AcDbEntity
  8
0
100
AcDbSpline
210
0.0
220
0.0
230
1.0
 62
     253
 70
     0
 71
     3
 72
     8
 73
4
 40
0.0
 40
0.0
 40
0.0
 40
0.0
 40
1.0
 40
1.0
 40
1.0
 40
1.0
 10
40.0763
 20
89.6814
 30
0.0
 10
40.0763
 20
89.4539
 30
0.0
 10
40.0763
 20
89.1413
 30
0.0
 10
40.0763
 20
88.8256
 30
0.0
  0
SPLINE
  5
163
100
AcDbEntity
  8
0
100
AcDbSpline
210
0.0
220
0.0
230
1.0
 62
     253
 70
     0
 71
     3
 72
     8
 73
4
 40
0.0
 40
0.0
 40
0.0
 40
0.0
 40
1.0
 40
1.0
 40
1.0
 40
1.0
 10
57.2258
 20
88.8256
 30
0.0
 10
57.2258
 20
89.516
 30
0.0
 10
57.2258
 20
90.0769
 30
0.0
 10
57.2258
 20
90.0769
 30
0.0
  0
SPLINE
  5
164
100
AcDbEntity
  8
0
100
AcDbSpline
210
0.0
220
0.0
230
1.0
 62
     253
 70
     0
 71
     3
 72
     8
 73
4
 40
0.0
 40
0.0
 40
0.0
 40
0.0
 40
1.0
 40
1.0
 40
1.0
 40
1.0
 10
57.2258
 20
90.0769
 30
0.0
 10
57.2258
 20
90.0769
 30
0.0
 10
57.2258
 20
89.516
 30
0.0
 10
57.2258
 20
88.8256
 30
0.0
  0
SPLINE
  5
165
100
AcDbEntity
  8
0
100
AcDbSpline
210
0.0
220
0.0
230
1.0
 62
     253
 70
     0
 71
     3
 72
     8
 73
4
 40
0.0
 40
0.0
 40
0.0
 40
0.0
 40
1.0
 40
1.0
 40
1.0
 40
1.0
 10
57.2258
 20
88.8256
 30
0.0
 10
57.2258
 20
88.1352
 30
0.0
 10
57.2258
 20
87.5757
 30
0.0
 10
57.2258
 20
87.5757
 30
0.0
  0
SPLINE
  5
166
100
AcDbEntity
  8
0
100
AcDbSpline
210
0.0
220
0.0
230
1.0
 62
     253
 70
     0
 71
     3
 72
     8
 73
4
 40
0.0
 40
0.0
 40
0.0
 40
0.0
 40
1.0
 40
1.0
 40
1.0
 40
1.0
 10
57.2258
 20
87.5757
 30
0.0
 10
57.2258
 20
87.5757
 30
0.0
 10
57.2258
 20
88.1352
 30
0.0
 10
57.2258
 20
88.8256
 30
0.0
  0
LINE
  5
167
100
AcDbEntity
  8
0
100
AcDbLine
 62
     253
 10
65.0766
 20
181.326
 30
0.0
 11
65.0766
 21
221.327
 31
0.0
  0
LINE
  5
168
100
AcDbEntity
  8
0
100
AcDbLine
 62
     253
 10
65.0766
 20
181.326
 30
0.0
 11
62.5768
 21
178.827
 31
0.0
  0
LINE
  5
169
100
AcDbEntity
  8
0
100
AcDbLine
 62
     253
 10
65.0766
 20
221.327
 30
0.0
 11
62.5768
 21
223.827
 31
0.0
  0
LINE
  5
16a
100
AcDbEntity
  8
0
100
AcDbLine
 62
     253
 10
62.5768
 20
178.827
 30
0.0
 11
42.576
 21
178.827
 31
0.0
  0
LINE
  5
16b
100
AcDbEntity
  8
0
100
AcDbLine
 62
     253
 10
62.5768
 20
223.827
 30
0.0
 11
42.576
 21
223.827
 31
0.0
  0
LINE
  5
16c
100
AcDbEntity
  8
0
100
AcDbLine
 62
     253
 10
40.0763
 20
181.326
 30
0.0
 11
42.576
 21
178.827
 31
0.0
  0
LINE
  5
16d
100
AcDbEntity
  8
0
100
AcDbLine
 62
     253
 10
40.0763
 20
221.327
 30
0.0
 11
42.576
 21
223.827
 31
0.0
  0
LINE
  5
16e
100
AcDbEntity
  8
0
100
AcDbLine
 62
     253
 10
40.0763
 20
181.326
 30
0.0
 11
40.0763
 21
221.327
 31
0.0
  0
SPLINE
  5
16f
100
AcDbEntity
  8
0
100
AcDbSpline
210
0.0
220
0.0
230
1.0
 62
     253
 70
     0
 71
     3
 72
     8
 73
4
 40
0.0
 40
0.0
 40
0.0
 40
0.0
 40
1.0
 40
1.0
 40
1.0
 40
1.0
 10
55.076
 20
190.076
 30
0.0
 10
55.076
 20
188.696
 30
0.0
 10
53.957
 20
187.576
 30
0.0
 10
52.5762
 20
187.576
 30
0.0
  0
SPLINE
  5
170
100
AcDbEntity
  8
0
100
AcDbSpline
210
0.0
220
0.0
230
1.0
 62
     253
 70
     0
 71
     3
 72
     8
 73
4
 40
0.0
 40
0.0
 40
0.0
 40
0.0
 40
1.0
 40
1.0
 40
1.0
 40
1.0
 10
52.5762
 20
187.576
 30
0.0
 10
51.1955
 20
187.576
 30
0.0
 10
50.0765
 20
188.696
 30
0.0
 10
50.0765
 20
190.076
 30
0.0
  0
SPLINE
  5
171
100
AcDbEntity
  8
0
100
AcDbSpline
210
0.0
220
0.0
230
1.0
 62
     253
 70
     0
 71
     3
 72
     8
 73
4
 40
0.0
 40
0.0
 40
0.0
 40
0.0
 40
1.0
 40
1.0
 40
1.0
 40
1.0
 10
50.0765
 20
190.076
 30
0.0
 10
50.0765
 20
191.456
 30
0.0
 10
51.1955
 20
192.577
 30
0.0
 10
52.5762
 20
192.577
 30
0.0
  0
SPLINE
  5
172
100
AcDbEntity
  8
0
100
AcDbSpline
210
0.0
220
0.0
230
1.0
 62
     253
 70
     0
 71
     3
 72
     8
 73
4
 40
0.0
 40
0.0
 40
0.0
 40
0.0
 40
1.0
 40
1.0
 40
1.0
 40
1.0
 10
52.5762
 20
192.577
 30
0.0
 10
53.957
 20
192.577
 30
0.0
 10
55.076
 20
191.456
 30
0.0
 10
55.076
 20
190.076
 30
0.0
  0
SPLINE
  5
173
100
AcDbEntity
  8
0
100
AcDbSpline
210
0.0
220
0.0
230
1.0
 62
     253
 70
     0
 71
     3
 72
     8
 73
4
 40
0.0
 40
0.0
 40
0.0
 40
0.0
 40
1.0
 40
1.0
 40
1.0
 40
1.0
 10
55.076
 20
212.576
 30
0.0
 10
55.076
 20
211.195
 30
0.0
 10
53.957
 20
210.076
 30
0.0
 10
52.5762
 20
210.076
 30
0.0
  0
SPLINE
  5
174
100
AcDbEntity
  8
0
100
AcDbSpline
210
0.0
220
0.0
230
1.0
 62
     253
 70
     0
 71
     3
 72
     8
 73
4
 40
0.0
 40
0.0
 40
0.0
 40
0.0
 40
1.0
 40
1.0
 40
1.0
 40
1.0
 10
52.5762
 20
210.076
 30
0.0
 10
51.1955
 20
210.076
 30
0.0
 10
50.0765
 20
211.195
 30
0.0
 10
50.0765
 20
212.576
 30
0.0
  0
SPLINE
  5
175
100
AcDbEntity
  8
0
100
AcDbSpline
210
0.0
220
0.0
230
1.0
 62
     253
 70
     0
 71
     3
 72
     8
 73
4
 40
0.0
 40
0.0
 40
0.0
 40
0.0
 40
1.0
 40
1.0
 40
1.0
 40
1.0
 10
50.0765
 20
212.576
 30
0.0
 10
50.0765
 20
213.957
 30
0.0
 10
51.1955
 20
215.076
 30
0.0
 10
52.5762
 20
215.076
 30
0.0
  0
SPLINE
  5
176
100
AcDbEntity
  8
0
100
AcDbSpline
210
0.0
220
0.0
230
1.0
 62
     253
 70
     0
 71
     3
 72
     8
 73
4
 40
0.0
 40
0.0
 40
0.0
 40
0.0
 40
1.0
 40
1.0
 40
1.0
 40
1.0
 10
52.5762
 20
215.076
 30
0.0
 10
53.957
 20
215.076
 30
0.0
 10
55.076
 20
213.957
 30
0.0
 10
55.076
 20
212.576
 30
0.0
  0
SPLINE
  5
177
100
AcDbEntity
  8
0
100
AcDbSpline
210
0.0
220
0.0
230
1.0
 62
     253
 70
     0
 71
     3
 72
     8
 73
4
 40
0.0
 40
0.0
 40
0.0
 40
0.0
 40
1.0
 40
1.0
 40
1.0
 40
1.0
 10
40.0763
 20
201.326
 30
0.0
 10
40.0763
 20
200.948
 30
0.0
 10
40.0763
 20
200.575
 30
0.0
 10
40.0763
 20
200.343
 30
0.0
  0
SPLINE
  5
178
100
AcDbEntity
  8
0
100
AcDbSpline
210
0.0
220
0.0
230
1.0
 62
     253
 70
     0
 71
     3
 72
     8
 73
4
 40
0.0
 40
0.0
 40
0.0
 40
0.0
 40
1.0
 40
1.0
 40
1.0
 40
1.0
 10
40.0763
 20
200.343
 30
0.0
 10
40.0763
 20
200.171
 30
0.0
 10
40.0763
 20
200.076
 30
0.0
 10
40.0763
 20
200.076
 30
0.0
  0
SPLINE
  5
179
100
AcDbEntity
  8
0
100
AcDbSpline
210
0.0
220
0.0
230
1.0
 62
     253
 70
     0
 71
     3
 72
     8
 73
4
 40
0.0
 40
0.0
 40
0.0
 40
0.0
 40
1.0
 40
1.0
 40
1.0
 40
1.0
 10
40.0763
 20
200.076
 30
0.0
 10
40.0763
 20
200.075
 30
0.0
 10
40.0763
 20
200.24
 30
0.0
 10
40.0763
 20
200.517
 30
0.0
  0
SPLINE
  5
17a
100
AcDbEntity
  8
0
100
AcDbSpline
210
0.0
220
0.0
230
1.0
 62
     253
 70
     0
 71
     3
 72
     8
 73
4
 40
0.0
 40
0.0
 40
0.0
 40
0.0
 40
1.0
 40
1.0
 40
1.0
 40
1.0
 10
40.0763
 20
200.517
 30
0.0
 10
40.0763
 20
200.749
 30
0.0
 10
40.0763
 20
201.053
 30
0.0
 10
40.0763
 20
201.357
 30
0.0
  0
SPLINE
  5
17b
100
AcDbEntity
  8
0
100
AcDbSpline
210
0.0
220
0.0
230
1.0
 62
     253
 70
     0
 71
     3
 72
     8
 73
4
 40
0.0
 40
0.0
 40
0.0
 40
0.0
 40
1.0
 40
1.0
 40
1.0
 40
1.0
 10
40.0763
 20
201.357
 30
0.0
 10
40.0763
 20
201.662
 30
0.0
 10
40.0763
 20
201.961
 30
0.0
 10
40.0763
 20
202.182
 30
0.0
  0
SPLINE
  5
17c
100
AcDbEntity
  8
0
100
AcDbSpline
210
0.0
220
0.0
230
1.0
 62
     253
 70
     0
 71
     3
 72
     8
 73
4
 40
0.0
 40
0.0
 40
0.0
 40
0.0
 40
1.0
 40
1.0
 40
1.0
 40
1.0
 10
40.0763
 20
202.182
 30
0.0
 10
40.0763
 20
202.431
 30
0.0
 10
40.0763
 20
202.577
 30
0.0
 10
40.0763
 20
202.576
 30
0.0
  0
SPLINE
  5
17d
100
AcDbEntity
  8
0
100
AcDbSpline
210
0.0
220
0.0
230
1.0
 62
     253
 70
     0
 71
     3
 72
     8
 73
4
 40
0.0
 40
0.0
 40
0.0
 40
0.0
 40
1.0
 40
1.0
 40
1.0
 40
1.0
 10
40.0763
 20
202.576
 30
0.0
 10
40.0763
 20
202.577
 30
0.0
 10
40.0763
 20
202.431
 30
0.0
 10
40.0763
 20
202.182
 30
0.0
  0
SPLINE
  5
17e
100
AcDbEntity
  8
0
100
AcDbSpline
210
0.0
220
0.0
230
1.0
 62
     253
 70
     0
 71
     3
 72
     8
 73
4
 40
0.0
 40
0.0
 40
0.0
 40
0.0
 40
1.0
 40
1.0
 40
1.0
 40
1.0
 10
40.0763
 20
202.182
 30
0.0
 10
40.0763
 20
201.953
 30
0.0
 10
40.0763
 20
201.64
 30
0.0
 10
40.0763
 20
201.326
 30
0.0
  0
SPLINE
  5
17f
100
AcDbEntity
  8
0
100
AcDbSpline
210
0.0
220
0.0
230
1.0
 62
     253
 70
     0
 71
     3
 72
     8
 73
4
 40
0.0
 40
0.0
 40
0.0
 40
0.0
 40
1.0
 40
1.0
 40
1.0
 40
1.0
 10
57.2258
 20
201.326
 30
0.0
 10
57.2258
 20
202.016
 30
0.0
 10
57.2258
 20
202.576
 30
0.0
 10
57.2258
 20
202.576
 30
0.0
  0
SPLINE
  5
180
100
AcDbEntity
  8
0
100
AcDbSpline
210
0.0
220
0.0
230
1.0
 62
     253
 70
     0
 71
     3
 72
     8
 73
4
 40
0.0
 40
0.0
 40
0.0
 40
0.0
 40
1.0
 40
1.0
 40
1.0
 40
1.0
 10
57.2258
 20
202.576
 30
0.0
 10
57.2258
 20
202.576
 30
0.0
 10
57.2258
 20
202.016
 30
0.0
 10
57.2258
 20
201.326
 30
0.0
  0
SPLINE
  5
181
100
AcDbEntity
  8
0
100
AcDbSpline
210
0.0
220
0.0
230
1.0
 62
     253
 70
     0
 71
     3
 72
     8
 73
4
 40
0.0
 40
0.0
 40
0.0
 40
0.0
 40
1.0
 40
1.0
 40
1.0
 40
1.0
 10
57.2258
 20
201.326
 30
0.0
 10
57.2258
 20
200.635
 30
0.0
 10
57.2258
 20
200.076
 30
0.0
 10
57.2258
 20
200.076
 30
0.0
  0
SPLINE
  5
182
100
AcDbEntity
  8
0
100
AcDbSpline
210
0.0
220
0.0
230
1.0
 62
     253
 70
     0
 71
     3
 72
     8
 73
4
 40
0.0
 40
0.0
 40
0.0
 40
0.0
 40
1.0
 40
1.0
 40
1.0
 40
1.0
 10
57.2258
 20
200.076
 30
0.0
 10
57.2258
 20
200.076
 30
0.0
 10
57.2258
 20
200.635
 30
0.0
 10
57.2258
 20
201.326
 30
0.0
  0
LINE
  5
183
100
AcDbEntity
  8
0
100
AcDbLine
 62
     253
 10
57.2258
 20
90.0769
 30
0.0
 11
40.0763
 21
90.0769
 31
0.0
  0
LINE
  5
184
100
AcDbEntity
  8
0
100
AcDbLine
 62
     253
 10
57.2258
 20
87.5757
 30
0.0
 11
40.0763
 21
87.5757
 31
0.0
  0
LINE
  5
185
100
AcDbEntity
  8
0
100
AcDbLine
 62
     253
 10
57.2258
 20
202.576
 30
0.0
 11
40.0763
 21
202.576
 31
0.0
  0
LINE
  5
186
100
AcDbEntity
  8
0
100
AcDbLine
 62
     253
 10
57.2258
 20
200.076
 30
0.0
 11
40.0763
 21
200.076
 31
0.0
  0
LINE
  5
187
100
AcDbEntity
  8
0
100
AcDbLine
 62
     0
 10
52.5762
 20
187.277
 30
0.0
 11
52.5762
 21
192.876
 31
0.0
  0
LINE
  5
188
100
AcDbEntity
  8
0
100
AcDbLine
 62
     0
 10
55.3766
 20
190.076
 30
0.0
 11
49.7762
 21
190.076
 31
0.0
  0
LINE
  5
189
100
AcDbEntity
  8
0
100
AcDbLine
 62
     0
 10
52.5762
 20
187.277
 30
0.0
 11
52.5762
 21
192.876
 31
0.0
  0
LINE
  5
18a
100
AcDbEntity
  8
0
100
AcDbLine
 62
     0
 10
55.3766
 20
190.076
 30
0.0
 11
49.7762
 21
190.076
 31
0.0
  0
LINE
  5
18b
100
AcDbEntity
  8
0
100
AcDbLine
 62
     253
 10
105.076
 20
68.8262
 30
0.0
 11
105.076
 21
108.826
 31
0.0
  0
LINE
  5
18c
100
AcDbEntity
  8
0
100
AcDbLine
 62
     253
 10
105.076
 20
68.8262
 30
0.0
 11
100.076
 21
68.8262
 31
0.0
  0
LINE
  5
18d
100
AcDbEntity
  8
0
100
AcDbLine
 62
     253
 10
105.076
 20
108.826
 30
0.0
 11
100.076
 21
108.826
 31
0.0
  0
LINE
  5
18e
100
AcDbEntity
  8
0
100
AcDbLine
 62
     253
 10
100.076
 20
68.8262
 30
0.0
 11
100.076
 21
108.826
 31
0.0
  0
LINE
  5
18f
100
AcDbEntity
  8
0
100
AcDbLine
 62
     253
 10
105.076
 20
68.8262
 30
0.0
 11
105.076
 21
66.3265
 31
0.0
  0
LINE
  5
190
100
AcDbEntity
  8
0
100
AcDbLine
 62
     253
 10
105.076
 20
108.826
 30
0.0
 11
105.076
 21
111.326
 31
0.0
  0
LINE
  5
191
100
AcDbEntity
  8
0
100
AcDbLine
 62
     253
 10
105.076
 20
100.076
 30
0.0
 11
105.076
 21
102.576
 31
0.0
  0
LINE
  5
192
100
AcDbEntity
  8
0
100
AcDbLine
 62
     253
 10
105.076
 20
102.576
 30
0.0
 11
105.076
 21
97.5762
 31
0.0
  0
LINE
  5
193
100
AcDbEntity
  8
0
100
AcDbLine
 62
     253
 10
105.076
 20
97.5762
 30
0.0
 11
105.076
 21
100.076
 31
0.0
  0
LINE
  5
194
100
AcDbEntity
  8
0
100
AcDbLine
 62
     253
 10
105.076
 20
77.5765
 30
0.0
 11
105.076
 21
80.0763
 31
0.0
  0
LINE
  5
195
100
AcDbEntity
  8
0
100
AcDbLine
 62
     253
 10
105.076
 20
80.0763
 30
0.0
 11
105.076
 21
75.0757
 31
0.0
  0
LINE
  5
196
100
AcDbEntity
  8
0
100
AcDbLine
 62
     253
 10
105.076
 20
75.0757
 30
0.0
 11
105.076
 21
77.5765
 31
0.0
  0
LINE
  5
197
100
AcDbEntity
  8
0
100
AcDbLine
 62
     253
 10
105.076
 20
66.3265
 30
0.0
 11
100.076
 21
66.3265
 31
0.0
  0
LINE
  5
198
100
AcDbEntity
  8
0
100
AcDbLine
 62
     253
 10
100.076
 20
68.8262
 30
0.0
 11
100.076
 21
66.3265
 31
0.0
  0
LINE
  5
199
100
AcDbEntity
  8
0
100
AcDbLine
 62
     253
 10
105.076
 20
111.326
 30
0.0
 11
100.076
 21
111.326
 31
0.0
  0
LINE
  5
19a
100
AcDbEntity
  8
0
100
AcDbLine
 62
     253
 10
100.076
 20
108.826
 30
0.0
 11
100.076
 21
111.326
 31
0.0
  0
LINE
  5
19b
100
AcDbEntity
  8
0
100
AcDbLine
 62
     253
 10
100.076
 20
100.076
 30
0.0
 11
100.076
 21
102.576
 31
0.0
  0
LINE
  5
19c
100
AcDbEntity
  8
0
100
AcDbLine
 62
     253
 10
100.076
 20
102.576
 30
0.0
 11
100.076
 21
97.5762
 31
0.0
  0
LINE
  5
19d
100
AcDbEntity
  8
0
100
AcDbLine
 62
     253
 10
100.076
 20
97.5762
 30
0.0
 11
100.076
 21
100.076
 31
0.0
  0
LINE
  5
19e
100
AcDbEntity
  8
0
100
AcDbLine
 62
     253
 10
100.076
 20
77.5765
 30
0.0
 11
100.076
 21
80.0763
 31
0.0
  0
LINE
  5
19f
100
AcDbEntity
  8
0
100
AcDbLine
 62
     253
 10
100.076
 20
80.0763
 30
0.0
 11
100.076
 21
75.0757
 31
0.0
  0
LINE
  5
1a0
100
AcDbEntity
  8
0
100
AcDbLine
 62
     253
 10
100.076
 20
75.0757
 30
0.0
 11
100.076
 21
77.5765
 31
0.0
  0
SPLINE
  5
1a1
100
AcDbEntity
  8
0
100
AcDbSpline
210
0.0
220
0.0
230
1.0
 62
     253
 70
     0
 71
     3
 72
     8
 73
4
 40
0.0
 40
0.0
 40
0.0
 40
0.0
 40
1.0
 40
1.0
 40
1.0
 40
1.0
 10
102.576
 20
90.0769
 30
0.0
 10
101.885
 20
90.0769
 30
0.0
 10
101.326
 20
89.516
 30
0.0
 10
101.326
 20
88.8256
 30
0.0
  0
SPLINE
  5
1a2
100
AcDbEntity
  8
0
100
AcDbSpline
210
0.0
220
0.0
230
1.0
 62
     253
 70
     0
 71
     3
 72
     8
 73
4
 40
0.0
 40
0.0
 40
0.0
 40
0.0
 40
1.0
 40
1.0
 40
1.0
 40
1.0
 10
101.326
 20
88.8256
 30
0.0
 10
101.326
 20
88.1352
 30
0.0
 10
101.885
 20
87.5757
 30
0.0
 10
102.576
 20
87.5757
 30
0.0
  0
SPLINE
  5
1a3
100
AcDbEntity
  8
0
100
AcDbSpline
210
0.0
220
0.0
230
1.0
 62
     253
 70
     0
 71
     3
 72
     8
 73
4
 40
0.0
 40
0.0
 40
0.0
 40
0.0
 40
1.0
 40
1.0
 40
1.0
 40
1.0
 10
102.576
 20
87.5757
 30
0.0
 10
103.266
 20
87.5757
 30
0.0
 10
103.826
 20
88.1352
 30
0.0
 10
103.826
 20
88.8256
 30
0.0
  0
SPLINE
  5
1a4
100
AcDbEntity
  8
0
100
AcDbSpline
210
0.0
220
0.0
230
1.0
 62
     253
 70
     0
 71
     3
 72
     8
 73
4
 40
0.0
 40
0.0
 40
0.0
 40
0.0
 40
1.0
 40
1.0
 40
1.0
 40
1.0
 10
103.826
 20
88.8256
 30
0.0
 10
103.826
 20
89.516
 30
0.0
 10
103.266
 20
90.0769
 30
0.0
 10
102.576
 20
90.0769
 30
0.0
  0
LINE
  5
1a5
100
AcDbEntity
  8
0
100
AcDbLine
 62
     253
 10
105.076
 20
181.326
 30
0.0
 11
105.076
 21
221.327
 31
0.0
  0
LINE
  5
1a6
100
AcDbEntity
  8
0
100
AcDbLine
 62
     253
 10
105.076
 20
181.326
 30
0.0
 11
100.076
 21
181.326
 31
0.0
  0
LINE
  5
1a7
100
AcDbEntity
  8
0
100
AcDbLine
 62
     253
 10
105.076
 20
221.327
 30
0.0
 11
100.076
 21
221.327
 31
0.0
  0
LINE
  5
1a8
100
AcDbEntity
  8
0
100
AcDbLine
 62
     253
 10
100.076
 20
181.326
 30
0.0
 11
100.076
 21
221.327
 31
0.0
  0
LINE
  5
1a9
100
AcDbEntity
  8
0
100
AcDbLine
 62
     253
 10
105.076
 20
181.326
 30
0.0
 11
105.076
 21
178.827
 31
0.0
  0
LINE
  5
1aa
100
AcDbEntity
  8
0
100
AcDbLine
 62
     253
 10
105.076
 20
221.327
 30
0.0
 11
105.076
 21
223.827
 31
0.0
  0
LINE
  5
1ab
100
AcDbEntity
  8
0
100
AcDbLine
 62
     253
 10
105.076
 20
190.076
 30
0.0
 11
105.076
 21
192.577
 31
0.0
  0
LINE
  5
1ac
100
AcDbEntity
  8
0
100
AcDbLine
 62
     253
 10
105.076
 20
192.577
 30
0.0
 11
105.076
 21
187.576
 31
0.0
  0
LINE
  5
1ad
100
AcDbEntity
  8
0
100
AcDbLine
 62
     253
 10
105.076
 20
187.576
 30
0.0
 11
105.076
 21
190.076
 31
0.0
  0
LINE
  5
1ae
100
AcDbEntity
  8
0
100
AcDbLine
 62
     253
 10
105.076
 20
212.576
 30
0.0
 11
105.076
 21
215.076
 31
0.0
  0
LINE
  5
1af
100
AcDbEntity
  8
0
100
AcDbLine
 62
     253
 10
105.076
 20
215.076
 30
0.0
 11
105.076
 21
210.076
 31
0.0
  0
LINE
  5
1b0
100
AcDbEntity
  8
0
100
AcDbLine
 62
     253
 10
105.076
 20
210.076
 30
0.0
 11
105.076
 21
212.576
 31
0.0
  0
LINE
  5
1b1
100
AcDbEntity
  8
0
100
AcDbLine
 62
     253
 10
105.076
 20
178.827
 30
0.0
 11
100.076
 21
178.827
 31
0.0
  0
LINE
  5
1b2
100
AcDbEntity
  8
0
100
AcDbLine
 62
     253
 10
100.076
 20
181.326
 30
0.0
 11
100.076
 21
178.827
 31
0.0
  0
LINE
  5
1b3
100
AcDbEntity
  8
0
100
AcDbLine
 62
     253
 10
105.076
 20
223.827
 30
0.0
 11
100.076
 21
223.827
 31
0.0
  0
LINE
  5
1b4
100
AcDbEntity
  8
0
100
AcDbLine
 62
     253
 10
100.076
 20
221.327
 30
0.0
 11
100.076
 21
223.827
 31
0.0
  0
LINE
  5
1b5
100
AcDbEntity
  8
0
100
AcDbLine
 62
     253
 10
100.076
 20
190.076
 30
0.0
 11
100.076
 21
192.577
 31
0.0
  0
LINE
  5
1b6
100
AcDbEntity
  8
0
100
AcDbLine
 62
     253
 10
100.076
 20
192.577
 30
0.0
 11
100.076
 21
187.576
 31
0.0
  0
LINE
  5
1b7
100
AcDbEntity
  8
0
100
AcDbLine
 62
     253
 10
100.076
 20
187.576
 30
0.0
 11
100.076
 21
190.076
 31
0.0
  0
LINE
  5
1b8
100
AcDbEntity
  8
0
100
AcDbLine
 62
     253
 10
100.076
 20
212.576
 30
0.0
 11
100.076
 21
215.076
 31
0.0
  0
LINE
  5
1b9
100
AcDbEntity
  8
0
100
AcDbLine
 62
     253
 10
100.076
 20
215.076
 30
0.0
 11
100.076
 21
210.076
 31
0.0
  0
LINE
  5
1ba
100
AcDbEntity
  8
0
100
AcDbLine
 62
     253
 10
100.076
 20
210.076
 30
0.0
 11
100.076
 21
212.576
 31
0.0
  0
SPLINE
  5
1bb
100
AcDbEntity
  8
0
100
AcDbSpline
210
0.0
220
0.0
230
1.0
 62
     253
 70
     0
 71
     3
 72
     8
 73
4
 40
0.0
 40
0.0
 40
0.0
 40
0.0
 40
1.0
 40
1.0
 40
1.0
 40
1.0
 10
102.576
 20
202.576
 30
0.0
 10
101.885
 20
202.576
 30
0.0
 10
101.326
 20
202.016
 30
0.0
 10
101.326
 20
201.326
 30
0.0
  0
SPLINE
  5
1bc
100
AcDbEntity
  8
0
100
AcDbSpline
210
0.0
220
0.0
230
1.0
 62
     253
 70
     0
 71
     3
 72
     8
 73
4
 40
0.0
 40
0.0
 40
0.0
 40
0.0
 40
1.0
 40
1.0
 40
1.0
 40
1.0
 10
101.326
 20
201.326
 30
0.0
 10
101.326
 20
200.635
 30
0.0
 10
101.885
 20
200.076
 30
0.0
 10
102.576
 20
200.076
 30
0.0
  0
SPLINE
  5
1bd
100
AcDbEntity
  8
0
100
AcDbSpline
210
0.0
220
0.0
230
1.0
 62
     253
 70
     0
 71
     3
 72
     8
 73
4
 40
0.0
 40
0.0
 40
0.0
 40
0.0
 40
1.0
 40
1.0
 40
1.0
 40
1.0
 10
102.576
 20
200.076
 30
0.0
 10
103.266
 20
200.076
 30
0.0
 10
103.826
 20
200.635
 30
0.0
 10
103.826
 20
201.326
 30
0.0
  0
SPLINE
  5
1be
100
AcDbEntity
  8
0
100
AcDbSpline
210
0.0
220
0.0
230
1.0
 62
     253
 70
     0
 71
     3
 72
     8
 73
4
 40
0.0
 40
0.0
 40
0.0
 40
0.0
 40
1.0
 40
1.0
 40
1.0
 40
1.0
 10
103.826
 20
201.326
 30
0.0
 10
103.826
 20
202.016
 30
0.0
 10
103.266
 20
202.576
 30
0.0
 10
102.576
 20
202.576
 30
0.0
  0
LINE
  5
1bf
100
AcDbEntity
  8
0
100
AcDbLine
 62
     253
 10
100.076
 20
102.576
 30
0.0
 11
105.076
 21
102.576
 31
0.0
  0
LINE
  5
1c0
100
AcDbEntity
  8
0
100
AcDbLine
 62
     253
 10
100.076
 20
97.5762
 30
0.0
 11
105.076
 21
97.5762
 31
0.0
  0
LINE
  5
1c1
100
AcDbEntity
  8
0
100
AcDbLine
 62
     253
 10
100.076
 20
80.0763
 30
0.0
 11
105.076
 21
80.0763
 31
0.0
  0
LINE
  5
1c2
100
AcDbEntity
  8
0
100
AcDbLine
 62
     253
 10
100.076
 20
75.0757
 30
0.0
 11
105.076
 21
75.0757
 31
0.0
  0
LINE
  5
1c3
100
AcDbEntity
  8
0
100
AcDbLine
 62
     253
 10
100.076
 20
192.577
 30
0.0
 11
105.076
 21
192.577
 31
0.0
  0
LINE
  5
1c4
100
AcDbEntity
  8
0
100
AcDbLine
 62
     253
 10
100.076
 20
187.576
 30
0.0
 11
105.076
 21
187.576
 31
0.0
  0
LINE
  5
1c5
100
AcDbEntity
  8
0
100
AcDbLine
 62
     253
 10
100.076
 20
215.076
 30
0.0
 11
105.076
 21
215.076
 31
0.0
  0
LINE
  5
1c6
100
AcDbEntity
  8
0
100
AcDbLine
 62
     253
 10
100.076
 20
210.076
 30
0.0
 11
105.076
 21
210.076
 31
0.0
  0
LINE
  5
1c7
100
AcDbEntity
  8
0
100
AcDbLine
 62
     253
 10
0.0757922
 20
0.0757922
 30
0.0
 11
5.07668
 21
0.0757922
 31
0.0
  0
LINE
  5
1c8
100
AcDbEntity
  8
0
100
AcDbLine
 62
     253
 10
0.0757922
 20
0.0757922
 30
0.0
 11
5.07668
 21
0.0757922
 31
0.0
  0
LINE
  5
1c9
100
AcDbEntity
  8
0
100
AcDbLine
 62
     253
 10
0.0757922
 20
25.0762
 30
0.0
 11
0.0757922
 21
22.5764
 31
0.0
  0
LINE
  5
1ca
100
AcDbEntity
  8
0
100
AcDbLine
 62
     253
 10
0.0757922
 20
25.0762
 30
0.0
 11
0.0757922
 21
22.5764
 31
0.0
  0
LINE
  5
1cb
100
AcDbEntity
  8
0
100
AcDbLine
 62
     253
 10
0.0757922
 20
22.5764
 30
0.0
 11
0.0757922
 21
2.57555
 31
0.0
  0
LINE
  5
1cc
100
AcDbEntity
  8
0
100
AcDbLine
 62
     253
 10
0.0757922
 20
22.5764
 30
0.0
 11
0.0757922
 21
2.57555
 31
0.0
  0
LINE
  5
1cd
100
AcDbEntity
  8
0
100
AcDbLine
 62
     253
 10
0.0757922
 20
0.0757922
 30
0.0
 11
0.0757922
 21
2.57555
 31
0.0
  0
LINE
  5
1ce
100
AcDbEntity
  8
0
100
AcDbLine
 62
     253
 10
0.0757922
 20
0.0757922
 30
0.0
 11
0.0757922
 21
2.57555
 31
0.0
  0
LINE
  5
1cf
100
AcDbEntity
  8
0
100
AcDbLine
 62
     253
 10
0.0757922
 20
10.0762
 30
0.0
 11
0.0757922
 21
15.0757
 31
0.0
  0
LINE
  5
1d0
100
AcDbEntity
  8
0
100
AcDbLine
 62
     253
 10
0.0757922
 20
15.0757
 30
0.0
 11
0.0757922
 21
10.0762
 31
0.0
  0
LINE
  5
1d1
100
AcDbEntity
  8
0
100
AcDbLine
 62
     253
 10
0.0757922
 20
10.0762
 30
0.0
 11
0.0757922
 21
15.0757
 31
0.0
  0
LINE
  5
1d2
100
AcDbEntity
  8
0
100
AcDbLine
 62
     253
 10
0.0757922
 20
15.0757
 30
0.0
 11
0.0757922
 21
10.0762
 31
0.0
  0
LINE
  5
1d3
100
AcDbEntity
  8
0
100
AcDbLine
 62
     253
 10
0.0757922
 20
2.57555
 30
0.0
 11
5.07668
 21
2.57555
 31
0.0
  0
LINE
  5
1d4
100
AcDbEntity
  8
0
100
AcDbLine
 62
     253
 10
5.07668
 20
0.0757922
 30
0.0
 11
5.07668
 21
2.57555
 31
0.0
  0
LINE
  5
1d5
100
AcDbEntity
  8
0
100
AcDbLine
 62
     253
 10
0.0757922
 20
2.57555
 30
0.0
 11
5.07668
 21
2.57555
 31
0.0
  0
LINE
  5
1d6
100
AcDbEntity
  8
0
100
AcDbLine
 62
     253
 10
5.07668
 20
0.0757922
 30
0.0
 11
5.07668
 21
2.57555
 31
0.0
  0
LINE
  5
1d7
100
AcDbEntity
  8
0
100
AcDbLine
 62
     253
 10
5.07668
 20
2.57555
 30
0.0
 11
5.07668
 21
22.5764
 31
0.0
  0
LINE
  5
1d8
100
AcDbEntity
  8
0
100
AcDbLine
 62
     253
 10
5.07668
 20
2.57555
 30
0.0
 11
5.07668
 21
22.5764
 31
0.0
  0
LINE
  5
1d9
100
AcDbEntity
  8
0
100
AcDbLine
 62
     253
 10
5.07668
 20
25.0762
 30
0.0
 11
5.07668
 21
22.5764
 31
0.0
  0
LINE
  5
1da
100
AcDbEntity
  8
0
100
AcDbLine
 62
     253
 10
5.07668
 20
25.0762
 30
0.0
 11
5.07668
 21
22.5764
 31
0.0
  0
LINE
  5
1db
100
AcDbEntity
  8
0
100
AcDbLine
 62
     253
 10
5.07668
 20
10.0762
 30
0.0
 11
5.07668
 21
15.0757
 31
0.0
  0
LINE
  5
1dc
100
AcDbEntity
  8
0
100
AcDbLine
 62
     253
 10
5.07668
 20
15.0757
 30
0.0
 11
5.07668
 21
10.0762
 31
0.0
  0
LINE
  5
1dd
100
AcDbEntity
  8
0
100
AcDbLine
 62
     253
 10
5.07668
 20
10.0762
 30
0.0
 11
5.07668
 21
15.0757
 31
0.0
  0
LINE
  5
1de
100
AcDbEntity
  8
0
100
AcDbLine
 62
     253
 10
5.07668
 20
15.0757
 30
0.0
 11
5.07668
 21
10.0762
 31
0.0
  0
LINE
  5
1df
100
AcDbEntity
  8
0
100
AcDbLine
 62
     253
 10
5.07668
 20
25.0762
 30
0.0
 11
0.0757922
 21
25.0762
 31
0.0
  0
LINE
  5
1e0
100
AcDbEntity
  8
0
100
AcDbLine
 62
     253
 10
5.07668
 20
25.0762
 30
0.0
 11
0.0757922
 21
25.0762
 31
0.0
  0
SPLINE
  5
1e1
100
AcDbEntity
  8
0
100
AcDbSpline
210
0.0
220
0.0
230
1.0
 62
     253
 70
     0
 71
     3
 72
     8
 73
4
 40
0.0
 40
0.0
 40
0.0
 40
0.0
 40
1.0
 40
1.0
 40
1.0
 40
1.0
 10
3.82545
 20
25.0762
 30
0.0
 10
3.8282
 20
25.0762
 30
0.0
 10
3.64628
 20
25.0762
 30
0.0
 10
3.34863
 20
25.0762
 30
0.0
  0
SPLINE
  5
1e2
100
AcDbEntity
  8
0
100
AcDbSpline
210
0.0
220
0.0
230
1.0
 62
     253
 70
     0
 71
     3
 72
     8
 73
4
 40
0.0
 40
0.0
 40
0.0
 40
0.0
 40
1.0
 40
1.0
 40
1.0
 40
1.0
 10
3.34863
 20
25.0762
 30
0.0
 10
3.14744
 20
25.0762
 30
0.0
 10
2.89526
 20
25.0762
 30
0.0
 10
2.63894
 20
25.0762
 30
0.0
  0
SPLINE
  5
1e3
100
AcDbEntity
  8
0
100
AcDbSpline
210
0.0
220
0.0
230
1.0
 62
     253
 70
     0
 71
     3
 72
     8
 73
4
 40
0.0
 40
0.0
 40
0.0
 40
0.0
 40
1.0
 40
1.0
 40
1.0
 40
1.0
 10
2.63894
 20
25.0762
 30
0.0
 10
2.33302
 20
25.0762
 30
0.0
 10
2.02158
 20
25.0762
 30
0.0
 10
1.78594
 20
25.0762
 30
0.0
  0
SPLINE
  5
1e4
100
AcDbEntity
  8
0
100
AcDbSpline
210
0.0
220
0.0
230
1.0
 62
     253
 70
     0
 71
     3
 72
     8
 73
4
 40
0.0
 40
0.0
 40
0.0
 40
0.0
 40
1.0
 40
1.0
 40
1.0
 40
1.0
 10
1.78594
 20
25.0762
 30
0.0
 10
1.49793
 20
25.0762
 30
0.0
 10
1.3243
 20
25.0762
 30
0.0
 10
1.32567
 20
25.0762
 30
0.0
  0
SPLINE
  5
1e5
100
AcDbEntity
  8
0
100
AcDbSpline
210
0.0
220
0.0
230
1.0
 62
     253
 70
     0
 71
     3
 72
     8
 73
4
 40
0.0
 40
0.0
 40
0.0
 40
0.0
 40
1.0
 40
1.0
 40
1.0
 40
1.0
 10
1.32567
 20
25.0762
 30
0.0
 10
1.3243
 20
25.0762
 30
0.0
 10
1.44832
 20
25.0762
 30
0.0
 10
1.66467
 20
25.0762
 30
0.0
  0
SPLINE
  5
1e6
100
AcDbEntity
  8
0
100
AcDbSpline
210
0.0
220
0.0
230
1.0
 62
     253
 70
     0
 71
     3
 72
     8
 73
4
 40
0.0
 40
0.0
 40
0.0
 40
0.0
 40
1.0
 40
1.0
 40
1.0
 40
1.0
 10
1.66467
 20
25.0762
 30
0.0
 10
1.87275
 20
25.0762
 30
0.0
 10
2.16352
 20
25.0762
 30
0.0
 10
2.46669
 20
25.0762
 30
0.0
  0
SPLINE
  5
1e7
100
AcDbEntity
  8
0
100
AcDbSpline
210
0.0
220
0.0
230
1.0
 62
     253
 70
     0
 71
     3
 72
     8
 73
4
 40
0.0
 40
0.0
 40
0.0
 40
0.0
 40
1.0
 40
1.0
 40
1.0
 40
1.0
 10
2.46669
 20
25.0762
 30
0.0
 10
2.84289
 20
25.0762
 30
0.0
 10
3.23012
 20
25.0762
 30
0.0
 10
3.48782
 20
25.0762
 30
0.0
  0
SPLINE
  5
1e8
100
AcDbEntity
  8
0
100
AcDbSpline
210
0.0
220
0.0
230
1.0
 62
     253
 70
     0
 71
     3
 72
     8
 73
4
 40
0.0
 40
0.0
 40
0.0
 40
0.0
 40
1.0
 40
1.0
 40
1.0
 40
1.0
 10
3.48782
 20
25.0762
 30
0.0
 10
3.70279
 20
25.0762
 30
0.0
 10
3.82683
 20
25.0762
 30
0.0
 10
3.82545
 20
25.0762
 30
0.0
  0
LINE
  5
1e9
100
AcDbEntity
  8
0
100
AcDbLine
 62
     253
 10
5.07668
 20
22.5764
 30
0.0
 11
0.0757922
 21
22.5764
 31
0.0
  0
LINE
  5
1ea
100
AcDbEntity
  8
0
100
AcDbLine
 62
     253
 10
5.07668
 20
22.5764
 30
0.0
 11
0.0757922
 21
22.5764
 31
0.0
  0
LINE
  5
1eb
100
AcDbEntity
  8
0
100
AcDbLine
 62
     253
 10
0.0757922
 20
10.0762
 30
0.0
 11
5.07668
 21
10.0762
 31
0.0
  0
LINE
  5
1ec
100
AcDbEntity
  8
0
100
AcDbLine
 62
     253
 10
0.0757922
 20
10.0762
 30
0.0
 11
5.07668
 21
10.0762
 31
0.0
  0
LINE
  5
1ed
100
AcDbEntity
  8
0
100
AcDbLine
 62
     253
 10
3.82545
 20
7.92649
 30
0.0
 11
1.32567
 21
7.92649
 31
0.0
  0
LINE
  5
1ee
100
AcDbEntity
  8
0
100
AcDbLine
 62
     253
 10
1.32567
 20
7.92649
 30
0.0
 11
3.82545
 21
7.92649
 31
0.0
  0
LINE
  5
1ef
100
AcDbEntity
  8
0
100
AcDbLine
 62
     253
 10
3.82545
 20
7.92649
 30
0.0
 11
3.82545
 21
25.0762
 31
0.0
  0
LINE
  5
1f0
100
AcDbEntity
  8
0
100
AcDbLine
 62
     253
 10
0.0757922
 20
0.0757922
 30
0.0
 11
5.07668
 21
0.0757922
 31
0.0
  0
LINE
  5
1f1
100
AcDbEntity
  8
0
100
AcDbLine
 62
     253
 10
0.0757922
 20
25.0762
 30
0.0
 11
0.0757922
 21
22.5764
 31
0.0
  0
LINE
  5
1f2
100
AcDbEntity
  8
0
100
AcDbLine
 62
     253
 10
0.0757922
 20
22.5764
 30
0.0
 11
0.0757922
 21
2.57555
 31
0.0
  0
LINE
  5
1f3
100
AcDbEntity
  8
0
100
AcDbLine
 62
     253
 10
0.0757922
 20
0.0757922
 30
0.0
 11
0.0757922
 21
2.57555
 31
0.0
  0
LINE
  5
1f4
100
AcDbEntity
  8
0
100
AcDbLine
 62
     253
 10
0.0757922
 20
10.0762
 30
0.0
 11
0.0757922
 21
15.0757
 31
0.0
  0
LINE
  5
1f5
100
AcDbEntity
  8
0
100
AcDbLine
 62
     253
 10
0.0757922
 20
15.0757
 30
0.0
 11
0.0757922
 21
10.0762
 31
0.0
  0
LINE
  5
1f6
100
AcDbEntity
  8
0
100
AcDbLine
 62
     253
 10
0.0757922
 20
10.0762
 30
0.0
 11
0.0757922
 21
15.0757
 31
0.0
  0
LINE
  5
1f7
100
AcDbEntity
  8
0
100
AcDbLine
 62
     253
 10
0.0757922
 20
15.0757
 30
0.0
 11
0.0757922
 21
10.0762
 31
0.0
  0
LINE
  5
1f8
100
AcDbEntity
  8
0
100
AcDbLine
 62
     253
 10
0.0757922
 20
2.57555
 30
0.0
 11
5.07668
 21
2.57555
 31
0.0
  0
LINE
  5
1f9
100
AcDbEntity
  8
0
100
AcDbLine
 62
     253
 10
5.07668
 20
0.0757922
 30
0.0
 11
5.07668
 21
2.57555
 31
0.0
  0
LINE
  5
1fa
100
AcDbEntity
  8
0
100
AcDbLine
 62
     253
 10
5.07668
 20
2.57555
 30
0.0
 11
5.07668
 21
22.5764
 31
0.0
  0
LINE
  5
1fb
100
AcDbEntity
  8
0
100
AcDbLine
 62
     253
 10
5.07668
 20
25.0762
 30
0.0
 11
5.07668
 21
22.5764
 31
0.0
  0
LINE
  5
1fc
100
AcDbEntity
  8
0
100
AcDbLine
 62
     253
 10
5.07668
 20
10.0762
 30
0.0
 11
5.07668
 21
15.0757
 31
0.0
  0
LINE
  5
1fd
100
AcDbEntity
  8
0
100
AcDbLine
 62
     253
 10
5.07668
 20
15.0757
 30
0.0
 11
5.07668
 21
10.0762
 31
0.0
  0
LINE
  5
1fe
100
AcDbEntity
  8
0
100
AcDbLine
 62
     253
 10
5.07668
 20
10.0762
 30
0.0
 11
5.07668
 21
15.0757
 31
0.0
  0
LINE
  5
1ff
100
AcDbEntity
  8
0
100
AcDbLine
 62
     253
 10
5.07668
 20
15.0757
 30
0.0
 11
5.07668
 21
10.0762
 31
0.0
  0
LINE
  5
200
100
AcDbEntity
  8
0
100
AcDbLine
 62
     253
 10
5.07668
 20
25.0762
 30
0.0
 11
0.0757922
 21
25.0762
 31
0.0
  0
SPLINE
  5
201
100
AcDbEntity
  8
0
100
AcDbSpline
210
0.0
220
0.0
230
1.0
 62
     253
 70
     0
 71
     3
 72
     8
 73
4
 40
0.0
 40
0.0
 40
0.0
 40
0.0
 40
1.0
 40
1.0
 40
1.0
 40
1.0
 10
3.82545
 20
25.0762
 30
0.0
 10
3.8282
 20
25.0762
 30
0.0
 10
3.64628
 20
25.0762
 30
0.0
 10
3.34863
 20
25.0762
 30
0.0
  0
SPLINE
  5
202
100
AcDbEntity
  8
0
100
AcDbSpline
210
0.0
220
0.0
230
1.0
 62
     253
 70
     0
 71
     3
 72
     8
 73
4
 40
0.0
 40
0.0
 40
0.0
 40
0.0
 40
1.0
 40
1.0
 40
1.0
 40
1.0
 10
3.34863
 20
25.0762
 30
0.0
 10
3.14744
 20
25.0762
 30
0.0
 10
2.89526
 20
25.0762
 30
0.0
 10
2.63894
 20
25.0762
 30
0.0
  0
SPLINE
  5
203
100
AcDbEntity
  8
0
100
AcDbSpline
210
0.0
220
0.0
230
1.0
 62
     253
 70
     0
 71
     3
 72
     8
 73
4
 40
0.0
 40
0.0
 40
0.0
 40
0.0
 40
1.0
 40
1.0
 40
1.0
 40
1.0
 10
2.63894
 20
25.0762
 30
0.0
 10
2.33302
 20
25.0762
 30
0.0
 10
2.02158
 20
25.0762
 30
0.0
 10
1.78594
 20
25.0762
 30
0.0
  0
SPLINE
  5
204
100
AcDbEntity
  8
0
100
AcDbSpline
210
0.0
220
0.0
230
1.0
 62
     253
 70
     0
 71
     3
 72
     8
 73
4
 40
0.0
 40
0.0
 40
0.0
 40
0.0
 40
1.0
 40
1.0
 40
1.0
 40
1.0
 10
1.78594
 20
25.0762
 30
0.0
 10
1.49793
 20
25.0762
 30
0.0
 10
1.3243
 20
25.0762
 30
0.0
 10
1.32567
 20
25.0762
 30
0.0
  0
SPLINE
  5
205
100
AcDbEntity
  8
0
100
AcDbSpline
210
0.0
220
0.0
230
1.0
 62
     253
 70
     0
 71
     3
 72
     8
 73
4
 40
0.0
 40
0.0
 40
0.0
 40
0.0
 40
1.0
 40
1.0
 40
1.0
 40
1.0
 10
1.32567
 20
25.0762
 30
0.0
 10
1.3243
 20
25.0762
 30
0.0
 10
1.44832
 20
25.0762
 30
0.0
 10
1.66467
 20
25.0762
 30
0.0
  0
SPLINE
  5
206
100
AcDbEntity
  8
0
100
AcDbSpline
210
0.0
220
0.0
230
1.0
 62
     253
 70
     0
 71
     3
 72
     8
 73
4
 40
0.0
 40
0.0
 40
0.0
 40
0.0
 40
1.0
 40
1.0
 40
1.0
 40
1.0
 10
1.66467
 20
25.0762
 30
0.0
 10
1.87275
 20
25.0762
 30
0.0
 10
2.16352
 20
25.0762
 30
0.0
 10
2.46669
 20
25.0762
 30
0.0
  0
SPLINE
  5
207
100
AcDbEntity
  8
0
100
AcDbSpline
210
0.0
220
0.0
230
1.0
 62
     253
 70
     0
 71
     3
 72
     8
 73
4
 40
0.0
 40
0.0
 40
0.0
 40
0.0
 40
1.0
 40
1.0
 40
1.0
 40
1.0
 10
2.46669
 20
25.0762
 30
0.0
 10
2.84289
 20
25.0762
 30
0.0
 10
3.23012
 20
25.0762
 30
0.0
 10
3.48782
 20
25.0762
 30
0.0
  0
SPLINE
  5
208
100
AcDbEntity
  8
0
100
AcDbSpline
210
0.0
220
0.0
230
1.0
 62
     253
 70
     0
 71
     3
 72
     8
 73
4
 40
0.0
 40
0.0
 40
0.0
 40
0.0
 40
1.0
 40
1.0
 40
1.0
 40
1.0
 10
3.48782
 20
25.0762
 30
0.0
 10
3.70279
 20
25.0762
 30
0.0
 10
3.82683
 20
25.0762
 30
0.0
 10
3.82545
 20
25.0762
 30
0.0
  0
LINE
  5
209
100
AcDbEntity
  8
0
100
AcDbLine
 62
     253
 10
5.07668
 20
22.5764
 30
0.0
 11
0.0757922
 21
22.5764
 31
0.0
  0
LINE
  5
20a
100
AcDbEntity
  8
0
100
AcDbLine
 62
     253
 10
0.0757922
 20
10.0762
 30
0.0
 11
5.07668
 21
10.0762
 31
0.0
  0
LINE
  5
20b
100
AcDbEntity
  8
0
100
AcDbLine
 62
     253
 10
0.0757922
 20
10.0762
 30
0.0
 11
5.07668
 21
10.0762
 31
0.0
  0
LINE
  5
20c
100
AcDbEntity
  8
0
100
AcDbLine
 62
     253
 10
3.82545
 20
7.92649
 30
0.0
 11
1.32567
 21
7.92649
 31
0.0
  0
LINE
  5
20d
100
AcDbEntity
  8
0
100
AcDbLine
 62
     253
 10
1.32567
 20
7.92649
 30
0.0
 11
3.82545
 21
7.92649
 31
0.0
  0
LINE
  5
20e
100
AcDbEntity
  8
0
100
AcDbLine
 62
     253
 10
3.82545
 20
7.92649
 30
0.0
 11
3.82545
 21
25.0762
 31
0.0
  0
LINE
  5
20f
100
AcDbEntity
  8
0
100
AcDbLine
 62
     253
 10
5.07668
 20
15.0757
 30
0.0
 11
0.0757922
 21
15.0757
 31
0.0
  0
LINE
  5
210
100
AcDbEntity
  8
0
100
AcDbLine
 62
     253
 10
5.07668
 20
15.0757
 30
0.0
 11
0.0757922
 21
15.0757
 31
0.0
  0
LINE
  5
211
100
AcDbEntity
  8
0
100
AcDbLine
 62
     253
 10
1.32567
 20
7.92649
 30
0.0
 11
1.32567
 21
25.0762
 31
0.0
  0
LINE
  5
212
100
AcDbEntity
  8
0
100
AcDbLine
 62
     253
 10
5.07668
 20
15.0757
 30
0.0
 11
0.0757922
 21
15.0757
 31
0.0
  0
LINE
  5
213
100
AcDbEntity
  8
0
100
AcDbLine
 62
     253
 10
5.07668
 20
15.0757
 30
0.0
 11
0.0757922
 21
15.0757
 31
0.0
  0
LINE
  5
214
100
AcDbEntity
  8
0
100
AcDbLine
 62
     253
 10
1.32567
 20
7.92649
 30
0.0
 11
1.32567
 21
25.0762
 31
0.0
  0
LINE
  5
215
100
AcDbEntity
  8
0
100
AcDbLine
 62
     253
 10
154.591
 20
63.3607
 30
0.0
 11
146.385
 21
70.9277
 31
0.0
  0
LINE
  5
216
100
AcDbEntity
  8
0
100
AcDbLine
 62
     253
 10
145.358
 20
74.1482
 30
0.0
 11
146.385
 21
70.9277
 31
0.0
  0
LINE
  5
217
100
AcDbEntity
  8
0
100
AcDbLine
 62
     253
 10
145.358
 20
110.544
 30
0.0
 11
146.385
 21
111.873
 31
0.0
  0
LINE
  5
218
100
AcDbEntity
  8
0
100
AcDbLine
 62
     253
 10
145.358
 20
74.1482
 30
0.0
 11
145.358
 21
110.544
 31
0.0
  0
SPLINE
  5
219
100
AcDbEntity
  8
0
100
AcDbSpline
210
0.0
220
0.0
230
1.0
 62
     253
 70
     0
 71
     3
 72
     8
 73
4
 40
0.0
 40
0.0
 40
0.0
 40
0.0
 40
1.0
 40
1.0
 40
1.0
 40
1.0
 10
151.514
 20
96.9077
 30
0.0
 10
151.514
 20
97.6962
 30
0.0
 10
151.329
 20
98.5972
 30
0.0
 10
151.027
 20
99.2904
 30
0.0
  0
SPLINE
  5
21a
100
AcDbEntity
  8
0
100
AcDbSpline
210
0.0
220
0.0
230
1.0
 62
     253
 70
     0
 71
     3
 72
     8
 73
4
 40
0.0
 40
0.0
 40
0.0
 40
0.0
 40
1.0
 40
1.0
 40
1.0
 40
1.0
 10
151.027
 20
99.2904
 30
0.0
 10
150.724
 20
99.9836
 30
0.0
 10
150.347
 20
100.37
 30
0.0
 10
150.028
 20
100.31
 30
0.0
  0
SPLINE
  5
21b
100
AcDbEntity
  8
0
100
AcDbSpline
210
0.0
220
0.0
230
1.0
 62
     253
 70
     0
 71
     3
 72
     8
 73
4
 40
0.0
 40
0.0
 40
0.0
 40
0.0
 40
1.0
 40
1.0
 40
1.0
 40
1.0
 10
150.028
 20
100.31
 30
0.0
 10
149.523
 20
100.216
 30
0.0
 10
149.317
 20
99.0395
 30
0.0
 10
149.571
 20
97.6824
 30
0.0
  0
SPLINE
  5
21c
100
AcDbEntity
  8
0
100
AcDbSpline
210
0.0
220
0.0
230
1.0
 62
     253
 70
     0
 71
     3
 72
     8
 73
4
 40
0.0
 40
0.0
 40
0.0
 40
0.0
 40
1.0
 40
1.0
 40
1.0
 40
1.0
 10
149.571
 20
97.6824
 30
0.0
 10
149.823
 20
96.3249
 30
0.0
 10
150.44
 20
95.3011
 30
0.0
 10
150.946
 20
95.3961
 30
0.0
  0
SPLINE
  5
21d
100
AcDbEntity
  8
0
100
AcDbSpline
210
0.0
220
0.0
230
1.0
 62
     253
 70
     0
 71
     3
 72
     8
 73
4
 40
0.0
 40
0.0
 40
0.0
 40
0.0
 40
1.0
 40
1.0
 40
1.0
 40
1.0
 10
150.946
 20
95.3961
 30
0.0
 10
151.295
 20
95.461
 30
0.0
 10
151.514
 20
96.0452
 30
0.0
 10
151.514
 20
96.9077
 30
0.0
  0
SPLINE
  5
21e
100
AcDbEntity
  8
0
100
AcDbSpline
210
0.0
220
0.0
230
1.0
 62
     253
 70
     0
 71
     3
 72
     8
 73
4
 40
0.0
 40
0.0
 40
0.0
 40
0.0
 40
1.0
 40
1.0
 40
1.0
 40
1.0
 10
151.514
 20
76.4357
 30
0.0
 10
151.514
 20
77.2238
 30
0.0
 10
151.329
 20
78.1251
 30
0.0
 10
151.027
 20
78.8183
 30
0.0
  0
SPLINE
  5
21f
100
AcDbEntity
  8
0
100
AcDbSpline
210
0.0
220
0.0
230
1.0
 62
     253
 70
     0
 71
     3
 72
     8
 73
4
 40
0.0
 40
0.0
 40
0.0
 40
0.0
 40
1.0
 40
1.0
 40
1.0
 40
1.0
 10
151.027
 20
78.8183
 30
0.0
 10
150.724
 20
79.5115
 30
0.0
 10
150.347
 20
79.8971
 30
0.0
 10
150.028
 20
79.8382
 30
0.0
  0
SPLINE
  5
220
100
AcDbEntity
  8
0
100
AcDbSpline
210
0.0
220
0.0
230
1.0
 62
     253
 70
     0
 71
     3
 72
     8
 73
4
 40
0.0
 40
0.0
 40
0.0
 40
0.0
 40
1.0
 40
1.0
 40
1.0
 40
1.0
 10
150.028
 20
79.8382
 30
0.0
 10
149.523
 20
79.7444
 30
0.0
 10
149.317
 20
78.5675
 30
0.0
 10
149.571
 20
77.21
 30
0.0
  0
SPLINE
  5
221
100
AcDbEntity
  8
0
100
AcDbSpline
210
0.0
220
0.0
230
1.0
 62
     253
 70
     0
 71
     3
 72
     8
 73
4
 40
0.0
 40
0.0
 40
0.0
 40
0.0
 40
1.0
 40
1.0
 40
1.0
 40
1.0
 10
149.571
 20
77.21
 30
0.0
 10
149.823
 20
75.8529
 30
0.0
 10
150.44
 20
74.8288
 30
0.0
 10
150.946
 20
74.924
 30
0.0
  0
SPLINE
  5
222
100
AcDbEntity
  8
0
100
AcDbSpline
210
0.0
220
0.0
230
1.0
 62
     253
 70
     0
 71
     3
 72
     8
 73
4
 40
0.0
 40
0.0
 40
0.0
 40
0.0
 40
1.0
 40
1.0
 40
1.0
 40
1.0
 10
150.946
 20
74.924
 30
0.0
 10
151.295
 20
74.9886
 30
0.0
 10
151.514
 20
75.5731
 30
0.0
 10
151.514
 20
76.4357
 30
0.0
  0
LINE
  5
223
100
AcDbEntity
  8
0
100
AcDbLine
 62
     253
 10
145.358
 20
74.1482
 30
0.0
 11
140.798
 21
73.2977
 31
0.0
  0
LINE
  5
224
100
AcDbEntity
  8
0
100
AcDbLine
 62
     253
 10
145.358
 20
110.544
 30
0.0
 11
140.798
 21
109.692
 31
0.0
  0
SPLINE
  5
225
100
AcDbEntity
  8
0
100
AcDbSpline
210
0.0
220
0.0
230
1.0
 62
     253
 70
     0
 71
     3
 72
     8
 73
4
 40
0.0
 40
0.0
 40
0.0
 40
0.0
 40
1.0
 40
1.0
 40
1.0
 40
1.0
 10
144.219
 20
92.1329
 30
0.0
 10
144.22
 20
91.7896
 30
0.0
 10
144.055
 20
91.4192
 30
0.0
 10
143.783
 20
91.1571
 30
0.0
  0
SPLINE
  5
226
100
AcDbEntity
  8
0
100
AcDbSpline
210
0.0
220
0.0
230
1.0
 62
     253
 70
     0
 71
     3
 72
     8
 73
4
 40
0.0
 40
0.0
 40
0.0
 40
0.0
 40
1.0
 40
1.0
 40
1.0
 40
1.0
 10
143.783
 20
91.1571
 30
0.0
 10
143.544
 20
90.9228
 30
0.0
 10
143.225
 20
90.7782
 30
0.0
 10
142.922
 20
90.7644
 30
0.0
  0
SPLINE
  5
227
100
AcDbEntity
  8
0
100
AcDbSpline
210
0.0
220
0.0
230
1.0
 62
     253
 70
     0
 71
     3
 72
     8
 73
4
 40
0.0
 40
0.0
 40
0.0
 40
0.0
 40
1.0
 40
1.0
 40
1.0
 40
1.0
 10
142.922
 20
90.7644
 30
0.0
 10
142.657
 20
90.7507
 30
0.0
 10
142.409
 20
90.836
 30
0.0
 10
142.232
 20
91.0015
 30
0.0
  0
SPLINE
  5
228
100
AcDbEntity
  8
0
100
AcDbSpline
210
0.0
220
0.0
230
1.0
 62
     253
 70
     0
 71
     3
 72
     8
 73
4
 40
0.0
 40
0.0
 40
0.0
 40
0.0
 40
1.0
 40
1.0
 40
1.0
 40
1.0
 10
142.232
 20
91.0015
 30
0.0
 10
142.037
 20
91.1779
 30
0.0
 10
141.931
 20
91.4467
 30
0.0
 10
141.939
 20
91.736
 30
0.0
  0
SPLINE
  5
229
100
AcDbEntity
  8
0
100
AcDbSpline
210
0.0
220
0.0
230
1.0
 62
     253
 70
     0
 71
     3
 72
     8
 73
4
 40
0.0
 40
0.0
 40
0.0
 40
0.0
 40
1.0
 40
1.0
 40
1.0
 40
1.0
 10
141.939
 20
91.736
 30
0.0
 10
141.945
 20
92.0143
 30
0.0
 10
142.057
 20
92.3078
 30
0.0
 10
142.248
 20
92.5435
 30
0.0
  0
SPLINE
  5
22a
100
AcDbEntity
  8
0
100
AcDbSpline
210
0.0
220
0.0
230
1.0
 62
     253
 70
     0
 71
     3
 72
     8
 73
4
 40
0.0
 40
0.0
 40
0.0
 40
0.0
 40
1.0
 40
1.0
 40
1.0
 40
1.0
 10
142.248
 20
92.5435
 30
0.0
 10
142.482
 20
92.8398
 30
0.0
 10
142.835
 20
93.0409
 30
0.0
 10
143.178
 20
93.0727
 30
0.0
  0
SPLINE
  5
22b
100
AcDbEntity
  8
0
100
AcDbSpline
210
0.0
220
0.0
230
1.0
 62
     253
 70
     0
 71
     3
 72
     8
 73
4
 40
0.0
 40
0.0
 40
0.0
 40
0.0
 40
1.0
 40
1.0
 40
1.0
 40
1.0
 10
143.178
 20
93.0727
 30
0.0
 10
143.463
 20
93.1016
 30
0.0
 10
143.736
 20
93.0162
 30
0.0
 10
143.926
 20
92.8398
 30
0.0
  0
SPLINE
  5
22c
100
AcDbEntity
  8
0
100
AcDbSpline
210
0.0
220
0.0
230
1.0
 62
     253
 70
     0
 71
     3
 72
     8
 73
4
 40
0.0
 40
0.0
 40
0.0
 40
0.0
 40
1.0
 40
1.0
 40
1.0
 40
1.0
 10
143.926
 20
92.8398
 30
0.0
 10
144.113
 20
92.6691
 30
0.0
 10
144.22
 20
92.4112
 30
0.0
 10
144.219
 20
92.1329
 30
0.0
  0
LINE
  5
22d
100
AcDbEntity
  8
0
100
AcDbLine
 62
     253
 10
146.385
 20
70.9277
 30
0.0
 11
141.825
 21
70.0775
 31
0.0
  0
SPLINE
  5
22e
100
AcDbEntity
  8
0
100
AcDbSpline
210
0.0
220
0.0
230
1.0
 62
     253
 70
     0
 71
     3
 72
     8
 73
4
 40
0.0
 40
0.0
 40
0.0
 40
0.0
 40
1.0
 40
1.0
 40
1.0
 40
1.0
 10
151.256
 20
85.6449
 30
0.0
 10
151.256
 20
85.9261
 30
0.0
 10
151.152
 20
86.1769
 30
0.0
 10
150.964
 20
86.3505
 30
0.0
  0
SPLINE
  5
22f
100
AcDbEntity
  8
0
100
AcDbSpline
210
0.0
220
0.0
230
1.0
 62
     253
 70
     0
 71
     3
 72
     8
 73
4
 40
0.0
 40
0.0
 40
0.0
 40
0.0
 40
1.0
 40
1.0
 40
1.0
 40
1.0
 10
150.964
 20
86.3505
 30
0.0
 10
150.542
 20
86.7392
 30
0.0
 10
149.822
 20
86.6429
 30
0.0
 10
149.353
 20
86.1356
 30
0.0
  0
SPLINE
  5
230
100
AcDbEntity
  8
0
100
AcDbSpline
210
0.0
220
0.0
230
1.0
 62
     253
 70
     0
 71
     3
 72
     8
 73
4
 40
0.0
 40
0.0
 40
0.0
 40
0.0
 40
1.0
 40
1.0
 40
1.0
 40
1.0
 10
149.353
 20
86.1356
 30
0.0
 10
148.886
 20
85.6273
 30
0.0
 10
148.848
 20
84.9009
 30
0.0
 10
149.269
 20
84.5136
 30
0.0
  0
SPLINE
  5
231
100
AcDbEntity
  8
0
100
AcDbSpline
210
0.0
220
0.0
230
1.0
 62
     253
 70
     0
 71
     3
 72
     8
 73
4
 40
0.0
 40
0.0
 40
0.0
 40
0.0
 40
1.0
 40
1.0
 40
1.0
 40
1.0
 10
149.269
 20
84.5136
 30
0.0
 10
149.585
 20
84.2215
 30
0.0
 10
150.084
 20
84.1954
 30
0.0
 10
150.525
 20
84.4462
 30
0.0
  0
SPLINE
  5
232
100
AcDbEntity
  8
0
100
AcDbSpline
210
0.0
220
0.0
230
1.0
 62
     253
 70
     0
 71
     3
 72
     8
 73
4
 40
0.0
 40
0.0
 40
0.0
 40
0.0
 40
1.0
 40
1.0
 40
1.0
 40
1.0
 10
150.525
 20
84.4462
 30
0.0
 10
150.966
 20
84.697
 30
0.0
 10
151.256
 20
85.174
 30
0.0
 10
151.256
 20
85.6449
 30
0.0
  0
LINE
  5
233
100
AcDbEntity
  8
0
100
AcDbLine
 62
     253
 10
154.591
 20
165.723
 30
0.0
 11
146.385
 21
173.29
 31
0.0
  0
LINE
  5
234
100
AcDbEntity
  8
0
100
AcDbLine
 62
     253
 10
145.358
 20
176.51
 30
0.0
 11
146.385
 21
173.29
 31
0.0
  0
LINE
  5
235
100
AcDbEntity
  8
0
100
AcDbLine
 62
     253
 10
145.358
 20
212.906
 30
0.0
 11
146.385
 21
214.234
 31
0.0
  0
LINE
  5
236
100
AcDbEntity
  8
0
100
AcDbLine
 62
     253
 10
145.358
 20
176.51
 30
0.0
 11
145.358
 21
212.906
 31
0.0
  0
SPLINE
  5
237
100
AcDbEntity
  8
0
100
AcDbSpline
210
0.0
220
0.0
230
1.0
 62
     253
 70
     0
 71
     3
 72
     8
 73
4
 40
0.0
 40
0.0
 40
0.0
 40
0.0
 40
1.0
 40
1.0
 40
1.0
 40
1.0
 10
151.514
 20
178.796
 30
0.0
 10
151.514
 20
179.585
 30
0.0
 10
151.329
 20
180.487
 30
0.0
 10
151.027
 20
181.18
 30
0.0
  0
SPLINE
  5
238
100
AcDbEntity
  8
0
100
AcDbSpline
210
0.0
220
0.0
230
1.0
 62
     253
 70
     0
 71
     3
 72
     8
 73
4
 40
0.0
 40
0.0
 40
0.0
 40
0.0
 40
1.0
 40
1.0
 40
1.0
 40
1.0
 10
151.027
 20
181.18
 30
0.0
 10
150.724
 20
181.874
 30
0.0
 10
150.347
 20
182.259
 30
0.0
 10
150.028
 20
182.2
 30
0.0
  0
SPLINE
  5
239
100
AcDbEntity
  8
0
100
AcDbSpline
210
0.0
220
0.0
230
1.0
 62
     253
 70
     0
 71
     3
 72
     8
 73
4
 40
0.0
 40
0.0
 40
0.0
 40
0.0
 40
1.0
 40
1.0
 40
1.0
 40
1.0
 10
150.028
 20
182.2
 30
0.0
 10
149.523
 20
182.105
 30
0.0
 10
149.317
 20
180.928
 30
0.0
 10
149.571
 20
179.571
 30
0.0
  0
SPLINE
  5
23a
100
AcDbEntity
  8
0
100
AcDbSpline
210
0.0
220
0.0
230
1.0
 62
     253
 70
     0
 71
     3
 72
     8
 73
4
 40
0.0
 40
0.0
 40
0.0
 40
0.0
 40
1.0
 40
1.0
 40
1.0
 40
1.0
 10
149.571
 20
179.571
 30
0.0
 10
149.823
 20
178.213
 30
0.0
 10
150.44
 20
177.191
 30
0.0
 10
150.946
 20
177.285
 30
0.0
  0
SPLINE
  5
23b
100
AcDbEntity
  8
0
100
AcDbSpline
210
0.0
220
0.0
230
1.0
 62
     253
 70
     0
 71
     3
 72
     8
 73
4
 40
0.0
 40
0.0
 40
0.0
 40
0.0
 40
1.0
 40
1.0
 40
1.0
 40
1.0
 10
150.946
 20
177.285
 30
0.0
 10
151.295
 20
177.35
 30
0.0
 10
151.514
 20
177.935
 30
0.0
 10
151.514
 20
178.796
 30
0.0
  0
SPLINE
  5
23c
100
AcDbEntity
  8
0
100
AcDbSpline
210
0.0
220
0.0
230
1.0
 62
     253
 70
     0
 71
     3
 72
     8
 73
4
 40
0.0
 40
0.0
 40
0.0
 40
0.0
 40
1.0
 40
1.0
 40
1.0
 40
1.0
 10
151.514
 20
199.268
 30
0.0
 10
151.514
 20
200.057
 30
0.0
 10
151.329
 20
200.959
 30
0.0
 10
151.027
 20
201.652
 30
0.0
  0
SPLINE
  5
23d
100
AcDbEntity
  8
0
100
AcDbSpline
210
0.0
220
0.0
230
1.0
 62
     253
 70
     0
 71
     3
 72
     8
 73
4
 40
0.0
 40
0.0
 40
0.0
 40
0.0
 40
1.0
 40
1.0
 40
1.0
 40
1.0
 10
151.027
 20
201.652
 30
0.0
 10
150.724
 20
202.346
 30
0.0
 10
150.347
 20
202.732
 30
0.0
 10
150.028
 20
202.672
 30
0.0
  0
SPLINE
  5
23e
100
AcDbEntity
  8
0
100
AcDbSpline
210
0.0
220
0.0
230
1.0
 62
     253
 70
     0
 71
     3
 72
     8
 73
4
 40
0.0
 40
0.0
 40
0.0
 40
0.0
 40
1.0
 40
1.0
 40
1.0
 40
1.0
 10
150.028
 20
202.672
 30
0.0
 10
149.523
 20
202.577
 30
0.0
 10
149.317
 20
201.4
 30
0.0
 10
149.571
 20
200.043
 30
0.0
  0
SPLINE
  5
23f
100
AcDbEntity
  8
0
100
AcDbSpline
210
0.0
220
0.0
230
1.0
 62
     253
 70
     0
 71
     3
 72
     8
 73
4
 40
0.0
 40
0.0
 40
0.0
 40
0.0
 40
1.0
 40
1.0
 40
1.0
 40
1.0
 10
149.571
 20
200.043
 30
0.0
 10
149.823
 20
198.686
 30
0.0
 10
150.44
 20
197.663
 30
0.0
 10
150.946
 20
197.757
 30
0.0
  0
SPLINE
  5
240
100
AcDbEntity
  8
0
100
AcDbSpline
210
0.0
220
0.0
230
1.0
 62
     253
 70
     0
 71
     3
 72
     8
 73
4
 40
0.0
 40
0.0
 40
0.0
 40
0.0
 40
1.0
 40
1.0
 40
1.0
 40
1.0
 10
150.946
 20
197.757
 30
0.0
 10
151.295
 20
197.822
 30
0.0
 10
151.514
 20
198.407
 30
0.0
 10
151.514
 20
199.268
 30
0.0
  0
LINE
  5
241
100
AcDbEntity
  8
0
100
AcDbLine
 62
     253
 10
145.358
 20
176.51
 30
0.0
 11
140.798
 21
175.659
 31
0.0
  0
LINE
  5
242
100
AcDbEntity
  8
0
100
AcDbLine
 62
     253
 10
145.358
 20
212.906
 30
0.0
 11
140.798
 21
212.054
 31
0.0
  0
SPLINE
  5
243
100
AcDbEntity
  8
0
100
AcDbSpline
210
0.0
220
0.0
230
1.0
 62
     253
 70
     0
 71
     3
 72
     8
 73
4
 40
0.0
 40
0.0
 40
0.0
 40
0.0
 40
1.0
 40
1.0
 40
1.0
 40
1.0
 10
144.219
 20
194.495
 30
0.0
 10
144.22
 20
194.152
 30
0.0
 10
144.055
 20
193.781
 30
0.0
 10
143.783
 20
193.519
 30
0.0
  0
SPLINE
  5
244
100
AcDbEntity
  8
0
100
AcDbSpline
210
0.0
220
0.0
230
1.0
 62
     253
 70
     0
 71
     3
 72
     8
 73
4
 40
0.0
 40
0.0
 40
0.0
 40
0.0
 40
1.0
 40
1.0
 40
1.0
 40
1.0
 10
143.783
 20
193.519
 30
0.0
 10
143.544
 20
193.285
 30
0.0
 10
143.225
 20
193.139
 30
0.0
 10
142.922
 20
193.126
 30
0.0
  0
SPLINE
  5
245
100
AcDbEntity
  8
0
100
AcDbSpline
210
0.0
220
0.0
230
1.0
 62
     253
 70
     0
 71
     3
 72
     8
 73
4
 40
0.0
 40
0.0
 40
0.0
 40
0.0
 40
1.0
 40
1.0
 40
1.0
 40
1.0
 10
142.922
 20
193.126
 30
0.0
 10
142.657
 20
193.113
 30
0.0
 10
142.409
 20
193.198
 30
0.0
 10
142.232
 20
193.363
 30
0.0
  0
SPLINE
  5
246
100
AcDbEntity
  8
0
100
AcDbSpline
210
0.0
220
0.0
230
1.0
 62
     253
 70
     0
 71
     3
 72
     8
 73
4
 40
0.0
 40
0.0
 40
0.0
 40
0.0
 40
1.0
 40
1.0
 40
1.0
 40
1.0
 10
142.232
 20
193.363
 30
0.0
 10
142.037
 20
193.54
 30
0.0
 10
141.931
 20
193.809
 30
0.0
 10
141.939
 20
194.098
 30
0.0
  0
SPLINE
  5
247
100
AcDbEntity
  8
0
100
AcDbSpline
210
0.0
220
0.0
230
1.0
 62
     253
 70
     0
 71
     3
 72
     8
 73
4
 40
0.0
 40
0.0
 40
0.0
 40
0.0
 40
1.0
 40
1.0
 40
1.0
 40
1.0
 10
141.939
 20
194.098
 30
0.0
 10
141.945
 20
194.375
 30
0.0
 10
142.057
 20
194.668
 30
0.0
 10
142.248
 20
194.905
 30
0.0
  0
SPLINE
  5
248
100
AcDbEntity
  8
0
100
AcDbSpline
210
0.0
220
0.0
230
1.0
 62
     253
 70
     0
 71
     3
 72
     8
 73
4
 40
0.0
 40
0.0
 40
0.0
 40
0.0
 40
1.0
 40
1.0
 40
1.0
 40
1.0
 10
142.248
 20
194.905
 30
0.0
 10
142.482
 20
195.202
 30
0.0
 10
142.835
 20
195.402
 30
0.0
 10
143.178
 20
195.433
 30
0.0
  0
SPLINE
  5
249
100
AcDbEntity
  8
0
100
AcDbSpline
210
0.0
220
0.0
230
1.0
 62
     253
 70
     0
 71
     3
 72
     8
 73
4
 40
0.0
 40
0.0
 40
0.0
 40
0.0
 40
1.0
 40
1.0
 40
1.0
 40
1.0
 10
143.178
 20
195.433
 30
0.0
 10
143.463
 20
195.462
 30
0.0
 10
143.736
 20
195.378
 30
0.0
 10
143.926
 20
195.2
 30
0.0
  0
SPLINE
  5
24a
100
AcDbEntity
  8
0
100
AcDbSpline
210
0.0
220
0.0
230
1.0
 62
     253
 70
     0
 71
     3
 72
     8
 73
4
 40
0.0
 40
0.0
 40
0.0
 40
0.0
 40
1.0
 40
1.0
 40
1.0
 40
1.0
 10
143.926
 20
195.2
 30
0.0
 10
144.113
 20
195.03
 30
0.0
 10
144.22
 20
194.773
 30
0.0
 10
144.219
 20
194.495
 30
0.0
  0
LINE
  5
24b
100
AcDbEntity
  8
0
100
AcDbLine
 62
     253
 10
146.385
 20
173.29
 30
0.0
 11
141.825
 21
172.438
 31
0.0
  0
SPLINE
  5
24c
100
AcDbEntity
  8
0
100
AcDbSpline
210
0.0
220
0.0
230
1.0
 62
     253
 70
     0
 71
     3
 72
     8
 73
4
 40
0.0
 40
0.0
 40
0.0
 40
0.0
 40
1.0
 40
1.0
 40
1.0
 40
1.0
 10
151.256
 20
188.007
 30
0.0
 10
151.256
 20
188.287
 30
0.0
 10
151.152
 20
188.539
 30
0.0
 10
150.964
 20
188.713
 30
0.0
  0
SPLINE
  5
24d
100
AcDbEntity
  8
0
100
AcDbSpline
210
0.0
220
0.0
230
1.0
 62
     253
 70
     0
 71
     3
 72
     8
 73
4
 40
0.0
 40
0.0
 40
0.0
 40
0.0
 40
1.0
 40
1.0
 40
1.0
 40
1.0
 10
150.964
 20
188.713
 30
0.0
 10
150.542
 20
189.101
 30
0.0
 10
149.822
 20
189.005
 30
0.0
 10
149.353
 20
188.496
 30
0.0
  0
SPLINE
  5
24e
100
AcDbEntity
  8
0
100
AcDbSpline
210
0.0
220
0.0
230
1.0
 62
     253
 70
     0
 71
     3
 72
     8
 73
4
 40
0.0
 40
0.0
 40
0.0
 40
0.0
 40
1.0
 40
1.0
 40
1.0
 40
1.0
 10
149.353
 20
188.496
 30
0.0
 10
148.886
 20
187.989
 30
0.0
 10
148.848
 20
187.263
 30
0.0
 10
149.269
 20
186.875
 30
0.0
  0
SPLINE
  5
24f
100
AcDbEntity
  8
0
100
AcDbSpline
210
0.0
220
0.0
230
1.0
 62
     253
 70
     0
 71
     3
 72
     8
 73
4
 40
0.0
 40
0.0
 40
0.0
 40
0.0
 40
1.0
 40
1.0
 40
1.0
 40
1.0
 10
149.269
 20
186.875
 30
0.0
 10
149.585
 20
186.583
 30
0.0
 10
150.084
 20
186.557
 30
0.0
 10
150.525
 20
186.808
 30
0.0
  0
SPLINE
  5
250
100
AcDbEntity
  8
0
100
AcDbSpline
210
0.0
220
0.0
230
1.0
 62
     253
 70
     0
 71
     3
 72
     8
 73
4
 40
0.0
 40
0.0
 40
0.0
 40
0.0
 40
1.0
 40
1.0
 40
1.0
 40
1.0
 10
150.525
 20
186.808
 30
0.0
 10
150.966
 20
187.059
 30
0.0
 10
151.256
 20
187.536
 30
0.0
 10
151.256
 20
188.007
 30
0.0
  0
LINE
  5
251
100
AcDbEntity
  8
0
100
AcDbLine
 62
     253
 10
150.946
 20
95.3961
 30
0.0
 11
146.388
 21
94.5444
 31
0.0
  0
LINE
  5
252
100
AcDbEntity
  8
0
100
AcDbLine
 62
     253
 10
150.028
 20
100.31
 30
0.0
 11
145.47
 21
99.46
 31
0.0
  0
LINE
  5
253
100
AcDbEntity
  8
0
100
AcDbLine
 62
     253
 10
150.946
 20
74.924
 30
0.0
 11
146.388
 21
74.0724
 31
0.0
  0
LINE
  5
254
100
AcDbEntity
  8
0
100
AcDbLine
 62
     253
 10
150.028
 20
79.8382
 30
0.0
 11
145.47
 21
78.9876
 31
0.0
  0
LINE
  5
255
100
AcDbEntity
  8
0
100
AcDbLine
 62
     253
 10
150.964
 20
86.3505
 30
0.0
 11
143.926
 21
92.8398
 31
0.0
  0
LINE
  5
256
100
AcDbEntity
  8
0
100
AcDbLine
 62
     253
 10
149.269
 20
84.5136
 30
0.0
 11
142.232
 21
91.0015
 31
0.0
  0
LINE
  5
257
100
AcDbEntity
  8
0
100
AcDbLine
 62
     253
 10
150.946
 20
177.285
 30
0.0
 11
146.388
 21
176.434
 31
0.0
  0
LINE
  5
258
100
AcDbEntity
  8
0
100
AcDbLine
 62
     253
 10
150.028
 20
182.2
 30
0.0
 11
145.47
 21
181.349
 31
0.0
  0
LINE
  5
259
100
AcDbEntity
  8
0
100
AcDbLine
 62
     253
 10
150.946
 20
197.757
 30
0.0
 11
146.388
 21
196.906
 31
0.0
  0
LINE
  5
25a
100
AcDbEntity
  8
0
100
AcDbLine
 62
     253
 10
150.028
 20
202.672
 30
0.0
 11
145.47
 21
201.821
 31
0.0
  0
LINE
  5
25b
100
AcDbEntity
  8
0
100
AcDbLine
 62
     253
 10
150.964
 20
188.713
 30
0.0
 11
143.926
 21
195.2
 31
0.0
  0
LINE
  5
25c
100
AcDbEntity
  8
0
100
AcDbLine
 62
     253
 10
149.269
 20
186.875
 30
0.0
 11
142.232
 21
193.363
 31
0.0
  0
ENDSEC
  0
SECTION
  2
OBJECTS
  0
DICTIONARY
  5
C
330
0
100
AcDbDictionary
  3
ACAD_GROUP
350
D
  3
ACAD_LAYOUT
350
1A
  3
ACAD_MLINESTYLE
350
17
  3
ACAD_PLOTSETTINGS
350
19
  3
ACAD_PLOTSTYLENAME
350
E
  3
ACDBHEADERROUNDTRIPXREC
350
2F
  0
DICTIONARY
  5
52
330
1F
100
AcDbDictionary
280
     1
  3
ACAD_LAYOUTSELFREF
360
53
  0
DICTIONARY
  5
50
330
1B
100
AcDbDictionary
280
     1
  3
ACAD_LAYOUTSELFREF
360
51
  0
DICTIONARY
  5
D
102
{ACAD_REACTORS
330
C
102
}
330
C
100
AcDbDictionary
  0
DICTIONARY
  5
1A
102
{ACAD_REACTORS
330
C
102
}
330
C
100
AcDbDictionary
  0
DICTIONARY
  5
17
102
{ACAD_REACTORS
330
C
102
}
330
C
100
AcDbDictionary
  3
STANDARD
350
18
  0
DICTIONARY
  5
19
102
{ACAD_REACTORS
330
C
102
}
330
C
100
AcDbDictionary
  0
ACDBDICTIONARYWDFLT
  5
E
102
{ACAD_REACTORS
330
C
102
}
330
C
100
AcDbDictionary
281
     1
  3
Normal
350
F
100
AcDbDictionaryWithDefault
340
F
  0
DICTIONARY
  5
2F
102
{ACAD_REACTORS
330
C
102
}
330
C
100
AcDbDictionary
  3
CEPSNTYPE
350
39
  3
DIMSTYLEDATA
350
3D
  3
FINGERPRINTGUID
350
3A
  3
HYPERLINKBASE
350
32
  3
INSUNITS
350
38
  3
LAYOUTDICT
350
34
  3
LWETCUNION
350
37
  3
PLOTSETDICT
350
35
  3
PLOTSTYLNAMDICT
350
36
  3
PSVPSCALE
350
3C
  3
PUCSBASE
350
40
  3
PUCSORGBACK
350
46
  3
PUCSORGBOTTOM
350
42
  3
PUCSORGFRONT
350
45
  3
PUCSORGLEFT
350
43
  3
PUCSORGRIGHT
350
44
  3
PUCSORGTOP
350
41
  3
PUCSORTHOREF
350
3E
  3
PUCSORTHOVIEW
350
3F
  3
STYLESHEET
350
33
  3
TSTACKALIGN
350
30
  3
TSTACKSIZE
350
31
  3
UCSBASE
350
49
  3
UCSORGBACK
350
4F
  3
UCSORGBOTTOM
350
4B
  3
UCSORGFRONT
350
4E
  3
UCSORGLEFT
350
4C
  3
UCSORGRIGHT
350
4D
  3
UCSORGTOP
350
4A
  3
UCSORTHOREF
350
47
  3
UCSORTHOVIEW
350
48
  3
VERSIONGUID
350
3B
  0
XRECORD
  5
53
102
{ACAD_REACTORS
330
52
102
}
330
52
100
AcDbXrecord
340
1F
  0
XRECORD
  5
51
102
{ACAD_REACTORS
330
50
102
}
330
50
100
AcDbXrecord
340
1B
  0
MLINESTYLE
  5
18
102
{ACAD_REACTORS
330
17
102
}
330
17
100
AcDbMlineStyle
  2
STANDARD
 70
     0
  3

 62
   256
 51
90.0
 52
90.0
 71
     2
 49
0.5
 62
   256
  6
BYLAYER
 49
-0.5
 62
   256
  6
BYLAYER
  0
ACDBPLACEHOLDER
  5
F
102
{ACAD_REACTORS
330
E
102
}
330
E
100
AcDbPlaceHolder
280
     0
  0
XRECORD
  5
39
102
{ACAD_REACTORS
330
2F
102
}
330
2F
100
AcDbXrecord
 90
        0
  0
XRECORD
  5
3D
102
{ACAD_REACTORS
330
2F
102
}
330
2F
100
AcDbXrecord
1000
DSTYLE
1002
{
1070
   278
 70
    44
1002
}
  0
XRECORD
  5
3A
102
{ACAD_REACTORS
330
2F
102
}
330
2F
100
AcDbXrecord
  1
{705446A6-11D0-4548-8F8C-A97DCA50327D}
  0
XRECORD
  5
32
102
{ACAD_REACTORS
330
2F
102
}
330
2F
100
AcDbXrecord
  1

  0
XRECORD
  5
38
102
{ACAD_REACTORS
330
2F
102
}
330
2F
100
AcDbXrecord
 90
        4
  0
XRECORD
  5
34
102
{ACAD_REACTORS
330
2F
102
}
330
2F
100
AcDbXrecord
340
1A
  0
XRECORD
  5
37
102
{ACAD_REACTORS
330
2F
102
}
330
2F
100
AcDbXrecord
 90
    10781
  0
XRECORD
  5
35
102
{ACAD_REACTORS
330
2F
102
}
330
2F
100
AcDbXrecord
340
19
  0
XRECORD
  5
36
102
{ACAD_REACTORS
330
2F
102
}
330
2F
100
AcDbXrecord
340
E
  0
XRECORD
  5
3C
102
{ACAD_REACTORS
330
2F
102
}
330
2F
100
AcDbXrecord
 40
0.0
  0
XRECORD
  5
40
102
{ACAD_REACTORS
330
2F
102
}
330
2F
100
AcDbXrecord
340
0
  0
XRECORD
  5
46
102
{ACAD_REACTORS
330
2F
102
}
330
2F
100
AcDbXrecord
 10
0.0
 20
0.0
 30
0.0
  0
XRECORD
  5
42
102
{ACAD_REACTORS
330
2F
102
}
330
2F
100
AcDbXrecord
 10
0.0
 20
0.0
 30
0.0
  0
XRECORD
  5
45
102
{ACAD_REACTORS
330
2F
102
}
330
2F
100
AcDbXrecord
 10
0.0
 20
0.0
 30
0.0
  0
XRECORD
  5
43
102
{ACAD_REACTORS
330
2F
102
}
330
2F
100
AcDbXrecord
 10
0.0
 20
0.0
 30
0.0
  0
XRECORD
  5
44
102
{ACAD_REACTORS
330
2F
102
}
330
2F
100
AcDbXrecord
 10
0.0
 20
0.0
 30
0.0
  0
XRECORD
  5
41
102
{ACAD_REACTORS
330
2F
102
}
330
2F
100
AcDbXrecord
 10
0.0
 20
0.0
 30
0.0
  0
XRECORD
  5
3E
102
{ACAD_REACTORS
330
2F
102
}
330
2F
100
AcDbXrecord
340
0
  0
XRECORD
  5
3F
102
{ACAD_REACTORS
330
2F
102
}
330
2F
100
AcDbXrecord
 70
     0
  0
XRECORD
  5
33
102
{ACAD_REACTORS
330
2F
102
}
330
2F
100
AcDbXrecord
  1

  0
XRECORD
  5
30
102
{ACAD_REACTORS
330
2F
102
}
330
2F
100
AcDbXrecord
 90
        1
  0
XRECORD
  5
31
102
{ACAD_REACTORS
330
2F
102
}
330
2F
100
AcDbXrecord
 90
       70
  0
XRECORD
  5
49
102
{ACAD_REACTORS
330
2F
102
}
330
2F
100
AcDbXrecord
340
0
  0
XRECORD
  5
4F
102
{ACAD_REACTORS
330
2F
102
}
330
2F
100
AcDbXrecord
 10
0.0
 20
0.0
 30
0.0
  0
XRECORD
  5
4B
102
{ACAD_REACTORS
330
2F
102
}
330
2F
100
AcDbXrecord
 10
0.0
 20
0.0
 30
0.0
  0
XRECORD
  5
4E
102
{ACAD_REACTORS
330
2F
102
}
330
2F
100
AcDbXrecord
 10
0.0
 20
0.0
 30
0.0
  0
XRECORD
  5
4C
102
{ACAD_REACTORS
330
2F
102
}
330
2F
100
AcDbXrecord
 10
0.0
 20
0.0
 30
0.0
  0
XRECORD
  5
4D
102
{ACAD_REACTORS
330
2F
102
}
330
2F
100
AcDbXrecord
 10
0.0
 20
0.0
 30
0.0
  0
XRECORD
  5
4A
102
{ACAD_REACTORS
330
2F
102
}
330
2F
100
AcDbXrecord
 10
0.0
 20
0.0
 30
0.0
  0
XRECORD
  5
47
102
{ACAD_REACTORS
330
2F
102
}
330
2F
100
AcDbXrecord
340
0
  0
XRECORD
  5
48
102
{ACAD_REACTORS
330
2F
102
}
330
2F
100
AcDbXrecord
 70
     0
  0
XRECORD
  5
3B
102
{ACAD_REACTORS
330
2F
102
}
330
2F
100
AcDbXrecord
  1
{33328E3A-B6B8-4979-86B7-D70DEC2867C2}
  0
ENDSEC
  0
EOF
