  0
SECTION
  2
HEADER
  9
$ACADVER
  1
AC1014
  9
$EXTMIN
 10
70.16401489310567
 20
112.369642808922
 30
0.0
  9
$EXTMAX
 10
277.0834797641999
 20
227.1366601424358
 30
0.0
  9
$HANDSEED
  5
56
  9
$MEASUREMENT
 70
1
  0
ENDSEC
  0
SECTION
  2
TABLES
  0
TABLE
  2
VPORT
  5
8
330
0
100
AcDbSymbolTable
 70
     4
  0
VPORT
  5
2E
330
8
100
AcDbSymbolTableRecord
100
AcDbViewportTableRecord
  2
*ACTIVE
 70
     0
 10
0.0
 20
0.0
 11
1.0
 21
1.0
 12
209.9999999999999
 22
148.4999999999999
 13
0.0
 23
0.0
 14
10.0
 24
10.0
 15
10.0
 25
10.0
 16
0.0
 26
0.0
 36
1.0
 17
0.0
 27
0.0
 37
0.0
 40
340.9950045922664
 41
1.239944521497919
 42
50.0
 43
0.0
 44
0.0
 50
0.0
 51
0.0
 71
     0
 72
   100
 73
     1
 74
     3
 75
     0
 76
     0
 77
     0
 78
     0
  0
ENDTAB
  0
TABLE
  2
LTYPE
  5
5
330
0
100
AcDbSymbolTable
 70
     1
  0
LTYPE
  5
14
330
5
100
AcDbSymbolTableRecord
100
AcDbLinetypeTableRecord
  2
BYBLOCK
 70
     0
  3

 72
    65
 73
     0
 40
0.0
  0
LTYPE
  5
15
330
5
100
AcDbSymbolTableRecord
100
AcDbLinetypeTableRecord
  2
BYLAYER
 70
     0
  3

 72
    65
 73
     0
 40
0.0
  0
LTYPE
  5
16
330
5
100
AcDbSymbolTableRecord
100
AcDbLinetypeTableRecord
  2
CONTINUOUS
 70
     0
  3
Solid line
 72
    65
 73
     0
 40
0.0
  0
ENDTAB
  0
TABLE
  2
LAYER
  5
2
330
0
100
AcDbSymbolTable
 70
1
  0
LAYER
  5
10
330
2
100
AcDbSymbolTableRecord
100
AcDbLayerTableRecord
  2
0
 70
     0
 62
     7
  6
CONTINUOUS
  0
ENDTAB
  0
TABLE
  2
STYLE
  5
3
330
0
100
AcDbSymbolTable
 70
     1
  0
STYLE
  5
11
330
3
100
AcDbSymbolTableRecord
100
AcDbTextStyleTableRecord
  2
STANDARD
 70
     0
 40
0.0
 41
1.0
 50
0.0
 71
     0
 42
2.5
  3
txt
  4

  0
ENDTAB
  0
TABLE
  2
VIEW
  5
6
330
0
100
AcDbSymbolTable
 70
     0
  0
ENDTAB
  0
TABLE
  2
UCS
  5
7
330
0
100
AcDbSymbolTable
 70
     0
  0
ENDTAB
  0
TABLE
  2
APPID
  5
9
330
0
100
AcDbSymbolTable
 70
     2
  0
APPID
  5
12
330
9
100
AcDbSymbolTableRecord
100
AcDbRegAppTableRecord
  2
ACAD
 70
     0
  0
APPID
  5
2B
330
9
100
AcDbSymbolTableRecord
100
AcDbRegAppTableRecord
  2
URBANX
 70
     0
  0
ENDTAB
  0
TABLE
  2
DIMSTYLE
  5
A
330
0
100
AcDbSymbolTable
 70
     1
  0
DIMSTYLE
105
27
330
A
100
AcDbSymbolTableRecord
100
AcDbDimStyleTableRecord
  2
ISO-25
 70
     0
  3

  4

  5

  6

  7

 40
1.0
 41
2.5
 42
0.625
 43
3.75
 44
1.25
 45
0.0
 46
0.0
 47
0.0
 48
0.0
140
2.5
141
2.5
142
0.0
143
0.03937007874016
144
1.0
145
0.0
146
1.0
147
0.625
 71
     0
 72
     0
 73
     0
 74
     0
 75
     0
 76
     0
 77
     1
 78
     8
170
     0
171
     3
172
     1
173
     0
174
     0
175
     0
176
     0
177
     0
178
     0
270
     2
271
     2
272
     2
273
     2
274
     3
340
11
275
     0
280
     0
281
     0
282
     0
283
     0
284
     8
285
     0
286
     0
287
     3
288
     0
  0
ENDTAB
  0
TABLE
  2
BLOCK_RECORD
  5
1
330
0
100
AcDbSymbolTable
 70
     1
  0
BLOCK_RECORD
  5
1F
102
{ACAD_XDICTIONARY
360
52
102
}
330
1
100
AcDbSymbolTableRecord
100
AcDbBlockTableRecord
  2
*MODEL_SPACE
  0
BLOCK_RECORD
  5
1B
102
{ACAD_XDICTIONARY
360
50
102
}
330
1
100
AcDbSymbolTableRecord
100
AcDbBlockTableRecord
  2
*PAPER_SPACE
  0
ENDTAB
  0
ENDSEC
  0
SECTION
  2
BLOCKS
  0
BLOCK
  5
20
330
1F
100
AcDbEntity
  8
0
100
AcDbBlockBegin
  2
*MODEL_SPACE
 70
     0
 10
0.0
 20
0.0
 30
0.0
  3
*MODEL_SPACE
  1

  0
ENDBLK
  5
21
330
1F
100
AcDbEntity
  8
0
100
AcDbBlockEnd
  0
BLOCK
  5
1C
330
1B
100
AcDbEntity
 67
     1
  8
0
100
AcDbBlockBegin
  2
*PAPER_SPACE
  1

  0
ENDBLK
  5
1D
330
1B
100
AcDbEntity
 67
     1
  8
0
100
AcDbBlockEnd
  0
ENDSEC
  0
SECTION
  2
ENTITIES
  0
LINE
  5
ff
100
AcDbEntity
  8
0
100
AcDbLine
 62
     253
 10
0.0757922
 20
362.906
 30
0.0
 11
0.0757922
 21
393.905
 31
0.0
  0
LINE
  5
100
100
AcDbEntity
  8
0
100
AcDbLine
 62
     253
 10
10.5765
 20
361.908
 30
0.0
 11
10.5765
 21
394.907
 31
0.0
  0
LINE
  5
101
100
AcDbEntity
  8
0
100
AcDbLine
 62
     253
 10
0.0757922
 20
362.906
 30
0.0
 11
1.07625
 21
361.908
 31
0.0
  0
LINE
  5
102
100
AcDbEntity
  8
0
100
AcDbLine
 62
     253
 10
0.0757922
 20
393.905
 30
0.0
 11
1.07625
 21
394.907
 31
0.0
  0
LINE
  5
103
100
AcDbEntity
  8
0
100
AcDbLine
 62
     253
 10
1.07625
 20
361.908
 30
0.0
 11
22.0762
 21
361.908
 31
0.0
  0
LINE
  5
104
100
AcDbEntity
  8
0
100
AcDbLine
 62
     253
 10
22.0762
 20
361.908
 30
0.0
 11
23.0766
 21
362.906
 31
0.0
  0
LINE
  5
105
100
AcDbEntity
  8
0
100
AcDbLine
 62
     253
 10
23.0766
 20
362.906
 30
0.0
 11
23.0766
 21
393.905
 31
0.0
  0
LINE
  5
106
100
AcDbEntity
  8
0
100
AcDbLine
 62
     253
 10
22.0762
 20
394.907
 30
0.0
 11
23.0766
 21
393.905
 31
0.0
  0
LINE
  5
107
100
AcDbEntity
  8
0
100
AcDbLine
 62
     253
 10
22.0762
 20
394.907
 30
0.0
 11
1.07625
 21
394.907
 31
0.0
  0
SPLINE
  5
108
100
AcDbEntity
  8
0
100
AcDbSpline
210
0.0
220
0.0
230
1.0
 62
     253
 70
     0
 71
     3
 72
     8
 73
4
 40
0.0
 40
0.0
 40
0.0
 40
0.0
 40
1.0
 40
1.0
 40
1.0
 40
1.0
 10
5.07668
 20
365.905
 30
0.0
 10
5.07668
 20
365.351
 30
0.0
 10
4.62883
 20
364.906
 30
0.0
 10
4.07624
 20
364.906
 30
0.0
  0
SPLINE
  5
109
100
AcDbEntity
  8
0
100
AcDbSpline
210
0.0
220
0.0
230
1.0
 62
     253
 70
     0
 71
     3
 72
     8
 73
4
 40
0.0
 40
0.0
 40
0.0
 40
0.0
 40
1.0
 40
1.0
 40
1.0
 40
1.0
 10
4.07624
 20
364.906
 30
0.0
 10
3.52364
 20
364.906
 30
0.0
 10
3.07578
 20
365.351
 30
0.0
 10
3.07578
 20
365.905
 30
0.0
  0
SPLINE
  5
10a
100
AcDbEntity
  8
0
100
AcDbSpline
210
0.0
220
0.0
230
1.0
 62
     253
 70
     0
 71
     3
 72
     8
 73
4
 40
0.0
 40
0.0
 40
0.0
 40
0.0
 40
1.0
 40
1.0
 40
1.0
 40
1.0
 10
3.07578
 20
365.905
 30
0.0
 10
3.07578
 20
366.455
 30
0.0
 10
3.52364
 20
366.907
 30
0.0
 10
4.07624
 20
366.907
 30
0.0
  0
SPLINE
  5
10b
100
AcDbEntity
  8
0
100
AcDbSpline
210
0.0
220
0.0
230
1.0
 62
     253
 70
     0
 71
     3
 72
     8
 73
4
 40
0.0
 40
0.0
 40
0.0
 40
0.0
 40
1.0
 40
1.0
 40
1.0
 40
1.0
 10
4.07624
 20
366.907
 30
0.0
 10
4.62883
 20
366.907
 30
0.0
 10
5.07668
 20
366.455
 30
0.0
 10
5.07668
 20
365.905
 30
0.0
  0
SPLINE
  5
10c
100
AcDbEntity
  8
0
100
AcDbSpline
210
0.0
220
0.0
230
1.0
 62
     253
 70
     0
 71
     3
 72
     8
 73
4
 40
0.0
 40
0.0
 40
0.0
 40
0.0
 40
1.0
 40
1.0
 40
1.0
 40
1.0
 10
20.0767
 20
365.905
 30
0.0
 10
20.0767
 20
365.351
 30
0.0
 10
19.6288
 20
364.906
 30
0.0
 10
19.0762
 20
364.906
 30
0.0
  0
SPLINE
  5
10d
100
AcDbEntity
  8
0
100
AcDbSpline
210
0.0
220
0.0
230
1.0
 62
     253
 70
     0
 71
     3
 72
     8
 73
4
 40
0.0
 40
0.0
 40
0.0
 40
0.0
 40
1.0
 40
1.0
 40
1.0
 40
1.0
 10
19.0762
 20
364.906
 30
0.0
 10
18.5236
 20
364.906
 30
0.0
 10
18.0757
 20
365.351
 30
0.0
 10
18.0757
 20
365.905
 30
0.0
  0
SPLINE
  5
10e
100
AcDbEntity
  8
0
100
AcDbSpline
210
0.0
220
0.0
230
1.0
 62
     253
 70
     0
 71
     3
 72
     8
 73
4
 40
0.0
 40
0.0
 40
0.0
 40
0.0
 40
1.0
 40
1.0
 40
1.0
 40
1.0
 10
18.0757
 20
365.905
 30
0.0
 10
18.0757
 20
366.455
 30
0.0
 10
18.5236
 20
366.907
 30
0.0
 10
19.0762
 20
366.907
 30
0.0
  0
SPLINE
  5
10f
100
AcDbEntity
  8
0
100
AcDbSpline
210
0.0
220
0.0
230
1.0
 62
     253
 70
     0
 71
     3
 72
     8
 73
4
 40
0.0
 40
0.0
 40
0.0
 40
0.0
 40
1.0
 40
1.0
 40
1.0
 40
1.0
 10
19.0762
 20
366.907
 30
0.0
 10
19.6288
 20
366.907
 30
0.0
 10
20.0767
 20
366.455
 30
0.0
 10
20.0767
 20
365.905
 30
0.0
  0
SPLINE
  5
110
100
AcDbEntity
  8
0
100
AcDbSpline
210
0.0
220
0.0
230
1.0
 62
     253
 70
     0
 71
     3
 72
     8
 73
4
 40
0.0
 40
0.0
 40
0.0
 40
0.0
 40
1.0
 40
1.0
 40
1.0
 40
1.0
 10
20.0767
 20
390.902
 30
0.0
 10
20.0767
 20
390.352
 30
0.0
 10
19.6288
 20
389.908
 30
0.0
 10
19.0762
 20
389.908
 30
0.0
  0
SPLINE
  5
111
100
AcDbEntity
  8
0
100
AcDbSpline
210
0.0
220
0.0
230
1.0
 62
     253
 70
     0
 71
     3
 72
     8
 73
4
 40
0.0
 40
0.0
 40
0.0
 40
0.0
 40
1.0
 40
1.0
 40
1.0
 40
1.0
 10
19.0762
 20
389.908
 30
0.0
 10
18.5236
 20
389.908
 30
0.0
 10
18.0757
 20
390.352
 30
0.0
 10
18.0757
 20
390.902
 30
0.0
  0
SPLINE
  5
112
100
AcDbEntity
  8
0
100
AcDbSpline
210
0.0
220
0.0
230
1.0
 62
     253
 70
     0
 71
     3
 72
     8
 73
4
 40
0.0
 40
0.0
 40
0.0
 40
0.0
 40
1.0
 40
1.0
 40
1.0
 40
1.0
 10
18.0757
 20
390.902
 30
0.0
 10
18.0757
 20
391.456
 30
0.0
 10
18.5236
 20
391.904
 30
0.0
 10
19.0762
 20
391.904
 30
0.0
  0
SPLINE
  5
113
100
AcDbEntity
  8
0
100
AcDbSpline
210
0.0
220
0.0
230
1.0
 62
     253
 70
     0
 71
     3
 72
     8
 73
4
 40
0.0
 40
0.0
 40
0.0
 40
0.0
 40
1.0
 40
1.0
 40
1.0
 40
1.0
 10
19.0762
 20
391.904
 30
0.0
 10
19.6288
 20
391.904
 30
0.0
 10
20.0767
 20
391.456
 30
0.0
 10
20.0767
 20
390.902
 30
0.0
  0
SPLINE
  5
114
100
AcDbEntity
  8
0
100
AcDbSpline
210
0.0
220
0.0
230
1.0
 62
     253
 70
     0
 71
     3
 72
     8
 73
4
 40
0.0
 40
0.0
 40
0.0
 40
0.0
 40
1.0
 40
1.0
 40
1.0
 40
1.0
 10
5.07668
 20
390.902
 30
0.0
 10
5.07668
 20
390.352
 30
0.0
 10
4.62883
 20
389.908
 30
0.0
 10
4.07624
 20
389.908
 30
0.0
  0
SPLINE
  5
115
100
AcDbEntity
  8
0
100
AcDbSpline
210
0.0
220
0.0
230
1.0
 62
     253
 70
     0
 71
     3
 72
     8
 73
4
 40
0.0
 40
0.0
 40
0.0
 40
0.0
 40
1.0
 40
1.0
 40
1.0
 40
1.0
 10
4.07624
 20
389.908
 30
0.0
 10
3.52364
 20
389.908
 30
0.0
 10
3.07578
 20
390.352
 30
0.0
 10
3.07578
 20
390.902
 30
0.0
  0
SPLINE
  5
116
100
AcDbEntity
  8
0
100
AcDbSpline
210
0.0
220
0.0
230
1.0
 62
     253
 70
     0
 71
     3
 72
     8
 73
4
 40
0.0
 40
0.0
 40
0.0
 40
0.0
 40
1.0
 40
1.0
 40
1.0
 40
1.0
 10
3.07578
 20
390.902
 30
0.0
 10
3.07578
 20
391.456
 30
0.0
 10
3.52364
 20
391.904
 30
0.0
 10
4.07624
 20
391.904
 30
0.0
  0
SPLINE
  5
117
100
AcDbEntity
  8
0
100
AcDbSpline
210
0.0
220
0.0
230
1.0
 62
     253
 70
     0
 71
     3
 72
     8
 73
4
 40
0.0
 40
0.0
 40
0.0
 40
0.0
 40
1.0
 40
1.0
 40
1.0
 40
1.0
 10
4.07624
 20
391.904
 30
0.0
 10
4.62883
 20
391.904
 30
0.0
 10
5.07668
 20
391.456
 30
0.0
 10
5.07668
 20
390.902
 30
0.0
  0
LINE
  5
118
100
AcDbEntity
  8
0
100
AcDbLine
 62
     253
 10
12.576
 20
361.908
 30
0.0
 11
10.5765
 21
361.908
 31
0.0
  0
LINE
  5
119
100
AcDbEntity
  8
0
100
AcDbLine
 62
     253
 10
10.5765
 20
356.905
 30
0.0
 11
10.5765
 21
361.908
 31
0.0
  0
LINE
  5
11a
100
AcDbEntity
  8
0
100
AcDbLine
 62
     253
 10
10.5765
 20
356.905
 30
0.0
 11
10.5765
 21
355.903
 31
0.0
  0
LINE
  5
11b
100
AcDbEntity
  8
0
100
AcDbLine
 62
     253
 10
10.5765
 20
394.907
 30
0.0
 11
10.5765
 21
417.904
 31
0.0
  0
LINE
  5
11c
100
AcDbEntity
  8
0
100
AcDbLine
 62
     253
 10
10.5765
 20
417.904
 30
0.0
 11
10.5765
 21
418.906
 31
0.0
  0
LINE
  5
11d
100
AcDbEntity
  8
0
100
AcDbLine
 62
     253
 10
10.5765
 20
369.404
 30
0.0
 11
10.5765
 21
370.406
 31
0.0
  0
LINE
  5
11e
100
AcDbEntity
  8
0
100
AcDbLine
 62
     253
 10
10.5765
 20
370.406
 30
0.0
 11
10.5765
 21
368.406
 31
0.0
  0
LINE
  5
11f
100
AcDbEntity
  8
0
100
AcDbLine
 62
     253
 10
10.5765
 20
368.406
 30
0.0
 11
10.5765
 21
369.404
 31
0.0
  0
LINE
  5
120
100
AcDbEntity
  8
0
100
AcDbLine
 62
     253
 10
10.5765
 20
360.405
 30
0.0
 11
10.5765
 21
361.407
 31
0.0
  0
LINE
  5
121
100
AcDbEntity
  8
0
100
AcDbLine
 62
     253
 10
10.5765
 20
361.407
 30
0.0
 11
10.5765
 21
359.406
 31
0.0
  0
LINE
  5
122
100
AcDbEntity
  8
0
100
AcDbLine
 62
     253
 10
10.5765
 20
359.406
 30
0.0
 11
10.5765
 21
360.405
 31
0.0
  0
LINE
  5
123
100
AcDbEntity
  8
0
100
AcDbLine
 62
     253
 10
10.5765
 20
414.405
 30
0.0
 11
10.5765
 21
415.403
 31
0.0
  0
LINE
  5
124
100
AcDbEntity
  8
0
100
AcDbLine
 62
     253
 10
10.5765
 20
415.403
 30
0.0
 11
10.5765
 21
413.406
 31
0.0
  0
LINE
  5
125
100
AcDbEntity
  8
0
100
AcDbLine
 62
     253
 10
10.5765
 20
413.406
 30
0.0
 11
10.5765
 21
414.405
 31
0.0
  0
LINE
  5
126
100
AcDbEntity
  8
0
100
AcDbLine
 62
     253
 10
10.5765
 20
405.405
 30
0.0
 11
10.5765
 21
406.404
 31
0.0
  0
LINE
  5
127
100
AcDbEntity
  8
0
100
AcDbLine
 62
     253
 10
10.5765
 20
406.404
 30
0.0
 11
10.5765
 21
404.403
 31
0.0
  0
LINE
  5
128
100
AcDbEntity
  8
0
100
AcDbLine
 62
     253
 10
10.5765
 20
404.403
 30
0.0
 11
10.5765
 21
405.405
 31
0.0
  0
LINE
  5
129
100
AcDbEntity
  8
0
100
AcDbLine
 62
     253
 10
10.5765
 20
394.907
 30
0.0
 11
12.576
 21
394.907
 31
0.0
  0
LINE
  5
12a
100
AcDbEntity
  8
0
100
AcDbLine
 62
     253
 10
12.576
 20
361.908
 30
0.0
 11
12.576
 21
394.907
 31
0.0
  0
LINE
  5
12b
100
AcDbEntity
  8
0
100
AcDbLine
 62
     253
 10
12.576
 20
356.905
 30
0.0
 11
10.5765
 21
356.905
 31
0.0
  0
LINE
  5
12c
100
AcDbEntity
  8
0
100
AcDbLine
 62
     253
 10
12.576
 20
356.905
 30
0.0
 11
12.576
 21
361.908
 31
0.0
  0
LINE
  5
12d
100
AcDbEntity
  8
0
100
AcDbLine
 62
     253
 10
12.576
 20
356.905
 30
0.0
 11
12.576
 21
355.903
 31
0.0
  0
LINE
  5
12e
100
AcDbEntity
  8
0
100
AcDbLine
 62
     253
 10
12.576
 20
355.903
 30
0.0
 11
10.5765
 21
355.903
 31
0.0
  0
LINE
  5
12f
100
AcDbEntity
  8
0
100
AcDbLine
 62
     253
 10
12.576
 20
394.907
 30
0.0
 11
12.576
 21
417.904
 31
0.0
  0
LINE
  5
130
100
AcDbEntity
  8
0
100
AcDbLine
 62
     253
 10
12.576
 20
417.904
 30
0.0
 11
10.5765
 21
417.904
 31
0.0
  0
SPLINE
  5
131
100
AcDbEntity
  8
0
100
AcDbSpline
210
0.0
220
0.0
230
1.0
 62
     253
 70
     0
 71
     3
 72
     8
 73
4
 40
0.0
 40
0.0
 40
0.0
 40
0.0
 40
1.0
 40
1.0
 40
1.0
 40
1.0
 10
12.0758
 20
409.903
 30
0.0
 10
12.0771
 20
409.783
 30
0.0
 10
12.0303
 20
409.663
 30
0.0
 10
11.949
 20
409.571
 30
0.0
  0
SPLINE
  5
132
100
AcDbEntity
  8
0
100
AcDbSpline
210
0.0
220
0.0
230
1.0
 62
     253
 70
     0
 71
     3
 72
     8
 73
4
 40
0.0
 40
0.0
 40
0.0
 40
0.0
 40
1.0
 40
1.0
 40
1.0
 40
1.0
 10
11.949
 20
409.571
 30
0.0
 10
11.8677
 20
409.48
 30
0.0
 10
11.7533
 20
409.42
 30
0.0
 10
11.632
 20
409.409
 30
0.0
  0
SPLINE
  5
133
100
AcDbEntity
  8
0
100
AcDbSpline
210
0.0
220
0.0
230
1.0
 62
     253
 70
     0
 71
     3
 72
     8
 73
4
 40
0.0
 40
0.0
 40
0.0
 40
0.0
 40
1.0
 40
1.0
 40
1.0
 40
1.0
 10
11.632
 20
409.409
 30
0.0
 10
11.4818
 20
409.388
 30
0.0
 10
11.3261
 20
409.444
 30
0.0
 10
11.22
 20
409.554
 30
0.0
  0
SPLINE
  5
134
100
AcDbEntity
  8
0
100
AcDbSpline
210
0.0
220
0.0
230
1.0
 62
     253
 70
     0
 71
     3
 72
     8
 73
4
 40
0.0
 40
0.0
 40
0.0
 40
0.0
 40
1.0
 40
1.0
 40
1.0
 40
1.0
 10
11.22
 20
409.554
 30
0.0
 10
11.1345
 20
409.639
 30
0.0
 10
11.0822
 20
409.758
 30
0.0
 10
11.0767
 20
409.878
 30
0.0
  0
SPLINE
  5
135
100
AcDbEntity
  8
0
100
AcDbSpline
210
0.0
220
0.0
230
1.0
 62
     253
 70
     0
 71
     3
 72
     8
 73
4
 40
0.0
 40
0.0
 40
0.0
 40
0.0
 40
1.0
 40
1.0
 40
1.0
 40
1.0
 10
11.0767
 20
409.878
 30
0.0
 10
11.0684
 20
410.03
 30
0.0
 10
11.1332
 20
410.182
 30
0.0
 10
11.2475
 20
410.284
 30
0.0
  0
SPLINE
  5
136
100
AcDbEntity
  8
0
100
AcDbSpline
210
0.0
220
0.0
230
1.0
 62
     253
 70
     0
 71
     3
 72
     8
 73
4
 40
0.0
 40
0.0
 40
0.0
 40
0.0
 40
1.0
 40
1.0
 40
1.0
 40
1.0
 10
11.2475
 20
410.284
 30
0.0
 10
11.3399
 20
410.362
 30
0.0
 10
11.4612
 20
410.408
 30
0.0
 10
11.5824
 20
410.404
 30
0.0
  0
SPLINE
  5
137
100
AcDbEntity
  8
0
100
AcDbSpline
210
0.0
220
0.0
230
1.0
 62
     253
 70
     0
 71
     3
 72
     8
 73
4
 40
0.0
 40
0.0
 40
0.0
 40
0.0
 40
1.0
 40
1.0
 40
1.0
 40
1.0
 10
11.5824
 20
410.404
 30
0.0
 10
11.7037
 20
410.404
 30
0.0
 10
11.8249
 20
410.355
 30
0.0
 10
11.9131
 20
410.273
 30
0.0
  0
SPLINE
  5
138
100
AcDbEntity
  8
0
100
AcDbSpline
210
0.0
220
0.0
230
1.0
 62
     253
 70
     0
 71
     3
 72
     8
 73
4
 40
0.0
 40
0.0
 40
0.0
 40
0.0
 40
1.0
 40
1.0
 40
1.0
 40
1.0
 10
11.9131
 20
410.273
 30
0.0
 10
12.0165
 20
410.182
 30
0.0
 10
12.0771
 20
410.044
 30
0.0
 10
12.0758
 20
409.903
 30
0.0
  0
LINE
  5
139
100
AcDbEntity
  8
0
100
AcDbLine
 62
     253
 10
12.576
 20
417.904
 30
0.0
 11
12.576
 21
418.906
 31
0.0
  0
LINE
  5
13a
100
AcDbEntity
  8
0
100
AcDbLine
 62
     253
 10
12.576
 20
418.906
 30
0.0
 11
10.5765
 21
418.906
 31
0.0
  0
LINE
  5
13b
100
AcDbEntity
  8
0
100
AcDbLine
 62
     253
 10
12.576
 20
369.404
 30
0.0
 11
12.576
 21
370.406
 31
0.0
  0
LINE
  5
13c
100
AcDbEntity
  8
0
100
AcDbLine
 62
     253
 10
12.576
 20
370.406
 30
0.0
 11
12.576
 21
368.406
 31
0.0
  0
LINE
  5
13d
100
AcDbEntity
  8
0
100
AcDbLine
 62
     253
 10
12.576
 20
368.406
 30
0.0
 11
12.576
 21
369.404
 31
0.0
  0
LINE
  5
13e
100
AcDbEntity
  8
0
100
AcDbLine
 62
     253
 10
12.576
 20
360.405
 30
0.0
 11
12.576
 21
361.407
 31
0.0
  0
LINE
  5
13f
100
AcDbEntity
  8
0
100
AcDbLine
 62
     253
 10
12.576
 20
361.407
 30
0.0
 11
12.576
 21
359.406
 31
0.0
  0
LINE
  5
140
100
AcDbEntity
  8
0
100
AcDbLine
 62
     253
 10
12.576
 20
359.406
 30
0.0
 11
12.576
 21
360.405
 31
0.0
  0
LINE
  5
141
100
AcDbEntity
  8
0
100
AcDbLine
 62
     253
 10
12.576
 20
414.405
 30
0.0
 11
12.576
 21
415.403
 31
0.0
  0
LINE
  5
142
100
AcDbEntity
  8
0
100
AcDbLine
 62
     253
 10
12.576
 20
415.403
 30
0.0
 11
12.576
 21
413.406
 31
0.0
  0
LINE
  5
143
100
AcDbEntity
  8
0
100
AcDbLine
 62
     253
 10
12.576
 20
413.406
 30
0.0
 11
12.576
 21
414.405
 31
0.0
  0
LINE
  5
144
100
AcDbEntity
  8
0
100
AcDbLine
 62
     253
 10
12.576
 20
405.405
 30
0.0
 11
12.576
 21
406.404
 31
0.0
  0
LINE
  5
145
100
AcDbEntity
  8
0
100
AcDbLine
 62
     253
 10
12.576
 20
406.404
 30
0.0
 11
12.576
 21
404.403
 31
0.0
  0
LINE
  5
146
100
AcDbEntity
  8
0
100
AcDbLine
 62
     253
 10
12.576
 20
404.403
 30
0.0
 11
12.576
 21
405.405
 31
0.0
  0
SPLINE
  5
147
100
AcDbEntity
  8
0
100
AcDbSpline
210
0.0
220
0.0
230
1.0
 62
     253
 70
     0
 71
     3
 72
     8
 73
4
 40
0.0
 40
0.0
 40
0.0
 40
0.0
 40
1.0
 40
1.0
 40
1.0
 40
1.0
 10
11.5755
 20
409.406
 30
0.0
 10
11.8525
 20
409.406
 30
0.0
 10
12.0758
 20
409.628
 30
0.0
 10
12.0758
 20
409.903
 30
0.0
  0
SPLINE
  5
148
100
AcDbEntity
  8
0
100
AcDbSpline
210
0.0
220
0.0
230
1.0
 62
     253
 70
     0
 71
     3
 72
     8
 73
4
 40
0.0
 40
0.0
 40
0.0
 40
0.0
 40
1.0
 40
1.0
 40
1.0
 40
1.0
 10
12.0758
 20
409.903
 30
0.0
 10
12.0758
 20
410.182
 30
0.0
 10
11.8525
 20
410.404
 30
0.0
 10
11.5755
 20
410.404
 30
0.0
  0
SPLINE
  5
149
100
AcDbEntity
  8
0
100
AcDbSpline
210
0.0
220
0.0
230
1.0
 62
     253
 70
     0
 71
     3
 72
     8
 73
4
 40
0.0
 40
0.0
 40
0.0
 40
0.0
 40
1.0
 40
1.0
 40
1.0
 40
1.0
 10
11.5755
 20
410.404
 30
0.0
 10
11.2999
 20
410.404
 30
0.0
 10
11.0767
 20
410.182
 30
0.0
 10
11.0767
 20
409.903
 30
0.0
  0
SPLINE
  5
14a
100
AcDbEntity
  8
0
100
AcDbSpline
210
0.0
220
0.0
230
1.0
 62
     253
 70
     0
 71
     3
 72
     8
 73
4
 40
0.0
 40
0.0
 40
0.0
 40
0.0
 40
1.0
 40
1.0
 40
1.0
 40
1.0
 10
11.0767
 20
409.903
 30
0.0
 10
11.0767
 20
409.628
 30
0.0
 10
11.2999
 20
409.406
 30
0.0
 10
11.5755
 20
409.406
 30
0.0
  0
LINE
  5
14b
100
AcDbEntity
  8
0
100
AcDbLine
 62
     253
 10
12.576
 20
368.406
 30
0.0
 11
10.5765
 21
368.406
 31
0.0
  0
LINE
  5
14c
100
AcDbEntity
  8
0
100
AcDbLine
 62
     253
 10
12.576
 20
370.406
 30
0.0
 11
10.5765
 21
370.406
 31
0.0
  0
LINE
  5
14d
100
AcDbEntity
  8
0
100
AcDbLine
 62
     253
 10
12.576
 20
359.406
 30
0.0
 11
10.5765
 21
359.406
 31
0.0
  0
LINE
  5
14e
100
AcDbEntity
  8
0
100
AcDbLine
 62
     253
 10
12.576
 20
361.407
 30
0.0
 11
10.5765
 21
361.407
 31
0.0
  0
LINE
  5
14f
100
AcDbEntity
  8
0
100
AcDbLine
 62
     253
 10
12.576
 20
413.406
 30
0.0
 11
10.5765
 21
413.406
 31
0.0
  0
LINE
  5
150
100
AcDbEntity
  8
0
100
AcDbLine
 62
     253
 10
12.576
 20
415.403
 30
0.0
 11
10.5765
 21
415.403
 31
0.0
  0
LINE
  5
151
100
AcDbEntity
  8
0
100
AcDbLine
 62
     253
 10
12.576
 20
404.403
 30
0.0
 11
10.5765
 21
404.403
 31
0.0
  0
LINE
  5
152
100
AcDbEntity
  8
0
100
AcDbLine
 62
     253
 10
12.576
 20
406.404
 30
0.0
 11
10.5765
 21
406.404
 31
0.0
  0
LINE
  5
153
100
AcDbEntity
  8
0
100
AcDbLine
 62
     253
 10
54.6763
 20
361.908
 30
0.0
 11
54.6763
 21
394.907
 31
0.0
  0
LINE
  5
154
100
AcDbEntity
  8
0
100
AcDbLine
 62
     253
 10
54.6763
 20
390.902
 30
0.0
 11
54.6763
 21
391.904
 31
0.0
  0
LINE
  5
155
100
AcDbEntity
  8
0
100
AcDbLine
 62
     253
 10
54.6763
 20
391.904
 30
0.0
 11
54.6763
 21
389.908
 31
0.0
  0
LINE
  5
156
100
AcDbEntity
  8
0
100
AcDbLine
 62
     253
 10
54.6763
 20
389.908
 30
0.0
 11
54.6763
 21
390.902
 31
0.0
  0
LINE
  5
157
100
AcDbEntity
  8
0
100
AcDbLine
 62
     253
 10
54.6763
 20
365.905
 30
0.0
 11
54.6763
 21
366.907
 31
0.0
  0
LINE
  5
158
100
AcDbEntity
  8
0
100
AcDbLine
 62
     253
 10
54.6763
 20
366.907
 30
0.0
 11
54.6763
 21
364.906
 31
0.0
  0
LINE
  5
159
100
AcDbEntity
  8
0
100
AcDbLine
 62
     253
 10
54.6763
 20
364.906
 30
0.0
 11
54.6763
 21
365.905
 31
0.0
  0
LINE
  5
15a
100
AcDbEntity
  8
0
100
AcDbLine
 62
     253
 10
53.4762
 20
361.908
 30
0.0
 11
53.4762
 21
362.906
 31
0.0
  0
LINE
  5
15b
100
AcDbEntity
  8
0
100
AcDbLine
 62
     253
 10
53.4762
 20
362.906
 30
0.0
 11
53.4762
 21
393.905
 31
0.0
  0
LINE
  5
15c
100
AcDbEntity
  8
0
100
AcDbLine
 62
     253
 10
53.4762
 20
394.907
 30
0.0
 11
53.4762
 21
393.905
 31
0.0
  0
LINE
  5
15d
100
AcDbEntity
  8
0
100
AcDbLine
 62
     253
 10
53.4762
 20
365.905
 30
0.0
 11
53.4762
 21
366.907
 31
0.0
  0
LINE
  5
15e
100
AcDbEntity
  8
0
100
AcDbLine
 62
     253
 10
53.4762
 20
366.907
 30
0.0
 11
53.4762
 21
364.906
 31
0.0
  0
LINE
  5
15f
100
AcDbEntity
  8
0
100
AcDbLine
 62
     253
 10
53.4762
 20
364.906
 30
0.0
 11
53.4762
 21
365.905
 31
0.0
  0
LINE
  5
160
100
AcDbEntity
  8
0
100
AcDbLine
 62
     253
 10
53.4762
 20
365.905
 30
0.0
 11
53.4762
 21
366.907
 31
0.0
  0
LINE
  5
161
100
AcDbEntity
  8
0
100
AcDbLine
 62
     253
 10
53.4762
 20
366.907
 30
0.0
 11
53.4762
 21
364.906
 31
0.0
  0
LINE
  5
162
100
AcDbEntity
  8
0
100
AcDbLine
 62
     253
 10
53.4762
 20
364.906
 30
0.0
 11
53.4762
 21
365.905
 31
0.0
  0
LINE
  5
163
100
AcDbEntity
  8
0
100
AcDbLine
 62
     253
 10
53.4762
 20
390.902
 30
0.0
 11
53.4762
 21
391.904
 31
0.0
  0
LINE
  5
164
100
AcDbEntity
  8
0
100
AcDbLine
 62
     253
 10
53.4762
 20
391.904
 30
0.0
 11
53.4762
 21
389.908
 31
0.0
  0
LINE
  5
165
100
AcDbEntity
  8
0
100
AcDbLine
 62
     253
 10
53.4762
 20
389.908
 30
0.0
 11
53.4762
 21
390.902
 31
0.0
  0
LINE
  5
166
100
AcDbEntity
  8
0
100
AcDbLine
 62
     253
 10
53.4762
 20
390.902
 30
0.0
 11
53.4762
 21
391.904
 31
0.0
  0
LINE
  5
167
100
AcDbEntity
  8
0
100
AcDbLine
 62
     253
 10
53.4762
 20
391.904
 30
0.0
 11
53.4762
 21
389.908
 31
0.0
  0
LINE
  5
168
100
AcDbEntity
  8
0
100
AcDbLine
 62
     253
 10
53.4762
 20
389.908
 30
0.0
 11
53.4762
 21
390.902
 31
0.0
  0
LINE
  5
169
100
AcDbEntity
  8
0
100
AcDbLine
 62
     253
 10
53.4762
 20
361.908
 30
0.0
 11
54.6763
 21
361.908
 31
0.0
  0
LINE
  5
16a
100
AcDbEntity
  8
0
100
AcDbLine
 62
     253
 10
54.6763
 20
394.907
 30
0.0
 11
53.4762
 21
394.907
 31
0.0
  0
LINE
  5
16b
100
AcDbEntity
  8
0
100
AcDbLine
 62
     253
 10
53.4762
 20
362.906
 30
0.0
 11
54.6763
 21
362.906
 31
0.0
  0
LINE
  5
16c
100
AcDbEntity
  8
0
100
AcDbLine
 62
     253
 10
54.6763
 20
361.908
 30
0.0
 11
54.6763
 21
362.906
 31
0.0
  0
LINE
  5
16d
100
AcDbEntity
  8
0
100
AcDbLine
 62
     253
 10
54.6763
 20
393.905
 30
0.0
 11
53.4762
 21
393.905
 31
0.0
  0
LINE
  5
16e
100
AcDbEntity
  8
0
100
AcDbLine
 62
     253
 10
54.6763
 20
362.906
 30
0.0
 11
54.6763
 21
393.905
 31
0.0
  0
LINE
  5
16f
100
AcDbEntity
  8
0
100
AcDbLine
 62
     253
 10
54.6763
 20
394.907
 30
0.0
 11
54.6763
 21
393.905
 31
0.0
  0
LINE
  5
170
100
AcDbEntity
  8
0
100
AcDbLine
 62
     253
 10
54.6763
 20
365.905
 30
0.0
 11
54.6763
 21
366.907
 31
0.0
  0
LINE
  5
171
100
AcDbEntity
  8
0
100
AcDbLine
 62
     253
 10
54.6763
 20
366.907
 30
0.0
 11
54.6763
 21
364.906
 31
0.0
  0
LINE
  5
172
100
AcDbEntity
  8
0
100
AcDbLine
 62
     253
 10
54.6763
 20
364.906
 30
0.0
 11
54.6763
 21
365.905
 31
0.0
  0
LINE
  5
173
100
AcDbEntity
  8
0
100
AcDbLine
 62
     253
 10
54.6763
 20
390.902
 30
0.0
 11
54.6763
 21
391.904
 31
0.0
  0
LINE
  5
174
100
AcDbEntity
  8
0
100
AcDbLine
 62
     253
 10
54.6763
 20
391.904
 30
0.0
 11
54.6763
 21
389.908
 31
0.0
  0
LINE
  5
175
100
AcDbEntity
  8
0
100
AcDbLine
 62
     253
 10
54.6763
 20
389.908
 30
0.0
 11
54.6763
 21
390.902
 31
0.0
  0
LINE
  5
176
100
AcDbEntity
  8
0
100
AcDbLine
 62
     253
 10
54.6763
 20
361.908
 30
0.0
 11
54.6763
 21
394.907
 31
0.0
  0
LINE
  5
177
100
AcDbEntity
  8
0
100
AcDbLine
 62
     253
 10
54.6763
 20
356.905
 30
0.0
 11
54.6763
 21
361.908
 31
0.0
  0
LINE
  5
178
100
AcDbEntity
  8
0
100
AcDbLine
 62
     253
 10
54.6763
 20
356.905
 30
0.0
 11
55.6754
 21
355.903
 31
0.0
  0
LINE
  5
179
100
AcDbEntity
  8
0
100
AcDbLine
 62
     253
 10
64.6769
 20
355.903
 30
0.0
 11
55.6754
 21
355.903
 31
0.0
  0
LINE
  5
17a
100
AcDbEntity
  8
0
100
AcDbLine
 62
     253
 10
54.6763
 20
394.907
 30
0.0
 11
54.6763
 21
417.904
 31
0.0
  0
SPLINE
  5
17b
100
AcDbEntity
  8
0
100
AcDbSpline
210
0.0
220
0.0
230
1.0
 62
     253
 70
     0
 71
     3
 72
     8
 73
4
 40
0.0
 40
0.0
 40
0.0
 40
0.0
 40
1.0
 40
1.0
 40
1.0
 40
1.0
 10
54.6763
 20
409.903
 30
0.0
 10
54.6763
 20
409.783
 30
0.0
 10
54.6763
 20
409.663
 30
0.0
 10
54.6763
 20
409.571
 30
0.0
  0
SPLINE
  5
17c
100
AcDbEntity
  8
0
100
AcDbSpline
210
0.0
220
0.0
230
1.0
 62
     253
 70
     0
 71
     3
 72
     8
 73
4
 40
0.0
 40
0.0
 40
0.0
 40
0.0
 40
1.0
 40
1.0
 40
1.0
 40
1.0
 10
54.6763
 20
409.571
 30
0.0
 10
54.6763
 20
409.466
 30
0.0
 10
54.6763
 20
409.406
 30
0.0
 10
54.6763
 20
409.406
 30
0.0
  0
SPLINE
  5
17d
100
AcDbEntity
  8
0
100
AcDbSpline
210
0.0
220
0.0
230
1.0
 62
     253
 70
     0
 71
     3
 72
     8
 73
4
 40
0.0
 40
0.0
 40
0.0
 40
0.0
 40
1.0
 40
1.0
 40
1.0
 40
1.0
 10
54.6763
 20
409.406
 30
0.0
 10
54.6763
 20
409.399
 30
0.0
 10
54.6763
 20
409.621
 30
0.0
 10
54.6763
 20
409.878
 30
0.0
  0
SPLINE
  5
17e
100
AcDbEntity
  8
0
100
AcDbSpline
210
0.0
220
0.0
230
1.0
 62
     253
 70
     0
 71
     3
 72
     8
 73
4
 40
0.0
 40
0.0
 40
0.0
 40
0.0
 40
1.0
 40
1.0
 40
1.0
 40
1.0
 10
54.6763
 20
409.878
 30
0.0
 10
54.6763
 20
410.002
 30
0.0
 10
54.6763
 20
410.122
 30
0.0
 10
54.6763
 20
410.217
 30
0.0
  0
SPLINE
  5
17f
100
AcDbEntity
  8
0
100
AcDbSpline
210
0.0
220
0.0
230
1.0
 62
     253
 70
     0
 71
     3
 72
     8
 73
4
 40
0.0
 40
0.0
 40
0.0
 40
0.0
 40
1.0
 40
1.0
 40
1.0
 40
1.0
 10
54.6763
 20
410.217
 30
0.0
 10
54.6763
 20
410.333
 30
0.0
 10
54.6763
 20
410.408
 30
0.0
 10
54.6763
 20
410.404
 30
0.0
  0
SPLINE
  5
180
100
AcDbEntity
  8
0
100
AcDbSpline
210
0.0
220
0.0
230
1.0
 62
     253
 70
     0
 71
     3
 72
     8
 73
4
 40
0.0
 40
0.0
 40
0.0
 40
0.0
 40
1.0
 40
1.0
 40
1.0
 40
1.0
 10
54.6763
 20
410.404
 30
0.0
 10
54.6763
 20
410.404
 30
0.0
 10
54.6763
 20
410.358
 30
0.0
 10
54.6763
 20
410.273
 30
0.0
  0
SPLINE
  5
181
100
AcDbEntity
  8
0
100
AcDbSpline
210
0.0
220
0.0
230
1.0
 62
     253
 70
     0
 71
     3
 72
     8
 73
4
 40
0.0
 40
0.0
 40
0.0
 40
0.0
 40
1.0
 40
1.0
 40
1.0
 40
1.0
 10
54.6763
 20
410.273
 30
0.0
 10
54.6763
 20
410.182
 30
0.0
 10
54.6763
 20
410.044
 30
0.0
 10
54.6763
 20
409.903
 30
0.0
  0
LINE
  5
182
100
AcDbEntity
  8
0
100
AcDbLine
 62
     253
 10
64.6769
 20
355.903
 30
0.0
 11
65.6759
 21
356.905
 31
0.0
  0
LINE
  5
183
100
AcDbEntity
  8
0
100
AcDbLine
 62
     253
 10
54.6763
 20
417.904
 30
0.0
 11
55.6754
 21
418.906
 31
0.0
  0
LINE
  5
184
100
AcDbEntity
  8
0
100
AcDbLine
 62
     253
 10
65.6759
 20
356.905
 30
0.0
 11
65.6759
 21
417.904
 31
0.0
  0
LINE
  5
185
100
AcDbEntity
  8
0
100
AcDbLine
 62
     253
 10
64.6769
 20
418.906
 30
0.0
 11
55.6754
 21
418.906
 31
0.0
  0
LINE
  5
186
100
AcDbEntity
  8
0
100
AcDbLine
 62
     253
 10
65.6759
 20
417.904
 30
0.0
 11
64.6769
 21
418.906
 31
0.0
  0
SPLINE
  5
187
100
AcDbEntity
  8
0
100
AcDbSpline
210
0.0
220
0.0
230
1.0
 62
     253
 70
     0
 71
     3
 72
     8
 73
4
 40
0.0
 40
0.0
 40
0.0
 40
0.0
 40
1.0
 40
1.0
 40
1.0
 40
1.0
 10
61.6768
 20
369.404
 30
0.0
 10
61.6768
 20
368.854
 30
0.0
 10
61.2292
 20
368.406
 30
0.0
 10
60.6764
 20
368.406
 30
0.0
  0
SPLINE
  5
188
100
AcDbEntity
  8
0
100
AcDbSpline
210
0.0
220
0.0
230
1.0
 62
     253
 70
     0
 71
     3
 72
     8
 73
4
 40
0.0
 40
0.0
 40
0.0
 40
0.0
 40
1.0
 40
1.0
 40
1.0
 40
1.0
 10
60.6764
 20
368.406
 30
0.0
 10
60.1239
 20
368.406
 30
0.0
 10
59.6759
 20
368.854
 30
0.0
 10
59.6759
 20
369.404
 30
0.0
  0
SPLINE
  5
189
100
AcDbEntity
  8
0
100
AcDbSpline
210
0.0
220
0.0
230
1.0
 62
     253
 70
     0
 71
     3
 72
     8
 73
4
 40
0.0
 40
0.0
 40
0.0
 40
0.0
 40
1.0
 40
1.0
 40
1.0
 40
1.0
 10
59.6759
 20
369.404
 30
0.0
 10
59.6759
 20
369.958
 30
0.0
 10
60.1239
 20
370.406
 30
0.0
 10
60.6764
 20
370.406
 30
0.0
  0
SPLINE
  5
18a
100
AcDbEntity
  8
0
100
AcDbSpline
210
0.0
220
0.0
230
1.0
 62
     253
 70
     0
 71
     3
 72
     8
 73
4
 40
0.0
 40
0.0
 40
0.0
 40
0.0
 40
1.0
 40
1.0
 40
1.0
 40
1.0
 10
60.6764
 20
370.406
 30
0.0
 10
61.2292
 20
370.406
 30
0.0
 10
61.6768
 20
369.958
 30
0.0
 10
61.6768
 20
369.404
 30
0.0
  0
SPLINE
  5
18b
100
AcDbEntity
  8
0
100
AcDbSpline
210
0.0
220
0.0
230
1.0
 62
     253
 70
     0
 71
     3
 72
     8
 73
4
 40
0.0
 40
0.0
 40
0.0
 40
0.0
 40
1.0
 40
1.0
 40
1.0
 40
1.0
 10
61.6768
 20
360.405
 30
0.0
 10
61.6768
 20
359.851
 30
0.0
 10
61.2292
 20
359.406
 30
0.0
 10
60.6764
 20
359.406
 30
0.0
  0
SPLINE
  5
18c
100
AcDbEntity
  8
0
100
AcDbSpline
210
0.0
220
0.0
230
1.0
 62
     253
 70
     0
 71
     3
 72
     8
 73
4
 40
0.0
 40
0.0
 40
0.0
 40
0.0
 40
1.0
 40
1.0
 40
1.0
 40
1.0
 10
60.6764
 20
359.406
 30
0.0
 10
60.1239
 20
359.406
 30
0.0
 10
59.6759
 20
359.851
 30
0.0
 10
59.6759
 20
360.405
 30
0.0
  0
SPLINE
  5
18d
100
AcDbEntity
  8
0
100
AcDbSpline
210
0.0
220
0.0
230
1.0
 62
     253
 70
     0
 71
     3
 72
     8
 73
4
 40
0.0
 40
0.0
 40
0.0
 40
0.0
 40
1.0
 40
1.0
 40
1.0
 40
1.0
 10
59.6759
 20
360.405
 30
0.0
 10
59.6759
 20
360.955
 30
0.0
 10
60.1239
 20
361.407
 30
0.0
 10
60.6764
 20
361.407
 30
0.0
  0
SPLINE
  5
18e
100
AcDbEntity
  8
0
100
AcDbSpline
210
0.0
220
0.0
230
1.0
 62
     253
 70
     0
 71
     3
 72
     8
 73
4
 40
0.0
 40
0.0
 40
0.0
 40
0.0
 40
1.0
 40
1.0
 40
1.0
 40
1.0
 10
60.6764
 20
361.407
 30
0.0
 10
61.2292
 20
361.407
 30
0.0
 10
61.6768
 20
360.955
 30
0.0
 10
61.6768
 20
360.405
 30
0.0
  0
SPLINE
  5
18f
100
AcDbEntity
  8
0
100
AcDbSpline
210
0.0
220
0.0
230
1.0
 62
     253
 70
     0
 71
     3
 72
     8
 73
4
 40
0.0
 40
0.0
 40
0.0
 40
0.0
 40
1.0
 40
1.0
 40
1.0
 40
1.0
 10
61.6768
 20
414.405
 30
0.0
 10
61.6768
 20
413.854
 30
0.0
 10
61.2292
 20
413.406
 30
0.0
 10
60.6764
 20
413.406
 30
0.0
  0
SPLINE
  5
190
100
AcDbEntity
  8
0
100
AcDbSpline
210
0.0
220
0.0
230
1.0
 62
     253
 70
     0
 71
     3
 72
     8
 73
4
 40
0.0
 40
0.0
 40
0.0
 40
0.0
 40
1.0
 40
1.0
 40
1.0
 40
1.0
 10
60.6764
 20
413.406
 30
0.0
 10
60.1239
 20
413.406
 30
0.0
 10
59.6759
 20
413.854
 30
0.0
 10
59.6759
 20
414.405
 30
0.0
  0
SPLINE
  5
191
100
AcDbEntity
  8
0
100
AcDbSpline
210
0.0
220
0.0
230
1.0
 62
     253
 70
     0
 71
     3
 72
     8
 73
4
 40
0.0
 40
0.0
 40
0.0
 40
0.0
 40
1.0
 40
1.0
 40
1.0
 40
1.0
 10
59.6759
 20
414.405
 30
0.0
 10
59.6759
 20
414.958
 30
0.0
 10
60.1239
 20
415.403
 30
0.0
 10
60.6764
 20
415.403
 30
0.0
  0
SPLINE
  5
192
100
AcDbEntity
  8
0
100
AcDbSpline
210
0.0
220
0.0
230
1.0
 62
     253
 70
     0
 71
     3
 72
     8
 73
4
 40
0.0
 40
0.0
 40
0.0
 40
0.0
 40
1.0
 40
1.0
 40
1.0
 40
1.0
 10
60.6764
 20
415.403
 30
0.0
 10
61.2292
 20
415.403
 30
0.0
 10
61.6768
 20
414.958
 30
0.0
 10
61.6768
 20
414.405
 30
0.0
  0
SPLINE
  5
193
100
AcDbEntity
  8
0
100
AcDbSpline
210
0.0
220
0.0
230
1.0
 62
     253
 70
     0
 71
     3
 72
     8
 73
4
 40
0.0
 40
0.0
 40
0.0
 40
0.0
 40
1.0
 40
1.0
 40
1.0
 40
1.0
 10
61.6768
 20
405.405
 30
0.0
 10
61.6768
 20
404.851
 30
0.0
 10
61.2292
 20
404.403
 30
0.0
 10
60.6764
 20
404.403
 30
0.0
  0
SPLINE
  5
194
100
AcDbEntity
  8
0
100
AcDbSpline
210
0.0
220
0.0
230
1.0
 62
     253
 70
     0
 71
     3
 72
     8
 73
4
 40
0.0
 40
0.0
 40
0.0
 40
0.0
 40
1.0
 40
1.0
 40
1.0
 40
1.0
 10
60.6764
 20
404.403
 30
0.0
 10
60.1239
 20
404.403
 30
0.0
 10
59.6759
 20
404.851
 30
0.0
 10
59.6759
 20
405.405
 30
0.0
  0
SPLINE
  5
195
100
AcDbEntity
  8
0
100
AcDbSpline
210
0.0
220
0.0
230
1.0
 62
     253
 70
     0
 71
     3
 72
     8
 73
4
 40
0.0
 40
0.0
 40
0.0
 40
0.0
 40
1.0
 40
1.0
 40
1.0
 40
1.0
 10
59.6759
 20
405.405
 30
0.0
 10
59.6759
 20
405.959
 30
0.0
 10
60.1239
 20
406.404
 30
0.0
 10
60.6764
 20
406.404
 30
0.0
  0
SPLINE
  5
196
100
AcDbEntity
  8
0
100
AcDbSpline
210
0.0
220
0.0
230
1.0
 62
     253
 70
     0
 71
     3
 72
     8
 73
4
 40
0.0
 40
0.0
 40
0.0
 40
0.0
 40
1.0
 40
1.0
 40
1.0
 40
1.0
 10
60.6764
 20
406.404
 30
0.0
 10
61.2292
 20
406.404
 30
0.0
 10
61.6768
 20
405.959
 30
0.0
 10
61.6768
 20
405.405
 30
0.0
  0
SPLINE
  5
197
100
AcDbEntity
  8
0
100
AcDbSpline
210
0.0
220
0.0
230
1.0
 62
     253
 70
     0
 71
     3
 72
     8
 73
4
 40
0.0
 40
0.0
 40
0.0
 40
0.0
 40
1.0
 40
1.0
 40
1.0
 40
1.0
 10
62.5369
 20
409.903
 30
0.0
 10
62.5369
 20
410.182
 30
0.0
 10
62.5369
 20
410.404
 30
0.0
 10
62.5369
 20
410.404
 30
0.0
  0
SPLINE
  5
198
100
AcDbEntity
  8
0
100
AcDbSpline
210
0.0
220
0.0
230
1.0
 62
     253
 70
     0
 71
     3
 72
     8
 73
4
 40
0.0
 40
0.0
 40
0.0
 40
0.0
 40
1.0
 40
1.0
 40
1.0
 40
1.0
 10
62.5369
 20
410.404
 30
0.0
 10
62.5369
 20
410.404
 30
0.0
 10
62.5369
 20
410.182
 30
0.0
 10
62.5369
 20
409.903
 30
0.0
  0
SPLINE
  5
199
100
AcDbEntity
  8
0
100
AcDbSpline
210
0.0
220
0.0
230
1.0
 62
     253
 70
     0
 71
     3
 72
     8
 73
4
 40
0.0
 40
0.0
 40
0.0
 40
0.0
 40
1.0
 40
1.0
 40
1.0
 40
1.0
 10
62.5369
 20
409.903
 30
0.0
 10
62.5369
 20
409.628
 30
0.0
 10
62.5369
 20
409.406
 30
0.0
 10
62.5369
 20
409.406
 30
0.0
  0
SPLINE
  5
19a
100
AcDbEntity
  8
0
100
AcDbSpline
210
0.0
220
0.0
230
1.0
 62
     253
 70
     0
 71
     3
 72
     8
 73
4
 40
0.0
 40
0.0
 40
0.0
 40
0.0
 40
1.0
 40
1.0
 40
1.0
 40
1.0
 10
62.5369
 20
409.406
 30
0.0
 10
62.5369
 20
409.406
 30
0.0
 10
62.5369
 20
409.628
 30
0.0
 10
62.5369
 20
409.903
 30
0.0
  0
LINE
  5
19b
100
AcDbEntity
  8
0
100
AcDbLine
 62
     253
 10
53.4762
 20
391.904
 30
0.0
 11
54.6763
 21
391.904
 31
0.0
  0
LINE
  5
19c
100
AcDbEntity
  8
0
100
AcDbLine
 62
     253
 10
53.4762
 20
389.908
 30
0.0
 11
54.6763
 21
389.908
 31
0.0
  0
LINE
  5
19d
100
AcDbEntity
  8
0
100
AcDbLine
 62
     253
 10
53.4762
 20
366.907
 30
0.0
 11
54.6763
 21
366.907
 31
0.0
  0
LINE
  5
19e
100
AcDbEntity
  8
0
100
AcDbLine
 62
     253
 10
53.4762
 20
364.906
 30
0.0
 11
54.6763
 21
364.906
 31
0.0
  0
LINE
  5
19f
100
AcDbEntity
  8
0
100
AcDbLine
 62
     253
 10
53.4762
 20
366.907
 30
0.0
 11
54.6763
 21
366.907
 31
0.0
  0
LINE
  5
1a0
100
AcDbEntity
  8
0
100
AcDbLine
 62
     253
 10
53.4762
 20
364.906
 30
0.0
 11
54.6763
 21
364.906
 31
0.0
  0
LINE
  5
1a1
100
AcDbEntity
  8
0
100
AcDbLine
 62
     253
 10
53.4762
 20
391.904
 30
0.0
 11
54.6763
 21
391.904
 31
0.0
  0
LINE
  5
1a2
100
AcDbEntity
  8
0
100
AcDbLine
 62
     253
 10
53.4762
 20
389.908
 30
0.0
 11
54.6763
 21
389.908
 31
0.0
  0
LINE
  5
1a3
100
AcDbEntity
  8
0
100
AcDbLine
 62
     253
 10
62.5369
 20
410.404
 30
0.0
 11
54.6763
 21
410.404
 31
0.0
  0
LINE
  5
1a4
100
AcDbEntity
  8
0
100
AcDbLine
 62
     253
 10
62.5369
 20
409.406
 30
0.0
 11
54.6763
 21
409.406
 31
0.0
  0
LINE
  5
1a5
100
AcDbEntity
  8
0
100
AcDbLine
 62
     253
 10
119.076
 20
362.906
 30
0.0
 11
119.076
 21
393.905
 31
0.0
  0
LINE
  5
1a6
100
AcDbEntity
  8
0
100
AcDbLine
 62
     253
 10
108.575
 20
361.908
 30
0.0
 11
118.076
 21
361.908
 31
0.0
  0
LINE
  5
1a7
100
AcDbEntity
  8
0
100
AcDbLine
 62
     253
 10
119.076
 20
362.906
 30
0.0
 11
118.076
 21
361.908
 31
0.0
  0
LINE
  5
1a8
100
AcDbEntity
  8
0
100
AcDbLine
 62
     253
 10
108.575
 20
361.908
 30
0.0
 11
108.575
 21
394.907
 31
0.0
  0
LINE
  5
1a9
100
AcDbEntity
  8
0
100
AcDbLine
 62
     253
 10
118.076
 20
394.907
 30
0.0
 11
108.575
 21
394.907
 31
0.0
  0
LINE
  5
1aa
100
AcDbEntity
  8
0
100
AcDbLine
 62
     253
 10
119.076
 20
393.905
 30
0.0
 11
118.076
 21
394.907
 31
0.0
  0
SPLINE
  5
1ab
100
AcDbEntity
  8
0
100
AcDbSpline
210
0.0
220
0.0
230
1.0
 62
     253
 70
     0
 71
     3
 72
     8
 73
4
 40
0.0
 40
0.0
 40
0.0
 40
0.0
 40
1.0
 40
1.0
 40
1.0
 40
1.0
 10
116.076
 20
390.902
 30
0.0
 10
116.076
 20
390.352
 30
0.0
 10
115.629
 20
389.908
 30
0.0
 10
115.076
 20
389.908
 30
0.0
  0
SPLINE
  5
1ac
100
AcDbEntity
  8
0
100
AcDbSpline
210
0.0
220
0.0
230
1.0
 62
     253
 70
     0
 71
     3
 72
     8
 73
4
 40
0.0
 40
0.0
 40
0.0
 40
0.0
 40
1.0
 40
1.0
 40
1.0
 40
1.0
 10
115.076
 20
389.908
 30
0.0
 10
114.523
 20
389.908
 30
0.0
 10
114.077
 20
390.352
 30
0.0
 10
114.077
 20
390.902
 30
0.0
  0
SPLINE
  5
1ad
100
AcDbEntity
  8
0
100
AcDbSpline
210
0.0
220
0.0
230
1.0
 62
     253
 70
     0
 71
     3
 72
     8
 73
4
 40
0.0
 40
0.0
 40
0.0
 40
0.0
 40
1.0
 40
1.0
 40
1.0
 40
1.0
 10
114.077
 20
390.902
 30
0.0
 10
114.077
 20
391.456
 30
0.0
 10
114.523
 20
391.904
 30
0.0
 10
115.076
 20
391.904
 30
0.0
  0
SPLINE
  5
1ae
100
AcDbEntity
  8
0
100
AcDbSpline
210
0.0
220
0.0
230
1.0
 62
     253
 70
     0
 71
     3
 72
     8
 73
4
 40
0.0
 40
0.0
 40
0.0
 40
0.0
 40
1.0
 40
1.0
 40
1.0
 40
1.0
 10
115.076
 20
391.904
 30
0.0
 10
115.629
 20
391.904
 30
0.0
 10
116.076
 20
391.456
 30
0.0
 10
116.076
 20
390.902
 30
0.0
  0
SPLINE
  5
1af
100
AcDbEntity
  8
0
100
AcDbSpline
210
0.0
220
0.0
230
1.0
 62
     253
 70
     0
 71
     3
 72
     8
 73
4
 40
0.0
 40
0.0
 40
0.0
 40
0.0
 40
1.0
 40
1.0
 40
1.0
 40
1.0
 10
116.076
 20
365.905
 30
0.0
 10
116.076
 20
365.351
 30
0.0
 10
115.629
 20
364.906
 30
0.0
 10
115.076
 20
364.906
 30
0.0
  0
SPLINE
  5
1b0
100
AcDbEntity
  8
0
100
AcDbSpline
210
0.0
220
0.0
230
1.0
 62
     253
 70
     0
 71
     3
 72
     8
 73
4
 40
0.0
 40
0.0
 40
0.0
 40
0.0
 40
1.0
 40
1.0
 40
1.0
 40
1.0
 10
115.076
 20
364.906
 30
0.0
 10
114.523
 20
364.906
 30
0.0
 10
114.077
 20
365.351
 30
0.0
 10
114.077
 20
365.905
 30
0.0
  0
SPLINE
  5
1b1
100
AcDbEntity
  8
0
100
AcDbSpline
210
0.0
220
0.0
230
1.0
 62
     253
 70
     0
 71
     3
 72
     8
 73
4
 40
0.0
 40
0.0
 40
0.0
 40
0.0
 40
1.0
 40
1.0
 40
1.0
 40
1.0
 10
114.077
 20
365.905
 30
0.0
 10
114.077
 20
366.455
 30
0.0
 10
114.523
 20
366.907
 30
0.0
 10
115.076
 20
366.907
 30
0.0
  0
SPLINE
  5
1b2
100
AcDbEntity
  8
0
100
AcDbSpline
210
0.0
220
0.0
230
1.0
 62
     253
 70
     0
 71
     3
 72
     8
 73
4
 40
0.0
 40
0.0
 40
0.0
 40
0.0
 40
1.0
 40
1.0
 40
1.0
 40
1.0
 10
115.076
 20
366.907
 30
0.0
 10
115.629
 20
366.907
 30
0.0
 10
116.076
 20
366.455
 30
0.0
 10
116.076
 20
365.905
 30
0.0
  0
LINE
  5
1b3
100
AcDbEntity
  8
0
100
AcDbLine
 62
     253
 10
97.076
 20
361.908
 30
0.0
 11
106.576
 21
361.908
 31
0.0
  0
LINE
  5
1b4
100
AcDbEntity
  8
0
100
AcDbLine
 62
     253
 10
106.576
 20
361.908
 30
0.0
 11
108.575
 21
361.908
 31
0.0
  0
LINE
  5
1b5
100
AcDbEntity
  8
0
100
AcDbLine
 62
     253
 10
108.575
 20
355.903
 30
0.0
 11
108.575
 21
356.905
 31
0.0
  0
LINE
  5
1b6
100
AcDbEntity
  8
0
100
AcDbLine
 62
     253
 10
108.575
 20
356.905
 30
0.0
 11
108.575
 21
417.904
 31
0.0
  0
LINE
  5
1b7
100
AcDbEntity
  8
0
100
AcDbLine
 62
     253
 10
108.575
 20
417.904
 30
0.0
 11
108.575
 21
418.906
 31
0.0
  0
LINE
  5
1b8
100
AcDbEntity
  8
0
100
AcDbLine
 62
     253
 10
108.575
 20
369.404
 30
0.0
 11
108.575
 21
370.406
 31
0.0
  0
LINE
  5
1b9
100
AcDbEntity
  8
0
100
AcDbLine
 62
     253
 10
108.575
 20
370.406
 30
0.0
 11
108.575
 21
368.406
 31
0.0
  0
LINE
  5
1ba
100
AcDbEntity
  8
0
100
AcDbLine
 62
     253
 10
108.575
 20
368.406
 30
0.0
 11
108.575
 21
369.404
 31
0.0
  0
LINE
  5
1bb
100
AcDbEntity
  8
0
100
AcDbLine
 62
     253
 10
108.575
 20
360.405
 30
0.0
 11
108.575
 21
361.407
 31
0.0
  0
LINE
  5
1bc
100
AcDbEntity
  8
0
100
AcDbLine
 62
     253
 10
108.575
 20
361.407
 30
0.0
 11
108.575
 21
359.406
 31
0.0
  0
LINE
  5
1bd
100
AcDbEntity
  8
0
100
AcDbLine
 62
     253
 10
108.575
 20
359.406
 30
0.0
 11
108.575
 21
360.405
 31
0.0
  0
LINE
  5
1be
100
AcDbEntity
  8
0
100
AcDbLine
 62
     253
 10
108.575
 20
414.405
 30
0.0
 11
108.575
 21
415.403
 31
0.0
  0
LINE
  5
1bf
100
AcDbEntity
  8
0
100
AcDbLine
 62
     253
 10
108.575
 20
415.403
 30
0.0
 11
108.575
 21
413.406
 31
0.0
  0
LINE
  5
1c0
100
AcDbEntity
  8
0
100
AcDbLine
 62
     253
 10
108.575
 20
413.406
 30
0.0
 11
108.575
 21
414.405
 31
0.0
  0
LINE
  5
1c1
100
AcDbEntity
  8
0
100
AcDbLine
 62
     253
 10
108.575
 20
405.405
 30
0.0
 11
108.575
 21
406.404
 31
0.0
  0
LINE
  5
1c2
100
AcDbEntity
  8
0
100
AcDbLine
 62
     253
 10
108.575
 20
406.404
 30
0.0
 11
108.575
 21
404.403
 31
0.0
  0
LINE
  5
1c3
100
AcDbEntity
  8
0
100
AcDbLine
 62
     253
 10
108.575
 20
404.403
 30
0.0
 11
108.575
 21
405.405
 31
0.0
  0
LINE
  5
1c4
100
AcDbEntity
  8
0
100
AcDbLine
 62
     253
 10
106.576
 20
394.907
 30
0.0
 11
97.076
 21
394.907
 31
0.0
  0
LINE
  5
1c5
100
AcDbEntity
  8
0
100
AcDbLine
 62
     253
 10
108.575
 20
394.907
 30
0.0
 11
106.576
 21
394.907
 31
0.0
  0
LINE
  5
1c6
100
AcDbEntity
  8
0
100
AcDbLine
 62
     253
 10
97.076
 20
361.908
 30
0.0
 11
96.0769
 21
362.906
 31
0.0
  0
LINE
  5
1c7
100
AcDbEntity
  8
0
100
AcDbLine
 62
     253
 10
96.0769
 20
362.906
 30
0.0
 11
96.0769
 21
393.905
 31
0.0
  0
LINE
  5
1c8
100
AcDbEntity
  8
0
100
AcDbLine
 62
     253
 10
97.076
 20
394.907
 30
0.0
 11
96.0769
 21
393.905
 31
0.0
  0
SPLINE
  5
1c9
100
AcDbEntity
  8
0
100
AcDbSpline
210
0.0
220
0.0
230
1.0
 62
     253
 70
     0
 71
     3
 72
     8
 73
4
 40
0.0
 40
0.0
 40
0.0
 40
0.0
 40
1.0
 40
1.0
 40
1.0
 40
1.0
 10
101.076
 20
365.905
 30
0.0
 10
101.076
 20
365.351
 30
0.0
 10
100.628
 20
364.906
 30
0.0
 10
100.076
 20
364.906
 30
0.0
  0
SPLINE
  5
1ca
100
AcDbEntity
  8
0
100
AcDbSpline
210
0.0
220
0.0
230
1.0
 62
     253
 70
     0
 71
     3
 72
     8
 73
4
 40
0.0
 40
0.0
 40
0.0
 40
0.0
 40
1.0
 40
1.0
 40
1.0
 40
1.0
 10
100.076
 20
364.906
 30
0.0
 10
99.5232
 20
364.906
 30
0.0
 10
99.0769
 20
365.351
 30
0.0
 10
99.0769
 20
365.905
 30
0.0
  0
SPLINE
  5
1cb
100
AcDbEntity
  8
0
100
AcDbSpline
210
0.0
220
0.0
230
1.0
 62
     253
 70
     0
 71
     3
 72
     8
 73
4
 40
0.0
 40
0.0
 40
0.0
 40
0.0
 40
1.0
 40
1.0
 40
1.0
 40
1.0
 10
99.0769
 20
365.905
 30
0.0
 10
99.0769
 20
366.455
 30
0.0
 10
99.5232
 20
366.907
 30
0.0
 10
100.076
 20
366.907
 30
0.0
  0
SPLINE
  5
1cc
100
AcDbEntity
  8
0
100
AcDbSpline
210
0.0
220
0.0
230
1.0
 62
     253
 70
     0
 71
     3
 72
     8
 73
4
 40
0.0
 40
0.0
 40
0.0
 40
0.0
 40
1.0
 40
1.0
 40
1.0
 40
1.0
 10
100.076
 20
366.907
 30
0.0
 10
100.628
 20
366.907
 30
0.0
 10
101.076
 20
366.455
 30
0.0
 10
101.076
 20
365.905
 30
0.0
  0
SPLINE
  5
1cd
100
AcDbEntity
  8
0
100
AcDbSpline
210
0.0
220
0.0
230
1.0
 62
     253
 70
     0
 71
     3
 72
     8
 73
4
 40
0.0
 40
0.0
 40
0.0
 40
0.0
 40
1.0
 40
1.0
 40
1.0
 40
1.0
 10
101.076
 20
390.902
 30
0.0
 10
101.076
 20
390.352
 30
0.0
 10
100.628
 20
389.908
 30
0.0
 10
100.076
 20
389.908
 30
0.0
  0
SPLINE
  5
1ce
100
AcDbEntity
  8
0
100
AcDbSpline
210
0.0
220
0.0
230
1.0
 62
     253
 70
     0
 71
     3
 72
     8
 73
4
 40
0.0
 40
0.0
 40
0.0
 40
0.0
 40
1.0
 40
1.0
 40
1.0
 40
1.0
 10
100.076
 20
389.908
 30
0.0
 10
99.5232
 20
389.908
 30
0.0
 10
99.0769
 20
390.352
 30
0.0
 10
99.0769
 20
390.902
 30
0.0
  0
SPLINE
  5
1cf
100
AcDbEntity
  8
0
100
AcDbSpline
210
0.0
220
0.0
230
1.0
 62
     253
 70
     0
 71
     3
 72
     8
 73
4
 40
0.0
 40
0.0
 40
0.0
 40
0.0
 40
1.0
 40
1.0
 40
1.0
 40
1.0
 10
99.0769
 20
390.902
 30
0.0
 10
99.0769
 20
391.456
 30
0.0
 10
99.5232
 20
391.904
 30
0.0
 10
100.076
 20
391.904
 30
0.0
  0
SPLINE
  5
1d0
100
AcDbEntity
  8
0
100
AcDbSpline
210
0.0
220
0.0
230
1.0
 62
     253
 70
     0
 71
     3
 72
     8
 73
4
 40
0.0
 40
0.0
 40
0.0
 40
0.0
 40
1.0
 40
1.0
 40
1.0
 40
1.0
 10
100.076
 20
391.904
 30
0.0
 10
100.628
 20
391.904
 30
0.0
 10
101.076
 20
391.456
 30
0.0
 10
101.076
 20
390.902
 30
0.0
  0
LINE
  5
1d1
100
AcDbEntity
  8
0
100
AcDbLine
 62
     253
 10
106.576
 20
361.908
 30
0.0
 11
106.576
 21
394.907
 31
0.0
  0
LINE
  5
1d2
100
AcDbEntity
  8
0
100
AcDbLine
 62
     253
 10
108.575
 20
355.903
 30
0.0
 11
106.576
 21
355.903
 31
0.0
  0
LINE
  5
1d3
100
AcDbEntity
  8
0
100
AcDbLine
 62
     253
 10
108.575
 20
356.905
 30
0.0
 11
106.576
 21
356.905
 31
0.0
  0
LINE
  5
1d4
100
AcDbEntity
  8
0
100
AcDbLine
 62
     253
 10
106.576
 20
355.903
 30
0.0
 11
106.576
 21
356.905
 31
0.0
  0
LINE
  5
1d5
100
AcDbEntity
  8
0
100
AcDbLine
 62
     253
 10
108.575
 20
417.904
 30
0.0
 11
106.576
 21
417.904
 31
0.0
  0
LINE
  5
1d6
100
AcDbEntity
  8
0
100
AcDbLine
 62
     253
 10
106.576
 20
356.905
 30
0.0
 11
106.576
 21
417.904
 31
0.0
  0
LINE
  5
1d7
100
AcDbEntity
  8
0
100
AcDbLine
 62
     253
 10
108.575
 20
418.906
 30
0.0
 11
106.576
 21
418.906
 31
0.0
  0
LINE
  5
1d8
100
AcDbEntity
  8
0
100
AcDbLine
 62
     253
 10
106.576
 20
417.904
 30
0.0
 11
106.576
 21
418.906
 31
0.0
  0
LINE
  5
1d9
100
AcDbEntity
  8
0
100
AcDbLine
 62
     253
 10
106.576
 20
369.404
 30
0.0
 11
106.576
 21
370.406
 31
0.0
  0
LINE
  5
1da
100
AcDbEntity
  8
0
100
AcDbLine
 62
     253
 10
106.576
 20
370.406
 30
0.0
 11
106.576
 21
368.406
 31
0.0
  0
LINE
  5
1db
100
AcDbEntity
  8
0
100
AcDbLine
 62
     253
 10
106.576
 20
368.406
 30
0.0
 11
106.576
 21
369.404
 31
0.0
  0
LINE
  5
1dc
100
AcDbEntity
  8
0
100
AcDbLine
 62
     253
 10
106.576
 20
360.405
 30
0.0
 11
106.576
 21
361.407
 31
0.0
  0
LINE
  5
1dd
100
AcDbEntity
  8
0
100
AcDbLine
 62
     253
 10
106.576
 20
361.407
 30
0.0
 11
106.576
 21
359.406
 31
0.0
  0
LINE
  5
1de
100
AcDbEntity
  8
0
100
AcDbLine
 62
     253
 10
106.576
 20
359.406
 30
0.0
 11
106.576
 21
360.405
 31
0.0
  0
LINE
  5
1df
100
AcDbEntity
  8
0
100
AcDbLine
 62
     253
 10
106.576
 20
414.405
 30
0.0
 11
106.576
 21
415.403
 31
0.0
  0
LINE
  5
1e0
100
AcDbEntity
  8
0
100
AcDbLine
 62
     253
 10
106.576
 20
415.403
 30
0.0
 11
106.576
 21
413.406
 31
0.0
  0
LINE
  5
1e1
100
AcDbEntity
  8
0
100
AcDbLine
 62
     253
 10
106.576
 20
413.406
 30
0.0
 11
106.576
 21
414.405
 31
0.0
  0
LINE
  5
1e2
100
AcDbEntity
  8
0
100
AcDbLine
 62
     253
 10
106.576
 20
405.405
 30
0.0
 11
106.576
 21
406.404
 31
0.0
  0
LINE
  5
1e3
100
AcDbEntity
  8
0
100
AcDbLine
 62
     253
 10
106.576
 20
406.404
 30
0.0
 11
106.576
 21
404.403
 31
0.0
  0
LINE
  5
1e4
100
AcDbEntity
  8
0
100
AcDbLine
 62
     253
 10
106.576
 20
404.403
 30
0.0
 11
106.576
 21
405.405
 31
0.0
  0
SPLINE
  5
1e5
100
AcDbEntity
  8
0
100
AcDbSpline
210
0.0
220
0.0
230
1.0
 62
     253
 70
     0
 71
     3
 72
     8
 73
4
 40
0.0
 40
0.0
 40
0.0
 40
0.0
 40
1.0
 40
1.0
 40
1.0
 40
1.0
 10
107.576
 20
410.404
 30
0.0
 10
107.299
 20
410.404
 30
0.0
 10
107.076
 20
410.182
 30
0.0
 10
107.076
 20
409.903
 30
0.0
  0
SPLINE
  5
1e6
100
AcDbEntity
  8
0
100
AcDbSpline
210
0.0
220
0.0
230
1.0
 62
     253
 70
     0
 71
     3
 72
     8
 73
4
 40
0.0
 40
0.0
 40
0.0
 40
0.0
 40
1.0
 40
1.0
 40
1.0
 40
1.0
 10
107.076
 20
409.903
 30
0.0
 10
107.076
 20
409.628
 30
0.0
 10
107.299
 20
409.406
 30
0.0
 10
107.576
 20
409.406
 30
0.0
  0
SPLINE
  5
1e7
100
AcDbEntity
  8
0
100
AcDbSpline
210
0.0
220
0.0
230
1.0
 62
     253
 70
     0
 71
     3
 72
     8
 73
4
 40
0.0
 40
0.0
 40
0.0
 40
0.0
 40
1.0
 40
1.0
 40
1.0
 40
1.0
 10
107.576
 20
409.406
 30
0.0
 10
107.852
 20
409.406
 30
0.0
 10
108.077
 20
409.628
 30
0.0
 10
108.077
 20
409.903
 30
0.0
  0
SPLINE
  5
1e8
100
AcDbEntity
  8
0
100
AcDbSpline
210
0.0
220
0.0
230
1.0
 62
     253
 70
     0
 71
     3
 72
     8
 73
4
 40
0.0
 40
0.0
 40
0.0
 40
0.0
 40
1.0
 40
1.0
 40
1.0
 40
1.0
 10
108.077
 20
409.903
 30
0.0
 10
108.077
 20
410.182
 30
0.0
 10
107.852
 20
410.404
 30
0.0
 10
107.576
 20
410.404
 30
0.0
  0
LINE
  5
1e9
100
AcDbEntity
  8
0
100
AcDbLine
 62
     253
 10
106.576
 20
370.406
 30
0.0
 11
108.575
 21
370.406
 31
0.0
  0
LINE
  5
1ea
100
AcDbEntity
  8
0
100
AcDbLine
 62
     253
 10
106.576
 20
368.406
 30
0.0
 11
108.575
 21
368.406
 31
0.0
  0
LINE
  5
1eb
100
AcDbEntity
  8
0
100
AcDbLine
 62
     253
 10
106.576
 20
361.407
 30
0.0
 11
108.575
 21
361.407
 31
0.0
  0
LINE
  5
1ec
100
AcDbEntity
  8
0
100
AcDbLine
 62
     253
 10
106.576
 20
359.406
 30
0.0
 11
108.575
 21
359.406
 31
0.0
  0
LINE
  5
1ed
100
AcDbEntity
  8
0
100
AcDbLine
 62
     253
 10
106.576
 20
415.403
 30
0.0
 11
108.575
 21
415.403
 31
0.0
  0
LINE
  5
1ee
100
AcDbEntity
  8
0
100
AcDbLine
 62
     253
 10
106.576
 20
413.406
 30
0.0
 11
108.575
 21
413.406
 31
0.0
  0
LINE
  5
1ef
100
AcDbEntity
  8
0
100
AcDbLine
 62
     253
 10
106.576
 20
406.404
 30
0.0
 11
108.575
 21
406.404
 31
0.0
  0
LINE
  5
1f0
100
AcDbEntity
  8
0
100
AcDbLine
 62
     253
 10
106.576
 20
404.403
 30
0.0
 11
108.575
 21
404.403
 31
0.0
  0
LINE
  5
1f1
100
AcDbEntity
  8
0
100
AcDbLine
 62
     253
 10
0.0757922
 20
329.306
 30
0.0
 11
0.0757922
 21
330.504
 31
0.0
  0
LINE
  5
1f2
100
AcDbEntity
  8
0
100
AcDbLine
 62
     253
 10
10.5765
 20
329.306
 30
0.0
 11
1.07625
 21
329.306
 31
0.0
  0
LINE
  5
1f3
100
AcDbEntity
  8
0
100
AcDbLine
 62
     253
 10
0.0757922
 20
329.306
 30
0.0
 11
1.07625
 21
329.306
 31
0.0
  0
LINE
  5
1f4
100
AcDbEntity
  8
0
100
AcDbLine
 62
     253
 10
5.07668
 20
329.306
 30
0.0
 11
3.07578
 21
329.306
 31
0.0
  0
LINE
  5
1f5
100
AcDbEntity
  8
0
100
AcDbLine
 62
     253
 10
3.07578
 20
329.306
 30
0.0
 11
5.07668
 21
329.306
 31
0.0
  0
LINE
  5
1f6
100
AcDbEntity
  8
0
100
AcDbLine
 62
     253
 10
5.07668
 20
329.306
 30
0.0
 11
3.07578
 21
329.306
 31
0.0
  0
LINE
  5
1f7
100
AcDbEntity
  8
0
100
AcDbLine
 62
     253
 10
3.07578
 20
329.306
 30
0.0
 11
5.07668
 21
329.306
 31
0.0
  0
LINE
  5
1f8
100
AcDbEntity
  8
0
100
AcDbLine
 62
     253
 10
1.07625
 20
329.306
 30
0.0
 11
1.07625
 21
330.504
 31
0.0
  0
LINE
  5
1f9
100
AcDbEntity
  8
0
100
AcDbLine
 62
     253
 10
0.0757922
 20
330.504
 30
0.0
 11
1.07625
 21
330.504
 31
0.0
  0
LINE
  5
1fa
100
AcDbEntity
  8
0
100
AcDbLine
 62
     253
 10
1.07625
 20
330.504
 30
0.0
 11
22.0762
 21
330.504
 31
0.0
  0
LINE
  5
1fb
100
AcDbEntity
  8
0
100
AcDbLine
 62
     253
 10
22.0762
 20
330.504
 30
0.0
 11
23.0766
 21
330.504
 31
0.0
  0
LINE
  5
1fc
100
AcDbEntity
  8
0
100
AcDbLine
 62
     253
 10
5.07668
 20
330.504
 30
0.0
 11
3.07578
 21
330.504
 31
0.0
  0
LINE
  5
1fd
100
AcDbEntity
  8
0
100
AcDbLine
 62
     253
 10
3.07578
 20
330.504
 30
0.0
 11
5.07668
 21
330.504
 31
0.0
  0
LINE
  5
1fe
100
AcDbEntity
  8
0
100
AcDbLine
 62
     253
 10
20.0767
 20
330.504
 30
0.0
 11
18.0757
 21
330.504
 31
0.0
  0
LINE
  5
1ff
100
AcDbEntity
  8
0
100
AcDbLine
 62
     253
 10
18.0757
 20
330.504
 30
0.0
 11
20.0767
 21
330.504
 31
0.0
  0
LINE
  5
200
100
AcDbEntity
  8
0
100
AcDbLine
 62
     253
 10
20.0767
 20
330.504
 30
0.0
 11
18.0757
 21
330.504
 31
0.0
  0
LINE
  5
201
100
AcDbEntity
  8
0
100
AcDbLine
 62
     253
 10
18.0757
 20
330.504
 30
0.0
 11
20.0767
 21
330.504
 31
0.0
  0
LINE
  5
202
100
AcDbEntity
  8
0
100
AcDbLine
 62
     253
 10
5.07668
 20
330.504
 30
0.0
 11
3.07578
 21
330.504
 31
0.0
  0
LINE
  5
203
100
AcDbEntity
  8
0
100
AcDbLine
 62
     253
 10
3.07578
 20
330.504
 30
0.0
 11
5.07668
 21
330.504
 31
0.0
  0
LINE
  5
204
100
AcDbEntity
  8
0
100
AcDbLine
 62
     253
 10
22.0762
 20
330.504
 30
0.0
 11
22.0762
 21
329.306
 31
0.0
  0
LINE
  5
205
100
AcDbEntity
  8
0
100
AcDbLine
 62
     253
 10
22.0762
 20
329.306
 30
0.0
 11
12.576
 21
329.306
 31
0.0
  0
LINE
  5
206
100
AcDbEntity
  8
0
100
AcDbLine
 62
     253
 10
12.576
 20
329.306
 30
0.0
 11
10.5765
 21
329.306
 31
0.0
  0
LINE
  5
207
100
AcDbEntity
  8
0
100
AcDbLine
 62
     253
 10
10.5765
 20
329.306
 30
0.0
 11
10.5765
 21
328.305
 31
0.0
  0
LINE
  5
208
100
AcDbEntity
  8
0
100
AcDbLine
 62
     253
 10
10.5765
 20
328.305
 30
0.0
 11
10.5765
 21
319.304
 31
0.0
  0
LINE
  5
209
100
AcDbEntity
  8
0
100
AcDbLine
 62
     253
 10
10.5765
 20
319.304
 30
0.0
 11
10.5765
 21
318.305
 31
0.0
  0
LINE
  5
20a
100
AcDbEntity
  8
0
100
AcDbLine
 62
     253
 10
10.5765
 20
322.305
 30
0.0
 11
10.5765
 21
324.306
 31
0.0
  0
LINE
  5
20b
100
AcDbEntity
  8
0
100
AcDbLine
 62
     253
 10
10.5765
 20
324.306
 30
0.0
 11
10.5765
 21
322.305
 31
0.0
  0
LINE
  5
20c
100
AcDbEntity
  8
0
100
AcDbLine
 62
     253
 10
10.5765
 20
322.305
 30
0.0
 11
10.5765
 21
324.306
 31
0.0
  0
LINE
  5
20d
100
AcDbEntity
  8
0
100
AcDbLine
 62
     253
 10
10.5765
 20
324.306
 30
0.0
 11
10.5765
 21
322.305
 31
0.0
  0
LINE
  5
20e
100
AcDbEntity
  8
0
100
AcDbLine
 62
     253
 10
10.5765
 20
322.305
 30
0.0
 11
10.5765
 21
324.306
 31
0.0
  0
LINE
  5
20f
100
AcDbEntity
  8
0
100
AcDbLine
 62
     253
 10
10.5765
 20
324.306
 30
0.0
 11
10.5765
 21
322.305
 31
0.0
  0
LINE
  5
210
100
AcDbEntity
  8
0
100
AcDbLine
 62
     253
 10
10.5765
 20
322.305
 30
0.0
 11
10.5765
 21
324.306
 31
0.0
  0
LINE
  5
211
100
AcDbEntity
  8
0
100
AcDbLine
 62
     253
 10
10.5765
 20
324.306
 30
0.0
 11
10.5765
 21
322.305
 31
0.0
  0
LINE
  5
212
100
AcDbEntity
  8
0
100
AcDbLine
 62
     253
 10
10.5765
 20
329.306
 30
0.0
 11
12.576
 21
329.306
 31
0.0
  0
LINE
  5
213
100
AcDbEntity
  8
0
100
AcDbLine
 62
     253
 10
5.07668
 20
329.306
 30
0.0
 11
5.07668
 21
330.504
 31
0.0
  0
LINE
  5
214
100
AcDbEntity
  8
0
100
AcDbLine
 62
     253
 10
5.07668
 20
329.306
 30
0.0
 11
5.07668
 21
330.504
 31
0.0
  0
LINE
  5
215
100
AcDbEntity
  8
0
100
AcDbLine
 62
     253
 10
23.0766
 20
330.504
 30
0.0
 11
23.0766
 21
329.306
 31
0.0
  0
LINE
  5
216
100
AcDbEntity
  8
0
100
AcDbLine
 62
     253
 10
22.0762
 20
329.306
 30
0.0
 11
23.0766
 21
329.306
 31
0.0
  0
LINE
  5
217
100
AcDbEntity
  8
0
100
AcDbLine
 62
     253
 10
20.0767
 20
329.306
 30
0.0
 11
18.0757
 21
329.306
 31
0.0
  0
LINE
  5
218
100
AcDbEntity
  8
0
100
AcDbLine
 62
     253
 10
18.0757
 20
329.306
 30
0.0
 11
20.0767
 21
329.306
 31
0.0
  0
LINE
  5
219
100
AcDbEntity
  8
0
100
AcDbLine
 62
     253
 10
20.0767
 20
329.306
 30
0.0
 11
20.0767
 21
330.504
 31
0.0
  0
LINE
  5
21a
100
AcDbEntity
  8
0
100
AcDbLine
 62
     253
 10
20.0767
 20
329.306
 30
0.0
 11
18.0757
 21
329.306
 31
0.0
  0
LINE
  5
21b
100
AcDbEntity
  8
0
100
AcDbLine
 62
     253
 10
18.0757
 20
329.306
 30
0.0
 11
20.0767
 21
329.306
 31
0.0
  0
LINE
  5
21c
100
AcDbEntity
  8
0
100
AcDbLine
 62
     253
 10
20.0767
 20
329.306
 30
0.0
 11
20.0767
 21
330.504
 31
0.0
  0
LINE
  5
21d
100
AcDbEntity
  8
0
100
AcDbLine
 62
     253
 10
12.576
 20
329.306
 30
0.0
 11
10.5765
 21
329.306
 31
0.0
  0
LINE
  5
21e
100
AcDbEntity
  8
0
100
AcDbLine
 62
     253
 10
12.576
 20
329.306
 30
0.0
 11
12.576
 21
328.305
 31
0.0
  0
LINE
  5
21f
100
AcDbEntity
  8
0
100
AcDbLine
 62
     253
 10
12.576
 20
328.305
 30
0.0
 11
10.5765
 21
328.305
 31
0.0
  0
LINE
  5
220
100
AcDbEntity
  8
0
100
AcDbLine
 62
     253
 10
12.576
 20
319.304
 30
0.0
 11
12.576
 21
328.305
 31
0.0
  0
LINE
  5
221
100
AcDbEntity
  8
0
100
AcDbLine
 62
     253
 10
10.5765
 20
319.304
 30
0.0
 11
12.576
 21
319.304
 31
0.0
  0
SPLINE
  5
222
100
AcDbEntity
  8
0
100
AcDbSpline
210
0.0
220
0.0
230
1.0
 62
     253
 70
     0
 71
     3
 72
     8
 73
4
 40
0.0
 40
0.0
 40
0.0
 40
0.0
 40
1.0
 40
1.0
 40
1.0
 40
1.0
 10
12.0758
 20
329.306
 30
0.0
 10
12.0744
 20
329.306
 30
0.0
 10
12.0317
 20
329.306
 30
0.0
 10
11.949
 20
329.306
 30
0.0
  0
SPLINE
  5
223
100
AcDbEntity
  8
0
100
AcDbSpline
210
0.0
220
0.0
230
1.0
 62
     253
 70
     0
 71
     3
 72
     8
 73
4
 40
0.0
 40
0.0
 40
0.0
 40
0.0
 40
1.0
 40
1.0
 40
1.0
 40
1.0
 10
11.949
 20
329.306
 30
0.0
 10
11.8484
 20
329.306
 30
0.0
 10
11.6954
 20
329.306
 30
0.0
 10
11.5452
 20
329.306
 30
0.0
  0
SPLINE
  5
224
100
AcDbEntity
  8
0
100
AcDbSpline
210
0.0
220
0.0
230
1.0
 62
     253
 70
     0
 71
     3
 72
     8
 73
4
 40
0.0
 40
0.0
 40
0.0
 40
0.0
 40
1.0
 40
1.0
 40
1.0
 40
1.0
 10
11.5452
 20
329.306
 30
0.0
 10
11.2889
 20
329.306
 30
0.0
 10
11.0698
 20
329.306
 30
0.0
 10
11.0767
 20
329.306
 30
0.0
  0
SPLINE
  5
225
100
AcDbEntity
  8
0
100
AcDbSpline
210
0.0
220
0.0
230
1.0
 62
     253
 70
     0
 71
     3
 72
     8
 73
4
 40
0.0
 40
0.0
 40
0.0
 40
0.0
 40
1.0
 40
1.0
 40
1.0
 40
1.0
 10
11.0767
 20
329.306
 30
0.0
 10
11.0753
 20
329.306
 30
0.0
 10
11.1401
 20
329.306
 30
0.0
 10
11.2475
 20
329.306
 30
0.0
  0
SPLINE
  5
226
100
AcDbEntity
  8
0
100
AcDbSpline
210
0.0
220
0.0
230
1.0
 62
     253
 70
     0
 71
     3
 72
     8
 73
4
 40
0.0
 40
0.0
 40
0.0
 40
0.0
 40
1.0
 40
1.0
 40
1.0
 40
1.0
 10
11.2475
 20
329.306
 30
0.0
 10
11.3399
 20
329.306
 30
0.0
 10
11.4612
 20
329.306
 30
0.0
 10
11.5824
 20
329.306
 30
0.0
  0
SPLINE
  5
227
100
AcDbEntity
  8
0
100
AcDbSpline
210
0.0
220
0.0
230
1.0
 62
     253
 70
     0
 71
     3
 72
     8
 73
4
 40
0.0
 40
0.0
 40
0.0
 40
0.0
 40
1.0
 40
1.0
 40
1.0
 40
1.0
 10
11.5824
 20
329.306
 30
0.0
 10
11.7037
 20
329.306
 30
0.0
 10
11.8249
 20
329.306
 30
0.0
 10
11.9131
 20
329.306
 30
0.0
  0
SPLINE
  5
228
100
AcDbEntity
  8
0
100
AcDbSpline
210
0.0
220
0.0
230
1.0
 62
     253
 70
     0
 71
     3
 72
     8
 73
4
 40
0.0
 40
0.0
 40
0.0
 40
0.0
 40
1.0
 40
1.0
 40
1.0
 40
1.0
 10
11.9131
 20
329.306
 30
0.0
 10
12.0165
 20
329.306
 30
0.0
 10
12.0771
 20
329.306
 30
0.0
 10
12.0758
 20
329.306
 30
0.0
  0
LINE
  5
229
100
AcDbEntity
  8
0
100
AcDbLine
 62
     253
 10
10.5765
 20
318.305
 30
0.0
 11
12.576
 21
318.305
 31
0.0
  0
LINE
  5
22a
100
AcDbEntity
  8
0
100
AcDbLine
 62
     253
 10
12.576
 20
319.304
 30
0.0
 11
12.576
 21
318.305
 31
0.0
  0
LINE
  5
22b
100
AcDbEntity
  8
0
100
AcDbLine
 62
     253
 10
10.5765
 20
322.305
 30
0.0
 11
12.576
 21
322.305
 31
0.0
  0
LINE
  5
22c
100
AcDbEntity
  8
0
100
AcDbLine
 62
     253
 10
12.576
 20
322.305
 30
0.0
 11
12.576
 21
324.306
 31
0.0
  0
LINE
  5
22d
100
AcDbEntity
  8
0
100
AcDbLine
 62
     253
 10
12.576
 20
324.306
 30
0.0
 11
12.576
 21
322.305
 31
0.0
  0
LINE
  5
22e
100
AcDbEntity
  8
0
100
AcDbLine
 62
     253
 10
10.5765
 20
322.305
 30
0.0
 11
12.576
 21
322.305
 31
0.0
  0
LINE
  5
22f
100
AcDbEntity
  8
0
100
AcDbLine
 62
     253
 10
12.576
 20
322.305
 30
0.0
 11
12.576
 21
324.306
 31
0.0
  0
LINE
  5
230
100
AcDbEntity
  8
0
100
AcDbLine
 62
     253
 10
12.576
 20
324.306
 30
0.0
 11
12.576
 21
322.305
 31
0.0
  0
LINE
  5
231
100
AcDbEntity
  8
0
100
AcDbLine
 62
     253
 10
10.5765
 20
322.305
 30
0.0
 11
12.576
 21
322.305
 31
0.0
  0
LINE
  5
232
100
AcDbEntity
  8
0
100
AcDbLine
 62
     253
 10
12.576
 20
322.305
 30
0.0
 11
12.576
 21
324.306
 31
0.0
  0
LINE
  5
233
100
AcDbEntity
  8
0
100
AcDbLine
 62
     253
 10
12.576
 20
324.306
 30
0.0
 11
12.576
 21
322.305
 31
0.0
  0
LINE
  5
234
100
AcDbEntity
  8
0
100
AcDbLine
 62
     253
 10
10.5765
 20
322.305
 30
0.0
 11
12.576
 21
322.305
 31
0.0
  0
LINE
  5
235
100
AcDbEntity
  8
0
100
AcDbLine
 62
     253
 10
12.576
 20
322.305
 30
0.0
 11
12.576
 21
324.306
 31
0.0
  0
LINE
  5
236
100
AcDbEntity
  8
0
100
AcDbLine
 62
     253
 10
12.576
 20
324.306
 30
0.0
 11
12.576
 21
322.305
 31
0.0
  0
LINE
  5
237
100
AcDbEntity
  8
0
100
AcDbLine
 62
     253
 10
12.0758
 20
321.444
 30
0.0
 11
11.0767
 21
321.444
 31
0.0
  0
LINE
  5
238
100
AcDbEntity
  8
0
100
AcDbLine
 62
     253
 10
11.0767
 20
321.444
 30
0.0
 11
12.0758
 21
321.444
 31
0.0
  0
LINE
  5
239
100
AcDbEntity
  8
0
100
AcDbLine
 62
     253
 10
12.0758
 20
321.444
 30
0.0
 11
12.0758
 21
329.306
 31
0.0
  0
LINE
  5
23a
100
AcDbEntity
  8
0
100
AcDbLine
 62
     253
 10
3.07578
 20
330.504
 30
0.0
 11
3.07578
 21
329.306
 31
0.0
  0
LINE
  5
23b
100
AcDbEntity
  8
0
100
AcDbLine
 62
     253
 10
3.07578
 20
330.504
 30
0.0
 11
3.07578
 21
329.306
 31
0.0
  0
LINE
  5
23c
100
AcDbEntity
  8
0
100
AcDbLine
 62
     253
 10
18.0757
 20
330.504
 30
0.0
 11
18.0757
 21
329.306
 31
0.0
  0
LINE
  5
23d
100
AcDbEntity
  8
0
100
AcDbLine
 62
     253
 10
18.0757
 20
330.504
 30
0.0
 11
18.0757
 21
329.306
 31
0.0
  0
LINE
  5
23e
100
AcDbEntity
  8
0
100
AcDbLine
 62
     253
 10
12.576
 20
324.306
 30
0.0
 11
10.5765
 21
324.306
 31
0.0
  0
LINE
  5
23f
100
AcDbEntity
  8
0
100
AcDbLine
 62
     253
 10
12.576
 20
324.306
 30
0.0
 11
10.5765
 21
324.306
 31
0.0
  0
LINE
  5
240
100
AcDbEntity
  8
0
100
AcDbLine
 62
     253
 10
12.576
 20
324.306
 30
0.0
 11
10.5765
 21
324.306
 31
0.0
  0
LINE
  5
241
100
AcDbEntity
  8
0
100
AcDbLine
 62
     253
 10
12.576
 20
324.306
 30
0.0
 11
10.5765
 21
324.306
 31
0.0
  0
LINE
  5
242
100
AcDbEntity
  8
0
100
AcDbLine
 62
     253
 10
11.0767
 20
321.444
 30
0.0
 11
11.0767
 21
329.306
 31
0.0
  0
LINE
  5
243
100
AcDbEntity
  8
0
100
AcDbLine
 62
     253
 10
149.663
 20
365.795
 30
0.0
 11
154.551
 21
362.585
 31
0.0
  0
LINE
  5
244
100
AcDbEntity
  8
0
100
AcDbLine
 62
     253
 10
149.663
 20
365.795
 30
0.0
 11
149.663
 21
396.127
 31
0.0
  0
SPLINE
  5
245
100
AcDbEntity
  8
0
100
AcDbSpline
210
0.0
220
0.0
230
1.0
 62
     253
 70
     0
 71
     3
 72
     8
 73
4
 40
0.0
 40
0.0
 40
0.0
 40
0.0
 40
1.0
 40
1.0
 40
1.0
 40
1.0
 10
152.494
 20
390.589
 30
0.0
 10
152.494
 20
390.941
 30
0.0
 10
152.604
 20
391.185
 30
0.0
 10
152.777
 20
391.223
 30
0.0
  0
SPLINE
  5
246
100
AcDbEntity
  8
0
100
AcDbSpline
210
0.0
220
0.0
230
1.0
 62
     253
 70
     0
 71
     3
 72
     8
 73
4
 40
0.0
 40
0.0
 40
0.0
 40
0.0
 40
1.0
 40
1.0
 40
1.0
 40
1.0
 10
152.777
 20
391.223
 30
0.0
 10
153.031
 20
391.287
 30
0.0
 10
153.341
 20
390.899
 30
0.0
 10
153.468
 20
390.363
 30
0.0
  0
SPLINE
  5
247
100
AcDbEntity
  8
0
100
AcDbSpline
210
0.0
220
0.0
230
1.0
 62
     253
 70
     0
 71
     3
 72
     8
 73
4
 40
0.0
 40
0.0
 40
0.0
 40
0.0
 40
1.0
 40
1.0
 40
1.0
 40
1.0
 10
153.468
 20
390.363
 30
0.0
 10
153.595
 20
389.823
 30
0.0
 10
153.491
 20
389.34
 30
0.0
 10
153.238
 20
389.28
 30
0.0
  0
SPLINE
  5
248
100
AcDbEntity
  8
0
100
AcDbSpline
210
0.0
220
0.0
230
1.0
 62
     253
 70
     0
 71
     3
 72
     8
 73
4
 40
0.0
 40
0.0
 40
0.0
 40
0.0
 40
1.0
 40
1.0
 40
1.0
 40
1.0
 10
153.238
 20
389.28
 30
0.0
 10
153.078
 20
389.241
 30
0.0
 10
152.889
 20
389.382
 30
0.0
 10
152.738
 20
389.647
 30
0.0
  0
SPLINE
  5
249
100
AcDbEntity
  8
0
100
AcDbSpline
210
0.0
220
0.0
230
1.0
 62
     253
 70
     0
 71
     3
 72
     8
 73
4
 40
0.0
 40
0.0
 40
0.0
 40
0.0
 40
1.0
 40
1.0
 40
1.0
 40
1.0
 10
152.738
 20
389.647
 30
0.0
 10
152.586
 20
389.915
 30
0.0
 10
152.494
 20
390.271
 30
0.0
 10
152.494
 20
390.589
 30
0.0
  0
SPLINE
  5
24a
100
AcDbEntity
  8
0
100
AcDbSpline
210
0.0
220
0.0
230
1.0
 62
     253
 70
     0
 71
     3
 72
     8
 73
4
 40
0.0
 40
0.0
 40
0.0
 40
0.0
 40
1.0
 40
1.0
 40
1.0
 40
1.0
 10
152.494
 20
367.612
 30
0.0
 10
152.494
 20
367.961
 30
0.0
 10
152.604
 20
368.205
 30
0.0
 10
152.777
 20
368.247
 30
0.0
  0
SPLINE
  5
24b
100
AcDbEntity
  8
0
100
AcDbSpline
210
0.0
220
0.0
230
1.0
 62
     253
 70
     0
 71
     3
 72
     8
 73
4
 40
0.0
 40
0.0
 40
0.0
 40
0.0
 40
1.0
 40
1.0
 40
1.0
 40
1.0
 10
152.777
 20
368.247
 30
0.0
 10
153.031
 20
368.307
 30
0.0
 10
153.341
 20
367.923
 30
0.0
 10
153.468
 20
367.383
 30
0.0
  0
SPLINE
  5
24c
100
AcDbEntity
  8
0
100
AcDbSpline
210
0.0
220
0.0
230
1.0
 62
     253
 70
     0
 71
     3
 72
     8
 73
4
 40
0.0
 40
0.0
 40
0.0
 40
0.0
 40
1.0
 40
1.0
 40
1.0
 40
1.0
 10
153.468
 20
367.383
 30
0.0
 10
153.595
 20
366.847
 30
0.0
 10
153.491
 20
366.363
 30
0.0
 10
153.238
 20
366.303
 30
0.0
  0
SPLINE
  5
24d
100
AcDbEntity
  8
0
100
AcDbSpline
210
0.0
220
0.0
230
1.0
 62
     253
 70
     0
 71
     3
 72
     8
 73
4
 40
0.0
 40
0.0
 40
0.0
 40
0.0
 40
1.0
 40
1.0
 40
1.0
 40
1.0
 10
153.238
 20
366.303
 30
0.0
 10
153.078
 20
366.264
 30
0.0
 10
152.889
 20
366.406
 30
0.0
 10
152.738
 20
366.67
 30
0.0
  0
SPLINE
  5
24e
100
AcDbEntity
  8
0
100
AcDbSpline
210
0.0
220
0.0
230
1.0
 62
     253
 70
     0
 71
     3
 72
     8
 73
4
 40
0.0
 40
0.0
 40
0.0
 40
0.0
 40
1.0
 40
1.0
 40
1.0
 40
1.0
 10
152.738
 20
366.67
 30
0.0
 10
152.586
 20
366.938
 30
0.0
 10
152.494
 20
367.295
 30
0.0
 10
152.494
 20
367.612
 30
0.0
  0
LINE
  5
24f
100
AcDbEntity
  8
0
100
AcDbLine
 62
     253
 10
142.718
 20
369.436
 30
0.0
 11
143.747
 21
369.683
 31
0.0
  0
LINE
  5
250
100
AcDbEntity
  8
0
100
AcDbLine
 62
     253
 10
143.747
 20
369.683
 30
0.0
 11
148.634
 21
366.469
 31
0.0
  0
LINE
  5
251
100
AcDbEntity
  8
0
100
AcDbLine
 62
     253
 10
148.634
 20
366.469
 30
0.0
 11
149.663
 21
365.795
 31
0.0
  0
LINE
  5
252
100
AcDbEntity
  8
0
100
AcDbLine
 62
     253
 10
149.663
 20
364.878
 30
0.0
 11
149.663
 21
365.795
 31
0.0
  0
SPLINE
  5
253
100
AcDbEntity
  8
0
100
AcDbSpline
210
0.0
220
0.0
230
1.0
 62
     253
 70
     0
 71
     3
 72
     8
 73
4
 40
0.0
 40
0.0
 40
0.0
 40
0.0
 40
1.0
 40
1.0
 40
1.0
 40
1.0
 10
155.065
 20
374.844
 30
0.0
 10
154.675
 20
374.883
 30
0.0
 10
154.252
 20
374.601
 30
0.0
 10
154.056
 20
374.167
 30
0.0
  0
SPLINE
  5
254
100
AcDbEntity
  8
0
100
AcDbSpline
210
0.0
220
0.0
230
1.0
 62
     253
 70
     0
 71
     3
 72
     8
 73
4
 40
0.0
 40
0.0
 40
0.0
 40
0.0
 40
1.0
 40
1.0
 40
1.0
 40
1.0
 10
154.056
 20
374.167
 30
0.0
 10
153.859
 20
373.736
 30
0.0
 10
153.945
 20
373.274
 30
0.0
 10
154.259
 20
373.07
 30
0.0
  0
SPLINE
  5
255
100
AcDbEntity
  8
0
100
AcDbSpline
210
0.0
220
0.0
230
1.0
 62
     253
 70
     0
 71
     3
 72
     8
 73
4
 40
0.0
 40
0.0
 40
0.0
 40
0.0
 40
1.0
 40
1.0
 40
1.0
 40
1.0
 10
154.259
 20
373.07
 30
0.0
 10
154.484
 20
372.921
 30
0.0
 10
154.787
 20
372.932
 30
0.0
 10
155.065
 20
373.087
 30
0.0
  0
SPLINE
  5
256
100
AcDbEntity
  8
0
100
AcDbSpline
210
0.0
220
0.0
230
1.0
 62
     253
 70
     0
 71
     3
 72
     8
 73
4
 40
0.0
 40
0.0
 40
0.0
 40
0.0
 40
1.0
 40
1.0
 40
1.0
 40
1.0
 10
155.065
 20
366.571
 30
0.0
 10
154.675
 20
366.61
 30
0.0
 10
154.252
 20
366.328
 30
0.0
 10
154.056
 20
365.894
 30
0.0
  0
SPLINE
  5
257
100
AcDbEntity
  8
0
100
AcDbSpline
210
0.0
220
0.0
230
1.0
 62
     253
 70
     0
 71
     3
 72
     8
 73
4
 40
0.0
 40
0.0
 40
0.0
 40
0.0
 40
1.0
 40
1.0
 40
1.0
 40
1.0
 10
154.056
 20
365.894
 30
0.0
 10
153.859
 20
365.464
 30
0.0
 10
153.945
 20
365.005
 30
0.0
 10
154.259
 20
364.797
 30
0.0
  0
SPLINE
  5
258
100
AcDbEntity
  8
0
100
AcDbSpline
210
0.0
220
0.0
230
1.0
 62
     253
 70
     0
 71
     3
 72
     8
 73
4
 40
0.0
 40
0.0
 40
0.0
 40
0.0
 40
1.0
 40
1.0
 40
1.0
 40
1.0
 10
154.259
 20
364.797
 30
0.0
 10
154.484
 20
364.649
 30
0.0
 10
154.787
 20
364.659
 30
0.0
 10
155.065
 20
364.818
 30
0.0
  0
LINE
  5
259
100
AcDbEntity
  8
0
100
AcDbLine
 62
     253
 10
142.204
 20
370.695
 30
0.0
 11
143.232
 21
370.939
 31
0.0
  0
LINE
  5
25a
100
AcDbEntity
  8
0
100
AcDbLine
 62
     253
 10
143.747
 20
369.683
 30
0.0
 11
143.232
 21
370.939
 31
0.0
  0
LINE
  5
25b
100
AcDbEntity
  8
0
100
AcDbLine
 62
     253
 10
143.232
 20
399.433
 30
0.0
 11
142.204
 21
399.186
 31
0.0
  0
LINE
  5
25c
100
AcDbEntity
  8
0
100
AcDbLine
 62
     253
 10
143.232
 20
370.939
 30
0.0
 11
143.232
 21
399.433
 31
0.0
  0
LINE
  5
25d
100
AcDbEntity
  8
0
100
AcDbLine
 62
     253
 10
143.747
 20
400.011
 30
0.0
 11
143.232
 21
399.433
 31
0.0
  0
SPLINE
  5
25e
100
AcDbEntity
  8
0
100
AcDbSpline
210
0.0
220
0.0
230
1.0
 62
     253
 70
     0
 71
     3
 72
     8
 73
4
 40
0.0
 40
0.0
 40
0.0
 40
0.0
 40
1.0
 40
1.0
 40
1.0
 40
1.0
 10
144.775
 20
372.682
 30
0.0
 10
144.775
 20
373.031
 30
0.0
 10
144.885
 20
373.274
 30
0.0
 10
145.06
 20
373.316
 30
0.0
  0
SPLINE
  5
25f
100
AcDbEntity
  8
0
100
AcDbSpline
210
0.0
220
0.0
230
1.0
 62
     253
 70
     0
 71
     3
 72
     8
 73
4
 40
0.0
 40
0.0
 40
0.0
 40
0.0
 40
1.0
 40
1.0
 40
1.0
 40
1.0
 10
145.06
 20
373.316
 30
0.0
 10
145.314
 20
373.376
 30
0.0
 10
145.623
 20
372.992
 30
0.0
 10
145.751
 20
372.452
 30
0.0
  0
SPLINE
  5
260
100
AcDbEntity
  8
0
100
AcDbSpline
210
0.0
220
0.0
230
1.0
 62
     253
 70
     0
 71
     3
 72
     8
 73
4
 40
0.0
 40
0.0
 40
0.0
 40
0.0
 40
1.0
 40
1.0
 40
1.0
 40
1.0
 10
145.751
 20
372.452
 30
0.0
 10
145.878
 20
371.916
 30
0.0
 10
145.774
 20
371.433
 30
0.0
 10
145.521
 20
371.373
 30
0.0
  0
SPLINE
  5
261
100
AcDbEntity
  8
0
100
AcDbSpline
210
0.0
220
0.0
230
1.0
 62
     253
 70
     0
 71
     3
 72
     8
 73
4
 40
0.0
 40
0.0
 40
0.0
 40
0.0
 40
1.0
 40
1.0
 40
1.0
 40
1.0
 10
145.521
 20
371.373
 30
0.0
 10
145.361
 20
371.334
 30
0.0
 10
145.171
 20
371.475
 30
0.0
 10
145.019
 20
371.74
 30
0.0
  0
SPLINE
  5
262
100
AcDbEntity
  8
0
100
AcDbSpline
210
0.0
220
0.0
230
1.0
 62
     253
 70
     0
 71
     3
 72
     8
 73
4
 40
0.0
 40
0.0
 40
0.0
 40
0.0
 40
1.0
 40
1.0
 40
1.0
 40
1.0
 10
145.019
 20
371.74
 30
0.0
 10
144.867
 20
372.008
 30
0.0
 10
144.775
 20
372.364
 30
0.0
 10
144.775
 20
372.682
 30
0.0
  0
SPLINE
  5
263
100
AcDbEntity
  8
0
100
AcDbSpline
210
0.0
220
0.0
230
1.0
 62
     253
 70
     0
 71
     3
 72
     8
 73
4
 40
0.0
 40
0.0
 40
0.0
 40
0.0
 40
1.0
 40
1.0
 40
1.0
 40
1.0
 10
144.775
 20
395.658
 30
0.0
 10
144.775
 20
396.007
 30
0.0
 10
144.885
 20
396.251
 30
0.0
 10
145.06
 20
396.293
 30
0.0
  0
SPLINE
  5
264
100
AcDbEntity
  8
0
100
AcDbSpline
210
0.0
220
0.0
230
1.0
 62
     253
 70
     0
 71
     3
 72
     8
 73
4
 40
0.0
 40
0.0
 40
0.0
 40
0.0
 40
1.0
 40
1.0
 40
1.0
 40
1.0
 10
145.06
 20
396.293
 30
0.0
 10
145.314
 20
396.353
 30
0.0
 10
145.623
 20
395.968
 30
0.0
 10
145.751
 20
395.429
 30
0.0
  0
SPLINE
  5
265
100
AcDbEntity
  8
0
100
AcDbSpline
210
0.0
220
0.0
230
1.0
 62
     253
 70
     0
 71
     3
 72
     8
 73
4
 40
0.0
 40
0.0
 40
0.0
 40
0.0
 40
1.0
 40
1.0
 40
1.0
 40
1.0
 10
145.751
 20
395.429
 30
0.0
 10
145.878
 20
394.892
 30
0.0
 10
145.774
 20
394.409
 30
0.0
 10
145.521
 20
394.349
 30
0.0
  0
SPLINE
  5
266
100
AcDbEntity
  8
0
100
AcDbSpline
210
0.0
220
0.0
230
1.0
 62
     253
 70
     0
 71
     3
 72
     8
 73
4
 40
0.0
 40
0.0
 40
0.0
 40
0.0
 40
1.0
 40
1.0
 40
1.0
 40
1.0
 10
145.521
 20
394.349
 30
0.0
 10
145.361
 20
394.31
 30
0.0
 10
145.171
 20
394.451
 30
0.0
 10
145.019
 20
394.716
 30
0.0
  0
SPLINE
  5
267
100
AcDbEntity
  8
0
100
AcDbSpline
210
0.0
220
0.0
230
1.0
 62
     253
 70
     0
 71
     3
 72
     8
 73
4
 40
0.0
 40
0.0
 40
0.0
 40
0.0
 40
1.0
 40
1.0
 40
1.0
 40
1.0
 10
145.019
 20
394.716
 30
0.0
 10
144.867
 20
394.984
 30
0.0
 10
144.775
 20
395.34
 30
0.0
 10
144.775
 20
395.658
 30
0.0
  0
LINE
  5
268
100
AcDbEntity
  8
0
100
AcDbLine
 62
     253
 10
148.634
 20
366.469
 30
0.0
 11
148.634
 21
396.801
 31
0.0
  0
LINE
  5
269
100
AcDbEntity
  8
0
100
AcDbLine
 62
     253
 10
148.634
 20
365.552
 30
0.0
 11
148.634
 21
366.469
 31
0.0
  0
LINE
  5
26a
100
AcDbEntity
  8
0
100
AcDbLine
 62
     253
 10
157.209
 20
362.984
 30
0.0
 11
149.492
 21
361.16
 31
0.0
  0
LINE
  5
26b
100
AcDbEntity
  8
0
100
AcDbLine
 62
     253
 10
158.239
 20
362.31
 30
0.0
 11
157.209
 21
362.984
 31
0.0
  0
LINE
  5
26c
100
AcDbEntity
  8
0
100
AcDbLine
 62
     253
 10
159.096
 20
363.432
 30
0.0
 11
158.067
 21
364.105
 31
0.0
  0
LINE
  5
26d
100
AcDbEntity
  8
0
100
AcDbLine
 62
     253
 10
157.209
 20
362.984
 30
0.0
 11
158.067
 21
364.105
 31
0.0
  0
LINE
  5
26e
100
AcDbEntity
  8
0
100
AcDbLine
 62
     253
 10
159.096
 20
419.495
 30
0.0
 11
158.067
 21
420.169
 31
0.0
  0
LINE
  5
26f
100
AcDbEntity
  8
0
100
AcDbLine
 62
     253
 10
158.067
 20
364.105
 30
0.0
 11
158.067
 21
420.169
 31
0.0
  0
LINE
  5
270
100
AcDbEntity
  8
0
100
AcDbLine
 62
     253
 10
158.067
 20
420.169
 30
0.0
 11
157.209
 21
420.885
 31
0.0
  0
SPLINE
  5
271
100
AcDbEntity
  8
0
100
AcDbSpline
210
0.0
220
0.0
230
1.0
 62
     253
 70
     0
 71
     3
 72
     8
 73
4
 40
0.0
 40
0.0
 40
0.0
 40
0.0
 40
1.0
 40
1.0
 40
1.0
 40
1.0
 10
154.637
 20
374.784
 30
0.0
 10
154.637
 20
375.056
 30
0.0
 10
154.524
 20
375.289
 30
0.0
 10
154.328
 20
375.419
 30
0.0
  0
SPLINE
  5
272
100
AcDbEntity
  8
0
100
AcDbSpline
210
0.0
220
0.0
230
1.0
 62
     253
 70
     0
 71
     3
 72
     8
 73
4
 40
0.0
 40
0.0
 40
0.0
 40
0.0
 40
1.0
 40
1.0
 40
1.0
 40
1.0
 10
154.328
 20
375.419
 30
0.0
 10
153.964
 20
375.655
 30
0.0
 10
153.424
 20
375.475
 30
0.0
 10
153.121
 20
375.013
 30
0.0
  0
SPLINE
  5
273
100
AcDbEntity
  8
0
100
AcDbSpline
210
0.0
220
0.0
230
1.0
 62
     253
 70
     0
 71
     3
 72
     8
 73
4
 40
0.0
 40
0.0
 40
0.0
 40
0.0
 40
1.0
 40
1.0
 40
1.0
 40
1.0
 10
153.121
 20
375.013
 30
0.0
 10
152.818
 20
374.551
 30
0.0
 10
152.867
 20
373.983
 30
0.0
 10
153.231
 20
373.743
 30
0.0
  0
SPLINE
  5
274
100
AcDbEntity
  8
0
100
AcDbSpline
210
0.0
220
0.0
230
1.0
 62
     253
 70
     0
 71
     3
 72
     8
 73
4
 40
0.0
 40
0.0
 40
0.0
 40
0.0
 40
1.0
 40
1.0
 40
1.0
 40
1.0
 10
153.231
 20
373.743
 30
0.0
 10
153.486
 20
373.578
 30
0.0
 10
153.841
 20
373.609
 30
0.0
 10
154.143
 20
373.835
 30
0.0
  0
SPLINE
  5
275
100
AcDbEntity
  8
0
100
AcDbSpline
210
0.0
220
0.0
230
1.0
 62
     253
 70
     0
 71
     3
 72
     8
 73
4
 40
0.0
 40
0.0
 40
0.0
 40
0.0
 40
1.0
 40
1.0
 40
1.0
 40
1.0
 10
154.143
 20
373.835
 30
0.0
 10
154.445
 20
374.057
 30
0.0
 10
154.637
 20
374.428
 30
0.0
 10
154.637
 20
374.784
 30
0.0
  0
SPLINE
  5
276
100
AcDbEntity
  8
0
100
AcDbSpline
210
0.0
220
0.0
230
1.0
 62
     253
 70
     0
 71
     3
 72
     8
 73
4
 40
0.0
 40
0.0
 40
0.0
 40
0.0
 40
1.0
 40
1.0
 40
1.0
 40
1.0
 10
154.637
 20
366.511
 30
0.0
 10
154.637
 20
366.787
 30
0.0
 10
154.524
 20
367.016
 30
0.0
 10
154.328
 20
367.143
 30
0.0
  0
SPLINE
  5
277
100
AcDbEntity
  8
0
100
AcDbSpline
210
0.0
220
0.0
230
1.0
 62
     253
 70
     0
 71
     3
 72
     8
 73
4
 40
0.0
 40
0.0
 40
0.0
 40
0.0
 40
1.0
 40
1.0
 40
1.0
 40
1.0
 10
154.328
 20
367.143
 30
0.0
 10
153.964
 20
367.383
 30
0.0
 10
153.424
 20
367.203
 30
0.0
 10
153.121
 20
366.744
 30
0.0
  0
SPLINE
  5
278
100
AcDbEntity
  8
0
100
AcDbSpline
210
0.0
220
0.0
230
1.0
 62
     253
 70
     0
 71
     3
 72
     8
 73
4
 40
0.0
 40
0.0
 40
0.0
 40
0.0
 40
1.0
 40
1.0
 40
1.0
 40
1.0
 10
153.121
 20
366.744
 30
0.0
 10
152.818
 20
366.279
 30
0.0
 10
152.867
 20
365.714
 30
0.0
 10
153.231
 20
365.471
 30
0.0
  0
SPLINE
  5
279
100
AcDbEntity
  8
0
100
AcDbSpline
210
0.0
220
0.0
230
1.0
 62
     253
 70
     0
 71
     3
 72
     8
 73
4
 40
0.0
 40
0.0
 40
0.0
 40
0.0
 40
1.0
 40
1.0
 40
1.0
 40
1.0
 10
153.231
 20
365.471
 30
0.0
 10
153.486
 20
365.305
 30
0.0
 10
153.841
 20
365.34
 30
0.0
 10
154.143
 20
365.562
 30
0.0
  0
SPLINE
  5
27a
100
AcDbEntity
  8
0
100
AcDbSpline
210
0.0
220
0.0
230
1.0
 62
     253
 70
     0
 71
     3
 72
     8
 73
4
 40
0.0
 40
0.0
 40
0.0
 40
0.0
 40
1.0
 40
1.0
 40
1.0
 40
1.0
 10
154.143
 20
365.562
 30
0.0
 10
154.445
 20
365.788
 30
0.0
 10
154.637
 20
366.155
 30
0.0
 10
154.637
 20
366.511
 30
0.0
  0
SPLINE
  5
27b
100
AcDbEntity
  8
0
100
AcDbSpline
210
0.0
220
0.0
230
1.0
 62
     253
 70
     0
 71
     3
 72
     8
 73
4
 40
0.0
 40
0.0
 40
0.0
 40
0.0
 40
1.0
 40
1.0
 40
1.0
 40
1.0
 10
154.637
 20
416.14
 30
0.0
 10
154.637
 20
416.415
 30
0.0
 10
154.524
 20
416.648
 30
0.0
 10
154.328
 20
416.775
 30
0.0
  0
SPLINE
  5
27c
100
AcDbEntity
  8
0
100
AcDbSpline
210
0.0
220
0.0
230
1.0
 62
     253
 70
     0
 71
     3
 72
     8
 73
4
 40
0.0
 40
0.0
 40
0.0
 40
0.0
 40
1.0
 40
1.0
 40
1.0
 40
1.0
 10
154.328
 20
416.775
 30
0.0
 10
153.964
 20
417.015
 30
0.0
 10
153.424
 20
416.832
 30
0.0
 10
153.121
 20
416.373
 30
0.0
  0
SPLINE
  5
27d
100
AcDbEntity
  8
0
100
AcDbSpline
210
0.0
220
0.0
230
1.0
 62
     253
 70
     0
 71
     3
 72
     8
 73
4
 40
0.0
 40
0.0
 40
0.0
 40
0.0
 40
1.0
 40
1.0
 40
1.0
 40
1.0
 10
153.121
 20
416.373
 30
0.0
 10
152.818
 20
415.911
 30
0.0
 10
152.867
 20
415.343
 30
0.0
 10
153.231
 20
415.107
 30
0.0
  0
SPLINE
  5
27e
100
AcDbEntity
  8
0
100
AcDbSpline
210
0.0
220
0.0
230
1.0
 62
     253
 70
     0
 71
     3
 72
     8
 73
4
 40
0.0
 40
0.0
 40
0.0
 40
0.0
 40
1.0
 40
1.0
 40
1.0
 40
1.0
 10
153.231
 20
415.107
 30
0.0
 10
153.431
 20
414.973
 30
0.0
 10
153.695
 20
414.962
 30
0.0
 10
153.952
 20
415.078
 30
0.0
  0
SPLINE
  5
27f
100
AcDbEntity
  8
0
100
AcDbSpline
210
0.0
220
0.0
230
1.0
 62
     253
 70
     0
 71
     3
 72
     8
 73
4
 40
0.0
 40
0.0
 40
0.0
 40
0.0
 40
1.0
 40
1.0
 40
1.0
 40
1.0
 10
154.637
 20
416.123
 30
0.0
 10
154.637
 20
416.13
 30
0.0
 10
154.637
 20
416.137
 30
0.0
 10
154.637
 20
416.14
 30
0.0
  0
SPLINE
  5
280
100
AcDbEntity
  8
0
100
AcDbSpline
210
0.0
220
0.0
230
1.0
 62
     253
 70
     0
 71
     3
 72
     8
 73
4
 40
0.0
 40
0.0
 40
0.0
 40
0.0
 40
1.0
 40
1.0
 40
1.0
 40
1.0
 10
154.637
 20
407.871
 30
0.0
 10
154.637
 20
408.143
 30
0.0
 10
154.524
 20
408.376
 30
0.0
 10
154.328
 20
408.503
 30
0.0
  0
SPLINE
  5
281
100
AcDbEntity
  8
0
100
AcDbSpline
210
0.0
220
0.0
230
1.0
 62
     253
 70
     0
 71
     3
 72
     8
 73
4
 40
0.0
 40
0.0
 40
0.0
 40
0.0
 40
1.0
 40
1.0
 40
1.0
 40
1.0
 10
154.328
 20
408.503
 30
0.0
 10
153.964
 20
408.742
 30
0.0
 10
153.424
 20
408.563
 30
0.0
 10
153.121
 20
408.1
 30
0.0
  0
SPLINE
  5
282
100
AcDbEntity
  8
0
100
AcDbSpline
210
0.0
220
0.0
230
1.0
 62
     253
 70
     0
 71
     3
 72
     8
 73
4
 40
0.0
 40
0.0
 40
0.0
 40
0.0
 40
1.0
 40
1.0
 40
1.0
 40
1.0
 10
153.121
 20
408.1
 30
0.0
 10
152.818
 20
407.638
 30
0.0
 10
152.867
 20
407.07
 30
0.0
 10
153.231
 20
406.83
 30
0.0
  0
SPLINE
  5
283
100
AcDbEntity
  8
0
100
AcDbSpline
210
0.0
220
0.0
230
1.0
 62
     253
 70
     0
 71
     3
 72
     8
 73
4
 40
0.0
 40
0.0
 40
0.0
 40
0.0
 40
1.0
 40
1.0
 40
1.0
 40
1.0
 10
153.231
 20
406.83
 30
0.0
 10
153.431
 20
406.7
 30
0.0
 10
153.695
 20
406.689
 30
0.0
 10
153.952
 20
406.809
 30
0.0
  0
SPLINE
  5
284
100
AcDbEntity
  8
0
100
AcDbSpline
210
0.0
220
0.0
230
1.0
 62
     253
 70
     0
 71
     3
 72
     8
 73
4
 40
0.0
 40
0.0
 40
0.0
 40
0.0
 40
1.0
 40
1.0
 40
1.0
 40
1.0
 10
154.637
 20
407.85
 30
0.0
 10
154.637
 20
407.857
 30
0.0
 10
154.637
 20
407.864
 30
0.0
 10
154.637
 20
407.871
 30
0.0
  0
SPLINE
  5
285
100
AcDbEntity
  8
0
100
AcDbSpline
210
0.0
220
0.0
230
1.0
 62
     253
 70
     0
 71
     3
 72
     8
 73
4
 40
0.0
 40
0.0
 40
0.0
 40
0.0
 40
1.0
 40
1.0
 40
1.0
 40
1.0
 10
155.631
 20
412.013
 30
0.0
 10
155.631
 20
412.186
 30
0.0
 10
155.686
 20
412.309
 30
0.0
 10
155.774
 20
412.33
 30
0.0
  0
SPLINE
  5
286
100
AcDbEntity
  8
0
100
AcDbSpline
210
0.0
220
0.0
230
1.0
 62
     253
 70
     0
 71
     3
 72
     8
 73
4
 40
0.0
 40
0.0
 40
0.0
 40
0.0
 40
1.0
 40
1.0
 40
1.0
 40
1.0
 10
155.774
 20
412.33
 30
0.0
 10
155.902
 20
412.358
 30
0.0
 10
156.056
 20
412.164
 30
0.0
 10
156.119
 20
411.9
 30
0.0
  0
SPLINE
  5
287
100
AcDbEntity
  8
0
100
AcDbSpline
210
0.0
220
0.0
230
1.0
 62
     253
 70
     0
 71
     3
 72
     8
 73
4
 40
0.0
 40
0.0
 40
0.0
 40
0.0
 40
1.0
 40
1.0
 40
1.0
 40
1.0
 10
156.119
 20
411.9
 30
0.0
 10
156.183
 20
411.628
 30
0.0
 10
156.13
 20
411.385
 30
0.0
 10
156.004
 20
411.357
 30
0.0
  0
SPLINE
  5
288
100
AcDbEntity
  8
0
100
AcDbSpline
210
0.0
220
0.0
230
1.0
 62
     253
 70
     0
 71
     3
 72
     8
 73
4
 40
0.0
 40
0.0
 40
0.0
 40
0.0
 40
1.0
 40
1.0
 40
1.0
 40
1.0
 10
156.004
 20
411.357
 30
0.0
 10
155.924
 20
411.339
 30
0.0
 10
155.83
 20
411.406
 30
0.0
 10
155.754
 20
411.54
 30
0.0
  0
SPLINE
  5
289
100
AcDbEntity
  8
0
100
AcDbSpline
210
0.0
220
0.0
230
1.0
 62
     253
 70
     0
 71
     3
 72
     8
 73
4
 40
0.0
 40
0.0
 40
0.0
 40
0.0
 40
1.0
 40
1.0
 40
1.0
 40
1.0
 10
155.754
 20
411.54
 30
0.0
 10
155.678
 20
411.674
 30
0.0
 10
155.631
 20
411.854
 30
0.0
 10
155.631
 20
412.013
 30
0.0
  0
LINE
  5
28a
100
AcDbEntity
  8
0
100
AcDbLine
 62
     253
 10
151.748
 20
390.984
 30
0.0
 11
152.777
 21
391.223
 31
0.0
  0
LINE
  5
28b
100
AcDbEntity
  8
0
100
AcDbLine
 62
     253
 10
152.208
 20
389.036
 30
0.0
 11
153.238
 21
389.28
 31
0.0
  0
LINE
  5
28c
100
AcDbEntity
  8
0
100
AcDbLine
 62
     253
 10
151.748
 20
368.007
 30
0.0
 11
152.777
 21
368.247
 31
0.0
  0
LINE
  5
28d
100
AcDbEntity
  8
0
100
AcDbLine
 62
     253
 10
152.208
 20
366.056
 30
0.0
 11
153.238
 21
366.303
 31
0.0
  0
LINE
  5
28e
100
AcDbEntity
  8
0
100
AcDbLine
 62
     253
 10
144.031
 20
373.073
 30
0.0
 11
145.06
 21
373.316
 31
0.0
  0
LINE
  5
28f
100
AcDbEntity
  8
0
100
AcDbLine
 62
     253
 10
144.491
 20
371.126
 30
0.0
 11
145.521
 21
371.373
 31
0.0
  0
LINE
  5
290
100
AcDbEntity
  8
0
100
AcDbLine
 62
     253
 10
144.031
 20
396.053
 30
0.0
 11
145.06
 21
396.293
 31
0.0
  0
LINE
  5
291
100
AcDbEntity
  8
0
100
AcDbLine
 62
     253
 10
144.491
 20
394.102
 30
0.0
 11
145.521
 21
394.349
 31
0.0
  0
LINE
  5
292
100
AcDbEntity
  8
0
100
AcDbLine
 62
     253
 10
154.328
 20
375.419
 30
0.0
 11
155.357
 21
374.742
 31
0.0
  0
LINE
  5
293
100
AcDbEntity
  8
0
100
AcDbLine
 62
     253
 10
153.231
 20
373.743
 30
0.0
 11
154.259
 21
373.07
 31
0.0
  0
LINE
  5
294
100
AcDbEntity
  8
0
100
AcDbLine
 62
     253
 10
154.328
 20
367.143
 30
0.0
 11
155.357
 21
366.469
 31
0.0
  0
LINE
  5
295
100
AcDbEntity
  8
0
100
AcDbLine
 62
     253
 10
153.231
 20
365.471
 30
0.0
 11
154.259
 21
364.797
 31
0.0
  0
LINE
  5
296
100
AcDbEntity
  8
0
100
AcDbLine
 62
     253
 10
154.328
 20
416.775
 30
0.0
 11
155.357
 21
416.101
 31
0.0
  0
LINE
  5
297
100
AcDbEntity
  8
0
100
AcDbLine
 62
     253
 10
153.231
 20
415.107
 30
0.0
 11
154.259
 21
414.429
 31
0.0
  0
LINE
  5
298
100
AcDbEntity
  8
0
100
AcDbLine
 62
     253
 10
154.328
 20
408.503
 30
0.0
 11
155.357
 21
407.829
 31
0.0
  0
LINE
  5
299
100
AcDbEntity
  8
0
100
AcDbLine
 62
     253
 10
153.231
 20
406.83
 30
0.0
 11
154.259
 21
406.157
 31
0.0
  0
LINE
  5
29a
100
AcDbEntity
  8
0
100
AcDbLine
 62
     253
 10
155.774
 20
412.33
 30
0.0
 11
149.033
 21
410.736
 31
0.0
  0
LINE
  5
29b
100
AcDbEntity
  8
0
100
AcDbLine
 62
     253
 10
156.004
 20
411.357
 30
0.0
 11
149.263
 21
409.762
 31
0.0
  0
LINE
  5
29c
100
AcDbEntity
  8
0
100
AcDbLine
 62
     253
 10
296.344
 20
184.532
 30
0.0
 11
296.344
 21
174.427
 31
0.0
  0
LINE
  5
29d
100
AcDbEntity
  8
0
100
AcDbLine
 62
     253
 10
324.629
 20
151.334
 30
0.0
 11
296.344
 21
174.427
 31
0.0
  0
SPLINE
  5
29e
100
AcDbEntity
  8
0
100
AcDbSpline
210
0.0
220
0.0
230
1.0
 62
     253
 70
     0
 71
     3
 72
     8
 73
4
 40
0.0
 40
0.0
 40
0.0
 40
0.0
 40
1.0
 40
1.0
 40
1.0
 40
1.0
 10
322.86
 20
162.881
 30
0.0
 10
322.86
 20
162.657
 30
0.0
 10
322.797
 20
162.487
 30
0.0
 10
322.673
 20
162.387
 30
0.0
  0
SPLINE
  5
29f
100
AcDbEntity
  8
0
100
AcDbSpline
210
0.0
220
0.0
230
1.0
 62
     253
 70
     0
 71
     3
 72
     8
 73
4
 40
0.0
 40
0.0
 40
0.0
 40
0.0
 40
1.0
 40
1.0
 40
1.0
 40
1.0
 10
322.673
 20
162.387
 30
0.0
 10
322.307
 20
162.089
 30
0.0
 10
321.484
 20
162.445
 30
0.0
 10
320.686
 20
163.251
 30
0.0
  0
SPLINE
  5
2a0
100
AcDbEntity
  8
0
100
AcDbSpline
210
0.0
220
0.0
230
1.0
 62
     253
 70
     0
 71
     3
 72
     8
 73
4
 40
0.0
 40
0.0
 40
0.0
 40
0.0
 40
1.0
 40
1.0
 40
1.0
 40
1.0
 10
320.686
 20
163.251
 30
0.0
 10
319.888
 20
164.057
 30
0.0
 10
319.325
 20
165.099
 30
0.0
 10
319.325
 20
165.767
 30
0.0
  0
SPLINE
  5
2a1
100
AcDbEntity
  8
0
100
AcDbSpline
210
0.0
220
0.0
230
1.0
 62
     253
 70
     0
 71
     3
 72
     8
 73
4
 40
0.0
 40
0.0
 40
0.0
 40
0.0
 40
1.0
 40
1.0
 40
1.0
 40
1.0
 10
305.183
 20
177.315
 30
0.0
 10
305.183
 20
177.09
 30
0.0
 10
305.118
 20
176.921
 30
0.0
 10
304.996
 20
176.82
 30
0.0
  0
SPLINE
  5
2a2
100
AcDbEntity
  8
0
100
AcDbSpline
210
0.0
220
0.0
230
1.0
 62
     253
 70
     0
 71
     3
 72
     8
 73
4
 40
0.0
 40
0.0
 40
0.0
 40
0.0
 40
1.0
 40
1.0
 40
1.0
 40
1.0
 10
304.996
 20
176.82
 30
0.0
 10
304.629
 20
176.523
 30
0.0
 10
303.807
 20
176.88
 30
0.0
 10
303.009
 20
177.686
 30
0.0
  0
SPLINE
  5
2a3
100
AcDbEntity
  8
0
100
AcDbSpline
210
0.0
220
0.0
230
1.0
 62
     253
 70
     0
 71
     3
 72
     8
 73
4
 40
0.0
 40
0.0
 40
0.0
 40
0.0
 40
1.0
 40
1.0
 40
1.0
 40
1.0
 10
303.009
 20
177.686
 30
0.0
 10
302.211
 20
178.49
 30
0.0
 10
301.647
 20
179.531
 30
0.0
 10
301.647
 20
180.201
 30
0.0
  0
LINE
  5
2a4
100
AcDbEntity
  8
0
100
AcDbLine
 62
     253
 10
296.344
 20
174.427
 30
0.0
 11
314.022
 21
188.861
 31
0.0
  0
LINE
  5
2a5
100
AcDbEntity
  8
0
100
AcDbLine
 62
     253
 10
314.022
 20
188.861
 30
0.0
 11
314.022
 21
191.748
 31
0.0
  0
LINE
  5
2a6
100
AcDbEntity
  8
0
100
AcDbLine
 62
     253
 10
311.37
 20
189.582
 30
0.0
 11
299.879
 21
180.201
 31
0.0
  0
LINE
  5
2a7
100
AcDbEntity
  8
0
100
AcDbLine
 62
     253
 10
299.879
 20
180.201
 30
0.0
 11
299.879
 21
198.967
 31
0.0
  0
LINE
  5
2a8
100
AcDbEntity
  8
0
100
AcDbLine
 62
     253
 10
345.841
 20
162.881
 30
0.0
 11
314.022
 21
188.861
 31
0.0
  0
LINE
  5
2a9
100
AcDbEntity
  8
0
100
AcDbLine
 62
     253
 10
322.86
 20
172.984
 30
0.0
 11
322.86
 21
168.654
 31
0.0
  0
SPLINE
  5
2aa
100
AcDbEntity
  8
0
100
AcDbSpline
210
0.0
220
0.0
230
1.0
 62
     253
 70
     0
 71
     3
 72
     8
 73
4
 40
0.0
 40
0.0
 40
0.0
 40
0.0
 40
1.0
 40
1.0
 40
1.0
 40
1.0
 10
326.397
 20
165.767
 30
0.0
 10
326.397
 20
165.544
 30
0.0
 10
326.332
 20
165.374
 30
0.0
 10
326.209
 20
165.275
 30
0.0
  0
SPLINE
  5
2ab
100
AcDbEntity
  8
0
100
AcDbSpline
210
0.0
220
0.0
230
1.0
 62
     253
 70
     0
 71
     3
 72
     8
 73
4
 40
0.0
 40
0.0
 40
0.0
 40
0.0
 40
1.0
 40
1.0
 40
1.0
 40
1.0
 10
326.209
 20
165.275
 30
0.0
 10
325.842
 20
164.975
 30
0.0
 10
325.02
 20
165.331
 30
0.0
 10
324.222
 20
166.138
 30
0.0
  0
SPLINE
  5
2ac
100
AcDbEntity
  8
0
100
AcDbSpline
210
0.0
220
0.0
230
1.0
 62
     253
 70
     0
 71
     3
 72
     8
 73
4
 40
0.0
 40
0.0
 40
0.0
 40
0.0
 40
1.0
 40
1.0
 40
1.0
 40
1.0
 10
324.222
 20
166.138
 30
0.0
 10
323.424
 20
166.943
 30
0.0
 10
322.86
 20
167.984
 30
0.0
 10
322.86
 20
168.654
 30
0.0
  0
LINE
  5
2ad
100
AcDbEntity
  8
0
100
AcDbLine
 62
     253
 10
326.397
 20
170.098
 30
0.0
 11
326.397
 21
165.767
 31
0.0
  0
SPLINE
  5
2ae
100
AcDbEntity
  8
0
100
AcDbSpline
210
0.0
220
0.0
230
1.0
 62
     253
 70
     0
 71
     3
 72
     8
 73
4
 40
0.0
 40
0.0
 40
0.0
 40
0.0
 40
1.0
 40
1.0
 40
1.0
 40
1.0
 10
322.86
 20
172.984
 30
0.0
 10
322.86
 20
173.208
 30
0.0
 10
322.924
 20
173.378
 30
0.0
 10
323.047
 20
173.478
 30
0.0
  0
SPLINE
  5
2af
100
AcDbEntity
  8
0
100
AcDbSpline
210
0.0
220
0.0
230
1.0
 62
     253
 70
     0
 71
     3
 72
     8
 73
4
 40
0.0
 40
0.0
 40
0.0
 40
0.0
 40
1.0
 40
1.0
 40
1.0
 40
1.0
 10
323.047
 20
173.478
 30
0.0
 10
323.413
 20
173.776
 30
0.0
 10
324.236
 20
173.421
 30
0.0
 10
325.034
 20
172.615
 30
0.0
  0
SPLINE
  5
2b0
100
AcDbEntity
  8
0
100
AcDbSpline
210
0.0
220
0.0
230
1.0
 62
     253
 70
     0
 71
     3
 72
     8
 73
4
 40
0.0
 40
0.0
 40
0.0
 40
0.0
 40
1.0
 40
1.0
 40
1.0
 40
1.0
 10
325.034
 20
172.615
 30
0.0
 10
325.832
 20
171.808
 30
0.0
 10
326.397
 20
170.767
 30
0.0
 10
326.397
 20
170.098
 30
0.0
  0
LINE
  5
2b1
100
AcDbEntity
  8
0
100
AcDbLine
 62
     253
 10
305.183
 20
187.417
 30
0.0
 11
305.183
 21
183.087
 31
0.0
  0
SPLINE
  5
2b2
100
AcDbEntity
  8
0
100
AcDbSpline
210
0.0
220
0.0
230
1.0
 62
     253
 70
     0
 71
     3
 72
     8
 73
4
 40
0.0
 40
0.0
 40
0.0
 40
0.0
 40
1.0
 40
1.0
 40
1.0
 40
1.0
 10
308.718
 20
180.201
 30
0.0
 10
308.718
 20
179.979
 30
0.0
 10
308.654
 20
179.808
 30
0.0
 10
308.532
 20
179.707
 30
0.0
  0
SPLINE
  5
2b3
100
AcDbEntity
  8
0
100
AcDbSpline
210
0.0
220
0.0
230
1.0
 62
     253
 70
     0
 71
     3
 72
     8
 73
4
 40
0.0
 40
0.0
 40
0.0
 40
0.0
 40
1.0
 40
1.0
 40
1.0
 40
1.0
 10
308.532
 20
179.707
 30
0.0
 10
308.165
 20
179.408
 30
0.0
 10
307.342
 20
179.765
 30
0.0
 10
306.544
 20
180.571
 30
0.0
  0
SPLINE
  5
2b4
100
AcDbEntity
  8
0
100
AcDbSpline
210
0.0
220
0.0
230
1.0
 62
     253
 70
     0
 71
     3
 72
     8
 73
4
 40
0.0
 40
0.0
 40
0.0
 40
0.0
 40
1.0
 40
1.0
 40
1.0
 40
1.0
 10
306.544
 20
180.571
 30
0.0
 10
305.747
 20
181.376
 30
0.0
 10
305.183
 20
182.418
 30
0.0
 10
305.183
 20
183.087
 30
0.0
  0
LINE
  5
2b5
100
AcDbEntity
  8
0
100
AcDbLine
 62
     253
 10
308.718
 20
184.532
 30
0.0
 11
308.718
 21
180.201
 31
0.0
  0
SPLINE
  5
2b6
100
AcDbEntity
  8
0
100
AcDbSpline
210
0.0
220
0.0
230
1.0
 62
     253
 70
     0
 71
     3
 72
     8
 73
4
 40
0.0
 40
0.0
 40
0.0
 40
0.0
 40
1.0
 40
1.0
 40
1.0
 40
1.0
 10
305.183
 20
187.417
 30
0.0
 10
305.183
 20
187.642
 30
0.0
 10
305.247
 20
187.811
 30
0.0
 10
305.369
 20
187.912
 30
0.0
  0
SPLINE
  5
2b7
100
AcDbEntity
  8
0
100
AcDbSpline
210
0.0
220
0.0
230
1.0
 62
     253
 70
     0
 71
     3
 72
     8
 73
4
 40
0.0
 40
0.0
 40
0.0
 40
0.0
 40
1.0
 40
1.0
 40
1.0
 40
1.0
 10
305.369
 20
187.912
 30
0.0
 10
305.736
 20
188.21
 30
0.0
 10
306.558
 20
187.854
 30
0.0
 10
307.356
 20
187.049
 30
0.0
  0
SPLINE
  5
2b8
100
AcDbEntity
  8
0
100
AcDbSpline
210
0.0
220
0.0
230
1.0
 62
     253
 70
     0
 71
     3
 72
     8
 73
4
 40
0.0
 40
0.0
 40
0.0
 40
0.0
 40
1.0
 40
1.0
 40
1.0
 40
1.0
 10
307.356
 20
187.049
 30
0.0
 10
308.154
 20
186.242
 30
0.0
 10
308.718
 20
185.2
 30
0.0
 10
308.718
 20
184.532
 30
0.0
  0
LINE
  5
2b9
100
AcDbEntity
  8
0
100
AcDbLine
 62
     253
 10
319.325
 20
183.087
 30
0.0
 11
319.325
 21
170.098
 31
0.0
  0
LINE
  5
2ba
100
AcDbEntity
  8
0
100
AcDbLine
 62
     253
 10
319.325
 20
170.098
 30
0.0
 11
319.325
 21
164.324
 31
0.0
  0
LINE
  5
2bb
100
AcDbEntity
  8
0
100
AcDbLine
 62
     253
 10
331.699
 20
154.222
 30
0.0
 11
319.325
 21
164.324
 31
0.0
  0
LINE
  5
2bc
100
AcDbEntity
  8
0
100
AcDbLine
 62
     253
 10
312.254
 20
188.861
 30
0.0
 11
312.254
 21
170.098
 31
0.0
  0
LINE
  5
2bd
100
AcDbEntity
  8
0
100
AcDbLine
 62
     253
 10
312.254
 20
170.098
 30
0.0
 11
299.879
 21
180.201
 31
0.0
  0
LINE
  5
2be
100
AcDbEntity
  8
0
100
AcDbLine
 62
     253
 10
326.397
 20
181.645
 30
0.0
 11
314.905
 21
191.028
 31
0.0
  0
LINE
  5
2bf
100
AcDbEntity
  8
0
100
AcDbLine
 62
     253
 10
333.467
 20
175.871
 30
0.0
 11
326.397
 21
181.645
 31
0.0
  0
LINE
  5
2c0
100
AcDbEntity
  8
0
100
AcDbLine
 62
     253
 10
319.325
 20
164.324
 30
0.0
 11
330.816
 21
173.706
 31
0.0
  0
LINE
  5
2c1
100
AcDbEntity
  8
0
100
AcDbLine
 62
     253
 10
312.254
 20
170.098
 30
0.0
 11
326.397
 21
181.645
 31
0.0
  0
LINE
  5
2c2
100
AcDbEntity
  8
0
100
AcDbLine
 62
     253
 10
326.397
 20
181.645
 30
0.0
 11
326.397
 21
184.532
 31
0.0
  0
LINE
  5
2c3
100
AcDbEntity
  8
0
100
AcDbLine
 62
     253
 10
289.272
 20
142.673
 30
0.0
 11
322.86
 21
115.249
 31
0.0
  0
SPLINE
  5
2c4
100
AcDbEntity
  8
0
100
AcDbSpline
210
0.0
220
0.0
230
1.0
 62
     253
 70
     0
 71
     3
 72
     8
 73
4
 40
0.0
 40
0.0
 40
0.0
 40
0.0
 40
1.0
 40
1.0
 40
1.0
 40
1.0
 10
322.86
 20
115.249
 30
0.0
 10
323.53
 20
114.703
 30
0.0
 10
324.142
 20
114.511
 30
0.0
 10
324.441
 20
114.758
 30
0.0
  0
LINE
  5
2c5
100
AcDbEntity
  8
0
100
AcDbLine
 62
     253
 10
289.272
 20
142.673
 30
0.0
 11
289.272
 21
190.304
 31
0.0
  0
SPLINE
  5
2c6
100
AcDbEntity
  8
0
100
AcDbSpline
210
0.0
220
0.0
230
1.0
 62
     253
 70
     0
 71
     3
 72
     8
 73
4
 40
0.0
 40
0.0
 40
0.0
 40
0.0
 40
1.0
 40
1.0
 40
1.0
 40
1.0
 10
319.325
 20
161.439
 30
0.0
 10
319.325
 20
162.107
 30
0.0
 10
318.761
 20
163.149
 30
0.0
 10
317.963
 20
163.955
 30
0.0
  0
SPLINE
  5
2c7
100
AcDbEntity
  8
0
100
AcDbSpline
210
0.0
220
0.0
230
1.0
 62
     253
 70
     0
 71
     3
 72
     8
 73
4
 40
0.0
 40
0.0
 40
0.0
 40
0.0
 40
1.0
 40
1.0
 40
1.0
 40
1.0
 10
317.963
 20
163.955
 30
0.0
 10
317.165
 20
164.758
 30
0.0
 10
316.343
 20
165.118
 30
0.0
 10
315.976
 20
164.816
 30
0.0
  0
SPLINE
  5
2c8
100
AcDbEntity
  8
0
100
AcDbSpline
210
0.0
220
0.0
230
1.0
 62
     253
 70
     0
 71
     3
 72
     8
 73
4
 40
0.0
 40
0.0
 40
0.0
 40
0.0
 40
1.0
 40
1.0
 40
1.0
 40
1.0
 10
315.976
 20
164.816
 30
0.0
 10
315.539
 20
164.461
 30
0.0
 10
315.893
 20
163.306
 30
0.0
 10
316.767
 20
162.237
 30
0.0
  0
SPLINE
  5
2c9
100
AcDbEntity
  8
0
100
AcDbSpline
210
0.0
220
0.0
230
1.0
 62
     253
 70
     0
 71
     3
 72
     8
 73
4
 40
0.0
 40
0.0
 40
0.0
 40
0.0
 40
1.0
 40
1.0
 40
1.0
 40
1.0
 10
316.767
 20
162.237
 30
0.0
 10
317.639
 20
161.166
 30
0.0
 10
318.702
 20
160.588
 30
0.0
 10
319.139
 20
160.944
 30
0.0
  0
SPLINE
  5
2ca
100
AcDbEntity
  8
0
100
AcDbSpline
210
0.0
220
0.0
230
1.0
 62
     253
 70
     0
 71
     3
 72
     8
 73
4
 40
0.0
 40
0.0
 40
0.0
 40
0.0
 40
1.0
 40
1.0
 40
1.0
 40
1.0
 10
319.139
 20
160.944
 30
0.0
 10
319.261
 20
161.046
 30
0.0
 10
319.325
 20
161.212
 30
0.0
 10
319.325
 20
161.439
 30
0.0
  0
SPLINE
  5
2cb
100
AcDbEntity
  8
0
100
AcDbSpline
210
0.0
220
0.0
230
1.0
 62
     253
 70
     0
 71
     3
 72
     8
 73
4
 40
0.0
 40
0.0
 40
0.0
 40
0.0
 40
1.0
 40
1.0
 40
1.0
 40
1.0
 10
301.647
 20
175.871
 30
0.0
 10
301.647
 20
176.541
 30
0.0
 10
301.083
 20
177.582
 30
0.0
 10
300.286
 20
178.388
 30
0.0
  0
SPLINE
  5
2cc
100
AcDbEntity
  8
0
100
AcDbSpline
210
0.0
220
0.0
230
1.0
 62
     253
 70
     0
 71
     3
 72
     8
 73
4
 40
0.0
 40
0.0
 40
0.0
 40
0.0
 40
1.0
 40
1.0
 40
1.0
 40
1.0
 10
300.286
 20
178.388
 30
0.0
 10
299.488
 20
179.192
 30
0.0
 10
298.665
 20
179.552
 30
0.0
 10
298.298
 20
179.251
 30
0.0
  0
SPLINE
  5
2cd
100
AcDbEntity
  8
0
100
AcDbSpline
210
0.0
220
0.0
230
1.0
 62
     253
 70
     0
 71
     3
 72
     8
 73
4
 40
0.0
 40
0.0
 40
0.0
 40
0.0
 40
1.0
 40
1.0
 40
1.0
 40
1.0
 10
298.298
 20
179.251
 30
0.0
 10
297.862
 20
178.894
 30
0.0
 10
298.216
 20
177.738
 30
0.0
 10
299.09
 20
176.67
 30
0.0
  0
SPLINE
  5
2ce
100
AcDbEntity
  8
0
100
AcDbSpline
210
0.0
220
0.0
230
1.0
 62
     253
 70
     0
 71
     3
 72
     8
 73
4
 40
0.0
 40
0.0
 40
0.0
 40
0.0
 40
1.0
 40
1.0
 40
1.0
 40
1.0
 10
299.09
 20
176.67
 30
0.0
 10
299.962
 20
175.599
 30
0.0
 10
301.024
 20
175.022
 30
0.0
 10
301.461
 20
175.377
 30
0.0
  0
SPLINE
  5
2cf
100
AcDbEntity
  8
0
100
AcDbSpline
210
0.0
220
0.0
230
1.0
 62
     253
 70
     0
 71
     3
 72
     8
 73
4
 40
0.0
 40
0.0
 40
0.0
 40
0.0
 40
1.0
 40
1.0
 40
1.0
 40
1.0
 10
301.461
 20
175.377
 30
0.0
 10
301.584
 20
175.479
 30
0.0
 10
301.647
 20
175.646
 30
0.0
 10
301.647
 20
175.871
 30
0.0
  0
LINE
  5
2d0
100
AcDbEntity
  8
0
100
AcDbLine
 62
     253
 10
223.865
 20
89.2694
 30
0.0
 11
289.272
 21
142.673
 31
0.0
  0
SPLINE
  5
2d1
100
AcDbEntity
  8
0
100
AcDbSpline
210
0.0
220
0.0
230
1.0
 62
     253
 70
     0
 71
     3
 72
     8
 73
4
 40
0.0
 40
0.0
 40
0.0
 40
0.0
 40
1.0
 40
1.0
 40
1.0
 40
1.0
 10
223.865
 20
89.2694
 30
0.0
 10
223.195
 20
88.7222
 30
0.0
 10
222.583
 20
88.5321
 30
0.0
 10
222.285
 20
88.7748
 30
0.0
  0
SPLINE
  5
2d2
100
AcDbEntity
  8
0
100
AcDbSpline
210
0.0
220
0.0
230
1.0
 62
     253
 70
     0
 71
     3
 72
     8
 73
4
 40
0.0
 40
0.0
 40
0.0
 40
0.0
 40
1.0
 40
1.0
 40
1.0
 40
1.0
 10
256.569
 20
120.3
 30
0.0
 10
255.899
 20
119.756
 30
0.0
 10
255.287
 20
119.564
 30
0.0
 10
254.988
 20
119.808
 30
0.0
  0
SPLINE
  5
2d3
100
AcDbEntity
  8
0
100
AcDbSpline
210
0.0
220
0.0
230
1.0
 62
     253
 70
     0
 71
     3
 72
     8
 73
4
 40
0.0
 40
0.0
 40
0.0
 40
0.0
 40
1.0
 40
1.0
 40
1.0
 40
1.0
 10
254.988
 20
119.808
 30
0.0
 10
254.714
 20
120.033
 30
0.0
 10
254.743
 20
120.587
 30
0.0
 10
255.065
 20
121.275
 30
0.0
  0
SPLINE
  5
2d4
100
AcDbEntity
  8
0
100
AcDbSpline
210
0.0
220
0.0
230
1.0
 62
     253
 70
     0
 71
     3
 72
     8
 73
4
 40
0.0
 40
0.0
 40
0.0
 40
0.0
 40
1.0
 40
1.0
 40
1.0
 40
1.0
 10
255.065
 20
121.275
 30
0.0
 10
255.388
 20
121.963
 30
0.0
 10
255.957
 20
122.687
 30
0.0
 10
256.569
 20
123.187
 30
0.0
  0
LINE
  5
2d5
100
AcDbEntity
  8
0
100
AcDbLine
 62
     253
 10
261.873
 20
127.518
 30
0.0
 11
256.569
 21
123.187
 31
0.0
  0
SPLINE
  5
2d6
100
AcDbEntity
  8
0
100
AcDbSpline
210
0.0
220
0.0
230
1.0
 62
     253
 70
     0
 71
     3
 72
     8
 73
4
 40
0.0
 40
0.0
 40
0.0
 40
0.0
 40
1.0
 40
1.0
 40
1.0
 40
1.0
 10
261.873
 20
127.518
 30
0.0
 10
262.543
 20
128.064
 30
0.0
 10
263.154
 20
128.256
 30
0.0
 10
263.453
 20
128.01
 30
0.0
  0
SPLINE
  5
2d7
100
AcDbEntity
  8
0
100
AcDbSpline
210
0.0
220
0.0
230
1.0
 62
     253
 70
     0
 71
     3
 72
     8
 73
4
 40
0.0
 40
0.0
 40
0.0
 40
0.0
 40
1.0
 40
1.0
 40
1.0
 40
1.0
 10
263.453
 20
128.01
 30
0.0
 10
263.727
 20
127.787
 30
0.0
 10
263.699
 20
127.231
 30
0.0
 10
263.376
 20
126.544
 30
0.0
  0
SPLINE
  5
2d8
100
AcDbEntity
  8
0
100
AcDbSpline
210
0.0
220
0.0
230
1.0
 62
     253
 70
     0
 71
     3
 72
     8
 73
4
 40
0.0
 40
0.0
 40
0.0
 40
0.0
 40
1.0
 40
1.0
 40
1.0
 40
1.0
 10
263.376
 20
126.544
 30
0.0
 10
263.054
 20
125.856
 30
0.0
 10
262.485
 20
125.133
 30
0.0
 10
261.873
 20
124.633
 30
0.0
  0
LINE
  5
2d9
100
AcDbEntity
  8
0
100
AcDbLine
 62
     253
 10
261.873
 20
124.633
 30
0.0
 11
256.569
 21
120.3
 31
0.0
  0
LINE
  5
2da
100
AcDbEntity
  8
0
100
AcDbLine
 62
     253
 10
235.356
 20
102.982
 30
0.0
 11
230.052
 21
98.6497
 31
0.0
  0
SPLINE
  5
2db
100
AcDbEntity
  8
0
100
AcDbSpline
210
0.0
220
0.0
230
1.0
 62
     253
 70
     0
 71
     3
 72
     8
 73
4
 40
0.0
 40
0.0
 40
0.0
 40
0.0
 40
1.0
 40
1.0
 40
1.0
 40
1.0
 10
230.052
 20
98.6497
 30
0.0
 10
229.383
 20
98.104
 30
0.0
 10
228.771
 20
97.9138
 30
0.0
 10
228.472
 20
98.1562
 30
0.0
  0
SPLINE
  5
2dc
100
AcDbEntity
  8
0
100
AcDbSpline
210
0.0
220
0.0
230
1.0
 62
     253
 70
     0
 71
     3
 72
     8
 73
4
 40
0.0
 40
0.0
 40
0.0
 40
0.0
 40
1.0
 40
1.0
 40
1.0
 40
1.0
 10
228.472
 20
98.1562
 30
0.0
 10
228.197
 20
98.3823
 30
0.0
 10
228.226
 20
98.9362
 30
0.0
 10
228.549
 20
99.6237
 30
0.0
  0
SPLINE
  5
2dd
100
AcDbEntity
  8
0
100
AcDbSpline
210
0.0
220
0.0
230
1.0
 62
     253
 70
     0
 71
     3
 72
     8
 73
4
 40
0.0
 40
0.0
 40
0.0
 40
0.0
 40
1.0
 40
1.0
 40
1.0
 40
1.0
 10
228.549
 20
99.6237
 30
0.0
 10
228.872
 20
100.313
 30
0.0
 10
229.441
 20
101.036
 30
0.0
 10
230.052
 20
101.537
 30
0.0
  0
LINE
  5
2de
100
AcDbEntity
  8
0
100
AcDbLine
 62
     253
 10
235.356
 20
105.866
 30
0.0
 11
230.052
 21
101.537
 31
0.0
  0
SPLINE
  5
2df
100
AcDbEntity
  8
0
100
AcDbSpline
210
0.0
220
0.0
230
1.0
 62
     253
 70
     0
 71
     3
 72
     8
 73
4
 40
0.0
 40
0.0
 40
0.0
 40
0.0
 40
1.0
 40
1.0
 40
1.0
 40
1.0
 10
235.356
 20
105.866
 30
0.0
 10
236.026
 20
106.414
 30
0.0
 10
236.638
 20
106.605
 30
0.0
 10
236.937
 20
106.361
 30
0.0
  0
SPLINE
  5
2e0
100
AcDbEntity
  8
0
100
AcDbSpline
210
0.0
220
0.0
230
1.0
 62
     253
 70
     0
 71
     3
 72
     8
 73
4
 40
0.0
 40
0.0
 40
0.0
 40
0.0
 40
1.0
 40
1.0
 40
1.0
 40
1.0
 10
236.937
 20
106.361
 30
0.0
 10
237.211
 20
106.136
 30
0.0
 10
237.182
 20
105.583
 30
0.0
 10
236.86
 20
104.894
 30
0.0
  0
SPLINE
  5
2e1
100
AcDbEntity
  8
0
100
AcDbSpline
210
0.0
220
0.0
230
1.0
 62
     253
 70
     0
 71
     3
 72
     8
 73
4
 40
0.0
 40
0.0
 40
0.0
 40
0.0
 40
1.0
 40
1.0
 40
1.0
 40
1.0
 10
236.86
 20
104.894
 30
0.0
 10
236.538
 20
104.205
 30
0.0
 10
235.968
 20
103.482
 30
0.0
 10
235.356
 20
102.982
 30
0.0
  0
SPLINE
  5
2e2
100
AcDbEntity
  8
0
100
AcDbSpline
210
0.0
220
0.0
230
1.0
 62
     253
 70
     0
 71
     3
 72
     8
 73
4
 40
0.0
 40
0.0
 40
0.0
 40
0.0
 40
1.0
 40
1.0
 40
1.0
 40
1.0
 10
261.873
 20
163.604
 30
0.0
 10
262.543
 20
164.149
 30
0.0
 10
263.154
 20
164.339
 30
0.0
 10
263.453
 20
164.095
 30
0.0
  0
SPLINE
  5
2e3
100
AcDbEntity
  8
0
100
AcDbSpline
210
0.0
220
0.0
230
1.0
 62
     253
 70
     0
 71
     3
 72
     8
 73
4
 40
0.0
 40
0.0
 40
0.0
 40
0.0
 40
1.0
 40
1.0
 40
1.0
 40
1.0
 10
263.453
 20
164.095
 30
0.0
 10
263.727
 20
163.871
 30
0.0
 10
263.699
 20
163.315
 30
0.0
 10
263.376
 20
162.629
 30
0.0
  0
SPLINE
  5
2e4
100
AcDbEntity
  8
0
100
AcDbSpline
210
0.0
220
0.0
230
1.0
 62
     253
 70
     0
 71
     3
 72
     8
 73
4
 40
0.0
 40
0.0
 40
0.0
 40
0.0
 40
1.0
 40
1.0
 40
1.0
 40
1.0
 10
263.376
 20
162.629
 30
0.0
 10
263.054
 20
161.94
 30
0.0
 10
262.485
 20
161.215
 30
0.0
 10
261.873
 20
160.715
 30
0.0
  0
LINE
  5
2e5
100
AcDbEntity
  8
0
100
AcDbLine
 62
     253
 10
261.873
 20
160.715
 30
0.0
 11
256.569
 21
156.387
 31
0.0
  0
SPLINE
  5
2e6
100
AcDbEntity
  8
0
100
AcDbSpline
210
0.0
220
0.0
230
1.0
 62
     253
 70
     0
 71
     3
 72
     8
 73
4
 40
0.0
 40
0.0
 40
0.0
 40
0.0
 40
1.0
 40
1.0
 40
1.0
 40
1.0
 10
256.569
 20
156.387
 30
0.0
 10
255.899
 20
155.84
 30
0.0
 10
255.287
 20
155.649
 30
0.0
 10
254.988
 20
155.892
 30
0.0
  0
SPLINE
  5
2e7
100
AcDbEntity
  8
0
100
AcDbSpline
210
0.0
220
0.0
230
1.0
 62
     253
 70
     0
 71
     3
 72
     8
 73
4
 40
0.0
 40
0.0
 40
0.0
 40
0.0
 40
1.0
 40
1.0
 40
1.0
 40
1.0
 10
254.988
 20
155.892
 30
0.0
 10
254.714
 20
156.115
 30
0.0
 10
254.743
 20
156.67
 30
0.0
 10
255.065
 20
157.36
 30
0.0
  0
SPLINE
  5
2e8
100
AcDbEntity
  8
0
100
AcDbSpline
210
0.0
220
0.0
230
1.0
 62
     253
 70
     0
 71
     3
 72
     8
 73
4
 40
0.0
 40
0.0
 40
0.0
 40
0.0
 40
1.0
 40
1.0
 40
1.0
 40
1.0
 10
255.065
 20
157.36
 30
0.0
 10
255.388
 20
158.049
 30
0.0
 10
255.957
 20
158.772
 30
0.0
 10
256.569
 20
159.272
 30
0.0
  0
LINE
  5
2e9
100
AcDbEntity
  8
0
100
AcDbLine
 62
     253
 10
261.873
 20
163.604
 30
0.0
 11
256.569
 21
159.272
 31
0.0
  0
SPLINE
  5
2ea
100
AcDbEntity
  8
0
100
AcDbSpline
210
0.0
220
0.0
230
1.0
 62
     253
 70
     0
 71
     3
 72
     8
 73
4
 40
0.0
 40
0.0
 40
0.0
 40
0.0
 40
1.0
 40
1.0
 40
1.0
 40
1.0
 10
230.052
 20
134.735
 30
0.0
 10
229.383
 20
134.189
 30
0.0
 10
228.771
 20
133.998
 30
0.0
 10
228.472
 20
134.241
 30
0.0
  0
SPLINE
  5
2eb
100
AcDbEntity
  8
0
100
AcDbSpline
210
0.0
220
0.0
230
1.0
 62
     253
 70
     0
 71
     3
 72
     8
 73
4
 40
0.0
 40
0.0
 40
0.0
 40
0.0
 40
1.0
 40
1.0
 40
1.0
 40
1.0
 10
228.472
 20
134.241
 30
0.0
 10
228.197
 20
134.466
 30
0.0
 10
228.226
 20
135.02
 30
0.0
 10
228.549
 20
135.709
 30
0.0
  0
SPLINE
  5
2ec
100
AcDbEntity
  8
0
100
AcDbSpline
210
0.0
220
0.0
230
1.0
 62
     253
 70
     0
 71
     3
 72
     8
 73
4
 40
0.0
 40
0.0
 40
0.0
 40
0.0
 40
1.0
 40
1.0
 40
1.0
 40
1.0
 10
228.549
 20
135.709
 30
0.0
 10
228.872
 20
136.397
 30
0.0
 10
229.441
 20
137.12
 30
0.0
 10
230.052
 20
137.62
 30
0.0
  0
LINE
  5
2ed
100
AcDbEntity
  8
0
100
AcDbLine
 62
     253
 10
235.356
 20
141.952
 30
0.0
 11
230.052
 21
137.62
 31
0.0
  0
SPLINE
  5
2ee
100
AcDbEntity
  8
0
100
AcDbSpline
210
0.0
220
0.0
230
1.0
 62
     253
 70
     0
 71
     3
 72
     8
 73
4
 40
0.0
 40
0.0
 40
0.0
 40
0.0
 40
1.0
 40
1.0
 40
1.0
 40
1.0
 10
235.356
 20
141.952
 30
0.0
 10
236.026
 20
142.498
 30
0.0
 10
236.638
 20
142.689
 30
0.0
 10
236.937
 20
142.445
 30
0.0
  0
SPLINE
  5
2ef
100
AcDbEntity
  8
0
100
AcDbSpline
210
0.0
220
0.0
230
1.0
 62
     253
 70
     0
 71
     3
 72
     8
 73
4
 40
0.0
 40
0.0
 40
0.0
 40
0.0
 40
1.0
 40
1.0
 40
1.0
 40
1.0
 10
236.937
 20
142.445
 30
0.0
 10
237.211
 20
142.221
 30
0.0
 10
237.182
 20
141.665
 30
0.0
 10
236.86
 20
140.979
 30
0.0
  0
SPLINE
  5
2f0
100
AcDbEntity
  8
0
100
AcDbSpline
210
0.0
220
0.0
230
1.0
 62
     253
 70
     0
 71
     3
 72
     8
 73
4
 40
0.0
 40
0.0
 40
0.0
 40
0.0
 40
1.0
 40
1.0
 40
1.0
 40
1.0
 10
236.86
 20
140.979
 30
0.0
 10
236.538
 20
140.29
 30
0.0
 10
235.968
 20
139.566
 30
0.0
 10
235.356
 20
139.065
 30
0.0
  0
LINE
  5
2f1
100
AcDbEntity
  8
0
100
AcDbLine
 62
     253
 10
235.356
 20
139.065
 30
0.0
 11
230.052
 21
134.735
 31
0.0
  0
LINE
  5
2f2
100
AcDbEntity
  8
0
100
AcDbLine
 62
     253
 10
322.673
 20
162.387
 30
0.0
 11
326.209
 21
165.275
 31
0.0
  0
LINE
  5
2f3
100
AcDbEntity
  8
0
100
AcDbLine
 62
     253
 10
319.512
 20
170.59
 30
0.0
 11
323.047
 21
173.478
 31
0.0
  0
LINE
  5
2f4
100
AcDbEntity
  8
0
100
AcDbLine
 62
     253
 10
304.996
 20
176.82
 30
0.0
 11
308.532
 21
179.707
 31
0.0
  0
LINE
  5
2f5
100
AcDbEntity
  8
0
100
AcDbLine
 62
     253
 10
301.835
 20
185.024
 30
0.0
 11
305.369
 21
187.912
 31
0.0
  0
LINE
  5
2f6
100
AcDbEntity
  8
0
100
AcDbLine
 62
     253
 10
319.139
 20
160.944
 30
0.0
 11
315.602
 21
158.058
 31
0.0
  0
LINE
  5
2f7
100
AcDbEntity
  8
0
100
AcDbLine
 62
     253
 10
315.976
 20
164.816
 30
0.0
 11
312.44
 21
161.931
 31
0.0
  0
LINE
  5
2f8
100
AcDbEntity
  8
0
100
AcDbLine
 62
     253
 10
301.461
 20
175.377
 30
0.0
 11
297.925
 21
172.49
 31
0.0
  0
LINE
  5
2f9
100
AcDbEntity
  8
0
100
AcDbLine
 62
     253
 10
298.298
 20
179.251
 30
0.0
 11
294.762
 21
176.364
 31
0.0
  0
LINE
  5
2fa
100
AcDbEntity
  8
0
100
AcDbLine
 62
     253
 10
258.524
 20
116.921
 30
0.0
 11
254.988
 21
119.808
 31
0.0
  0
LINE
  5
2fb
100
AcDbEntity
  8
0
100
AcDbLine
 62
     253
 10
266.989
 20
125.125
 30
0.0
 11
263.453
 21
128.01
 31
0.0
  0
LINE
  5
2fc
100
AcDbEntity
  8
0
100
AcDbLine
 62
     253
 10
232.006
 20
95.2708
 30
0.0
 11
228.472
 21
98.1562
 31
0.0
  0
LINE
  5
2fd
100
AcDbEntity
  8
0
100
AcDbLine
 62
     253
 10
240.473
 20
103.473
 30
0.0
 11
236.937
 21
106.361
 31
0.0
  0
LINE
  5
2fe
100
AcDbEntity
  8
0
100
AcDbLine
 62
     253
 10
266.989
 20
161.209
 30
0.0
 11
263.453
 21
164.095
 31
0.0
  0
LINE
  5
2ff
100
AcDbEntity
  8
0
100
AcDbLine
 62
     253
 10
258.524
 20
153.006
 30
0.0
 11
254.988
 21
155.892
 31
0.0
  0
LINE
  5
300
100
AcDbEntity
  8
0
100
AcDbLine
 62
     253
 10
232.006
 20
131.355
 30
0.0
 11
228.472
 21
134.241
 31
0.0
  0
LINE
  5
301
100
AcDbEntity
  8
0
100
AcDbLine
 62
     253
 10
240.473
 20
139.558
 30
0.0
 11
236.937
 21
142.445
 31
0.0
  0
LINE
  5
302
100
AcDbEntity
  8
0
100
AcDbLine
 62
     253
 10
40.6785
 20
120.212
 30
0.0
 11
40.6785
 21
165.211
 31
0.0
  0
LINE
  5
303
100
AcDbEntity
  8
0
100
AcDbLine
 62
     253
 10
40.6785
 20
127.711
 30
0.0
 11
40.6785
 21
132.712
 31
0.0
  0
LINE
  5
304
100
AcDbEntity
  8
0
100
AcDbLine
 62
     253
 10
40.6785
 20
132.712
 30
0.0
 11
40.6785
 21
127.711
 31
0.0
  0
LINE
  5
305
100
AcDbEntity
  8
0
100
AcDbLine
 62
     253
 10
40.6785
 20
152.712
 30
0.0
 11
40.6785
 21
157.711
 31
0.0
  0
LINE
  5
306
100
AcDbEntity
  8
0
100
AcDbLine
 62
     253
 10
40.6785
 20
157.711
 30
0.0
 11
40.6785
 21
152.712
 31
0.0
  0
LINE
  5
307
100
AcDbEntity
  8
0
100
AcDbLine
 62
     253
 10
40.6785
 20
120.212
 30
0.0
 11
65.6788
 21
120.212
 31
0.0
  0
LINE
  5
308
100
AcDbEntity
  8
0
100
AcDbLine
 62
     253
 10
40.6785
 20
165.211
 30
0.0
 11
65.6788
 21
165.211
 31
0.0
  0
LINE
  5
309
100
AcDbEntity
  8
0
100
AcDbLine
 62
     253
 10
65.6788
 20
120.212
 30
0.0
 11
65.6788
 21
165.211
 31
0.0
  0
LINE
  5
30a
100
AcDbEntity
  8
0
100
AcDbLine
 62
     253
 10
45.6777
 20
132.712
 30
0.0
 11
40.6785
 21
132.712
 31
0.0
  0
LINE
  5
30b
100
AcDbEntity
  8
0
100
AcDbLine
 62
     253
 10
45.6777
 20
132.712
 30
0.0
 11
40.6785
 21
132.712
 31
0.0
  0
LINE
  5
30c
100
AcDbEntity
  8
0
100
AcDbLine
 62
     253
 10
45.6777
 20
127.711
 30
0.0
 11
45.6777
 21
132.712
 31
0.0
  0
LINE
  5
30d
100
AcDbEntity
  8
0
100
AcDbLine
 62
     253
 10
45.6777
 20
127.711
 30
0.0
 11
40.6785
 21
127.711
 31
0.0
  0
LINE
  5
30e
100
AcDbEntity
  8
0
100
AcDbLine
 62
     253
 10
45.6777
 20
127.711
 30
0.0
 11
40.6785
 21
127.711
 31
0.0
  0
LINE
  5
30f
100
AcDbEntity
  8
0
100
AcDbLine
 62
     253
 10
45.6777
 20
132.712
 30
0.0
 11
45.6777
 21
127.711
 31
0.0
  0
LINE
  5
310
100
AcDbEntity
  8
0
100
AcDbLine
 62
     253
 10
45.6777
 20
157.711
 30
0.0
 11
40.6785
 21
157.711
 31
0.0
  0
LINE
  5
311
100
AcDbEntity
  8
0
100
AcDbLine
 62
     253
 10
45.6777
 20
157.711
 30
0.0
 11
40.6785
 21
157.711
 31
0.0
  0
LINE
  5
312
100
AcDbEntity
  8
0
100
AcDbLine
 62
     253
 10
45.6777
 20
152.712
 30
0.0
 11
45.6777
 21
157.711
 31
0.0
  0
LINE
  5
313
100
AcDbEntity
  8
0
100
AcDbLine
 62
     253
 10
45.6777
 20
152.712
 30
0.0
 11
40.6785
 21
152.712
 31
0.0
  0
LINE
  5
314
100
AcDbEntity
  8
0
100
AcDbLine
 62
     253
 10
45.6777
 20
152.712
 30
0.0
 11
40.6785
 21
152.712
 31
0.0
  0
LINE
  5
315
100
AcDbEntity
  8
0
100
AcDbLine
 62
     253
 10
45.6777
 20
157.711
 30
0.0
 11
45.6777
 21
152.712
 31
0.0
  0
LINE
  5
316
100
AcDbEntity
  8
0
100
AcDbLine
 62
     253
 10
45.6777
 20
120.212
 30
0.0
 11
45.6777
 21
137.711
 31
0.0
  0
LINE
  5
317
100
AcDbEntity
  8
0
100
AcDbLine
 62
     253
 10
45.6777
 20
140.211
 30
0.0
 11
45.6777
 21
145.212
 31
0.0
  0
LINE
  5
318
100
AcDbEntity
  8
0
100
AcDbLine
 62
     253
 10
45.6777
 20
147.713
 30
0.0
 11
45.6777
 21
165.211
 31
0.0
  0
LINE
  5
319
100
AcDbEntity
  8
0
100
AcDbLine
 62
     253
 10
65.6788
 20
137.711
 30
0.0
 11
65.6788
 21
140.211
 31
0.0
  0
LINE
  5
31a
100
AcDbEntity
  8
0
100
AcDbLine
 62
     253
 10
65.6788
 20
145.212
 30
0.0
 11
65.6788
 21
147.713
 31
0.0
  0
LINE
  5
31b
100
AcDbEntity
  8
0
100
AcDbLine
 62
     253
 10
45.6777
 20
137.711
 30
0.0
 11
65.6788
 21
137.711
 31
0.0
  0
LINE
  5
31c
100
AcDbEntity
  8
0
100
AcDbLine
 62
     253
 10
45.6777
 20
147.713
 30
0.0
 11
65.6788
 21
147.713
 31
0.0
  0
LINE
  5
31d
100
AcDbEntity
  8
0
100
AcDbLine
 62
     253
 10
65.6788
 20
140.211
 30
0.0
 11
45.6777
 21
140.211
 31
0.0
  0
LINE
  5
31e
100
AcDbEntity
  8
0
100
AcDbLine
 62
     253
 10
65.6788
 20
145.212
 30
0.0
 11
45.6777
 21
145.212
 31
0.0
  0
LINE
  5
31f
100
AcDbEntity
  8
0
100
AcDbLine
 62
     253
 10
70.8078
 20
41.5756
 30
0.0
 11
70.8078
 21
74.5755
 31
0.0
  0
LINE
  5
320
100
AcDbEntity
  8
0
100
AcDbLine
 62
     253
 10
70.8078
 20
71.5754
 30
0.0
 11
70.8078
 21
72.5759
 31
0.0
  0
LINE
  5
321
100
AcDbEntity
  8
0
100
AcDbLine
 62
     253
 10
70.8078
 20
72.5759
 30
0.0
 11
70.8078
 21
70.575
 31
0.0
  0
LINE
  5
322
100
AcDbEntity
  8
0
100
AcDbLine
 62
     253
 10
70.8078
 20
70.575
 30
0.0
 11
70.8078
 21
71.5754
 31
0.0
  0
LINE
  5
323
100
AcDbEntity
  8
0
100
AcDbLine
 62
     253
 10
70.8078
 20
71.5754
 30
0.0
 11
70.8078
 21
72.5759
 31
0.0
  0
LINE
  5
324
100
AcDbEntity
  8
0
100
AcDbLine
 62
     253
 10
70.8078
 20
72.5759
 30
0.0
 11
70.8078
 21
70.575
 31
0.0
  0
LINE
  5
325
100
AcDbEntity
  8
0
100
AcDbLine
 62
     253
 10
70.8078
 20
70.575
 30
0.0
 11
70.8078
 21
71.5754
 31
0.0
  0
LINE
  5
326
100
AcDbEntity
  8
0
100
AcDbLine
 62
     253
 10
33.8074
 20
41.5756
 30
0.0
 11
70.8078
 21
41.5756
 31
0.0
  0
LINE
  5
327
100
AcDbEntity
  8
0
100
AcDbLine
 62
     253
 10
32.807
 20
42.576
 30
0.0
 11
32.807
 21
73.575
 31
0.0
  0
SPLINE
  5
328
100
AcDbEntity
  8
0
100
AcDbSpline
210
0.0
220
0.0
230
1.0
 62
     253
 70
     0
 71
     3
 72
     8
 73
4
 40
0.0
 40
0.0
 40
0.0
 40
0.0
 40
1.0
 40
1.0
 40
1.0
 40
1.0
 10
33.8074
 20
41.5756
 30
0.0
 10
33.2548
 20
41.5756
 30
0.0
 10
32.807
 20
42.0247
 30
0.0
 10
32.807
 20
42.576
 30
0.0
  0
SPLINE
  5
329
100
AcDbEntity
  8
0
100
AcDbSpline
210
0.0
220
0.0
230
1.0
 62
     253
 70
     0
 71
     3
 72
     8
 73
4
 40
0.0
 40
0.0
 40
0.0
 40
0.0
 40
1.0
 40
1.0
 40
1.0
 40
1.0
 10
33.8074
 20
74.5755
 30
0.0
 10
33.2548
 20
74.5755
 30
0.0
 10
32.807
 20
74.1288
 30
0.0
 10
32.807
 20
73.575
 30
0.0
  0
LINE
  5
32a
100
AcDbEntity
  8
0
100
AcDbLine
 62
     253
 10
33.8074
 20
74.5755
 30
0.0
 11
70.8078
 21
74.5755
 31
0.0
  0
SPLINE
  5
32b
100
AcDbEntity
  8
0
100
AcDbSpline
210
0.0
220
0.0
230
1.0
 62
     253
 70
     0
 71
     3
 72
     8
 73
4
 40
0.0
 40
0.0
 40
0.0
 40
0.0
 40
1.0
 40
1.0
 40
1.0
 40
1.0
 10
52.3074
 20
44.5752
 30
0.0
 10
51.755
 20
44.5752
 30
0.0
 10
51.3073
 20
45.0247
 30
0.0
 10
51.3073
 20
45.5757
 30
0.0
  0
SPLINE
  5
32c
100
AcDbEntity
  8
0
100
AcDbSpline
210
0.0
220
0.0
230
1.0
 62
     253
 70
     0
 71
     3
 72
     8
 73
4
 40
0.0
 40
0.0
 40
0.0
 40
0.0
 40
1.0
 40
1.0
 40
1.0
 40
1.0
 10
51.3073
 20
45.5757
 30
0.0
 10
51.3073
 20
46.1285
 30
0.0
 10
51.755
 20
46.5748
 30
0.0
 10
52.3074
 20
46.5748
 30
0.0
  0
LINE
  5
32d
100
AcDbEntity
  8
0
100
AcDbLine
 62
     253
 10
55.3074
 20
46.5748
 30
0.0
 11
52.3074
 21
46.5748
 31
0.0
  0
SPLINE
  5
32e
100
AcDbEntity
  8
0
100
AcDbSpline
210
0.0
220
0.0
230
1.0
 62
     253
 70
     0
 71
     3
 72
     8
 73
4
 40
0.0
 40
0.0
 40
0.0
 40
0.0
 40
1.0
 40
1.0
 40
1.0
 40
1.0
 10
55.3074
 20
46.5748
 30
0.0
 10
55.8588
 20
46.5748
 30
0.0
 10
56.3065
 20
46.1285
 30
0.0
 10
56.3065
 20
45.5757
 30
0.0
  0
SPLINE
  5
32f
100
AcDbEntity
  8
0
100
AcDbSpline
210
0.0
220
0.0
230
1.0
 62
     253
 70
     0
 71
     3
 72
     8
 73
4
 40
0.0
 40
0.0
 40
0.0
 40
0.0
 40
1.0
 40
1.0
 40
1.0
 40
1.0
 10
56.3065
 20
45.5757
 30
0.0
 10
56.3065
 20
45.0247
 30
0.0
 10
55.8588
 20
44.5752
 30
0.0
 10
55.3074
 20
44.5752
 30
0.0
  0
LINE
  5
330
100
AcDbEntity
  8
0
100
AcDbLine
 62
     253
 10
55.3074
 20
44.5752
 30
0.0
 11
52.3074
 21
44.5752
 31
0.0
  0
LINE
  5
331
100
AcDbEntity
  8
0
100
AcDbLine
 62
     253
 10
40.3077
 20
44.5752
 30
0.0
 11
37.3077
 21
44.5752
 31
0.0
  0
SPLINE
  5
332
100
AcDbEntity
  8
0
100
AcDbSpline
210
0.0
220
0.0
230
1.0
 62
     253
 70
     0
 71
     3
 72
     8
 73
4
 40
0.0
 40
0.0
 40
0.0
 40
0.0
 40
1.0
 40
1.0
 40
1.0
 40
1.0
 10
37.3077
 20
44.5752
 30
0.0
 10
36.7552
 20
44.5752
 30
0.0
 10
36.3072
 20
45.0247
 30
0.0
 10
36.3072
 20
45.5757
 30
0.0
  0
SPLINE
  5
333
100
AcDbEntity
  8
0
100
AcDbSpline
210
0.0
220
0.0
230
1.0
 62
     253
 70
     0
 71
     3
 72
     8
 73
4
 40
0.0
 40
0.0
 40
0.0
 40
0.0
 40
1.0
 40
1.0
 40
1.0
 40
1.0
 10
36.3072
 20
45.5757
 30
0.0
 10
36.3072
 20
46.1285
 30
0.0
 10
36.7552
 20
46.5748
 30
0.0
 10
37.3077
 20
46.5748
 30
0.0
  0
LINE
  5
334
100
AcDbEntity
  8
0
100
AcDbLine
 62
     253
 10
40.3077
 20
46.5748
 30
0.0
 11
37.3077
 21
46.5748
 31
0.0
  0
SPLINE
  5
335
100
AcDbEntity
  8
0
100
AcDbSpline
210
0.0
220
0.0
230
1.0
 62
     253
 70
     0
 71
     3
 72
     8
 73
4
 40
0.0
 40
0.0
 40
0.0
 40
0.0
 40
1.0
 40
1.0
 40
1.0
 40
1.0
 10
40.3077
 20
46.5748
 30
0.0
 10
40.8587
 20
46.5748
 30
0.0
 10
41.3067
 20
46.1285
 30
0.0
 10
41.3067
 20
45.5757
 30
0.0
  0
SPLINE
  5
336
100
AcDbEntity
  8
0
100
AcDbSpline
210
0.0
220
0.0
230
1.0
 62
     253
 70
     0
 71
     3
 72
     8
 73
4
 40
0.0
 40
0.0
 40
0.0
 40
0.0
 40
1.0
 40
1.0
 40
1.0
 40
1.0
 10
41.3067
 20
45.5757
 30
0.0
 10
41.3067
 20
45.0247
 30
0.0
 10
40.8587
 20
44.5752
 30
0.0
 10
40.3077
 20
44.5752
 30
0.0
  0
SPLINE
  5
337
100
AcDbEntity
  8
0
100
AcDbSpline
210
0.0
220
0.0
230
1.0
 62
     253
 70
     0
 71
     3
 72
     8
 73
4
 40
0.0
 40
0.0
 40
0.0
 40
0.0
 40
1.0
 40
1.0
 40
1.0
 40
1.0
 10
55.3074
 20
71.5754
 30
0.0
 10
55.8588
 20
71.5754
 30
0.0
 10
56.3065
 20
71.1288
 30
0.0
 10
56.3065
 20
70.575
 30
0.0
  0
SPLINE
  5
338
100
AcDbEntity
  8
0
100
AcDbSpline
210
0.0
220
0.0
230
1.0
 62
     253
 70
     0
 71
     3
 72
     8
 73
4
 40
0.0
 40
0.0
 40
0.0
 40
0.0
 40
1.0
 40
1.0
 40
1.0
 40
1.0
 10
56.3065
 20
70.575
 30
0.0
 10
56.3065
 20
70.025
 30
0.0
 10
55.8588
 20
69.5759
 30
0.0
 10
55.3074
 20
69.5759
 30
0.0
  0
LINE
  5
339
100
AcDbEntity
  8
0
100
AcDbLine
 62
     253
 10
55.3074
 20
69.5759
 30
0.0
 11
52.3074
 21
69.5759
 31
0.0
  0
SPLINE
  5
33a
100
AcDbEntity
  8
0
100
AcDbSpline
210
0.0
220
0.0
230
1.0
 62
     253
 70
     0
 71
     3
 72
     8
 73
4
 40
0.0
 40
0.0
 40
0.0
 40
0.0
 40
1.0
 40
1.0
 40
1.0
 40
1.0
 10
52.3074
 20
69.5759
 30
0.0
 10
51.755
 20
69.5759
 30
0.0
 10
51.3073
 20
70.025
 30
0.0
 10
51.3073
 20
70.575
 30
0.0
  0
SPLINE
  5
33b
100
AcDbEntity
  8
0
100
AcDbSpline
210
0.0
220
0.0
230
1.0
 62
     253
 70
     0
 71
     3
 72
     8
 73
4
 40
0.0
 40
0.0
 40
0.0
 40
0.0
 40
1.0
 40
1.0
 40
1.0
 40
1.0
 10
51.3073
 20
70.575
 30
0.0
 10
51.3073
 20
71.1288
 30
0.0
 10
51.755
 20
71.5754
 30
0.0
 10
52.3074
 20
71.5754
 30
0.0
  0
LINE
  5
33c
100
AcDbEntity
  8
0
100
AcDbLine
 62
     253
 10
55.3074
 20
71.5754
 30
0.0
 11
52.3074
 21
71.5754
 31
0.0
  0
SPLINE
  5
33d
100
AcDbEntity
  8
0
100
AcDbSpline
210
0.0
220
0.0
230
1.0
 62
     253
 70
     0
 71
     3
 72
     8
 73
4
 40
0.0
 40
0.0
 40
0.0
 40
0.0
 40
1.0
 40
1.0
 40
1.0
 40
1.0
 10
37.3077
 20
69.5759
 30
0.0
 10
36.7552
 20
69.5759
 30
0.0
 10
36.3072
 20
70.025
 30
0.0
 10
36.3072
 20
70.575
 30
0.0
  0
SPLINE
  5
33e
100
AcDbEntity
  8
0
100
AcDbSpline
210
0.0
220
0.0
230
1.0
 62
     253
 70
     0
 71
     3
 72
     8
 73
4
 40
0.0
 40
0.0
 40
0.0
 40
0.0
 40
1.0
 40
1.0
 40
1.0
 40
1.0
 10
36.3072
 20
70.575
 30
0.0
 10
36.3072
 20
71.1288
 30
0.0
 10
36.7552
 20
71.5754
 30
0.0
 10
37.3077
 20
71.5754
 30
0.0
  0
LINE
  5
33f
100
AcDbEntity
  8
0
100
AcDbLine
 62
     253
 10
40.3077
 20
71.5754
 30
0.0
 11
37.3077
 21
71.5754
 31
0.0
  0
SPLINE
  5
340
100
AcDbEntity
  8
0
100
AcDbSpline
210
0.0
220
0.0
230
1.0
 62
     253
 70
     0
 71
     3
 72
     8
 73
4
 40
0.0
 40
0.0
 40
0.0
 40
0.0
 40
1.0
 40
1.0
 40
1.0
 40
1.0
 10
40.3077
 20
71.5754
 30
0.0
 10
40.8587
 20
71.5754
 30
0.0
 10
41.3067
 20
71.1288
 30
0.0
 10
41.3067
 20
70.575
 30
0.0
  0
SPLINE
  5
341
100
AcDbEntity
  8
0
100
AcDbSpline
210
0.0
220
0.0
230
1.0
 62
     253
 70
     0
 71
     3
 72
     8
 73
4
 40
0.0
 40
0.0
 40
0.0
 40
0.0
 40
1.0
 40
1.0
 40
1.0
 40
1.0
 10
41.3067
 20
70.575
 30
0.0
 10
41.3067
 20
70.025
 30
0.0
 10
40.8587
 20
69.5759
 30
0.0
 10
40.3077
 20
69.5759
 30
0.0
  0
LINE
  5
342
100
AcDbEntity
  8
0
100
AcDbLine
 62
     253
 10
40.3077
 20
69.5759
 30
0.0
 11
37.3077
 21
69.5759
 31
0.0
  0
LINE
  5
343
100
AcDbEntity
  8
0
100
AcDbLine
 62
     253
 10
68.8068
 20
71.5754
 30
0.0
 11
68.8068
 21
72.5759
 31
0.0
  0
LINE
  5
344
100
AcDbEntity
  8
0
100
AcDbLine
 62
     253
 10
68.8068
 20
72.5759
 30
0.0
 11
68.8068
 21
70.575
 31
0.0
  0
LINE
  5
345
100
AcDbEntity
  8
0
100
AcDbLine
 62
     253
 10
68.8068
 20
70.575
 30
0.0
 11
68.8068
 21
71.5754
 31
0.0
  0
LINE
  5
346
100
AcDbEntity
  8
0
100
AcDbLine
 62
     253
 10
68.8068
 20
71.5754
 30
0.0
 11
68.8068
 21
72.5759
 31
0.0
  0
LINE
  5
347
100
AcDbEntity
  8
0
100
AcDbLine
 62
     253
 10
68.8068
 20
72.5759
 30
0.0
 11
68.8068
 21
70.575
 31
0.0
  0
LINE
  5
348
100
AcDbEntity
  8
0
100
AcDbLine
 62
     253
 10
68.8068
 20
70.575
 30
0.0
 11
68.8068
 21
71.5754
 31
0.0
  0
LINE
  5
349
100
AcDbEntity
  8
0
100
AcDbLine
 62
     253
 10
68.8068
 20
41.5756
 30
0.0
 11
68.8068
 21
74.5755
 31
0.0
  0
LINE
  5
34a
100
AcDbEntity
  8
0
100
AcDbLine
 62
     253
 10
70.8078
 20
70.575
 30
0.0
 11
68.8068
 21
70.575
 31
0.0
  0
LINE
  5
34b
100
AcDbEntity
  8
0
100
AcDbLine
 62
     253
 10
70.8078
 20
72.5759
 30
0.0
 11
68.8068
 21
72.5759
 31
0.0
  0
LINE
  5
34c
100
AcDbEntity
  8
0
100
AcDbLine
 62
     253
 10
70.8078
 20
70.575
 30
0.0
 11
68.8068
 21
70.575
 31
0.0
  0
LINE
  5
34d
100
AcDbEntity
  8
0
100
AcDbLine
 62
     253
 10
70.8078
 20
72.5759
 30
0.0
 11
68.8068
 21
72.5759
 31
0.0
  0
LINE
  5
34e
100
AcDbEntity
  8
0
100
AcDbLine
 62
     253
 10
70.8078
 20
20.0753
 30
0.0
 11
70.8078
 21
1.07625
 31
0.0
  0
LINE
  5
34f
100
AcDbEntity
  8
0
100
AcDbLine
 62
     253
 10
70.8078
 20
1.07625
 30
0.0
 11
70.8078
 21
0.0771701
 31
0.0
  0
LINE
  5
350
100
AcDbEntity
  8
0
100
AcDbLine
 62
     253
 10
70.8078
 20
3.07578
 30
0.0
 11
70.8078
 21
5.07531
 31
0.0
  0
LINE
  5
351
100
AcDbEntity
  8
0
100
AcDbLine
 62
     253
 10
70.8078
 20
5.07531
 30
0.0
 11
70.8078
 21
3.07578
 31
0.0
  0
LINE
  5
352
100
AcDbEntity
  8
0
100
AcDbLine
 62
     253
 10
70.8078
 20
13.0748
 30
0.0
 11
70.8078
 21
15.0757
 31
0.0
  0
LINE
  5
353
100
AcDbEntity
  8
0
100
AcDbLine
 62
     253
 10
70.8078
 20
15.0757
 30
0.0
 11
70.8078
 21
13.0748
 31
0.0
  0
LINE
  5
354
100
AcDbEntity
  8
0
100
AcDbLine
 62
     253
 10
33.8074
 20
20.0753
 30
0.0
 11
70.8078
 21
20.0753
 31
0.0
  0
LINE
  5
355
100
AcDbEntity
  8
0
100
AcDbLine
 62
     253
 10
68.8068
 20
1.07625
 30
0.0
 11
68.8068
 21
18.0757
 31
0.0
  0
LINE
  5
356
100
AcDbEntity
  8
0
100
AcDbLine
 62
     253
 10
68.8068
 20
18.0757
 30
0.0
 11
33.8074
 21
18.0757
 31
0.0
  0
LINE
  5
357
100
AcDbEntity
  8
0
100
AcDbLine
 62
     253
 10
70.8078
 20
0.0771701
 30
0.0
 11
68.8068
 21
0.0771701
 31
0.0
  0
LINE
  5
358
100
AcDbEntity
  8
0
100
AcDbLine
 62
     253
 10
68.8068
 20
1.07625
 30
0.0
 11
68.8068
 21
0.0771701
 31
0.0
  0
LINE
  5
359
100
AcDbEntity
  8
0
100
AcDbLine
 62
     253
 10
33.8074
 20
20.0753
 30
0.0
 11
32.807
 21
20.0753
 31
0.0
  0
LINE
  5
35a
100
AcDbEntity
  8
0
100
AcDbLine
 62
     253
 10
52.3074
 20
20.0753
 30
0.0
 11
51.3073
 21
20.0753
 31
0.0
  0
LINE
  5
35b
100
AcDbEntity
  8
0
100
AcDbLine
 62
     253
 10
51.3073
 20
20.0753
 30
0.0
 11
52.3074
 21
20.0753
 31
0.0
  0
LINE
  5
35c
100
AcDbEntity
  8
0
100
AcDbLine
 62
     253
 10
55.3074
 20
20.0753
 30
0.0
 11
52.3074
 21
20.0753
 31
0.0
  0
LINE
  5
35d
100
AcDbEntity
  8
0
100
AcDbLine
 62
     253
 10
55.3074
 20
20.0753
 30
0.0
 11
56.3065
 21
20.0753
 31
0.0
  0
LINE
  5
35e
100
AcDbEntity
  8
0
100
AcDbLine
 62
     253
 10
56.3065
 20
20.0753
 30
0.0
 11
55.3074
 21
20.0753
 31
0.0
  0
LINE
  5
35f
100
AcDbEntity
  8
0
100
AcDbLine
 62
     253
 10
55.3074
 20
20.0753
 30
0.0
 11
52.3074
 21
20.0753
 31
0.0
  0
LINE
  5
360
100
AcDbEntity
  8
0
100
AcDbLine
 62
     253
 10
40.3077
 20
20.0753
 30
0.0
 11
37.3077
 21
20.0753
 31
0.0
  0
LINE
  5
361
100
AcDbEntity
  8
0
100
AcDbLine
 62
     253
 10
37.3077
 20
20.0753
 30
0.0
 11
36.3072
 21
20.0753
 31
0.0
  0
LINE
  5
362
100
AcDbEntity
  8
0
100
AcDbLine
 62
     253
 10
36.3072
 20
20.0753
 30
0.0
 11
37.3077
 21
20.0753
 31
0.0
  0
LINE
  5
363
100
AcDbEntity
  8
0
100
AcDbLine
 62
     253
 10
40.3077
 20
20.0753
 30
0.0
 11
37.3077
 21
20.0753
 31
0.0
  0
LINE
  5
364
100
AcDbEntity
  8
0
100
AcDbLine
 62
     253
 10
40.3077
 20
20.0753
 30
0.0
 11
41.3067
 21
20.0753
 31
0.0
  0
LINE
  5
365
100
AcDbEntity
  8
0
100
AcDbLine
 62
     253
 10
41.3067
 20
20.0753
 30
0.0
 11
40.3077
 21
20.0753
 31
0.0
  0
LINE
  5
366
100
AcDbEntity
  8
0
100
AcDbLine
 62
     253
 10
55.3074
 20
20.0753
 30
0.0
 11
56.3065
 21
20.0753
 31
0.0
  0
LINE
  5
367
100
AcDbEntity
  8
0
100
AcDbLine
 62
     253
 10
56.3065
 20
20.0753
 30
0.0
 11
55.3074
 21
20.0753
 31
0.0
  0
LINE
  5
368
100
AcDbEntity
  8
0
100
AcDbLine
 62
     253
 10
55.3074
 20
20.0753
 30
0.0
 11
52.3074
 21
20.0753
 31
0.0
  0
LINE
  5
369
100
AcDbEntity
  8
0
100
AcDbLine
 62
     253
 10
52.3074
 20
20.0753
 30
0.0
 11
51.3073
 21
20.0753
 31
0.0
  0
LINE
  5
36a
100
AcDbEntity
  8
0
100
AcDbLine
 62
     253
 10
51.3073
 20
20.0753
 30
0.0
 11
52.3074
 21
20.0753
 31
0.0
  0
LINE
  5
36b
100
AcDbEntity
  8
0
100
AcDbLine
 62
     253
 10
55.3074
 20
20.0753
 30
0.0
 11
52.3074
 21
20.0753
 31
0.0
  0
LINE
  5
36c
100
AcDbEntity
  8
0
100
AcDbLine
 62
     253
 10
37.3077
 20
20.0753
 30
0.0
 11
36.3072
 21
20.0753
 31
0.0
  0
LINE
  5
36d
100
AcDbEntity
  8
0
100
AcDbLine
 62
     253
 10
36.3072
 20
20.0753
 30
0.0
 11
37.3077
 21
20.0753
 31
0.0
  0
LINE
  5
36e
100
AcDbEntity
  8
0
100
AcDbLine
 62
     253
 10
40.3077
 20
20.0753
 30
0.0
 11
37.3077
 21
20.0753
 31
0.0
  0
LINE
  5
36f
100
AcDbEntity
  8
0
100
AcDbLine
 62
     253
 10
40.3077
 20
20.0753
 30
0.0
 11
41.3067
 21
20.0753
 31
0.0
  0
LINE
  5
370
100
AcDbEntity
  8
0
100
AcDbLine
 62
     253
 10
41.3067
 20
20.0753
 30
0.0
 11
40.3077
 21
20.0753
 31
0.0
  0
LINE
  5
371
100
AcDbEntity
  8
0
100
AcDbLine
 62
     253
 10
40.3077
 20
20.0753
 30
0.0
 11
37.3077
 21
20.0753
 31
0.0
  0
LINE
  5
372
100
AcDbEntity
  8
0
100
AcDbLine
 62
     253
 10
68.8068
 20
3.07578
 30
0.0
 11
68.8068
 21
5.07531
 31
0.0
  0
LINE
  5
373
100
AcDbEntity
  8
0
100
AcDbLine
 62
     253
 10
68.8068
 20
5.07531
 30
0.0
 11
68.8068
 21
3.07578
 31
0.0
  0
LINE
  5
374
100
AcDbEntity
  8
0
100
AcDbLine
 62
     253
 10
68.8068
 20
3.07578
 30
0.0
 11
70.8078
 21
3.07578
 31
0.0
  0
LINE
  5
375
100
AcDbEntity
  8
0
100
AcDbLine
 62
     253
 10
68.8068
 20
13.0748
 30
0.0
 11
68.8068
 21
15.0757
 31
0.0
  0
LINE
  5
376
100
AcDbEntity
  8
0
100
AcDbLine
 62
     253
 10
68.8068
 20
15.0757
 30
0.0
 11
68.8068
 21
13.0748
 31
0.0
  0
LINE
  5
377
100
AcDbEntity
  8
0
100
AcDbLine
 62
     253
 10
68.8068
 20
13.0748
 30
0.0
 11
70.8078
 21
13.0748
 31
0.0
  0
LINE
  5
378
100
AcDbEntity
  8
0
100
AcDbLine
 62
     253
 10
33.8074
 20
18.0757
 30
0.0
 11
32.807
 21
18.0757
 31
0.0
  0
LINE
  5
379
100
AcDbEntity
  8
0
100
AcDbLine
 62
     253
 10
32.807
 20
18.0757
 30
0.0
 11
32.807
 21
20.0753
 31
0.0
  0
LINE
  5
37a
100
AcDbEntity
  8
0
100
AcDbLine
 62
     253
 10
37.3077
 20
18.0757
 30
0.0
 11
36.3072
 21
18.0757
 31
0.0
  0
LINE
  5
37b
100
AcDbEntity
  8
0
100
AcDbLine
 62
     253
 10
36.3072
 20
18.0757
 30
0.0
 11
37.3077
 21
18.0757
 31
0.0
  0
LINE
  5
37c
100
AcDbEntity
  8
0
100
AcDbLine
 62
     253
 10
37.3077
 20
18.0757
 30
0.0
 11
40.3077
 21
18.0757
 31
0.0
  0
LINE
  5
37d
100
AcDbEntity
  8
0
100
AcDbLine
 62
     253
 10
40.3077
 20
18.0757
 30
0.0
 11
41.3067
 21
18.0757
 31
0.0
  0
LINE
  5
37e
100
AcDbEntity
  8
0
100
AcDbLine
 62
     253
 10
41.3067
 20
18.0757
 30
0.0
 11
40.3077
 21
18.0757
 31
0.0
  0
LINE
  5
37f
100
AcDbEntity
  8
0
100
AcDbLine
 62
     253
 10
37.3077
 20
18.0757
 30
0.0
 11
40.3077
 21
18.0757
 31
0.0
  0
LINE
  5
380
100
AcDbEntity
  8
0
100
AcDbLine
 62
     253
 10
52.3074
 20
18.0757
 30
0.0
 11
51.3073
 21
18.0757
 31
0.0
  0
LINE
  5
381
100
AcDbEntity
  8
0
100
AcDbLine
 62
     253
 10
51.3073
 20
18.0757
 30
0.0
 11
52.3074
 21
18.0757
 31
0.0
  0
LINE
  5
382
100
AcDbEntity
  8
0
100
AcDbLine
 62
     253
 10
52.3074
 20
18.0757
 30
0.0
 11
55.3074
 21
18.0757
 31
0.0
  0
LINE
  5
383
100
AcDbEntity
  8
0
100
AcDbLine
 62
     253
 10
55.3074
 20
18.0757
 30
0.0
 11
56.3065
 21
18.0757
 31
0.0
  0
LINE
  5
384
100
AcDbEntity
  8
0
100
AcDbLine
 62
     253
 10
56.3065
 20
18.0757
 30
0.0
 11
55.3074
 21
18.0757
 31
0.0
  0
LINE
  5
385
100
AcDbEntity
  8
0
100
AcDbLine
 62
     253
 10
52.3074
 20
18.0757
 30
0.0
 11
55.3074
 21
18.0757
 31
0.0
  0
LINE
  5
386
100
AcDbEntity
  8
0
100
AcDbLine
 62
     253
 10
52.3074
 20
18.0757
 30
0.0
 11
55.3074
 21
18.0757
 31
0.0
  0
LINE
  5
387
100
AcDbEntity
  8
0
100
AcDbLine
 62
     253
 10
55.3074
 20
18.0757
 30
0.0
 11
56.3065
 21
18.0757
 31
0.0
  0
LINE
  5
388
100
AcDbEntity
  8
0
100
AcDbLine
 62
     253
 10
56.3065
 20
18.0757
 30
0.0
 11
55.3074
 21
18.0757
 31
0.0
  0
LINE
  5
389
100
AcDbEntity
  8
0
100
AcDbLine
 62
     253
 10
52.3074
 20
18.0757
 30
0.0
 11
55.3074
 21
18.0757
 31
0.0
  0
LINE
  5
38a
100
AcDbEntity
  8
0
100
AcDbLine
 62
     253
 10
52.3074
 20
18.0757
 30
0.0
 11
51.3073
 21
18.0757
 31
0.0
  0
LINE
  5
38b
100
AcDbEntity
  8
0
100
AcDbLine
 62
     253
 10
51.3073
 20
18.0757
 30
0.0
 11
52.3074
 21
18.0757
 31
0.0
  0
LINE
  5
38c
100
AcDbEntity
  8
0
100
AcDbLine
 62
     253
 10
37.3077
 20
18.0757
 30
0.0
 11
40.3077
 21
18.0757
 31
0.0
  0
LINE
  5
38d
100
AcDbEntity
  8
0
100
AcDbLine
 62
     253
 10
37.3077
 20
18.0757
 30
0.0
 11
36.3072
 21
18.0757
 31
0.0
  0
LINE
  5
38e
100
AcDbEntity
  8
0
100
AcDbLine
 62
     253
 10
36.3072
 20
18.0757
 30
0.0
 11
37.3077
 21
18.0757
 31
0.0
  0
LINE
  5
38f
100
AcDbEntity
  8
0
100
AcDbLine
 62
     253
 10
37.3077
 20
18.0757
 30
0.0
 11
40.3077
 21
18.0757
 31
0.0
  0
LINE
  5
390
100
AcDbEntity
  8
0
100
AcDbLine
 62
     253
 10
40.3077
 20
18.0757
 30
0.0
 11
41.3067
 21
18.0757
 31
0.0
  0
LINE
  5
391
100
AcDbEntity
  8
0
100
AcDbLine
 62
     253
 10
41.3067
 20
18.0757
 30
0.0
 11
40.3077
 21
18.0757
 31
0.0
  0
LINE
  5
392
100
AcDbEntity
  8
0
100
AcDbLine
 62
     253
 10
70.8078
 20
5.07531
 30
0.0
 11
68.8068
 21
5.07531
 31
0.0
  0
LINE
  5
393
100
AcDbEntity
  8
0
100
AcDbLine
 62
     253
 10
70.8078
 20
15.0757
 30
0.0
 11
68.8068
 21
15.0757
 31
0.0
  0
LINE
  5
394
100
AcDbEntity
  8
0
100
AcDbLine
 62
     253
 10
51.3073
 20
18.0757
 30
0.0
 11
51.3073
 21
20.0753
 31
0.0
  0
LINE
  5
395
100
AcDbEntity
  8
0
100
AcDbLine
 62
     253
 10
56.3065
 20
18.0757
 30
0.0
 11
56.3065
 21
20.0753
 31
0.0
  0
LINE
  5
396
100
AcDbEntity
  8
0
100
AcDbLine
 62
     253
 10
36.3072
 20
18.0757
 30
0.0
 11
36.3072
 21
20.0753
 31
0.0
  0
LINE
  5
397
100
AcDbEntity
  8
0
100
AcDbLine
 62
     253
 10
41.3067
 20
18.0757
 30
0.0
 11
41.3067
 21
20.0753
 31
0.0
  0
LINE
  5
398
100
AcDbEntity
  8
0
100
AcDbLine
 62
     253
 10
56.3065
 20
18.0757
 30
0.0
 11
56.3065
 21
20.0753
 31
0.0
  0
LINE
  5
399
100
AcDbEntity
  8
0
100
AcDbLine
 62
     253
 10
51.3073
 20
18.0757
 30
0.0
 11
51.3073
 21
20.0753
 31
0.0
  0
LINE
  5
39a
100
AcDbEntity
  8
0
100
AcDbLine
 62
     253
 10
36.3072
 20
18.0757
 30
0.0
 11
36.3072
 21
20.0753
 31
0.0
  0
LINE
  5
39b
100
AcDbEntity
  8
0
100
AcDbLine
 62
     253
 10
41.3067
 20
18.0757
 30
0.0
 11
41.3067
 21
20.0753
 31
0.0
  0
LINE
  5
39c
100
AcDbEntity
  8
0
100
AcDbLine
 62
     253
 10
94.8076
 20
41.5756
 30
0.0
 11
113.807
 21
41.5756
 31
0.0
  0
SPLINE
  5
39d
100
AcDbEntity
  8
0
100
AcDbSpline
210
0.0
220
0.0
230
1.0
 62
     253
 70
     0
 71
     3
 72
     8
 73
4
 40
0.0
 40
0.0
 40
0.0
 40
0.0
 40
1.0
 40
1.0
 40
1.0
 40
1.0
 10
113.807
 20
41.5756
 30
0.0
 10
114.359
 20
41.5756
 30
0.0
 10
114.807
 20
42.0247
 30
0.0
 10
114.807
 20
42.576
 30
0.0
  0
LINE
  5
39e
100
AcDbEntity
  8
0
100
AcDbLine
 62
     253
 10
94.8076
 20
41.5756
 30
0.0
 11
94.8076
 21
74.5755
 31
0.0
  0
LINE
  5
39f
100
AcDbEntity
  8
0
100
AcDbLine
 62
     253
 10
114.807
 20
42.576
 30
0.0
 11
114.807
 21
73.575
 31
0.0
  0
LINE
  5
3a0
100
AcDbEntity
  8
0
100
AcDbLine
 62
     253
 10
94.8076
 20
74.5755
 30
0.0
 11
113.807
 21
74.5755
 31
0.0
  0
SPLINE
  5
3a1
100
AcDbEntity
  8
0
100
AcDbSpline
210
0.0
220
0.0
230
1.0
 62
     253
 70
     0
 71
     3
 72
     8
 73
4
 40
0.0
 40
0.0
 40
0.0
 40
0.0
 40
1.0
 40
1.0
 40
1.0
 40
1.0
 10
113.807
 20
74.5755
 30
0.0
 10
114.359
 20
74.5755
 30
0.0
 10
114.807
 20
74.1288
 30
0.0
 10
114.807
 20
73.575
 30
0.0
  0
SPLINE
  5
3a2
100
AcDbEntity
  8
0
100
AcDbSpline
210
0.0
220
0.0
230
1.0
 62
     253
 70
     0
 71
     3
 72
     8
 73
4
 40
0.0
 40
0.0
 40
0.0
 40
0.0
 40
1.0
 40
1.0
 40
1.0
 40
1.0
 10
111.807
 20
71.5754
 30
0.0
 10
111.807
 20
71.0226
 30
0.0
 10
111.359
 20
70.575
 30
0.0
 10
110.807
 20
70.575
 30
0.0
  0
SPLINE
  5
3a3
100
AcDbEntity
  8
0
100
AcDbSpline
210
0.0
220
0.0
230
1.0
 62
     253
 70
     0
 71
     3
 72
     8
 73
4
 40
0.0
 40
0.0
 40
0.0
 40
0.0
 40
1.0
 40
1.0
 40
1.0
 40
1.0
 10
110.807
 20
70.575
 30
0.0
 10
110.255
 20
70.575
 30
0.0
 10
109.808
 20
71.0226
 30
0.0
 10
109.808
 20
71.5754
 30
0.0
  0
SPLINE
  5
3a4
100
AcDbEntity
  8
0
100
AcDbSpline
210
0.0
220
0.0
230
1.0
 62
     253
 70
     0
 71
     3
 72
     8
 73
4
 40
0.0
 40
0.0
 40
0.0
 40
0.0
 40
1.0
 40
1.0
 40
1.0
 40
1.0
 10
109.808
 20
71.5754
 30
0.0
 10
109.808
 20
72.1293
 30
0.0
 10
110.255
 20
72.5759
 30
0.0
 10
110.807
 20
72.5759
 30
0.0
  0
SPLINE
  5
3a5
100
AcDbEntity
  8
0
100
AcDbSpline
210
0.0
220
0.0
230
1.0
 62
     253
 70
     0
 71
     3
 72
     8
 73
4
 40
0.0
 40
0.0
 40
0.0
 40
0.0
 40
1.0
 40
1.0
 40
1.0
 40
1.0
 10
110.807
 20
72.5759
 30
0.0
 10
111.359
 20
72.5759
 30
0.0
 10
111.807
 20
72.1293
 30
0.0
 10
111.807
 20
71.5754
 30
0.0
  0
SPLINE
  5
3a6
100
AcDbEntity
  8
0
100
AcDbSpline
210
0.0
220
0.0
230
1.0
 62
     253
 70
     0
 71
     3
 72
     8
 73
4
 40
0.0
 40
0.0
 40
0.0
 40
0.0
 40
1.0
 40
1.0
 40
1.0
 40
1.0
 10
101.807
 20
71.5754
 30
0.0
 10
101.807
 20
71.0226
 30
0.0
 10
101.359
 20
70.575
 30
0.0
 10
100.808
 20
70.575
 30
0.0
  0
SPLINE
  5
3a7
100
AcDbEntity
  8
0
100
AcDbSpline
210
0.0
220
0.0
230
1.0
 62
     253
 70
     0
 71
     3
 72
     8
 73
4
 40
0.0
 40
0.0
 40
0.0
 40
0.0
 40
1.0
 40
1.0
 40
1.0
 40
1.0
 10
100.808
 20
70.575
 30
0.0
 10
100.255
 20
70.575
 30
0.0
 10
99.8072
 20
71.0226
 30
0.0
 10
99.8072
 20
71.5754
 30
0.0
  0
SPLINE
  5
3a8
100
AcDbEntity
  8
0
100
AcDbSpline
210
0.0
220
0.0
230
1.0
 62
     253
 70
     0
 71
     3
 72
     8
 73
4
 40
0.0
 40
0.0
 40
0.0
 40
0.0
 40
1.0
 40
1.0
 40
1.0
 40
1.0
 10
99.8072
 20
71.5754
 30
0.0
 10
99.8072
 20
72.1293
 30
0.0
 10
100.255
 20
72.5759
 30
0.0
 10
100.808
 20
72.5759
 30
0.0
  0
SPLINE
  5
3a9
100
AcDbEntity
  8
0
100
AcDbSpline
210
0.0
220
0.0
230
1.0
 62
     253
 70
     0
 71
     3
 72
     8
 73
4
 40
0.0
 40
0.0
 40
0.0
 40
0.0
 40
1.0
 40
1.0
 40
1.0
 40
1.0
 10
100.808
 20
72.5759
 30
0.0
 10
101.359
 20
72.5759
 30
0.0
 10
101.807
 20
72.1293
 30
0.0
 10
101.807
 20
71.5754
 30
0.0
  0
LINE
  5
3aa
100
AcDbEntity
  8
0
100
AcDbLine
 62
     253
 10
94.8076
 20
44.5752
 30
0.0
 11
94.8076
 21
46.5748
 31
0.0
  0
LINE
  5
3ab
100
AcDbEntity
  8
0
100
AcDbLine
 62
     253
 10
94.8076
 20
46.5748
 30
0.0
 11
94.8076
 21
44.5752
 31
0.0
  0
LINE
  5
3ac
100
AcDbEntity
  8
0
100
AcDbLine
 62
     253
 10
94.8076
 20
44.5752
 30
0.0
 11
94.8076
 21
46.5748
 31
0.0
  0
LINE
  5
3ad
100
AcDbEntity
  8
0
100
AcDbLine
 62
     253
 10
94.8076
 20
46.5748
 30
0.0
 11
94.8076
 21
44.5752
 31
0.0
  0
LINE
  5
3ae
100
AcDbEntity
  8
0
100
AcDbLine
 62
     253
 10
94.8076
 20
71.5754
 30
0.0
 11
94.8076
 21
69.5759
 31
0.0
  0
LINE
  5
3af
100
AcDbEntity
  8
0
100
AcDbLine
 62
     253
 10
94.8076
 20
69.5759
 30
0.0
 11
94.8076
 21
71.5754
 31
0.0
  0
LINE
  5
3b0
100
AcDbEntity
  8
0
100
AcDbLine
 62
     253
 10
94.8076
 20
69.5759
 30
0.0
 11
94.8076
 21
71.5754
 31
0.0
  0
LINE
  5
3b1
100
AcDbEntity
  8
0
100
AcDbLine
 62
     253
 10
94.8076
 20
71.5754
 30
0.0
 11
94.8076
 21
69.5759
 31
0.0
  0
LINE
  5
3b2
100
AcDbEntity
  8
0
100
AcDbLine
 62
     253
 10
96.8072
 20
41.5756
 30
0.0
 11
96.8072
 21
74.5755
 31
0.0
  0
LINE
  5
3b3
100
AcDbEntity
  8
0
100
AcDbLine
 62
     253
 10
96.8072
 20
44.5752
 30
0.0
 11
96.8072
 21
46.5748
 31
0.0
  0
LINE
  5
3b4
100
AcDbEntity
  8
0
100
AcDbLine
 62
     253
 10
96.8072
 20
46.5748
 30
0.0
 11
96.8072
 21
44.5752
 31
0.0
  0
LINE
  5
3b5
100
AcDbEntity
  8
0
100
AcDbLine
 62
     253
 10
96.8072
 20
44.5752
 30
0.0
 11
96.8072
 21
46.5748
 31
0.0
  0
LINE
  5
3b6
100
AcDbEntity
  8
0
100
AcDbLine
 62
     253
 10
96.8072
 20
46.5748
 30
0.0
 11
96.8072
 21
44.5752
 31
0.0
  0
LINE
  5
3b7
100
AcDbEntity
  8
0
100
AcDbLine
 62
     253
 10
96.8072
 20
71.5754
 30
0.0
 11
96.8072
 21
69.5759
 31
0.0
  0
LINE
  5
3b8
100
AcDbEntity
  8
0
100
AcDbLine
 62
     253
 10
96.8072
 20
69.5759
 30
0.0
 11
96.8072
 21
71.5754
 31
0.0
  0
LINE
  5
3b9
100
AcDbEntity
  8
0
100
AcDbLine
 62
     253
 10
96.8072
 20
69.5759
 30
0.0
 11
96.8072
 21
71.5754
 31
0.0
  0
LINE
  5
3ba
100
AcDbEntity
  8
0
100
AcDbLine
 62
     253
 10
96.8072
 20
71.5754
 30
0.0
 11
96.8072
 21
69.5759
 31
0.0
  0
LINE
  5
3bb
100
AcDbEntity
  8
0
100
AcDbLine
 62
     253
 10
94.8076
 20
46.5748
 30
0.0
 11
96.8072
 21
46.5748
 31
0.0
  0
LINE
  5
3bc
100
AcDbEntity
  8
0
100
AcDbLine
 62
     253
 10
94.8076
 20
44.5752
 30
0.0
 11
96.8072
 21
44.5752
 31
0.0
  0
LINE
  5
3bd
100
AcDbEntity
  8
0
100
AcDbLine
 62
     253
 10
94.8076
 20
46.5748
 30
0.0
 11
96.8072
 21
46.5748
 31
0.0
  0
LINE
  5
3be
100
AcDbEntity
  8
0
100
AcDbLine
 62
     253
 10
94.8076
 20
44.5752
 30
0.0
 11
96.8072
 21
44.5752
 31
0.0
  0
LINE
  5
3bf
100
AcDbEntity
  8
0
100
AcDbLine
 62
     253
 10
94.8076
 20
44.5752
 30
0.0
 11
96.8072
 21
44.5752
 31
0.0
  0
LINE
  5
3c0
100
AcDbEntity
  8
0
100
AcDbLine
 62
     253
 10
94.8076
 20
44.5752
 30
0.0
 11
96.8072
 21
44.5752
 31
0.0
  0
LINE
  5
3c1
100
AcDbEntity
  8
0
100
AcDbLine
 62
     253
 10
94.8076
 20
46.5748
 30
0.0
 11
96.8072
 21
46.5748
 31
0.0
  0
LINE
  5
3c2
100
AcDbEntity
  8
0
100
AcDbLine
 62
     253
 10
94.8076
 20
46.5748
 30
0.0
 11
96.8072
 21
46.5748
 31
0.0
  0
LINE
  5
3c3
100
AcDbEntity
  8
0
100
AcDbLine
 62
     253
 10
94.8076
 20
69.5759
 30
0.0
 11
96.8072
 21
69.5759
 31
0.0
  0
LINE
  5
3c4
100
AcDbEntity
  8
0
100
AcDbLine
 62
     253
 10
94.8076
 20
71.5754
 30
0.0
 11
96.8072
 21
71.5754
 31
0.0
  0
LINE
  5
3c5
100
AcDbEntity
  8
0
100
AcDbLine
 62
     253
 10
94.8076
 20
69.5759
 30
0.0
 11
96.8072
 21
69.5759
 31
0.0
  0
LINE
  5
3c6
100
AcDbEntity
  8
0
100
AcDbLine
 62
     253
 10
94.8076
 20
71.5754
 30
0.0
 11
96.8072
 21
71.5754
 31
0.0
  0
LINE
  5
3c7
100
AcDbEntity
  8
0
100
AcDbLine
 62
     253
 10
94.8076
 20
71.5754
 30
0.0
 11
96.8072
 21
71.5754
 31
0.0
  0
LINE
  5
3c8
100
AcDbEntity
  8
0
100
AcDbLine
 62
     253
 10
94.8076
 20
69.5759
 30
0.0
 11
96.8072
 21
69.5759
 31
0.0
  0
LINE
  5
3c9
100
AcDbEntity
  8
0
100
AcDbLine
 62
     253
 10
94.8076
 20
71.5754
 30
0.0
 11
96.8072
 21
71.5754
 31
0.0
  0
LINE
  5
3ca
100
AcDbEntity
  8
0
100
AcDbLine
 62
     253
 10
94.8076
 20
69.5759
 30
0.0
 11
96.8072
 21
69.5759
 31
0.0
  0
ENDSEC
  0
SECTION
  2
OBJECTS
  0
DICTIONARY
  5
C
330
0
100
AcDbDictionary
  3
ACAD_GROUP
350
D
  3
ACAD_LAYOUT
350
1A
  3
ACAD_MLINESTYLE
350
17
  3
ACAD_PLOTSETTINGS
350
19
  3
ACAD_PLOTSTYLENAME
350
E
  3
ACDBHEADERROUNDTRIPXREC
350
2F
  0
DICTIONARY
  5
52
330
1F
100
AcDbDictionary
280
     1
  3
ACAD_LAYOUTSELFREF
360
53
  0
DICTIONARY
  5
50
330
1B
100
AcDbDictionary
280
     1
  3
ACAD_LAYOUTSELFREF
360
51
  0
DICTIONARY
  5
D
102
{ACAD_REACTORS
330
C
102
}
330
C
100
AcDbDictionary
  0
DICTIONARY
  5
1A
102
{ACAD_REACTORS
330
C
102
}
330
C
100
AcDbDictionary
  0
DICTIONARY
  5
17
102
{ACAD_REACTORS
330
C
102
}
330
C
100
AcDbDictionary
  3
STANDARD
350
18
  0
DICTIONARY
  5
19
102
{ACAD_REACTORS
330
C
102
}
330
C
100
AcDbDictionary
  0
ACDBDICTIONARYWDFLT
  5
E
102
{ACAD_REACTORS
330
C
102
}
330
C
100
AcDbDictionary
281
     1
  3
Normal
350
F
100
AcDbDictionaryWithDefault
340
F
  0
DICTIONARY
  5
2F
102
{ACAD_REACTORS
330
C
102
}
330
C
100
AcDbDictionary
  3
CEPSNTYPE
350
39
  3
DIMSTYLEDATA
350
3D
  3
FINGERPRINTGUID
350
3A
  3
HYPERLINKBASE
350
32
  3
INSUNITS
350
38
  3
LAYOUTDICT
350
34
  3
LWETCUNION
350
37
  3
PLOTSETDICT
350
35
  3
PLOTSTYLNAMDICT
350
36
  3
PSVPSCALE
350
3C
  3
PUCSBASE
350
40
  3
PUCSORGBACK
350
46
  3
PUCSORGBOTTOM
350
42
  3
PUCSORGFRONT
350
45
  3
PUCSORGLEFT
350
43
  3
PUCSORGRIGHT
350
44
  3
PUCSORGTOP
350
41
  3
PUCSORTHOREF
350
3E
  3
PUCSORTHOVIEW
350
3F
  3
STYLESHEET
350
33
  3
TSTACKALIGN
350
30
  3
TSTACKSIZE
350
31
  3
UCSBASE
350
49
  3
UCSORGBACK
350
4F
  3
UCSORGBOTTOM
350
4B
  3
UCSORGFRONT
350
4E
  3
UCSORGLEFT
350
4C
  3
UCSORGRIGHT
350
4D
  3
UCSORGTOP
350
4A
  3
UCSORTHOREF
350
47
  3
UCSORTHOVIEW
350
48
  3
VERSIONGUID
350
3B
  0
XRECORD
  5
53
102
{ACAD_REACTORS
330
52
102
}
330
52
100
AcDbXrecord
340
1F
  0
XRECORD
  5
51
102
{ACAD_REACTORS
330
50
102
}
330
50
100
AcDbXrecord
340
1B
  0
MLINESTYLE
  5
18
102
{ACAD_REACTORS
330
17
102
}
330
17
100
AcDbMlineStyle
  2
STANDARD
 70
     0
  3

 62
   256
 51
90.0
 52
90.0
 71
     2
 49
0.5
 62
   256
  6
BYLAYER
 49
-0.5
 62
   256
  6
BYLAYER
  0
ACDBPLACEHOLDER
  5
F
102
{ACAD_REACTORS
330
E
102
}
330
E
100
AcDbPlaceHolder
280
     0
  0
XRECORD
  5
39
102
{ACAD_REACTORS
330
2F
102
}
330
2F
100
AcDbXrecord
 90
        0
  0
XRECORD
  5
3D
102
{ACAD_REACTORS
330
2F
102
}
330
2F
100
AcDbXrecord
1000
DSTYLE
1002
{
1070
   278
 70
    44
1002
}
  0
XRECORD
  5
3A
102
{ACAD_REACTORS
330
2F
102
}
330
2F
100
AcDbXrecord
  1
{705446A6-11D0-4548-8F8C-A97DCA50327D}
  0
XRECORD
  5
32
102
{ACAD_REACTORS
330
2F
102
}
330
2F
100
AcDbXrecord
  1

  0
XRECORD
  5
38
102
{ACAD_REACTORS
330
2F
102
}
330
2F
100
AcDbXrecord
 90
        4
  0
XRECORD
  5
34
102
{ACAD_REACTORS
330
2F
102
}
330
2F
100
AcDbXrecord
340
1A
  0
XRECORD
  5
37
102
{ACAD_REACTORS
330
2F
102
}
330
2F
100
AcDbXrecord
 90
    10781
  0
XRECORD
  5
35
102
{ACAD_REACTORS
330
2F
102
}
330
2F
100
AcDbXrecord
340
19
  0
XRECORD
  5
36
102
{ACAD_REACTORS
330
2F
102
}
330
2F
100
AcDbXrecord
340
E
  0
XRECORD
  5
3C
102
{ACAD_REACTORS
330
2F
102
}
330
2F
100
AcDbXrecord
 40
0.0
  0
XRECORD
  5
40
102
{ACAD_REACTORS
330
2F
102
}
330
2F
100
AcDbXrecord
340
0
  0
XRECORD
  5
46
102
{ACAD_REACTORS
330
2F
102
}
330
2F
100
AcDbXrecord
 10
0.0
 20
0.0
 30
0.0
  0
XRECORD
  5
42
102
{ACAD_REACTORS
330
2F
102
}
330
2F
100
AcDbXrecord
 10
0.0
 20
0.0
 30
0.0
  0
XRECORD
  5
45
102
{ACAD_REACTORS
330
2F
102
}
330
2F
100
AcDbXrecord
 10
0.0
 20
0.0
 30
0.0
  0
XRECORD
  5
43
102
{ACAD_REACTORS
330
2F
102
}
330
2F
100
AcDbXrecord
 10
0.0
 20
0.0
 30
0.0
  0
XRECORD
  5
44
102
{ACAD_REACTORS
330
2F
102
}
330
2F
100
AcDbXrecord
 10
0.0
 20
0.0
 30
0.0
  0
XRECORD
  5
41
102
{ACAD_REACTORS
330
2F
102
}
330
2F
100
AcDbXrecord
 10
0.0
 20
0.0
 30
0.0
  0
XRECORD
  5
3E
102
{ACAD_REACTORS
330
2F
102
}
330
2F
100
AcDbXrecord
340
0
  0
XRECORD
  5
3F
102
{ACAD_REACTORS
330
2F
102
}
330
2F
100
AcDbXrecord
 70
     0
  0
XRECORD
  5
33
102
{ACAD_REACTORS
330
2F
102
}
330
2F
100
AcDbXrecord
  1

  0
XRECORD
  5
30
102
{ACAD_REACTORS
330
2F
102
}
330
2F
100
AcDbXrecord
 90
        1
  0
XRECORD
  5
31
102
{ACAD_REACTORS
330
2F
102
}
330
2F
100
AcDbXrecord
 90
       70
  0
XRECORD
  5
49
102
{ACAD_REACTORS
330
2F
102
}
330
2F
100
AcDbXrecord
340
0
  0
XRECORD
  5
4F
102
{ACAD_REACTORS
330
2F
102
}
330
2F
100
AcDbXrecord
 10
0.0
 20
0.0
 30
0.0
  0
XRECORD
  5
4B
102
{ACAD_REACTORS
330
2F
102
}
330
2F
100
AcDbXrecord
 10
0.0
 20
0.0
 30
0.0
  0
XRECORD
  5
4E
102
{ACAD_REACTORS
330
2F
102
}
330
2F
100
AcDbXrecord
 10
0.0
 20
0.0
 30
0.0
  0
XRECORD
  5
4C
102
{ACAD_REACTORS
330
2F
102
}
330
2F
100
AcDbXrecord
 10
0.0
 20
0.0
 30
0.0
  0
XRECORD
  5
4D
102
{ACAD_REACTORS
330
2F
102
}
330
2F
100
AcDbXrecord
 10
0.0
 20
0.0
 30
0.0
  0
XRECORD
  5
4A
102
{ACAD_REACTORS
330
2F
102
}
330
2F
100
AcDbXrecord
 10
0.0
 20
0.0
 30
0.0
  0
XRECORD
  5
47
102
{ACAD_REACTORS
330
2F
102
}
330
2F
100
AcDbXrecord
340
0
  0
XRECORD
  5
48
102
{ACAD_REACTORS
330
2F
102
}
330
2F
100
AcDbXrecord
 70
     0
  0
XRECORD
  5
3B
102
{ACAD_REACTORS
330
2F
102
}
330
2F
100
AcDbXrecord
  1
{33328E3A-B6B8-4979-86B7-D70DEC2867C2}
  0
ENDSEC
  0
EOF
