  0
SECTION
  2
HEADER
  9
$ACADVER
  1
AC1014
  9
$EXTMIN
 10
70.16401489310567
 20
112.369642808922
 30
0.0
  9
$EXTMAX
 10
277.0834797641999
 20
227.1366601424358
 30
0.0
  9
$HANDSEED
  5
56
  9
$MEASUREMENT
 70
1
  0
ENDSEC
  0
SECTION
  2
TABLES
  0
TABLE
  2
VPORT
  5
8
330
0
100
AcDbSymbolTable
 70
     4
  0
VPORT
  5
2E
330
8
100
AcDbSymbolTableRecord
100
AcDbViewportTableRecord
  2
*ACTIVE
 70
     0
 10
0.0
 20
0.0
 11
1.0
 21
1.0
 12
209.9999999999999
 22
148.4999999999999
 13
0.0
 23
0.0
 14
10.0
 24
10.0
 15
10.0
 25
10.0
 16
0.0
 26
0.0
 36
1.0
 17
0.0
 27
0.0
 37
0.0
 40
340.9950045922664
 41
1.239944521497919
 42
50.0
 43
0.0
 44
0.0
 50
0.0
 51
0.0
 71
     0
 72
   100
 73
     1
 74
     3
 75
     0
 76
     0
 77
     0
 78
     0
  0
ENDTAB
  0
TABLE
  2
LTYPE
  5
5
330
0
100
AcDbSymbolTable
 70
     1
  0
LTYPE
  5
14
330
5
100
AcDbSymbolTableRecord
100
AcDbLinetypeTableRecord
  2
BYBLOCK
 70
     0
  3

 72
    65
 73
     0
 40
0.0
  0
LTYPE
  5
15
330
5
100
AcDbSymbolTableRecord
100
AcDbLinetypeTableRecord
  2
BYLAYER
 70
     0
  3

 72
    65
 73
     0
 40
0.0
  0
LTYPE
  5
16
330
5
100
AcDbSymbolTableRecord
100
AcDbLinetypeTableRecord
  2
CONTINUOUS
 70
     0
  3
Solid line
 72
    65
 73
     0
 40
0.0
  0
ENDTAB
  0
TABLE
  2
LAYER
  5
2
330
0
100
AcDbSymbolTable
 70
1
  0
LAYER
  5
10
330
2
100
AcDbSymbolTableRecord
100
AcDbLayerTableRecord
  2
0
 70
     0
 62
     7
  6
CONTINUOUS
  0
ENDTAB
  0
TABLE
  2
STYLE
  5
3
330
0
100
AcDbSymbolTable
 70
     1
  0
STYLE
  5
11
330
3
100
AcDbSymbolTableRecord
100
AcDbTextStyleTableRecord
  2
STANDARD
 70
     0
 40
0.0
 41
1.0
 50
0.0
 71
     0
 42
2.5
  3
txt
  4

  0
ENDTAB
  0
TABLE
  2
VIEW
  5
6
330
0
100
AcDbSymbolTable
 70
     0
  0
ENDTAB
  0
TABLE
  2
UCS
  5
7
330
0
100
AcDbSymbolTable
 70
     0
  0
ENDTAB
  0
TABLE
  2
APPID
  5
9
330
0
100
AcDbSymbolTable
 70
     2
  0
APPID
  5
12
330
9
100
AcDbSymbolTableRecord
100
AcDbRegAppTableRecord
  2
ACAD
 70
     0
  0
APPID
  5
2B
330
9
100
AcDbSymbolTableRecord
100
AcDbRegAppTableRecord
  2
URBANX
 70
     0
  0
ENDTAB
  0
TABLE
  2
DIMSTYLE
  5
A
330
0
100
AcDbSymbolTable
 70
     1
  0
DIMSTYLE
105
27
330
A
100
AcDbSymbolTableRecord
100
AcDbDimStyleTableRecord
  2
ISO-25
 70
     0
  3

  4

  5

  6

  7

 40
1.0
 41
2.5
 42
0.625
 43
3.75
 44
1.25
 45
0.0
 46
0.0
 47
0.0
 48
0.0
140
2.5
141
2.5
142
0.0
143
0.03937007874016
144
1.0
145
0.0
146
1.0
147
0.625
 71
     0
 72
     0
 73
     0
 74
     0
 75
     0
 76
     0
 77
     1
 78
     8
170
     0
171
     3
172
     1
173
     0
174
     0
175
     0
176
     0
177
     0
178
     0
270
     2
271
     2
272
     2
273
     2
274
     3
340
11
275
     0
280
     0
281
     0
282
     0
283
     0
284
     8
285
     0
286
     0
287
     3
288
     0
  0
ENDTAB
  0
TABLE
  2
BLOCK_RECORD
  5
1
330
0
100
AcDbSymbolTable
 70
     1
  0
BLOCK_RECORD
  5
1F
102
{ACAD_XDICTIONARY
360
52
102
}
330
1
100
AcDbSymbolTableRecord
100
AcDbBlockTableRecord
  2
*MODEL_SPACE
  0
BLOCK_RECORD
  5
1B
102
{ACAD_XDICTIONARY
360
50
102
}
330
1
100
AcDbSymbolTableRecord
100
AcDbBlockTableRecord
  2
*PAPER_SPACE
  0
ENDTAB
  0
ENDSEC
  0
SECTION
  2
BLOCKS
  0
BLOCK
  5
20
330
1F
100
AcDbEntity
  8
0
100
AcDbBlockBegin
  2
*MODEL_SPACE
 70
     0
 10
0.0
 20
0.0
 30
0.0
  3
*MODEL_SPACE
  1

  0
ENDBLK
  5
21
330
1F
100
AcDbEntity
  8
0
100
AcDbBlockEnd
  0
BLOCK
  5
1C
330
1B
100
AcDbEntity
 67
     1
  8
0
100
AcDbBlockBegin
  2
*PAPER_SPACE
  1

  0
ENDBLK
  5
1D
330
1B
100
AcDbEntity
 67
     1
  8
0
100
AcDbBlockEnd
  0
ENDSEC
  0
SECTION
  2
ENTITIES
  0
LINE
  5
ff
100
AcDbEntity
  8
0
100
AcDbLine
 62
     253
 10
52.5833
 20
46.8739
 30
0.0
 11
52.5833
 21
77.8743
 31
0.0
  0
LINE
  5
100
100
AcDbEntity
  8
0
100
AcDbLine
 62
     253
 10
63.0823
 20
45.8749
 30
0.0
 11
63.0823
 21
78.8748
 31
0.0
  0
LINE
  5
101
100
AcDbEntity
  8
0
100
AcDbLine
 62
     253
 10
52.5833
 20
46.8739
 30
0.0
 11
53.5824
 21
45.8749
 31
0.0
  0
LINE
  5
102
100
AcDbEntity
  8
0
100
AcDbLine
 62
     253
 10
52.5833
 20
77.8743
 30
0.0
 11
53.5824
 21
78.8748
 31
0.0
  0
LINE
  5
103
100
AcDbEntity
  8
0
100
AcDbLine
 62
     253
 10
53.5824
 20
45.8749
 30
0.0
 11
74.5836
 21
45.8749
 31
0.0
  0
LINE
  5
104
100
AcDbEntity
  8
0
100
AcDbLine
 62
     253
 10
74.5836
 20
45.8749
 30
0.0
 11
75.5826
 21
46.8739
 31
0.0
  0
LINE
  5
105
100
AcDbEntity
  8
0
100
AcDbLine
 62
     253
 10
75.5826
 20
46.8739
 30
0.0
 11
75.5826
 21
77.8743
 31
0.0
  0
LINE
  5
106
100
AcDbEntity
  8
0
100
AcDbLine
 62
     253
 10
74.5836
 20
78.8748
 30
0.0
 11
75.5826
 21
77.8743
 31
0.0
  0
LINE
  5
107
100
AcDbEntity
  8
0
100
AcDbLine
 62
     253
 10
74.5836
 20
78.8748
 30
0.0
 11
53.5824
 21
78.8748
 31
0.0
  0
SPLINE
  5
108
100
AcDbEntity
  8
0
100
AcDbSpline
210
0.0
220
0.0
230
1.0
 62
     253
 70
     0
 71
     3
 72
     8
 73
4
 40
0.0
 40
0.0
 40
0.0
 40
0.0
 40
1.0
 40
1.0
 40
1.0
 40
1.0
 10
57.5829
 20
49.874
 30
0.0
 10
57.5829
 20
49.3229
 30
0.0
 10
57.1348
 20
48.8749
 30
0.0
 10
56.5824
 20
48.8749
 30
0.0
  0
SPLINE
  5
109
100
AcDbEntity
  8
0
100
AcDbSpline
210
0.0
220
0.0
230
1.0
 62
     253
 70
     0
 71
     3
 72
     8
 73
4
 40
0.0
 40
0.0
 40
0.0
 40
0.0
 40
1.0
 40
1.0
 40
1.0
 40
1.0
 10
56.5824
 20
48.8749
 30
0.0
 10
56.031
 20
48.8749
 30
0.0
 10
55.5833
 20
49.3229
 30
0.0
 10
55.5833
 20
49.874
 30
0.0
  0
SPLINE
  5
10a
100
AcDbEntity
  8
0
100
AcDbSpline
210
0.0
220
0.0
230
1.0
 62
     253
 70
     0
 71
     3
 72
     8
 73
4
 40
0.0
 40
0.0
 40
0.0
 40
0.0
 40
1.0
 40
1.0
 40
1.0
 40
1.0
 10
55.5833
 20
49.874
 30
0.0
 10
55.5833
 20
50.4264
 30
0.0
 10
56.031
 20
50.8744
 30
0.0
 10
56.5824
 20
50.8744
 30
0.0
  0
SPLINE
  5
10b
100
AcDbEntity
  8
0
100
AcDbSpline
210
0.0
220
0.0
230
1.0
 62
     253
 70
     0
 71
     3
 72
     8
 73
4
 40
0.0
 40
0.0
 40
0.0
 40
0.0
 40
1.0
 40
1.0
 40
1.0
 40
1.0
 10
56.5824
 20
50.8744
 30
0.0
 10
57.1348
 20
50.8744
 30
0.0
 10
57.5829
 20
50.4264
 30
0.0
 10
57.5829
 20
49.874
 30
0.0
  0
SPLINE
  5
10c
100
AcDbEntity
  8
0
100
AcDbSpline
210
0.0
220
0.0
230
1.0
 62
     253
 70
     0
 71
     3
 72
     8
 73
4
 40
0.0
 40
0.0
 40
0.0
 40
0.0
 40
1.0
 40
1.0
 40
1.0
 40
1.0
 10
72.5826
 20
49.874
 30
0.0
 10
72.5826
 20
49.3229
 30
0.0
 10
72.1349
 20
48.8749
 30
0.0
 10
71.5836
 20
48.8749
 30
0.0
  0
SPLINE
  5
10d
100
AcDbEntity
  8
0
100
AcDbSpline
210
0.0
220
0.0
230
1.0
 62
     253
 70
     0
 71
     3
 72
     8
 73
4
 40
0.0
 40
0.0
 40
0.0
 40
0.0
 40
1.0
 40
1.0
 40
1.0
 40
1.0
 10
71.5836
 20
48.8749
 30
0.0
 10
71.0311
 20
48.8749
 30
0.0
 10
70.5831
 20
49.3229
 30
0.0
 10
70.5831
 20
49.874
 30
0.0
  0
SPLINE
  5
10e
100
AcDbEntity
  8
0
100
AcDbSpline
210
0.0
220
0.0
230
1.0
 62
     253
 70
     0
 71
     3
 72
     8
 73
4
 40
0.0
 40
0.0
 40
0.0
 40
0.0
 40
1.0
 40
1.0
 40
1.0
 40
1.0
 10
70.5831
 20
49.874
 30
0.0
 10
70.5831
 20
50.4264
 30
0.0
 10
71.0311
 20
50.8744
 30
0.0
 10
71.5836
 20
50.8744
 30
0.0
  0
SPLINE
  5
10f
100
AcDbEntity
  8
0
100
AcDbSpline
210
0.0
220
0.0
230
1.0
 62
     253
 70
     0
 71
     3
 72
     8
 73
4
 40
0.0
 40
0.0
 40
0.0
 40
0.0
 40
1.0
 40
1.0
 40
1.0
 40
1.0
 10
71.5836
 20
50.8744
 30
0.0
 10
72.1349
 20
50.8744
 30
0.0
 10
72.5826
 20
50.4264
 30
0.0
 10
72.5826
 20
49.874
 30
0.0
  0
SPLINE
  5
110
100
AcDbEntity
  8
0
100
AcDbSpline
210
0.0
220
0.0
230
1.0
 62
     253
 70
     0
 71
     3
 72
     8
 73
4
 40
0.0
 40
0.0
 40
0.0
 40
0.0
 40
1.0
 40
1.0
 40
1.0
 40
1.0
 10
72.5826
 20
74.8743
 30
0.0
 10
72.5826
 20
74.3218
 30
0.0
 10
72.1349
 20
73.8738
 30
0.0
 10
71.5836
 20
73.8738
 30
0.0
  0
SPLINE
  5
111
100
AcDbEntity
  8
0
100
AcDbSpline
210
0.0
220
0.0
230
1.0
 62
     253
 70
     0
 71
     3
 72
     8
 73
4
 40
0.0
 40
0.0
 40
0.0
 40
0.0
 40
1.0
 40
1.0
 40
1.0
 40
1.0
 10
71.5836
 20
73.8738
 30
0.0
 10
71.0311
 20
73.8738
 30
0.0
 10
70.5831
 20
74.3218
 30
0.0
 10
70.5831
 20
74.8743
 30
0.0
  0
SPLINE
  5
112
100
AcDbEntity
  8
0
100
AcDbSpline
210
0.0
220
0.0
230
1.0
 62
     253
 70
     0
 71
     3
 72
     8
 73
4
 40
0.0
 40
0.0
 40
0.0
 40
0.0
 40
1.0
 40
1.0
 40
1.0
 40
1.0
 10
70.5831
 20
74.8743
 30
0.0
 10
70.5831
 20
75.4271
 30
0.0
 10
71.0311
 20
75.8747
 30
0.0
 10
71.5836
 20
75.8747
 30
0.0
  0
SPLINE
  5
113
100
AcDbEntity
  8
0
100
AcDbSpline
210
0.0
220
0.0
230
1.0
 62
     253
 70
     0
 71
     3
 72
     8
 73
4
 40
0.0
 40
0.0
 40
0.0
 40
0.0
 40
1.0
 40
1.0
 40
1.0
 40
1.0
 10
71.5836
 20
75.8747
 30
0.0
 10
72.1349
 20
75.8747
 30
0.0
 10
72.5826
 20
75.4271
 30
0.0
 10
72.5826
 20
74.8743
 30
0.0
  0
SPLINE
  5
114
100
AcDbEntity
  8
0
100
AcDbSpline
210
0.0
220
0.0
230
1.0
 62
     253
 70
     0
 71
     3
 72
     8
 73
4
 40
0.0
 40
0.0
 40
0.0
 40
0.0
 40
1.0
 40
1.0
 40
1.0
 40
1.0
 10
57.5829
 20
74.8743
 30
0.0
 10
57.5829
 20
74.3218
 30
0.0
 10
57.1348
 20
73.8738
 30
0.0
 10
56.5824
 20
73.8738
 30
0.0
  0
SPLINE
  5
115
100
AcDbEntity
  8
0
100
AcDbSpline
210
0.0
220
0.0
230
1.0
 62
     253
 70
     0
 71
     3
 72
     8
 73
4
 40
0.0
 40
0.0
 40
0.0
 40
0.0
 40
1.0
 40
1.0
 40
1.0
 40
1.0
 10
56.5824
 20
73.8738
 30
0.0
 10
56.031
 20
73.8738
 30
0.0
 10
55.5833
 20
74.3218
 30
0.0
 10
55.5833
 20
74.8743
 30
0.0
  0
SPLINE
  5
116
100
AcDbEntity
  8
0
100
AcDbSpline
210
0.0
220
0.0
230
1.0
 62
     253
 70
     0
 71
     3
 72
     8
 73
4
 40
0.0
 40
0.0
 40
0.0
 40
0.0
 40
1.0
 40
1.0
 40
1.0
 40
1.0
 10
55.5833
 20
74.8743
 30
0.0
 10
55.5833
 20
75.4271
 30
0.0
 10
56.031
 20
75.8747
 30
0.0
 10
56.5824
 20
75.8747
 30
0.0
  0
SPLINE
  5
117
100
AcDbEntity
  8
0
100
AcDbSpline
210
0.0
220
0.0
230
1.0
 62
     253
 70
     0
 71
     3
 72
     8
 73
4
 40
0.0
 40
0.0
 40
0.0
 40
0.0
 40
1.0
 40
1.0
 40
1.0
 40
1.0
 10
56.5824
 20
75.8747
 30
0.0
 10
57.1348
 20
75.8747
 30
0.0
 10
57.5829
 20
75.4271
 30
0.0
 10
57.5829
 20
74.8743
 30
0.0
  0
LINE
  5
118
100
AcDbEntity
  8
0
100
AcDbLine
 62
     253
 10
65.0833
 20
45.8749
 30
0.0
 11
63.0823
 21
45.8749
 31
0.0
  0
LINE
  5
119
100
AcDbEntity
  8
0
100
AcDbLine
 62
     253
 10
63.0823
 20
40.8739
 30
0.0
 11
63.0823
 21
45.8749
 31
0.0
  0
LINE
  5
11a
100
AcDbEntity
  8
0
100
AcDbLine
 62
     253
 10
63.0823
 20
40.8739
 30
0.0
 11
63.0823
 21
39.8748
 31
0.0
  0
LINE
  5
11b
100
AcDbEntity
  8
0
100
AcDbLine
 62
     253
 10
63.0823
 20
78.8748
 30
0.0
 11
63.0823
 21
101.874
 31
0.0
  0
LINE
  5
11c
100
AcDbEntity
  8
0
100
AcDbLine
 62
     253
 10
63.0823
 20
101.874
 30
0.0
 11
63.0823
 21
102.875
 31
0.0
  0
LINE
  5
11d
100
AcDbEntity
  8
0
100
AcDbLine
 62
     253
 10
63.0823
 20
53.3742
 30
0.0
 11
63.0823
 21
54.3747
 31
0.0
  0
LINE
  5
11e
100
AcDbEntity
  8
0
100
AcDbLine
 62
     253
 10
63.0823
 20
54.3747
 30
0.0
 11
63.0823
 21
52.3752
 31
0.0
  0
LINE
  5
11f
100
AcDbEntity
  8
0
100
AcDbLine
 62
     253
 10
63.0823
 20
52.3752
 30
0.0
 11
63.0823
 21
53.3742
 31
0.0
  0
LINE
  5
120
100
AcDbEntity
  8
0
100
AcDbLine
 62
     253
 10
63.0823
 20
44.3742
 30
0.0
 11
63.0823
 21
45.3746
 31
0.0
  0
LINE
  5
121
100
AcDbEntity
  8
0
100
AcDbLine
 62
     253
 10
63.0823
 20
45.3746
 30
0.0
 11
63.0823
 21
43.3737
 31
0.0
  0
LINE
  5
122
100
AcDbEntity
  8
0
100
AcDbLine
 62
     253
 10
63.0823
 20
43.3737
 30
0.0
 11
63.0823
 21
44.3742
 31
0.0
  0
LINE
  5
123
100
AcDbEntity
  8
0
100
AcDbLine
 62
     253
 10
63.0823
 20
98.3739
 30
0.0
 11
63.0823
 21
99.3743
 31
0.0
  0
LINE
  5
124
100
AcDbEntity
  8
0
100
AcDbLine
 62
     253
 10
63.0823
 20
99.3743
 30
0.0
 11
63.0823
 21
97.3748
 31
0.0
  0
LINE
  5
125
100
AcDbEntity
  8
0
100
AcDbLine
 62
     253
 10
63.0823
 20
97.3748
 30
0.0
 11
63.0823
 21
98.3739
 31
0.0
  0
LINE
  5
126
100
AcDbEntity
  8
0
100
AcDbLine
 62
     253
 10
63.0823
 20
89.3741
 30
0.0
 11
63.0823
 21
90.3746
 31
0.0
  0
LINE
  5
127
100
AcDbEntity
  8
0
100
AcDbLine
 62
     253
 10
63.0823
 20
90.3746
 30
0.0
 11
63.0823
 21
88.3751
 31
0.0
  0
LINE
  5
128
100
AcDbEntity
  8
0
100
AcDbLine
 62
     253
 10
63.0823
 20
88.3751
 30
0.0
 11
63.0823
 21
89.3741
 31
0.0
  0
LINE
  5
129
100
AcDbEntity
  8
0
100
AcDbLine
 62
     253
 10
63.0823
 20
78.8748
 30
0.0
 11
65.0833
 21
78.8748
 31
0.0
  0
LINE
  5
12a
100
AcDbEntity
  8
0
100
AcDbLine
 62
     253
 10
65.0833
 20
45.8749
 30
0.0
 11
65.0833
 21
78.8748
 31
0.0
  0
LINE
  5
12b
100
AcDbEntity
  8
0
100
AcDbLine
 62
     253
 10
65.0833
 20
40.8739
 30
0.0
 11
63.0823
 21
40.8739
 31
0.0
  0
LINE
  5
12c
100
AcDbEntity
  8
0
100
AcDbLine
 62
     253
 10
65.0833
 20
40.8739
 30
0.0
 11
65.0833
 21
45.8749
 31
0.0
  0
LINE
  5
12d
100
AcDbEntity
  8
0
100
AcDbLine
 62
     253
 10
65.0833
 20
40.8739
 30
0.0
 11
65.0833
 21
39.8748
 31
0.0
  0
LINE
  5
12e
100
AcDbEntity
  8
0
100
AcDbLine
 62
     253
 10
65.0833
 20
39.8748
 30
0.0
 11
63.0823
 21
39.8748
 31
0.0
  0
LINE
  5
12f
100
AcDbEntity
  8
0
100
AcDbLine
 62
     253
 10
65.0833
 20
78.8748
 30
0.0
 11
65.0833
 21
101.874
 31
0.0
  0
LINE
  5
130
100
AcDbEntity
  8
0
100
AcDbLine
 62
     253
 10
65.0833
 20
101.874
 30
0.0
 11
63.0823
 21
101.874
 31
0.0
  0
SPLINE
  5
131
100
AcDbEntity
  8
0
100
AcDbSpline
210
0.0
220
0.0
230
1.0
 62
     253
 70
     0
 71
     3
 72
     8
 73
4
 40
0.0
 40
0.0
 40
0.0
 40
0.0
 40
1.0
 40
1.0
 40
1.0
 40
1.0
 10
64.583
 20
93.8749
 30
0.0
 10
64.583
 20
93.7535
 30
0.0
 10
64.5375
 20
93.6322
 30
0.0
 10
64.4564
 20
93.5411
 30
0.0
  0
SPLINE
  5
132
100
AcDbEntity
  8
0
100
AcDbSpline
210
0.0
220
0.0
230
1.0
 62
     253
 70
     0
 71
     3
 72
     8
 73
4
 40
0.0
 40
0.0
 40
0.0
 40
0.0
 40
1.0
 40
1.0
 40
1.0
 40
1.0
 10
64.4564
 20
93.5411
 30
0.0
 10
64.3749
 20
93.4501
 30
0.0
 10
64.2606
 20
93.3909
 30
0.0
 10
64.1396
 20
93.3771
 30
0.0
  0
SPLINE
  5
133
100
AcDbEntity
  8
0
100
AcDbSpline
210
0.0
220
0.0
230
1.0
 62
     253
 70
     0
 71
     3
 72
     8
 73
4
 40
0.0
 40
0.0
 40
0.0
 40
0.0
 40
1.0
 40
1.0
 40
1.0
 40
1.0
 10
64.1396
 20
93.3771
 30
0.0
 10
63.9893
 20
93.3595
 30
0.0
 10
63.832
 20
93.4145
 30
0.0
 10
63.7275
 20
93.5232
 30
0.0
  0
SPLINE
  5
134
100
AcDbEntity
  8
0
100
AcDbSpline
210
0.0
220
0.0
230
1.0
 62
     253
 70
     0
 71
     3
 72
     8
 73
4
 40
0.0
 40
0.0
 40
0.0
 40
0.0
 40
1.0
 40
1.0
 40
1.0
 40
1.0
 10
63.7275
 20
93.5232
 30
0.0
 10
63.6418
 20
93.6089
 30
0.0
 10
63.5896
 20
93.7274
 30
0.0
 10
63.584
 20
93.8498
 30
0.0
  0
SPLINE
  5
135
100
AcDbEntity
  8
0
100
AcDbSpline
210
0.0
220
0.0
230
1.0
 62
     253
 70
     0
 71
     3
 72
     8
 73
4
 40
0.0
 40
0.0
 40
0.0
 40
0.0
 40
1.0
 40
1.0
 40
1.0
 40
1.0
 10
63.584
 20
93.8498
 30
0.0
 10
63.5744
 20
94.0001
 30
0.0
 10
63.6404
 20
94.1532
 30
0.0
 10
63.7551
 20
94.2509
 30
0.0
  0
SPLINE
  5
136
100
AcDbEntity
  8
0
100
AcDbSpline
210
0.0
220
0.0
230
1.0
 62
     253
 70
     0
 71
     3
 72
     8
 73
4
 40
0.0
 40
0.0
 40
0.0
 40
0.0
 40
1.0
 40
1.0
 40
1.0
 40
1.0
 10
63.7551
 20
94.2509
 30
0.0
 10
63.8457
 20
94.3321
 30
0.0
 10
63.9671
 20
94.3762
 30
0.0
 10
64.0898
 20
94.3751
 30
0.0
  0
SPLINE
  5
137
100
AcDbEntity
  8
0
100
AcDbSpline
210
0.0
220
0.0
230
1.0
 62
     253
 70
     0
 71
     3
 72
     8
 73
4
 40
0.0
 40
0.0
 40
0.0
 40
0.0
 40
1.0
 40
1.0
 40
1.0
 40
1.0
 10
64.0898
 20
94.3751
 30
0.0
 10
64.2112
 20
94.3737
 30
0.0
 10
64.3308
 20
94.3254
 30
0.0
 10
64.4204
 20
94.2428
 30
0.0
  0
SPLINE
  5
138
100
AcDbEntity
  8
0
100
AcDbSpline
210
0.0
220
0.0
230
1.0
 62
     253
 70
     0
 71
     3
 72
     8
 73
4
 40
0.0
 40
0.0
 40
0.0
 40
0.0
 40
1.0
 40
1.0
 40
1.0
 40
1.0
 10
64.4204
 20
94.2428
 30
0.0
 10
64.5223
 20
94.1504
 30
0.0
 10
64.583
 20
94.0125
 30
0.0
 10
64.583
 20
93.8749
 30
0.0
  0
LINE
  5
139
100
AcDbEntity
  8
0
100
AcDbLine
 62
     253
 10
65.0833
 20
101.874
 30
0.0
 11
65.0833
 21
102.875
 31
0.0
  0
LINE
  5
13a
100
AcDbEntity
  8
0
100
AcDbLine
 62
     253
 10
65.0833
 20
102.875
 30
0.0
 11
63.0823
 21
102.875
 31
0.0
  0
LINE
  5
13b
100
AcDbEntity
  8
0
100
AcDbLine
 62
     253
 10
65.0833
 20
53.3742
 30
0.0
 11
65.0833
 21
54.3747
 31
0.0
  0
LINE
  5
13c
100
AcDbEntity
  8
0
100
AcDbLine
 62
     253
 10
65.0833
 20
54.3747
 30
0.0
 11
65.0833
 21
52.3752
 31
0.0
  0
LINE
  5
13d
100
AcDbEntity
  8
0
100
AcDbLine
 62
     253
 10
65.0833
 20
52.3752
 30
0.0
 11
65.0833
 21
53.3742
 31
0.0
  0
LINE
  5
13e
100
AcDbEntity
  8
0
100
AcDbLine
 62
     253
 10
65.0833
 20
44.3742
 30
0.0
 11
65.0833
 21
45.3746
 31
0.0
  0
LINE
  5
13f
100
AcDbEntity
  8
0
100
AcDbLine
 62
     253
 10
65.0833
 20
45.3746
 30
0.0
 11
65.0833
 21
43.3737
 31
0.0
  0
LINE
  5
140
100
AcDbEntity
  8
0
100
AcDbLine
 62
     253
 10
65.0833
 20
43.3737
 30
0.0
 11
65.0833
 21
44.3742
 31
0.0
  0
LINE
  5
141
100
AcDbEntity
  8
0
100
AcDbLine
 62
     253
 10
65.0833
 20
98.3739
 30
0.0
 11
65.0833
 21
99.3743
 31
0.0
  0
LINE
  5
142
100
AcDbEntity
  8
0
100
AcDbLine
 62
     253
 10
65.0833
 20
99.3743
 30
0.0
 11
65.0833
 21
97.3748
 31
0.0
  0
LINE
  5
143
100
AcDbEntity
  8
0
100
AcDbLine
 62
     253
 10
65.0833
 20
97.3748
 30
0.0
 11
65.0833
 21
98.3739
 31
0.0
  0
LINE
  5
144
100
AcDbEntity
  8
0
100
AcDbLine
 62
     253
 10
65.0833
 20
89.3741
 30
0.0
 11
65.0833
 21
90.3746
 31
0.0
  0
LINE
  5
145
100
AcDbEntity
  8
0
100
AcDbLine
 62
     253
 10
65.0833
 20
90.3746
 30
0.0
 11
65.0833
 21
88.3751
 31
0.0
  0
LINE
  5
146
100
AcDbEntity
  8
0
100
AcDbLine
 62
     253
 10
65.0833
 20
88.3751
 30
0.0
 11
65.0833
 21
89.3741
 31
0.0
  0
SPLINE
  5
147
100
AcDbEntity
  8
0
100
AcDbSpline
210
0.0
220
0.0
230
1.0
 62
     253
 70
     0
 71
     3
 72
     8
 73
4
 40
0.0
 40
0.0
 40
0.0
 40
0.0
 40
1.0
 40
1.0
 40
1.0
 40
1.0
 10
64.0828
 20
93.3746
 30
0.0
 10
64.3587
 20
93.3746
 30
0.0
 10
64.583
 20
93.5976
 30
0.0
 10
64.583
 20
93.8749
 30
0.0
  0
SPLINE
  5
148
100
AcDbEntity
  8
0
100
AcDbSpline
210
0.0
220
0.0
230
1.0
 62
     253
 70
     0
 71
     3
 72
     8
 73
4
 40
0.0
 40
0.0
 40
0.0
 40
0.0
 40
1.0
 40
1.0
 40
1.0
 40
1.0
 10
64.583
 20
93.8749
 30
0.0
 10
64.583
 20
94.1504
 30
0.0
 10
64.3587
 20
94.3751
 30
0.0
 10
64.0828
 20
94.3751
 30
0.0
  0
SPLINE
  5
149
100
AcDbEntity
  8
0
100
AcDbSpline
210
0.0
220
0.0
230
1.0
 62
     253
 70
     0
 71
     3
 72
     8
 73
4
 40
0.0
 40
0.0
 40
0.0
 40
0.0
 40
1.0
 40
1.0
 40
1.0
 40
1.0
 10
64.0828
 20
94.3751
 30
0.0
 10
63.8073
 20
94.3751
 30
0.0
 10
63.5825
 20
94.1504
 30
0.0
 10
63.5825
 20
93.8749
 30
0.0
  0
SPLINE
  5
14a
100
AcDbEntity
  8
0
100
AcDbSpline
210
0.0
220
0.0
230
1.0
 62
     253
 70
     0
 71
     3
 72
     8
 73
4
 40
0.0
 40
0.0
 40
0.0
 40
0.0
 40
1.0
 40
1.0
 40
1.0
 40
1.0
 10
63.5825
 20
93.8749
 30
0.0
 10
63.5825
 20
93.5976
 30
0.0
 10
63.8073
 20
93.3746
 30
0.0
 10
64.0828
 20
93.3746
 30
0.0
  0
LINE
  5
14b
100
AcDbEntity
  8
0
100
AcDbLine
 62
     253
 10
65.0833
 20
52.3752
 30
0.0
 11
63.0823
 21
52.3752
 31
0.0
  0
LINE
  5
14c
100
AcDbEntity
  8
0
100
AcDbLine
 62
     253
 10
65.0833
 20
54.3747
 30
0.0
 11
63.0823
 21
54.3747
 31
0.0
  0
LINE
  5
14d
100
AcDbEntity
  8
0
100
AcDbLine
 62
     253
 10
65.0833
 20
43.3737
 30
0.0
 11
63.0823
 21
43.3737
 31
0.0
  0
LINE
  5
14e
100
AcDbEntity
  8
0
100
AcDbLine
 62
     253
 10
65.0833
 20
45.3746
 30
0.0
 11
63.0823
 21
45.3746
 31
0.0
  0
LINE
  5
14f
100
AcDbEntity
  8
0
100
AcDbLine
 62
     253
 10
65.0833
 20
97.3748
 30
0.0
 11
63.0823
 21
97.3748
 31
0.0
  0
LINE
  5
150
100
AcDbEntity
  8
0
100
AcDbLine
 62
     253
 10
65.0833
 20
99.3743
 30
0.0
 11
63.0823
 21
99.3743
 31
0.0
  0
LINE
  5
151
100
AcDbEntity
  8
0
100
AcDbLine
 62
     253
 10
65.0833
 20
88.3751
 30
0.0
 11
63.0823
 21
88.3751
 31
0.0
  0
LINE
  5
152
100
AcDbEntity
  8
0
100
AcDbLine
 62
     253
 10
65.0833
 20
90.3746
 30
0.0
 11
63.0823
 21
90.3746
 31
0.0
  0
LINE
  5
153
100
AcDbEntity
  8
0
100
AcDbLine
 62
     253
 10
107.182
 20
45.8749
 30
0.0
 11
107.182
 21
78.8748
 31
0.0
  0
LINE
  5
154
100
AcDbEntity
  8
0
100
AcDbLine
 62
     253
 10
107.182
 20
74.8743
 30
0.0
 11
107.182
 21
75.8747
 31
0.0
  0
LINE
  5
155
100
AcDbEntity
  8
0
100
AcDbLine
 62
     253
 10
107.182
 20
75.8747
 30
0.0
 11
107.182
 21
73.8738
 31
0.0
  0
LINE
  5
156
100
AcDbEntity
  8
0
100
AcDbLine
 62
     253
 10
107.182
 20
73.8738
 30
0.0
 11
107.182
 21
74.8743
 31
0.0
  0
LINE
  5
157
100
AcDbEntity
  8
0
100
AcDbLine
 62
     253
 10
107.182
 20
49.874
 30
0.0
 11
107.182
 21
50.8744
 31
0.0
  0
LINE
  5
158
100
AcDbEntity
  8
0
100
AcDbLine
 62
     253
 10
107.182
 20
50.8744
 30
0.0
 11
107.182
 21
48.8749
 31
0.0
  0
LINE
  5
159
100
AcDbEntity
  8
0
100
AcDbLine
 62
     253
 10
107.182
 20
48.8749
 30
0.0
 11
107.182
 21
49.874
 31
0.0
  0
LINE
  5
15a
100
AcDbEntity
  8
0
100
AcDbLine
 62
     253
 10
105.984
 20
45.8749
 30
0.0
 11
105.984
 21
46.8739
 31
0.0
  0
LINE
  5
15b
100
AcDbEntity
  8
0
100
AcDbLine
 62
     253
 10
105.984
 20
46.8739
 30
0.0
 11
105.984
 21
77.8743
 31
0.0
  0
LINE
  5
15c
100
AcDbEntity
  8
0
100
AcDbLine
 62
     253
 10
105.984
 20
78.8748
 30
0.0
 11
105.984
 21
77.8743
 31
0.0
  0
LINE
  5
15d
100
AcDbEntity
  8
0
100
AcDbLine
 62
     253
 10
105.984
 20
49.874
 30
0.0
 11
105.984
 21
50.8744
 31
0.0
  0
LINE
  5
15e
100
AcDbEntity
  8
0
100
AcDbLine
 62
     253
 10
105.984
 20
50.8744
 30
0.0
 11
105.984
 21
48.8749
 31
0.0
  0
LINE
  5
15f
100
AcDbEntity
  8
0
100
AcDbLine
 62
     253
 10
105.984
 20
48.8749
 30
0.0
 11
105.984
 21
49.874
 31
0.0
  0
LINE
  5
160
100
AcDbEntity
  8
0
100
AcDbLine
 62
     253
 10
105.984
 20
49.874
 30
0.0
 11
105.984
 21
50.8744
 31
0.0
  0
LINE
  5
161
100
AcDbEntity
  8
0
100
AcDbLine
 62
     253
 10
105.984
 20
50.8744
 30
0.0
 11
105.984
 21
48.8749
 31
0.0
  0
LINE
  5
162
100
AcDbEntity
  8
0
100
AcDbLine
 62
     253
 10
105.984
 20
48.8749
 30
0.0
 11
105.984
 21
49.874
 31
0.0
  0
LINE
  5
163
100
AcDbEntity
  8
0
100
AcDbLine
 62
     253
 10
105.984
 20
74.8743
 30
0.0
 11
105.984
 21
75.8747
 31
0.0
  0
LINE
  5
164
100
AcDbEntity
  8
0
100
AcDbLine
 62
     253
 10
105.984
 20
75.8747
 30
0.0
 11
105.984
 21
73.8738
 31
0.0
  0
LINE
  5
165
100
AcDbEntity
  8
0
100
AcDbLine
 62
     253
 10
105.984
 20
73.8738
 30
0.0
 11
105.984
 21
74.8743
 31
0.0
  0
LINE
  5
166
100
AcDbEntity
  8
0
100
AcDbLine
 62
     253
 10
105.984
 20
74.8743
 30
0.0
 11
105.984
 21
75.8747
 31
0.0
  0
LINE
  5
167
100
AcDbEntity
  8
0
100
AcDbLine
 62
     253
 10
105.984
 20
75.8747
 30
0.0
 11
105.984
 21
73.8738
 31
0.0
  0
LINE
  5
168
100
AcDbEntity
  8
0
100
AcDbLine
 62
     253
 10
105.984
 20
73.8738
 30
0.0
 11
105.984
 21
74.8743
 31
0.0
  0
LINE
  5
169
100
AcDbEntity
  8
0
100
AcDbLine
 62
     253
 10
105.984
 20
45.8749
 30
0.0
 11
107.182
 21
45.8749
 31
0.0
  0
LINE
  5
16a
100
AcDbEntity
  8
0
100
AcDbLine
 62
     253
 10
107.182
 20
78.8748
 30
0.0
 11
105.984
 21
78.8748
 31
0.0
  0
LINE
  5
16b
100
AcDbEntity
  8
0
100
AcDbLine
 62
     253
 10
105.984
 20
46.8739
 30
0.0
 11
107.182
 21
46.8739
 31
0.0
  0
LINE
  5
16c
100
AcDbEntity
  8
0
100
AcDbLine
 62
     253
 10
107.182
 20
45.8749
 30
0.0
 11
107.182
 21
46.8739
 31
0.0
  0
LINE
  5
16d
100
AcDbEntity
  8
0
100
AcDbLine
 62
     253
 10
107.182
 20
77.8743
 30
0.0
 11
105.984
 21
77.8743
 31
0.0
  0
LINE
  5
16e
100
AcDbEntity
  8
0
100
AcDbLine
 62
     253
 10
107.182
 20
46.8739
 30
0.0
 11
107.182
 21
77.8743
 31
0.0
  0
LINE
  5
16f
100
AcDbEntity
  8
0
100
AcDbLine
 62
     253
 10
107.182
 20
78.8748
 30
0.0
 11
107.182
 21
77.8743
 31
0.0
  0
LINE
  5
170
100
AcDbEntity
  8
0
100
AcDbLine
 62
     253
 10
107.182
 20
49.874
 30
0.0
 11
107.182
 21
50.8744
 31
0.0
  0
LINE
  5
171
100
AcDbEntity
  8
0
100
AcDbLine
 62
     253
 10
107.182
 20
50.8744
 30
0.0
 11
107.182
 21
48.8749
 31
0.0
  0
LINE
  5
172
100
AcDbEntity
  8
0
100
AcDbLine
 62
     253
 10
107.182
 20
48.8749
 30
0.0
 11
107.182
 21
49.874
 31
0.0
  0
LINE
  5
173
100
AcDbEntity
  8
0
100
AcDbLine
 62
     253
 10
107.182
 20
74.8743
 30
0.0
 11
107.182
 21
75.8747
 31
0.0
  0
LINE
  5
174
100
AcDbEntity
  8
0
100
AcDbLine
 62
     253
 10
107.182
 20
75.8747
 30
0.0
 11
107.182
 21
73.8738
 31
0.0
  0
LINE
  5
175
100
AcDbEntity
  8
0
100
AcDbLine
 62
     253
 10
107.182
 20
73.8738
 30
0.0
 11
107.182
 21
74.8743
 31
0.0
  0
LINE
  5
176
100
AcDbEntity
  8
0
100
AcDbLine
 62
     253
 10
107.182
 20
45.8749
 30
0.0
 11
107.182
 21
78.8748
 31
0.0
  0
LINE
  5
177
100
AcDbEntity
  8
0
100
AcDbLine
 62
     253
 10
107.182
 20
40.8739
 30
0.0
 11
107.182
 21
45.8749
 31
0.0
  0
LINE
  5
178
100
AcDbEntity
  8
0
100
AcDbLine
 62
     253
 10
107.182
 20
40.8739
 30
0.0
 11
108.183
 21
39.8748
 31
0.0
  0
LINE
  5
179
100
AcDbEntity
  8
0
100
AcDbLine
 62
     253
 10
117.183
 20
39.8748
 30
0.0
 11
108.183
 21
39.8748
 31
0.0
  0
LINE
  5
17a
100
AcDbEntity
  8
0
100
AcDbLine
 62
     253
 10
107.182
 20
78.8748
 30
0.0
 11
107.182
 21
101.874
 31
0.0
  0
SPLINE
  5
17b
100
AcDbEntity
  8
0
100
AcDbSpline
210
0.0
220
0.0
230
1.0
 62
     253
 70
     0
 71
     3
 72
     8
 73
4
 40
0.0
 40
0.0
 40
0.0
 40
0.0
 40
1.0
 40
1.0
 40
1.0
 40
1.0
 10
107.182
 20
93.8749
 30
0.0
 10
107.182
 20
93.7535
 30
0.0
 10
107.182
 20
93.6322
 30
0.0
 10
107.182
 20
93.5411
 30
0.0
  0
SPLINE
  5
17c
100
AcDbEntity
  8
0
100
AcDbSpline
210
0.0
220
0.0
230
1.0
 62
     253
 70
     0
 71
     3
 72
     8
 73
4
 40
0.0
 40
0.0
 40
0.0
 40
0.0
 40
1.0
 40
1.0
 40
1.0
 40
1.0
 10
107.182
 20
93.5411
 30
0.0
 10
107.182
 20
93.4364
 30
0.0
 10
107.182
 20
93.3732
 30
0.0
 10
107.182
 20
93.3746
 30
0.0
  0
SPLINE
  5
17d
100
AcDbEntity
  8
0
100
AcDbSpline
210
0.0
220
0.0
230
1.0
 62
     253
 70
     0
 71
     3
 72
     8
 73
4
 40
0.0
 40
0.0
 40
0.0
 40
0.0
 40
1.0
 40
1.0
 40
1.0
 40
1.0
 10
107.182
 20
93.3746
 30
0.0
 10
107.182
 20
93.3676
 30
0.0
 10
107.182
 20
93.5909
 30
0.0
 10
107.182
 20
93.8498
 30
0.0
  0
SPLINE
  5
17e
100
AcDbEntity
  8
0
100
AcDbSpline
210
0.0
220
0.0
230
1.0
 62
     253
 70
     0
 71
     3
 72
     8
 73
4
 40
0.0
 40
0.0
 40
0.0
 40
0.0
 40
1.0
 40
1.0
 40
1.0
 40
1.0
 10
107.182
 20
93.8498
 30
0.0
 10
107.182
 20
93.9698
 30
0.0
 10
107.182
 20
94.0911
 30
0.0
 10
107.182
 20
94.186
 30
0.0
  0
SPLINE
  5
17f
100
AcDbEntity
  8
0
100
AcDbSpline
210
0.0
220
0.0
230
1.0
 62
     253
 70
     0
 71
     3
 72
     8
 73
4
 40
0.0
 40
0.0
 40
0.0
 40
0.0
 40
1.0
 40
1.0
 40
1.0
 40
1.0
 10
107.182
 20
94.186
 30
0.0
 10
107.182
 20
94.3031
 30
0.0
 10
107.182
 20
94.3751
 30
0.0
 10
107.182
 20
94.3751
 30
0.0
  0
SPLINE
  5
180
100
AcDbEntity
  8
0
100
AcDbSpline
210
0.0
220
0.0
230
1.0
 62
     253
 70
     0
 71
     3
 72
     8
 73
4
 40
0.0
 40
0.0
 40
0.0
 40
0.0
 40
1.0
 40
1.0
 40
1.0
 40
1.0
 10
107.182
 20
94.3751
 30
0.0
 10
107.182
 20
94.3723
 30
0.0
 10
107.182
 20
94.3296
 30
0.0
 10
107.182
 20
94.2428
 30
0.0
  0
SPLINE
  5
181
100
AcDbEntity
  8
0
100
AcDbSpline
210
0.0
220
0.0
230
1.0
 62
     253
 70
     0
 71
     3
 72
     8
 73
4
 40
0.0
 40
0.0
 40
0.0
 40
0.0
 40
1.0
 40
1.0
 40
1.0
 40
1.0
 10
107.182
 20
94.2428
 30
0.0
 10
107.182
 20
94.1504
 30
0.0
 10
107.182
 20
94.0125
 30
0.0
 10
107.182
 20
93.8749
 30
0.0
  0
LINE
  5
182
100
AcDbEntity
  8
0
100
AcDbLine
 62
     253
 10
117.183
 20
39.8748
 30
0.0
 11
118.183
 21
40.8739
 31
0.0
  0
LINE
  5
183
100
AcDbEntity
  8
0
100
AcDbLine
 62
     253
 10
107.182
 20
101.874
 30
0.0
 11
108.183
 21
102.875
 31
0.0
  0
LINE
  5
184
100
AcDbEntity
  8
0
100
AcDbLine
 62
     253
 10
118.183
 20
40.8739
 30
0.0
 11
118.183
 21
101.874
 31
0.0
  0
LINE
  5
185
100
AcDbEntity
  8
0
100
AcDbLine
 62
     253
 10
117.183
 20
102.875
 30
0.0
 11
108.183
 21
102.875
 31
0.0
  0
LINE
  5
186
100
AcDbEntity
  8
0
100
AcDbLine
 62
     253
 10
118.183
 20
101.874
 30
0.0
 11
117.183
 21
102.875
 31
0.0
  0
SPLINE
  5
187
100
AcDbEntity
  8
0
100
AcDbSpline
210
0.0
220
0.0
230
1.0
 62
     253
 70
     0
 71
     3
 72
     8
 73
4
 40
0.0
 40
0.0
 40
0.0
 40
0.0
 40
1.0
 40
1.0
 40
1.0
 40
1.0
 10
114.183
 20
53.3742
 30
0.0
 10
114.183
 20
52.8214
 30
0.0
 10
113.735
 20
52.3752
 30
0.0
 10
113.182
 20
52.3752
 30
0.0
  0
SPLINE
  5
188
100
AcDbEntity
  8
0
100
AcDbSpline
210
0.0
220
0.0
230
1.0
 62
     253
 70
     0
 71
     3
 72
     8
 73
4
 40
0.0
 40
0.0
 40
0.0
 40
0.0
 40
1.0
 40
1.0
 40
1.0
 40
1.0
 10
113.182
 20
52.3752
 30
0.0
 10
112.631
 20
52.3752
 30
0.0
 10
112.183
 20
52.8214
 30
0.0
 10
112.183
 20
53.3742
 30
0.0
  0
SPLINE
  5
189
100
AcDbEntity
  8
0
100
AcDbSpline
210
0.0
220
0.0
230
1.0
 62
     253
 70
     0
 71
     3
 72
     8
 73
4
 40
0.0
 40
0.0
 40
0.0
 40
0.0
 40
1.0
 40
1.0
 40
1.0
 40
1.0
 10
112.183
 20
53.3742
 30
0.0
 10
112.183
 20
53.9267
 30
0.0
 10
112.631
 20
54.3747
 30
0.0
 10
113.182
 20
54.3747
 30
0.0
  0
SPLINE
  5
18a
100
AcDbEntity
  8
0
100
AcDbSpline
210
0.0
220
0.0
230
1.0
 62
     253
 70
     0
 71
     3
 72
     8
 73
4
 40
0.0
 40
0.0
 40
0.0
 40
0.0
 40
1.0
 40
1.0
 40
1.0
 40
1.0
 10
113.182
 20
54.3747
 30
0.0
 10
113.735
 20
54.3747
 30
0.0
 10
114.183
 20
53.9267
 30
0.0
 10
114.183
 20
53.3742
 30
0.0
  0
SPLINE
  5
18b
100
AcDbEntity
  8
0
100
AcDbSpline
210
0.0
220
0.0
230
1.0
 62
     253
 70
     0
 71
     3
 72
     8
 73
4
 40
0.0
 40
0.0
 40
0.0
 40
0.0
 40
1.0
 40
1.0
 40
1.0
 40
1.0
 10
114.183
 20
44.3742
 30
0.0
 10
114.183
 20
43.8217
 30
0.0
 10
113.735
 20
43.3737
 30
0.0
 10
113.182
 20
43.3737
 30
0.0
  0
SPLINE
  5
18c
100
AcDbEntity
  8
0
100
AcDbSpline
210
0.0
220
0.0
230
1.0
 62
     253
 70
     0
 71
     3
 72
     8
 73
4
 40
0.0
 40
0.0
 40
0.0
 40
0.0
 40
1.0
 40
1.0
 40
1.0
 40
1.0
 10
113.182
 20
43.3737
 30
0.0
 10
112.631
 20
43.3737
 30
0.0
 10
112.183
 20
43.8217
 30
0.0
 10
112.183
 20
44.3742
 30
0.0
  0
SPLINE
  5
18d
100
AcDbEntity
  8
0
100
AcDbSpline
210
0.0
220
0.0
230
1.0
 62
     253
 70
     0
 71
     3
 72
     8
 73
4
 40
0.0
 40
0.0
 40
0.0
 40
0.0
 40
1.0
 40
1.0
 40
1.0
 40
1.0
 10
112.183
 20
44.3742
 30
0.0
 10
112.183
 20
44.927
 30
0.0
 10
112.631
 20
45.3746
 30
0.0
 10
113.182
 20
45.3746
 30
0.0
  0
SPLINE
  5
18e
100
AcDbEntity
  8
0
100
AcDbSpline
210
0.0
220
0.0
230
1.0
 62
     253
 70
     0
 71
     3
 72
     8
 73
4
 40
0.0
 40
0.0
 40
0.0
 40
0.0
 40
1.0
 40
1.0
 40
1.0
 40
1.0
 10
113.182
 20
45.3746
 30
0.0
 10
113.735
 20
45.3746
 30
0.0
 10
114.183
 20
44.927
 30
0.0
 10
114.183
 20
44.3742
 30
0.0
  0
SPLINE
  5
18f
100
AcDbEntity
  8
0
100
AcDbSpline
210
0.0
220
0.0
230
1.0
 62
     253
 70
     0
 71
     3
 72
     8
 73
4
 40
0.0
 40
0.0
 40
0.0
 40
0.0
 40
1.0
 40
1.0
 40
1.0
 40
1.0
 10
114.183
 20
98.3739
 30
0.0
 10
114.183
 20
97.8228
 30
0.0
 10
113.735
 20
97.3748
 30
0.0
 10
113.182
 20
97.3748
 30
0.0
  0
SPLINE
  5
190
100
AcDbEntity
  8
0
100
AcDbSpline
210
0.0
220
0.0
230
1.0
 62
     253
 70
     0
 71
     3
 72
     8
 73
4
 40
0.0
 40
0.0
 40
0.0
 40
0.0
 40
1.0
 40
1.0
 40
1.0
 40
1.0
 10
113.182
 20
97.3748
 30
0.0
 10
112.631
 20
97.3748
 30
0.0
 10
112.183
 20
97.8228
 30
0.0
 10
112.183
 20
98.3739
 30
0.0
  0
SPLINE
  5
191
100
AcDbEntity
  8
0
100
AcDbSpline
210
0.0
220
0.0
230
1.0
 62
     253
 70
     0
 71
     3
 72
     8
 73
4
 40
0.0
 40
0.0
 40
0.0
 40
0.0
 40
1.0
 40
1.0
 40
1.0
 40
1.0
 10
112.183
 20
98.3739
 30
0.0
 10
112.183
 20
98.9266
 30
0.0
 10
112.631
 20
99.3743
 30
0.0
 10
113.182
 20
99.3743
 30
0.0
  0
SPLINE
  5
192
100
AcDbEntity
  8
0
100
AcDbSpline
210
0.0
220
0.0
230
1.0
 62
     253
 70
     0
 71
     3
 72
     8
 73
4
 40
0.0
 40
0.0
 40
0.0
 40
0.0
 40
1.0
 40
1.0
 40
1.0
 40
1.0
 10
113.182
 20
99.3743
 30
0.0
 10
113.735
 20
99.3743
 30
0.0
 10
114.183
 20
98.9266
 30
0.0
 10
114.183
 20
98.3739
 30
0.0
  0
SPLINE
  5
193
100
AcDbEntity
  8
0
100
AcDbSpline
210
0.0
220
0.0
230
1.0
 62
     253
 70
     0
 71
     3
 72
     8
 73
4
 40
0.0
 40
0.0
 40
0.0
 40
0.0
 40
1.0
 40
1.0
 40
1.0
 40
1.0
 10
114.183
 20
89.3741
 30
0.0
 10
114.183
 20
88.8213
 30
0.0
 10
113.735
 20
88.3751
 30
0.0
 10
113.182
 20
88.3751
 30
0.0
  0
SPLINE
  5
194
100
AcDbEntity
  8
0
100
AcDbSpline
210
0.0
220
0.0
230
1.0
 62
     253
 70
     0
 71
     3
 72
     8
 73
4
 40
0.0
 40
0.0
 40
0.0
 40
0.0
 40
1.0
 40
1.0
 40
1.0
 40
1.0
 10
113.182
 20
88.3751
 30
0.0
 10
112.631
 20
88.3751
 30
0.0
 10
112.183
 20
88.8213
 30
0.0
 10
112.183
 20
89.3741
 30
0.0
  0
SPLINE
  5
195
100
AcDbEntity
  8
0
100
AcDbSpline
210
0.0
220
0.0
230
1.0
 62
     253
 70
     0
 71
     3
 72
     8
 73
4
 40
0.0
 40
0.0
 40
0.0
 40
0.0
 40
1.0
 40
1.0
 40
1.0
 40
1.0
 10
112.183
 20
89.3741
 30
0.0
 10
112.183
 20
89.9266
 30
0.0
 10
112.631
 20
90.3746
 30
0.0
 10
113.182
 20
90.3746
 30
0.0
  0
SPLINE
  5
196
100
AcDbEntity
  8
0
100
AcDbSpline
210
0.0
220
0.0
230
1.0
 62
     253
 70
     0
 71
     3
 72
     8
 73
4
 40
0.0
 40
0.0
 40
0.0
 40
0.0
 40
1.0
 40
1.0
 40
1.0
 40
1.0
 10
113.182
 20
90.3746
 30
0.0
 10
113.735
 20
90.3746
 30
0.0
 10
114.183
 20
89.9266
 30
0.0
 10
114.183
 20
89.3741
 30
0.0
  0
SPLINE
  5
197
100
AcDbEntity
  8
0
100
AcDbSpline
210
0.0
220
0.0
230
1.0
 62
     253
 70
     0
 71
     3
 72
     8
 73
4
 40
0.0
 40
0.0
 40
0.0
 40
0.0
 40
1.0
 40
1.0
 40
1.0
 40
1.0
 10
115.043
 20
93.8749
 30
0.0
 10
115.043
 20
94.1504
 30
0.0
 10
115.043
 20
94.3751
 30
0.0
 10
115.043
 20
94.3751
 30
0.0
  0
SPLINE
  5
198
100
AcDbEntity
  8
0
100
AcDbSpline
210
0.0
220
0.0
230
1.0
 62
     253
 70
     0
 71
     3
 72
     8
 73
4
 40
0.0
 40
0.0
 40
0.0
 40
0.0
 40
1.0
 40
1.0
 40
1.0
 40
1.0
 10
115.043
 20
94.3751
 30
0.0
 10
115.043
 20
94.3751
 30
0.0
 10
115.043
 20
94.1504
 30
0.0
 10
115.043
 20
93.8749
 30
0.0
  0
SPLINE
  5
199
100
AcDbEntity
  8
0
100
AcDbSpline
210
0.0
220
0.0
230
1.0
 62
     253
 70
     0
 71
     3
 72
     8
 73
4
 40
0.0
 40
0.0
 40
0.0
 40
0.0
 40
1.0
 40
1.0
 40
1.0
 40
1.0
 10
115.043
 20
93.8749
 30
0.0
 10
115.043
 20
93.5976
 30
0.0
 10
115.043
 20
93.3746
 30
0.0
 10
115.043
 20
93.3746
 30
0.0
  0
SPLINE
  5
19a
100
AcDbEntity
  8
0
100
AcDbSpline
210
0.0
220
0.0
230
1.0
 62
     253
 70
     0
 71
     3
 72
     8
 73
4
 40
0.0
 40
0.0
 40
0.0
 40
0.0
 40
1.0
 40
1.0
 40
1.0
 40
1.0
 10
115.043
 20
93.3746
 30
0.0
 10
115.043
 20
93.3746
 30
0.0
 10
115.043
 20
93.5976
 30
0.0
 10
115.043
 20
93.8749
 30
0.0
  0
LINE
  5
19b
100
AcDbEntity
  8
0
100
AcDbLine
 62
     253
 10
105.984
 20
75.8747
 30
0.0
 11
107.182
 21
75.8747
 31
0.0
  0
LINE
  5
19c
100
AcDbEntity
  8
0
100
AcDbLine
 62
     253
 10
105.984
 20
73.8738
 30
0.0
 11
107.182
 21
73.8738
 31
0.0
  0
LINE
  5
19d
100
AcDbEntity
  8
0
100
AcDbLine
 62
     253
 10
105.984
 20
50.8744
 30
0.0
 11
107.182
 21
50.8744
 31
0.0
  0
LINE
  5
19e
100
AcDbEntity
  8
0
100
AcDbLine
 62
     253
 10
105.984
 20
48.8749
 30
0.0
 11
107.182
 21
48.8749
 31
0.0
  0
LINE
  5
19f
100
AcDbEntity
  8
0
100
AcDbLine
 62
     253
 10
105.984
 20
50.8744
 30
0.0
 11
107.182
 21
50.8744
 31
0.0
  0
LINE
  5
1a0
100
AcDbEntity
  8
0
100
AcDbLine
 62
     253
 10
105.984
 20
48.8749
 30
0.0
 11
107.182
 21
48.8749
 31
0.0
  0
LINE
  5
1a1
100
AcDbEntity
  8
0
100
AcDbLine
 62
     253
 10
105.984
 20
75.8747
 30
0.0
 11
107.182
 21
75.8747
 31
0.0
  0
LINE
  5
1a2
100
AcDbEntity
  8
0
100
AcDbLine
 62
     253
 10
105.984
 20
73.8738
 30
0.0
 11
107.182
 21
73.8738
 31
0.0
  0
LINE
  5
1a3
100
AcDbEntity
  8
0
100
AcDbLine
 62
     253
 10
115.043
 20
94.3751
 30
0.0
 11
107.182
 21
94.3751
 31
0.0
  0
LINE
  5
1a4
100
AcDbEntity
  8
0
100
AcDbLine
 62
     253
 10
115.043
 20
93.3746
 30
0.0
 11
107.182
 21
93.3746
 31
0.0
  0
LINE
  5
1a5
100
AcDbEntity
  8
0
100
AcDbLine
 62
     253
 10
171.582
 20
46.8739
 30
0.0
 11
171.582
 21
77.8743
 31
0.0
  0
LINE
  5
1a6
100
AcDbEntity
  8
0
100
AcDbLine
 62
     253
 10
161.083
 20
45.8749
 30
0.0
 11
170.583
 21
45.8749
 31
0.0
  0
LINE
  5
1a7
100
AcDbEntity
  8
0
100
AcDbLine
 62
     253
 10
171.582
 20
46.8739
 30
0.0
 11
170.583
 21
45.8749
 31
0.0
  0
LINE
  5
1a8
100
AcDbEntity
  8
0
100
AcDbLine
 62
     253
 10
161.083
 20
45.8749
 30
0.0
 11
161.083
 21
78.8748
 31
0.0
  0
LINE
  5
1a9
100
AcDbEntity
  8
0
100
AcDbLine
 62
     253
 10
170.583
 20
78.8748
 30
0.0
 11
161.083
 21
78.8748
 31
0.0
  0
LINE
  5
1aa
100
AcDbEntity
  8
0
100
AcDbLine
 62
     253
 10
171.582
 20
77.8743
 30
0.0
 11
170.583
 21
78.8748
 31
0.0
  0
SPLINE
  5
1ab
100
AcDbEntity
  8
0
100
AcDbSpline
210
0.0
220
0.0
230
1.0
 62
     253
 70
     0
 71
     3
 72
     8
 73
4
 40
0.0
 40
0.0
 40
0.0
 40
0.0
 40
1.0
 40
1.0
 40
1.0
 40
1.0
 10
168.582
 20
74.8743
 30
0.0
 10
168.582
 20
74.3218
 30
0.0
 10
168.136
 20
73.8738
 30
0.0
 10
167.583
 20
73.8738
 30
0.0
  0
SPLINE
  5
1ac
100
AcDbEntity
  8
0
100
AcDbSpline
210
0.0
220
0.0
230
1.0
 62
     253
 70
     0
 71
     3
 72
     8
 73
4
 40
0.0
 40
0.0
 40
0.0
 40
0.0
 40
1.0
 40
1.0
 40
1.0
 40
1.0
 10
167.583
 20
73.8738
 30
0.0
 10
167.031
 20
73.8738
 30
0.0
 10
166.583
 20
74.3218
 30
0.0
 10
166.583
 20
74.8743
 30
0.0
  0
SPLINE
  5
1ad
100
AcDbEntity
  8
0
100
AcDbSpline
210
0.0
220
0.0
230
1.0
 62
     253
 70
     0
 71
     3
 72
     8
 73
4
 40
0.0
 40
0.0
 40
0.0
 40
0.0
 40
1.0
 40
1.0
 40
1.0
 40
1.0
 10
166.583
 20
74.8743
 30
0.0
 10
166.583
 20
75.4271
 30
0.0
 10
167.031
 20
75.8747
 30
0.0
 10
167.583
 20
75.8747
 30
0.0
  0
SPLINE
  5
1ae
100
AcDbEntity
  8
0
100
AcDbSpline
210
0.0
220
0.0
230
1.0
 62
     253
 70
     0
 71
     3
 72
     8
 73
4
 40
0.0
 40
0.0
 40
0.0
 40
0.0
 40
1.0
 40
1.0
 40
1.0
 40
1.0
 10
167.583
 20
75.8747
 30
0.0
 10
168.136
 20
75.8747
 30
0.0
 10
168.582
 20
75.4271
 30
0.0
 10
168.582
 20
74.8743
 30
0.0
  0
SPLINE
  5
1af
100
AcDbEntity
  8
0
100
AcDbSpline
210
0.0
220
0.0
230
1.0
 62
     253
 70
     0
 71
     3
 72
     8
 73
4
 40
0.0
 40
0.0
 40
0.0
 40
0.0
 40
1.0
 40
1.0
 40
1.0
 40
1.0
 10
168.582
 20
49.874
 30
0.0
 10
168.582
 20
49.3229
 30
0.0
 10
168.136
 20
48.8749
 30
0.0
 10
167.583
 20
48.8749
 30
0.0
  0
SPLINE
  5
1b0
100
AcDbEntity
  8
0
100
AcDbSpline
210
0.0
220
0.0
230
1.0
 62
     253
 70
     0
 71
     3
 72
     8
 73
4
 40
0.0
 40
0.0
 40
0.0
 40
0.0
 40
1.0
 40
1.0
 40
1.0
 40
1.0
 10
167.583
 20
48.8749
 30
0.0
 10
167.031
 20
48.8749
 30
0.0
 10
166.583
 20
49.3229
 30
0.0
 10
166.583
 20
49.874
 30
0.0
  0
SPLINE
  5
1b1
100
AcDbEntity
  8
0
100
AcDbSpline
210
0.0
220
0.0
230
1.0
 62
     253
 70
     0
 71
     3
 72
     8
 73
4
 40
0.0
 40
0.0
 40
0.0
 40
0.0
 40
1.0
 40
1.0
 40
1.0
 40
1.0
 10
166.583
 20
49.874
 30
0.0
 10
166.583
 20
50.4264
 30
0.0
 10
167.031
 20
50.8744
 30
0.0
 10
167.583
 20
50.8744
 30
0.0
  0
SPLINE
  5
1b2
100
AcDbEntity
  8
0
100
AcDbSpline
210
0.0
220
0.0
230
1.0
 62
     253
 70
     0
 71
     3
 72
     8
 73
4
 40
0.0
 40
0.0
 40
0.0
 40
0.0
 40
1.0
 40
1.0
 40
1.0
 40
1.0
 10
167.583
 20
50.8744
 30
0.0
 10
168.136
 20
50.8744
 30
0.0
 10
168.582
 20
50.4264
 30
0.0
 10
168.582
 20
49.874
 30
0.0
  0
LINE
  5
1b3
100
AcDbEntity
  8
0
100
AcDbLine
 62
     253
 10
149.583
 20
45.8749
 30
0.0
 11
159.083
 21
45.8749
 31
0.0
  0
LINE
  5
1b4
100
AcDbEntity
  8
0
100
AcDbLine
 62
     253
 10
159.083
 20
45.8749
 30
0.0
 11
161.083
 21
45.8749
 31
0.0
  0
LINE
  5
1b5
100
AcDbEntity
  8
0
100
AcDbLine
 62
     253
 10
161.083
 20
39.8748
 30
0.0
 11
161.083
 21
40.8739
 31
0.0
  0
LINE
  5
1b6
100
AcDbEntity
  8
0
100
AcDbLine
 62
     253
 10
161.083
 20
40.8739
 30
0.0
 11
161.083
 21
101.874
 31
0.0
  0
LINE
  5
1b7
100
AcDbEntity
  8
0
100
AcDbLine
 62
     253
 10
161.083
 20
101.874
 30
0.0
 11
161.083
 21
102.875
 31
0.0
  0
LINE
  5
1b8
100
AcDbEntity
  8
0
100
AcDbLine
 62
     253
 10
161.083
 20
53.3742
 30
0.0
 11
161.083
 21
54.3747
 31
0.0
  0
LINE
  5
1b9
100
AcDbEntity
  8
0
100
AcDbLine
 62
     253
 10
161.083
 20
54.3747
 30
0.0
 11
161.083
 21
52.3752
 31
0.0
  0
LINE
  5
1ba
100
AcDbEntity
  8
0
100
AcDbLine
 62
     253
 10
161.083
 20
52.3752
 30
0.0
 11
161.083
 21
53.3742
 31
0.0
  0
LINE
  5
1bb
100
AcDbEntity
  8
0
100
AcDbLine
 62
     253
 10
161.083
 20
44.3742
 30
0.0
 11
161.083
 21
45.3746
 31
0.0
  0
LINE
  5
1bc
100
AcDbEntity
  8
0
100
AcDbLine
 62
     253
 10
161.083
 20
45.3746
 30
0.0
 11
161.083
 21
43.3737
 31
0.0
  0
LINE
  5
1bd
100
AcDbEntity
  8
0
100
AcDbLine
 62
     253
 10
161.083
 20
43.3737
 30
0.0
 11
161.083
 21
44.3742
 31
0.0
  0
LINE
  5
1be
100
AcDbEntity
  8
0
100
AcDbLine
 62
     253
 10
161.083
 20
98.3739
 30
0.0
 11
161.083
 21
99.3743
 31
0.0
  0
LINE
  5
1bf
100
AcDbEntity
  8
0
100
AcDbLine
 62
     253
 10
161.083
 20
99.3743
 30
0.0
 11
161.083
 21
97.3748
 31
0.0
  0
LINE
  5
1c0
100
AcDbEntity
  8
0
100
AcDbLine
 62
     253
 10
161.083
 20
97.3748
 30
0.0
 11
161.083
 21
98.3739
 31
0.0
  0
LINE
  5
1c1
100
AcDbEntity
  8
0
100
AcDbLine
 62
     253
 10
161.083
 20
89.3741
 30
0.0
 11
161.083
 21
90.3746
 31
0.0
  0
LINE
  5
1c2
100
AcDbEntity
  8
0
100
AcDbLine
 62
     253
 10
161.083
 20
90.3746
 30
0.0
 11
161.083
 21
88.3751
 31
0.0
  0
LINE
  5
1c3
100
AcDbEntity
  8
0
100
AcDbLine
 62
     253
 10
161.083
 20
88.3751
 30
0.0
 11
161.083
 21
89.3741
 31
0.0
  0
LINE
  5
1c4
100
AcDbEntity
  8
0
100
AcDbLine
 62
     253
 10
159.083
 20
78.8748
 30
0.0
 11
149.583
 21
78.8748
 31
0.0
  0
LINE
  5
1c5
100
AcDbEntity
  8
0
100
AcDbLine
 62
     253
 10
161.083
 20
78.8748
 30
0.0
 11
159.083
 21
78.8748
 31
0.0
  0
LINE
  5
1c6
100
AcDbEntity
  8
0
100
AcDbLine
 62
     253
 10
149.583
 20
45.8749
 30
0.0
 11
148.583
 21
46.8739
 31
0.0
  0
LINE
  5
1c7
100
AcDbEntity
  8
0
100
AcDbLine
 62
     253
 10
148.583
 20
46.8739
 30
0.0
 11
148.583
 21
77.8743
 31
0.0
  0
LINE
  5
1c8
100
AcDbEntity
  8
0
100
AcDbLine
 62
     253
 10
149.583
 20
78.8748
 30
0.0
 11
148.583
 21
77.8743
 31
0.0
  0
SPLINE
  5
1c9
100
AcDbEntity
  8
0
100
AcDbSpline
210
0.0
220
0.0
230
1.0
 62
     253
 70
     0
 71
     3
 72
     8
 73
4
 40
0.0
 40
0.0
 40
0.0
 40
0.0
 40
1.0
 40
1.0
 40
1.0
 40
1.0
 10
153.583
 20
49.874
 30
0.0
 10
153.583
 20
49.3229
 30
0.0
 10
153.136
 20
48.8749
 30
0.0
 10
152.583
 20
48.8749
 30
0.0
  0
SPLINE
  5
1ca
100
AcDbEntity
  8
0
100
AcDbSpline
210
0.0
220
0.0
230
1.0
 62
     253
 70
     0
 71
     3
 72
     8
 73
4
 40
0.0
 40
0.0
 40
0.0
 40
0.0
 40
1.0
 40
1.0
 40
1.0
 40
1.0
 10
152.583
 20
48.8749
 30
0.0
 10
152.031
 20
48.8749
 30
0.0
 10
151.583
 20
49.3229
 30
0.0
 10
151.583
 20
49.874
 30
0.0
  0
SPLINE
  5
1cb
100
AcDbEntity
  8
0
100
AcDbSpline
210
0.0
220
0.0
230
1.0
 62
     253
 70
     0
 71
     3
 72
     8
 73
4
 40
0.0
 40
0.0
 40
0.0
 40
0.0
 40
1.0
 40
1.0
 40
1.0
 40
1.0
 10
151.583
 20
49.874
 30
0.0
 10
151.583
 20
50.4264
 30
0.0
 10
152.031
 20
50.8744
 30
0.0
 10
152.583
 20
50.8744
 30
0.0
  0
SPLINE
  5
1cc
100
AcDbEntity
  8
0
100
AcDbSpline
210
0.0
220
0.0
230
1.0
 62
     253
 70
     0
 71
     3
 72
     8
 73
4
 40
0.0
 40
0.0
 40
0.0
 40
0.0
 40
1.0
 40
1.0
 40
1.0
 40
1.0
 10
152.583
 20
50.8744
 30
0.0
 10
153.136
 20
50.8744
 30
0.0
 10
153.583
 20
50.4264
 30
0.0
 10
153.583
 20
49.874
 30
0.0
  0
SPLINE
  5
1cd
100
AcDbEntity
  8
0
100
AcDbSpline
210
0.0
220
0.0
230
1.0
 62
     253
 70
     0
 71
     3
 72
     8
 73
4
 40
0.0
 40
0.0
 40
0.0
 40
0.0
 40
1.0
 40
1.0
 40
1.0
 40
1.0
 10
153.583
 20
74.8743
 30
0.0
 10
153.583
 20
74.3218
 30
0.0
 10
153.136
 20
73.8738
 30
0.0
 10
152.583
 20
73.8738
 30
0.0
  0
SPLINE
  5
1ce
100
AcDbEntity
  8
0
100
AcDbSpline
210
0.0
220
0.0
230
1.0
 62
     253
 70
     0
 71
     3
 72
     8
 73
4
 40
0.0
 40
0.0
 40
0.0
 40
0.0
 40
1.0
 40
1.0
 40
1.0
 40
1.0
 10
152.583
 20
73.8738
 30
0.0
 10
152.031
 20
73.8738
 30
0.0
 10
151.583
 20
74.3218
 30
0.0
 10
151.583
 20
74.8743
 30
0.0
  0
SPLINE
  5
1cf
100
AcDbEntity
  8
0
100
AcDbSpline
210
0.0
220
0.0
230
1.0
 62
     253
 70
     0
 71
     3
 72
     8
 73
4
 40
0.0
 40
0.0
 40
0.0
 40
0.0
 40
1.0
 40
1.0
 40
1.0
 40
1.0
 10
151.583
 20
74.8743
 30
0.0
 10
151.583
 20
75.4271
 30
0.0
 10
152.031
 20
75.8747
 30
0.0
 10
152.583
 20
75.8747
 30
0.0
  0
SPLINE
  5
1d0
100
AcDbEntity
  8
0
100
AcDbSpline
210
0.0
220
0.0
230
1.0
 62
     253
 70
     0
 71
     3
 72
     8
 73
4
 40
0.0
 40
0.0
 40
0.0
 40
0.0
 40
1.0
 40
1.0
 40
1.0
 40
1.0
 10
152.583
 20
75.8747
 30
0.0
 10
153.136
 20
75.8747
 30
0.0
 10
153.583
 20
75.4271
 30
0.0
 10
153.583
 20
74.8743
 30
0.0
  0
LINE
  5
1d1
100
AcDbEntity
  8
0
100
AcDbLine
 62
     253
 10
159.083
 20
45.8749
 30
0.0
 11
159.083
 21
78.8748
 31
0.0
  0
LINE
  5
1d2
100
AcDbEntity
  8
0
100
AcDbLine
 62
     253
 10
161.083
 20
39.8748
 30
0.0
 11
159.083
 21
39.8748
 31
0.0
  0
LINE
  5
1d3
100
AcDbEntity
  8
0
100
AcDbLine
 62
     253
 10
161.083
 20
40.8739
 30
0.0
 11
159.083
 21
40.8739
 31
0.0
  0
LINE
  5
1d4
100
AcDbEntity
  8
0
100
AcDbLine
 62
     253
 10
159.083
 20
39.8748
 30
0.0
 11
159.083
 21
40.8739
 31
0.0
  0
LINE
  5
1d5
100
AcDbEntity
  8
0
100
AcDbLine
 62
     253
 10
161.083
 20
101.874
 30
0.0
 11
159.083
 21
101.874
 31
0.0
  0
LINE
  5
1d6
100
AcDbEntity
  8
0
100
AcDbLine
 62
     253
 10
159.083
 20
40.8739
 30
0.0
 11
159.083
 21
101.874
 31
0.0
  0
LINE
  5
1d7
100
AcDbEntity
  8
0
100
AcDbLine
 62
     253
 10
161.083
 20
102.875
 30
0.0
 11
159.083
 21
102.875
 31
0.0
  0
LINE
  5
1d8
100
AcDbEntity
  8
0
100
AcDbLine
 62
     253
 10
159.083
 20
101.874
 30
0.0
 11
159.083
 21
102.875
 31
0.0
  0
LINE
  5
1d9
100
AcDbEntity
  8
0
100
AcDbLine
 62
     253
 10
159.083
 20
53.3742
 30
0.0
 11
159.083
 21
54.3747
 31
0.0
  0
LINE
  5
1da
100
AcDbEntity
  8
0
100
AcDbLine
 62
     253
 10
159.083
 20
54.3747
 30
0.0
 11
159.083
 21
52.3752
 31
0.0
  0
LINE
  5
1db
100
AcDbEntity
  8
0
100
AcDbLine
 62
     253
 10
159.083
 20
52.3752
 30
0.0
 11
159.083
 21
53.3742
 31
0.0
  0
LINE
  5
1dc
100
AcDbEntity
  8
0
100
AcDbLine
 62
     253
 10
159.083
 20
44.3742
 30
0.0
 11
159.083
 21
45.3746
 31
0.0
  0
LINE
  5
1dd
100
AcDbEntity
  8
0
100
AcDbLine
 62
     253
 10
159.083
 20
45.3746
 30
0.0
 11
159.083
 21
43.3737
 31
0.0
  0
LINE
  5
1de
100
AcDbEntity
  8
0
100
AcDbLine
 62
     253
 10
159.083
 20
43.3737
 30
0.0
 11
159.083
 21
44.3742
 31
0.0
  0
LINE
  5
1df
100
AcDbEntity
  8
0
100
AcDbLine
 62
     253
 10
159.083
 20
98.3739
 30
0.0
 11
159.083
 21
99.3743
 31
0.0
  0
LINE
  5
1e0
100
AcDbEntity
  8
0
100
AcDbLine
 62
     253
 10
159.083
 20
99.3743
 30
0.0
 11
159.083
 21
97.3748
 31
0.0
  0
LINE
  5
1e1
100
AcDbEntity
  8
0
100
AcDbLine
 62
     253
 10
159.083
 20
97.3748
 30
0.0
 11
159.083
 21
98.3739
 31
0.0
  0
LINE
  5
1e2
100
AcDbEntity
  8
0
100
AcDbLine
 62
     253
 10
159.083
 20
89.3741
 30
0.0
 11
159.083
 21
90.3746
 31
0.0
  0
LINE
  5
1e3
100
AcDbEntity
  8
0
100
AcDbLine
 62
     253
 10
159.083
 20
90.3746
 30
0.0
 11
159.083
 21
88.3751
 31
0.0
  0
LINE
  5
1e4
100
AcDbEntity
  8
0
100
AcDbLine
 62
     253
 10
159.083
 20
88.3751
 30
0.0
 11
159.083
 21
89.3741
 31
0.0
  0
SPLINE
  5
1e5
100
AcDbEntity
  8
0
100
AcDbSpline
210
0.0
220
0.0
230
1.0
 62
     253
 70
     0
 71
     3
 72
     8
 73
4
 40
0.0
 40
0.0
 40
0.0
 40
0.0
 40
1.0
 40
1.0
 40
1.0
 40
1.0
 10
160.082
 20
94.3751
 30
0.0
 10
159.807
 20
94.3751
 30
0.0
 10
159.582
 20
94.1504
 30
0.0
 10
159.582
 20
93.8749
 30
0.0
  0
SPLINE
  5
1e6
100
AcDbEntity
  8
0
100
AcDbSpline
210
0.0
220
0.0
230
1.0
 62
     253
 70
     0
 71
     3
 72
     8
 73
4
 40
0.0
 40
0.0
 40
0.0
 40
0.0
 40
1.0
 40
1.0
 40
1.0
 40
1.0
 10
159.582
 20
93.8749
 30
0.0
 10
159.582
 20
93.5976
 30
0.0
 10
159.807
 20
93.3746
 30
0.0
 10
160.082
 20
93.3746
 30
0.0
  0
SPLINE
  5
1e7
100
AcDbEntity
  8
0
100
AcDbSpline
210
0.0
220
0.0
230
1.0
 62
     253
 70
     0
 71
     3
 72
     8
 73
4
 40
0.0
 40
0.0
 40
0.0
 40
0.0
 40
1.0
 40
1.0
 40
1.0
 40
1.0
 10
160.082
 20
93.3746
 30
0.0
 10
160.36
 20
93.3746
 30
0.0
 10
160.583
 20
93.5976
 30
0.0
 10
160.583
 20
93.8749
 30
0.0
  0
SPLINE
  5
1e8
100
AcDbEntity
  8
0
100
AcDbSpline
210
0.0
220
0.0
230
1.0
 62
     253
 70
     0
 71
     3
 72
     8
 73
4
 40
0.0
 40
0.0
 40
0.0
 40
0.0
 40
1.0
 40
1.0
 40
1.0
 40
1.0
 10
160.583
 20
93.8749
 30
0.0
 10
160.583
 20
94.1504
 30
0.0
 10
160.36
 20
94.3751
 30
0.0
 10
160.082
 20
94.3751
 30
0.0
  0
LINE
  5
1e9
100
AcDbEntity
  8
0
100
AcDbLine
 62
     253
 10
159.083
 20
54.3747
 30
0.0
 11
161.083
 21
54.3747
 31
0.0
  0
LINE
  5
1ea
100
AcDbEntity
  8
0
100
AcDbLine
 62
     253
 10
159.083
 20
52.3752
 30
0.0
 11
161.083
 21
52.3752
 31
0.0
  0
LINE
  5
1eb
100
AcDbEntity
  8
0
100
AcDbLine
 62
     253
 10
159.083
 20
45.3746
 30
0.0
 11
161.083
 21
45.3746
 31
0.0
  0
LINE
  5
1ec
100
AcDbEntity
  8
0
100
AcDbLine
 62
     253
 10
159.083
 20
43.3737
 30
0.0
 11
161.083
 21
43.3737
 31
0.0
  0
LINE
  5
1ed
100
AcDbEntity
  8
0
100
AcDbLine
 62
     253
 10
159.083
 20
99.3743
 30
0.0
 11
161.083
 21
99.3743
 31
0.0
  0
LINE
  5
1ee
100
AcDbEntity
  8
0
100
AcDbLine
 62
     253
 10
159.083
 20
97.3748
 30
0.0
 11
161.083
 21
97.3748
 31
0.0
  0
LINE
  5
1ef
100
AcDbEntity
  8
0
100
AcDbLine
 62
     253
 10
159.083
 20
90.3746
 30
0.0
 11
161.083
 21
90.3746
 31
0.0
  0
LINE
  5
1f0
100
AcDbEntity
  8
0
100
AcDbLine
 62
     253
 10
159.083
 20
88.3751
 30
0.0
 11
161.083
 21
88.3751
 31
0.0
  0
LINE
  5
1f1
100
AcDbEntity
  8
0
100
AcDbLine
 62
     253
 10
52.5833
 20
13.2746
 30
0.0
 11
52.5833
 21
14.4749
 31
0.0
  0
LINE
  5
1f2
100
AcDbEntity
  8
0
100
AcDbLine
 62
     253
 10
63.0823
 20
13.2746
 30
0.0
 11
53.5824
 21
13.2746
 31
0.0
  0
LINE
  5
1f3
100
AcDbEntity
  8
0
100
AcDbLine
 62
     253
 10
52.5833
 20
13.2746
 30
0.0
 11
53.5824
 21
13.2746
 31
0.0
  0
LINE
  5
1f4
100
AcDbEntity
  8
0
100
AcDbLine
 62
     253
 10
57.5829
 20
13.2746
 30
0.0
 11
55.5833
 21
13.2746
 31
0.0
  0
LINE
  5
1f5
100
AcDbEntity
  8
0
100
AcDbLine
 62
     253
 10
55.5833
 20
13.2746
 30
0.0
 11
57.5829
 21
13.2746
 31
0.0
  0
LINE
  5
1f6
100
AcDbEntity
  8
0
100
AcDbLine
 62
     253
 10
57.5829
 20
13.2746
 30
0.0
 11
55.5833
 21
13.2746
 31
0.0
  0
LINE
  5
1f7
100
AcDbEntity
  8
0
100
AcDbLine
 62
     253
 10
55.5833
 20
13.2746
 30
0.0
 11
57.5829
 21
13.2746
 31
0.0
  0
LINE
  5
1f8
100
AcDbEntity
  8
0
100
AcDbLine
 62
     253
 10
53.5824
 20
13.2746
 30
0.0
 11
53.5824
 21
14.4749
 31
0.0
  0
LINE
  5
1f9
100
AcDbEntity
  8
0
100
AcDbLine
 62
     253
 10
52.5833
 20
14.4749
 30
0.0
 11
53.5824
 21
14.4749
 31
0.0
  0
LINE
  5
1fa
100
AcDbEntity
  8
0
100
AcDbLine
 62
     253
 10
53.5824
 20
14.4749
 30
0.0
 11
74.5836
 21
14.4749
 31
0.0
  0
LINE
  5
1fb
100
AcDbEntity
  8
0
100
AcDbLine
 62
     253
 10
74.5836
 20
14.4749
 30
0.0
 11
75.5826
 21
14.4749
 31
0.0
  0
LINE
  5
1fc
100
AcDbEntity
  8
0
100
AcDbLine
 62
     253
 10
57.5829
 20
14.4749
 30
0.0
 11
55.5833
 21
14.4749
 31
0.0
  0
LINE
  5
1fd
100
AcDbEntity
  8
0
100
AcDbLine
 62
     253
 10
55.5833
 20
14.4749
 30
0.0
 11
57.5829
 21
14.4749
 31
0.0
  0
LINE
  5
1fe
100
AcDbEntity
  8
0
100
AcDbLine
 62
     253
 10
72.5826
 20
14.4749
 30
0.0
 11
70.5831
 21
14.4749
 31
0.0
  0
LINE
  5
1ff
100
AcDbEntity
  8
0
100
AcDbLine
 62
     253
 10
70.5831
 20
14.4749
 30
0.0
 11
72.5826
 21
14.4749
 31
0.0
  0
LINE
  5
200
100
AcDbEntity
  8
0
100
AcDbLine
 62
     253
 10
72.5826
 20
14.4749
 30
0.0
 11
70.5831
 21
14.4749
 31
0.0
  0
LINE
  5
201
100
AcDbEntity
  8
0
100
AcDbLine
 62
     253
 10
70.5831
 20
14.4749
 30
0.0
 11
72.5826
 21
14.4749
 31
0.0
  0
LINE
  5
202
100
AcDbEntity
  8
0
100
AcDbLine
 62
     253
 10
57.5829
 20
14.4749
 30
0.0
 11
55.5833
 21
14.4749
 31
0.0
  0
LINE
  5
203
100
AcDbEntity
  8
0
100
AcDbLine
 62
     253
 10
55.5833
 20
14.4749
 30
0.0
 11
57.5829
 21
14.4749
 31
0.0
  0
LINE
  5
204
100
AcDbEntity
  8
0
100
AcDbLine
 62
     253
 10
74.5836
 20
14.4749
 30
0.0
 11
74.5836
 21
13.2746
 31
0.0
  0
LINE
  5
205
100
AcDbEntity
  8
0
100
AcDbLine
 62
     253
 10
74.5836
 20
13.2746
 30
0.0
 11
65.0833
 21
13.2746
 31
0.0
  0
LINE
  5
206
100
AcDbEntity
  8
0
100
AcDbLine
 62
     253
 10
65.0833
 20
13.2746
 30
0.0
 11
63.0823
 21
13.2746
 31
0.0
  0
LINE
  5
207
100
AcDbEntity
  8
0
100
AcDbLine
 62
     253
 10
63.0823
 20
13.2746
 30
0.0
 11
63.0823
 21
12.2742
 31
0.0
  0
LINE
  5
208
100
AcDbEntity
  8
0
100
AcDbLine
 62
     253
 10
63.0823
 20
12.2742
 30
0.0
 11
63.0823
 21
3.27422
 31
0.0
  0
LINE
  5
209
100
AcDbEntity
  8
0
100
AcDbLine
 62
     253
 10
63.0823
 20
3.27422
 30
0.0
 11
63.0823
 21
2.27376
 31
0.0
  0
LINE
  5
20a
100
AcDbEntity
  8
0
100
AcDbLine
 62
     253
 10
63.0823
 20
6.27422
 30
0.0
 11
63.0823
 21
8.27373
 31
0.0
  0
LINE
  5
20b
100
AcDbEntity
  8
0
100
AcDbLine
 62
     253
 10
63.0823
 20
8.27373
 30
0.0
 11
63.0823
 21
6.27422
 31
0.0
  0
LINE
  5
20c
100
AcDbEntity
  8
0
100
AcDbLine
 62
     253
 10
63.0823
 20
6.27422
 30
0.0
 11
63.0823
 21
8.27373
 31
0.0
  0
LINE
  5
20d
100
AcDbEntity
  8
0
100
AcDbLine
 62
     253
 10
63.0823
 20
8.27373
 30
0.0
 11
63.0823
 21
6.27422
 31
0.0
  0
LINE
  5
20e
100
AcDbEntity
  8
0
100
AcDbLine
 62
     253
 10
63.0823
 20
6.27422
 30
0.0
 11
63.0823
 21
8.27373
 31
0.0
  0
LINE
  5
20f
100
AcDbEntity
  8
0
100
AcDbLine
 62
     253
 10
63.0823
 20
8.27373
 30
0.0
 11
63.0823
 21
6.27422
 31
0.0
  0
LINE
  5
210
100
AcDbEntity
  8
0
100
AcDbLine
 62
     253
 10
63.0823
 20
6.27422
 30
0.0
 11
63.0823
 21
8.27373
 31
0.0
  0
LINE
  5
211
100
AcDbEntity
  8
0
100
AcDbLine
 62
     253
 10
63.0823
 20
8.27373
 30
0.0
 11
63.0823
 21
6.27422
 31
0.0
  0
LINE
  5
212
100
AcDbEntity
  8
0
100
AcDbLine
 62
     253
 10
63.0823
 20
13.2746
 30
0.0
 11
65.0833
 21
13.2746
 31
0.0
  0
LINE
  5
213
100
AcDbEntity
  8
0
100
AcDbLine
 62
     253
 10
57.5829
 20
13.2746
 30
0.0
 11
57.5829
 21
14.4749
 31
0.0
  0
LINE
  5
214
100
AcDbEntity
  8
0
100
AcDbLine
 62
     253
 10
57.5829
 20
13.2746
 30
0.0
 11
57.5829
 21
14.4749
 31
0.0
  0
LINE
  5
215
100
AcDbEntity
  8
0
100
AcDbLine
 62
     253
 10
75.5826
 20
14.4749
 30
0.0
 11
75.5826
 21
13.2746
 31
0.0
  0
LINE
  5
216
100
AcDbEntity
  8
0
100
AcDbLine
 62
     253
 10
74.5836
 20
13.2746
 30
0.0
 11
75.5826
 21
13.2746
 31
0.0
  0
LINE
  5
217
100
AcDbEntity
  8
0
100
AcDbLine
 62
     253
 10
72.5826
 20
13.2746
 30
0.0
 11
70.5831
 21
13.2746
 31
0.0
  0
LINE
  5
218
100
AcDbEntity
  8
0
100
AcDbLine
 62
     253
 10
70.5831
 20
13.2746
 30
0.0
 11
72.5826
 21
13.2746
 31
0.0
  0
LINE
  5
219
100
AcDbEntity
  8
0
100
AcDbLine
 62
     253
 10
72.5826
 20
13.2746
 30
0.0
 11
72.5826
 21
14.4749
 31
0.0
  0
LINE
  5
21a
100
AcDbEntity
  8
0
100
AcDbLine
 62
     253
 10
72.5826
 20
13.2746
 30
0.0
 11
70.5831
 21
13.2746
 31
0.0
  0
LINE
  5
21b
100
AcDbEntity
  8
0
100
AcDbLine
 62
     253
 10
70.5831
 20
13.2746
 30
0.0
 11
72.5826
 21
13.2746
 31
0.0
  0
LINE
  5
21c
100
AcDbEntity
  8
0
100
AcDbLine
 62
     253
 10
72.5826
 20
13.2746
 30
0.0
 11
72.5826
 21
14.4749
 31
0.0
  0
LINE
  5
21d
100
AcDbEntity
  8
0
100
AcDbLine
 62
     253
 10
65.0833
 20
13.2746
 30
0.0
 11
63.0823
 21
13.2746
 31
0.0
  0
LINE
  5
21e
100
AcDbEntity
  8
0
100
AcDbLine
 62
     253
 10
65.0833
 20
13.2746
 30
0.0
 11
65.0833
 21
12.2742
 31
0.0
  0
LINE
  5
21f
100
AcDbEntity
  8
0
100
AcDbLine
 62
     253
 10
65.0833
 20
12.2742
 30
0.0
 11
63.0823
 21
12.2742
 31
0.0
  0
LINE
  5
220
100
AcDbEntity
  8
0
100
AcDbLine
 62
     253
 10
65.0833
 20
3.27422
 30
0.0
 11
65.0833
 21
12.2742
 31
0.0
  0
LINE
  5
221
100
AcDbEntity
  8
0
100
AcDbLine
 62
     253
 10
63.0823
 20
3.27422
 30
0.0
 11
65.0833
 21
3.27422
 31
0.0
  0
SPLINE
  5
222
100
AcDbEntity
  8
0
100
AcDbSpline
210
0.0
220
0.0
230
1.0
 62
     253
 70
     0
 71
     3
 72
     8
 73
4
 40
0.0
 40
0.0
 40
0.0
 40
0.0
 40
1.0
 40
1.0
 40
1.0
 40
1.0
 10
64.583
 20
13.2746
 30
0.0
 10
64.5816
 20
13.2746
 30
0.0
 10
64.5389
 20
13.2746
 30
0.0
 10
64.4564
 20
13.2746
 30
0.0
  0
SPLINE
  5
223
100
AcDbEntity
  8
0
100
AcDbSpline
210
0.0
220
0.0
230
1.0
 62
     253
 70
     0
 71
     3
 72
     8
 73
4
 40
0.0
 40
0.0
 40
0.0
 40
0.0
 40
1.0
 40
1.0
 40
1.0
 40
1.0
 10
64.4564
 20
13.2746
 30
0.0
 10
64.3558
 20
13.2746
 30
0.0
 10
64.2027
 20
13.2746
 30
0.0
 10
64.0514
 20
13.2746
 30
0.0
  0
SPLINE
  5
224
100
AcDbEntity
  8
0
100
AcDbSpline
210
0.0
220
0.0
230
1.0
 62
     253
 70
     0
 71
     3
 72
     8
 73
4
 40
0.0
 40
0.0
 40
0.0
 40
0.0
 40
1.0
 40
1.0
 40
1.0
 40
1.0
 10
64.0514
 20
13.2746
 30
0.0
 10
63.7963
 20
13.2746
 30
0.0
 10
63.5773
 20
13.2746
 30
0.0
 10
63.5825
 20
13.2746
 30
0.0
  0
SPLINE
  5
225
100
AcDbEntity
  8
0
100
AcDbSpline
210
0.0
220
0.0
230
1.0
 62
     253
 70
     0
 71
     3
 72
     8
 73
4
 40
0.0
 40
0.0
 40
0.0
 40
0.0
 40
1.0
 40
1.0
 40
1.0
 40
1.0
 10
63.5825
 20
13.2746
 30
0.0
 10
63.5825
 20
13.2746
 30
0.0
 10
63.6461
 20
13.2746
 30
0.0
 10
63.7551
 20
13.2746
 30
0.0
  0
SPLINE
  5
226
100
AcDbEntity
  8
0
100
AcDbSpline
210
0.0
220
0.0
230
1.0
 62
     253
 70
     0
 71
     3
 72
     8
 73
4
 40
0.0
 40
0.0
 40
0.0
 40
0.0
 40
1.0
 40
1.0
 40
1.0
 40
1.0
 10
63.7551
 20
13.2746
 30
0.0
 10
63.8457
 20
13.2746
 30
0.0
 10
63.9671
 20
13.2746
 30
0.0
 10
64.0898
 20
13.2746
 30
0.0
  0
SPLINE
  5
227
100
AcDbEntity
  8
0
100
AcDbSpline
210
0.0
220
0.0
230
1.0
 62
     253
 70
     0
 71
     3
 72
     8
 73
4
 40
0.0
 40
0.0
 40
0.0
 40
0.0
 40
1.0
 40
1.0
 40
1.0
 40
1.0
 10
64.0898
 20
13.2746
 30
0.0
 10
64.2112
 20
13.2746
 30
0.0
 10
64.3308
 20
13.2746
 30
0.0
 10
64.4204
 20
13.2746
 30
0.0
  0
SPLINE
  5
228
100
AcDbEntity
  8
0
100
AcDbSpline
210
0.0
220
0.0
230
1.0
 62
     253
 70
     0
 71
     3
 72
     8
 73
4
 40
0.0
 40
0.0
 40
0.0
 40
0.0
 40
1.0
 40
1.0
 40
1.0
 40
1.0
 10
64.4204
 20
13.2746
 30
0.0
 10
64.5223
 20
13.2746
 30
0.0
 10
64.583
 20
13.2746
 30
0.0
 10
64.583
 20
13.2746
 30
0.0
  0
LINE
  5
229
100
AcDbEntity
  8
0
100
AcDbLine
 62
     253
 10
63.0823
 20
2.27376
 30
0.0
 11
65.0833
 21
2.27376
 31
0.0
  0
LINE
  5
22a
100
AcDbEntity
  8
0
100
AcDbLine
 62
     253
 10
65.0833
 20
3.27422
 30
0.0
 11
65.0833
 21
2.27376
 31
0.0
  0
LINE
  5
22b
100
AcDbEntity
  8
0
100
AcDbLine
 62
     253
 10
63.0823
 20
6.27422
 30
0.0
 11
65.0833
 21
6.27422
 31
0.0
  0
LINE
  5
22c
100
AcDbEntity
  8
0
100
AcDbLine
 62
     253
 10
65.0833
 20
6.27422
 30
0.0
 11
65.0833
 21
8.27373
 31
0.0
  0
LINE
  5
22d
100
AcDbEntity
  8
0
100
AcDbLine
 62
     253
 10
65.0833
 20
8.27373
 30
0.0
 11
65.0833
 21
6.27422
 31
0.0
  0
LINE
  5
22e
100
AcDbEntity
  8
0
100
AcDbLine
 62
     253
 10
63.0823
 20
6.27422
 30
0.0
 11
65.0833
 21
6.27422
 31
0.0
  0
LINE
  5
22f
100
AcDbEntity
  8
0
100
AcDbLine
 62
     253
 10
65.0833
 20
6.27422
 30
0.0
 11
65.0833
 21
8.27373
 31
0.0
  0
LINE
  5
230
100
AcDbEntity
  8
0
100
AcDbLine
 62
     253
 10
65.0833
 20
8.27373
 30
0.0
 11
65.0833
 21
6.27422
 31
0.0
  0
LINE
  5
231
100
AcDbEntity
  8
0
100
AcDbLine
 62
     253
 10
63.0823
 20
6.27422
 30
0.0
 11
65.0833
 21
6.27422
 31
0.0
  0
LINE
  5
232
100
AcDbEntity
  8
0
100
AcDbLine
 62
     253
 10
65.0833
 20
6.27422
 30
0.0
 11
65.0833
 21
8.27373
 31
0.0
  0
LINE
  5
233
100
AcDbEntity
  8
0
100
AcDbLine
 62
     253
 10
65.0833
 20
8.27373
 30
0.0
 11
65.0833
 21
6.27422
 31
0.0
  0
LINE
  5
234
100
AcDbEntity
  8
0
100
AcDbLine
 62
     253
 10
63.0823
 20
6.27422
 30
0.0
 11
65.0833
 21
6.27422
 31
0.0
  0
LINE
  5
235
100
AcDbEntity
  8
0
100
AcDbLine
 62
     253
 10
65.0833
 20
6.27422
 30
0.0
 11
65.0833
 21
8.27373
 31
0.0
  0
LINE
  5
236
100
AcDbEntity
  8
0
100
AcDbLine
 62
     253
 10
65.0833
 20
8.27373
 30
0.0
 11
65.0833
 21
6.27422
 31
0.0
  0
LINE
  5
237
100
AcDbEntity
  8
0
100
AcDbLine
 62
     253
 10
64.583
 20
5.41433
 30
0.0
 11
63.5825
 21
5.41433
 31
0.0
  0
LINE
  5
238
100
AcDbEntity
  8
0
100
AcDbLine
 62
     253
 10
63.5825
 20
5.41433
 30
0.0
 11
64.583
 21
5.41433
 31
0.0
  0
LINE
  5
239
100
AcDbEntity
  8
0
100
AcDbLine
 62
     253
 10
64.583
 20
5.41433
 30
0.0
 11
64.583
 21
13.2746
 31
0.0
  0
LINE
  5
23a
100
AcDbEntity
  8
0
100
AcDbLine
 62
     253
 10
55.5833
 20
14.4749
 30
0.0
 11
55.5833
 21
13.2746
 31
0.0
  0
LINE
  5
23b
100
AcDbEntity
  8
0
100
AcDbLine
 62
     253
 10
55.5833
 20
14.4749
 30
0.0
 11
55.5833
 21
13.2746
 31
0.0
  0
LINE
  5
23c
100
AcDbEntity
  8
0
100
AcDbLine
 62
     253
 10
70.5831
 20
14.4749
 30
0.0
 11
70.5831
 21
13.2746
 31
0.0
  0
LINE
  5
23d
100
AcDbEntity
  8
0
100
AcDbLine
 62
     253
 10
70.5831
 20
14.4749
 30
0.0
 11
70.5831
 21
13.2746
 31
0.0
  0
LINE
  5
23e
100
AcDbEntity
  8
0
100
AcDbLine
 62
     253
 10
65.0833
 20
8.27373
 30
0.0
 11
63.0823
 21
8.27373
 31
0.0
  0
LINE
  5
23f
100
AcDbEntity
  8
0
100
AcDbLine
 62
     253
 10
65.0833
 20
8.27373
 30
0.0
 11
63.0823
 21
8.27373
 31
0.0
  0
LINE
  5
240
100
AcDbEntity
  8
0
100
AcDbLine
 62
     253
 10
65.0833
 20
8.27373
 30
0.0
 11
63.0823
 21
8.27373
 31
0.0
  0
LINE
  5
241
100
AcDbEntity
  8
0
100
AcDbLine
 62
     253
 10
65.0833
 20
8.27373
 30
0.0
 11
63.0823
 21
8.27373
 31
0.0
  0
LINE
  5
242
100
AcDbEntity
  8
0
100
AcDbLine
 62
     253
 10
63.5825
 20
5.41433
 30
0.0
 11
63.5825
 21
13.2746
 31
0.0
  0
LINE
  5
243
100
AcDbEntity
  8
0
100
AcDbLine
 62
     253
 10
7.5365
 20
4.71015
 30
0.0
 11
12.4244
 21
1.50068
 31
0.0
  0
LINE
  5
244
100
AcDbEntity
  8
0
100
AcDbLine
 62
     253
 10
7.5365
 20
4.71015
 30
0.0
 11
7.5365
 21
35.0407
 31
0.0
  0
SPLINE
  5
245
100
AcDbEntity
  8
0
100
AcDbSpline
210
0.0
220
0.0
230
1.0
 62
     253
 70
     0
 71
     3
 72
     8
 73
4
 40
0.0
 40
0.0
 40
0.0
 40
0.0
 40
1.0
 40
1.0
 40
1.0
 40
1.0
 10
10.3656
 20
29.5065
 30
0.0
 10
10.3656
 20
29.8538
 30
0.0
 10
10.4758
 20
30.1005
 30
0.0
 10
10.6509
 20
30.1418
 30
0.0
  0
SPLINE
  5
246
100
AcDbEntity
  8
0
100
AcDbSpline
210
0.0
220
0.0
230
1.0
 62
     253
 70
     0
 71
     3
 72
     8
 73
4
 40
0.0
 40
0.0
 40
0.0
 40
0.0
 40
1.0
 40
1.0
 40
1.0
 40
1.0
 10
10.6509
 20
30.1418
 30
0.0
 10
10.9044
 20
30.2011
 30
0.0
 10
11.2131
 20
29.8139
 30
0.0
 10
11.3412
 20
29.2764
 30
0.0
  0
SPLINE
  5
247
100
AcDbEntity
  8
0
100
AcDbSpline
210
0.0
220
0.0
230
1.0
 62
     253
 70
     0
 71
     3
 72
     8
 73
4
 40
0.0
 40
0.0
 40
0.0
 40
0.0
 40
1.0
 40
1.0
 40
1.0
 40
1.0
 10
11.3412
 20
29.2764
 30
0.0
 10
11.468
 20
28.739
 30
0.0
 10
11.3647
 20
28.2553
 30
0.0
 10
11.1111
 20
28.1947
 30
0.0
  0
SPLINE
  5
248
100
AcDbEntity
  8
0
100
AcDbSpline
210
0.0
220
0.0
230
1.0
 62
     253
 70
     0
 71
     3
 72
     8
 73
4
 40
0.0
 40
0.0
 40
0.0
 40
0.0
 40
1.0
 40
1.0
 40
1.0
 40
1.0
 10
11.1111
 20
28.1947
 30
0.0
 10
10.9513
 20
28.1575
 30
0.0
 10
10.7611
 20
28.2966
 30
0.0
 10
10.6095
 20
28.564
 30
0.0
  0
SPLINE
  5
249
100
AcDbEntity
  8
0
100
AcDbSpline
210
0.0
220
0.0
230
1.0
 62
     253
 70
     0
 71
     3
 72
     8
 73
4
 40
0.0
 40
0.0
 40
0.0
 40
0.0
 40
1.0
 40
1.0
 40
1.0
 40
1.0
 10
10.6095
 20
28.564
 30
0.0
 10
10.4579
 20
28.8313
 30
0.0
 10
10.3656
 20
29.1869
 30
0.0
 10
10.3656
 20
29.5065
 30
0.0
  0
SPLINE
  5
24a
100
AcDbEntity
  8
0
100
AcDbSpline
210
0.0
220
0.0
230
1.0
 62
     253
 70
     0
 71
     3
 72
     8
 73
4
 40
0.0
 40
0.0
 40
0.0
 40
0.0
 40
1.0
 40
1.0
 40
1.0
 40
1.0
 10
10.3656
 20
6.52914
 30
0.0
 10
10.3656
 20
6.87642
 30
0.0
 10
10.4758
 20
7.12308
 30
0.0
 10
10.6509
 20
7.16442
 30
0.0
  0
SPLINE
  5
24b
100
AcDbEntity
  8
0
100
AcDbSpline
210
0.0
220
0.0
230
1.0
 62
     253
 70
     0
 71
     3
 72
     8
 73
4
 40
0.0
 40
0.0
 40
0.0
 40
0.0
 40
1.0
 40
1.0
 40
1.0
 40
1.0
 10
10.6509
 20
7.16442
 30
0.0
 10
10.9044
 20
7.22369
 30
0.0
 10
11.2131
 20
6.83645
 30
0.0
 10
11.3412
 20
6.29902
 30
0.0
  0
SPLINE
  5
24c
100
AcDbEntity
  8
0
100
AcDbSpline
210
0.0
220
0.0
230
1.0
 62
     253
 70
     0
 71
     3
 72
     8
 73
4
 40
0.0
 40
0.0
 40
0.0
 40
0.0
 40
1.0
 40
1.0
 40
1.0
 40
1.0
 10
11.3412
 20
6.29902
 30
0.0
 10
11.468
 20
5.76157
 30
0.0
 10
11.3647
 20
5.27787
 30
0.0
 10
11.1111
 20
5.21727
 30
0.0
  0
SPLINE
  5
24d
100
AcDbEntity
  8
0
100
AcDbSpline
210
0.0
220
0.0
230
1.0
 62
     253
 70
     0
 71
     3
 72
     8
 73
4
 40
0.0
 40
0.0
 40
0.0
 40
0.0
 40
1.0
 40
1.0
 40
1.0
 40
1.0
 10
11.1111
 20
5.21727
 30
0.0
 10
10.9513
 20
5.18005
 30
0.0
 10
10.7611
 20
5.31922
 30
0.0
 10
10.6095
 20
5.58655
 30
0.0
  0
SPLINE
  5
24e
100
AcDbEntity
  8
0
100
AcDbSpline
210
0.0
220
0.0
230
1.0
 62
     253
 70
     0
 71
     3
 72
     8
 73
4
 40
0.0
 40
0.0
 40
0.0
 40
0.0
 40
1.0
 40
1.0
 40
1.0
 40
1.0
 10
10.6095
 20
5.58655
 30
0.0
 10
10.4579
 20
5.85392
 30
0.0
 10
10.3656
 20
6.21083
 30
0.0
 10
10.3656
 20
6.52914
 30
0.0
  0
LINE
  5
24f
100
AcDbEntity
  8
0
100
AcDbLine
 62
     253
 10
0.591178
 20
8.35367
 30
0.0
 11
1.61919
 21
8.59621
 31
0.0
  0
LINE
  5
250
100
AcDbEntity
  8
0
100
AcDbLine
 62
     253
 10
1.61919
 20
8.59621
 30
0.0
 11
6.50709
 21
5.38674
 31
0.0
  0
LINE
  5
251
100
AcDbEntity
  8
0
100
AcDbLine
 62
     253
 10
6.50709
 20
5.38674
 30
0.0
 11
7.5365
 21
4.71015
 31
0.0
  0
LINE
  5
252
100
AcDbEntity
  8
0
100
AcDbLine
 62
     253
 10
7.5365
 20
3.79236
 30
0.0
 11
7.5365
 21
4.71015
 31
0.0
  0
SPLINE
  5
253
100
AcDbEntity
  8
0
100
AcDbSpline
210
0.0
220
0.0
230
1.0
 62
     253
 70
     0
 71
     3
 72
     8
 73
4
 40
0.0
 40
0.0
 40
0.0
 40
0.0
 40
1.0
 40
1.0
 40
1.0
 40
1.0
 10
12.9384
 20
13.7583
 30
0.0
 10
12.5484
 20
13.7969
 30
0.0
 10
12.1254
 20
13.5144
 30
0.0
 10
11.9283
 20
13.0831
 30
0.0
  0
SPLINE
  5
254
100
AcDbEntity
  8
0
100
AcDbSpline
210
0.0
220
0.0
230
1.0
 62
     253
 70
     0
 71
     3
 72
     8
 73
4
 40
0.0
 40
0.0
 40
0.0
 40
0.0
 40
1.0
 40
1.0
 40
1.0
 40
1.0
 10
11.9283
 20
13.0831
 30
0.0
 10
11.7326
 20
12.6518
 30
0.0
 10
11.8181
 20
12.1915
 30
0.0
 10
12.1322
 20
11.9848
 30
0.0
  0
SPLINE
  5
255
100
AcDbEntity
  8
0
100
AcDbSpline
210
0.0
220
0.0
230
1.0
 62
     253
 70
     0
 71
     3
 72
     8
 73
4
 40
0.0
 40
0.0
 40
0.0
 40
0.0
 40
1.0
 40
1.0
 40
1.0
 40
1.0
 10
12.1322
 20
11.9848
 30
0.0
 10
12.3569
 20
11.8374
 30
0.0
 10
12.66
 20
11.8442
 30
0.0
 10
12.9384
 20
12.0041
 30
0.0
  0
SPLINE
  5
256
100
AcDbEntity
  8
0
100
AcDbSpline
210
0.0
220
0.0
230
1.0
 62
     253
 70
     0
 71
     3
 72
     8
 73
4
 40
0.0
 40
0.0
 40
0.0
 40
0.0
 40
1.0
 40
1.0
 40
1.0
 40
1.0
 10
12.9384
 20
5.48598
 30
0.0
 10
12.5484
 20
5.52595
 30
0.0
 10
12.1254
 20
5.24344
 30
0.0
 10
11.9283
 20
4.81072
 30
0.0
  0
SPLINE
  5
257
100
AcDbEntity
  8
0
100
AcDbSpline
210
0.0
220
0.0
230
1.0
 62
     253
 70
     0
 71
     3
 72
     8
 73
4
 40
0.0
 40
0.0
 40
0.0
 40
0.0
 40
1.0
 40
1.0
 40
1.0
 40
1.0
 10
11.9283
 20
4.81072
 30
0.0
 10
11.7326
 20
4.37942
 30
0.0
 10
11.8181
 20
3.91915
 30
0.0
 10
12.1322
 20
3.71242
 30
0.0
  0
SPLINE
  5
258
100
AcDbEntity
  8
0
100
AcDbSpline
210
0.0
220
0.0
230
1.0
 62
     253
 70
     0
 71
     3
 72
     8
 73
4
 40
0.0
 40
0.0
 40
0.0
 40
0.0
 40
1.0
 40
1.0
 40
1.0
 40
1.0
 10
12.1322
 20
3.71242
 30
0.0
 10
12.3569
 20
3.565
 30
0.0
 10
12.66
 20
3.57325
 30
0.0
 10
12.9384
 20
3.73309
 30
0.0
  0
LINE
  5
259
100
AcDbEntity
  8
0
100
AcDbLine
 62
     253
 10
0.0757922
 20
9.61044
 30
0.0
 11
1.10519
 21
9.85435
 31
0.0
  0
LINE
  5
25a
100
AcDbEntity
  8
0
100
AcDbLine
 62
     253
 10
1.61919
 20
8.59621
 30
0.0
 11
1.10519
 21
9.85435
 31
0.0
  0
LINE
  5
25b
100
AcDbEntity
  8
0
100
AcDbLine
 62
     253
 10
1.10519
 20
38.3452
 30
0.0
 11
0.0757922
 21
38.1028
 31
0.0
  0
LINE
  5
25c
100
AcDbEntity
  8
0
100
AcDbLine
 62
     253
 10
1.10519
 20
9.85435
 30
0.0
 11
1.10519
 21
38.3452
 31
0.0
  0
LINE
  5
25d
100
AcDbEntity
  8
0
100
AcDbLine
 62
     253
 10
1.61919
 20
38.9269
 30
0.0
 11
1.10519
 21
38.3452
 31
0.0
  0
SPLINE
  5
25e
100
AcDbEntity
  8
0
100
AcDbSpline
210
0.0
220
0.0
230
1.0
 62
     253
 70
     0
 71
     3
 72
     8
 73
4
 40
0.0
 40
0.0
 40
0.0
 40
0.0
 40
1.0
 40
1.0
 40
1.0
 40
1.0
 10
2.64859
 20
11.5976
 30
0.0
 10
2.64859
 20
11.9448
 30
0.0
 10
2.75883
 20
12.1915
 30
0.0
 10
2.93247
 20
12.2329
 30
0.0
  0
SPLINE
  5
25f
100
AcDbEntity
  8
0
100
AcDbSpline
210
0.0
220
0.0
230
1.0
 62
     253
 70
     0
 71
     3
 72
     8
 73
4
 40
0.0
 40
0.0
 40
0.0
 40
0.0
 40
1.0
 40
1.0
 40
1.0
 40
1.0
 10
2.93247
 20
12.2329
 30
0.0
 10
3.1874
 20
12.2921
 30
0.0
 10
3.49608
 20
11.9063
 30
0.0
 10
3.62285
 20
11.3675
 30
0.0
  0
SPLINE
  5
260
100
AcDbEntity
  8
0
100
AcDbSpline
210
0.0
220
0.0
230
1.0
 62
     253
 70
     0
 71
     3
 72
     8
 73
4
 40
0.0
 40
0.0
 40
0.0
 40
0.0
 40
1.0
 40
1.0
 40
1.0
 40
1.0
 10
3.62285
 20
11.3675
 30
0.0
 10
3.74964
 20
10.8314
 30
0.0
 10
3.64765
 20
10.3463
 30
0.0
 10
3.39273
 20
10.2857
 30
0.0
  0
SPLINE
  5
261
100
AcDbEntity
  8
0
100
AcDbSpline
210
0.0
220
0.0
230
1.0
 62
     253
 70
     0
 71
     3
 72
     8
 73
4
 40
0.0
 40
0.0
 40
0.0
 40
0.0
 40
1.0
 40
1.0
 40
1.0
 40
1.0
 10
3.39273
 20
10.2857
 30
0.0
 10
3.23426
 20
10.2485
 30
0.0
 10
3.04409
 20
10.3876
 30
0.0
 10
2.8925
 20
10.655
 30
0.0
  0
SPLINE
  5
262
100
AcDbEntity
  8
0
100
AcDbSpline
210
0.0
220
0.0
230
1.0
 62
     253
 70
     0
 71
     3
 72
     8
 73
4
 40
0.0
 40
0.0
 40
0.0
 40
0.0
 40
1.0
 40
1.0
 40
1.0
 40
1.0
 10
2.8925
 20
10.655
 30
0.0
 10
2.74092
 20
10.9223
 30
0.0
 10
2.64859
 20
11.2793
 30
0.0
 10
2.64859
 20
11.5976
 30
0.0
  0
SPLINE
  5
263
100
AcDbEntity
  8
0
100
AcDbSpline
210
0.0
220
0.0
230
1.0
 62
     253
 70
     0
 71
     3
 72
     8
 73
4
 40
0.0
 40
0.0
 40
0.0
 40
0.0
 40
1.0
 40
1.0
 40
1.0
 40
1.0
 10
2.64859
 20
34.575
 30
0.0
 10
2.64859
 20
34.9222
 30
0.0
 10
2.75883
 20
35.1689
 30
0.0
 10
2.93247
 20
35.2103
 30
0.0
  0
SPLINE
  5
264
100
AcDbEntity
  8
0
100
AcDbSpline
210
0.0
220
0.0
230
1.0
 62
     253
 70
     0
 71
     3
 72
     8
 73
4
 40
0.0
 40
0.0
 40
0.0
 40
0.0
 40
1.0
 40
1.0
 40
1.0
 40
1.0
 10
2.93247
 20
35.2103
 30
0.0
 10
3.1874
 20
35.2695
 30
0.0
 10
3.49608
 20
34.8823
 30
0.0
 10
3.62285
 20
34.3449
 30
0.0
  0
SPLINE
  5
265
100
AcDbEntity
  8
0
100
AcDbSpline
210
0.0
220
0.0
230
1.0
 62
     253
 70
     0
 71
     3
 72
     8
 73
4
 40
0.0
 40
0.0
 40
0.0
 40
0.0
 40
1.0
 40
1.0
 40
1.0
 40
1.0
 10
3.62285
 20
34.3449
 30
0.0
 10
3.74964
 20
33.8074
 30
0.0
 10
3.64765
 20
33.3237
 30
0.0
 10
3.39273
 20
33.2631
 30
0.0
  0
SPLINE
  5
266
100
AcDbEntity
  8
0
100
AcDbSpline
210
0.0
220
0.0
230
1.0
 62
     253
 70
     0
 71
     3
 72
     8
 73
4
 40
0.0
 40
0.0
 40
0.0
 40
0.0
 40
1.0
 40
1.0
 40
1.0
 40
1.0
 10
3.39273
 20
33.2631
 30
0.0
 10
3.23426
 20
33.2259
 30
0.0
 10
3.04409
 20
33.3651
 30
0.0
 10
2.8925
 20
33.6324
 30
0.0
  0
SPLINE
  5
267
100
AcDbEntity
  8
0
100
AcDbSpline
210
0.0
220
0.0
230
1.0
 62
     253
 70
     0
 71
     3
 72
     8
 73
4
 40
0.0
 40
0.0
 40
0.0
 40
0.0
 40
1.0
 40
1.0
 40
1.0
 40
1.0
 10
2.8925
 20
33.6324
 30
0.0
 10
2.74092
 20
33.8998
 30
0.0
 10
2.64859
 20
34.2553
 30
0.0
 10
2.64859
 20
34.575
 30
0.0
  0
LINE
  5
268
100
AcDbEntity
  8
0
100
AcDbLine
 62
     253
 10
6.50709
 20
5.38674
 30
0.0
 11
6.50709
 21
35.7159
 31
0.0
  0
LINE
  5
269
100
AcDbEntity
  8
0
100
AcDbLine
 62
     253
 10
6.50709
 20
4.46761
 30
0.0
 11
6.50709
 21
5.38674
 31
0.0
  0
LINE
  5
26a
100
AcDbEntity
  8
0
100
AcDbLine
 62
     253
 10
15.0826
 20
1.89894
 30
0.0
 11
7.36424
 21
0.0744142
 31
0.0
  0
LINE
  5
26b
100
AcDbEntity
  8
0
100
AcDbLine
 62
     253
 10
16.1107
 20
1.2237
 30
0.0
 11
15.0826
 21
1.89894
 31
0.0
  0
LINE
  5
26c
100
AcDbEntity
  8
0
100
AcDbLine
 62
     253
 10
16.9692
 20
2.34542
 30
0.0
 11
15.9398
 21
3.02066
 31
0.0
  0
LINE
  5
26d
100
AcDbEntity
  8
0
100
AcDbLine
 62
     253
 10
15.0826
 20
1.89894
 30
0.0
 11
15.9398
 21
3.02066
 31
0.0
  0
LINE
  5
26e
100
AcDbEntity
  8
0
100
AcDbLine
 62
     253
 10
16.9692
 20
58.4094
 30
0.0
 11
15.9398
 21
59.086
 31
0.0
  0
LINE
  5
26f
100
AcDbEntity
  8
0
100
AcDbLine
 62
     253
 10
15.9398
 20
3.02066
 30
0.0
 11
15.9398
 21
59.086
 31
0.0
  0
LINE
  5
270
100
AcDbEntity
  8
0
100
AcDbLine
 62
     253
 10
15.9398
 20
59.086
 30
0.0
 11
15.0826
 21
59.8015
 31
0.0
  0
SPLINE
  5
271
100
AcDbEntity
  8
0
100
AcDbSpline
210
0.0
220
0.0
230
1.0
 62
     253
 70
     0
 71
     3
 72
     8
 73
4
 40
0.0
 40
0.0
 40
0.0
 40
0.0
 40
1.0
 40
1.0
 40
1.0
 40
1.0
 10
12.5098
 20
13.6991
 30
0.0
 10
12.5098
 20
13.9719
 30
0.0
 10
12.3968
 20
14.2034
 30
0.0
 10
12.2011
 20
14.3316
 30
0.0
  0
SPLINE
  5
272
100
AcDbEntity
  8
0
100
AcDbSpline
210
0.0
220
0.0
230
1.0
 62
     253
 70
     0
 71
     3
 72
     8
 73
4
 40
0.0
 40
0.0
 40
0.0
 40
0.0
 40
1.0
 40
1.0
 40
1.0
 40
1.0
 10
12.2011
 20
14.3316
 30
0.0
 10
11.8374
 20
14.5714
 30
0.0
 10
11.2971
 20
14.3909
 30
0.0
 10
10.994
 20
13.9292
 30
0.0
  0
SPLINE
  5
273
100
AcDbEntity
  8
0
100
AcDbSpline
210
0.0
220
0.0
230
1.0
 62
     253
 70
     0
 71
     3
 72
     8
 73
4
 40
0.0
 40
0.0
 40
0.0
 40
0.0
 40
1.0
 40
1.0
 40
1.0
 40
1.0
 10
10.994
 20
13.9292
 30
0.0
 10
10.6908
 20
13.4676
 30
0.0
 10
10.739
 20
12.8998
 30
0.0
 10
11.1029
 20
12.66
 30
0.0
  0
SPLINE
  5
274
100
AcDbEntity
  8
0
100
AcDbSpline
210
0.0
220
0.0
230
1.0
 62
     253
 70
     0
 71
     3
 72
     8
 73
4
 40
0.0
 40
0.0
 40
0.0
 40
0.0
 40
1.0
 40
1.0
 40
1.0
 40
1.0
 10
11.1029
 20
12.66
 30
0.0
 10
11.3592
 20
12.4919
 30
0.0
 10
11.7147
 20
12.5277
 30
0.0
 10
12.0165
 20
12.7496
 30
0.0
  0
SPLINE
  5
275
100
AcDbEntity
  8
0
100
AcDbSpline
210
0.0
220
0.0
230
1.0
 62
     253
 70
     0
 71
     3
 72
     8
 73
4
 40
0.0
 40
0.0
 40
0.0
 40
0.0
 40
1.0
 40
1.0
 40
1.0
 40
1.0
 10
12.0165
 20
12.7496
 30
0.0
 10
12.3169
 20
12.9728
 30
0.0
 10
12.5098
 20
13.3422
 30
0.0
 10
12.5098
 20
13.6991
 30
0.0
  0
SPLINE
  5
276
100
AcDbEntity
  8
0
100
AcDbSpline
210
0.0
220
0.0
230
1.0
 62
     253
 70
     0
 71
     3
 72
     8
 73
4
 40
0.0
 40
0.0
 40
0.0
 40
0.0
 40
1.0
 40
1.0
 40
1.0
 40
1.0
 10
12.5098
 20
5.42671
 30
0.0
 10
12.5098
 20
5.69958
 30
0.0
 10
12.3968
 20
5.93245
 30
0.0
 10
12.2011
 20
6.06062
 30
0.0
  0
SPLINE
  5
277
100
AcDbEntity
  8
0
100
AcDbSpline
210
0.0
220
0.0
230
1.0
 62
     253
 70
     0
 71
     3
 72
     8
 73
4
 40
0.0
 40
0.0
 40
0.0
 40
0.0
 40
1.0
 40
1.0
 40
1.0
 40
1.0
 10
12.2011
 20
6.06062
 30
0.0
 10
11.8374
 20
6.29902
 30
0.0
 10
11.2971
 20
6.11851
 30
0.0
 10
10.994
 20
5.65686
 30
0.0
  0
SPLINE
  5
278
100
AcDbEntity
  8
0
100
AcDbSpline
210
0.0
220
0.0
230
1.0
 62
     253
 70
     0
 71
     3
 72
     8
 73
4
 40
0.0
 40
0.0
 40
0.0
 40
0.0
 40
1.0
 40
1.0
 40
1.0
 40
1.0
 10
10.994
 20
5.65686
 30
0.0
 10
10.6908
 20
5.19522
 30
0.0
 10
10.739
 20
4.62746
 30
0.0
 10
11.1029
 20
4.38905
 30
0.0
  0
SPLINE
  5
279
100
AcDbEntity
  8
0
100
AcDbSpline
210
0.0
220
0.0
230
1.0
 62
     253
 70
     0
 71
     3
 72
     8
 73
4
 40
0.0
 40
0.0
 40
0.0
 40
0.0
 40
1.0
 40
1.0
 40
1.0
 40
1.0
 10
11.1029
 20
4.38905
 30
0.0
 10
11.3592
 20
4.22092
 30
0.0
 10
11.7147
 20
4.25538
 30
0.0
 10
12.0165
 20
4.47862
 30
0.0
  0
SPLINE
  5
27a
100
AcDbEntity
  8
0
100
AcDbSpline
210
0.0
220
0.0
230
1.0
 62
     253
 70
     0
 71
     3
 72
     8
 73
4
 40
0.0
 40
0.0
 40
0.0
 40
0.0
 40
1.0
 40
1.0
 40
1.0
 40
1.0
 10
12.0165
 20
4.47862
 30
0.0
 10
12.3169
 20
4.70048
 30
0.0
 10
12.5098
 20
5.07118
 30
0.0
 10
12.5098
 20
5.42671
 30
0.0
  0
SPLINE
  5
27b
100
AcDbEntity
  8
0
100
AcDbSpline
210
0.0
220
0.0
230
1.0
 62
     253
 70
     0
 71
     3
 72
     8
 73
4
 40
0.0
 40
0.0
 40
0.0
 40
0.0
 40
1.0
 40
1.0
 40
1.0
 40
1.0
 10
12.5098
 20
55.058
 30
0.0
 10
12.5098
 20
55.3311
 30
0.0
 10
12.3968
 20
55.5625
 30
0.0
 10
12.2011
 20
55.6906
 30
0.0
  0
SPLINE
  5
27c
100
AcDbEntity
  8
0
100
AcDbSpline
210
0.0
220
0.0
230
1.0
 62
     253
 70
     0
 71
     3
 72
     8
 73
4
 40
0.0
 40
0.0
 40
0.0
 40
0.0
 40
1.0
 40
1.0
 40
1.0
 40
1.0
 10
12.2011
 20
55.6906
 30
0.0
 10
11.8374
 20
55.9304
 30
0.0
 10
11.2971
 20
55.7498
 30
0.0
 10
10.994
 20
55.2884
 30
0.0
  0
SPLINE
  5
27d
100
AcDbEntity
  8
0
100
AcDbSpline
210
0.0
220
0.0
230
1.0
 62
     253
 70
     0
 71
     3
 72
     8
 73
4
 40
0.0
 40
0.0
 40
0.0
 40
0.0
 40
1.0
 40
1.0
 40
1.0
 40
1.0
 10
10.994
 20
55.2884
 30
0.0
 10
10.6908
 20
54.8266
 30
0.0
 10
10.739
 20
54.259
 30
0.0
 10
11.1029
 20
54.0191
 30
0.0
  0
SPLINE
  5
27e
100
AcDbEntity
  8
0
100
AcDbSpline
210
0.0
220
0.0
230
1.0
 62
     253
 70
     0
 71
     3
 72
     8
 73
4
 40
0.0
 40
0.0
 40
0.0
 40
0.0
 40
1.0
 40
1.0
 40
1.0
 40
1.0
 10
11.1029
 20
54.0191
 30
0.0
 10
11.3041
 20
53.8882
 30
0.0
 10
11.5686
 20
53.8787
 30
0.0
 10
11.8236
 20
53.9958
 30
0.0
  0
SPLINE
  5
27f
100
AcDbEntity
  8
0
100
AcDbSpline
210
0.0
220
0.0
230
1.0
 62
     253
 70
     0
 71
     3
 72
     8
 73
4
 40
0.0
 40
0.0
 40
0.0
 40
0.0
 40
1.0
 40
1.0
 40
1.0
 40
1.0
 10
12.5098
 20
55.039
 30
0.0
 10
12.5098
 20
55.0457
 30
0.0
 10
12.5098
 20
55.0513
 30
0.0
 10
12.5098
 20
55.058
 30
0.0
  0
SPLINE
  5
280
100
AcDbEntity
  8
0
100
AcDbSpline
210
0.0
220
0.0
230
1.0
 62
     253
 70
     0
 71
     3
 72
     8
 73
4
 40
0.0
 40
0.0
 40
0.0
 40
0.0
 40
1.0
 40
1.0
 40
1.0
 40
1.0
 10
12.5098
 20
46.7857
 30
0.0
 10
12.5098
 20
47.0588
 30
0.0
 10
12.3968
 20
47.2902
 30
0.0
 10
12.2011
 20
47.4197
 30
0.0
  0
SPLINE
  5
281
100
AcDbEntity
  8
0
100
AcDbSpline
210
0.0
220
0.0
230
1.0
 62
     253
 70
     0
 71
     3
 72
     8
 73
4
 40
0.0
 40
0.0
 40
0.0
 40
0.0
 40
1.0
 40
1.0
 40
1.0
 40
1.0
 10
12.2011
 20
47.4197
 30
0.0
 10
11.8374
 20
47.6582
 30
0.0
 10
11.2971
 20
47.4775
 30
0.0
 10
10.994
 20
47.0158
 30
0.0
  0
SPLINE
  5
282
100
AcDbEntity
  8
0
100
AcDbSpline
210
0.0
220
0.0
230
1.0
 62
     253
 70
     0
 71
     3
 72
     8
 73
4
 40
0.0
 40
0.0
 40
0.0
 40
0.0
 40
1.0
 40
1.0
 40
1.0
 40
1.0
 10
10.994
 20
47.0158
 30
0.0
 10
10.6908
 20
46.5543
 30
0.0
 10
10.739
 20
45.9863
 30
0.0
 10
11.1029
 20
45.7482
 30
0.0
  0
SPLINE
  5
283
100
AcDbEntity
  8
0
100
AcDbSpline
210
0.0
220
0.0
230
1.0
 62
     253
 70
     0
 71
     3
 72
     8
 73
4
 40
0.0
 40
0.0
 40
0.0
 40
0.0
 40
1.0
 40
1.0
 40
1.0
 40
1.0
 10
11.1029
 20
45.7482
 30
0.0
 10
11.3041
 20
45.6159
 30
0.0
 10
11.5686
 20
45.6075
 30
0.0
 10
11.8236
 20
45.7232
 30
0.0
  0
SPLINE
  5
284
100
AcDbEntity
  8
0
100
AcDbSpline
210
0.0
220
0.0
230
1.0
 62
     253
 70
     0
 71
     3
 72
     8
 73
4
 40
0.0
 40
0.0
 40
0.0
 40
0.0
 40
1.0
 40
1.0
 40
1.0
 40
1.0
 10
12.5098
 20
46.7678
 30
0.0
 10
12.5098
 20
46.7734
 30
0.0
 10
12.5098
 20
46.7801
 30
0.0
 10
12.5098
 20
46.7857
 30
0.0
  0
SPLINE
  5
285
100
AcDbEntity
  8
0
100
AcDbSpline
210
0.0
220
0.0
230
1.0
 62
     253
 70
     0
 71
     3
 72
     8
 73
4
 40
0.0
 40
0.0
 40
0.0
 40
0.0
 40
1.0
 40
1.0
 40
1.0
 40
1.0
 10
13.5048
 20
50.9266
 30
0.0
 10
13.5048
 20
51.1016
 30
0.0
 10
13.5599
 20
51.2244
 30
0.0
 10
13.6467
 20
51.2452
 30
0.0
  0
SPLINE
  5
286
100
AcDbEntity
  8
0
100
AcDbSpline
210
0.0
220
0.0
230
1.0
 62
     253
 70
     0
 71
     3
 72
     8
 73
4
 40
0.0
 40
0.0
 40
0.0
 40
0.0
 40
1.0
 40
1.0
 40
1.0
 40
1.0
 10
13.6467
 20
51.2452
 30
0.0
 10
13.7735
 20
51.2755
 30
0.0
 10
13.9278
 20
51.0812
 30
0.0
 10
13.9912
 20
50.8123
 30
0.0
  0
SPLINE
  5
287
100
AcDbEntity
  8
0
100
AcDbSpline
210
0.0
220
0.0
230
1.0
 62
     253
 70
     0
 71
     3
 72
     8
 73
4
 40
0.0
 40
0.0
 40
0.0
 40
0.0
 40
1.0
 40
1.0
 40
1.0
 40
1.0
 10
13.9912
 20
50.8123
 30
0.0
 10
14.0546
 20
50.5435
 30
0.0
 10
14.0036
 20
50.3026
 30
0.0
 10
13.8768
 20
50.2722
 30
0.0
  0
SPLINE
  5
288
100
AcDbEntity
  8
0
100
AcDbSpline
210
0.0
220
0.0
230
1.0
 62
     253
 70
     0
 71
     3
 72
     8
 73
4
 40
0.0
 40
0.0
 40
0.0
 40
0.0
 40
1.0
 40
1.0
 40
1.0
 40
1.0
 10
13.8768
 20
50.2722
 30
0.0
 10
13.7969
 20
50.2528
 30
0.0
 10
13.7018
 20
50.323
 30
0.0
 10
13.626
 20
50.4567
 30
0.0
  0
SPLINE
  5
289
100
AcDbEntity
  8
0
100
AcDbSpline
210
0.0
220
0.0
230
1.0
 62
     253
 70
     0
 71
     3
 72
     8
 73
4
 40
0.0
 40
0.0
 40
0.0
 40
0.0
 40
1.0
 40
1.0
 40
1.0
 40
1.0
 10
13.626
 20
50.4567
 30
0.0
 10
13.5503
 20
50.5905
 30
0.0
 10
13.5048
 20
50.7683
 30
0.0
 10
13.5048
 20
50.9266
 30
0.0
  0
LINE
  5
28a
100
AcDbEntity
  8
0
100
AcDbLine
 62
     253
 10
9.62145
 20
29.8979
 30
0.0
 11
10.6509
 21
30.1418
 31
0.0
  0
LINE
  5
28b
100
AcDbEntity
  8
0
100
AcDbLine
 62
     253
 10
10.0817
 20
27.9521
 30
0.0
 11
11.1111
 21
28.1947
 31
0.0
  0
LINE
  5
28c
100
AcDbEntity
  8
0
100
AcDbLine
 62
     253
 10
9.62145
 20
6.92051
 30
0.0
 11
10.6509
 21
7.16442
 31
0.0
  0
LINE
  5
28d
100
AcDbEntity
  8
0
100
AcDbLine
 62
     253
 10
10.0817
 20
4.97473
 30
0.0
 11
11.1111
 21
5.21727
 31
0.0
  0
LINE
  5
28e
100
AcDbEntity
  8
0
100
AcDbLine
 62
     253
 10
1.90445
 20
11.9889
 30
0.0
 11
2.93247
 21
12.2329
 31
0.0
  0
LINE
  5
28f
100
AcDbEntity
  8
0
100
AcDbLine
 62
     253
 10
2.36472
 20
10.0432
 30
0.0
 11
3.39273
 21
10.2857
 31
0.0
  0
LINE
  5
290
100
AcDbEntity
  8
0
100
AcDbLine
 62
     253
 10
1.90445
 20
34.9663
 30
0.0
 11
2.93247
 21
35.2103
 31
0.0
  0
LINE
  5
291
100
AcDbEntity
  8
0
100
AcDbLine
 62
     253
 10
2.36472
 20
33.0206
 30
0.0
 11
3.39273
 21
33.2631
 31
0.0
  0
LINE
  5
292
100
AcDbEntity
  8
0
100
AcDbLine
 62
     253
 10
12.2011
 20
14.3316
 30
0.0
 11
13.2305
 21
13.6563
 31
0.0
  0
LINE
  5
293
100
AcDbEntity
  8
0
100
AcDbLine
 62
     253
 10
11.1029
 20
12.66
 30
0.0
 11
12.1322
 21
11.9848
 31
0.0
  0
LINE
  5
294
100
AcDbEntity
  8
0
100
AcDbLine
 62
     253
 10
12.2011
 20
6.06062
 30
0.0
 11
13.2305
 21
5.38399
 31
0.0
  0
LINE
  5
295
100
AcDbEntity
  8
0
100
AcDbLine
 62
     253
 10
11.1029
 20
4.38905
 30
0.0
 11
12.1322
 21
3.71242
 31
0.0
  0
LINE
  5
296
100
AcDbEntity
  8
0
100
AcDbLine
 62
     253
 10
12.2011
 20
55.6906
 30
0.0
 11
13.2305
 21
55.0153
 31
0.0
  0
LINE
  5
297
100
AcDbEntity
  8
0
100
AcDbLine
 62
     253
 10
11.1029
 20
54.0191
 30
0.0
 11
12.1322
 21
53.3439
 31
0.0
  0
LINE
  5
298
100
AcDbEntity
  8
0
100
AcDbLine
 62
     253
 10
12.2011
 20
47.4197
 30
0.0
 11
13.2305
 21
46.7431
 31
0.0
  0
LINE
  5
299
100
AcDbEntity
  8
0
100
AcDbLine
 62
     253
 10
11.1029
 20
45.7482
 30
0.0
 11
12.1322
 21
45.0716
 31
0.0
  0
LINE
  5
29a
100
AcDbEntity
  8
0
100
AcDbLine
 62
     253
 10
13.6467
 20
51.2452
 30
0.0
 11
6.90672
 21
49.6521
 31
0.0
  0
LINE
  5
29b
100
AcDbEntity
  8
0
100
AcDbLine
 62
     253
 10
13.8768
 20
50.2722
 30
0.0
 11
7.13687
 21
48.6777
 31
0.0
  0
ENDSEC
  0
SECTION
  2
OBJECTS
  0
DICTIONARY
  5
C
330
0
100
AcDbDictionary
  3
ACAD_GROUP
350
D
  3
ACAD_LAYOUT
350
1A
  3
ACAD_MLINESTYLE
350
17
  3
ACAD_PLOTSETTINGS
350
19
  3
ACAD_PLOTSTYLENAME
350
E
  3
ACDBHEADERROUNDTRIPXREC
350
2F
  0
DICTIONARY
  5
52
330
1F
100
AcDbDictionary
280
     1
  3
ACAD_LAYOUTSELFREF
360
53
  0
DICTIONARY
  5
50
330
1B
100
AcDbDictionary
280
     1
  3
ACAD_LAYOUTSELFREF
360
51
  0
DICTIONARY
  5
D
102
{ACAD_REACTORS
330
C
102
}
330
C
100
AcDbDictionary
  0
DICTIONARY
  5
1A
102
{ACAD_REACTORS
330
C
102
}
330
C
100
AcDbDictionary
  0
DICTIONARY
  5
17
102
{ACAD_REACTORS
330
C
102
}
330
C
100
AcDbDictionary
  3
STANDARD
350
18
  0
DICTIONARY
  5
19
102
{ACAD_REACTORS
330
C
102
}
330
C
100
AcDbDictionary
  0
ACDBDICTIONARYWDFLT
  5
E
102
{ACAD_REACTORS
330
C
102
}
330
C
100
AcDbDictionary
281
     1
  3
Normal
350
F
100
AcDbDictionaryWithDefault
340
F
  0
DICTIONARY
  5
2F
102
{ACAD_REACTORS
330
C
102
}
330
C
100
AcDbDictionary
  3
CEPSNTYPE
350
39
  3
DIMSTYLEDATA
350
3D
  3
FINGERPRINTGUID
350
3A
  3
HYPERLINKBASE
350
32
  3
INSUNITS
350
38
  3
LAYOUTDICT
350
34
  3
LWETCUNION
350
37
  3
PLOTSETDICT
350
35
  3
PLOTSTYLNAMDICT
350
36
  3
PSVPSCALE
350
3C
  3
PUCSBASE
350
40
  3
PUCSORGBACK
350
46
  3
PUCSORGBOTTOM
350
42
  3
PUCSORGFRONT
350
45
  3
PUCSORGLEFT
350
43
  3
PUCSORGRIGHT
350
44
  3
PUCSORGTOP
350
41
  3
PUCSORTHOREF
350
3E
  3
PUCSORTHOVIEW
350
3F
  3
STYLESHEET
350
33
  3
TSTACKALIGN
350
30
  3
TSTACKSIZE
350
31
  3
UCSBASE
350
49
  3
UCSORGBACK
350
4F
  3
UCSORGBOTTOM
350
4B
  3
UCSORGFRONT
350
4E
  3
UCSORGLEFT
350
4C
  3
UCSORGRIGHT
350
4D
  3
UCSORGTOP
350
4A
  3
UCSORTHOREF
350
47
  3
UCSORTHOVIEW
350
48
  3
VERSIONGUID
350
3B
  0
XRECORD
  5
53
102
{ACAD_REACTORS
330
52
102
}
330
52
100
AcDbXrecord
340
1F
  0
XRECORD
  5
51
102
{ACAD_REACTORS
330
50
102
}
330
50
100
AcDbXrecord
340
1B
  0
MLINESTYLE
  5
18
102
{ACAD_REACTORS
330
17
102
}
330
17
100
AcDbMlineStyle
  2
STANDARD
 70
     0
  3

 62
   256
 51
90.0
 52
90.0
 71
     2
 49
0.5
 62
   256
  6
BYLAYER
 49
-0.5
 62
   256
  6
BYLAYER
  0
ACDBPLACEHOLDER
  5
F
102
{ACAD_REACTORS
330
E
102
}
330
E
100
AcDbPlaceHolder
280
     0
  0
XRECORD
  5
39
102
{ACAD_REACTORS
330
2F
102
}
330
2F
100
AcDbXrecord
 90
        0
  0
XRECORD
  5
3D
102
{ACAD_REACTORS
330
2F
102
}
330
2F
100
AcDbXrecord
1000
DSTYLE
1002
{
1070
   278
 70
    44
1002
}
  0
XRECORD
  5
3A
102
{ACAD_REACTORS
330
2F
102
}
330
2F
100
AcDbXrecord
  1
{705446A6-11D0-4548-8F8C-A97DCA50327D}
  0
XRECORD
  5
32
102
{ACAD_REACTORS
330
2F
102
}
330
2F
100
AcDbXrecord
  1

  0
XRECORD
  5
38
102
{ACAD_REACTORS
330
2F
102
}
330
2F
100
AcDbXrecord
 90
        4
  0
XRECORD
  5
34
102
{ACAD_REACTORS
330
2F
102
}
330
2F
100
AcDbXrecord
340
1A
  0
XRECORD
  5
37
102
{ACAD_REACTORS
330
2F
102
}
330
2F
100
AcDbXrecord
 90
    10781
  0
XRECORD
  5
35
102
{ACAD_REACTORS
330
2F
102
}
330
2F
100
AcDbXrecord
340
19
  0
XRECORD
  5
36
102
{ACAD_REACTORS
330
2F
102
}
330
2F
100
AcDbXrecord
340
E
  0
XRECORD
  5
3C
102
{ACAD_REACTORS
330
2F
102
}
330
2F
100
AcDbXrecord
 40
0.0
  0
XRECORD
  5
40
102
{ACAD_REACTORS
330
2F
102
}
330
2F
100
AcDbXrecord
340
0
  0
XRECORD
  5
46
102
{ACAD_REACTORS
330
2F
102
}
330
2F
100
AcDbXrecord
 10
0.0
 20
0.0
 30
0.0
  0
XRECORD
  5
42
102
{ACAD_REACTORS
330
2F
102
}
330
2F
100
AcDbXrecord
 10
0.0
 20
0.0
 30
0.0
  0
XRECORD
  5
45
102
{ACAD_REACTORS
330
2F
102
}
330
2F
100
AcDbXrecord
 10
0.0
 20
0.0
 30
0.0
  0
XRECORD
  5
43
102
{ACAD_REACTORS
330
2F
102
}
330
2F
100
AcDbXrecord
 10
0.0
 20
0.0
 30
0.0
  0
XRECORD
  5
44
102
{ACAD_REACTORS
330
2F
102
}
330
2F
100
AcDbXrecord
 10
0.0
 20
0.0
 30
0.0
  0
XRECORD
  5
41
102
{ACAD_REACTORS
330
2F
102
}
330
2F
100
AcDbXrecord
 10
0.0
 20
0.0
 30
0.0
  0
XRECORD
  5
3E
102
{ACAD_REACTORS
330
2F
102
}
330
2F
100
AcDbXrecord
340
0
  0
XRECORD
  5
3F
102
{ACAD_REACTORS
330
2F
102
}
330
2F
100
AcDbXrecord
 70
     0
  0
XRECORD
  5
33
102
{ACAD_REACTORS
330
2F
102
}
330
2F
100
AcDbXrecord
  1

  0
XRECORD
  5
30
102
{ACAD_REACTORS
330
2F
102
}
330
2F
100
AcDbXrecord
 90
        1
  0
XRECORD
  5
31
102
{ACAD_REACTORS
330
2F
102
}
330
2F
100
AcDbXrecord
 90
       70
  0
XRECORD
  5
49
102
{ACAD_REACTORS
330
2F
102
}
330
2F
100
AcDbXrecord
340
0
  0
XRECORD
  5
4F
102
{ACAD_REACTORS
330
2F
102
}
330
2F
100
AcDbXrecord
 10
0.0
 20
0.0
 30
0.0
  0
XRECORD
  5
4B
102
{ACAD_REACTORS
330
2F
102
}
330
2F
100
AcDbXrecord
 10
0.0
 20
0.0
 30
0.0
  0
XRECORD
  5
4E
102
{ACAD_REACTORS
330
2F
102
}
330
2F
100
AcDbXrecord
 10
0.0
 20
0.0
 30
0.0
  0
XRECORD
  5
4C
102
{ACAD_REACTORS
330
2F
102
}
330
2F
100
AcDbXrecord
 10
0.0
 20
0.0
 30
0.0
  0
XRECORD
  5
4D
102
{ACAD_REACTORS
330
2F
102
}
330
2F
100
AcDbXrecord
 10
0.0
 20
0.0
 30
0.0
  0
XRECORD
  5
4A
102
{ACAD_REACTORS
330
2F
102
}
330
2F
100
AcDbXrecord
 10
0.0
 20
0.0
 30
0.0
  0
XRECORD
  5
47
102
{ACAD_REACTORS
330
2F
102
}
330
2F
100
AcDbXrecord
340
0
  0
XRECORD
  5
48
102
{ACAD_REACTORS
330
2F
102
}
330
2F
100
AcDbXrecord
 70
     0
  0
XRECORD
  5
3B
102
{ACAD_REACTORS
330
2F
102
}
330
2F
100
AcDbXrecord
  1
{33328E3A-B6B8-4979-86B7-D70DEC2867C2}
  0
ENDSEC
  0
EOF
